<?xml version="1.0" encoding="UTF-8"?>
<svg xmlns:xlink="http://www.w3.org/1999/xlink" xmlns="http://www.w3.org/2000/svg" contentScriptType="text/ecmascript" zoomAndPan="magnify" contentStyleType="text/css" preserveAspectRatio="xMidYMid meet" version="1.0">
<g>
<path style="fill:#a4bdc8;fill-opacity:1;fill-rule:nonzero;stroke:none" d="m 50.169,175.28125 0.0,-1.9275 c 0.0,-0.9625 -1.1792500000000001,-2.5475 -2.923375,-3.45375 1.744125,-0.9062500000000001 2.923375,-2.4925 2.923375,-3.4575 l 0.0,-1.35875 -11.363375,-0.0 0.0,1.35875 c 0.0,0.96875 1.1875,2.55125 2.9405,3.4575 -1.7530000000000001,0.9050000000000001 -2.9405,2.48875 -2.9405,3.45375 l 0.0,1.9275 11.363375,0.0 " id="centromere1-f"/>
<path style="fill:none;stroke:#100f0d;stroke-width:0.8;stroke-linecap:butt;stroke-linejoin:miter;stroke-miterlimit:4;stroke-opacity:1;stroke-dasharray:none" d="m 50.169,175.28125 0.0,-1.9275 c 0.0,-0.9625 -1.1792500000000001,-2.5475 -2.923375,-3.45375 1.744125,-0.9062500000000001 2.923375,-2.4925 2.923375,-3.4575 l 0.0,-1.35875 -11.363375,-0.0 0.0,1.35875 c 0.0,0.96875 1.1875,2.55125 2.9405,3.4575 -1.7530000000000001,0.9050000000000001 -2.9405,2.48875 -2.9405,3.45375 l 0.0,1.9275 11.363375,0.0 z " id="centromere1-o"/>
<path style="fill:#211c1d;fill-opacity:1;fill-rule:nonzero;stroke:none" d="m 38.795875,112.90624999999997 11.382812500000002,0.0 0.0,-14.896000000000003 -11.382812500000002,-0.0 0.0,14.896000000000003 z " id="1p31.1"/>
<path style="fill:#211c1d;fill-opacity:1;fill-rule:nonzero;stroke:none" d="m 38.795875,144.62999999999997 11.382812500000002,0.0 0.0,-4.926275 -11.382812500000002,-0.0 0.0,4.926275 z " id="1p21.1"/>
<path style="fill:#211c1d;fill-opacity:1;fill-rule:nonzero;stroke:none" d="m 38.795875,307.25124999999997 11.382812500000002,0.0 0.0,-7.113775000000001 -11.382812500000002,-0.0 0.0,7.113775000000001 z " id="1q41"/>
<path style="fill:#211c1d;fill-opacity:1;fill-rule:nonzero;stroke:none" d="m 38.795875,280.73862499999996 11.382812500000002,0.0 0.0,-5.2983375 -11.382812500000002,-0.0 0.0,5.2983375 z " id="1q31.3"/>
<path style="fill:#211c1d;fill-opacity:1;fill-rule:nonzero;stroke:none" d="m 38.795875,272.578875 11.382812500000002,0.0 0.0,-5.29785 -11.382812500000002,-0.0 0.0,5.29785 z " id="1q31.1"/>
<path style="fill:#e9eae9;fill-opacity:1;fill-rule:nonzero;stroke:none" d="m 38.795875,7.691249999999968 11.382812500000002,0.0 0.0,-3.4951125 -11.382812500000002,-0.0 0.0,3.4951125 z " id="1p36.32"/>
<path style="fill:none;stroke:#211c1d;stroke-width:0.1;stroke-linecap:butt;stroke-linejoin:miter;stroke-miterlimit:4;stroke-opacity:1;stroke-dasharray:none" d="m 38.795875,7.691249999999968 11.382812500000002,0.0 0.0,-3.4951125 -11.382812500000002,-0.0 0.0,3.4951125 z " id="1p36.32-o"/>
<path style="fill:#e9eae9;fill-opacity:1;fill-rule:nonzero;stroke:none" d="m 38.795875,12.449999999999989 11.382812500000002,0.0 0.0,-2.5878875 -11.382812500000002,-0.0 0.0,2.5878875 z " id="1p36.23"/>
<path style="fill:none;stroke:#211c1d;stroke-width:0.1;stroke-linecap:butt;stroke-linejoin:miter;stroke-miterlimit:4;stroke-opacity:1;stroke-dasharray:none" d="m 38.795875,12.449999999999989 11.382812500000002,0.0 0.0,-2.5878875 -11.382812500000002,-0.0 0.0,2.5878875 z " id="1p36.23-o"/>
<path style="fill:#e9eae9;fill-opacity:1;fill-rule:nonzero;stroke:none" d="m 38.795875,32.39124999999996 11.382812500000002,0.0 0.0,-3.0415 -11.382812500000002,-0.0 0.0,3.0415 z " id="1p36.12"/>
<path style="fill:none;stroke:#211c1d;stroke-width:0.1;stroke-linecap:butt;stroke-linejoin:miter;stroke-miterlimit:4;stroke-opacity:1;stroke-dasharray:none" d="m 38.795875,32.39124999999996 11.382812500000002,0.0 0.0,-3.0415 -11.382812500000002,-0.0 0.0,3.0415 z " id="1p36.12-o"/>
<path style="fill:#e9eae9;fill-opacity:1;fill-rule:nonzero;stroke:none" d="m 38.795875,39.642499999999984 11.382812500000002,0.0 0.0,-3.0415 -11.382812500000002,-0.0 0.0,3.0415 z " id="1p35.3"/>
<path style="fill:none;stroke:#211c1d;stroke-width:0.1;stroke-linecap:butt;stroke-linejoin:miter;stroke-miterlimit:4;stroke-opacity:1;stroke-dasharray:none" d="m 38.795875,39.642499999999984 11.382812500000002,0.0 0.0,-3.0415 -11.382812500000002,-0.0 0.0,3.0415 z " id="1p35.3-o"/>
<path style="fill:#e9eae9;fill-opacity:1;fill-rule:nonzero;stroke:none" d="m 38.795875,45.53249999999997 11.382812500000002,0.0 0.0,-3.0400375000000004 -11.382812500000002,-0.0 0.0,3.0400375000000004 z " id="1p35.1"/>
<path style="fill:none;stroke:#211c1d;stroke-width:0.1;stroke-linecap:butt;stroke-linejoin:miter;stroke-miterlimit:4;stroke-opacity:1;stroke-dasharray:none" d="m 38.795875,45.53249999999997 11.382812500000002,0.0 0.0,-3.0400375000000004 -11.382812500000002,-0.0 0.0,3.0400375000000004 z " id="1p35.1-o"/>
<path style="fill:#e9eae9;fill-opacity:1;fill-rule:nonzero;stroke:none" d="m 38.795875,56.86250000000001 11.382812500000002,0.0 0.0,-4.3994125 -11.382812500000002,-0.0 0.0,4.3994125 z " id="1p34.2"/>
<path style="fill:none;stroke:#211c1d;stroke-width:0.1;stroke-linecap:butt;stroke-linejoin:miter;stroke-miterlimit:4;stroke-opacity:1;stroke-dasharray:none" d="m 38.795875,56.86250000000001 11.382812500000002,0.0 0.0,-4.3994125 -11.382812500000002,-0.0 0.0,4.3994125 z " id="1p34.2-o"/>
<path style="fill:#e9eae9;fill-opacity:1;fill-rule:nonzero;stroke:none" d="m 38.795875,313.50762499999996 11.382812500000002,0.0 0.0,-4.53125 -11.382812500000002,-0.0 0.0,4.53125 z " id="1q42.12"/>
<path style="fill:none;stroke:#211c1d;stroke-width:0.1;stroke-linecap:butt;stroke-linejoin:miter;stroke-miterlimit:4;stroke-opacity:1;stroke-dasharray:none" d="m 38.795875,313.50762499999996 11.382812500000002,0.0 0.0,-4.53125 -11.382812500000002,-0.0 0.0,4.53125 z " id="1q42.12-o"/>
<path style="fill:#e9eae9;fill-opacity:1;fill-rule:nonzero;stroke:none" d="m 38.795875,295.381125 11.382812500000002,0.0 0.0,-4.5336875 -11.382812500000002,-0.0 0.0,4.5336875 z " id="1q32.2"/>
<path style="fill:none;stroke:#211c1d;stroke-width:0.1;stroke-linecap:butt;stroke-linejoin:miter;stroke-miterlimit:4;stroke-opacity:1;stroke-dasharray:none" d="m 38.795875,295.381125 11.382812500000002,0.0 0.0,-4.5336875 -11.382812500000002,-0.0 0.0,4.5336875 z " id="1q32.2-o"/>
<path style="fill:#7a7e82;fill-opacity:1;fill-rule:nonzero;stroke:none" d="m 38.795875,340.08525 11.382812500000002,0.0 0.0,-8.44775 -11.382812500000002,-0.0 0.0,8.44775 z " id="1q43"/>
<path style="fill:none;stroke:#211c1d;stroke-width:0.1;stroke-linecap:butt;stroke-linejoin:miter;stroke-miterlimit:4;stroke-opacity:1;stroke-dasharray:none" d="m 38.795875,340.08525 11.382812500000002,0.0 0.0,-8.44775 -11.382812500000002,-0.0 0.0,8.44775 z " id="1q43-o"/>
<path style="fill:#7a7e82;fill-opacity:1;fill-rule:nonzero;stroke:none" d="m 38.795875,126.17249999999999 11.382812500000002,0.0 0.0,-5.2763625 -11.382812500000002,-0.0 0.0,5.2763625 z " id="1p22.2"/>
<path style="fill:none;stroke:#211c1d;stroke-width:0.1;stroke-linecap:butt;stroke-linejoin:miter;stroke-miterlimit:4;stroke-opacity:1;stroke-dasharray:none" d="m 38.795875,126.17249999999999 11.382812500000002,0.0 0.0,-5.2763625 -11.382812500000002,-0.0 0.0,5.2763625 z " id="1p22.2-o"/>
<path style="fill:#7a7e82;fill-opacity:1;fill-rule:nonzero;stroke:none" d="m 38.795875,138.185 11.382812500000002,0.0 0.0,-5.27735 -11.382812500000002,-0.0 0.0,5.27735 z " id="1p21.3"/>
<path style="fill:none;stroke:#211c1d;stroke-width:0.1;stroke-linecap:butt;stroke-linejoin:miter;stroke-miterlimit:4;stroke-opacity:1;stroke-dasharray:none" d="m 38.795875,138.185 11.382812500000002,0.0 0.0,-5.27735 -11.382812500000002,-0.0 0.0,5.27735 z " id="1p21.3-o"/>
<path style="fill:#7a7e82;fill-opacity:1;fill-rule:nonzero;stroke:none" d="m 38.795875,70.43 11.382812500000002,0.0 0.0,-5.275875 -11.382812500000002,-0.0 0.0,5.275875 z " id="1p33"/>
<path style="fill:none;stroke:#211c1d;stroke-width:0.1;stroke-linecap:butt;stroke-linejoin:miter;stroke-miterlimit:4;stroke-opacity:1;stroke-dasharray:none" d="m 38.795875,70.43 11.382812500000002,0.0 0.0,-5.275875 -11.382812500000002,-0.0 0.0,5.275875 z " id="1p33-o"/>
<path style="fill:#7a7e82;fill-opacity:1;fill-rule:nonzero;stroke:none" d="m 38.795875,251.280125 11.382812500000002,0.0 0.0,-5.3002875 -11.382812500000002,-0.0 0.0,5.3002875 z " id="1q24.3"/>
<path style="fill:none;stroke:#211c1d;stroke-width:0.1;stroke-linecap:butt;stroke-linejoin:miter;stroke-miterlimit:4;stroke-opacity:1;stroke-dasharray:none" d="m 38.795875,251.280125 11.382812500000002,0.0 0.0,-5.3002875 -11.382812500000002,-0.0 0.0,5.3002875 z " id="1q24.3-o"/>
<path style="fill:#bbbcbd;fill-opacity:1;fill-rule:nonzero;stroke:none" d="m 38.795875,21.51249999999999 11.382812500000002,0.0 0.0,-4.3999 -11.382812500000002,-0.0 0.0,4.3999 z " id="1p36.21"/>
<path style="fill:none;stroke:#211c1d;stroke-width:0.1;stroke-linecap:butt;stroke-linejoin:miter;stroke-miterlimit:4;stroke-opacity:1;stroke-dasharray:none" d="m 38.795875,21.51249999999999 11.382812500000002,0.0 0.0,-4.3999 -11.382812500000002,-0.0 0.0,4.3999 z " id="1p36.21-o"/>
<path style="fill:#bbbcbd;fill-opacity:1;fill-rule:nonzero;stroke:none" d="m 38.795875,154.075 11.382812500000002,0.0 0.0,-4.625 -11.382812500000002,-0.0 0.0,4.625 z " id="1p13.2"/>
<path style="fill:none;stroke:#211c1d;stroke-width:0.1;stroke-linecap:butt;stroke-linejoin:miter;stroke-miterlimit:4;stroke-opacity:1;stroke-dasharray:none" d="m 38.795875,154.075 11.382812500000002,0.0 0.0,-4.625 -11.382812500000002,-0.0 0.0,4.625 z " id="1p13.2-o"/>
<path style="fill:#bbbcbd;fill-opacity:1;fill-rule:nonzero;stroke:none" d="m 38.795875,326.1975 11.382812500000002,0.0 0.0,-4.0776375 -11.382812500000002,-0.0 0.0,4.0776375 z " id="1q42.2"/>
<path style="fill:none;stroke:#211c1d;stroke-width:0.1;stroke-linecap:butt;stroke-linejoin:miter;stroke-miterlimit:4;stroke-opacity:1;stroke-dasharray:none" d="m 38.795875,326.1975 11.382812500000002,0.0 0.0,-4.0776375 -11.382812500000002,-0.0 0.0,4.0776375 z " id="1q42.2-o"/>
<path style="fill:#bbbcbd;fill-opacity:1;fill-rule:nonzero;stroke:none" d="m 38.795875,163.13999999999996 11.382812500000002,0.0 0.0,-4.174800000000001 -11.382812500000002,-0.0 0.0,4.174800000000001 z " id="1p12"/>
<path style="fill:none;stroke:#211c1d;stroke-width:0.1;stroke-linecap:butt;stroke-linejoin:miter;stroke-miterlimit:4;stroke-opacity:1;stroke-dasharray:none" d="m 38.795875,163.13999999999996 11.382812500000002,0.0 0.0,-4.174800000000001 -11.382812500000002,-0.0 0.0,4.174800000000001 z " id="1p12-o"/>
<path style="fill:#bbbcbd;fill-opacity:1;fill-rule:nonzero;stroke:none" d="m 38.795875,79.72125 11.382812500000002,0.0 0.0,-3.46485 -11.382812500000002,-0.0 0.0,3.46485 z " id="1p32.2"/>
<path style="fill:none;stroke:#211c1d;stroke-width:0.1;stroke-linecap:butt;stroke-linejoin:miter;stroke-miterlimit:4;stroke-opacity:1;stroke-dasharray:none" d="m 38.795875,79.72125 11.382812500000002,0.0 0.0,-3.46485 -11.382812500000002,-0.0 0.0,3.46485 z " id="1p32.2-o"/>
<path style="fill:#bbbcbd;fill-opacity:1;fill-rule:nonzero;stroke:none" d="m 38.795875,92.86374999999992 11.382812500000002,0.0 0.0,-5.9565375 -11.382812500000002,-0.0 0.0,5.9565375 z " id="1p31.3"/>
<path style="fill:none;stroke:#211c1d;stroke-width:0.1;stroke-linecap:butt;stroke-linejoin:miter;stroke-miterlimit:4;stroke-opacity:1;stroke-dasharray:none" d="m 38.795875,92.86374999999992 11.382812500000002,0.0 0.0,-5.9565375 -11.382812500000002,-0.0 0.0,5.9565375 z " id="1p31.3-o"/>
<path style="fill:#bbbcbd;fill-opacity:1;fill-rule:nonzero;stroke:none" d="m 38.795875,257.85137499999996 11.382812500000002,0.0 0.0,-4.1665 -11.382812500000002,-0.0 0.0,4.1665 z " id="1q25.2"/>
<path style="fill:none;stroke:#211c1d;stroke-width:0.1;stroke-linecap:butt;stroke-linejoin:miter;stroke-miterlimit:4;stroke-opacity:1;stroke-dasharray:none" d="m 38.795875,257.85137499999996 11.382812500000002,0.0 0.0,-4.1665 -11.382812500000002,-0.0 0.0,4.1665 z " id="1q25.2-o"/>
<path style="fill:#bbbcbd;fill-opacity:1;fill-rule:nonzero;stroke:none" d="m 38.795875,242.215125 11.382812500000002,0.0 0.0,-3.486325 -11.382812500000002,-0.0 0.0,3.486325 z " id="1q24.1"/>
<path style="fill:none;stroke:#211c1d;stroke-width:0.1;stroke-linecap:butt;stroke-linejoin:miter;stroke-miterlimit:4;stroke-opacity:1;stroke-dasharray:none" d="m 38.795875,242.215125 11.382812500000002,0.0 0.0,-3.486325 -11.382812500000002,-0.0 0.0,3.486325 z " id="1q24.1-o"/>
<path style="fill:#bbbcbd;fill-opacity:1;fill-rule:nonzero;stroke:none" d="m 38.795875,231.79125 11.382812500000002,0.0 0.0,-4.8461875 -11.382812500000002,-0.0 0.0,4.8461875 z " id="1q23.2"/>
<path style="fill:none;stroke:#211c1d;stroke-width:0.1;stroke-linecap:butt;stroke-linejoin:miter;stroke-miterlimit:4;stroke-opacity:1;stroke-dasharray:none" d="m 38.795875,231.79125 11.382812500000002,0.0 0.0,-4.8461875 -11.382812500000002,-0.0 0.0,4.8461875 z " id="1q23.2-o"/>
<path style="fill:#bbbcbd;fill-opacity:1;fill-rule:nonzero;stroke:none" d="m 38.795875,218.195 11.382812500000002,0.0 0.0,-4.84375 -11.382812500000002,-0.0 0.0,4.84375 z " id="1q22"/>
<path style="fill:none;stroke:#211c1d;stroke-width:0.1;stroke-linecap:butt;stroke-linejoin:miter;stroke-miterlimit:4;stroke-opacity:1;stroke-dasharray:none" d="m 38.795875,218.195 11.382812500000002,0.0 0.0,-4.84375 -11.382812500000002,-0.0 0.0,4.84375 z " id="1q22-o"/>
<path style="fill:#bbbcbd;fill-opacity:1;fill-rule:nonzero;stroke:none" d="m 38.795875,206.86624999999998 11.382812500000002,0.0 0.0,-4.8461875 -11.382812500000002,-0.0 0.0,4.8461875 z " id="1q21.2"/>
<path style="fill:none;stroke:#211c1d;stroke-width:0.1;stroke-linecap:butt;stroke-linejoin:miter;stroke-miterlimit:4;stroke-opacity:1;stroke-dasharray:none" d="m 38.795875,206.86624999999998 11.382812500000002,0.0 0.0,-4.8461875 -11.382812500000002,-0.0 0.0,4.8461875 z " id="1q21.2-o"/>
<path style="fill:#c4cdf2;fill-opacity:1;fill-rule:nonzero;stroke:none" d="m 38.795875,195.98749999999998 11.382812500000002,0.0 0.0,-20.7075 -11.382812500000002,-0.0 0.0,20.7075 z " id="1q12"/>
<path style="fill:none;stroke:#211c1d;stroke-width:0.8;stroke-linecap:butt;stroke-linejoin:miter;stroke-miterlimit:4;stroke-opacity:1;stroke-dasharray:none" d="m 38.795875,195.98749999999998 11.382812500000002,0.0 0.0,-20.7075 -11.382812500000002,-0.0 0.0,20.7075 z " id="1q12-o"/>
<path style="fill:none;stroke:#211c1d;stroke-width:0.8;stroke-linecap:butt;stroke-linejoin:miter;stroke-miterlimit:4;stroke-opacity:1;stroke-dasharray:none" d="m 41.746125000000006,169.89874999999998 c -1.7538750000000003,0.9050000000000001 -2.9395,2.49 -2.9395,3.4562500000000003 l 0.0,172.331375 c 0.0,1.416 2.544,2.5633750000000006 5.681125,2.5633750000000006 3.13875,0.0 5.68025,-1.147375 5.68025,-2.5633750000000006 l 0.0,-172.331375 c 0.0,-0.96375 -1.1782500000000002,-2.54875 -2.921375,-3.4562500000000003 1.743125,-0.9050000000000001 2.921375,-2.49125 2.921375,-3.455 l 0.0,-162.24625 c 0.0,-1.41625 -2.5415000000000005,-2.5625000000000004 -5.68025,-2.5625000000000004 -3.1371250000000006,-0.0 -5.681125,1.14625 -5.681125,2.5625000000000004 l 0.0,162.24625 c 0.0,0.9662500000000002 1.185625,2.55 2.9395,3.455 z " id="outline1"/>
<path style="fill:none;stroke:#231f20;stroke-width:0.8;stroke-linecap:butt;stroke-linejoin:miter;stroke-miterlimit:4;stroke-opacity:1;stroke-dasharray:none;display:none" d="M 41.349625,169.935 0.0,169.935 " id="centre1"/>
<text>
<tspan x="41.7915" y="356.90117499999997" id="label1" style="font-size:7.19543791px;font-variant:normal;font-weight:normal;writing-mode:lr-tb;fill:#211c1d;fill-opacity:1;fill-rule:nonzero;stroke:none;font-family:Helvetica;-inkscape-font-specification:Helvetica">1</tspan>
</text>
</g>
</svg>
