<?xml version="1.0" encoding="UTF-8"?>
<svg xmlns:xlink="http://www.w3.org/1999/xlink" xmlns="http://www.w3.org/2000/svg" contentScriptType="text/ecmascript" zoomAndPan="magnify" contentStyleType="text/css" preserveAspectRatio="xMidYMid meet" version="1.0">

<g id="chromosome1" title="Chromosome 1">
<path style="fill:#211c1d;fill-opacity:1;fill-rule:nonzero;stroke:none" id="1p31.1" d="m 38.795875,112.90624999999997 11.382812500000002,0.0 0.0,-14.896000000000003 -11.382812500000002,-0.0 0.0,14.896000000000003 z "/>
<path style="fill:#211c1d;fill-opacity:1;fill-rule:nonzero;stroke:none" id="1p21.1" d="m 38.795875,144.62999999999997 11.382812500000002,0.0 0.0,-4.926275 -11.382812500000002,-0.0 0.0,4.926275 z "/>
<path style="fill:#211c1d;fill-opacity:1;fill-rule:nonzero;stroke:none" id="1q41" d="m 38.795875,307.25124999999997 11.382812500000002,0.0 0.0,-7.113775000000001 -11.382812500000002,-0.0 0.0,7.113775000000001 z "/>
<path style="fill:#211c1d;fill-opacity:1;fill-rule:nonzero;stroke:none" id="1q31.3" d="m 38.795875,280.73862499999996 11.382812500000002,0.0 0.0,-5.2983375 -11.382812500000002,-0.0 0.0,5.2983375 z "/>
<path style="fill:#211c1d;fill-opacity:1;fill-rule:nonzero;stroke:none" id="1q31.1" d="m 38.795875,272.578875 11.382812500000002,0.0 0.0,-5.29785 -11.382812500000002,-0.0 0.0,5.29785 z "/>
<path style="fill:#e9eae9;fill-opacity:1;fill-rule:nonzero;stroke:none" id="1p36.32" d="m 38.795875,7.691249999999968 11.382812500000002,0.0 0.0,-3.4951125 -11.382812500000002,-0.0 0.0,3.4951125 z "/>
<path style="fill:none;stroke:#211c1d;stroke-width:0.1;stroke-linecap:butt;stroke-linejoin:miter;stroke-miterlimit:4;stroke-opacity:1;stroke-dasharray:none" id="1p36.32-o" d="m 38.795875,7.691249999999968 11.382812500000002,0.0 0.0,-3.4951125 -11.382812500000002,-0.0 0.0,3.4951125 z "/>
<path style="fill:#e9eae9;fill-opacity:1;fill-rule:nonzero;stroke:none" id="1p36.23" d="m 38.795875,12.449999999999989 11.382812500000002,0.0 0.0,-2.5878875 -11.382812500000002,-0.0 0.0,2.5878875 z "/>
<path style="fill:none;stroke:#211c1d;stroke-width:0.1;stroke-linecap:butt;stroke-linejoin:miter;stroke-miterlimit:4;stroke-opacity:1;stroke-dasharray:none" id="1p36.23-o" d="m 38.795875,12.449999999999989 11.382812500000002,0.0 0.0,-2.5878875 -11.382812500000002,-0.0 0.0,2.5878875 z "/>
<path style="fill:#e9eae9;fill-opacity:1;fill-rule:nonzero;stroke:none" id="1p36.12" d="m 38.795875,32.39124999999996 11.382812500000002,0.0 0.0,-3.0415 -11.382812500000002,-0.0 0.0,3.0415 z "/>
<path style="fill:none;stroke:#211c1d;stroke-width:0.1;stroke-linecap:butt;stroke-linejoin:miter;stroke-miterlimit:4;stroke-opacity:1;stroke-dasharray:none" id="1p36.12-o" d="m 38.795875,32.39124999999996 11.382812500000002,0.0 0.0,-3.0415 -11.382812500000002,-0.0 0.0,3.0415 z "/>
<path style="fill:#e9eae9;fill-opacity:1;fill-rule:nonzero;stroke:none" id="1p35.3" d="m 38.795875,39.642499999999984 11.382812500000002,0.0 0.0,-3.0415 -11.382812500000002,-0.0 0.0,3.0415 z "/>
<path style="fill:none;stroke:#211c1d;stroke-width:0.1;stroke-linecap:butt;stroke-linejoin:miter;stroke-miterlimit:4;stroke-opacity:1;stroke-dasharray:none" id="1p35.3-o" d="m 38.795875,39.642499999999984 11.382812500000002,0.0 0.0,-3.0415 -11.382812500000002,-0.0 0.0,3.0415 z "/>
<path style="fill:#e9eae9;fill-opacity:1;fill-rule:nonzero;stroke:none" id="1p35.1" d="m 38.795875,45.53249999999997 11.382812500000002,0.0 0.0,-3.0400375000000004 -11.382812500000002,-0.0 0.0,3.0400375000000004 z "/>
<path style="fill:none;stroke:#211c1d;stroke-width:0.1;stroke-linecap:butt;stroke-linejoin:miter;stroke-miterlimit:4;stroke-opacity:1;stroke-dasharray:none" id="1p35.1-o" d="m 38.795875,45.53249999999997 11.382812500000002,0.0 0.0,-3.0400375000000004 -11.382812500000002,-0.0 0.0,3.0400375000000004 z "/>
<path style="fill:#e9eae9;fill-opacity:1;fill-rule:nonzero;stroke:none" id="1p34.2" d="m 38.795875,56.86250000000001 11.382812500000002,0.0 0.0,-4.3994125 -11.382812500000002,-0.0 0.0,4.3994125 z "/>
<path style="fill:none;stroke:#211c1d;stroke-width:0.1;stroke-linecap:butt;stroke-linejoin:miter;stroke-miterlimit:4;stroke-opacity:1;stroke-dasharray:none" id="1p34.2-o" d="m 38.795875,56.86250000000001 11.382812500000002,0.0 0.0,-4.3994125 -11.382812500000002,-0.0 0.0,4.3994125 z "/>
<path style="fill:#e9eae9;fill-opacity:1;fill-rule:nonzero;stroke:none" id="1q42.12" d="m 38.795875,313.50762499999996 11.382812500000002,0.0 0.0,-4.53125 -11.382812500000002,-0.0 0.0,4.53125 z "/>
<path style="fill:none;stroke:#211c1d;stroke-width:0.1;stroke-linecap:butt;stroke-linejoin:miter;stroke-miterlimit:4;stroke-opacity:1;stroke-dasharray:none" id="1q42.12-o" d="m 38.795875,313.50762499999996 11.382812500000002,0.0 0.0,-4.53125 -11.382812500000002,-0.0 0.0,4.53125 z "/>
<path style="fill:#e9eae9;fill-opacity:1;fill-rule:nonzero;stroke:none" id="1q32.2" d="m 38.795875,295.381125 11.382812500000002,0.0 0.0,-4.5336875 -11.382812500000002,-0.0 0.0,4.5336875 z "/>
<path style="fill:none;stroke:#211c1d;stroke-width:0.1;stroke-linecap:butt;stroke-linejoin:miter;stroke-miterlimit:4;stroke-opacity:1;stroke-dasharray:none" id="1q32.2-o" d="m 38.795875,295.381125 11.382812500000002,0.0 0.0,-4.5336875 -11.382812500000002,-0.0 0.0,4.5336875 z "/>
<path style="fill:#7a7e82;fill-opacity:1;fill-rule:nonzero;stroke:none" id="1q43" d="m 38.795875,340.08525 11.382812500000002,0.0 0.0,-8.44775 -11.382812500000002,-0.0 0.0,8.44775 z "/>
<path style="fill:none;stroke:#211c1d;stroke-width:0.1;stroke-linecap:butt;stroke-linejoin:miter;stroke-miterlimit:4;stroke-opacity:1;stroke-dasharray:none" id="1q43-o" d="m 38.795875,340.08525 11.382812500000002,0.0 0.0,-8.44775 -11.382812500000002,-0.0 0.0,8.44775 z "/>
<path style="fill:#7a7e82;fill-opacity:1;fill-rule:nonzero;stroke:none" id="1p22.2" d="m 38.795875,126.17249999999999 11.382812500000002,0.0 0.0,-5.2763625 -11.382812500000002,-0.0 0.0,5.2763625 z "/>
<path style="fill:none;stroke:#211c1d;stroke-width:0.1;stroke-linecap:butt;stroke-linejoin:miter;stroke-miterlimit:4;stroke-opacity:1;stroke-dasharray:none" id="1p22.2-o" d="m 38.795875,126.17249999999999 11.382812500000002,0.0 0.0,-5.2763625 -11.382812500000002,-0.0 0.0,5.2763625 z "/>
<path style="fill:#7a7e82;fill-opacity:1;fill-rule:nonzero;stroke:none" id="1p21.3" d="m 38.795875,138.185 11.382812500000002,0.0 0.0,-5.27735 -11.382812500000002,-0.0 0.0,5.27735 z "/>
<path style="fill:none;stroke:#211c1d;stroke-width:0.1;stroke-linecap:butt;stroke-linejoin:miter;stroke-miterlimit:4;stroke-opacity:1;stroke-dasharray:none" id="1p21.3-o" d="m 38.795875,138.185 11.382812500000002,0.0 0.0,-5.27735 -11.382812500000002,-0.0 0.0,5.27735 z "/>
<path style="fill:#7a7e82;fill-opacity:1;fill-rule:nonzero;stroke:none" id="1p33" d="m 38.795875,70.43 11.382812500000002,0.0 0.0,-5.275875 -11.382812500000002,-0.0 0.0,5.275875 z "/>
<path style="fill:none;stroke:#211c1d;stroke-width:0.1;stroke-linecap:butt;stroke-linejoin:miter;stroke-miterlimit:4;stroke-opacity:1;stroke-dasharray:none" id="1p33-o" d="m 38.795875,70.43 11.382812500000002,0.0 0.0,-5.275875 -11.382812500000002,-0.0 0.0,5.275875 z "/>
<path style="fill:#7a7e82;fill-opacity:1;fill-rule:nonzero;stroke:none" id="1q24.3" d="m 38.795875,251.280125 11.382812500000002,0.0 0.0,-5.3002875 -11.382812500000002,-0.0 0.0,5.3002875 z "/>
<path style="fill:none;stroke:#211c1d;stroke-width:0.1;stroke-linecap:butt;stroke-linejoin:miter;stroke-miterlimit:4;stroke-opacity:1;stroke-dasharray:none" id="1q24.3-o" d="m 38.795875,251.280125 11.382812500000002,0.0 0.0,-5.3002875 -11.382812500000002,-0.0 0.0,5.3002875 z "/>
<path style="fill:#bbbcbd;fill-opacity:1;fill-rule:nonzero;stroke:none" id="1p36.21" d="m 38.795875,21.51249999999999 11.382812500000002,0.0 0.0,-4.3999 -11.382812500000002,-0.0 0.0,4.3999 z "/>
<path style="fill:none;stroke:#211c1d;stroke-width:0.1;stroke-linecap:butt;stroke-linejoin:miter;stroke-miterlimit:4;stroke-opacity:1;stroke-dasharray:none" id="1p36.21-o" d="m 38.795875,21.51249999999999 11.382812500000002,0.0 0.0,-4.3999 -11.382812500000002,-0.0 0.0,4.3999 z "/>
<path style="fill:#bbbcbd;fill-opacity:1;fill-rule:nonzero;stroke:none" id="1p13.2" d="m 38.795875,154.075 11.382812500000002,0.0 0.0,-4.625 -11.382812500000002,-0.0 0.0,4.625 z "/>
<path style="fill:none;stroke:#211c1d;stroke-width:0.1;stroke-linecap:butt;stroke-linejoin:miter;stroke-miterlimit:4;stroke-opacity:1;stroke-dasharray:none" id="1p13.2-o" d="m 38.795875,154.075 11.382812500000002,0.0 0.0,-4.625 -11.382812500000002,-0.0 0.0,4.625 z "/>
<path style="fill:#bbbcbd;fill-opacity:1;fill-rule:nonzero;stroke:none" id="1q42.2" d="m 38.795875,326.1975 11.382812500000002,0.0 0.0,-4.0776375 -11.382812500000002,-0.0 0.0,4.0776375 z "/>
<path style="fill:none;stroke:#211c1d;stroke-width:0.1;stroke-linecap:butt;stroke-linejoin:miter;stroke-miterlimit:4;stroke-opacity:1;stroke-dasharray:none" id="1q42.2-o" d="m 38.795875,326.1975 11.382812500000002,0.0 0.0,-4.0776375 -11.382812500000002,-0.0 0.0,4.0776375 z "/>
<path style="fill:#bbbcbd;fill-opacity:1;fill-rule:nonzero;stroke:none" id="1p12" d="m 38.795875,163.13999999999996 11.382812500000002,0.0 0.0,-4.174800000000001 -11.382812500000002,-0.0 0.0,4.174800000000001 z "/>
<path style="fill:none;stroke:#211c1d;stroke-width:0.1;stroke-linecap:butt;stroke-linejoin:miter;stroke-miterlimit:4;stroke-opacity:1;stroke-dasharray:none" id="1p12-o" d="m 38.795875,163.13999999999996 11.382812500000002,0.0 0.0,-4.174800000000001 -11.382812500000002,-0.0 0.0,4.174800000000001 z "/>
<path style="fill:#bbbcbd;fill-opacity:1;fill-rule:nonzero;stroke:none" id="1p32.2" d="m 38.795875,79.72125 11.382812500000002,0.0 0.0,-3.46485 -11.382812500000002,-0.0 0.0,3.46485 z "/>
<path style="fill:none;stroke:#211c1d;stroke-width:0.1;stroke-linecap:butt;stroke-linejoin:miter;stroke-miterlimit:4;stroke-opacity:1;stroke-dasharray:none" id="1p32.2-o" d="m 38.795875,79.72125 11.382812500000002,0.0 0.0,-3.46485 -11.382812500000002,-0.0 0.0,3.46485 z "/>
<path style="fill:#bbbcbd;fill-opacity:1;fill-rule:nonzero;stroke:none" id="1p31.3" d="m 38.795875,92.86374999999992 11.382812500000002,0.0 0.0,-5.9565375 -11.382812500000002,-0.0 0.0,5.9565375 z "/>
<path style="fill:none;stroke:#211c1d;stroke-width:0.1;stroke-linecap:butt;stroke-linejoin:miter;stroke-miterlimit:4;stroke-opacity:1;stroke-dasharray:none" id="1p31.3-o" d="m 38.795875,92.86374999999992 11.382812500000002,0.0 0.0,-5.9565375 -11.382812500000002,-0.0 0.0,5.9565375 z "/>
<path style="fill:#bbbcbd;fill-opacity:1;fill-rule:nonzero;stroke:none" id="1q25.2" d="m 38.795875,257.85137499999996 11.382812500000002,0.0 0.0,-4.1665 -11.382812500000002,-0.0 0.0,4.1665 z "/>
<path style="fill:none;stroke:#211c1d;stroke-width:0.1;stroke-linecap:butt;stroke-linejoin:miter;stroke-miterlimit:4;stroke-opacity:1;stroke-dasharray:none" id="1q25.2-o" d="m 38.795875,257.85137499999996 11.382812500000002,0.0 0.0,-4.1665 -11.382812500000002,-0.0 0.0,4.1665 z "/>
<path style="fill:#bbbcbd;fill-opacity:1;fill-rule:nonzero;stroke:none" id="1q24.1" d="m 38.795875,242.215125 11.382812500000002,0.0 0.0,-3.486325 -11.382812500000002,-0.0 0.0,3.486325 z "/>
<path style="fill:none;stroke:#211c1d;stroke-width:0.1;stroke-linecap:butt;stroke-linejoin:miter;stroke-miterlimit:4;stroke-opacity:1;stroke-dasharray:none" id="1q24.1-o" d="m 38.795875,242.215125 11.382812500000002,0.0 0.0,-3.486325 -11.382812500000002,-0.0 0.0,3.486325 z "/>
<path style="fill:#bbbcbd;fill-opacity:1;fill-rule:nonzero;stroke:none" id="1q23.2" d="m 38.795875,231.79125 11.382812500000002,0.0 0.0,-4.8461875 -11.382812500000002,-0.0 0.0,4.8461875 z "/>
<path style="fill:none;stroke:#211c1d;stroke-width:0.1;stroke-linecap:butt;stroke-linejoin:miter;stroke-miterlimit:4;stroke-opacity:1;stroke-dasharray:none" id="1q23.2-o" d="m 38.795875,231.79125 11.382812500000002,0.0 0.0,-4.8461875 -11.382812500000002,-0.0 0.0,4.8461875 z "/>
<path style="fill:#bbbcbd;fill-opacity:1;fill-rule:nonzero;stroke:none" id="1q22" d="m 38.795875,218.195 11.382812500000002,0.0 0.0,-4.84375 -11.382812500000002,-0.0 0.0,4.84375 z "/>
<path style="fill:none;stroke:#211c1d;stroke-width:0.1;stroke-linecap:butt;stroke-linejoin:miter;stroke-miterlimit:4;stroke-opacity:1;stroke-dasharray:none" id="1q22-o" d="m 38.795875,218.195 11.382812500000002,0.0 0.0,-4.84375 -11.382812500000002,-0.0 0.0,4.84375 z "/>
<path style="fill:#bbbcbd;fill-opacity:1;fill-rule:nonzero;stroke:none" id="1q21.2" d="m 38.795875,206.86624999999998 11.382812500000002,0.0 0.0,-4.8461875 -11.382812500000002,-0.0 0.0,4.8461875 z "/>
<path style="fill:none;stroke:#211c1d;stroke-width:0.1;stroke-linecap:butt;stroke-linejoin:miter;stroke-miterlimit:4;stroke-opacity:1;stroke-dasharray:none" id="1q21.2-o" d="m 38.795875,206.86624999999998 11.382812500000002,0.0 0.0,-4.8461875 -11.382812500000002,-0.0 0.0,4.8461875 z "/>
<path style="fill:#c4cdf2;fill-opacity:1;fill-rule:nonzero;stroke:none" id="1q12" d="m 38.795875,195.98749999999998 11.382812500000002,0.0 0.0,-20.7075 -11.382812500000002,-0.0 0.0,20.7075 z "/>
<path style="fill:none;stroke:#211c1d;stroke-width:0.8;stroke-linecap:butt;stroke-linejoin:miter;stroke-miterlimit:4;stroke-opacity:1;stroke-dasharray:none" id="1q12-o" d="m 38.795875,195.98749999999998 11.382812500000002,0.0 0.0,-20.7075 -11.382812500000002,-0.0 0.0,20.7075 z "/>
<path style="fill:#fffafa;stroke:#211c1d;stroke-width:0.1;stroke-linecap:butt;stroke-linejoin:miter;stroke-miterlimit:4;stroke-opacity:1;stroke-dasharray:none" id="1q21.1" d="m 38.795875,202.02006249999997 11.382812500000002,0.0 0,-6.032562499999983 -11.382812500000002,-0.0 0,6.032562499999983 z "/>
<path style="fill:#fffafa;stroke:#211c1d;stroke-width:0.1;stroke-linecap:butt;stroke-linejoin:miter;stroke-miterlimit:4;stroke-opacity:1;stroke-dasharray:none" id="1q23.3" d="m 38.795875,238.7288 11.382812500000002,0.0 0,-6.937550000000016 -11.382812500000002,-0.0 0,6.937550000000016 z "/>
<path style="fill:#fffafa;stroke:#211c1d;stroke-width:0.1;stroke-linecap:butt;stroke-linejoin:miter;stroke-miterlimit:4;stroke-opacity:1;stroke-dasharray:none" id="1q24.2" d="m 38.795875,245.9798375 11.382812500000002,0.0 0,-3.7647125000000017 -11.382812500000002,-0.0 0,3.7647125000000017 z "/>
<path style="fill:#fffafa;stroke:#211c1d;stroke-width:0.1;stroke-linecap:butt;stroke-linejoin:miter;stroke-miterlimit:4;stroke-opacity:1;stroke-dasharray:none" id="1p22.1" d="m 38.795875,132.90765 11.382812500000002,0.0 0,-6.735150000000004 -11.382812500000002,-0.0 0,6.735150000000004 z "/>
<path style="fill:#fffafa;stroke:#211c1d;stroke-width:0.1;stroke-linecap:butt;stroke-linejoin:miter;stroke-miterlimit:4;stroke-opacity:1;stroke-dasharray:none" id="1q42.11" d="m 38.795875,308.97637499999996 11.382812500000002,0.0 0,-1.7251249999999914 -11.382812500000002,-0.0 0,1.7251249999999914 z "/>
<path style="fill:#fffafa;stroke:#211c1d;stroke-width:0.1;stroke-linecap:butt;stroke-linejoin:miter;stroke-miterlimit:4;stroke-opacity:1;stroke-dasharray:none" id="1q31.2" d="m 38.795875,275.44028749999995 11.382812500000002,0.0 0,-2.8614124999999717 -11.382812500000002,-0.0 0,2.8614124999999717 z "/>
<path style="fill:#fffafa;stroke:#211c1d;stroke-width:0.1;stroke-linecap:butt;stroke-linejoin:miter;stroke-miterlimit:4;stroke-opacity:1;stroke-dasharray:none" id="1p11.2" d="m 38.795875,165.08374999999998 11.382812500000002,0.0 0,-1.9437500000000227 -11.382812500000002,-0.0 0,1.9437500000000227 z "/>
<path style="fill:#fffafa;stroke:#211c1d;stroke-width:0.1;stroke-linecap:butt;stroke-linejoin:miter;stroke-miterlimit:4;stroke-opacity:1;stroke-dasharray:none" id="1p36.31" d="m 38.795875,9.862112499999988 11.382812500000002,0.0 0,-2.1708625000000197 -11.382812500000002,-0.0 0,2.1708625000000197 z "/>
<path style="fill:#fffafa;stroke:#211c1d;stroke-width:0.1;stroke-linecap:butt;stroke-linejoin:miter;stroke-miterlimit:4;stroke-opacity:1;stroke-dasharray:none" id="1q25.3" d="m 38.795875,267.281025 11.382812500000002,0.0 0,-9.429650000000038 -11.382812500000002,-0.0 0,9.429650000000038 z "/>
<path style="fill:#fffafa;stroke:#211c1d;stroke-width:0.1;stroke-linecap:butt;stroke-linejoin:miter;stroke-miterlimit:4;stroke-opacity:1;stroke-dasharray:none" id="1p34.1" d="m 38.795875,65.15412500000001 11.382812500000002,0.0 0,-8.291624999999996 -11.382812500000002,-0.0 0,8.291624999999996 z "/>
<path style="fill:#fffafa;stroke:#211c1d;stroke-width:0.1;stroke-linecap:butt;stroke-linejoin:miter;stroke-miterlimit:4;stroke-opacity:1;stroke-dasharray:none" id="1q21.3" d="m 38.795875,213.35125 11.382812500000002,0.0 0,-6.485000000000014 -11.382812500000002,-0.0 0,6.485000000000014 z "/>
<path style="fill:#fffafa;stroke:#211c1d;stroke-width:0.1;stroke-linecap:butt;stroke-linejoin:miter;stroke-miterlimit:4;stroke-opacity:1;stroke-dasharray:none" id="1p13.2-1" d="m 38.795875,158.96519999999995 11.382812500000002,0.0 0,-4.890199999999965 -11.382812500000002,-0.0 0,4.890199999999965 z "/>
<path style="fill:#fffafa;stroke:#211c1d;stroke-width:0.1;stroke-linecap:butt;stroke-linejoin:miter;stroke-miterlimit:4;stroke-opacity:1;stroke-dasharray:none" id="1q12-1" d="m 38.795875,175.27999999999997 11.382812500000002,0.0 0,0.0012500000000272848 -11.382812500000002,-0.0 0,-0.0012500000000272848 z "/>
<path style="fill:#fffafa;stroke:#211c1d;stroke-width:0.1;stroke-linecap:butt;stroke-linejoin:miter;stroke-miterlimit:4;stroke-opacity:1;stroke-dasharray:none" id="1p36.13" d="m 38.795875,29.349749999999958 11.382812500000002,0.0 0,-7.837249999999969 -11.382812500000002,-0.0 0,7.837249999999969 z "/>
<path style="fill:#fffafa;stroke:#211c1d;stroke-width:0.1;stroke-linecap:butt;stroke-linejoin:miter;stroke-miterlimit:4;stroke-opacity:1;stroke-dasharray:none" id="1p36.22" d="m 38.795875,17.11259999999999 11.382812500000002,0.0 0,-4.662600000000001 -11.382812500000002,-0.0 0,4.662600000000001 z "/>
<path style="fill:#fffafa;stroke:#211c1d;stroke-width:0.1;stroke-linecap:butt;stroke-linejoin:miter;stroke-miterlimit:4;stroke-opacity:1;stroke-dasharray:none" id="1p36.11" d="m 38.795875,36.600999999999985 11.382812500000002,0.0 0,-4.209750000000028 -11.382812500000002,-0.0 0,4.209750000000028 z "/>
<path style="fill:#fffafa;stroke:#211c1d;stroke-width:0.1;stroke-linecap:butt;stroke-linejoin:miter;stroke-miterlimit:4;stroke-opacity:1;stroke-dasharray:none" id="1q42.13" d="m 38.795875,322.1198625 11.382812500000002,0.0 0,-8.612237500000049 -11.382812500000002,-0.0 0,8.612237500000049 z "/>
<path style="fill:#fffafa;stroke:#211c1d;stroke-width:0.1;stroke-linecap:butt;stroke-linejoin:miter;stroke-miterlimit:4;stroke-opacity:1;stroke-dasharray:none" id="1p34.3" d="m 38.795875,52.463087500000015 11.382812500000002,0.0 0,-6.930587500000044 -11.382812500000002,-0.0 0,6.930587500000044 z "/>
<path style="fill:#fffafa;stroke:#211c1d;stroke-width:0.1;stroke-linecap:butt;stroke-linejoin:miter;stroke-miterlimit:4;stroke-opacity:1;stroke-dasharray:none" id="1q23.1" d="m 38.795875,226.94506249999998 11.382812500000002,0.0 0,-8.750062499999984 -11.382812500000002,-0.0 0,8.750062499999984 z "/>
<path style="fill:#fffafa;stroke:#211c1d;stroke-width:0.1;stroke-linecap:butt;stroke-linejoin:miter;stroke-miterlimit:4;stroke-opacity:1;stroke-dasharray:none" id="1q32.1" d="m 38.795875,290.8474375 11.382812500000002,0.0 0,-10.108812500000056 -11.382812500000002,-0.0 0,10.108812500000056 z "/>
<path style="fill:#fffafa;stroke:#211c1d;stroke-width:0.1;stroke-linecap:butt;stroke-linejoin:miter;stroke-miterlimit:4;stroke-opacity:1;stroke-dasharray:none" id="1p36.33" d="m 38.795875,4.1961375 11.382812500000002,0.0 c 0.0,-1.41625 -2.5415000000000005,-2.5625000000000004 -5.68025,-2.5625000000000004 -3.1371250000000006,-0.0 -5.681125,1.14625 -5.681125,2.5625000000000004 z"/>
<path style="fill:#fffafa;stroke:#211c1d;stroke-width:0.1;stroke-linecap:butt;stroke-linejoin:miter;stroke-miterlimit:4;stroke-opacity:1;stroke-dasharray:none" id="1p31.2" d="m 38.795875,98.01024999999997 11.382812500000002,0.0 0,-5.146500000000046 -11.382812500000002,-0.0 0,5.146500000000046 z "/>
<path style="fill:#fffafa;stroke:#211c1d;stroke-width:0.1;stroke-linecap:butt;stroke-linejoin:miter;stroke-miterlimit:4;stroke-opacity:1;stroke-dasharray:none" id="1q32.3" d="m 38.795875,300.137475 11.382812500000002,0.0 0,-4.756349999999998 -11.382812500000002,-0.0 0,4.756349999999998 z "/>
<path style="fill:#fffafa;stroke:#211c1d;stroke-width:0.1;stroke-linecap:butt;stroke-linejoin:miter;stroke-miterlimit:4;stroke-opacity:1;stroke-dasharray:none" id="1p13.3" d="m 38.795875,149.45 11.382812500000002,0.0 0,-4.820000000000022 -11.382812500000002,-0.0 0,4.820000000000022 z "/>
<path style="fill:#fffafa;stroke:#211c1d;stroke-width:0.1;stroke-linecap:butt;stroke-linejoin:miter;stroke-miterlimit:4;stroke-opacity:1;stroke-dasharray:none" id="1p22.3" d="m 38.795875,120.89613749999998 11.382812500000002,0.0 0,-7.989887500000009 -11.382812500000002,-0.0 0,7.989887500000009 z "/>
<path style="fill:#fffafa;stroke:#211c1d;stroke-width:0.1;stroke-linecap:butt;stroke-linejoin:miter;stroke-miterlimit:4;stroke-opacity:1;stroke-dasharray:none" id="1q42.3" d="m 38.795875,331.6375 11.382812500000002,0.0 0,-5.439999999999998 -11.382812500000002,-0.0 0,5.439999999999998 z "/>
<path style="fill:#fffafa;stroke:#211c1d;stroke-width:0.1;stroke-linecap:butt;stroke-linejoin:miter;stroke-miterlimit:4;stroke-opacity:1;stroke-dasharray:none" id="1p21.2" d="m 38.795875,139.70372499999996 11.382812500000002,0.0 0,-1.5187249999999608 -11.382812500000002,-0.0 0,1.5187249999999608 z "/>
<path style="fill:#fffafa;stroke:#211c1d;stroke-width:0.1;stroke-linecap:butt;stroke-linejoin:miter;stroke-miterlimit:4;stroke-opacity:1;stroke-dasharray:none" id="1p32.1" d="m 38.795875,86.90721249999993 11.382812500000002,0.0 0,-7.185962499999931 -11.382812500000002,-0.0 0,7.185962499999931 z "/>
<path style="fill:#fffafa;stroke:#211c1d;stroke-width:0.1;stroke-linecap:butt;stroke-linejoin:miter;stroke-miterlimit:4;stroke-opacity:1;stroke-dasharray:none" id="1q44" d="m 38.795875,340.08525 0.0,6 c 0.0,1.416 2.544,2.5633750000000006 5.681125,2.5633750000000006 3.13875,0.0 5.68025,-1.147375 5.68025,-2.5633750000000006 l 0.0,-6 -11.382812500000002,-0.0 z"/>
<path style="fill:#fffafa;stroke:#211c1d;stroke-width:0.1;stroke-linecap:butt;stroke-linejoin:miter;stroke-miterlimit:4;stroke-opacity:1;stroke-dasharray:none" id="1p32.3" d="m 38.795875,76.2564 11.382812500000002,0.0 0,-5.8263999999999925 -11.382812500000002,-0.0 0,5.8263999999999925 z "/>
<path style="fill:#fffafa;stroke:#211c1d;stroke-width:0.1;stroke-linecap:butt;stroke-linejoin:miter;stroke-miterlimit:4;stroke-opacity:1;stroke-dasharray:none" id="1q25.1" d="m 38.795875,253.68487499999995 11.382812500000002,0.0 0,-2.40474999999995 -11.382812500000002,-0.0 0,2.40474999999995 z "/>
<path style="fill:#fffafa;stroke:#211c1d;stroke-width:0.1;stroke-linecap:butt;stroke-linejoin:miter;stroke-miterlimit:4;stroke-opacity:1;stroke-dasharray:none" id="1p35.2" d="m 38.795875,42.492462499999974 11.382812500000002,0.0 0,-2.8499624999999895 -11.382812500000002,-0.0 0,2.8499624999999895 z "/>
<path style="fill:#a4bdc8;fill-opacity:1;fill-rule:nonzero;stroke:none" id="centromere1-f" d="m 50.169,175.28125 0.0,-1.9275 c 0.0,-0.9625 -1.1792500000000001,-2.5475 -2.923375,-3.45375 1.744125,-0.9062500000000001 2.923375,-2.4925 2.923375,-3.4575 l 0.0,-1.35875 -11.363375,-0.0 0.0,1.35875 c 0.0,0.96875 1.1875,2.55125 2.9405,3.4575 -1.7530000000000001,0.9050000000000001 -2.9405,2.48875 -2.9405,3.45375 l 0.0,1.9275 11.363375,0.0 "/>
<path style="fill:none;stroke:#100f0d;stroke-width:0.8;stroke-linecap:butt;stroke-linejoin:miter;stroke-miterlimit:4;stroke-opacity:1;stroke-dasharray:none" id="centromere1-o" d="m 50.169,175.28125 0.0,-1.9275 c 0.0,-0.9625 -1.1792500000000001,-2.5475 -2.923375,-3.45375 1.744125,-0.9062500000000001 2.923375,-2.4925 2.923375,-3.4575 l 0.0,-1.35875 -11.363375,-0.0 0.0,1.35875 c 0.0,0.96875 1.1875,2.55125 2.9405,3.4575 -1.7530000000000001,0.9050000000000001 -2.9405,2.48875 -2.9405,3.45375 l 0.0,1.9275 11.363375,0.0 z "/>
<path style="fill:none;stroke:#211c1d;stroke-width:0.8;stroke-linecap:butt;stroke-linejoin:miter;stroke-miterlimit:4;stroke-opacity:1;stroke-dasharray:none" id="outline1" d="m 41.746125000000006,169.89874999999998 c -1.7538750000000003,0.9050000000000001 -2.9395,2.49 -2.9395,3.4562500000000003 l 0.0,172.331375 c 0.0,1.416 2.544,2.5633750000000006 5.681125,2.5633750000000006 3.13875,0.0 5.68025,-1.147375 5.68025,-2.5633750000000006 l 0.0,-172.331375 c 0.0,-0.96375 -1.1782500000000002,-2.54875 -2.921375,-3.4562500000000003 1.743125,-0.9050000000000001 2.921375,-2.49125 2.921375,-3.455 l 0.0,-162.24625 c 0.0,-1.41625 -2.5415000000000005,-2.5625000000000004 -5.68025,-2.5625000000000004 -3.1371250000000006,-0.0 -5.681125,1.14625 -5.681125,2.5625000000000004 l 0.0,162.24625 c 0.0,0.9662500000000002 1.185625,2.55 2.9395,3.455 z "/>
<path style="fill:none;stroke:#231f20;stroke-width:0.8;stroke-linecap:butt;stroke-linejoin:miter;stroke-miterlimit:4;stroke-opacity:1;stroke-dasharray:none;display:none" id="centre1" d="M 41.349625,169.935 0.0,169.935 "/>
<text>
<tspan x="41.7915" y="356.90117499999997" id="label1" style="font-size:7.19543791px;font-variant:normal;font-weight:normal;writing-mode:lr-tb;fill:#211c1d;fill-opacity:1;fill-rule:nonzero;stroke:none;font-family:Helvetica;-inkscape-font-specification:Helvetica">1</tspan>
</text>
</g>
</svg>
