<?xml version="1.0" encoding="UTF-8" standalone="no"?>
<!-- Created with Inkscape (http://www.inkscape.org/) -->
<svg xmlns:dc="http://purl.org/dc/elements/1.1/" xmlns:cc="http://creativecommons.org/ns#" xmlns:rdf="http://www.w3.org/1999/02/22-rdf-syntax-ns#" xmlns:svg="http://www.w3.org/2000/svg" xmlns="http://www.w3.org/2000/svg" version="1.1" width="50.474998" height="179.77499" id="svg2" xml:space="preserve">
  <metadata id="metadata8">
    <rdf:RDF>
      <cc:Work rdf:about="">
        <dc:format>image/svg+xml</dc:format>
        <dc:type rdf:resource="http://purl.org/dc/dcmitype/StillImage"/>
        <dc:title/>
      </cc:Work>
    </rdf:RDF>
  </metadata>
  <defs id="defs6">
    <clipPath id="clipPath18">
      <path d="m 0,0 403.848,0 0,1438 L 0,1438 0,0 z" id="path20"/>
    </clipPath>
  </defs>
  <g transform="matrix(1.25,0,0,-1.25,0,179.775)" id="g10">
    <g transform="scale(0.1,0.1)" id="g12">
      <g id="g14">
        <g clip-path="url(#clipPath18)" id="g16">
          <path d="m 401.348,964.062 0,11.786 c 0,7.722 -9.446,20.39 -23.387,27.642 13.941,7.27 23.387,19.93 23.387,27.66 l 0,9.06 -90.91,0 0,-9.06 c 0,-7.75 9.496,-20.41 23.515,-27.66 -14.019,-7.252 -23.515,-19.888 -23.515,-27.642 l 0,-11.786 90.91,0" id="path22" style="fill:#a4bdc8;fill-opacity:1;fill-rule:nonzero;stroke:none"/>
          <path d="m 401.348,964.062 0,11.786 c 0,7.722 -9.446,20.39 -23.387,27.642 13.941,7.27 23.387,19.93 23.387,27.66 l 0,9.06 -90.91,0 0,-9.06 c 0,-7.75 9.496,-20.41 23.515,-27.66 -14.019,-7.252 -23.515,-19.888 -23.515,-27.642 l 0,-11.786 90.91,0 z" id="path24" style="fill:none;stroke:#100f0d;stroke-width:5;stroke-linecap:butt;stroke-linejoin:miter;stroke-miterlimit:4;stroke-opacity:1;stroke-dasharray:none"/>
          <path d="m 310.359,814.719 91.0781,0 0,58.7188 -91.0781,0 0,-58.7188 z" id="path26" style="fill:#211c1d;fill-opacity:1;fill-rule:nonzero;stroke:none"/>
          <g transform="scale(10,10)" id="g28"><text transform="matrix(1,0,0,-0.90697189,31.0312,3.13789)" id="text30"><tspan x="0 4.0019484" y="0" id="tspan32" style="font-size:7.19543791px;font-variant:normal;font-weight:normal;writing-mode:lr-tb;fill:#211c1d;fill-opacity:1;fill-rule:nonzero;stroke:none;font-family:Helvetica;-inkscape-font-specification:Helvetica">10</tspan></text>
</g>
          <path d="m 310.359,756.715 91.0781,0 0,44.2031 -91.0781,0 0,-44.2031 z" id="path34" style="fill:#211c1d;fill-opacity:1;fill-rule:nonzero;stroke:none"/>
          <path d="m 310.359,573.621 91.0781,0 0,40.5742 -91.0781,0 0,-40.5742 z" id="path36" style="fill:#211c1d;fill-opacity:1;fill-rule:nonzero;stroke:none"/>
          <path d="m 310.359,1380.25 91.0781,0 0,18.8906 -91.0781,0 0,-18.8906 z" id="path38" style="fill:#e9eae9;fill-opacity:1;fill-rule:nonzero;stroke:none"/>
          <path d="m 310.359,1380.25 91.0781,0 0,18.8906 -91.0781,0 0,-18.8906 z" id="path40" style="fill:none;stroke:#211c1d;stroke-width:0.62;stroke-linecap:butt;stroke-linejoin:miter;stroke-miterlimit:4;stroke-opacity:1;stroke-dasharray:none"/>
          <path d="m 310.359,1066.64 91.0781,0 0,27.9609 -91.0781,0 0,-27.9609 z" id="path42" style="fill:#e9eae9;fill-opacity:1;fill-rule:nonzero;stroke:none"/>
          <path d="m 310.359,1066.64 91.0781,0 0,27.9609 -91.0781,0 0,-27.9609 z" id="path44" style="fill:none;stroke:#211c1d;stroke-width:0.62;stroke-linecap:butt;stroke-linejoin:miter;stroke-miterlimit:4;stroke-opacity:1;stroke-dasharray:none"/>
          <path d="m 310.359,907.109 91.0781,0 0,24.3242 -91.0781,0 0,-24.3242 z" id="path46" style="fill:#e9eae9;fill-opacity:1;fill-rule:nonzero;stroke:none"/>
          <path d="m 310.359,907.109 91.0781,0 0,24.3242 -91.0781,0 0,-24.3242 z" id="path48" style="fill:none;stroke:#211c1d;stroke-width:0.62;stroke-linecap:butt;stroke-linejoin:miter;stroke-miterlimit:4;stroke-opacity:1;stroke-dasharray:none"/>
          <path d="m 310.359,388.648 91.0781,0 0,18.8906 -91.0781,0 0,-18.8906 z" id="path50" style="fill:#e9eae9;fill-opacity:1;fill-rule:nonzero;stroke:none"/>
          <path d="m 310.359,388.648 91.0781,0 0,18.8906 -91.0781,0 0,-18.8906 z" id="path52" style="fill:none;stroke:#211c1d;stroke-width:0.62;stroke-linecap:butt;stroke-linejoin:miter;stroke-miterlimit:4;stroke-opacity:1;stroke-dasharray:none"/>
          <path d="m 310.359,334.32 91.0781,0 0,46.0195 -91.0781,0 0,-46.0195 z" id="path54" style="fill:#211c1d;fill-opacity:1;fill-rule:nonzero;stroke:none"/>
          <path d="m 310.359,1122.83 91.0781,0 0,38.8359 -91.0781,0 0,-38.8359 z" id="path56" style="fill:#bbbcbd;fill-opacity:1;fill-rule:nonzero;stroke:none"/>
          <path d="m 310.359,1122.83 91.0781,0 0,38.8359 -91.0781,0 0,-38.8359 z" id="path58" style="fill:none;stroke:#211c1d;stroke-width:0.62;stroke-linecap:butt;stroke-linejoin:miter;stroke-miterlimit:4;stroke-opacity:1;stroke-dasharray:none"/>
          <path d="m 310.359,664.215 91.0781,0 0,31.5625 -91.0781,0 0,-31.5625 z" id="path60" style="fill:#bbbcbd;fill-opacity:1;fill-rule:nonzero;stroke:none"/>
          <path d="m 310.359,664.215 91.0781,0 0,31.5625 -91.0781,0 0,-31.5625 z" id="path62" style="fill:none;stroke:#211c1d;stroke-width:0.62;stroke-linecap:butt;stroke-linejoin:miter;stroke-miterlimit:4;stroke-opacity:1;stroke-dasharray:none"/>
          <path d="m 310.359,461.168 91.0781,0 0,35.1953 -91.0781,0 0,-35.1953 z" id="path64" style="fill:#bbbcbd;fill-opacity:1;fill-rule:nonzero;stroke:none"/>
          <path d="m 310.359,461.168 91.0781,0 0,35.1953 -91.0781,0 0,-35.1953 z" id="path66" style="fill:none;stroke:#211c1d;stroke-width:0.62;stroke-linecap:butt;stroke-linejoin:miter;stroke-miterlimit:4;stroke-opacity:1;stroke-dasharray:none"/>
          <path d="m 310.359,419.922 91.0781,0 0,25.6602 -91.0781,0 0,-25.6602 z" id="path68" style="fill:#bbbcbd;fill-opacity:1;fill-rule:nonzero;stroke:none"/>
          <path d="m 310.359,419.922 91.0781,0 0,25.6602 -91.0781,0 0,-25.6602 z" id="path70" style="fill:none;stroke:#211c1d;stroke-width:0.62;stroke-linecap:butt;stroke-linejoin:miter;stroke-miterlimit:4;stroke-opacity:1;stroke-dasharray:none"/>
          <path d="m 310.359,156.621 91.0781,0 0,35.1992 -91.0781,0 0,-35.1992 z" id="path72" style="fill:#bbbcbd;fill-opacity:1;fill-rule:nonzero;stroke:none"/>
          <path d="m 310.359,156.621 91.0781,0 0,35.1992 -91.0781,0 0,-35.1992 z" id="path74" style="fill:none;stroke:#211c1d;stroke-width:0.62;stroke-linecap:butt;stroke-linejoin:miter;stroke-miterlimit:4;stroke-opacity:1;stroke-dasharray:none"/>
          <path d="m 310.359,238.199 91.0781,0 0,22.5 -91.0781,0 0,-22.5 z" id="path76" style="fill:#bbbcbd;fill-opacity:1;fill-rule:nonzero;stroke:none"/>
          <path d="m 310.359,238.199 91.0781,0 0,22.5 -91.0781,0 0,-22.5 z" id="path78" style="fill:none;stroke:#211c1d;stroke-width:0.62;stroke-linecap:butt;stroke-linejoin:miter;stroke-miterlimit:4;stroke-opacity:1;stroke-dasharray:none"/>
          <path d="m 310.359,1283.12 91.0781,0 0,47.1406 -91.0781,0 0,-47.1406 z" id="path80" style="fill:#7a7e82;fill-opacity:1;fill-rule:nonzero;stroke:none"/>
          <path d="m 310.359,1283.12 91.0781,0 0,47.1406 -91.0781,0 0,-47.1406 z" id="path82" style="fill:none;stroke:#211c1d;stroke-width:0.62;stroke-linecap:butt;stroke-linejoin:miter;stroke-miterlimit:4;stroke-opacity:1;stroke-dasharray:none"/>
          <path d="m 310.359,510.867 91.0781,0 0,39.8711 -91.0781,0 0,-39.8711 z" id="path84" style="fill:#7a7e82;fill-opacity:1;fill-rule:nonzero;stroke:none"/>
          <path d="m 310.359,510.867 91.0781,0 0,39.8711 -91.0781,0 0,-39.8711 z" id="path86" style="fill:none;stroke:#211c1d;stroke-width:0.62;stroke-linecap:butt;stroke-linejoin:miter;stroke-miterlimit:4;stroke-opacity:1;stroke-dasharray:none"/>
          <path d="m 310.359,1210.61 91.0781,0 0,30.8203 -91.0781,0 0,-30.8203 z" id="path88" style="fill:#7a7e82;fill-opacity:1;fill-rule:nonzero;stroke:none"/>
          <path d="m 310.359,1210.61 91.0781,0 0,30.8203 -91.0781,0 0,-30.8203 z" id="path90" style="fill:none;stroke:#211c1d;stroke-width:0.62;stroke-linecap:butt;stroke-linejoin:miter;stroke-miterlimit:4;stroke-opacity:1;stroke-dasharray:none"/>
          <path d="m 310.359,1168.91 91.0781,0 0,30.8242 -91.0781,0 0,-30.8242 z" id="path92" style="fill:#7a7e82;fill-opacity:1;fill-rule:nonzero;stroke:none"/>
          <path d="m 310.359,1168.91 91.0781,0 0,30.8242 -91.0781,0 0,-30.8242 z" id="path94" style="fill:none;stroke:#211c1d;stroke-width:0.62;stroke-linecap:butt;stroke-linejoin:miter;stroke-miterlimit:4;stroke-opacity:1;stroke-dasharray:none"/>
          <path d="m 310.359,282.441 91.0781,0 0,32.6367 -91.0781,0 0,-32.6367 z" id="path96" style="fill:#7a7e82;fill-opacity:1;fill-rule:nonzero;stroke:none"/>
          <path d="m 310.359,282.441 91.0781,0 0,32.6367 -91.0781,0 0,-32.6367 z" id="path98" style="fill:none;stroke:#211c1d;stroke-width:0.62;stroke-linecap:butt;stroke-linejoin:miter;stroke-miterlimit:4;stroke-opacity:1;stroke-dasharray:none"/>
          <path d="m 333.953,1003.49 c -14.019,-7.248 -23.515,-19.9 -23.515,-27.638 l 0,-854.743 c 0,-11.32 20.343,-20.507 45.453,-20.507 25.093,0 45.457,9.187 45.457,20.507 l 0,854.743 c 0,7.718 -9.446,20.39 -23.387,27.638 13.941,7.26 23.387,19.94 23.387,27.65 l 0,382.52 c 0,11.31 -20.364,20.49 -45.457,20.49 -25.11,0 -45.453,-9.18 -45.453,-20.49 l 0,-382.52 c 0,-7.73 9.496,-20.4 23.515,-27.65 z" id="path100" style="fill:none;stroke:#211c1d;stroke-width:5;stroke-linecap:butt;stroke-linejoin:miter;stroke-miterlimit:4;stroke-opacity:1;stroke-dasharray:none"/>
          <path d="M 330.77,1003.2 0,1003.2" id="path102" style="fill:none;stroke:#231f20;stroke-width:5;stroke-linecap:butt;stroke-linejoin:miter;stroke-miterlimit:4;stroke-opacity:1;stroke-dasharray:none"/>
          <g transform="scale(10,10)" id="g104"><text transform="matrix(1,0,0,-0.90698012,22.577,141.017)" id="text106"><tspan x="0 2.0003321 4.0006642 5.0008302" y="0" id="tspan108" style="font-size:3.59771943px;font-variant:normal;font-weight:normal;writing-mode:lr-tb;fill:#231f20;fill-opacity:1;fill-rule:nonzero;stroke:none;font-family:Helvetica;-inkscape-font-specification:Helvetica">15.3</tspan><tspan x="-1.7351538 0.00019573999 2.0011747 3.0013406 5.0023227" y="34.377491" id="tspan110" style="font-size:3.59771943px;font-variant:normal;font-weight:normal;writing-mode:lr-tb;fill:#231f20;fill-opacity:1;fill-rule:nonzero;stroke:none;font-family:Helvetica;-inkscape-font-specification:Helvetica">11.23</tspan><tspan x="-1.7351538 0.00019573999 2.0011747 3.0013406 5.0023227" y="40.675003" id="tspan112" style="font-size:3.59771943px;font-variant:normal;font-weight:normal;writing-mode:lr-tb;fill:#231f20;fill-opacity:1;fill-rule:nonzero;stroke:none;font-family:Helvetica;-inkscape-font-specification:Helvetica">11.21</tspan><tspan x="0.26484594 2.0001955 4.0011773 5.0013437" y="43.871998" id="tspan114" style="font-size:3.59771943px;font-variant:normal;font-weight:normal;writing-mode:lr-tb;fill:#231f20;fill-opacity:1;fill-rule:nonzero;stroke:none;font-family:Helvetica;-inkscape-font-specification:Helvetica">11.1</tspan><tspan x="0.26484594 2.0001955 4.0011773 5.0013437" y="48.069046" id="tspan116" style="font-size:3.59771943px;font-variant:normal;font-weight:normal;writing-mode:lr-tb;fill:#231f20;fill-opacity:1;fill-rule:nonzero;stroke:none;font-family:Helvetica;-inkscape-font-specification:Helvetica">11.1</tspan><tspan x="-1.7351538 0.00019573999 2.0011747 3.0013406 5.0023227" y="52.36602" id="tspan118" style="font-size:3.59771943px;font-variant:normal;font-weight:normal;writing-mode:lr-tb;fill:#231f20;fill-opacity:1;fill-rule:nonzero;stroke:none;font-family:Helvetica;-inkscape-font-specification:Helvetica">11.21</tspan><tspan x="-1.7351538 0.00019573999 2.0011747 3.0013406 5.0023227" y="58.963287" id="tspan120" style="font-size:3.59771943px;font-variant:normal;font-weight:normal;writing-mode:lr-tb;fill:#231f20;fill-opacity:1;fill-rule:nonzero;stroke:none;font-family:Helvetica;-inkscape-font-specification:Helvetica">11.23</tspan><tspan x="0 2.0003321 4.0006642 5.0008302" y="63.85891" id="tspan122" style="font-size:3.59771943px;font-variant:normal;font-weight:normal;writing-mode:lr-tb;fill:#231f20;fill-opacity:1;fill-rule:nonzero;stroke:none;font-family:Helvetica;-inkscape-font-specification:Helvetica">21.1</tspan><tspan x="0 2.0003321 4.0006642 5.0008302" y="70.855423" id="tspan124" style="font-size:3.59771943px;font-variant:normal;font-weight:normal;writing-mode:lr-tb;fill:#231f20;fill-opacity:1;fill-rule:nonzero;stroke:none;font-family:Helvetica;-inkscape-font-specification:Helvetica">21.3</tspan><tspan x="0 2.0003321 4.0006642 5.0008302" y="76.751541" id="tspan126" style="font-size:3.59771943px;font-variant:normal;font-weight:normal;writing-mode:lr-tb;fill:#231f20;fill-opacity:1;fill-rule:nonzero;stroke:none;font-family:Helvetica;-inkscape-font-specification:Helvetica">22.1</tspan><tspan x="0 2.0003321 4.0006642 5.0008302" y="86.246048" id="tspan128" style="font-size:3.59771943px;font-variant:normal;font-weight:normal;writing-mode:lr-tb;fill:#231f20;fill-opacity:1;fill-rule:nonzero;stroke:none;font-family:Helvetica;-inkscape-font-specification:Helvetica">22.3</tspan><tspan x="0 2.0003321 4.0006642 5.0008302" y="142.6097" id="tspan130" style="font-size:3.59771943px;font-variant:normal;font-weight:normal;writing-mode:lr-tb;fill:#231f20;fill-opacity:1;fill-rule:nonzero;stroke:none;font-family:Helvetica;-inkscape-font-specification:Helvetica">26.3</tspan><tspan x="0 2.0003321 4.0006642 5.0008302" y="3.5989213" id="tspan132" style="font-size:3.59771943px;font-variant:normal;font-weight:normal;writing-mode:lr-tb;fill:#231f20;fill-opacity:1;fill-rule:nonzero;stroke:none;font-family:Helvetica;-inkscape-font-specification:Helvetica">15.2</tspan><tspan x="0 2.0003321 4.0006642 5.0008302" y="7.395432" id="tspan134" style="font-size:3.59771943px;font-variant:normal;font-weight:normal;writing-mode:lr-tb;fill:#231f20;fill-opacity:1;fill-rule:nonzero;stroke:none;font-family:Helvetica;-inkscape-font-specification:Helvetica">15.1</tspan><tspan x="2.9999995 5.0009785" y="12.592536" id="tspan136" style="font-size:3.59771943px;font-variant:normal;font-weight:normal;writing-mode:lr-tb;fill:#231f20;fill-opacity:1;fill-rule:nonzero;stroke:none;font-family:Helvetica;-inkscape-font-specification:Helvetica">14</tspan><tspan x="2.9999995 5.0009785" y="17.589802" id="tspan138" style="font-size:3.59771943px;font-variant:normal;font-weight:normal;writing-mode:lr-tb;fill:#231f20;fill-opacity:1;fill-rule:nonzero;stroke:none;font-family:Helvetica;-inkscape-font-specification:Helvetica">13</tspan><tspan x="-2.0007825 -0.00045055 1.9998815 3.0000474 5.0010266" y="21.78685" id="tspan140" style="font-size:3.59771943px;font-variant:normal;font-weight:normal;writing-mode:lr-tb;fill:#231f20;fill-opacity:1;fill-rule:nonzero;stroke:none;font-family:Helvetica;-inkscape-font-specification:Helvetica">12.33</tspan><tspan x="-11.795705 -9.795373 -7.7950411 -6.7948751 -4.7938962" y="23.98551" id="tspan142" style="font-size:3.59771943px;font-variant:normal;font-weight:normal;writing-mode:lr-tb;fill:#231f20;fill-opacity:1;fill-rule:nonzero;stroke:none;font-family:Helvetica;-inkscape-font-specification:Helvetica">12.32</tspan></text>
</g>
          <path d="m 202.871,1202.61 110.918,0" id="path144" style="fill:none;stroke:#231f20;stroke-width:1.82598996;stroke-linecap:butt;stroke-linejoin:miter;stroke-miterlimit:4;stroke-opacity:1;stroke-dasharray:none"/>
          <g transform="scale(10,10)" id="g146"><text transform="matrix(1,0,0,-0.90698012,20.5762,117.45)" id="text148"><tspan x="0 2.0003321 4.0006642 5.0008302 7.0018091" y="0" id="tspan150" style="font-size:3.59771943px;font-variant:normal;font-weight:normal;writing-mode:lr-tb;fill:#231f20;fill-opacity:1;fill-rule:nonzero;stroke:none;font-family:Helvetica;-inkscape-font-specification:Helvetica">12.31</tspan><tspan x="-7.7941399 -5.793808 -3.7934759 -2.7933099" y="2.1986589" id="tspan152" style="font-size:3.59771943px;font-variant:normal;font-weight:normal;writing-mode:lr-tb;fill:#231f20;fill-opacity:1;fill-rule:nonzero;stroke:none;font-family:Helvetica;-inkscape-font-specification:Helvetica">12.2</tspan></text>
</g>
          <path d="m 202.871,1164.53 110.918,0" id="path154" style="fill:none;stroke:#231f20;stroke-width:1.82598996;stroke-linecap:butt;stroke-linejoin:miter;stroke-miterlimit:4;stroke-opacity:1;stroke-dasharray:none"/>
          <g transform="scale(10,10)" id="g156"><text transform="matrix(1,0,0,-0.90698012,22.577,113.282)" id="text158"><tspan x="0 2.0003321 4.0006642 5.0008302" y="0" id="tspan160" style="font-size:3.59771943px;font-variant:normal;font-weight:normal;writing-mode:lr-tb;fill:#231f20;fill-opacity:1;fill-rule:nonzero;stroke:none;font-family:Helvetica;-inkscape-font-specification:Helvetica">12.1</tspan><tspan x="-1.7351538 0.00019573999 2.0011747 3.0013406 5.0023227" y="6.9956551" id="tspan162" style="font-size:3.59771943px;font-variant:normal;font-weight:normal;writing-mode:lr-tb;fill:#231f20;fill-opacity:1;fill-rule:nonzero;stroke:none;font-family:Helvetica;-inkscape-font-specification:Helvetica">11.22</tspan><tspan x="-1.7351538 0.00019573999 2.0011747 3.0013406 5.0023227" y="25.18569" id="tspan164" style="font-size:3.59771943px;font-variant:normal;font-weight:normal;writing-mode:lr-tb;fill:#231f20;fill-opacity:1;fill-rule:nonzero;stroke:none;font-family:Helvetica;-inkscape-font-specification:Helvetica">11.22</tspan><tspan x="-9.7949228 -7.7945905 -5.7942586 -4.7940927" y="36.977901" id="tspan166" style="font-size:3.59771943px;font-variant:normal;font-weight:normal;writing-mode:lr-tb;fill:#231f20;fill-opacity:1;fill-rule:nonzero;stroke:none;font-family:Helvetica;-inkscape-font-specification:Helvetica">21.2</tspan></text>
</g>
          <path d="m 202.871,807.422 110.918,0" id="path168" style="fill:none;stroke:#231f20;stroke-width:1.82598996;stroke-linecap:butt;stroke-linejoin:miter;stroke-miterlimit:4;stroke-opacity:1;stroke-dasharray:none"/>
          <g transform="scale(10,10)" id="g170"><text transform="matrix(1,0,0,-0.90698012,22.577,67.0555)" id="text172"><tspan x="0 2.0003321 4.0006642 5.0008302" y="0" id="tspan174" style="font-size:3.59771943px;font-variant:normal;font-weight:normal;writing-mode:lr-tb;fill:#231f20;fill-opacity:1;fill-rule:nonzero;stroke:none;font-family:Helvetica;-inkscape-font-specification:Helvetica">22.2</tspan><tspan x="0 2.0003321 4.0006642 5.0008302" y="9.4945078" id="tspan176" style="font-size:3.59771943px;font-variant:normal;font-weight:normal;writing-mode:lr-tb;fill:#231f20;fill-opacity:1;fill-rule:nonzero;stroke:none;font-family:Helvetica;-inkscape-font-specification:Helvetica">23.1</tspan><tspan x="0 2.0003321 4.0006642 5.0008302" y="13.0929" id="tspan178" style="font-size:3.59771943px;font-variant:normal;font-weight:normal;writing-mode:lr-tb;fill:#231f20;fill-opacity:1;fill-rule:nonzero;stroke:none;font-family:Helvetica;-inkscape-font-specification:Helvetica">23.2</tspan><tspan x="-2.0007825 -0.00045055 1.9998815 3.0000474 5.0010266" y="16.689142" id="tspan180" style="font-size:3.59771943px;font-variant:normal;font-weight:normal;writing-mode:lr-tb;fill:#231f20;fill-opacity:1;fill-rule:nonzero;stroke:none;font-family:Helvetica;-inkscape-font-specification:Helvetica">23.31</tspan><tspan x="-2.0007825 -0.00045055 1.9998815 3.0000474 5.0010266" y="22.685602" id="tspan182" style="font-size:3.59771943px;font-variant:normal;font-weight:normal;writing-mode:lr-tb;fill:#231f20;fill-opacity:1;fill-rule:nonzero;stroke:none;font-family:Helvetica;-inkscape-font-specification:Helvetica">23.33</tspan><tspan x="-2.0007825 -0.00045055 1.9998815 3.0000474 5.0010266" y="19.688877" id="tspan184" style="font-size:3.59771943px;font-variant:normal;font-weight:normal;writing-mode:lr-tb;fill:#231f20;fill-opacity:1;fill-rule:nonzero;stroke:none;font-family:Helvetica;-inkscape-font-specification:Helvetica">23.32</tspan><tspan x="0 2.0003321 4.0006642 5.0008302" y="27.884426" id="tspan186" style="font-size:3.59771943px;font-variant:normal;font-weight:normal;writing-mode:lr-tb;fill:#231f20;fill-opacity:1;fill-rule:nonzero;stroke:none;font-family:Helvetica;-inkscape-font-specification:Helvetica">24.2</tspan><tspan x="-2.0007825 -0.00045055 1.9998815 3.0000474 5.0010266" y="31.480667" id="tspan188" style="font-size:3.59771943px;font-variant:normal;font-weight:normal;writing-mode:lr-tb;fill:#231f20;fill-opacity:1;fill-rule:nonzero;stroke:none;font-family:Helvetica;-inkscape-font-specification:Helvetica">24.32</tspan><tspan x="-9.7949228 -7.7945905 -5.7942586 -4.7940927" y="24.986336" id="tspan190" style="font-size:3.59771943px;font-variant:normal;font-weight:normal;writing-mode:lr-tb;fill:#231f20;fill-opacity:1;fill-rule:nonzero;stroke:none;font-family:Helvetica;-inkscape-font-specification:Helvetica">24.1</tspan></text>
</g>
          <path d="m 202.871,453.922 110.918,0" id="path192" style="fill:none;stroke:#231f20;stroke-width:1.82598996;stroke-linecap:butt;stroke-linejoin:miter;stroke-miterlimit:4;stroke-opacity:1;stroke-dasharray:none"/>
          <g transform="scale(10,10)" id="g194"><text transform="matrix(1,0,0,-0.90698012,10.7812,40.0441)" id="text196"><tspan x="0 2.0003321 4.0006642 5.0008302 7.0018091" y="0" id="tspan198" style="font-size:3.59771943px;font-variant:normal;font-weight:normal;writing-mode:lr-tb;fill:#231f20;fill-opacity:1;fill-rule:nonzero;stroke:none;font-family:Helvetica;-inkscape-font-specification:Helvetica">24.31</tspan></text>
</g>
          <path d="m 202.871,410.41 110.918,0" id="path200" style="fill:none;stroke:#231f20;stroke-width:1.82598996;stroke-linecap:butt;stroke-linejoin:miter;stroke-miterlimit:4;stroke-opacity:1;stroke-dasharray:none"/>
          <g transform="scale(10,10)" id="g202"><text transform="matrix(1,0,0,-0.90698012,10.7812,37.3238)" id="text204"><tspan x="0 2.0003321 4.0006642 5.0008302 7.0018091" y="0" id="tspan206" style="font-size:3.59771943px;font-variant:normal;font-weight:normal;writing-mode:lr-tb;fill:#231f20;fill-opacity:1;fill-rule:nonzero;stroke:none;font-family:Helvetica;-inkscape-font-specification:Helvetica">24.33</tspan></text>
</g>
          <path d="m 202.871,383.219 110.918,0" id="path208" style="fill:none;stroke:#231f20;stroke-width:1.82598996;stroke-linecap:butt;stroke-linejoin:miter;stroke-miterlimit:4;stroke-opacity:1;stroke-dasharray:none"/>
          <g transform="scale(10,10)" id="g210"><text transform="matrix(1,0,0,-0.90698012,22.577,34.5129)" id="text212"><tspan x="0 2.0003321 4.0006642 5.0008302" y="0" id="tspan214" style="font-size:3.59771943px;font-variant:normal;font-weight:normal;writing-mode:lr-tb;fill:#231f20;fill-opacity:1;fill-rule:nonzero;stroke:none;font-family:Helvetica;-inkscape-font-specification:Helvetica">25.1</tspan><tspan x="0 2.0003321 4.0006642 5.0008302" y="3.398123" id="tspan216" style="font-size:3.59771943px;font-variant:normal;font-weight:normal;writing-mode:lr-tb;fill:#231f20;fill-opacity:1;fill-rule:nonzero;stroke:none;font-family:Helvetica;-inkscape-font-specification:Helvetica">25.2</tspan><tspan x="0 2.0003321 4.0006642 5.0008302" y="6.7949562" id="tspan218" style="font-size:3.59771943px;font-variant:normal;font-weight:normal;writing-mode:lr-tb;fill:#231f20;fill-opacity:1;fill-rule:nonzero;stroke:none;font-family:Helvetica;-inkscape-font-specification:Helvetica">25.3</tspan><tspan x="-2.0007825 -0.00045055 1.9998815 3.0000474 5.0010266" y="15.786421" id="tspan220" style="font-size:3.59771943px;font-variant:normal;font-weight:normal;writing-mode:lr-tb;fill:#231f20;fill-opacity:1;fill-rule:nonzero;stroke:none;font-family:Helvetica;-inkscape-font-specification:Helvetica">26.13</tspan><tspan x="-1.7351571 0.2651749 2.265507 3.2656729 5.0020037" y="9.7929707" id="tspan222" style="font-size:3.59771943px;font-variant:normal;font-weight:normal;writing-mode:lr-tb;fill:#231f20;fill-opacity:1;fill-rule:nonzero;stroke:none;font-family:Helvetica;-inkscape-font-specification:Helvetica">26.11</tspan><tspan x="-2.0007825 -0.00045055 1.9998815 3.0000474 5.0010266" y="12.791846" id="tspan224" style="font-size:3.59771943px;font-variant:normal;font-weight:normal;writing-mode:lr-tb;fill:#231f20;fill-opacity:1;fill-rule:nonzero;stroke:none;font-family:Helvetica;-inkscape-font-specification:Helvetica">26.12</tspan><tspan x="0 2.0003321 4.0006642 5.0008302" y="20.386158" id="tspan226" style="font-size:3.59771943px;font-variant:normal;font-weight:normal;writing-mode:lr-tb;fill:#231f20;fill-opacity:1;fill-rule:nonzero;stroke:none;font-family:Helvetica;-inkscape-font-specification:Helvetica">26.2</tspan></text>
</g>
        </g>
      </g>
    </g>
  </g>
</svg>
