<?xml version="1.0" encoding="UTF-8"?>
<svg xmlns:xlink="http://www.w3.org/1999/xlink" xmlns="http://www.w3.org/2000/svg" contentScriptType="text/ecmascript" zoomAndPan="magnify" contentStyleType="text/css" preserveAspectRatio="xMidYMid meet" version="1.0">

<g id="chromosome10">
<path style="fill:#a4bdc8;fill-opacity:1;fill-rule:nonzero;stroke:none" id="centromere10-f" d="m 50.16850000000001,174.82725 0.0,-1.4732500000000002 c 0.0,-0.9652500000000002 -1.18075,-2.54875 -2.923375,-3.4552500000000004 1.742625,-0.90875 2.923375,-2.49125 2.923375,-3.4575 l 0.0,-1.1325000000000003 -11.36375,-0.0 0.0,1.1325000000000003 c 0.0,0.96875 1.187,2.55125 2.939375,3.4575 -1.7523750000000002,0.9065000000000001 -2.939375,2.4860000000000007 -2.939375,3.4552500000000004 l 0.0,1.4732500000000002 11.36375,0.0 "/>
<path style="fill:none;stroke:#100f0d;stroke-width:0.8;stroke-linecap:butt;stroke-linejoin:miter;stroke-miterlimit:4;stroke-opacity:1;stroke-dasharray:none" id="centromere10-o" d="m 50.16850000000001,174.82725 0.0,-1.4732500000000002 c 0.0,-0.9652500000000002 -1.18075,-2.54875 -2.923375,-3.4552500000000004 1.742625,-0.90875 2.923375,-2.49125 2.923375,-3.4575 l 0.0,-1.1325000000000003 -11.36375,-0.0 0.0,1.1325000000000003 c 0.0,0.96875 1.187,2.55125 2.939375,3.4575 -1.7523750000000002,0.9065000000000001 -2.939375,2.4860000000000007 -2.939375,3.4552500000000004 l 0.0,1.4732500000000002 11.36375,0.0 z "/>
<path style="fill:#211c1d;fill-opacity:1;fill-rule:nonzero;stroke:none" id="10q21.1" d="m 38.794875,193.495125 11.3847625,0.0 0.0,-7.339850000000001 -11.3847625,-0.0 0.0,7.339850000000001 z "/>
<path style="fill:#211c1d;fill-opacity:1;fill-rule:nonzero;stroke:none" id="10q21.3" d="m 38.794875,200.745625 11.3847625,0.0 0.0,-5.5253875 -11.3847625,-0.0 0.0,5.5253875 z "/>
<path style="fill:#211c1d;fill-opacity:1;fill-rule:nonzero;stroke:none" id="10q23.1" d="m 38.794875,223.63237500000002 11.3847625,0.0 0.0,-5.071775 -11.3847625,-0.0 0.0,5.071775 z "/>
<path style="fill:#e9eae9;fill-opacity:1;fill-rule:nonzero;stroke:none" id="10p15.2" d="m 38.794875,122.80375000000001 11.3847625,0.0 0.0,-2.361325 -11.3847625,-0.0 0.0,2.361325 z "/>
<path style="fill:none;stroke:#211c1d;stroke-width:0.1;stroke-linecap:butt;stroke-linejoin:miter;stroke-miterlimit:4;stroke-opacity:1;stroke-dasharray:none" id="10p15.2-o" d="m 38.794875,122.80375000000001 11.3847625,0.0 0.0,-2.361325 -11.3847625,-0.0 0.0,2.361325 z "/>
<path style="fill:#e9eae9;fill-opacity:1;fill-rule:nonzero;stroke:none" id="10p11.22" d="m 38.794875,162.005 11.3847625,0.0 0.0,-3.4951125 -11.3847625,-0.0 0.0,3.4951125 z "/>
<path style="fill:none;stroke:#211c1d;stroke-width:0.1;stroke-linecap:butt;stroke-linejoin:miter;stroke-miterlimit:4;stroke-opacity:1;stroke-dasharray:none" id="10p11.22-o" d="m 38.794875,162.005 11.3847625,0.0 0.0,-3.4951125 -11.3847625,-0.0 0.0,3.4951125 z "/>
<path style="fill:#e9eae9;fill-opacity:1;fill-rule:nonzero;stroke:none" id="10q11.22" d="m 38.794875,181.946375 11.3847625,0.0 0.0,-3.0405250000000006 -11.3847625,-0.0 0.0,3.0405250000000006 z "/>
<path style="fill:none;stroke:#211c1d;stroke-width:0.1;stroke-linecap:butt;stroke-linejoin:miter;stroke-miterlimit:4;stroke-opacity:1;stroke-dasharray:none" id="10q11.22-o" d="m 38.794875,181.946375 11.3847625,0.0 0.0,-3.0405250000000006 -11.3847625,-0.0 0.0,3.0405250000000006 z "/>
<path style="fill:#e9eae9;fill-opacity:1;fill-rule:nonzero;stroke:none" id="10q24.32" d="m 38.794875,246.75400000000002 11.3847625,0.0 0.0,-2.361325 -11.3847625,-0.0 0.0,2.361325 z "/>
<path style="fill:none;stroke:#211c1d;stroke-width:0.1;stroke-linecap:butt;stroke-linejoin:miter;stroke-miterlimit:4;stroke-opacity:1;stroke-dasharray:none" id="10q24.32-o" d="m 38.794875,246.75400000000002 11.3847625,0.0 0.0,-2.361325 -11.3847625,-0.0 0.0,2.361325 z "/>
<path style="fill:#211c1d;fill-opacity:1;fill-rule:nonzero;stroke:none" id="10q25.1" d="m 38.794875,253.54500000000002 11.3847625,0.0 0.0,-5.752437500000001 -11.3847625,-0.0 0.0,5.752437500000001 z "/>
<path style="fill:#bbbcbd;fill-opacity:1;fill-rule:nonzero;stroke:none" id="10p12.1" d="m 38.794875,154.98125000000002 11.3847625,0.0 0.0,-4.8544875 -11.3847625,-0.0 0.0,4.8544875 z "/>
<path style="fill:none;stroke:#211c1d;stroke-width:0.1;stroke-linecap:butt;stroke-linejoin:miter;stroke-miterlimit:4;stroke-opacity:1;stroke-dasharray:none" id="10p12.1-o" d="m 38.794875,154.98125000000002 11.3847625,0.0 0.0,-4.8544875 -11.3847625,-0.0 0.0,4.8544875 z "/>
<path style="fill:#bbbcbd;fill-opacity:1;fill-rule:nonzero;stroke:none" id="10q22.2" d="m 38.794875,212.308125 11.3847625,0.0 0.0,-3.9453125 -11.3847625,-0.0 0.0,3.9453125 z "/>
<path style="fill:none;stroke:#211c1d;stroke-width:0.1;stroke-linecap:butt;stroke-linejoin:miter;stroke-miterlimit:4;stroke-opacity:1;stroke-dasharray:none" id="10q22.2-o" d="m 38.794875,212.308125 11.3847625,0.0 0.0,-3.9453125 -11.3847625,-0.0 0.0,3.9453125 z "/>
<path style="fill:#bbbcbd;fill-opacity:1;fill-rule:nonzero;stroke:none" id="10q23.33" d="m 38.794875,237.689 11.3847625,0.0 0.0,-4.3994125 -11.3847625,-0.0 0.0,4.3994125 z "/>
<path style="fill:none;stroke:#211c1d;stroke-width:0.1;stroke-linecap:butt;stroke-linejoin:miter;stroke-miterlimit:4;stroke-opacity:1;stroke-dasharray:none" id="10q23.33-o" d="m 38.794875,237.689 11.3847625,0.0 0.0,-4.3994125 -11.3847625,-0.0 0.0,4.3994125 z "/>
<path style="fill:#bbbcbd;fill-opacity:1;fill-rule:nonzero;stroke:none" id="10q24.2" d="m 38.794875,242.84475 11.3847625,0.0 0.0,-3.207525 -11.3847625,-0.0 0.0,3.207525 z "/>
<path style="fill:none;stroke:#211c1d;stroke-width:0.1;stroke-linecap:butt;stroke-linejoin:miter;stroke-miterlimit:4;stroke-opacity:1;stroke-dasharray:none" id="10q24.2-o" d="m 38.794875,242.84475 11.3847625,0.0 0.0,-3.207525 -11.3847625,-0.0 0.0,3.207525 z "/>
<path style="fill:#bbbcbd;fill-opacity:1;fill-rule:nonzero;stroke:none" id="10q26.2" d="m 38.794875,275.757375 11.3847625,0.0 0.0,-4.3999 -11.3847625,-0.0 0.0,4.3999 z "/>
<path style="fill:none;stroke:#211c1d;stroke-width:0.1;stroke-linecap:butt;stroke-linejoin:miter;stroke-miterlimit:4;stroke-opacity:1;stroke-dasharray:none" id="10q26.2-o" d="m 38.794875,275.757375 11.3847625,0.0 0.0,-4.3999 -11.3847625,-0.0 0.0,4.3999 z "/>
<path style="fill:#bbbcbd;fill-opacity:1;fill-rule:nonzero;stroke:none" id="10q26.12" d="m 38.794875,265.56012499999997 11.3847625,0.0 0.0,-2.8125 -11.3847625,-0.0 0.0,2.8125 z "/>
<path style="fill:none;stroke:#211c1d;stroke-width:0.1;stroke-linecap:butt;stroke-linejoin:miter;stroke-miterlimit:4;stroke-opacity:1;stroke-dasharray:none" id="10q26.12-o" d="m 38.794875,265.56012499999997 11.3847625,0.0 0.0,-2.8125 -11.3847625,-0.0 0.0,2.8125 z "/>
<path style="fill:#7a7e82;fill-opacity:1;fill-rule:nonzero;stroke:none" id="10p14" d="m 38.794875,134.94500000000002 11.3847625,0.0 0.0,-5.892575 -11.3847625,-0.0 0.0,5.892575 z "/>
<path style="fill:none;stroke:#211c1d;stroke-width:0.1;stroke-linecap:butt;stroke-linejoin:miter;stroke-miterlimit:4;stroke-opacity:1;stroke-dasharray:none" id="10p14-o" d="m 38.794875,134.94500000000002 11.3847625,0.0 0.0,-5.892575 -11.3847625,-0.0 0.0,5.892575 z "/>
<path style="fill:#7a7e82;fill-opacity:1;fill-rule:nonzero;stroke:none" id="10q23.31" d="m 38.794875,231.476625 11.3847625,0.0 0.0,-4.9838875 -11.3847625,-0.0 0.0,4.9838875 z "/>
<path style="fill:none;stroke:#211c1d;stroke-width:0.1;stroke-linecap:butt;stroke-linejoin:miter;stroke-miterlimit:4;stroke-opacity:1;stroke-dasharray:none" id="10q23.31-o" d="m 38.794875,231.476625 11.3847625,0.0 0.0,-4.9838875 -11.3847625,-0.0 0.0,4.9838875 z "/>
<path style="fill:#7a7e82;fill-opacity:1;fill-rule:nonzero;stroke:none" id="10p12.33" d="m 38.794875,144.00875000000002 11.3847625,0.0 0.0,-3.8525375 -11.3847625,-0.0 0.0,3.8525375 z "/>
<path style="fill:none;stroke:#211c1d;stroke-width:0.1;stroke-linecap:butt;stroke-linejoin:miter;stroke-miterlimit:4;stroke-opacity:1;stroke-dasharray:none" id="10p12.33-o" d="m 38.794875,144.00875000000002 11.3847625,0.0 0.0,-3.8525375 -11.3847625,-0.0 0.0,3.8525375 z "/>
<path style="fill:#7a7e82;fill-opacity:1;fill-rule:nonzero;stroke:none" id="10p12.31-o" d="m 38.794875,149.22124999999997 11.3847625,0.0 0.0,-3.8530250000000006 -11.3847625,-0.0 0.0,3.8530250000000006 z "/>
<path style="fill:none;stroke:#211c1d;stroke-width:0.1;stroke-linecap:butt;stroke-linejoin:miter;stroke-miterlimit:4;stroke-opacity:1;stroke-dasharray:none" id="10p12.31-o" d="m 38.794875,149.22124999999997 11.3847625,0.0 0.0,-3.8530250000000006 -11.3847625,-0.0 0.0,3.8530250000000006 z "/>
<path style="fill:#7a7e82;fill-opacity:1;fill-rule:nonzero;stroke:none" id="10q25.3" d="m 38.794875,260.029875 11.3847625,0.0 0.0,-4.0795875 -11.3847625,-0.0 0.0,4.0795875 z "/>
<path style="fill:none;stroke:#211c1d;stroke-width:0.1;stroke-linecap:butt;stroke-linejoin:miter;stroke-miterlimit:4;stroke-opacity:1;stroke-dasharray:none" id="10q25.3-o" d="m 38.794875,260.029875 11.3847625,0.0 0.0,-4.0795875 -11.3847625,-0.0 0.0,4.0795875 z "/>
<path style="fill:none;stroke:#211c1d;stroke-width:0.8;stroke-linecap:butt;stroke-linejoin:miter;stroke-miterlimit:4;stroke-opacity:1;stroke-dasharray:none" id="outline10" d="m 41.744125,169.89875 c -1.7523750000000002,0.9060000000000001 -2.939375,2.4875 -2.939375,3.45475 l 0.0,106.84287500000002 c 0.0,1.415 2.542875,2.5633750000000006 5.681625,2.5633750000000006 3.136625,0.0 5.682125,-1.148375 5.682125,-2.5633750000000006 l 0.0,-106.84287500000002 c 0.0,-0.96475 -1.18075,-2.54875 -2.923375,-3.45475 1.742625,-0.9075 2.923375,-2.4925 2.923375,-3.4562500000000003 l 0.0,-47.815000000000005 c 0.0,-1.41375 -2.5455,-2.56125 -5.682125,-2.56125 -3.13875,-0.0 -5.681625,1.1475 -5.681625,2.56125 l 0.0,47.815000000000005 c 0.0,0.9662500000000002 1.187,2.55 2.939375,3.4562500000000003 z "/>
<path style="fill:none;stroke:#231f20;stroke-width:0.8;stroke-linecap:butt;stroke-linejoin:miter;stroke-miterlimit:4;stroke-opacity:1;stroke-dasharray:none;display:none" id="centre10" d="M 41.34625,169.935 0.0,169.935 "/>
<text>
<tspan x="38.789 43.79143550000001" y="291.4126375" id="label10" style="font-size:7.19543791px;font-variant:normal;font-weight:normal;writing-mode:lr-tb;fill:#211c1d;fill-opacity:1;fill-rule:nonzero;stroke:none;font-family:Helvetica;-inkscape-font-specification:Helvetica">10</tspan>
</text>
<path style="fill:none;stroke:#211c1d;stroke-width:0.1;stroke-linecap:butt;stroke-linejoin:miter;stroke-miterlimit:4;stroke-opacity:1;stroke-dasharray:none;display:none" id="10q23.1-1" d="m 38.794875,218.56060000000002 11.3847625,0.0 0,-6.252475000000032 -11.3847625,-0.0 0,6.252475000000032 z "/>
<path style="fill:none;stroke:#211c1d;stroke-width:0.1;stroke-linecap:butt;stroke-linejoin:miter;stroke-miterlimit:4;stroke-opacity:1;stroke-dasharray:none;display:none" id="10q26.12-1" d="m 38.794875,262.74762499999997 11.3847625,0.0 0,-2.717749999999967 -11.3847625,-0.0 0,2.717749999999967 z "/>
<path style="fill:none;stroke:#211c1d;stroke-width:0.1;stroke-linecap:butt;stroke-linejoin:miter;stroke-miterlimit:4;stroke-opacity:1;stroke-dasharray:none;display:none" id="10q11.22-1" d="m 38.794875,178.90585 11.3847625,0.0 0,-4.0785999999999945 -11.3847625,-0.0 0,4.0785999999999945 z "/>
<path style="fill:none;stroke:#211c1d;stroke-width:0.1;stroke-linecap:butt;stroke-linejoin:miter;stroke-miterlimit:4;stroke-opacity:1;stroke-dasharray:none;display:none" id="10q24.32-1" d="m 38.794875,244.39267500000003 11.3847625,0.0 0,-1.5479250000000206 -11.3847625,-0.0 0,1.5479250000000206 z "/>
<path style="fill:none;stroke:#211c1d;stroke-width:0.1;stroke-linecap:butt;stroke-linejoin:miter;stroke-miterlimit:4;stroke-opacity:1;stroke-dasharray:none;display:none" id="10q23.31-1" d="m 38.794875,226.4927375 11.3847625,0.0 0,-2.8603624999999795 -11.3847625,-0.0 0,2.8603624999999795 z "/>
<path style="fill:none;stroke:#211c1d;stroke-width:0.1;stroke-linecap:butt;stroke-linejoin:miter;stroke-miterlimit:4;stroke-opacity:1;stroke-dasharray:none;display:none" id="10p12.1-1" d="m 38.794875,158.5098875 11.3847625,0.0 0,-3.5286374999999737 -11.3847625,-0.0 0,3.5286374999999737 z "/>
<path style="fill:none;stroke:#211c1d;stroke-width:0.1;stroke-linecap:butt;stroke-linejoin:miter;stroke-miterlimit:4;stroke-opacity:1;stroke-dasharray:none;display:none" id="10q26.2-1" d="m 38.794875,271.357475 11.3847625,0.0 0,-5.797350000000051 -11.3847625,-0.0 0,5.797350000000051 z "/>
<path style="fill:none;stroke:#211c1d;stroke-width:0.1;stroke-linecap:butt;stroke-linejoin:miter;stroke-miterlimit:4;stroke-opacity:1;stroke-dasharray:none;display:none" id="10q24.2-1" d="m 38.794875,239.637225 11.3847625,0.0 0,-1.9482250000000079 -11.3847625,-0.0 0,1.9482250000000079 z "/>
<path style="fill:none;stroke:#211c1d;stroke-width:0.1;stroke-linecap:butt;stroke-linejoin:miter;stroke-miterlimit:4;stroke-opacity:1;stroke-dasharray:none;display:none" id="10q21.1-1" d="m 38.794875,186.155275 11.3847625,0.0 0,-4.2089 -11.3847625,-0.0 0,4.2089 z "/>
<path style="fill:none;stroke:#211c1d;stroke-width:0.1;stroke-linecap:butt;stroke-linejoin:miter;stroke-miterlimit:4;stroke-opacity:1;stroke-dasharray:none;display:none" id="10p11.22-1" d="m 38.794875,165.30874999999997 11.3847625,0.0 0,-3.3037499999999795 -11.3847625,-0.0 0,3.3037499999999795 z "/>
<path style="fill:none;stroke:#211c1d;stroke-width:0.1;stroke-linecap:butt;stroke-linejoin:miter;stroke-miterlimit:4;stroke-opacity:1;stroke-dasharray:none;display:none" id="10p15.2-1" d="m 38.794875,129.05242500000003 11.3847625,0.0 0,-6.24867500000002 -11.3847625,-0.0 0,6.24867500000002 z "/>
<path style="fill:none;stroke:#211c1d;stroke-width:0.1;stroke-linecap:butt;stroke-linejoin:miter;stroke-miterlimit:4;stroke-opacity:1;stroke-dasharray:none;display:none" id="10p14-1" d="m 38.794875,140.1562125 11.3847625,0.0 0,-5.211212499999988 -11.3847625,-0.0 0,5.211212499999988 z "/>
<path style="fill:none;stroke:#211c1d;stroke-width:0.1;stroke-linecap:butt;stroke-linejoin:miter;stroke-miterlimit:4;stroke-opacity:1;stroke-dasharray:none;display:none" id="10q23.33-1" d="m 38.794875,233.28958749999998 11.3847625,0.0 0,-1.8129624999999692 -11.3847625,-0.0 0,1.8129624999999692 z "/>
<path style="fill:none;stroke:#211c1d;stroke-width:0.1;stroke-linecap:butt;stroke-linejoin:miter;stroke-miterlimit:4;stroke-opacity:1;stroke-dasharray:none;display:none" id="10p12.33-1" d="m 38.794875,150.1267625 11.3847625,0.0 0,-6.118012499999992 -11.3847625,-0.0 0,6.118012499999992 z "/>
<path style="fill:none;stroke:#211c1d;stroke-width:0.1;stroke-linecap:butt;stroke-linejoin:miter;stroke-miterlimit:4;stroke-opacity:1;stroke-dasharray:none;display:none" id="bottom" d="&lt;!-- bottom end, put in manually --&gt;"/>
<path style="fill:none;stroke:#211c1d;stroke-width:0.1;stroke-linecap:butt;stroke-linejoin:miter;stroke-miterlimit:4;stroke-opacity:1;stroke-dasharray:none;display:none" id="10q25.1-1" d="m 38.794875,247.7925625 11.3847625,0.0 0,-1.0385624999999834 -11.3847625,-0.0 0,1.0385624999999834 z "/>
<path style="fill:none;stroke:#211c1d;stroke-width:0.1;stroke-linecap:butt;stroke-linejoin:miter;stroke-miterlimit:4;stroke-opacity:1;stroke-dasharray:none;display:none" id="10q21.3-1" d="m 38.794875,195.2202375 11.3847625,0.0 0,-1.7251124999999945 -11.3847625,-0.0 0,1.7251124999999945 z "/>
<path style="fill:none;stroke:#211c1d;stroke-width:0.1;stroke-linecap:butt;stroke-linejoin:miter;stroke-miterlimit:4;stroke-opacity:1;stroke-dasharray:none;display:none" id="10q25.3-1" d="m 38.794875,255.9502875 11.3847625,0.0 0,-2.405287499999986 -11.3847625,-0.0 0,2.405287499999986 z "/>
<path style="fill:none;stroke:#211c1d;stroke-width:0.1;stroke-linecap:butt;stroke-linejoin:miter;stroke-miterlimit:4;stroke-opacity:1;stroke-dasharray:none;display:none" id="top" d="&lt;!-- top end, put in manually --&gt;"/>
<path style="fill:none;stroke:#211c1d;stroke-width:0.1;stroke-linecap:butt;stroke-linejoin:miter;stroke-miterlimit:4;stroke-opacity:1;stroke-dasharray:none;display:none" id="10q22.2-1" d="m 38.794875,208.3628125 11.3847625,0.0 0,-7.6171875 -11.3847625,-0.0 0,7.6171875 z "/>
</g>
</svg>
