<?xml version="1.0" encoding="UTF-8"?>
<svg xmlns:xlink="http://www.w3.org/1999/xlink" xmlns="http://www.w3.org/2000/svg" contentScriptType="text/ecmascript" zoomAndPan="magnify" contentStyleType="text/css" preserveAspectRatio="xMidYMid meet" version="1.0">
<g>
<path style="fill:#a4bdc8;fill-opacity:1;fill-rule:nonzero;stroke:none" d="m 50.16850000000001,59.26724999999999 0.0,-1.4732500000000002 c 0.0,-0.9652500000000002 -1.18075,-2.54875 -2.923375,-3.4552500000000004 1.742625,-0.90875 2.923375,-2.49125 2.923375,-3.4575 l 0.0,-1.1325000000000003 -11.36375,-0.0 0.0,1.1325000000000003 c 0.0,0.96875 1.187,2.55125 2.939375,3.4575 -1.7523750000000002,0.9065000000000001 -2.939375,2.4860000000000007 -2.939375,3.4552500000000004 l 0.0,1.4732500000000002 11.36375,0.0 " id="path22"/>
<path style="fill:none;stroke:#100f0d;stroke-width:0.8;stroke-linecap:butt;stroke-linejoin:miter;stroke-miterlimit:4;stroke-opacity:1;stroke-dasharray:none" d="m 50.16850000000001,59.26724999999999 0.0,-1.4732500000000002 c 0.0,-0.9652500000000002 -1.18075,-2.54875 -2.923375,-3.4552500000000004 1.742625,-0.90875 2.923375,-2.49125 2.923375,-3.4575 l 0.0,-1.1325000000000003 -11.36375,-0.0 0.0,1.1325000000000003 c 0.0,0.96875 1.187,2.55125 2.939375,3.4575 -1.7523750000000002,0.9065000000000001 -2.939375,2.4860000000000007 -2.939375,3.4552500000000004 l 0.0,1.4732500000000002 11.36375,0.0 z " id="path24"/>
<path style="fill:#211c1d;fill-opacity:1;fill-rule:nonzero;stroke:none" d="m 38.794875,77.935125 11.3847625,0.0 0.0,-7.339850000000001 -11.3847625,-0.0 0.0,7.339850000000001 z " id="path26"/>
<path style="fill:#211c1d;fill-opacity:1;fill-rule:nonzero;stroke:none" d="m 38.794875,85.18562499999999 11.3847625,0.0 0.0,-5.5253875 -11.3847625,-0.0 0.0,5.5253875 z " id="path34"/>
<path style="fill:#211c1d;fill-opacity:1;fill-rule:nonzero;stroke:none" d="m 38.794875,108.07237500000001 11.3847625,0.0 0.0,-5.071775 -11.3847625,-0.0 0.0,5.071775 z " id="path36"/>
<path style="fill:#e9eae9;fill-opacity:1;fill-rule:nonzero;stroke:none" d="m 38.794875,7.243750000000006 11.3847625,0.0 0.0,-2.361325 -11.3847625,-0.0 0.0,2.361325 z " id="path38"/>
<path style="fill:none;stroke:#211c1d;stroke-width:0.1;stroke-linecap:butt;stroke-linejoin:miter;stroke-miterlimit:4;stroke-opacity:1;stroke-dasharray:none" d="m 38.794875,7.243750000000006 11.3847625,0.0 0.0,-2.361325 -11.3847625,-0.0 0.0,2.361325 z " id="path40"/>
<path style="fill:#e9eae9;fill-opacity:1;fill-rule:nonzero;stroke:none" d="m 38.794875,46.44499999999999 11.3847625,0.0 0.0,-3.4951125 -11.3847625,-0.0 0.0,3.4951125 z " id="path42"/>
<path style="fill:none;stroke:#211c1d;stroke-width:0.1;stroke-linecap:butt;stroke-linejoin:miter;stroke-miterlimit:4;stroke-opacity:1;stroke-dasharray:none" d="m 38.794875,46.44499999999999 11.3847625,0.0 0.0,-3.4951125 -11.3847625,-0.0 0.0,3.4951125 z " id="path44"/>
<path style="fill:#e9eae9;fill-opacity:1;fill-rule:nonzero;stroke:none" d="m 38.794875,66.38637499999999 11.3847625,0.0 0.0,-3.0405250000000006 -11.3847625,-0.0 0.0,3.0405250000000006 z " id="path46"/>
<path style="fill:none;stroke:#211c1d;stroke-width:0.1;stroke-linecap:butt;stroke-linejoin:miter;stroke-miterlimit:4;stroke-opacity:1;stroke-dasharray:none" d="m 38.794875,66.38637499999999 11.3847625,0.0 0.0,-3.0405250000000006 -11.3847625,-0.0 0.0,3.0405250000000006 z " id="path48"/>
<path style="fill:#e9eae9;fill-opacity:1;fill-rule:nonzero;stroke:none" d="m 38.794875,131.19400000000002 11.3847625,0.0 0.0,-2.361325 -11.3847625,-0.0 0.0,2.361325 z " id="path50"/>
<path style="fill:none;stroke:#211c1d;stroke-width:0.1;stroke-linecap:butt;stroke-linejoin:miter;stroke-miterlimit:4;stroke-opacity:1;stroke-dasharray:none" d="m 38.794875,131.19400000000002 11.3847625,0.0 0.0,-2.361325 -11.3847625,-0.0 0.0,2.361325 z " id="path52"/>
<path style="fill:#211c1d;fill-opacity:1;fill-rule:nonzero;stroke:none" d="m 38.794875,137.985 11.3847625,0.0 0.0,-5.752437500000001 -11.3847625,-0.0 0.0,5.752437500000001 z " id="path54"/>
<path style="fill:#bbbcbd;fill-opacity:1;fill-rule:nonzero;stroke:none" d="m 38.794875,39.421250000000015 11.3847625,0.0 0.0,-4.8544875 -11.3847625,-0.0 0.0,4.8544875 z " id="path56"/>
<path style="fill:none;stroke:#211c1d;stroke-width:0.1;stroke-linecap:butt;stroke-linejoin:miter;stroke-miterlimit:4;stroke-opacity:1;stroke-dasharray:none" d="m 38.794875,39.421250000000015 11.3847625,0.0 0.0,-4.8544875 -11.3847625,-0.0 0.0,4.8544875 z " id="path58"/>
<path style="fill:#bbbcbd;fill-opacity:1;fill-rule:nonzero;stroke:none" d="m 38.794875,96.74812499999999 11.3847625,0.0 0.0,-3.9453125 -11.3847625,-0.0 0.0,3.9453125 z " id="path60"/>
<path style="fill:none;stroke:#211c1d;stroke-width:0.1;stroke-linecap:butt;stroke-linejoin:miter;stroke-miterlimit:4;stroke-opacity:1;stroke-dasharray:none" d="m 38.794875,96.74812499999999 11.3847625,0.0 0.0,-3.9453125 -11.3847625,-0.0 0.0,3.9453125 z " id="path62"/>
<path style="fill:#bbbcbd;fill-opacity:1;fill-rule:nonzero;stroke:none" d="m 38.794875,122.12899999999999 11.3847625,0.0 0.0,-4.3994125 -11.3847625,-0.0 0.0,4.3994125 z " id="path64"/>
<path style="fill:none;stroke:#211c1d;stroke-width:0.1;stroke-linecap:butt;stroke-linejoin:miter;stroke-miterlimit:4;stroke-opacity:1;stroke-dasharray:none" d="m 38.794875,122.12899999999999 11.3847625,0.0 0.0,-4.3994125 -11.3847625,-0.0 0.0,4.3994125 z " id="path66"/>
<path style="fill:#bbbcbd;fill-opacity:1;fill-rule:nonzero;stroke:none" d="m 38.794875,127.28475 11.3847625,0.0 0.0,-3.207525 -11.3847625,-0.0 0.0,3.207525 z " id="path68"/>
<path style="fill:none;stroke:#211c1d;stroke-width:0.1;stroke-linecap:butt;stroke-linejoin:miter;stroke-miterlimit:4;stroke-opacity:1;stroke-dasharray:none" d="m 38.794875,127.28475 11.3847625,0.0 0.0,-3.207525 -11.3847625,-0.0 0.0,3.207525 z " id="path70"/>
<path style="fill:#bbbcbd;fill-opacity:1;fill-rule:nonzero;stroke:none" d="m 38.794875,160.197375 11.3847625,0.0 0.0,-4.3999 -11.3847625,-0.0 0.0,4.3999 z " id="path72"/>
<path style="fill:none;stroke:#211c1d;stroke-width:0.1;stroke-linecap:butt;stroke-linejoin:miter;stroke-miterlimit:4;stroke-opacity:1;stroke-dasharray:none" d="m 38.794875,160.197375 11.3847625,0.0 0.0,-4.3999 -11.3847625,-0.0 0.0,4.3999 z " id="path74"/>
<path style="fill:#bbbcbd;fill-opacity:1;fill-rule:nonzero;stroke:none" d="m 38.794875,150.000125 11.3847625,0.0 0.0,-2.8125 -11.3847625,-0.0 0.0,2.8125 z " id="path76"/>
<path style="fill:none;stroke:#211c1d;stroke-width:0.1;stroke-linecap:butt;stroke-linejoin:miter;stroke-miterlimit:4;stroke-opacity:1;stroke-dasharray:none" d="m 38.794875,150.000125 11.3847625,0.0 0.0,-2.8125 -11.3847625,-0.0 0.0,2.8125 z " id="path78"/>
<path style="fill:#7a7e82;fill-opacity:1;fill-rule:nonzero;stroke:none" d="m 38.794875,19.38500000000002 11.3847625,0.0 0.0,-5.892575 -11.3847625,-0.0 0.0,5.892575 z " id="path80"/>
<path style="fill:none;stroke:#211c1d;stroke-width:0.1;stroke-linecap:butt;stroke-linejoin:miter;stroke-miterlimit:4;stroke-opacity:1;stroke-dasharray:none" d="m 38.794875,19.38500000000002 11.3847625,0.0 0.0,-5.892575 -11.3847625,-0.0 0.0,5.892575 z " id="path82"/>
<path style="fill:#7a7e82;fill-opacity:1;fill-rule:nonzero;stroke:none" d="m 38.794875,115.916625 11.3847625,0.0 0.0,-4.9838875 -11.3847625,-0.0 0.0,4.9838875 z " id="path84"/>
<path style="fill:none;stroke:#211c1d;stroke-width:0.1;stroke-linecap:butt;stroke-linejoin:miter;stroke-miterlimit:4;stroke-opacity:1;stroke-dasharray:none" d="m 38.794875,115.916625 11.3847625,0.0 0.0,-4.9838875 -11.3847625,-0.0 0.0,4.9838875 z " id="path86"/>
<path style="fill:#7a7e82;fill-opacity:1;fill-rule:nonzero;stroke:none" d="m 38.794875,28.448750000000018 11.3847625,0.0 0.0,-3.8525375 -11.3847625,-0.0 0.0,3.8525375 z " id="path88"/>
<path style="fill:none;stroke:#211c1d;stroke-width:0.1;stroke-linecap:butt;stroke-linejoin:miter;stroke-miterlimit:4;stroke-opacity:1;stroke-dasharray:none" d="m 38.794875,28.448750000000018 11.3847625,0.0 0.0,-3.8525375 -11.3847625,-0.0 0.0,3.8525375 z " id="path90"/>
<path style="fill:#7a7e82;fill-opacity:1;fill-rule:nonzero;stroke:none" d="m 38.794875,33.66124999999997 11.3847625,0.0 0.0,-3.8530250000000006 -11.3847625,-0.0 0.0,3.8530250000000006 z " id="path92"/>
<path style="fill:none;stroke:#211c1d;stroke-width:0.1;stroke-linecap:butt;stroke-linejoin:miter;stroke-miterlimit:4;stroke-opacity:1;stroke-dasharray:none" d="m 38.794875,33.66124999999997 11.3847625,0.0 0.0,-3.8530250000000006 -11.3847625,-0.0 0.0,3.8530250000000006 z " id="path94"/>
<path style="fill:#7a7e82;fill-opacity:1;fill-rule:nonzero;stroke:none" d="m 38.794875,144.469875 11.3847625,0.0 0.0,-4.0795875 -11.3847625,-0.0 0.0,4.0795875 z " id="path96"/>
<path style="fill:none;stroke:#211c1d;stroke-width:0.1;stroke-linecap:butt;stroke-linejoin:miter;stroke-miterlimit:4;stroke-opacity:1;stroke-dasharray:none" d="m 38.794875,144.469875 11.3847625,0.0 0.0,-4.0795875 -11.3847625,-0.0 0.0,4.0795875 z " id="path98"/>
<path style="fill:none;stroke:#211c1d;stroke-width:0.8;stroke-linecap:butt;stroke-linejoin:miter;stroke-miterlimit:4;stroke-opacity:1;stroke-dasharray:none" d="m 41.744125,54.338750000000005 c -1.7523750000000002,0.9060000000000001 -2.939375,2.4875 -2.939375,3.45475 l 0.0,106.84287500000002 c 0.0,1.415 2.542875,2.5633750000000006 5.681625,2.5633750000000006 3.136625,0.0 5.682125,-1.148375 5.682125,-2.5633750000000006 l 0.0,-106.84287500000002 c 0.0,-0.96475 -1.18075,-2.54875 -2.923375,-3.45475 1.742625,-0.9075 2.923375,-2.4925 2.923375,-3.4562500000000003 l 0.0,-47.815000000000005 c 0.0,-1.41375 -2.5455,-2.56125 -5.682125,-2.56125 -3.13875,-0.0 -5.681625,1.1475 -5.681625,2.56125 l 0.0,47.815000000000005 c 0.0,0.9662500000000002 1.187,2.55 2.939375,3.4562500000000003 z " id="path100"/>
<path style="fill:none;stroke:#231f20;stroke-width:0.8;stroke-linecap:butt;stroke-linejoin:miter;stroke-miterlimit:4;stroke-opacity:1;stroke-dasharray:none;display:none" d="M 41.34625,54.375 0.0,54.375 " id="path102"/>
<text>
<tspan x="38.789 43.79143550000001" y="175.85263750000001" id="tspan32" style="font-size:7.19543791px;font-variant:normal;font-weight:normal;writing-mode:lr-tb;fill:#211c1d;fill-opacity:1;fill-rule:nonzero;stroke:none;font-family:Helvetica;-inkscape-font-specification:Helvetica">10</tspan>
</text>
</g>
</svg>
