<?xml version="1.0" encoding="UTF-8" standalone="no"?>
<!-- Created with Inkscape (http://www.inkscape.org/) -->

<svg
   xmlns:dc="http://purl.org/dc/elements/1.1/"
   xmlns:cc="http://creativecommons.org/ns#"
   xmlns:rdf="http://www.w3.org/1999/02/22-rdf-syntax-ns#"
   xmlns:svg="http://www.w3.org/2000/svg"
   xmlns="http://www.w3.org/2000/svg"
   version="1.1"
   width="50.487499"
   height="194.9875"
   id="svg3203"
   xml:space="preserve"><metadata
     id="metadata3209"><rdf:RDF><cc:Work
         rdf:about=""><dc:format>image/svg+xml</dc:format><dc:type
           rdf:resource="http://purl.org/dc/dcmitype/StillImage" /><dc:title></dc:title></cc:Work></rdf:RDF></metadata><defs
     id="defs3207"><clipPath
       id="clipPath3219"><path
         d="M 0,1559.93 0,0 l 403.855,0 0,1559.93 -403.855,0 z"
         id="path3221" /></clipPath></defs><g
     transform="matrix(1.25,0,0,-1.25,0,194.9875)"
     id="g3211"><g
       transform="scale(0.1,0.1)"
       id="g3213"><g
         id="g3215"><g
           clip-path="url(#clipPath3219)"
           id="g3217"><path
             d="m 310.359,935.074 91.0781,0 0,39.8906 -91.0781,0 0,-39.8906 z"
             id="path3223"
             style="fill:#7a7e82;fill-opacity:1;fill-rule:nonzero;stroke:none" /><path
             d="m 310.359,935.074 91.0781,0 0,39.8906 -91.0781,0 0,-39.8906 z"
             id="path3225"
             style="fill:none;stroke:#211c1d;stroke-width:0.62;stroke-linecap:butt;stroke-linejoin:miter;stroke-miterlimit:4;stroke-opacity:1;stroke-dasharray:none" /><path
             d="m 310.359,1032.97 91.0781,0 0,39.875 -91.0781,0 0,-39.875 z"
             id="path3227"
             style="fill:#7a7e82;fill-opacity:1;fill-rule:nonzero;stroke:none" /><path
             d="m 310.359,1032.97 91.0781,0 0,39.875 -91.0781,0 0,-39.875 z"
             id="path3229"
             style="fill:none;stroke:#211c1d;stroke-width:0.62;stroke-linecap:butt;stroke-linejoin:miter;stroke-miterlimit:4;stroke-opacity:1;stroke-dasharray:none" /><path
             d="m 310.359,1234.19 91.0781,0 0,41.6875 -91.0781,0 0,-41.6875 z"
             id="path3231"
             style="fill:#7a7e82;fill-opacity:1;fill-rule:nonzero;stroke:none" /><path
             d="m 310.359,1234.19 91.0781,0 0,41.6875 -91.0781,0 0,-41.6875 z"
             id="path3233"
             style="fill:none;stroke:#211c1d;stroke-width:0.62;stroke-linecap:butt;stroke-linejoin:miter;stroke-miterlimit:4;stroke-opacity:1;stroke-dasharray:none" /><path
             d="m 401.355,974.953 0,2.711 c 0,7.727 -9.429,20.402 -23.375,27.656 13.946,7.25 23.375,19.93 23.375,27.65 l -90.906,0 c 0,-7.75 9.5,-20.41 23.516,-27.65 -14.016,-7.254 -23.516,-19.902 -23.516,-27.656 l 0,-2.711 90.906,0"
             id="path3235"
             style="fill:#a4bdc8;fill-opacity:1;fill-rule:nonzero;stroke:none" /><path
             d="m 401.355,974.953 0,2.711 c 0,7.727 -9.429,20.402 -23.375,27.656 13.946,7.25 23.375,19.93 23.375,27.65 l -90.906,0 c 0,-7.75 9.5,-20.41 23.516,-27.65 -14.016,-7.254 -23.516,-19.902 -23.516,-27.656 l 0,-2.711 90.906,0 z"
             id="path3237"
             style="fill:none;stroke:#100f0d;stroke-width:5;stroke-linecap:butt;stroke-linejoin:miter;stroke-miterlimit:4;stroke-opacity:1;stroke-dasharray:none" /><g
             transform="scale(10,10)"
             id="g3239"><text
               transform="matrix(1,0,0,-0.90697189,31.2988,3.13906)"
               id="text3241"><tspan
                 x="0 3.4699202"
                 y="0"
                 id="tspan3243"
                 style="font-size:7.19543791px;font-variant:normal;font-weight:normal;writing-mode:lr-tb;fill:#211c1d;fill-opacity:1;fill-rule:nonzero;stroke:none;font-family:Helvetica;-inkscape-font-specification:Helvetica">11</tspan></text>
</g><path
             d="m 310.359,1283.14 91.0781,0 0,48.9375 -91.0781,0 0,-48.9375 z"
             id="path3245"
             style="fill:#211c1d;fill-opacity:1;fill-rule:nonzero;stroke:none" /><path
             d="m 310.359,1125.42 91.0781,0 0,45.3164 -91.0781,0 0,-45.3164 z"
             id="path3247"
             style="fill:#211c1d;fill-opacity:1;fill-rule:nonzero;stroke:none" /><path
             d="m 310.359,884.309 91.0781,0 0,25.3867 -91.0781,0 0,-25.3867 z"
             id="path3249"
             style="fill:#e9eae9;fill-opacity:1;fill-rule:nonzero;stroke:none" /><path
             d="m 310.359,884.309 91.0781,0 0,25.3867 -91.0781,0 0,-25.3867 z"
             id="path3251"
             style="fill:none;stroke:#211c1d;stroke-width:0.62;stroke-linecap:butt;stroke-linejoin:miter;stroke-miterlimit:4;stroke-opacity:1;stroke-dasharray:none" /><path
             d="m 310.359,791.863 91.0781,0 0,29.0039 -91.0781,0 0,-29.0039 z"
             id="path3253"
             style="fill:#e9eae9;fill-opacity:1;fill-rule:nonzero;stroke:none" /><path
             d="m 310.359,791.863 91.0781,0 0,29.0039 -91.0781,0 0,-29.0039 z"
             id="path3255"
             style="fill:none;stroke:#211c1d;stroke-width:0.62;stroke-linecap:butt;stroke-linejoin:miter;stroke-miterlimit:4;stroke-opacity:1;stroke-dasharray:none" /><path
             d="m 310.359,617.836 91.0781,0 0,47.1289 -91.0781,0 0,-47.1289 z"
             id="path3257"
             style="fill:#211c1d;fill-opacity:1;fill-rule:nonzero;stroke:none" /><path
             d="m 310.359,556.18 91.0781,0 0,43.5195 -91.0781,0 0,-43.5195 z"
             id="path3259"
             style="fill:#211c1d;fill-opacity:1;fill-rule:nonzero;stroke:none" /><path
             d="m 310.359,472.801 91.0781,0 0,43.5078 -91.0781,0 0,-43.5078 z"
             id="path3261"
             style="fill:#211c1d;fill-opacity:1;fill-rule:nonzero;stroke:none" /><path
             d="m 310.359,403.91 91.0781,0 0,47.1406 -91.0781,0 0,-47.1406 z"
             id="path3263"
             style="fill:#211c1d;fill-opacity:1;fill-rule:nonzero;stroke:none" /><path
             d="m 310.359,1471.67 91.0781,0 0,41.6992 -91.0781,0 0,-41.6992 z"
             id="path3265"
             style="fill:#bbbcbd;fill-opacity:1;fill-rule:nonzero;stroke:none" /><path
             d="m 310.359,1471.67 91.0781,0 0,41.6992 -91.0781,0 0,-41.6992 z"
             id="path3267"
             style="fill:none;stroke:#211c1d;stroke-width:0.62;stroke-linecap:butt;stroke-linejoin:miter;stroke-miterlimit:4;stroke-opacity:1;stroke-dasharray:none" /><path
             d="m 310.359,1386.47 91.0781,0 0,36.2461 -91.0781,0 0,-36.2461 z"
             id="path3269"
             style="fill:#bbbcbd;fill-opacity:1;fill-rule:nonzero;stroke:none" /><path
             d="m 310.359,1386.47 91.0781,0 0,36.2461 -91.0781,0 0,-36.2461 z"
             id="path3271"
             style="fill:none;stroke:#211c1d;stroke-width:0.62;stroke-linecap:butt;stroke-linejoin:miter;stroke-miterlimit:4;stroke-opacity:1;stroke-dasharray:none" /><path
             d="m 310.359,701.223 91.0781,0 0,32.6289 -91.0781,0 0,-32.6289 z"
             id="path3273"
             style="fill:#bbbcbd;fill-opacity:1;fill-rule:nonzero;stroke:none" /><path
             d="m 310.359,701.223 91.0781,0 0,32.6289 -91.0781,0 0,-32.6289 z"
             id="path3275"
             style="fill:none;stroke:#211c1d;stroke-width:0.62;stroke-linecap:butt;stroke-linejoin:miter;stroke-miterlimit:4;stroke-opacity:1;stroke-dasharray:none" /><path
             d="m 310.359,335.031 91.0781,0 0,32.6172 -91.0781,0 0,-32.6172 z"
             id="path3277"
             style="fill:#bbbcbd;fill-opacity:1;fill-rule:nonzero;stroke:none" /><path
             d="m 310.359,335.031 91.0781,0 0,32.6172 -91.0781,0 0,-32.6172 z"
             id="path3279"
             style="fill:none;stroke:#211c1d;stroke-width:0.62;stroke-linecap:butt;stroke-linejoin:miter;stroke-miterlimit:4;stroke-opacity:1;stroke-dasharray:none" /><path
             d="m 310.359,219.031 91.0781,0 0,28.9805 -91.0781,0 0,-28.9805 z"
             id="path3281"
             style="fill:#bbbcbd;fill-opacity:1;fill-rule:nonzero;stroke:none" /><path
             d="m 310.359,219.031 91.0781,0 0,28.9805 -91.0781,0 0,-28.9805 z"
             id="path3283"
             style="fill:none;stroke:#211c1d;stroke-width:0.62;stroke-linecap:butt;stroke-linejoin:miter;stroke-miterlimit:4;stroke-opacity:1;stroke-dasharray:none" /><path
             d="m 310.359,150.121 91.0781,0 0,32.6406 -91.0781,0 0,-32.6406 z"
             id="path3285"
             style="fill:#bbbcbd;fill-opacity:1;fill-rule:nonzero;stroke:none" /><path
             d="m 310.359,150.121 91.0781,0 0,32.6406 -91.0781,0 0,-32.6406 z"
             id="path3287"
             style="fill:none;stroke:#211c1d;stroke-width:0.62;stroke-linecap:butt;stroke-linejoin:miter;stroke-miterlimit:4;stroke-opacity:1;stroke-dasharray:none" /><path
             d="m 333.965,1005.32 c -14.016,-7.254 -23.516,-19.906 -23.516,-27.644 l 0,-856.535 c 0,-11.332 20.363,-20.532 45.449,-20.532 25.118,0 45.457,9.2 45.457,20.532 l 0,856.535 c 0,7.719 -9.429,20.39 -23.375,27.644 13.946,7.25 23.375,19.93 23.375,27.64 l 0,503.97 c 0,11.32 -20.339,20.5 -45.457,20.5 -25.086,0 -45.449,-9.18 -45.449,-20.5 l 0,-503.97 c 0,-7.73 9.5,-20.4 23.516,-27.64 z"
             id="path3289"
             style="fill:none;stroke:#211c1d;stroke-width:5;stroke-linecap:butt;stroke-linejoin:miter;stroke-miterlimit:4;stroke-opacity:1;stroke-dasharray:none" /><path
             d="M 330.801,1005.03 0,1005.03"
             id="path3291"
             style="fill:none;stroke:#231f20;stroke-width:5;stroke-linecap:butt;stroke-linejoin:miter;stroke-miterlimit:4;stroke-opacity:1;stroke-dasharray:none" /><g
             transform="scale(10,10)"
             id="g3293"><text
               transform="matrix(1,0,0,-0.90698012,25.5789,119.263)"
               id="text3295"><tspan
                 x="0 2.0009789"
                 y="0"
                 id="tspan3297"
                 style="font-size:3.59771943px;font-variant:normal;font-weight:normal;writing-mode:lr-tb;fill:#231f20;fill-opacity:1;fill-rule:nonzero;stroke:none;font-family:Helvetica;-inkscape-font-specification:Helvetica">13</tspan><tspan
                 x="0 2.0009789"
                 y="6.393558"
                 id="tspan3299"
                 style="font-size:3.59771943px;font-variant:normal;font-weight:normal;writing-mode:lr-tb;fill:#231f20;fill-opacity:1;fill-rule:nonzero;stroke:none;font-family:Helvetica;-inkscape-font-specification:Helvetica">12</tspan><tspan
                 x="-2.7351537 -0.99980414 1.0011779 2.001344"
                 y="11.391683"
                 id="tspan3301"
                 style="font-size:3.59771943px;font-variant:normal;font-weight:normal;writing-mode:lr-tb;fill:#231f20;fill-opacity:1;fill-rule:nonzero;stroke:none;font-family:Helvetica;-inkscape-font-specification:Helvetica">11.2</tspan><tspan
                 x="-4.7351532 -2.9998038 -0.99882489 0.00134111 2.0023232"
                 y="16.686981"
                 id="tspan3303"
                 style="font-size:3.59771943px;font-variant:normal;font-weight:normal;writing-mode:lr-tb;fill:#231f20;fill-opacity:1;fill-rule:nonzero;stroke:none;font-family:Helvetica;-inkscape-font-specification:Helvetica">11.12</tspan><tspan
                 x="-4.4703097 -2.7349601 -0.73398113 0.26618484 2.0015326"
                 y="20.083815"
                 id="tspan3305"
                 style="font-size:3.59771943px;font-variant:normal;font-weight:normal;writing-mode:lr-tb;fill:#231f20;fill-opacity:1;fill-rule:nonzero;stroke:none;font-family:Helvetica;-inkscape-font-specification:Helvetica">11.11</tspan><tspan
                 x="0.26562655 2.0009742"
                 y="23.882475"
                 id="tspan3307"
                 style="font-size:3.59771943px;font-variant:normal;font-weight:normal;writing-mode:lr-tb;fill:#231f20;fill-opacity:1;fill-rule:nonzero;stroke:none;font-family:Helvetica;-inkscape-font-specification:Helvetica">11</tspan><tspan
                 x="-3.0000019 -0.99966979 1.0006622 2.0008283"
                 y="27.380953"
                 id="tspan3309"
                 style="font-size:3.59771943px;font-variant:normal;font-weight:normal;writing-mode:lr-tb;fill:#231f20;fill-opacity:1;fill-rule:nonzero;stroke:none;font-family:Helvetica;-inkscape-font-specification:Helvetica">12.1</tspan><tspan
                 x="-3.0000019 -0.99966979 1.0006622 2.0008283"
                 y="33.976929"
                 id="tspan3311"
                 style="font-size:3.59771943px;font-variant:normal;font-weight:normal;writing-mode:lr-tb;fill:#231f20;fill-opacity:1;fill-rule:nonzero;stroke:none;font-family:Helvetica;-inkscape-font-specification:Helvetica">12.3</tspan><tspan
                 x="-2.21e-06 2.0009768"
                 y="118.42266"
                 id="tspan3313"
                 style="font-size:3.59771943px;font-variant:normal;font-weight:normal;writing-mode:lr-tb;fill:#231f20;fill-opacity:1;fill-rule:nonzero;stroke:none;font-family:Helvetica;-inkscape-font-specification:Helvetica">25</tspan><tspan
                 x="-3.0000019 -0.99966979 1.0006622 2.0008283"
                 y="-36.178303"
                 id="tspan3315"
                 style="font-size:3.59771943px;font-variant:normal;font-weight:normal;writing-mode:lr-tb;fill:#231f20;fill-opacity:1;fill-rule:nonzero;stroke:none;font-family:Helvetica;-inkscape-font-specification:Helvetica">15.5</tspan><tspan
                 x="-3.0000019 -0.99966979 1.0006622 2.0008283"
                 y="-31.780983"
                 id="tspan3317"
                 style="font-size:3.59771943px;font-variant:normal;font-weight:normal;writing-mode:lr-tb;fill:#231f20;fill-opacity:1;fill-rule:nonzero;stroke:none;font-family:Helvetica;-inkscape-font-specification:Helvetica">15.4</tspan><tspan
                 x="-3.0000019 -0.99966979 1.0006622 2.0008283"
                 y="-26.58474"
                 id="tspan3319"
                 style="font-size:3.59771943px;font-variant:normal;font-weight:normal;writing-mode:lr-tb;fill:#231f20;fill-opacity:1;fill-rule:nonzero;stroke:none;font-family:Helvetica;-inkscape-font-specification:Helvetica">15.3</tspan><tspan
                 x="-3.0000019 -0.99966979 1.0006622 2.0008283"
                 y="-22.188711"
                 id="tspan3321"
                 style="font-size:3.59771943px;font-variant:normal;font-weight:normal;writing-mode:lr-tb;fill:#231f20;fill-opacity:1;fill-rule:nonzero;stroke:none;font-family:Helvetica;-inkscape-font-specification:Helvetica">15.2</tspan><tspan
                 x="-3.0000019 -0.99966979 1.0006622 2.0008283"
                 y="-17.191446"
                 id="tspan3323"
                 style="font-size:3.59771943px;font-variant:normal;font-weight:normal;writing-mode:lr-tb;fill:#231f20;fill-opacity:1;fill-rule:nonzero;stroke:none;font-family:Helvetica;-inkscape-font-specification:Helvetica">15.1</tspan><tspan
                 x="-3.0000019 -0.99966979 1.0006622 2.0008283"
                 y="-11.393535"
                 id="tspan3325"
                 style="font-size:3.59771943px;font-variant:normal;font-weight:normal;writing-mode:lr-tb;fill:#231f20;fill-opacity:1;fill-rule:nonzero;stroke:none;font-family:Helvetica;-inkscape-font-specification:Helvetica">14.3</tspan><tspan
                 x="-3.0000019 -0.99966979 1.0006622 2.0008283"
                 y="-5.4005151"
                 id="tspan3327"
                 style="font-size:3.59771943px;font-variant:normal;font-weight:normal;writing-mode:lr-tb;fill:#231f20;fill-opacity:1;fill-rule:nonzero;stroke:none;font-family:Helvetica;-inkscape-font-specification:Helvetica">14.1</tspan><tspan
                 x="-12.793756 -10.793424 -8.7930918 -7.7929258"
                 y="-8.3980999"
                 id="tspan3329"
                 style="font-size:3.59771943px;font-variant:normal;font-weight:normal;writing-mode:lr-tb;fill:#231f20;fill-opacity:1;fill-rule:nonzero;stroke:none;font-family:Helvetica;-inkscape-font-specification:Helvetica">14.2</tspan></text>
</g><path
             d="m 202.871,1278.76 110.93,0"
             id="path3331"
             style="fill:none;stroke:#231f20;stroke-width:1.82598996;stroke-linecap:butt;stroke-linejoin:miter;stroke-miterlimit:4;stroke-opacity:1;stroke-dasharray:none" /><g
             transform="scale(10,10)"
             id="g3333"><text
               transform="matrix(1,0,0,-0.90698012,22.5789,91.1672)"
               id="text3335"><tspan
                 x="0 2.0003321 4.0006642 5.0008302"
                 y="0"
                 id="tspan3337"
                 style="font-size:3.59771943px;font-variant:normal;font-weight:normal;writing-mode:lr-tb;fill:#231f20;fill-opacity:1;fill-rule:nonzero;stroke:none;font-family:Helvetica;-inkscape-font-specification:Helvetica">12.2</tspan><tspan
                 x="0 2.0003321 4.0006642 5.0008302"
                 y="7.9978709"
                 id="tspan3339"
                 style="font-size:3.59771943px;font-variant:normal;font-weight:normal;writing-mode:lr-tb;fill:#231f20;fill-opacity:1;fill-rule:nonzero;stroke:none;font-family:Helvetica;-inkscape-font-specification:Helvetica">13.1</tspan><tspan
                 x="0 2.0003321 4.0006642 5.0008302"
                 y="12.993846"
                 id="tspan3341"
                 style="font-size:3.59771943px;font-variant:normal;font-weight:normal;writing-mode:lr-tb;fill:#231f20;fill-opacity:1;fill-rule:nonzero;stroke:none;font-family:Helvetica;-inkscape-font-specification:Helvetica">13.2</tspan><tspan
                 x="0 2.0003321 4.0006642 5.0008302"
                 y="17.789553"
                 id="tspan3343"
                 style="font-size:3.59771943px;font-variant:normal;font-weight:normal;writing-mode:lr-tb;fill:#231f20;fill-opacity:1;fill-rule:nonzero;stroke:none;font-family:Helvetica;-inkscape-font-specification:Helvetica">13.3</tspan><tspan
                 x="0 2.0003321 4.0006642 5.0008302"
                 y="22.786386"
                 id="tspan3345"
                 style="font-size:3.59771943px;font-variant:normal;font-weight:normal;writing-mode:lr-tb;fill:#231f20;fill-opacity:1;fill-rule:nonzero;stroke:none;font-family:Helvetica;-inkscape-font-specification:Helvetica">13.4</tspan><tspan
                 x="0 2.0003321 4.0006642 5.0008302"
                 y="26.784456"
                 id="tspan3347"
                 style="font-size:3.59771943px;font-variant:normal;font-weight:normal;writing-mode:lr-tb;fill:#231f20;fill-opacity:1;fill-rule:nonzero;stroke:none;font-family:Helvetica;-inkscape-font-specification:Helvetica">13.5</tspan><tspan
                 x="0 2.0003321 4.0006642 5.0008302"
                 y="31.182634"
                 id="tspan3349"
                 style="font-size:3.59771943px;font-variant:normal;font-weight:normal;writing-mode:lr-tb;fill:#231f20;fill-opacity:1;fill-rule:nonzero;stroke:none;font-family:Helvetica;-inkscape-font-specification:Helvetica">14.1</tspan><tspan
                 x="0 2.0003321 4.0006642 5.0008302"
                 y="38.176998"
                 id="tspan3351"
                 style="font-size:3.59771943px;font-variant:normal;font-weight:normal;writing-mode:lr-tb;fill:#231f20;fill-opacity:1;fill-rule:nonzero;stroke:none;font-family:Helvetica;-inkscape-font-specification:Helvetica">14.3</tspan><tspan
                 x="0 2.0003321 4.0006642 5.0008302"
                 y="34.780167"
                 id="tspan3353"
                 style="font-size:3.59771943px;font-variant:normal;font-weight:normal;writing-mode:lr-tb;fill:#231f20;fill-opacity:1;fill-rule:nonzero;stroke:none;font-family:Helvetica;-inkscape-font-specification:Helvetica">14.2</tspan><tspan
                 x="2.9999995 5.0009785"
                 y="42.774158"
                 id="tspan3355"
                 style="font-size:3.59771943px;font-variant:normal;font-weight:normal;writing-mode:lr-tb;fill:#231f20;fill-opacity:1;fill-rule:nonzero;stroke:none;font-family:Helvetica;-inkscape-font-specification:Helvetica">21</tspan><tspan
                 x="0 2.0003321 4.0006642 5.0008302"
                 y="47.370453"
                 id="tspan3357"
                 style="font-size:3.59771943px;font-variant:normal;font-weight:normal;writing-mode:lr-tb;fill:#231f20;fill-opacity:1;fill-rule:nonzero;stroke:none;font-family:Helvetica;-inkscape-font-specification:Helvetica">22.1</tspan><tspan
                 x="0 2.0003321 4.0006642 5.0008302"
                 y="50.768578"
                 id="tspan3359"
                 style="font-size:3.59771943px;font-variant:normal;font-weight:normal;writing-mode:lr-tb;fill:#231f20;fill-opacity:1;fill-rule:nonzero;stroke:none;font-family:Helvetica;-inkscape-font-specification:Helvetica">22.2</tspan><tspan
                 x="0 2.0003321 4.0006642 5.0008302"
                 y="54.768799"
                 id="tspan3361"
                 style="font-size:3.59771943px;font-variant:normal;font-weight:normal;writing-mode:lr-tb;fill:#231f20;fill-opacity:1;fill-rule:nonzero;stroke:none;font-family:Helvetica;-inkscape-font-specification:Helvetica">22.3</tspan><tspan
                 x="0 2.0003321 4.0006642 5.0008302"
                 y="59.164825"
                 id="tspan3363"
                 style="font-size:3.59771943px;font-variant:normal;font-weight:normal;writing-mode:lr-tb;fill:#231f20;fill-opacity:1;fill-rule:nonzero;stroke:none;font-family:Helvetica;-inkscape-font-specification:Helvetica">23.1</tspan><tspan
                 x="0 2.0003321 4.0006642 5.0008302"
                 y="63.161606"
                 id="tspan3365"
                 style="font-size:3.59771943px;font-variant:normal;font-weight:normal;writing-mode:lr-tb;fill:#231f20;fill-opacity:1;fill-rule:nonzero;stroke:none;font-family:Helvetica;-inkscape-font-specification:Helvetica">23.2</tspan><tspan
                 x="0 2.0003321 4.0006642 5.0008302"
                 y="69.357903"
                 id="tspan3367"
                 style="font-size:3.59771943px;font-variant:normal;font-weight:normal;writing-mode:lr-tb;fill:#231f20;fill-opacity:1;fill-rule:nonzero;stroke:none;font-family:Helvetica;-inkscape-font-specification:Helvetica">23.3</tspan><tspan
                 x="0 2.0003321 4.0006642 5.0008302"
                 y="75.953453"
                 id="tspan3369"
                 style="font-size:3.59771943px;font-variant:normal;font-weight:normal;writing-mode:lr-tb;fill:#231f20;fill-opacity:1;fill-rule:nonzero;stroke:none;font-family:Helvetica;-inkscape-font-specification:Helvetica">24.1</tspan><tspan
                 x="0 2.0003321 4.0006642 5.0008302"
                 y="79.55098"
                 id="tspan3371"
                 style="font-size:3.59771943px;font-variant:normal;font-weight:normal;writing-mode:lr-tb;fill:#231f20;fill-opacity:1;fill-rule:nonzero;stroke:none;font-family:Helvetica;-inkscape-font-specification:Helvetica">24.2</tspan><tspan
                 x="0 2.0003321 4.0006642 5.0008302"
                 y="83.347061"
                 id="tspan3373"
                 style="font-size:3.59771943px;font-variant:normal;font-weight:normal;writing-mode:lr-tb;fill:#231f20;fill-opacity:1;fill-rule:nonzero;stroke:none;font-family:Helvetica;-inkscape-font-specification:Helvetica">24.3</tspan></text>
</g></g></g></g></g></svg>