<?xml version="1.0" encoding="UTF-8"?>
<svg xmlns:xlink="http://www.w3.org/1999/xlink" xmlns="http://www.w3.org/2000/svg" contentScriptType="text/ecmascript" zoomAndPan="magnify" contentStyleType="text/css" preserveAspectRatio="xMidYMid meet" version="1.0">
<g id="chromosome11">
<path style="fill:#a4bdc8;fill-opacity:1;fill-rule:nonzero;stroke:none" d="m 50.16937500000001,173.69462500000003 0.0,-0.33887500000000004 c 0.0,-0.965875 -1.178625,-2.55025 -2.921875,-3.457 1.7432500000000002,-0.9062500000000001 2.921875,-2.49125 2.921875,-3.4562500000000003 l -11.36325,-0.0 c 0.0,0.96875 1.1875,2.55125 2.9395,3.4562500000000003 -1.7520000000000002,0.9067500000000001 -2.9395,2.48775 -2.9395,3.457 l 0.0,0.33887500000000004 11.36325,0.0 " id="centromere11-f"/>
<path style="fill:none;stroke:#100f0d;stroke-width:0.8;stroke-linecap:butt;stroke-linejoin:miter;stroke-miterlimit:4;stroke-opacity:1;stroke-dasharray:none" d="m 50.16937500000001,173.69462500000003 0.0,-0.33887500000000004 c 0.0,-0.965875 -1.178625,-2.55025 -2.921875,-3.457 1.7432500000000002,-0.9062500000000001 2.921875,-2.49125 2.921875,-3.4562500000000003 l -11.36325,-0.0 c 0.0,0.96875 1.1875,2.55125 2.9395,3.4562500000000003 -1.7520000000000002,0.9067500000000001 -2.9395,2.48775 -2.9395,3.457 l 0.0,0.33887500000000004 11.36325,0.0 z " id="centromere11-o"/>
<path style="fill:#7a7e82;fill-opacity:1;fill-rule:nonzero;stroke:none" d="m 38.794875,178.67950000000002 11.3847625,0.0 0.0,-4.986325000000001 -11.3847625,-0.0 0.0,4.986325000000001 z " id="path3223"/>
<path style="fill:none;stroke:#211c1d;stroke-width:0.1;stroke-linecap:butt;stroke-linejoin:miter;stroke-miterlimit:4;stroke-opacity:1;stroke-dasharray:none" d="m 38.794875,178.67950000000002 11.3847625,0.0 0.0,-4.986325000000001 -11.3847625,-0.0 0.0,4.986325000000001 z " id="path3225"/>
<path style="fill:#7a7e82;fill-opacity:1;fill-rule:nonzero;stroke:none" d="m 38.794875,166.4425 11.3847625,0.0 0.0,-4.984375 -11.3847625,-0.0 0.0,4.984375 z " id="path3227"/>
<path style="fill:none;stroke:#211c1d;stroke-width:0.1;stroke-linecap:butt;stroke-linejoin:miter;stroke-miterlimit:4;stroke-opacity:1;stroke-dasharray:none" d="m 38.794875,166.4425 11.3847625,0.0 0.0,-4.984375 -11.3847625,-0.0 0.0,4.984375 z " id="path3229"/>
<path style="fill:#7a7e82;fill-opacity:1;fill-rule:nonzero;stroke:none" d="m 38.794875,141.29000000000002 11.3847625,0.0 0.0,-5.2109375 -11.3847625,-0.0 0.0,5.2109375 z " id="path3231"/>
<path style="fill:none;stroke:#211c1d;stroke-width:0.1;stroke-linecap:butt;stroke-linejoin:miter;stroke-miterlimit:4;stroke-opacity:1;stroke-dasharray:none" d="m 38.794875,141.29000000000002 11.3847625,0.0 0.0,-5.2109375 -11.3847625,-0.0 0.0,5.2109375 z " id="path3233"/>
<path style="fill:#211c1d;fill-opacity:1;fill-rule:nonzero;stroke:none" d="m 38.794875,135.17125 11.3847625,0.0 0.0,-6.117187500000001 -11.3847625,-0.0 0.0,6.117187500000001 z " id="path3245"/>
<path style="fill:#211c1d;fill-opacity:1;fill-rule:nonzero;stroke:none" d="m 38.794875,154.88625000000002 11.3847625,0.0 0.0,-5.66455 -11.3847625,-0.0 0.0,5.66455 z " id="path3247"/>
<path style="fill:#e9eae9;fill-opacity:1;fill-rule:nonzero;stroke:none" d="m 38.794875,185.025125 11.3847625,0.0 0.0,-3.1733375 -11.3847625,-0.0 0.0,3.1733375 z " id="path3249"/>
<path style="fill:none;stroke:#211c1d;stroke-width:0.1;stroke-linecap:butt;stroke-linejoin:miter;stroke-miterlimit:4;stroke-opacity:1;stroke-dasharray:none" d="m 38.794875,185.025125 11.3847625,0.0 0.0,-3.1733375 -11.3847625,-0.0 0.0,3.1733375 z " id="path3251"/>
<path style="fill:#e9eae9;fill-opacity:1;fill-rule:nonzero;stroke:none" d="m 38.794875,196.580875 11.3847625,0.0 0.0,-3.6254875 -11.3847625,-0.0 0.0,3.6254875 z " id="path3253"/>
<path style="fill:none;stroke:#211c1d;stroke-width:0.1;stroke-linecap:butt;stroke-linejoin:miter;stroke-miterlimit:4;stroke-opacity:1;stroke-dasharray:none" d="m 38.794875,196.580875 11.3847625,0.0 0.0,-3.6254875 -11.3847625,-0.0 0.0,3.6254875 z " id="path3255"/>
<path style="fill:#211c1d;fill-opacity:1;fill-rule:nonzero;stroke:none" d="m 38.794875,218.33425 11.3847625,0.0 0.0,-5.891112500000001 -11.3847625,-0.0 0.0,5.891112500000001 z " id="path3257"/>
<path style="fill:#211c1d;fill-opacity:1;fill-rule:nonzero;stroke:none" d="m 38.794875,226.04125000000002 11.3847625,0.0 0.0,-5.439937500000001 -11.3847625,-0.0 0.0,5.439937500000001 z " id="path3259"/>
<path style="fill:#211c1d;fill-opacity:1;fill-rule:nonzero;stroke:none" d="m 38.794875,236.46362500000004 11.3847625,0.0 0.0,-5.438475 -11.3847625,-0.0 0.0,5.438475 z " id="path3261"/>
<path style="fill:#211c1d;fill-opacity:1;fill-rule:nonzero;stroke:none" d="m 38.794875,245.075 11.3847625,0.0 0.0,-5.892575 -11.3847625,-0.0 0.0,5.892575 z " id="path3263"/>
<path style="fill:#bbbcbd;fill-opacity:1;fill-rule:nonzero;stroke:none" d="m 38.794875,111.605 11.3847625,0.0 0.0,-5.212400000000001 -11.3847625,-0.0 0.0,5.212400000000001 z " id="path3265"/>
<path style="fill:none;stroke:#211c1d;stroke-width:0.1;stroke-linecap:butt;stroke-linejoin:miter;stroke-miterlimit:4;stroke-opacity:1;stroke-dasharray:none" d="m 38.794875,111.605 11.3847625,0.0 0.0,-5.212400000000001 -11.3847625,-0.0 0.0,5.212400000000001 z " id="path3267"/>
<path style="fill:#bbbcbd;fill-opacity:1;fill-rule:nonzero;stroke:none" d="m 38.794875,122.25499999999998 11.3847625,0.0 0.0,-4.5307625 -11.3847625,-0.0 0.0,4.5307625 z " id="path3269"/>
<path style="fill:none;stroke:#211c1d;stroke-width:0.1;stroke-linecap:butt;stroke-linejoin:miter;stroke-miterlimit:4;stroke-opacity:1;stroke-dasharray:none" d="m 38.794875,122.25499999999998 11.3847625,0.0 0.0,-4.5307625 -11.3847625,-0.0 0.0,4.5307625 z " id="path3271"/>
<path style="fill:#bbbcbd;fill-opacity:1;fill-rule:nonzero;stroke:none" d="m 38.794875,207.91087500000003 11.3847625,0.0 0.0,-4.0786125 -11.3847625,-0.0 0.0,4.0786125 z " id="path3273"/>
<path style="fill:none;stroke:#211c1d;stroke-width:0.1;stroke-linecap:butt;stroke-linejoin:miter;stroke-miterlimit:4;stroke-opacity:1;stroke-dasharray:none" d="m 38.794875,207.91087500000003 11.3847625,0.0 0.0,-4.0786125 -11.3847625,-0.0 0.0,4.0786125 z " id="path3275"/>
<path style="fill:#bbbcbd;fill-opacity:1;fill-rule:nonzero;stroke:none" d="m 38.794875,253.68487500000003 11.3847625,0.0 0.0,-4.07715 -11.3847625,-0.0 0.0,4.07715 z " id="path3277"/>
<path style="fill:none;stroke:#211c1d;stroke-width:0.1;stroke-linecap:butt;stroke-linejoin:miter;stroke-miterlimit:4;stroke-opacity:1;stroke-dasharray:none" d="m 38.794875,253.68487500000003 11.3847625,0.0 0.0,-4.07715 -11.3847625,-0.0 0.0,4.07715 z " id="path3279"/>
<path style="fill:#bbbcbd;fill-opacity:1;fill-rule:nonzero;stroke:none" d="m 38.794875,268.18487500000003 11.3847625,0.0 0.0,-3.6225625 -11.3847625,-0.0 0.0,3.6225625 z " id="path3281"/>
<path style="fill:none;stroke:#211c1d;stroke-width:0.1;stroke-linecap:butt;stroke-linejoin:miter;stroke-miterlimit:4;stroke-opacity:1;stroke-dasharray:none" d="m 38.794875,268.18487500000003 11.3847625,0.0 0.0,-3.6225625 -11.3847625,-0.0 0.0,3.6225625 z " id="path3283"/>
<path style="fill:#bbbcbd;fill-opacity:1;fill-rule:nonzero;stroke:none" d="m 38.794875,276.798625 11.3847625,0.0 0.0,-4.080075 -11.3847625,-0.0 0.0,4.080075 z " id="path3285"/>
<path style="fill:none;stroke:#211c1d;stroke-width:0.1;stroke-linecap:butt;stroke-linejoin:miter;stroke-miterlimit:4;stroke-opacity:1;stroke-dasharray:none" d="m 38.794875,276.798625 11.3847625,0.0 0.0,-4.080075 -11.3847625,-0.0 0.0,4.080075 z " id="path3287"/>
<path style="fill:none;stroke:#211c1d;stroke-width:0.8;stroke-linecap:butt;stroke-linejoin:miter;stroke-miterlimit:4;stroke-opacity:1;stroke-dasharray:none" d="m 41.745625,169.89875 c -1.7520000000000002,0.9067500000000001 -2.9395,2.48825 -2.9395,3.4555000000000002 l 0.0,107.06687500000001 c 0.0,1.4165000000000003 2.5453750000000004,2.5665 5.681125,2.5665 3.1397500000000003,0.0 5.682125,-1.15 5.682125,-2.5665 l 0.0,-107.06687500000001 c 0.0,-0.964875 -1.178625,-2.54875 -2.921875,-3.4555000000000002 1.7432500000000002,-0.9062500000000001 2.921875,-2.49125 2.921875,-3.455 l 0.0,-62.99625 c 0.0,-1.415 -2.542375,-2.5625000000000004 -5.682125,-2.5625000000000004 -3.13575,-0.0 -5.681125,1.1475 -5.681125,2.5625000000000004 l 0.0,62.99625 c 0.0,0.9662500000000002 1.1875,2.55 2.9395,3.455 z " id="outline11"/>
<path style="fill:none;stroke:#231f20;stroke-width:0.8;stroke-linecap:butt;stroke-linejoin:miter;stroke-miterlimit:4;stroke-opacity:1;stroke-dasharray:none;display:none" d="M 41.350125000000006,169.935 0.0,169.935 " id="centre11"/>
<text>
<tspan x="39.1235 43.460900249999995" y="291.639925" id="label11" style="font-size:7.19543791px;font-variant:normal;font-weight:normal;writing-mode:lr-tb;fill:#211c1d;fill-opacity:1;fill-rule:nonzero;stroke:none;font-family:Helvetica;-inkscape-font-specification:Helvetica">11</tspan>
</text>
</g>
</svg>
