<?xml version="1.0" encoding="UTF-8"?>
<svg xmlns:xlink="http://www.w3.org/1999/xlink" xmlns="http://www.w3.org/2000/svg" contentScriptType="text/ecmascript" zoomAndPan="magnify" contentStyleType="text/css" preserveAspectRatio="xMidYMid meet" version="1.0">
<g>
<path style="fill:#a4bdc8;fill-opacity:1;fill-rule:nonzero;stroke:none" d="m 45.004875,41.526375 0.33937500000000004,0.975125 c 0.0,-0.8721250000000002 -1.066875,-2.30575 -2.6416250000000003,-3.1265000000000005 1.5747500000000003,-0.8207500000000001 2.6416250000000003,-2.253875 2.6416250000000003,-3.1255000000000006 l -0.5655,1.17725 -9.202625,-0.0 -0.50925,-1.17725 c 0.0,0.8750000000000001 1.07475,2.305625 2.660125,3.1255000000000006 -1.585375,0.8183750000000001 -2.660125,2.2505 -2.660125,3.1265000000000005 l 0.3360000000000001,-0.975125 9.602,0.0 " id="path3387"/>
<path style="fill:none;stroke:#100f0d;stroke-width:0.8;stroke-linecap:butt;stroke-linejoin:miter;stroke-miterlimit:4;stroke-opacity:1;stroke-dasharray:none" d="m 45.004875,41.526375 0.33937500000000004,0.975125 c 0.0,-0.8721250000000002 -1.066875,-2.30575 -2.6416250000000003,-3.1265000000000005 1.5747500000000003,-0.8207500000000001 2.6416250000000003,-2.253875 2.6416250000000003,-3.1255000000000006 l -0.5655,1.17725 -9.202625,-0.0 -0.50925,-1.17725 c 0.0,0.8750000000000001 1.07475,2.305625 2.660125,3.1255000000000006 -1.585375,0.8183750000000001 -2.660125,2.2505 -2.660125,3.1265000000000005 l 0.3360000000000001,-0.975125 9.602,0.0 z " id="path3389"/>
<path style="fill:#211c1d;fill-opacity:1;fill-rule:nonzero;stroke:none" d="m 35.057625,50.18799999999999 10.2963875,0.0 0.0,-8.506350000000001 -10.2963875,-0.0 0.0,8.506350000000001 z " id="path3397"/>
<path style="fill:#211c1d;fill-opacity:1;fill-rule:nonzero;stroke:none" d="m 35.057625,23.4375 10.2963875,0.0 0.0,-5.53515 -10.2963875,-0.0 0.0,5.53515 z " id="path3399"/>
<path style="fill:#211c1d;fill-opacity:1;fill-rule:nonzero;stroke:none" d="m 35.057625,28.764999999999986 10.2963875,0.0 0.0,-4.4067375 -10.2963875,-0.0 0.0,4.4067375 z " id="path3401"/>
<path style="fill:#211c1d;fill-opacity:1;fill-rule:nonzero;stroke:none" d="m 35.057625,94.462875 10.2963875,0.0 0.0,-6.047362500000001 -10.2963875,-0.0 0.0,6.047362500000001 z " id="path3403"/>
<path style="fill:#211c1d;fill-opacity:1;fill-rule:nonzero;stroke:none" d="m 35.057625,100.0 10.2963875,0.0 0.0,-4.6142625 -10.2963875,-0.0 0.0,4.6142625 z " id="path3405"/>
<path style="fill:#7a7e82;fill-opacity:1;fill-rule:nonzero;stroke:none" d="m 35.057625,15.852499999999992 10.2963875,0.0 0.0,-3.1767625000000006 -10.2963875,-0.0 0.0,3.1767625000000006 z " id="path3407"/>
<path style="fill:none;stroke:#211c1d;stroke-width:0.1;stroke-linecap:butt;stroke-linejoin:miter;stroke-miterlimit:4;stroke-opacity:1;stroke-dasharray:none" d="m 35.057625,15.852499999999992 10.2963875,0.0 0.0,-3.1767625000000006 -10.2963875,-0.0 0.0,3.1767625000000006 z " id="path3409"/>
<path style="fill:#7a7e82;fill-opacity:1;fill-rule:nonzero;stroke:none" d="m 35.057625,72.12212499999998 10.2963875,0.0 0.0,-4.1005875 -10.2963875,-0.0 0.0,4.1005875 z " id="path3411"/>
<path style="fill:none;stroke:#211c1d;stroke-width:0.1;stroke-linecap:butt;stroke-linejoin:miter;stroke-miterlimit:4;stroke-opacity:1;stroke-dasharray:none" d="m 35.057625,72.12212499999998 10.2963875,0.0 0.0,-4.1005875 -10.2963875,-0.0 0.0,4.1005875 z " id="path3413"/>
<path style="fill:#7a7e82;fill-opacity:1;fill-rule:nonzero;stroke:none" d="m 35.057625,86.059625 10.2963875,0.0 0.0,-4.509275 -10.2963875,-0.0 0.0,4.509275 z " id="path3415"/>
<path style="fill:none;stroke:#211c1d;stroke-width:0.1;stroke-linecap:butt;stroke-linejoin:miter;stroke-miterlimit:4;stroke-opacity:1;stroke-dasharray:none" d="m 35.057625,86.059625 10.2963875,0.0 0.0,-4.509275 -10.2963875,-0.0 0.0,4.509275 z " id="path3417"/>
<path style="fill:#7a7e82;fill-opacity:1;fill-rule:nonzero;stroke:none" d="m 35.057625,108.81587499999999 10.2963875,0.0 0.0,-4.7168 -10.2963875,-0.0 0.0,4.7168 z " id="path3419"/>
<path style="fill:none;stroke:#211c1d;stroke-width:0.1;stroke-linecap:butt;stroke-linejoin:miter;stroke-miterlimit:4;stroke-opacity:1;stroke-dasharray:none" d="m 35.057625,108.81587499999999 10.2963875,0.0 0.0,-4.7168 -10.2963875,-0.0 0.0,4.7168 z " id="path3421"/>
<path style="fill:#e9eae9;fill-opacity:1;fill-rule:nonzero;stroke:none" d="m 35.057625,55.723124999999996 10.2963875,0.0 0.0,-2.767575 -10.2963875,-0.0 0.0,2.767575 z " id="path3423"/>
<path style="fill:none;stroke:#211c1d;stroke-width:0.1;stroke-linecap:butt;stroke-linejoin:miter;stroke-miterlimit:4;stroke-opacity:1;stroke-dasharray:none" d="m 35.057625,55.723124999999996 10.2963875,0.0 0.0,-2.767575 -10.2963875,-0.0 0.0,2.767575 z " id="path3425"/>
<path style="fill:#e9eae9;fill-opacity:1;fill-rule:nonzero;stroke:none" d="m 35.057625,7.346249999999998 10.2963875,0.0 0.0,-2.869625 -10.2963875,-0.0 0.0,2.869625 z " id="path3427"/>
<path style="fill:none;stroke:#211c1d;stroke-width:0.1;stroke-linecap:butt;stroke-linejoin:miter;stroke-miterlimit:4;stroke-opacity:1;stroke-dasharray:none" d="m 35.057625,7.346249999999998 10.2963875,0.0 0.0,-2.869625 -10.2963875,-0.0 0.0,2.869625 z " id="path3429"/>
<path style="fill:#e9eae9;fill-opacity:1;fill-rule:nonzero;stroke:none" d="m 35.057625,65.869125 10.2963875,0.0 0.0,-3.2797875 -10.2963875,-0.0 0.0,3.2797875 z " id="path3431"/>
<path style="fill:none;stroke:#211c1d;stroke-width:0.1;stroke-linecap:butt;stroke-linejoin:miter;stroke-miterlimit:4;stroke-opacity:1;stroke-dasharray:none" d="m 35.057625,65.869125 10.2963875,0.0 0.0,-3.2797875 -10.2963875,-0.0 0.0,3.2797875 z " id="path3433"/>
<path style="fill:#e9eae9;fill-opacity:1;fill-rule:nonzero;stroke:none" d="m 35.057625,120.90825000000001 10.2963875,0.0 0.0,-2.1533250000000006 -10.2963875,-0.0 0.0,2.1533250000000006 z " id="path3435"/>
<path style="fill:none;stroke:#211c1d;stroke-width:0.1;stroke-linecap:butt;stroke-linejoin:miter;stroke-miterlimit:4;stroke-opacity:1;stroke-dasharray:none" d="m 35.057625,120.90825000000001 10.2963875,0.0 0.0,-2.1533250000000006 -10.2963875,-0.0 0.0,2.1533250000000006 z " id="path3437"/>
<path style="fill:#bbbcbd;fill-opacity:1;fill-rule:nonzero;stroke:none" d="m 35.057625,35.22312499999998 10.2963875,0.0 0.0,-2.8701125 -10.2963875,-0.0 0.0,2.8701125 z " id="path3439"/>
<path style="fill:none;stroke:#211c1d;stroke-width:0.1;stroke-linecap:butt;stroke-linejoin:miter;stroke-miterlimit:4;stroke-opacity:1;stroke-dasharray:none" d="m 35.057625,35.22312499999998 10.2963875,0.0 0.0,-2.8701125 -10.2963875,-0.0 0.0,2.8701125 z " id="path3441"/>
<path style="fill:#bbbcbd;fill-opacity:1;fill-rule:nonzero;stroke:none" d="m 35.057625,76.9365 10.2963875,0.0 0.0,-3.2788125 -10.2963875,-0.0 0.0,3.2788125 z " id="path3443"/>
<path style="fill:none;stroke:#211c1d;stroke-width:0.1;stroke-linecap:butt;stroke-linejoin:miter;stroke-miterlimit:4;stroke-opacity:1;stroke-dasharray:none" d="m 35.057625,76.9365 10.2963875,0.0 0.0,-3.2788125 -10.2963875,-0.0 0.0,3.2788125 z " id="path3445"/>
<path style="fill:#bbbcbd;fill-opacity:1;fill-rule:nonzero;stroke:none" d="m 35.057625,114.34575000000001 10.2963875,0.0 0.0,-4.199225 -10.2963875,-0.0 0.0,4.199225 z " id="path3447"/>
<path style="fill:none;stroke:#211c1d;stroke-width:0.1;stroke-linecap:butt;stroke-linejoin:miter;stroke-miterlimit:4;stroke-opacity:1;stroke-dasharray:none" d="m 35.057625,114.34575000000001 10.2963875,0.0 0.0,-4.199225 -10.2963875,-0.0 0.0,4.199225 z " id="path3449"/>
<path style="fill:#bbbcbd;fill-opacity:1;fill-rule:nonzero;stroke:none" d="m 35.057625,126.23724999999999 10.2963875,0.0 0.0,-2.97315 -10.2963875,-0.0 0.0,2.97315 z " id="path3451"/>
<path style="fill:none;stroke:#211c1d;stroke-width:0.1;stroke-linecap:butt;stroke-linejoin:miter;stroke-miterlimit:4;stroke-opacity:1;stroke-dasharray:none" d="m 35.057625,126.23724999999999 10.2963875,0.0 0.0,-2.97315 -10.2963875,-0.0 0.0,2.97315 z " id="path3453"/>
<path style="fill:#bbbcbd;fill-opacity:1;fill-rule:nonzero;stroke:none" d="m 35.057625,131.160125 10.2963875,0.0 0.0,-2.9741250000000004 -10.2963875,-0.0 0.0,2.9741250000000004 z " id="path3455"/>
<path style="fill:none;stroke:#211c1d;stroke-width:0.1;stroke-linecap:butt;stroke-linejoin:miter;stroke-miterlimit:4;stroke-opacity:1;stroke-dasharray:none" d="m 35.057625,131.160125 10.2963875,0.0 0.0,-2.9741250000000004 -10.2963875,-0.0 0.0,2.9741250000000004 z " id="path3457"/>
<path style="fill:#bbbcbd;fill-opacity:1;fill-rule:nonzero;stroke:none" d="m 35.057625,141.40625 10.2963875,0.0 0.0,-3.3813500000000003 -10.2963875,-0.0 0.0,3.3813500000000003 z " id="path3459"/>
<path style="fill:none;stroke:#211c1d;stroke-width:0.1;stroke-linecap:butt;stroke-linejoin:miter;stroke-miterlimit:4;stroke-opacity:1;stroke-dasharray:none" d="m 35.057625,141.40625 10.2963875,0.0 0.0,-3.3813500000000003 -10.2963875,-0.0 0.0,3.3813500000000003 z " id="path3461"/>
<path style="fill:none;stroke:#211c1d;stroke-width:0.8;stroke-linecap:butt;stroke-linejoin:miter;stroke-miterlimit:4;stroke-opacity:1;stroke-dasharray:none" d="m 37.727,39.37449999999998 c -1.585375,0.8183750000000001 -2.660125,2.2515 -2.660125,3.126 l 0.0,101.36575 c 0.0,1.27975 2.3012500000000005,2.31735 5.138250000000001,2.31735 2.838375,0.0 5.139125,-1.0376000000000003 5.139125,-2.31735 l 0.0,-101.36575 c 0.0,-0.8716250000000001 -1.066875,-2.30525 -2.6416250000000003,-3.126 1.5747500000000003,-0.819375 2.6416250000000003,-2.253875 2.6416250000000003,-3.126 l 0.0,-33.6185 c 0.0,-1.28 -2.30075,-2.3175 -5.139125,-2.3175 -2.837,-0.0 -5.138250000000001,1.0375 -5.138250000000001,2.3175 l 0.0,33.6185 c 0.0,0.8755000000000001 1.07475,2.308125 2.660125,3.126 z " id="path3463"/>
<path style="fill:none;stroke:#231f20;stroke-width:0.8;stroke-linecap:butt;stroke-linejoin:miter;stroke-miterlimit:4;stroke-opacity:1;stroke-dasharray:none;display:none" d="M 37.40725,39.40625 0.0,39.40625 " id="path3465"/>
<text>
<tspan x="35.054625 40.057060500000006" y="154.0127" id="tspan3395" style="font-size:7.19543791px;font-variant:normal;font-weight:normal;writing-mode:lr-tb;fill:#211c1d;fill-opacity:1;fill-rule:nonzero;stroke:none;font-family:Helvetica;-inkscape-font-specification:Helvetica">12</tspan>
</text>
</g>
</svg>
