<?xml version="1.0" encoding="UTF-8"?>
<svg xmlns:xlink="http://www.w3.org/1999/xlink" xmlns="http://www.w3.org/2000/svg" contentScriptType="text/ecmascript" zoomAndPan="magnify" contentStyleType="text/css" preserveAspectRatio="xMidYMid meet" version="1.0">

<g id="chromosome12" title="Chromosome 12">
<path style="fill:#797677;fill-opacity:1;fill-rule:nonzero;stroke:none" id="12q12" d="m 35.057625,180.71675 10.2963875,0.0 0.0,-8.506350000000001 -10.2963875,-0.0 0.0,8.506350000000001 z "/>
<path style="fill:#797677;fill-opacity:1;fill-rule:nonzero;stroke:none" id="12p12.3" d="m 35.057625,153.96625 10.2963875,0.0 0.0,-5.53515 -10.2963875,-0.0 0.0,5.53515 z "/>
<path style="fill:#797677;fill-opacity:1;fill-rule:nonzero;stroke:none" id="12p12.1" d="m 35.057625,159.29375 10.2963875,0.0 0.0,-4.4067375 -10.2963875,-0.0 0.0,4.4067375 z "/>
<path style="fill:#797677;fill-opacity:1;fill-rule:nonzero;stroke:none" id="12q21.31" d="m 35.057625,224.991625 10.2963875,0.0 0.0,-6.047362500000001 -10.2963875,-0.0 0.0,6.047362500000001 z "/>
<path style="fill:#797677;fill-opacity:1;fill-rule:nonzero;stroke:none" id="12q21.33" d="m 35.057625,230.52875 10.2963875,0.0 0.0,-4.6142625 -10.2963875,-0.0 0.0,4.6142625 z "/>
<path style="fill:#afb1b4;fill-opacity:1;fill-rule:nonzero;stroke:none" id="12p13.2" d="m 35.057625,146.38125 10.2963875,0.0 0.0,-3.1767625000000006 -10.2963875,-0.0 0.0,3.1767625000000006 z "/>
<path style="fill:none;stroke:#797677;stroke-width:0.1;stroke-linecap:butt;stroke-linejoin:miter;stroke-miterlimit:4;stroke-opacity:1;stroke-dasharray:none" id="12p13.2-o" d="m 35.057625,146.38125 10.2963875,0.0 0.0,-3.1767625000000006 -10.2963875,-0.0 0.0,3.1767625000000006 z "/>
<path style="fill:#afb1b4;fill-opacity:1;fill-rule:nonzero;stroke:none" id="12q14.1" d="m 35.057625,202.65087499999998 10.2963875,0.0 0.0,-4.1005875 -10.2963875,-0.0 0.0,4.1005875 z "/>
<path style="fill:none;stroke:#797677;stroke-width:0.1;stroke-linecap:butt;stroke-linejoin:miter;stroke-miterlimit:4;stroke-opacity:1;stroke-dasharray:none" id="12q14.1-o" d="m 35.057625,202.65087499999998 10.2963875,0.0 0.0,-4.1005875 -10.2963875,-0.0 0.0,4.1005875 z "/>
<path style="fill:#afb1b4;fill-opacity:1;fill-rule:nonzero;stroke:none" id="12q21.1" d="m 35.057625,216.58837499999998 10.2963875,0.0 0.0,-4.509275 -10.2963875,-0.0 0.0,4.509275 z "/>
<path style="fill:none;stroke:#797677;stroke-width:0.1;stroke-linecap:butt;stroke-linejoin:miter;stroke-miterlimit:4;stroke-opacity:1;stroke-dasharray:none" id="12q21.1-o" d="m 35.057625,216.58837499999998 10.2963875,0.0 0.0,-4.509275 -10.2963875,-0.0 0.0,4.509275 z "/>
<path style="fill:#afb1b4;fill-opacity:1;fill-rule:nonzero;stroke:none" id="12q23.1" d="m 35.057625,239.344625 10.2963875,0.0 0.0,-4.7168 -10.2963875,-0.0 0.0,4.7168 z "/>
<path style="fill:none;stroke:#797677;stroke-width:0.1;stroke-linecap:butt;stroke-linejoin:miter;stroke-miterlimit:4;stroke-opacity:1;stroke-dasharray:none" id="12q23.1-o" d="m 35.057625,239.344625 10.2963875,0.0 0.0,-4.7168 -10.2963875,-0.0 0.0,4.7168 z "/>
<path style="fill:#f1f2f1;fill-opacity:1;fill-rule:nonzero;stroke:none" id="12q13.12" d="m 35.057625,186.25187499999998 10.2963875,0.0 0.0,-2.767575 -10.2963875,-0.0 0.0,2.767575 z "/>
<path style="fill:none;stroke:#797677;stroke-width:0.1;stroke-linecap:butt;stroke-linejoin:miter;stroke-miterlimit:4;stroke-opacity:1;stroke-dasharray:none" id="12q13.12-o" d="m 35.057625,186.25187499999998 10.2963875,0.0 0.0,-2.767575 -10.2963875,-0.0 0.0,2.767575 z "/>
<path style="fill:#f1f2f1;fill-opacity:1;fill-rule:nonzero;stroke:none" id="12p13.32" d="m 35.057625,137.875 10.2963875,0.0 0.0,-2.869625 -10.2963875,-0.0 0.0,2.869625 z "/>
<path style="fill:none;stroke:#797677;stroke-width:0.1;stroke-linecap:butt;stroke-linejoin:miter;stroke-miterlimit:4;stroke-opacity:1;stroke-dasharray:none" id="12p13.32-o" d="m 35.057625,137.875 10.2963875,0.0 0.0,-2.869625 -10.2963875,-0.0 0.0,2.869625 z "/>
<path style="fill:#f1f2f1;fill-opacity:1;fill-rule:nonzero;stroke:none" id="12q13.2" d="m 35.057625,196.397875 10.2963875,0.0 0.0,-3.2797875 -10.2963875,-0.0 0.0,3.2797875 z "/>
<path style="fill:none;stroke:#797677;stroke-width:0.1;stroke-linecap:butt;stroke-linejoin:miter;stroke-miterlimit:4;stroke-opacity:1;stroke-dasharray:none" id="12q13.2-o" d="m 35.057625,196.397875 10.2963875,0.0 0.0,-3.2797875 -10.2963875,-0.0 0.0,3.2797875 z "/>
<path style="fill:#f1f2f1;fill-opacity:1;fill-rule:nonzero;stroke:none" id="12q24.12" d="m 35.057625,251.437 10.2963875,0.0 0.0,-2.1533250000000006 -10.2963875,-0.0 0.0,2.1533250000000006 z "/>
<path style="fill:none;stroke:#797677;stroke-width:0.1;stroke-linecap:butt;stroke-linejoin:miter;stroke-miterlimit:4;stroke-opacity:1;stroke-dasharray:none" id="12q24.12-o" d="m 35.057625,251.437 10.2963875,0.0 0.0,-2.1533250000000006 -10.2963875,-0.0 0.0,2.1533250000000006 z "/>
<path style="fill:#d6d6d7;fill-opacity:1;fill-rule:nonzero;stroke:none" id="12p11.22" d="m 35.057625,165.75187499999998 10.2963875,0.0 0.0,-2.8701125 -10.2963875,-0.0 0.0,2.8701125 z "/>
<path style="fill:none;stroke:#797677;stroke-width:0.1;stroke-linecap:butt;stroke-linejoin:miter;stroke-miterlimit:4;stroke-opacity:1;stroke-dasharray:none" id="12p11.22-o" d="m 35.057625,165.75187499999998 10.2963875,0.0 0.0,-2.8701125 -10.2963875,-0.0 0.0,2.8701125 z "/>
<path style="fill:#d6d6d7;fill-opacity:1;fill-rule:nonzero;stroke:none" id="12q14.3" d="m 35.057625,207.46525 10.2963875,0.0 0.0,-3.2788125 -10.2963875,-0.0 0.0,3.2788125 z "/>
<path style="fill:none;stroke:#797677;stroke-width:0.1;stroke-linecap:butt;stroke-linejoin:miter;stroke-miterlimit:4;stroke-opacity:1;stroke-dasharray:none" id="12q14.3-o" d="m 35.057625,207.46525 10.2963875,0.0 0.0,-3.2788125 -10.2963875,-0.0 0.0,3.2788125 z "/>
<path style="fill:#d6d6d7;fill-opacity:1;fill-rule:nonzero;stroke:none" id="12q23.3" d="m 35.057625,244.8745 10.2963875,0.0 0.0,-4.199225 -10.2963875,-0.0 0.0,4.199225 z "/>
<path style="fill:none;stroke:#797677;stroke-width:0.1;stroke-linecap:butt;stroke-linejoin:miter;stroke-miterlimit:4;stroke-opacity:1;stroke-dasharray:none" id="12q23.3-o" d="m 35.057625,244.8745 10.2963875,0.0 0.0,-4.199225 -10.2963875,-0.0 0.0,4.199225 z "/>
<path style="fill:#d6d6d7;fill-opacity:1;fill-rule:nonzero;stroke:none" id="12q24.21" d="m 35.057625,256.76599999999996 10.2963875,0.0 0.0,-2.97315 -10.2963875,-0.0 0.0,2.97315 z "/>
<path style="fill:none;stroke:#797677;stroke-width:0.1;stroke-linecap:butt;stroke-linejoin:miter;stroke-miterlimit:4;stroke-opacity:1;stroke-dasharray:none" id="12q24.21-o" d="m 35.057625,256.76599999999996 10.2963875,0.0 0.0,-2.97315 -10.2963875,-0.0 0.0,2.97315 z "/>
<path style="fill:#d6d6d7;fill-opacity:1;fill-rule:nonzero;stroke:none" id="12q24.23" d="m 35.057625,261.688875 10.2963875,0.0 0.0,-2.9741250000000004 -10.2963875,-0.0 0.0,2.9741250000000004 z "/>
<path style="fill:none;stroke:#797677;stroke-width:0.1;stroke-linecap:butt;stroke-linejoin:miter;stroke-miterlimit:4;stroke-opacity:1;stroke-dasharray:none" id="12q24.23-o" d="m 35.057625,261.688875 10.2963875,0.0 0.0,-2.9741250000000004 -10.2963875,-0.0 0.0,2.9741250000000004 z "/>
<path style="fill:#d6d6d7;fill-opacity:1;fill-rule:nonzero;stroke:none" id="12q24.32" d="m 35.057625,271.935 10.2963875,0.0 0.0,-3.3813500000000003 -10.2963875,-0.0 0.0,3.3813500000000003 z "/>
<path style="fill:none;stroke:#797677;stroke-width:0.1;stroke-linecap:butt;stroke-linejoin:miter;stroke-miterlimit:4;stroke-opacity:1;stroke-dasharray:none" id="12q24.32-o" d="m 35.057625,271.935 10.2963875,0.0 0.0,-3.3813500000000003 -10.2963875,-0.0 0.0,3.3813500000000003 z "/>
<path style="fill:#fffafa;stroke:#797677;stroke-width:0.1;stroke-linecap:butt;stroke-linejoin:miter;stroke-miterlimit:4;stroke-opacity:1;stroke-dasharray:none" id="12q24.13" d="m 35.057625,253.79284999999996 10.2963875,0.0 0,-2.355849999999947 -10.2963875,-0.0 0,2.355849999999947 z "/>
<path style="fill:#fffafa;stroke:#797677;stroke-width:0.1;stroke-linecap:butt;stroke-linejoin:miter;stroke-miterlimit:4;stroke-opacity:1;stroke-dasharray:none" id="12p11.21" d="m 35.057625,167.650875 10.2963875,0.0 0,-1.898999999999944 -10.2963875,-0.0 0,1.898999999999944 z "/>
<path style="fill:#fffafa;stroke:#797677;stroke-width:0.1;stroke-linecap:butt;stroke-linejoin:miter;stroke-miterlimit:4;stroke-opacity:1;stroke-dasharray:none" id="12q24.22" d="m 35.057625,258.71475 10.2963875,0.0 0,-1.9487500000000182 -10.2963875,-0.0 0,1.9487500000000182 z "/>
<path style="fill:#fffafa;stroke:#797677;stroke-width:0.1;stroke-linecap:butt;stroke-linejoin:miter;stroke-miterlimit:4;stroke-opacity:1;stroke-dasharray:none" id="12q21.32" d="m 35.057625,225.9144875 10.2963875,0.0 0,-0.9228625000000079 -10.2963875,-0.0 0,0.9228625000000079 z "/>
<path style="fill:#fffafa;stroke:#797677;stroke-width:0.1;stroke-linecap:butt;stroke-linejoin:miter;stroke-miterlimit:4;stroke-opacity:1;stroke-dasharray:none" id="12q22" d="m 35.057625,234.627825 10.2963875,0.0 0,-4.099074999999999 -10.2963875,-0.0 0,4.099074999999999 z "/>
<path style="fill:#fffafa;stroke:#797677;stroke-width:0.1;stroke-linecap:butt;stroke-linejoin:miter;stroke-miterlimit:4;stroke-opacity:1;stroke-dasharray:none" id="12q21.2" d="m 35.057625,218.9442625 10.2963875,0.0 0,-2.355887500000023 -10.2963875,-0.0 0,2.355887500000023 z "/>
<path style="fill:#fffafa;stroke:#797677;stroke-width:0.1;stroke-linecap:butt;stroke-linejoin:miter;stroke-miterlimit:4;stroke-opacity:1;stroke-dasharray:none" id="12q24.11" d="m 35.057625,249.28367500000002 10.2963875,0.0 0,-4.409175000000005 -10.2963875,-0.0 0,4.409175000000005 z "/>
<path style="fill:#fffafa;stroke:#797677;stroke-width:0.1;stroke-linecap:butt;stroke-linejoin:miter;stroke-miterlimit:4;stroke-opacity:1;stroke-dasharray:none" id="12q14.2" d="m 35.057625,204.1864375 10.2963875,0.0 0,-1.535562500000026 -10.2963875,-0.0 0,1.535562500000026 z "/>
<path style="fill:#fffafa;stroke:#797677;stroke-width:0.1;stroke-linecap:butt;stroke-linejoin:miter;stroke-miterlimit:4;stroke-opacity:1;stroke-dasharray:none" id="12q23.2" d="m 35.057625,240.675275 10.2963875,0.0 0,-1.3306499999999915 -10.2963875,-0.0 0,1.3306499999999915 z "/>
<path style="fill:#fffafa;stroke:#797677;stroke-width:0.1;stroke-linecap:butt;stroke-linejoin:miter;stroke-miterlimit:4;stroke-opacity:1;stroke-dasharray:none" id="12q15" d="m 35.057625,212.07909999999998 10.2963875,0.0 0,-4.613849999999985 -10.2963875,-0.0 0,4.613849999999985 z "/>
<path style="fill:#fffafa;stroke:#797677;stroke-width:0.1;stroke-linecap:butt;stroke-linejoin:miter;stroke-miterlimit:4;stroke-opacity:1;stroke-dasharray:none" id="12q13.3" d="m 35.057625,198.5502875 10.2963875,0.0 0,-2.152412499999997 -10.2963875,-0.0 0,2.152412499999997 z "/>
<path style="fill:#fffafa;stroke:#797677;stroke-width:0.1;stroke-linecap:butt;stroke-linejoin:miter;stroke-miterlimit:4;stroke-opacity:1;stroke-dasharray:none" id="12p13.31" d="m 35.057625,143.2044875 10.2963875,0.0 0,-5.329487499999999 -10.2963875,-0.0 0,5.329487499999999 z "/>
<path style="fill:#fffafa;stroke:#797677;stroke-width:0.1;stroke-linecap:butt;stroke-linejoin:miter;stroke-miterlimit:4;stroke-opacity:1;stroke-dasharray:none" id="12p11.23" d="m 35.057625,162.88176249999998 10.2963875,0.0 0,-3.5880124999999907 -10.2963875,-0.0 0,3.5880124999999907 z "/>
<path style="fill:#fffafa;stroke:#797677;stroke-width:0.1;stroke-linecap:butt;stroke-linejoin:miter;stroke-miterlimit:4;stroke-opacity:1;stroke-dasharray:none" id="12p13.1" d="m 35.057625,148.43110000000001 10.2963875,0.0 0,-2.0498500000000206 -10.2963875,-0.0 0,2.0498500000000206 z "/>
<path style="fill:#fffafa;stroke:#797677;stroke-width:0.1;stroke-linecap:butt;stroke-linejoin:miter;stroke-miterlimit:4;stroke-opacity:1;stroke-dasharray:none" id="12q13.11" d="m 35.057625,183.4843 10.2963875,0.0 0,-2.76755 -10.2963875,-0.0 0,2.76755 z "/>
<path style="fill:#fffafa;stroke:#797677;stroke-width:0.1;stroke-linecap:butt;stroke-linejoin:miter;stroke-miterlimit:4;stroke-opacity:1;stroke-dasharray:none" id="12p12.2" d="m 35.057625,154.8870125 10.2963875,0.0 0,-0.920762499999995 -10.2963875,-0.0 0,0.920762499999995 z "/>
<path style="fill:#fffafa;stroke:#797677;stroke-width:0.1;stroke-linecap:butt;stroke-linejoin:miter;stroke-miterlimit:4;stroke-opacity:1;stroke-dasharray:none" id="12q24.33" d="m 35.057625,271.935 0.0,2 c 0.0,1.27975 2.3012500000000005,2.31735 5.138250000000001,2.31735 2.838375,0.0 5.139125,-1.0376000000000003 5.139125,-2.31735  l 0.0,-2 -10.2963875,-0.0  z"/>
<path style="fill:#fffafa;stroke:#797677;stroke-width:0.1;stroke-linecap:butt;stroke-linejoin:miter;stroke-miterlimit:4;stroke-opacity:1;stroke-dasharray:none" id="12q13.13" d="m 35.057625,193.1180875 10.2963875,0.0 0,-6.866212500000017 -10.2963875,-0.0 0,6.866212500000017 z "/>
<path style="fill:#fffafa;stroke:#797677;stroke-width:0.1;stroke-linecap:butt;stroke-linejoin:miter;stroke-miterlimit:4;stroke-opacity:1;stroke-dasharray:none" id="12q24.31" d="m 35.057625,268.55365 10.2963875,0.0 0,-6.864775000000009 -10.2963875,-0.0 0,6.864775000000009 z "/>
<path style="fill:#fffafa;stroke:#797677;stroke-width:0.1;stroke-linecap:butt;stroke-linejoin:miter;stroke-miterlimit:4;stroke-opacity:1;stroke-dasharray:none" id="12p13.33" d="m 35.057625,135.005375 10.2963875,0.0 0.0,-2 c 0.0,-1.28 -2.30075,-2.3175 -5.139125,-2.3175 -2.837,-0.0 -5.138250000000001,1.0375 -5.138250000000001,2.3175 l 0.0,2 z"/>
<path style="fill:#c8d7de;fill-opacity:1;fill-rule:nonzero;stroke:none" id="centromere12-f" d="m 45.004875,172.055125 0.33937500000000004,0.975125 c 0.0,-0.8721250000000002 -1.066875,-2.30575 -2.6416250000000003,-3.1265000000000005 1.5747500000000003,-0.8207500000000001 2.6416250000000003,-2.253875 2.6416250000000003,-3.1255000000000006 l -0.5655,1.17725 -9.202625,-0.0 -0.50925,-1.17725 c 0.0,0.8750000000000001 1.07475,2.305625 2.660125,3.1255000000000006 -1.585375,0.8183750000000001 -2.660125,2.2505 -2.660125,3.1265000000000005 l 0.3360000000000001,-0.975125 9.602,0.0 "/>
<path style="fill:none;stroke:#797677;stroke-width:0.8;stroke-linecap:butt;stroke-linejoin:miter;stroke-miterlimit:4;stroke-opacity:1;stroke-dasharray:none" id="centromere12-o" d="m 45.004875,172.055125 0.33937500000000004,0.975125 c 0.0,-0.8721250000000002 -1.066875,-2.30575 -2.6416250000000003,-3.1265000000000005 1.5747500000000003,-0.8207500000000001 2.6416250000000003,-2.253875 2.6416250000000003,-3.1255000000000006 l -0.5655,1.17725 -9.202625,-0.0 -0.50925,-1.17725 c 0.0,0.8750000000000001 1.07475,2.305625 2.660125,3.1255000000000006 -1.585375,0.8183750000000001 -2.660125,2.2505 -2.660125,3.1265000000000005 l 0.3360000000000001,-0.975125 9.602,0.0 z "/>
<path style="fill:none;stroke:#797677;stroke-width:0.8;stroke-linecap:butt;stroke-linejoin:miter;stroke-miterlimit:4;stroke-opacity:1;stroke-dasharray:none" id="outline12" d="m 37.727,169.90324999999999 c -1.585375,0.8183750000000001 -2.660125,2.2515 -2.660125,3.126 l 0.0,101.36575 c 0.0,1.27975 2.3012500000000005,2.31735 5.138250000000001,2.31735 2.838375,0.0 5.139125,-1.0376000000000003 5.139125,-2.31735 l 0.0,-101.36575 c 0.0,-0.8716250000000001 -1.066875,-2.30525 -2.6416250000000003,-3.126 1.5747500000000003,-0.819375 2.6416250000000003,-2.253875 2.6416250000000003,-3.126 l 0.0,-33.6185 c 0.0,-1.28 -2.30075,-2.3175 -5.139125,-2.3175 -2.837,-0.0 -5.138250000000001,1.0375 -5.138250000000001,2.3175 l 0.0,33.6185 c 0.0,0.8755000000000001 1.07475,2.308125 2.660125,3.126 z "/>
<path style="fill:none;stroke:#231f20;stroke-width:0.8;stroke-linecap:butt;stroke-linejoin:miter;stroke-miterlimit:4;stroke-opacity:1;stroke-dasharray:none;display:none" id="centre12" d="M 37.40725,169.935 0.0,169.935 "/>
<text>
<tspan x="35.054625 40.057060500000006" y="284.54145" id="label12" style="font-size:7.19543791px;font-variant:normal;font-weight:normal;writing-mode:lr-tb;fill:#797677;fill-opacity:1;fill-rule:nonzero;stroke:none;font-family:Helvetica;-inkscape-font-specification:Helvetica">12</tspan>
</text>
</g>
</svg>
