<?xml version="1.0" encoding="UTF-8" standalone="no"?>
<!-- Created with Inkscape (http://www.inkscape.org/) -->
<svg xmlns:dc="http://purl.org/dc/elements/1.1/" xmlns:cc="http://creativecommons.org/ns#" xmlns:rdf="http://www.w3.org/1999/02/22-rdf-syntax-ns#" xmlns:svg="http://www.w3.org/2000/svg" xmlns="http://www.w3.org/2000/svg" version="1.1" width="50.487499" height="154.02499" id="svg2" xml:space="preserve">
  <metadata id="metadata8">
    <rdf:RDF>
      <cc:Work rdf:about="">
        <dc:format>image/svg+xml</dc:format>
        <dc:type rdf:resource="http://purl.org/dc/dcmitype/StillImage"/>
        <dc:title/>
      </cc:Work>
    </rdf:RDF>
  </metadata>
  <defs id="defs6">
    <clipPath id="clipPath18">
      <path d="m 0,0 403.852,0 0,1232 L 0,1232 0,0 z" id="path20"/>
    </clipPath>
    <clipPath id="clipPath82">
      <path d="M 0,720 720,720 720,0 0,0 0,720 z" id="path84"/>
    </clipPath>
    <pattern id="pattern86" height="72" width="72" y="0" x="0" patternUnits="userSpaceOnUse" patternTransform="matrix(0.999995,0,0,-0.999995,-68.3,-11)">
      <g id="g88" transform="scale(0.1,0.1)">
        <g id="g90">
          <g id="g92" clip-path="url(#clipPath82)">
            <path id="path94" style="fill:#ffffff;fill-opacity:1;fill-rule:nonzero;stroke:none" d="M 0,0 720,0 720,720 0,720 0,0 z"/>
            <path id="path96" style="fill:none;stroke:#211c1d;stroke-opacity:1;stroke-width:3;stroke-linecap:square;stroke-linejoin:bevel;stroke-miterlimit:4;stroke-dasharray:none" d="M 0,0 720,720"/>
            <path id="path98" style="fill:none;stroke:#211c1d;stroke-opacity:1;stroke-width:3;stroke-linecap:square;stroke-linejoin:bevel;stroke-miterlimit:4;stroke-dasharray:none" d="M -30.0117,29.9883 660,720"/>
            <path id="path100" style="fill:none;stroke:#211c1d;stroke-opacity:1;stroke-width:3;stroke-linecap:square;stroke-linejoin:bevel;stroke-miterlimit:4;stroke-dasharray:none" d="M -30.0508,89.9531 600,720"/>
            <path id="path102" style="fill:none;stroke:#211c1d;stroke-opacity:1;stroke-width:3;stroke-linecap:square;stroke-linejoin:bevel;stroke-miterlimit:4;stroke-dasharray:none" d="M -30.0898,149.91 540,720"/>
            <path id="path104" style="fill:none;stroke:#211c1d;stroke-opacity:1;stroke-width:3;stroke-linecap:square;stroke-linejoin:bevel;stroke-miterlimit:4;stroke-dasharray:none" d="M -30.1328,209.871 480,720"/>
            <path id="path106" style="fill:none;stroke:#211c1d;stroke-opacity:1;stroke-width:3;stroke-linecap:square;stroke-linejoin:bevel;stroke-miterlimit:4;stroke-dasharray:none" d="M -30.1602,269.844 420,720"/>
            <path id="path108" style="fill:none;stroke:#211c1d;stroke-opacity:1;stroke-width:3;stroke-linecap:square;stroke-linejoin:bevel;stroke-miterlimit:4;stroke-dasharray:none" d="M -30.1992,329.805 360,720"/>
            <path id="path110" style="fill:none;stroke:#211c1d;stroke-opacity:1;stroke-width:3;stroke-linecap:square;stroke-linejoin:bevel;stroke-miterlimit:4;stroke-dasharray:none" d="M -30.2383,389.758 300,720"/>
            <path id="path112" style="fill:none;stroke:#211c1d;stroke-opacity:1;stroke-width:3;stroke-linecap:square;stroke-linejoin:bevel;stroke-miterlimit:4;stroke-dasharray:none" d="M -30.2695,449.719 240,720"/>
            <path id="path114" style="fill:none;stroke:#211c1d;stroke-opacity:1;stroke-width:3;stroke-linecap:square;stroke-linejoin:bevel;stroke-miterlimit:4;stroke-dasharray:none" d="M -30.3086,509.688 180,720"/>
            <path id="path116" style="fill:none;stroke:#211c1d;stroke-opacity:1;stroke-width:3;stroke-linecap:square;stroke-linejoin:bevel;stroke-miterlimit:4;stroke-dasharray:none" d="M -30.3516,569.648 120,720"/>
            <path id="path118" style="fill:none;stroke:#211c1d;stroke-opacity:1;stroke-width:3;stroke-linecap:square;stroke-linejoin:bevel;stroke-miterlimit:4;stroke-dasharray:none" d="M -30.3906,629.609 60,720"/>
            <path id="path120" style="fill:none;stroke:#211c1d;stroke-opacity:1;stroke-width:3;stroke-linecap:square;stroke-linejoin:bevel;stroke-miterlimit:4;stroke-dasharray:none" d="M -30.4219,689.57 0,720"/>
            <path id="path122" style="fill:none;stroke:#211c1d;stroke-opacity:1;stroke-width:3;stroke-linecap:square;stroke-linejoin:bevel;stroke-miterlimit:4;stroke-dasharray:none" d="M 60,0 750.012,690.02"/>
            <path id="path124" style="fill:none;stroke:#211c1d;stroke-opacity:1;stroke-width:3;stroke-linecap:square;stroke-linejoin:bevel;stroke-miterlimit:4;stroke-dasharray:none" d="M 120,0 750.051,630.059"/>
            <path id="path126" style="fill:none;stroke:#211c1d;stroke-opacity:1;stroke-width:3;stroke-linecap:square;stroke-linejoin:bevel;stroke-miterlimit:4;stroke-dasharray:none" d="M 180,0 750.09,570.098"/>
            <path id="path128" style="fill:none;stroke:#211c1d;stroke-opacity:1;stroke-width:3;stroke-linecap:square;stroke-linejoin:bevel;stroke-miterlimit:4;stroke-dasharray:none" d="M 240,0 750.133,510.129"/>
            <path id="path130" style="fill:none;stroke:#211c1d;stroke-opacity:1;stroke-width:3;stroke-linecap:square;stroke-linejoin:bevel;stroke-miterlimit:4;stroke-dasharray:none" d="M 300,0 750.16,450.168"/>
            <path id="path132" style="fill:none;stroke:#211c1d;stroke-opacity:1;stroke-width:3;stroke-linecap:square;stroke-linejoin:bevel;stroke-miterlimit:4;stroke-dasharray:none" d="M 360,0 750.199,390.215"/>
            <path id="path134" style="fill:none;stroke:#211c1d;stroke-opacity:1;stroke-width:3;stroke-linecap:square;stroke-linejoin:bevel;stroke-miterlimit:4;stroke-dasharray:none" d="M 420,0 750.238,330.254"/>
            <path id="path136" style="fill:none;stroke:#211c1d;stroke-opacity:1;stroke-width:3;stroke-linecap:square;stroke-linejoin:bevel;stroke-miterlimit:4;stroke-dasharray:none" d="M 480,0 750.277,270.281"/>
            <path id="path138" style="fill:none;stroke:#211c1d;stroke-opacity:1;stroke-width:3;stroke-linecap:square;stroke-linejoin:bevel;stroke-miterlimit:4;stroke-dasharray:none" d="M 540,0 750.309,210.32"/>
            <path id="path140" style="fill:none;stroke:#211c1d;stroke-opacity:1;stroke-width:3;stroke-linecap:square;stroke-linejoin:bevel;stroke-miterlimit:4;stroke-dasharray:none" d="M 600,0 750.352,150.359"/>
            <path id="path142" style="fill:none;stroke:#211c1d;stroke-opacity:1;stroke-width:3;stroke-linecap:square;stroke-linejoin:bevel;stroke-miterlimit:4;stroke-dasharray:none" d="m 660,0 90.391,90.4023"/>
            <path id="path144" style="fill:none;stroke:#211c1d;stroke-opacity:1;stroke-width:3;stroke-linecap:square;stroke-linejoin:bevel;stroke-miterlimit:4;stroke-dasharray:none" d="m 720,0 30.43,30.4297"/>
            <path id="path146" style="fill:none;stroke:#211c1d;stroke-opacity:1;stroke-width:3;stroke-linecap:square;stroke-linejoin:bevel;stroke-miterlimit:4;stroke-dasharray:none" d="M 720,0 0,720"/>
            <path id="path148" style="fill:none;stroke:#211c1d;stroke-opacity:1;stroke-width:3;stroke-linecap:square;stroke-linejoin:bevel;stroke-miterlimit:4;stroke-dasharray:none" d="M 660,0 -30.0117,690.02"/>
            <path id="path150" style="fill:none;stroke:#211c1d;stroke-opacity:1;stroke-width:3;stroke-linecap:square;stroke-linejoin:bevel;stroke-miterlimit:4;stroke-dasharray:none" d="M 600,0 -30.0508,630.059"/>
            <path id="path152" style="fill:none;stroke:#211c1d;stroke-opacity:1;stroke-width:3;stroke-linecap:square;stroke-linejoin:bevel;stroke-miterlimit:4;stroke-dasharray:none" d="M 540,0 -30.0898,570.098"/>
            <path id="path154" style="fill:none;stroke:#211c1d;stroke-opacity:1;stroke-width:3;stroke-linecap:square;stroke-linejoin:bevel;stroke-miterlimit:4;stroke-dasharray:none" d="M 480,0 -30.1328,510.137"/>
            <path id="path156" style="fill:none;stroke:#211c1d;stroke-opacity:1;stroke-width:3;stroke-linecap:square;stroke-linejoin:bevel;stroke-miterlimit:4;stroke-dasharray:none" d="M 420,0 -30.1602,450.168"/>
            <path id="path158" style="fill:none;stroke:#211c1d;stroke-opacity:1;stroke-width:3;stroke-linecap:square;stroke-linejoin:bevel;stroke-miterlimit:4;stroke-dasharray:none" d="M 360,0 -30.1992,390.215"/>
            <path id="path160" style="fill:none;stroke:#211c1d;stroke-opacity:1;stroke-width:3;stroke-linecap:square;stroke-linejoin:bevel;stroke-miterlimit:4;stroke-dasharray:none" d="M 300,0 -30.2383,330.254"/>
            <path id="path162" style="fill:none;stroke:#211c1d;stroke-opacity:1;stroke-width:3;stroke-linecap:square;stroke-linejoin:bevel;stroke-miterlimit:4;stroke-dasharray:none" d="M 240,0 -30.2695,270.293"/>
            <path id="path164" style="fill:none;stroke:#211c1d;stroke-opacity:1;stroke-width:3;stroke-linecap:square;stroke-linejoin:bevel;stroke-miterlimit:4;stroke-dasharray:none" d="M 180,0 -30.3086,210.32"/>
            <path id="path166" style="fill:none;stroke:#211c1d;stroke-opacity:1;stroke-width:3;stroke-linecap:square;stroke-linejoin:bevel;stroke-miterlimit:4;stroke-dasharray:none" d="M 120,0 -30.3516,150.359"/>
            <path id="path168" style="fill:none;stroke:#211c1d;stroke-opacity:1;stroke-width:3;stroke-linecap:square;stroke-linejoin:bevel;stroke-miterlimit:4;stroke-dasharray:none" d="M 60,0 -30.3906,90.4023"/>
            <path id="path170" style="fill:none;stroke:#211c1d;stroke-opacity:1;stroke-width:3;stroke-linecap:square;stroke-linejoin:bevel;stroke-miterlimit:4;stroke-dasharray:none" d="M 0,0 -30.4219,30.4414"/>
            <path id="path172" style="fill:none;stroke:#211c1d;stroke-opacity:1;stroke-width:3;stroke-linecap:square;stroke-linejoin:bevel;stroke-miterlimit:4;stroke-dasharray:none" d="M 750.012,29.9883 60,720"/>
            <path id="path174" style="fill:none;stroke:#211c1d;stroke-opacity:1;stroke-width:3;stroke-linecap:square;stroke-linejoin:bevel;stroke-miterlimit:4;stroke-dasharray:none" d="M 750.051,89.9531 120,720"/>
            <path id="path176" style="fill:none;stroke:#211c1d;stroke-opacity:1;stroke-width:3;stroke-linecap:square;stroke-linejoin:bevel;stroke-miterlimit:4;stroke-dasharray:none" d="M 750.09,149.91 180,720"/>
            <path id="path178" style="fill:none;stroke:#211c1d;stroke-opacity:1;stroke-width:3;stroke-linecap:square;stroke-linejoin:bevel;stroke-miterlimit:4;stroke-dasharray:none" d="M 750.133,209.871 240,720"/>
            <path id="path180" style="fill:none;stroke:#211c1d;stroke-opacity:1;stroke-width:3;stroke-linecap:square;stroke-linejoin:bevel;stroke-miterlimit:4;stroke-dasharray:none" d="M 750.16,269.844 300,720"/>
            <path id="path182" style="fill:none;stroke:#211c1d;stroke-opacity:1;stroke-width:3;stroke-linecap:square;stroke-linejoin:bevel;stroke-miterlimit:4;stroke-dasharray:none" d="M 750.199,329.805 360,720"/>
            <path id="path184" style="fill:none;stroke:#211c1d;stroke-opacity:1;stroke-width:3;stroke-linecap:square;stroke-linejoin:bevel;stroke-miterlimit:4;stroke-dasharray:none" d="M 750.238,389.758 420,720"/>
            <path id="path186" style="fill:none;stroke:#211c1d;stroke-opacity:1;stroke-width:3;stroke-linecap:square;stroke-linejoin:bevel;stroke-miterlimit:4;stroke-dasharray:none" d="M 750.277,449.727 480,720"/>
            <path id="path188" style="fill:none;stroke:#211c1d;stroke-opacity:1;stroke-width:3;stroke-linecap:square;stroke-linejoin:bevel;stroke-miterlimit:4;stroke-dasharray:none" d="M 750.309,509.688 540,720"/>
            <path id="path190" style="fill:none;stroke:#211c1d;stroke-opacity:1;stroke-width:3;stroke-linecap:square;stroke-linejoin:bevel;stroke-miterlimit:4;stroke-dasharray:none" d="M 750.352,569.648 600,720"/>
            <path id="path192" style="fill:none;stroke:#211c1d;stroke-opacity:1;stroke-width:3;stroke-linecap:square;stroke-linejoin:bevel;stroke-miterlimit:4;stroke-dasharray:none" d="M 750.391,629.609 660,720"/>
            <path id="path194" style="fill:none;stroke:#211c1d;stroke-opacity:1;stroke-width:3;stroke-linecap:square;stroke-linejoin:bevel;stroke-miterlimit:4;stroke-dasharray:none" d="M 750.43,689.578 720,720"/>
          </g>
        </g>
      </g>
    </pattern>
  </defs>
  <g transform="matrix(1.25,0,0,-1.25,0,154.025)" id="g10">
    <g transform="scale(0.1,0.1)" id="g12">
      <g id="g14">
        <g clip-path="url(#clipPath18)" id="g16">
          <path d="m 401.352,994.457 0,-0.449 c 0,7.712 -9.422,20.392 -23.368,27.652 13.946,7.25 23.368,19.95 23.368,27.64 l 0,4.53 -90.907,0 0,-4.53 c 0,-7.71 9.5,-20.41 23.535,-27.64 -14.035,-7.24 -23.535,-19.92 -23.535,-27.652 l 0,0.449 90.907,0" id="path22" style="fill:#a4bdc8;fill-opacity:1;fill-rule:nonzero;stroke:none"/>
          <path d="m 401.352,994.457 0,-0.449 c 0,7.712 -9.422,20.392 -23.368,27.652 13.946,7.25 23.368,19.95 23.368,27.64 l 0,4.53 -90.907,0 0,-4.53 c 0,-7.71 9.5,-20.41 23.535,-27.64 -14.035,-7.24 -23.535,-19.92 -23.535,-27.652 l 0,0.449 90.907,0 z" id="path24" style="fill:none;stroke:#100f0d;stroke-width:5;stroke-linecap:butt;stroke-linejoin:miter;stroke-miterlimit:4;stroke-opacity:1;stroke-dasharray:none"/>
          <g transform="scale(10,10)" id="g26"><text transform="matrix(1,0,0,-0.90697189,31.0328,3.13906)" id="text28"><tspan x="0 4.0019484" y="0" id="tspan30" style="font-size:7.19543791px;font-variant:normal;font-weight:normal;writing-mode:lr-tb;fill:#211c1d;fill-opacity:1;fill-rule:nonzero;stroke:none;font-family:Helvetica;-inkscape-font-specification:Helvetica">13</tspan></text>
</g>
          <path d="m 310.375,576.156 91.0547,0 0,41.6992 -91.0547,0 0,-41.6992 z" id="path32" style="fill:#211c1d;fill-opacity:1;fill-rule:nonzero;stroke:none"/>
          <path d="m 310.375,767.406 91.0547,0 0,49.8633 -91.0547,0 0,-49.8633 z" id="path34" style="fill:#7a7e82;fill-opacity:1;fill-rule:nonzero;stroke:none"/>
          <path d="m 310.375,767.406 91.0547,0 0,49.8633 -91.0547,0 0,-49.8633 z" id="path36" style="fill:none;stroke:#211c1d;stroke-width:0.62;stroke-linecap:butt;stroke-linejoin:miter;stroke-miterlimit:4;stroke-opacity:1;stroke-dasharray:none"/>
          <path d="m 310.375,522.68 91.0547,0 0,33.5352 -91.0547,0 0,-33.5352 z" id="path38" style="fill:#7a7e82;fill-opacity:1;fill-rule:nonzero;stroke:none"/>
          <path d="m 310.375,522.68 91.0547,0 0,33.5352 -91.0547,0 0,-33.5352 z" id="path40" style="fill:none;stroke:#211c1d;stroke-width:0.62;stroke-linecap:butt;stroke-linejoin:miter;stroke-miterlimit:4;stroke-opacity:1;stroke-dasharray:none"/>
          <path d="m 310.375,458.324 91.0547,0 0,43.5352 -91.0547,0 0,-43.5352 z" id="path42" style="fill:#211c1d;fill-opacity:1;fill-rule:nonzero;stroke:none"/>
          <path d="m 310.375,837.211 91.0547,0 0,25.3906 -91.0547,0 0,-25.3906 z" id="path44" style="fill:#bbbcbd;fill-opacity:1;fill-rule:nonzero;stroke:none"/>
          <path d="m 310.375,837.211 91.0547,0 0,25.3906 -91.0547,0 0,-25.3906 z" id="path46" style="fill:none;stroke:#211c1d;stroke-width:0.62;stroke-linecap:butt;stroke-linejoin:miter;stroke-miterlimit:4;stroke-opacity:1;stroke-dasharray:none"/>
          <path d="m 310.375,655.922 91.0547,0 0,30.8203 -91.0547,0 0,-30.8203 z" id="path48" style="fill:#bbbcbd;fill-opacity:1;fill-rule:nonzero;stroke:none"/>
          <path d="m 310.375,655.922 91.0547,0 0,30.8203 -91.0547,0 0,-30.8203 z" id="path50" style="fill:none;stroke:#211c1d;stroke-width:0.62;stroke-linecap:butt;stroke-linejoin:miter;stroke-miterlimit:4;stroke-opacity:1;stroke-dasharray:none"/>
          <path d="m 310.375,418.441 91.0547,0 0,21.7773 -91.0547,0 0,-21.7773 z" id="path52" style="fill:#bbbcbd;fill-opacity:1;fill-rule:nonzero;stroke:none"/>
          <path d="m 310.375,418.441 91.0547,0 0,21.7773 -91.0547,0 0,-21.7773 z" id="path54" style="fill:none;stroke:#211c1d;stroke-width:0.62;stroke-linecap:butt;stroke-linejoin:miter;stroke-miterlimit:4;stroke-opacity:1;stroke-dasharray:none"/>
          <path d="m 310.375,345.922 91.0547,0 0,54.3945 -91.0547,0 0,-54.3945 z" id="path56" style="fill:#211c1d;fill-opacity:1;fill-rule:nonzero;stroke:none"/>
          <path d="m 310.375,298.812 91.0547,0 0,34.4336 -91.0547,0 0,-34.4336 z" id="path58" style="fill:#211c1d;fill-opacity:1;fill-rule:nonzero;stroke:none"/>
          <path d="m 310.375,900.668 91.0547,0 0,19.0234 -91.0547,0 0,-19.0234 z" id="path60" style="fill:#e9eae9;fill-opacity:1;fill-rule:nonzero;stroke:none"/>
          <path d="m 310.375,900.668 91.0547,0 0,19.0234 -91.0547,0 0,-19.0234 z" id="path62" style="fill:none;stroke:#211c1d;stroke-width:0.62;stroke-linecap:butt;stroke-linejoin:miter;stroke-miterlimit:4;stroke-opacity:1;stroke-dasharray:none"/>
          <path d="m 310.375,944.164 91.0547,0 0,19.9414 -91.0547,0 0,-19.9414 z" id="path64" style="fill:#e9eae9;fill-opacity:1;fill-rule:nonzero;stroke:none"/>
          <path d="m 310.375,944.164 91.0547,0 0,19.9414 -91.0547,0 0,-19.9414 z" id="path66" style="fill:none;stroke:#211c1d;stroke-width:0.62;stroke-linecap:butt;stroke-linejoin:miter;stroke-miterlimit:4;stroke-opacity:1;stroke-dasharray:none"/>
          <path d="m 310.375,703.051 91.0547,0 0,19.9414 -91.0547,0 0,-19.9414 z" id="path68" style="fill:#e9eae9;fill-opacity:1;fill-rule:nonzero;stroke:none"/>
          <path d="m 310.375,703.051 91.0547,0 0,19.9414 -91.0547,0 0,-19.9414 z" id="path70" style="fill:none;stroke:#211c1d;stroke-width:0.62;stroke-linecap:butt;stroke-linejoin:miter;stroke-miterlimit:4;stroke-opacity:1;stroke-dasharray:none"/>
          <path d="m 310.375,251.645 91.0547,0 0,21.7773 -91.0547,0 0,-21.7773 z" id="path72" style="fill:#e9eae9;fill-opacity:1;fill-rule:nonzero;stroke:none"/>
          <path d="m 310.375,251.645 91.0547,0 0,21.7773 -91.0547,0 0,-21.7773 z" id="path74" style="fill:none;stroke:#211c1d;stroke-width:0.62;stroke-linecap:butt;stroke-linejoin:miter;stroke-miterlimit:4;stroke-opacity:1;stroke-dasharray:none"/>
          <path d="m 310.375,188.211 91.0547,0 0,29.9375 -91.0547,0 0,-29.9375 z" id="path76" style="fill:#211c1d;fill-opacity:1;fill-rule:nonzero;stroke:none"/>
          <path d="m 310.375,140.18 91.0547,0 0,36.2695 -91.0547,0 0,-36.2695 z" id="path78" style="fill:#211c1d;fill-opacity:1;fill-rule:nonzero;stroke:none"/>
          <path d="m 333.98,1021.66 c -14.042,-7.24 -23.527,-19.92 -23.527,-27.652 l 0,-872.86 c 0,-11.339 20.344,-20.519 45.461,-20.519 25.098,0 45.43,9.18 45.43,20.519 l 0,872.86 c 0,7.712 -9.414,20.392 -23.36,27.652 13.946,7.25 23.36,19.95 23.36,27.64 l 0,52.58 c 0,11.33 -20.332,20.51 -45.43,20.51 -25.117,0 -45.461,-9.18 -45.461,-20.51 l 0,-52.58 c 0,-7.73 9.485,-20.41 23.527,-27.64 z" id="path80" style="fill:none;stroke:#211c1d;stroke-width:5;stroke-linecap:butt;stroke-linejoin:miter;stroke-miterlimit:4;stroke-opacity:1;stroke-dasharray:none"/>
          <path d="m 310.426,1053.83 0,48.07 c 0,9.84 15.41,18.08 35.937,20.06 l -0.058,59.12 c -10.352,3.65 -17.676,12.75 -17.676,23.46 0,13.88 12.41,25.15 27.715,25.15 15.32,0 27.754,-11.27 27.754,-25.15 0,-10.71 -7.344,-19.81 -17.707,-23.46 l -0.028,-59.22 c 20.039,-2.15 34.969,-10.27 34.969,-19.96 l 0,-48.07 -90.906,0" id="path196" style="fill:url(#pattern86);fill-opacity:1;fill-rule:nonzero;stroke:none"/>
          <path d="m 310.426,1053.83 0,48.07 c 0,9.84 15.41,18.08 35.937,20.06 l -0.058,59.12 c -10.352,3.65 -17.676,12.75 -17.676,23.46 0,13.88 12.41,25.15 27.715,25.15 15.32,0 27.754,-11.27 27.754,-25.15 0,-10.71 -7.344,-19.81 -17.707,-23.46 l -0.028,-59.22 c 20.039,-2.15 34.969,-10.27 34.969,-19.96 l 0,-48.07 -90.906,0 z" id="path198" style="fill:none;stroke:#211c1d;stroke-width:5;stroke-linecap:butt;stroke-linejoin:miter;stroke-miterlimit:4;stroke-opacity:1;stroke-dasharray:none"/>
          <path d="M 330.797,1021.37 0,1021.37" id="path200" style="fill:none;stroke:#231f20;stroke-width:5;stroke-linecap:butt;stroke-linejoin:miter;stroke-miterlimit:4;stroke-opacity:1;stroke-dasharray:none"/>
          <g transform="scale(10,10)" id="g202"><text transform="matrix(1,0,0,-0.90698012,22.8441,106.939)" id="text204"><tspan x="0 1.7353495 3.7363315 4.7358446" y="0" id="tspan206" style="font-size:3.59771943px;font-variant:normal;font-weight:normal;writing-mode:lr-tb;fill:#231f20;fill-opacity:1;fill-rule:nonzero;stroke:none;font-family:Helvetica;-inkscape-font-specification:Helvetica">11.2</tspan><tspan x="0 1.7353495 3.7363315 4.7358446" y="4.7957058" id="tspan208" style="font-size:3.59771943px;font-variant:normal;font-weight:normal;writing-mode:lr-tb;fill:#231f20;fill-opacity:1;fill-rule:nonzero;stroke:none;font-family:Helvetica;-inkscape-font-specification:Helvetica">11.1</tspan><tspan x="3.0003855 4.7362247" y="8.6934319" id="tspan210" style="font-size:3.59771943px;font-variant:normal;font-weight:normal;writing-mode:lr-tb;fill:#231f20;fill-opacity:1;fill-rule:nonzero;stroke:none;font-family:Helvetica;-inkscape-font-specification:Helvetica">11</tspan><tspan x="-2.0007825 -0.00045055 1.9998815 3.0000474 4.7359357" y="11.691017" id="tspan212" style="font-size:3.59771943px;font-variant:normal;font-weight:normal;writing-mode:lr-tb;fill:#231f20;fill-opacity:1;fill-rule:nonzero;stroke:none;font-family:Helvetica;-inkscape-font-specification:Helvetica">12.11</tspan><tspan x="2.7347677 4.7357469" y="-13.293213" id="tspan214" style="font-size:3.59771943px;font-variant:normal;font-weight:normal;writing-mode:lr-tb;fill:#231f20;fill-opacity:1;fill-rule:nonzero;stroke:none;font-family:Helvetica;-inkscape-font-specification:Helvetica">13</tspan><tspan x="2.7347677 4.7357469" y="-7.5952163" id="tspan216" style="font-size:3.59771943px;font-variant:normal;font-weight:normal;writing-mode:lr-tb;fill:#231f20;fill-opacity:1;fill-rule:nonzero;stroke:none;font-family:Helvetica;-inkscape-font-specification:Helvetica">12</tspan><tspan x="-0.26523182 1.7351002 3.7354321 4.7355981" y="28.181974" id="tspan218" style="font-size:3.59771943px;font-variant:normal;font-weight:normal;writing-mode:lr-tb;fill:#231f20;fill-opacity:1;fill-rule:nonzero;stroke:none;font-family:Helvetica;-inkscape-font-specification:Helvetica">13.2</tspan><tspan x="-2.2660143 -0.26568237 1.7346497 2.7348156 4.7359381" y="16.486679" id="tspan220" style="font-size:3.59771943px;font-variant:normal;font-weight:normal;writing-mode:lr-tb;fill:#231f20;fill-opacity:1;fill-rule:nonzero;stroke:none;font-family:Helvetica;-inkscape-font-specification:Helvetica">12.13</tspan><tspan x="-0.26523182 1.7351002 3.7354321 4.7355981" y="21.885342" id="tspan222" style="font-size:3.59771943px;font-variant:normal;font-weight:normal;writing-mode:lr-tb;fill:#231f20;fill-opacity:1;fill-rule:nonzero;stroke:none;font-family:Helvetica;-inkscape-font-specification:Helvetica">12.3</tspan><tspan x="-2.0007825 -0.00045055 1.9998815 3.0000474 4.7359357" y="37.374989" id="tspan224" style="font-size:3.59771943px;font-variant:normal;font-weight:normal;writing-mode:lr-tb;fill:#231f20;fill-opacity:1;fill-rule:nonzero;stroke:none;font-family:Helvetica;-inkscape-font-specification:Helvetica">14.11</tspan><tspan x="-12.402731 -10.402398 -8.4020662 -7.4019003 -5.4007783" y="13.760357" id="tspan226" style="font-size:3.59771943px;font-variant:normal;font-weight:normal;writing-mode:lr-tb;fill:#231f20;fill-opacity:1;fill-rule:nonzero;stroke:none;font-family:Helvetica;-inkscape-font-specification:Helvetica">12.12</tspan></text>
</g>
          <path d="m 202.445,954.535 111.438,0" id="path228" style="fill:none;stroke:#231f20;stroke-width:1.82598996;stroke-linecap:butt;stroke-linejoin:miter;stroke-miterlimit:4;stroke-opacity:1;stroke-dasharray:none"/>
          <g transform="scale(10,10)" id="g230"><text transform="matrix(1,0,0,-0.90698012,12.4426,89.923)" id="text232"><tspan x="0 2.0003321 4.0006642 5.0008302" y="0" id="tspan234" style="font-size:3.59771943px;font-variant:normal;font-weight:normal;writing-mode:lr-tb;fill:#231f20;fill-opacity:1;fill-rule:nonzero;stroke:none;font-family:Helvetica;-inkscape-font-specification:Helvetica">12.2</tspan></text>
</g>
          <path d="m 202.445,909.223 111.438,0" id="path236" style="fill:none;stroke:#231f20;stroke-width:1.82598996;stroke-linecap:butt;stroke-linejoin:miter;stroke-miterlimit:4;stroke-opacity:1;stroke-dasharray:none"/>
          <g transform="scale(10,10)" id="g238"><text transform="matrix(1,0,0,-0.90698012,22.5789,84.0988)" id="text240"><tspan x="0 2.0003321 4.0006642 5.0008302" y="0" id="tspan242" style="font-size:3.59771943px;font-variant:normal;font-weight:normal;writing-mode:lr-tb;fill:#231f20;fill-opacity:1;fill-rule:nonzero;stroke:none;font-family:Helvetica;-inkscape-font-specification:Helvetica">13.1</tspan><tspan x="0 2.0003321 4.0006642 5.0008302" y="6.7962461" id="tspan244" style="font-size:3.59771943px;font-variant:normal;font-weight:normal;writing-mode:lr-tb;fill:#231f20;fill-opacity:1;fill-rule:nonzero;stroke:none;font-family:Helvetica;-inkscape-font-specification:Helvetica">13.3</tspan><tspan x="-12.137532 -10.137199 -8.1368675 -7.1367016 -5.1355791" y="15.1645" id="tspan246" style="font-size:3.59771943px;font-variant:normal;font-weight:normal;writing-mode:lr-tb;fill:#231f20;fill-opacity:1;fill-rule:nonzero;stroke:none;font-family:Helvetica;-inkscape-font-specification:Helvetica">14.12</tspan></text>
</g>
          <path d="m 202.445,713.441 111.438,0" id="path248" style="fill:none;stroke:#231f20;stroke-width:1.82598996;stroke-linecap:butt;stroke-linejoin:miter;stroke-miterlimit:4;stroke-opacity:1;stroke-dasharray:none"/>
          <g transform="scale(10,10)" id="g250"><text transform="matrix(1,0,0,-0.90698012,20.5781,68.1457)" id="text252"><tspan x="0 2.0003321 4.0006642 5.0008302 7.0019526" y="0" id="tspan254" style="font-size:3.59771943px;font-variant:normal;font-weight:normal;writing-mode:lr-tb;fill:#231f20;fill-opacity:1;fill-rule:nonzero;stroke:none;font-family:Helvetica;-inkscape-font-specification:Helvetica">14.13</tspan><tspan x="2.0007825 4.0011144 6.0014467 7.0016127" y="6.3957081" id="tspan256" style="font-size:3.59771943px;font-variant:normal;font-weight:normal;writing-mode:lr-tb;fill:#231f20;fill-opacity:1;fill-rule:nonzero;stroke:none;font-family:Helvetica;-inkscape-font-specification:Helvetica">14.3</tspan><tspan x="2.0007825 4.0011144 6.0014467 7.0016127" y="3.197854" id="tspan258" style="font-size:3.59771943px;font-variant:normal;font-weight:normal;writing-mode:lr-tb;fill:#231f20;fill-opacity:1;fill-rule:nonzero;stroke:none;font-family:Helvetica;-inkscape-font-specification:Helvetica">14.2</tspan><tspan x="2.0007825 4.0011144 6.0014467 7.0016127" y="10.396799" id="tspan260" style="font-size:3.59771943px;font-variant:normal;font-weight:normal;writing-mode:lr-tb;fill:#231f20;fill-opacity:1;fill-rule:nonzero;stroke:none;font-family:Helvetica;-inkscape-font-specification:Helvetica">21.1</tspan><tspan x="2.0007825 4.0011144 6.0014467 7.0016127" y="13.993041" id="tspan262" style="font-size:3.59771943px;font-variant:normal;font-weight:normal;writing-mode:lr-tb;fill:#231f20;fill-opacity:1;fill-rule:nonzero;stroke:none;font-family:Helvetica;-inkscape-font-specification:Helvetica">21.2</tspan><tspan x="0 2.0003321 4.0006642 5.0008302 7.0019526" y="17.190895" id="tspan264" style="font-size:3.59771943px;font-variant:normal;font-weight:normal;writing-mode:lr-tb;fill:#231f20;fill-opacity:1;fill-rule:nonzero;stroke:none;font-family:Helvetica;-inkscape-font-specification:Helvetica">21.31</tspan><tspan x="0 2.0003321 4.0006642 5.0008302 7.0019526" y="23.786873" id="tspan266" style="font-size:3.59771943px;font-variant:normal;font-weight:normal;writing-mode:lr-tb;fill:#231f20;fill-opacity:1;fill-rule:nonzero;stroke:none;font-family:Helvetica;-inkscape-font-specification:Helvetica">21.33</tspan><tspan x="0 2.0003321 4.0006642 5.0008302 7.0019526" y="20.586868" id="tspan268" style="font-size:3.59771943px;font-variant:normal;font-weight:normal;writing-mode:lr-tb;fill:#231f20;fill-opacity:1;fill-rule:nonzero;stroke:none;font-family:Helvetica;-inkscape-font-specification:Helvetica">21.32</tspan><tspan x="2.0007825 4.0011144 6.0014467 7.0016127" y="29.181234" id="tspan270" style="font-size:3.59771943px;font-variant:normal;font-weight:normal;writing-mode:lr-tb;fill:#231f20;fill-opacity:1;fill-rule:nonzero;stroke:none;font-family:Helvetica;-inkscape-font-specification:Helvetica">22.2</tspan><tspan x="-8.1355476 -6.1352158 -4.1348839 -3.1347177" y="26.558344" id="tspan272" style="font-size:3.59771943px;font-variant:normal;font-weight:normal;writing-mode:lr-tb;fill:#231f20;fill-opacity:1;fill-rule:nonzero;stroke:none;font-family:Helvetica;-inkscape-font-specification:Helvetica">22.1</tspan></text>
</g>
          <path d="m 202.445,450.59 111.438,0" id="path274" style="fill:none;stroke:#231f20;stroke-width:1.82598996;stroke-linecap:butt;stroke-linejoin:miter;stroke-miterlimit:4;stroke-opacity:1;stroke-dasharray:none"/>
          <g transform="scale(10,10)" id="g276"><text transform="matrix(1,0,0,-0.90698012,12.4426,39.8898)" id="text278"><tspan x="0 2.0003321 4.0006642 5.0008302" y="0" id="tspan280" style="font-size:3.59771943px;font-variant:normal;font-weight:normal;writing-mode:lr-tb;fill:#231f20;fill-opacity:1;fill-rule:nonzero;stroke:none;font-family:Helvetica;-inkscape-font-specification:Helvetica">22.3</tspan></text>
</g>
          <path d="m 202.445,408.871 111.438,0" id="path282" style="fill:none;stroke:#231f20;stroke-width:1.82598996;stroke-linecap:butt;stroke-linejoin:miter;stroke-miterlimit:4;stroke-opacity:1;stroke-dasharray:none"/>
          <g transform="scale(10,10)" id="g284"><text transform="matrix(1,0,0,-0.90698012,22.5789,36.4211)" id="text286"><tspan x="0 2.0003321 4.0006642 5.0008302" y="0" id="tspan288" style="font-size:3.59771943px;font-variant:normal;font-weight:normal;writing-mode:lr-tb;fill:#231f20;fill-opacity:1;fill-rule:nonzero;stroke:none;font-family:Helvetica;-inkscape-font-specification:Helvetica">31.1</tspan><tspan x="0 2.0003321 4.0006642 5.0008302" y="3.7965109" id="tspan290" style="font-size:3.59771943px;font-variant:normal;font-weight:normal;writing-mode:lr-tb;fill:#231f20;fill-opacity:1;fill-rule:nonzero;stroke:none;font-family:Helvetica;-inkscape-font-specification:Helvetica">31.2</tspan><tspan x="0 2.0003321 4.0006642 5.0008302" y="6.9965148" id="tspan292" style="font-size:3.59771943px;font-variant:normal;font-weight:normal;writing-mode:lr-tb;fill:#231f20;fill-opacity:1;fill-rule:nonzero;stroke:none;font-family:Helvetica;-inkscape-font-specification:Helvetica">31.3</tspan><tspan x="0 2.0003321 4.0006642 5.0008302" y="10.194369" id="tspan294" style="font-size:3.59771943px;font-variant:normal;font-weight:normal;writing-mode:lr-tb;fill:#231f20;fill-opacity:1;fill-rule:nonzero;stroke:none;font-family:Helvetica;-inkscape-font-specification:Helvetica">32.1</tspan><tspan x="0 2.0003321 4.0006642 5.0008302" y="15.388463" id="tspan296" style="font-size:3.59771943px;font-variant:normal;font-weight:normal;writing-mode:lr-tb;fill:#231f20;fill-opacity:1;fill-rule:nonzero;stroke:none;font-family:Helvetica;-inkscape-font-specification:Helvetica">32.3</tspan><tspan x="-10.136331 -8.1359978 -6.1356664 -5.1355004" y="12.365034" id="tspan298" style="font-size:3.59771943px;font-variant:normal;font-weight:normal;writing-mode:lr-tb;fill:#231f20;fill-opacity:1;fill-rule:nonzero;stroke:none;font-family:Helvetica;-inkscape-font-specification:Helvetica">32.2</tspan></text>
</g>
          <path d="m 202.445,262.055 111.438,0" id="path300" style="fill:none;stroke:#231f20;stroke-width:1.82598996;stroke-linecap:butt;stroke-linejoin:miter;stroke-miterlimit:4;stroke-opacity:1;stroke-dasharray:none"/>
          <g transform="scale(10,10)" id="g302"><text transform="matrix(1,0,0,-0.90698012,22.5789,19.3801)" id="text304"><tspan x="0 2.0003321 4.0006642 5.0008302" y="0" id="tspan306" style="font-size:3.59771943px;font-variant:normal;font-weight:normal;writing-mode:lr-tb;fill:#231f20;fill-opacity:1;fill-rule:nonzero;stroke:none;font-family:Helvetica;-inkscape-font-specification:Helvetica">33.1</tspan><tspan x="-10.136331 -8.1359978 -6.1356664 -5.1355004" y="2.5690529" id="tspan308" style="font-size:3.59771943px;font-variant:normal;font-weight:normal;writing-mode:lr-tb;fill:#231f20;fill-opacity:1;fill-rule:nonzero;stroke:none;font-family:Helvetica;-inkscape-font-specification:Helvetica">33.2</tspan></text>
</g>
          <path d="m 202.445,180.488 111.438,0" id="path310" style="fill:none;stroke:#231f20;stroke-width:1.82598996;stroke-linecap:butt;stroke-linejoin:miter;stroke-miterlimit:4;stroke-opacity:1;stroke-dasharray:none"/>
          <g transform="scale(10,10)" id="g312"><text transform="matrix(1,0,0,-0.90698012,22.5789,15.0309)" id="text314"><tspan x="0 2.0003321 4.0006642 5.0008302" y="0" id="tspan316" style="font-size:3.59771943px;font-variant:normal;font-weight:normal;writing-mode:lr-tb;fill:#231f20;fill-opacity:1;fill-rule:nonzero;stroke:none;font-family:Helvetica;-inkscape-font-specification:Helvetica">33.3</tspan><tspan x="2.9999995 5.0009785" y="4.2965441" id="tspan318" style="font-size:3.59771943px;font-variant:normal;font-weight:normal;writing-mode:lr-tb;fill:#231f20;fill-opacity:1;fill-rule:nonzero;stroke:none;font-family:Helvetica;-inkscape-font-specification:Helvetica">34</tspan></text>
</g>
        </g>
      </g>
    </g>
  </g>
</svg>
