<?xml version="1.0" encoding="UTF-8"?>
<svg xmlns:xlink="http://www.w3.org/1999/xlink" xmlns="http://www.w3.org/2000/svg" contentScriptType="text/ecmascript" zoomAndPan="magnify" contentStyleType="text/css" preserveAspectRatio="xMidYMid meet" version="1.0">

<g id="chromosome13" title="Chromosome 13">
<path style="fill:#211c1d;fill-opacity:1;fill-rule:nonzero;stroke:none" id="13q21.1" d="m 38.796875,137.70675 11.3818375,0.0 0.0,-5.212400000000001 -11.3818375,-0.0 0.0,5.212400000000001 z "/>
<path style="fill:#7a7e82;fill-opacity:1;fill-rule:nonzero;stroke:none" id="13q13.3" d="m 38.796875,113.80050000000001 11.3818375,0.0 0.0,-6.232912500000001 -11.3818375,-0.0 0.0,6.232912500000001 z "/>
<path style="fill:none;stroke:#211c1d;stroke-width:0.1;stroke-linecap:butt;stroke-linejoin:miter;stroke-miterlimit:4;stroke-opacity:1;stroke-dasharray:none" id="13q13.3-o" d="m 38.796875,113.80050000000001 11.3818375,0.0 0.0,-6.232912500000001 -11.3818375,-0.0 0.0,6.232912500000001 z "/>
<path style="fill:#7a7e82;fill-opacity:1;fill-rule:nonzero;stroke:none" id="13q21.31" d="m 38.796875,144.39125 11.3818375,0.0 0.0,-4.1919 -11.3818375,-0.0 0.0,4.1919 z "/>
<path style="fill:none;stroke:#211c1d;stroke-width:0.1;stroke-linecap:butt;stroke-linejoin:miter;stroke-miterlimit:4;stroke-opacity:1;stroke-dasharray:none" id="13q21.31-o" d="m 38.796875,144.39125 11.3818375,0.0 0.0,-4.1919 -11.3818375,-0.0 0.0,4.1919 z "/>
<path style="fill:#211c1d;fill-opacity:1;fill-rule:nonzero;stroke:none" id="13q21.33" d="m 38.796875,152.43574999999998 11.3818375,0.0 0.0,-5.4419 -11.3818375,-0.0 0.0,5.4419 z "/>
<path style="fill:#bbbcbd;fill-opacity:1;fill-rule:nonzero;stroke:none" id="13q13.1" d="m 38.796875,105.074875 11.3818375,0.0 0.0,-3.173825 -11.3818375,-0.0 0.0,3.173825 z "/>
<path style="fill:none;stroke:#211c1d;stroke-width:0.1;stroke-linecap:butt;stroke-linejoin:miter;stroke-miterlimit:4;stroke-opacity:1;stroke-dasharray:none" id="13q13.1-o" d="m 38.796875,105.074875 11.3818375,0.0 0.0,-3.173825 -11.3818375,-0.0 0.0,3.173825 z "/>
<path style="fill:#bbbcbd;fill-opacity:1;fill-rule:nonzero;stroke:none" id="13q14.2" d="m 38.796875,127.736 11.3818375,0.0 0.0,-3.8525375 -11.3818375,-0.0 0.0,3.8525375 z "/>
<path style="fill:none;stroke:#211c1d;stroke-width:0.1;stroke-linecap:butt;stroke-linejoin:miter;stroke-miterlimit:4;stroke-opacity:1;stroke-dasharray:none" id="13q14.2-o" d="m 38.796875,127.736 11.3818375,0.0 0.0,-3.8525375 -11.3818375,-0.0 0.0,3.8525375 z "/>
<path style="fill:#bbbcbd;fill-opacity:1;fill-rule:nonzero;stroke:none" id="13q22.2" d="m 38.796875,157.42112500000002 11.3818375,0.0 0.0,-2.7221625 -11.3818375,-0.0 0.0,2.7221625 z "/>
<path style="fill:none;stroke:#211c1d;stroke-width:0.1;stroke-linecap:butt;stroke-linejoin:miter;stroke-miterlimit:4;stroke-opacity:1;stroke-dasharray:none" id="13q22.2-o" d="m 38.796875,157.42112500000002 11.3818375,0.0 0.0,-2.7221625 -11.3818375,-0.0 0.0,2.7221625 z "/>
<path style="fill:#211c1d;fill-opacity:1;fill-rule:nonzero;stroke:none" id="13q31.1" d="m 38.796875,166.486 11.3818375,0.0 0.0,-6.799312500000001 -11.3818375,-0.0 0.0,6.799312500000001 z "/>
<path style="fill:#211c1d;fill-opacity:1;fill-rule:nonzero;stroke:none" id="13q31.3" d="m 38.796875,172.37475 11.3818375,0.0 0.0,-4.3042 -11.3818375,-0.0 0.0,4.3042 z "/>
<path style="fill:#e9eae9;fill-opacity:1;fill-rule:nonzero;stroke:none" id="13q12.2" d="m 38.796875,97.14275 11.3818375,0.0 0.0,-2.377925 -11.3818375,-0.0 0.0,2.377925 z "/>
<path style="fill:none;stroke:#211c1d;stroke-width:0.1;stroke-linecap:butt;stroke-linejoin:miter;stroke-miterlimit:4;stroke-opacity:1;stroke-dasharray:none" id="13q12.2-o" d="m 38.796875,97.14275 11.3818375,0.0 0.0,-2.377925 -11.3818375,-0.0 0.0,2.377925 z "/>
<path style="fill:#e9eae9;fill-opacity:1;fill-rule:nonzero;stroke:none" id="13q12.12" d="m 38.796875,91.70575 11.3818375,0.0 0.0,-2.492675 -11.3818375,-0.0 0.0,2.492675 z "/>
<path style="fill:none;stroke:#211c1d;stroke-width:0.1;stroke-linecap:butt;stroke-linejoin:miter;stroke-miterlimit:4;stroke-opacity:1;stroke-dasharray:none" id="13q12.12-o" d="m 38.796875,91.70575 11.3818375,0.0 0.0,-2.492675 -11.3818375,-0.0 0.0,2.492675 z "/>
<path style="fill:#e9eae9;fill-opacity:1;fill-rule:nonzero;stroke:none" id="13q14.12" d="m 38.796875,121.84487499999999 11.3818375,0.0 0.0,-2.492675 -11.3818375,-0.0 0.0,2.492675 z "/>
<path style="fill:none;stroke:#211c1d;stroke-width:0.1;stroke-linecap:butt;stroke-linejoin:miter;stroke-miterlimit:4;stroke-opacity:1;stroke-dasharray:none" id="13q14.12-o" d="m 38.796875,121.84487499999999 11.3818375,0.0 0.0,-2.492675 -11.3818375,-0.0 0.0,2.492675 z "/>
<path style="fill:#e9eae9;fill-opacity:1;fill-rule:nonzero;stroke:none" id="13q32.2" d="m 38.796875,178.270625 11.3818375,0.0 0.0,-2.7221625 -11.3818375,-0.0 0.0,2.7221625 z "/>
<path style="fill:none;stroke:#211c1d;stroke-width:0.1;stroke-linecap:butt;stroke-linejoin:miter;stroke-miterlimit:4;stroke-opacity:1;stroke-dasharray:none" id="13q32.2-o" d="m 38.796875,178.270625 11.3818375,0.0 0.0,-2.7221625 -11.3818375,-0.0 0.0,2.7221625 z "/>
<path style="fill:#211c1d;fill-opacity:1;fill-rule:nonzero;stroke:none" id="13q33.1" d="m 38.796875,186.19987500000002 11.3818375,0.0 0.0,-3.7421875000000004 -11.3818375,-0.0 0.0,3.7421875000000004 z "/>
<path style="fill:#211c1d;fill-opacity:1;fill-rule:nonzero;stroke:none" id="13q33.3" d="m 38.796875,192.20375 11.3818375,0.0 0.0,-4.5336875 -11.3818375,-0.0 0.0,4.5336875 z "/>
<path style="fill:#fffafa;stroke:#211c1d;stroke-width:0.1;stroke-linecap:butt;stroke-linejoin:miter;stroke-miterlimit:4;stroke-opacity:1;stroke-dasharray:none" id="13q12.13" d="m 38.796875,94.764825 11.3818375,0.0 0,-3.059075000000007 -11.3818375,-0.0 0,3.059075000000007 z "/>
<path style="fill:#fffafa;stroke:#211c1d;stroke-width:0.1;stroke-linecap:butt;stroke-linejoin:miter;stroke-miterlimit:4;stroke-opacity:1;stroke-dasharray:none" id="13q12.3" d="m 38.796875,101.90105000000001 11.3818375,0.0 0,-4.7583000000000055 -11.3818375,-0.0 0,4.7583000000000055 z "/>
<path style="fill:#fffafa;stroke:#211c1d;stroke-width:0.1;stroke-linecap:butt;stroke-linejoin:miter;stroke-miterlimit:4;stroke-opacity:1;stroke-dasharray:none" id="13q22.1" d="m 38.796875,154.69896250000002 11.3818375,0.0 0,-2.263212500000037 -11.3818375,-0.0 0,2.263212500000037 z "/>
<path style="fill:#fffafa;stroke:#211c1d;stroke-width:0.1;stroke-linecap:butt;stroke-linejoin:miter;stroke-miterlimit:4;stroke-opacity:1;stroke-dasharray:none" id="13q21.2" d="m 38.796875,140.19935 11.3818375,0.0 0,-2.49260000000001 -11.3818375,-0.0 0,2.49260000000001 z "/>
<path style="fill:#fffafa;stroke:#211c1d;stroke-width:0.1;stroke-linecap:butt;stroke-linejoin:miter;stroke-miterlimit:4;stroke-opacity:1;stroke-dasharray:none" id="13q13.2" d="m 38.796875,107.56758750000002 11.3818375,0.0 0,-2.4927125000000103 -11.3818375,-0.0 0,2.4927125000000103 z "/>
<path style="fill:#fffafa;stroke:#211c1d;stroke-width:0.1;stroke-linecap:butt;stroke-linejoin:miter;stroke-miterlimit:4;stroke-opacity:1;stroke-dasharray:none" id="13q21.32" d="m 38.796875,146.99384999999998 11.3818375,0.0 0,-2.602599999999967 -11.3818375,-0.0 0,2.602599999999967 z "/>
<path style="fill:#fffafa;stroke:#211c1d;stroke-width:0.1;stroke-linecap:butt;stroke-linejoin:miter;stroke-miterlimit:4;stroke-opacity:1;stroke-dasharray:none" id="13q32.3" d="m 38.796875,182.45768750000002 11.3818375,0.0 0,-4.187062500000025 -11.3818375,-0.0 0,4.187062500000025 z "/>
<path style="fill:#fffafa;stroke:#211c1d;stroke-width:0.1;stroke-linecap:butt;stroke-linejoin:miter;stroke-miterlimit:4;stroke-opacity:1;stroke-dasharray:none" id="13q22.3" d="m 38.796875,159.68668749999998 11.3818375,0.0 0,-2.265562499999959 -11.3818375,-0.0 0,2.265562499999959 z "/>
<path style="fill:#fffafa;stroke:#211c1d;stroke-width:0.1;stroke-linecap:butt;stroke-linejoin:miter;stroke-miterlimit:4;stroke-opacity:1;stroke-dasharray:none" id="13q14.3" d="m 38.796875,132.49435 11.3818375,0.0 0,-4.758349999999993 -11.3818375,-0.0 0,4.758349999999993 z "/>
<path style="fill:#fffafa;stroke:#211c1d;stroke-width:0.1;stroke-linecap:butt;stroke-linejoin:miter;stroke-miterlimit:4;stroke-opacity:1;stroke-dasharray:none" id="13q32.1" d="m 38.796875,175.5484625 11.3818375,0.0 0,-3.1737124999999935 -11.3818375,-0.0 0,3.1737124999999935 z "/>
<path style="fill:#fffafa;stroke:#211c1d;stroke-width:0.1;stroke-linecap:butt;stroke-linejoin:miter;stroke-miterlimit:4;stroke-opacity:1;stroke-dasharray:none" id="13q34" d="m 38.796875,192.20375 0.0,2.5 c 0.0,1.4173750000000003 2.543,2.564875 5.682625,2.564875 3.1372500000000003,0.0 5.67875,-1.1475 5.67875,-2.564875 l 0.0,-2.5 -11.3818375,-0.0 z"/>
<path style="fill:#fffafa;stroke:#211c1d;stroke-width:0.1;stroke-linecap:butt;stroke-linejoin:miter;stroke-miterlimit:4;stroke-opacity:1;stroke-dasharray:none" id="13q14.13" d="m 38.796875,123.88346250000001 11.3818375,0.0 0,-2.0385875000000198 -11.3818375,-0.0 0,2.0385875000000198 z "/>
<path style="fill:#fffafa;stroke:#211c1d;stroke-width:0.1;stroke-linecap:butt;stroke-linejoin:miter;stroke-miterlimit:4;stroke-opacity:1;stroke-dasharray:none" id="13q31.2" d="m 38.796875,168.07055 11.3818375,0.0 0,-1.5845500000000072 -11.3818375,-0.0 0,1.5845500000000072 z "/>
<path style="fill:#fffafa;stroke:#211c1d;stroke-width:0.1;stroke-linecap:butt;stroke-linejoin:miter;stroke-miterlimit:4;stroke-opacity:1;stroke-dasharray:none" id="13q33.2" d="m 38.796875,187.6700625 11.3818375,0.0 0,-1.4701874999999802 -11.3818375,-0.0 0,1.4701874999999802 z "/>
<path style="fill:#fffafa;stroke:#211c1d;stroke-width:0.1;stroke-linecap:butt;stroke-linejoin:miter;stroke-miterlimit:4;stroke-opacity:1;stroke-dasharray:none" id="13q14.11" d="m 38.796875,119.35219999999998 11.3818375,0.0 0,-5.551699999999968 -11.3818375,-0.0 0,5.551699999999968 z "/>
<path style="fill:#fffafa;stroke:#211c1d;stroke-width:0.1;stroke-linecap:butt;stroke-linejoin:miter;stroke-miterlimit:4;stroke-opacity:1;stroke-dasharray:none" id="13q12.11" d="m 38.796875,89.21307499999999 11.3818375,0.0 0,-3.793949999999981 -11.3818375,-0.0 0,3.793949999999981 z "/>
<path style="fill:#a4bdc8;fill-opacity:1;fill-rule:nonzero;stroke:none" id="centromere13-f" d="m 50.169,85.41912500000001 0.0,0.056125 c 0.0,-0.964 -1.17775,-2.5490000000000004 -2.921,-3.4565 1.7432500000000002,-0.9062500000000001 2.921,-2.4937500000000004 2.921,-3.455 l 0.0,-0.5662500000000001 -11.363375,-0.0 0.0,0.5662500000000001 c 0.0,0.96375 1.1875,2.55125 2.941875,3.455 -1.7543750000000002,0.9050000000000001 -2.941875,2.49 -2.941875,3.4565 l 0.0,-0.056125 11.363375,0.0 "/>
<path style="fill:none;stroke:#100f0d;stroke-width:0.8;stroke-linecap:butt;stroke-linejoin:miter;stroke-miterlimit:4;stroke-opacity:1;stroke-dasharray:none" id="centromere13-o" d="m 50.169,85.41912500000001 0.0,0.056125 c 0.0,-0.964 -1.17775,-2.5490000000000004 -2.921,-3.4565 1.7432500000000002,-0.9062500000000001 2.921,-2.4937500000000004 2.921,-3.455 l 0.0,-0.5662500000000001 -11.363375,-0.0 0.0,0.5662500000000001 c 0.0,0.96375 1.1875,2.55125 2.941875,3.455 -1.7543750000000002,0.9050000000000001 -2.941875,2.49 -2.941875,3.4565 l 0.0,-0.056125 11.363375,0.0 z "/>
<path style="fill:none;stroke:#211c1d;stroke-width:0.8;stroke-linecap:butt;stroke-linejoin:miter;stroke-miterlimit:4;stroke-opacity:1;stroke-dasharray:none" id="outline13" d="m 41.7475,82.01875000000001 c -1.7552500000000002,0.9050000000000001 -2.940875,2.49 -2.940875,3.4565 l 0.0,109.1075 c 0.0,1.4173750000000003 2.543,2.564875 5.682625,2.564875 3.1372500000000003,0.0 5.67875,-1.1475 5.67875,-2.564875 l 0.0,-109.1075 c 0.0,-0.964 -1.17675,-2.5490000000000004 -2.92,-3.4565 1.7432500000000002,-0.9062500000000001 2.92,-2.4937500000000004 2.92,-3.455 l 0.0,-6.5725 c 0.0,-1.41625 -2.5415000000000005,-2.56375 -5.67875,-2.56375 -3.1396250000000006,-0.0 -5.682625,1.1475 -5.682625,2.56375 l 0.0,6.5725 c 0.0,0.9662500000000002 1.185625,2.55125 2.940875,3.455 z "/>
<path style="fill:#c4cdf2;fill-opacity:1;fill-rule:nonzero;stroke:none" id="satellite13" d="m 38.80325,77.99750000000002 0.0,-6.008750000000001 c 0.0,-1.23 1.9262500000000002,-2.26 4.492125,-2.5075 l -0.00725,-7.39 c -1.294,-0.45625 -2.2095,-1.5937500000000002 -2.2095,-2.9325 0.0,-1.735 1.55125,-3.1437500000000003 3.464375,-3.1437500000000003 1.915,0.0 3.4692500000000006,1.40875 3.4692500000000006,3.1437500000000003 0.0,1.33875 -0.918,2.47625 -2.213375,2.9325 l -0.0035000000000000005,7.402500000000001 c 2.504875,0.26875 4.371125,1.28375 4.371125,2.495 l 0.0,6.008750000000001 -11.36325,-0.0 "/>
<path style="fill:none;stroke:#211c1d;stroke-width:0.8;stroke-linecap:butt;stroke-linejoin:miter;stroke-miterlimit:4;stroke-opacity:1;stroke-dasharray:none" id="satellite13-o" d="m 38.80325,77.99750000000002 0.0,-6.008750000000001 c 0.0,-1.23 1.9262500000000002,-2.26 4.492125,-2.5075 l -0.00725,-7.39 c -1.294,-0.45625 -2.2095,-1.5937500000000002 -2.2095,-2.9325 0.0,-1.735 1.55125,-3.1437500000000003 3.464375,-3.1437500000000003 1.915,0.0 3.4692500000000006,1.40875 3.4692500000000006,3.1437500000000003 0.0,1.33875 -0.918,2.47625 -2.213375,2.9325 l -0.0035000000000000005,7.402500000000001 c 2.504875,0.26875 4.371125,1.28375 4.371125,2.495 l 0.0,6.008750000000001 -11.36325,-0.0 z "/>
<path style="fill:none;stroke:#231f20;stroke-width:0.8;stroke-linecap:butt;stroke-linejoin:miter;stroke-miterlimit:4;stroke-opacity:1;stroke-dasharray:none;display:none" id="centre13" d="M 41.349625,82.055 0.0,82.055 "/>
<text>
<tspan x="38.791000000000004 43.79343550000001" y="205.80242500000003" id="label13" style="font-size:7.19543791px;font-variant:normal;font-weight:normal;writing-mode:lr-tb;fill:#211c1d;fill-opacity:1;fill-rule:nonzero;stroke:none;font-family:Helvetica;-inkscape-font-specification:Helvetica">13</tspan>
</text>
</g>
</svg>
