<?xml version="1.0" encoding="UTF-8"?>
<svg xmlns:xlink="http://www.w3.org/1999/xlink" xmlns="http://www.w3.org/2000/svg" contentScriptType="text/ecmascript" zoomAndPan="magnify" contentStyleType="text/css" preserveAspectRatio="xMidYMid meet" version="1.0">
<g>
<path style="fill:#a4bdc8;fill-opacity:1;fill-rule:nonzero;stroke:none" d="m 50.169,29.717875000000006 0.0,0.056125 c 0.0,-0.964 -1.17775,-2.5490000000000004 -2.921,-3.4565 1.7432500000000002,-0.9062500000000001 2.921,-2.4937500000000004 2.921,-3.455 l 0.0,-0.5662500000000001 -11.363375,-0.0 0.0,0.5662500000000001 c 0.0,0.96375 1.1875,2.55125 2.941875,3.455 -1.7543750000000002,0.9050000000000001 -2.941875,2.49 -2.941875,3.4565 l 0.0,-0.056125 11.363375,0.0 " id="centromere13-f"/>
<path style="fill:none;stroke:#100f0d;stroke-width:0.8;stroke-linecap:butt;stroke-linejoin:miter;stroke-miterlimit:4;stroke-opacity:1;stroke-dasharray:none" d="m 50.169,29.717875000000006 0.0,0.056125 c 0.0,-0.964 -1.17775,-2.5490000000000004 -2.921,-3.4565 1.7432500000000002,-0.9062500000000001 2.921,-2.4937500000000004 2.921,-3.455 l 0.0,-0.5662500000000001 -11.363375,-0.0 0.0,0.5662500000000001 c 0.0,0.96375 1.1875,2.55125 2.941875,3.455 -1.7543750000000002,0.9050000000000001 -2.941875,2.49 -2.941875,3.4565 l 0.0,-0.056125 11.363375,0.0 z " id="centromere13-o"/>
<path style="fill:#211c1d;fill-opacity:1;fill-rule:nonzero;stroke:none" d="m 38.796875,82.00550000000001 11.3818375,0.0 0.0,-5.212400000000001 -11.3818375,-0.0 0.0,5.212400000000001 z " id="path32"/>
<path style="fill:#7a7e82;fill-opacity:1;fill-rule:nonzero;stroke:none" d="m 38.796875,58.09925000000001 11.3818375,0.0 0.0,-6.232912500000001 -11.3818375,-0.0 0.0,6.232912500000001 z " id="path34"/>
<path style="fill:none;stroke:#211c1d;stroke-width:0.1;stroke-linecap:butt;stroke-linejoin:miter;stroke-miterlimit:4;stroke-opacity:1;stroke-dasharray:none" d="m 38.796875,58.09925000000001 11.3818375,0.0 0.0,-6.232912500000001 -11.3818375,-0.0 0.0,6.232912500000001 z " id="path36"/>
<path style="fill:#7a7e82;fill-opacity:1;fill-rule:nonzero;stroke:none" d="m 38.796875,88.69 11.3818375,0.0 0.0,-4.1919 -11.3818375,-0.0 0.0,4.1919 z " id="path38"/>
<path style="fill:none;stroke:#211c1d;stroke-width:0.1;stroke-linecap:butt;stroke-linejoin:miter;stroke-miterlimit:4;stroke-opacity:1;stroke-dasharray:none" d="m 38.796875,88.69 11.3818375,0.0 0.0,-4.1919 -11.3818375,-0.0 0.0,4.1919 z " id="path40"/>
<path style="fill:#211c1d;fill-opacity:1;fill-rule:nonzero;stroke:none" d="m 38.796875,96.7345 11.3818375,0.0 0.0,-5.4419 -11.3818375,-0.0 0.0,5.4419 z " id="path42"/>
<path style="fill:#bbbcbd;fill-opacity:1;fill-rule:nonzero;stroke:none" d="m 38.796875,49.373625000000004 11.3818375,0.0 0.0,-3.173825 -11.3818375,-0.0 0.0,3.173825 z " id="path44"/>
<path style="fill:none;stroke:#211c1d;stroke-width:0.1;stroke-linecap:butt;stroke-linejoin:miter;stroke-miterlimit:4;stroke-opacity:1;stroke-dasharray:none" d="m 38.796875,49.373625000000004 11.3818375,0.0 0.0,-3.173825 -11.3818375,-0.0 0.0,3.173825 z " id="path46"/>
<path style="fill:#bbbcbd;fill-opacity:1;fill-rule:nonzero;stroke:none" d="m 38.796875,72.03475 11.3818375,0.0 0.0,-3.8525375 -11.3818375,-0.0 0.0,3.8525375 z " id="path48"/>
<path style="fill:none;stroke:#211c1d;stroke-width:0.1;stroke-linecap:butt;stroke-linejoin:miter;stroke-miterlimit:4;stroke-opacity:1;stroke-dasharray:none" d="m 38.796875,72.03475 11.3818375,0.0 0.0,-3.8525375 -11.3818375,-0.0 0.0,3.8525375 z " id="path50"/>
<path style="fill:#bbbcbd;fill-opacity:1;fill-rule:nonzero;stroke:none" d="m 38.796875,101.719875 11.3818375,0.0 0.0,-2.7221625 -11.3818375,-0.0 0.0,2.7221625 z " id="path52"/>
<path style="fill:none;stroke:#211c1d;stroke-width:0.1;stroke-linecap:butt;stroke-linejoin:miter;stroke-miterlimit:4;stroke-opacity:1;stroke-dasharray:none" d="m 38.796875,101.719875 11.3818375,0.0 0.0,-2.7221625 -11.3818375,-0.0 0.0,2.7221625 z " id="path54"/>
<path style="fill:#211c1d;fill-opacity:1;fill-rule:nonzero;stroke:none" d="m 38.796875,110.78475 11.3818375,0.0 0.0,-6.799312500000001 -11.3818375,-0.0 0.0,6.799312500000001 z " id="path56"/>
<path style="fill:#211c1d;fill-opacity:1;fill-rule:nonzero;stroke:none" d="m 38.796875,116.6735 11.3818375,0.0 0.0,-4.3042 -11.3818375,-0.0 0.0,4.3042 z " id="path58"/>
<path style="fill:#e9eae9;fill-opacity:1;fill-rule:nonzero;stroke:none" d="m 38.796875,41.441500000000005 11.3818375,0.0 0.0,-2.377925 -11.3818375,-0.0 0.0,2.377925 z " id="path60"/>
<path style="fill:none;stroke:#211c1d;stroke-width:0.1;stroke-linecap:butt;stroke-linejoin:miter;stroke-miterlimit:4;stroke-opacity:1;stroke-dasharray:none" d="m 38.796875,41.441500000000005 11.3818375,0.0 0.0,-2.377925 -11.3818375,-0.0 0.0,2.377925 z " id="path62"/>
<path style="fill:#e9eae9;fill-opacity:1;fill-rule:nonzero;stroke:none" d="m 38.796875,36.00449999999999 11.3818375,0.0 0.0,-2.492675 -11.3818375,-0.0 0.0,2.492675 z " id="path64"/>
<path style="fill:none;stroke:#211c1d;stroke-width:0.1;stroke-linecap:butt;stroke-linejoin:miter;stroke-miterlimit:4;stroke-opacity:1;stroke-dasharray:none" d="m 38.796875,36.00449999999999 11.3818375,0.0 0.0,-2.492675 -11.3818375,-0.0 0.0,2.492675 z " id="path66"/>
<path style="fill:#e9eae9;fill-opacity:1;fill-rule:nonzero;stroke:none" d="m 38.796875,66.14362499999999 11.3818375,0.0 0.0,-2.492675 -11.3818375,-0.0 0.0,2.492675 z " id="path68"/>
<path style="fill:none;stroke:#211c1d;stroke-width:0.1;stroke-linecap:butt;stroke-linejoin:miter;stroke-miterlimit:4;stroke-opacity:1;stroke-dasharray:none" d="m 38.796875,66.14362499999999 11.3818375,0.0 0.0,-2.492675 -11.3818375,-0.0 0.0,2.492675 z " id="path70"/>
<path style="fill:#e9eae9;fill-opacity:1;fill-rule:nonzero;stroke:none" d="m 38.796875,122.56937500000001 11.3818375,0.0 0.0,-2.7221625 -11.3818375,-0.0 0.0,2.7221625 z " id="path72"/>
<path style="fill:none;stroke:#211c1d;stroke-width:0.1;stroke-linecap:butt;stroke-linejoin:miter;stroke-miterlimit:4;stroke-opacity:1;stroke-dasharray:none" d="m 38.796875,122.56937500000001 11.3818375,0.0 0.0,-2.7221625 -11.3818375,-0.0 0.0,2.7221625 z " id="path74"/>
<path style="fill:#211c1d;fill-opacity:1;fill-rule:nonzero;stroke:none" d="m 38.796875,130.498625 11.3818375,0.0 0.0,-3.7421875000000004 -11.3818375,-0.0 0.0,3.7421875000000004 z " id="path76"/>
<path style="fill:#211c1d;fill-opacity:1;fill-rule:nonzero;stroke:none" d="m 38.796875,136.5025 11.3818375,0.0 0.0,-4.5336875 -11.3818375,-0.0 0.0,4.5336875 z " id="path78"/>
<path style="fill:none;stroke:#211c1d;stroke-width:0.8;stroke-linecap:butt;stroke-linejoin:miter;stroke-miterlimit:4;stroke-opacity:1;stroke-dasharray:none" d="m 41.7475,26.31750000000001 c -1.7552500000000002,0.9050000000000001 -2.940875,2.49 -2.940875,3.4565 l 0.0,109.1075 c 0.0,1.4173750000000003 2.543,2.564875 5.682625,2.564875 3.1372500000000003,0.0 5.67875,-1.1475 5.67875,-2.564875 l 0.0,-109.1075 c 0.0,-0.964 -1.17675,-2.5490000000000004 -2.92,-3.4565 1.7432500000000002,-0.9062500000000001 2.92,-2.4937500000000004 2.92,-3.455 l 0.0,-6.5725 c 0.0,-1.41625 -2.5415000000000005,-2.56375 -5.67875,-2.56375 -3.1396250000000006,-0.0 -5.682625,1.1475 -5.682625,2.56375 l 0.0,6.5725 c 0.0,0.9662500000000002 1.185625,2.55125 2.940875,3.455 z " id="path80"/>
<path style="fill:#c4cdf2;fill-opacity:1;fill-rule:nonzero;stroke:none" d="m 38.80325,22.296250000000015 0.0,-6.008750000000001 c 0.0,-1.23 1.9262500000000002,-2.26 4.492125,-2.5075 l -0.00725,-7.39 c -1.294,-0.45625 -2.2095,-1.5937500000000002 -2.2095,-2.9325 0.0,-1.735 1.55125,-3.1437500000000003 3.464375,-3.1437500000000003 1.915,0.0 3.4692500000000006,1.40875 3.4692500000000006,3.1437500000000003 0.0,1.33875 -0.918,2.47625 -2.213375,2.9325 l -0.0035000000000000005,7.402500000000001 c 2.504875,0.26875 4.371125,1.28375 4.371125,2.495 l 0.0,6.008750000000001 -11.36325,-0.0 " id="path196"/>
<path style="fill:none;stroke:#211c1d;stroke-width:0.8;stroke-linecap:butt;stroke-linejoin:miter;stroke-miterlimit:4;stroke-opacity:1;stroke-dasharray:none" d="m 38.80325,22.296250000000015 0.0,-6.008750000000001 c 0.0,-1.23 1.9262500000000002,-2.26 4.492125,-2.5075 l -0.00725,-7.39 c -1.294,-0.45625 -2.2095,-1.5937500000000002 -2.2095,-2.9325 0.0,-1.735 1.55125,-3.1437500000000003 3.464375,-3.1437500000000003 1.915,0.0 3.4692500000000006,1.40875 3.4692500000000006,3.1437500000000003 0.0,1.33875 -0.918,2.47625 -2.213375,2.9325 l -0.0035000000000000005,7.402500000000001 c 2.504875,0.26875 4.371125,1.28375 4.371125,2.495 l 0.0,6.008750000000001 -11.36325,-0.0 z " id="outline13"/>
<path style="fill:none;stroke:#231f20;stroke-width:0.8;stroke-linecap:butt;stroke-linejoin:miter;stroke-miterlimit:4;stroke-opacity:1;stroke-dasharray:none;display:none" d="M 41.349625,26.353750000000005 0.0,26.353750000000005 " id="centre13"/>
<text>
<tspan x="38.791000000000004 43.79343550000001" y="150.101175" id="label13" style="font-size:7.19543791px;font-variant:normal;font-weight:normal;writing-mode:lr-tb;fill:#211c1d;fill-opacity:1;fill-rule:nonzero;stroke:none;font-family:Helvetica;-inkscape-font-specification:Helvetica">13</tspan>
</text>
</g>
</svg>
