<?xml version="1.0" encoding="UTF-8"?>
<svg xmlns:xlink="http://www.w3.org/1999/xlink" xmlns="http://www.w3.org/2000/svg" contentScriptType="text/ecmascript" zoomAndPan="magnify" contentStyleType="text/css" preserveAspectRatio="xMidYMid meet" version="1.0">
<g>
<path style="fill:#a4bdc8;fill-opacity:1;fill-rule:nonzero;stroke:none" d="m 50.169,35.864125 0.0,-1.3012500000000002 c 0.0,-0.9643750000000001 -1.1792500000000001,-2.548875 -2.9223750000000006,-3.457 1.743125,-0.9057500000000002 2.9223750000000006,-2.49275 2.9223750000000006,-3.454625 l 0.0,-0.566375 -11.363375,-0.0 0.0,0.566375 c 0.0,0.9643750000000001 1.1875,2.55125 2.941875,3.454625 -1.7543750000000002,0.9057500000000002 -2.941875,2.49025 -2.941875,3.457 l 0.0,1.3012500000000002 11.363375,0.0 " id="path3315"/>
<path style="fill:none;stroke:#100f0d;stroke-width:0.8;stroke-linecap:butt;stroke-linejoin:miter;stroke-miterlimit:4;stroke-opacity:1;stroke-dasharray:none" d="m 50.169,35.864125 0.0,-1.3012500000000002 c 0.0,-0.9643750000000001 -1.1792500000000001,-2.548875 -2.9223750000000006,-3.457 1.743125,-0.9057500000000002 2.9223750000000006,-2.49275 2.9223750000000006,-3.454625 l 0.0,-0.566375 -11.363375,-0.0 0.0,0.566375 c 0.0,0.9643750000000001 1.1875,2.55125 2.941875,3.454625 -1.7543750000000002,0.9057500000000002 -2.941875,2.49025 -2.941875,3.457 l 0.0,1.3012500000000002 11.363375,0.0 z " id="path3317"/>
<path style="fill:#211c1d;fill-opacity:1;fill-rule:nonzero;stroke:none" d="m 38.796875,49.85825 11.3818375,0.0 0.0,-6.005862500000001 -11.3818375,-0.0 0.0,6.005862500000001 z " id="path3325"/>
<path style="fill:#7a7e82;fill-opacity:1;fill-rule:nonzero;stroke:none" d="m 38.796875,83.28112499999999 11.3818375,0.0 0.0,-3.9672875000000003 -11.3818375,-0.0 0.0,3.9672875000000003 z " id="path3327"/>
<path style="fill:none;stroke:#211c1d;stroke-width:0.1;stroke-linecap:butt;stroke-linejoin:miter;stroke-miterlimit:4;stroke-opacity:1;stroke-dasharray:none" d="m 38.796875,83.28112499999999 11.3818375,0.0 0.0,-3.9672875000000003 -11.3818375,-0.0 0.0,3.9672875000000003 z " id="path3329"/>
<path style="fill:#211c1d;fill-opacity:1;fill-rule:nonzero;stroke:none" d="m 38.796875,62.77574999999999 11.3818375,0.0 0.0,-4.646 -11.3818375,-0.0 0.0,4.646 z " id="path3331"/>
<path style="fill:#211c1d;fill-opacity:1;fill-rule:nonzero;stroke:none" d="m 38.796875,69.79974999999999 11.3818375,0.0 0.0,-5.5542 -11.3818375,-0.0 0.0,5.5542 z " id="path3333"/>
<path style="fill:#e9eae9;fill-opacity:1;fill-rule:nonzero;stroke:none" d="m 38.796875,76.82362499999999 11.3818375,0.0 0.0,-2.492675 -11.3818375,-0.0 0.0,2.492675 z " id="path3335"/>
<path style="fill:none;stroke:#211c1d;stroke-width:0.1;stroke-linecap:butt;stroke-linejoin:miter;stroke-miterlimit:4;stroke-opacity:1;stroke-dasharray:none" d="m 38.796875,76.82362499999999 11.3818375,0.0 0.0,-2.492675 -11.3818375,-0.0 0.0,2.492675 z " id="path3337"/>
<path style="fill:#e9eae9;fill-opacity:1;fill-rule:nonzero;stroke:none" d="m 38.796875,117.158125 11.3818375,0.0 0.0,-2.038575 -11.3818375,-0.0 0.0,2.038575 z " id="path3339"/>
<path style="fill:none;stroke:#211c1d;stroke-width:0.1;stroke-linecap:butt;stroke-linejoin:miter;stroke-miterlimit:4;stroke-opacity:1;stroke-dasharray:none" d="m 38.796875,117.158125 11.3818375,0.0 0.0,-2.038575 -11.3818375,-0.0 0.0,2.038575 z " id="path3341"/>
<path style="fill:#bbbcbd;fill-opacity:1;fill-rule:nonzero;stroke:none" d="m 38.796875,55.522375 11.3818375,0.0 0.0,-2.492675 -11.3818375,-0.0 0.0,2.492675 z " id="path3343"/>
<path style="fill:none;stroke:#211c1d;stroke-width:0.1;stroke-linecap:butt;stroke-linejoin:miter;stroke-miterlimit:4;stroke-opacity:1;stroke-dasharray:none" d="m 38.796875,55.522375 11.3818375,0.0 0.0,-2.492675 -11.3818375,-0.0 0.0,2.492675 z " id="path3345"/>
<path style="fill:#bbbcbd;fill-opacity:1;fill-rule:nonzero;stroke:none" d="m 38.796875,89.28699999999999 11.3818375,0.0 0.0,-3.173825 -11.3818375,-0.0 0.0,3.173825 z " id="path3347"/>
<path style="fill:none;stroke:#211c1d;stroke-width:0.1;stroke-linecap:butt;stroke-linejoin:miter;stroke-miterlimit:4;stroke-opacity:1;stroke-dasharray:none" d="m 38.796875,89.28699999999999 11.3818375,0.0 0.0,-3.173825 -11.3818375,-0.0 0.0,3.173825 z " id="path3349"/>
<path style="fill:#bbbcbd;fill-opacity:1;fill-rule:nonzero;stroke:none" d="m 38.796875,98.34949999999999 11.3818375,0.0 0.0,-3.173825 -11.3818375,-0.0 0.0,3.173825 z " id="path3351"/>
<path style="fill:none;stroke:#211c1d;stroke-width:0.1;stroke-linecap:butt;stroke-linejoin:miter;stroke-miterlimit:4;stroke-opacity:1;stroke-dasharray:none" d="m 38.796875,98.34949999999999 11.3818375,0.0 0.0,-3.173825 -11.3818375,-0.0 0.0,3.173825 z " id="path3353"/>
<path style="fill:#bbbcbd;fill-opacity:1;fill-rule:nonzero;stroke:none" d="m 38.796875,121.91637499999999 11.3818375,0.0 0.0,-2.2631875 -11.3818375,-0.0 0.0,2.2631875 z " id="path3355"/>
<path style="fill:none;stroke:#211c1d;stroke-width:0.1;stroke-linecap:butt;stroke-linejoin:miter;stroke-miterlimit:4;stroke-opacity:1;stroke-dasharray:none" d="m 38.796875,121.91637499999999 11.3818375,0.0 0.0,-2.2631875 -11.3818375,-0.0 0.0,2.2631875 z " id="path3357"/>
<path style="fill:#bbbcbd;fill-opacity:1;fill-rule:nonzero;stroke:none" d="m 38.796875,127.80749999999999 11.3818375,0.0 0.0,-2.2651375 -11.3818375,-0.0 0.0,2.2651375 z " id="path3359"/>
<path style="fill:none;stroke:#211c1d;stroke-width:0.1;stroke-linecap:butt;stroke-linejoin:miter;stroke-miterlimit:4;stroke-opacity:1;stroke-dasharray:none" d="m 38.796875,127.80749999999999 11.3818375,0.0 0.0,-2.2651375 -11.3818375,-0.0 0.0,2.2651375 z " id="path3361"/>
<path style="fill:#211c1d;fill-opacity:1;fill-rule:nonzero;stroke:none" d="m 38.796875,107.41199999999999 11.3818375,0.0 0.0,-4.41895 -11.3818375,-0.0 0.0,4.41895 z " id="path3363"/>
<path style="fill:#211c1d;fill-opacity:1;fill-rule:nonzero;stroke:none" d="m 38.796875,113.98675 11.3818375,0.0 0.0,-5.78125 -11.3818375,-0.0 0.0,5.78125 z " id="path3365"/>
<path style="fill:none;stroke:#211c1d;stroke-width:0.8;stroke-linecap:butt;stroke-linejoin:miter;stroke-miterlimit:4;stroke-opacity:1;stroke-dasharray:none" d="m 41.746125000000006,31.105874999999997 c -1.7530000000000001,0.9057500000000002 -2.9395,2.49025 -2.9395,3.457 l 0.0,96.646 c 0.0,1.4136250000000001 2.544,2.5635000000000003 5.681125,2.5635000000000003 3.13875,0.0 5.681250000000001,-1.149875 5.681250000000001,-2.5635000000000003 l 0.0,-96.646 c 0.0,-0.9643750000000001 -1.1792500000000001,-2.548875 -2.9223750000000006,-3.457 1.743125,-0.9057500000000002 2.9223750000000006,-2.49275 2.9223750000000006,-3.454625 l 0.0,-11.103750000000002 c 0.0,-1.41625 -2.5425000000000004,-2.56375 -5.681250000000001,-2.56375 -3.1371250000000006,-0.0 -5.681125,1.1475 -5.681125,2.56375 l 0.0,11.103750000000002 c 0.0,0.9668750000000002 1.1865,2.55125 2.9395,3.454625 z " id="path3367"/>
<path style="fill:#c4cdf2;fill-opacity:1;fill-rule:nonzero;stroke:none" d="m 38.80175,27.084874999999982 0.0,-10.537375000000003 c 0.0,-1.235 1.9262500000000002,-2.2625 4.494625,-2.51 l -0.007375,-7.39 c -1.294875,-0.45625 -2.211875,-1.5937500000000002 -2.211875,-2.9312500000000004 0.0,-1.73875 1.5527500000000003,-3.145 3.4668750000000004,-3.145 1.9140000000000001,0.0 3.4667500000000007,1.40625 3.4667500000000007,3.145 0.0,1.3375000000000001 -0.918,2.475 -2.211875,2.9312500000000004 l -0.0035000000000000005,7.402500000000001 c 2.505875,0.26625 4.371125,1.2850000000000001 4.371125,2.4975000000000005 l 0.0,10.537375000000003 -11.36475,-0.0 " id="path3483"/>
<path style="fill:none;stroke:#211c1d;stroke-width:0.8;stroke-linecap:butt;stroke-linejoin:miter;stroke-miterlimit:4;stroke-opacity:1;stroke-dasharray:none" d="m 38.80175,27.084874999999982 0.0,-10.537375000000003 c 0.0,-1.235 1.9262500000000002,-2.2625 4.494625,-2.51 l -0.007375,-7.39 c -1.294875,-0.45625 -2.211875,-1.5937500000000002 -2.211875,-2.9312500000000004 0.0,-1.73875 1.5527500000000003,-3.145 3.4668750000000004,-3.145 1.9140000000000001,0.0 3.4667500000000007,1.40625 3.4667500000000007,3.145 0.0,1.3375000000000001 -0.918,2.475 -2.211875,2.9312500000000004 l -0.0035000000000000005,7.402500000000001 c 2.505875,0.26625 4.371125,1.2850000000000001 4.371125,2.4975000000000005 l 0.0,10.537375000000003 -11.36475,-0.0 z " id="path3485"/>
<path style="fill:none;stroke:#231f20;stroke-width:0.8;stroke-linecap:butt;stroke-linejoin:miter;stroke-miterlimit:4;stroke-opacity:1;stroke-dasharray:none;display:none" d="M 41.34812500000001,31.1425 0.0,31.1425 " id="path3487"/>
<text>
<tspan x="38.791000000000004 43.79343550000001" y="142.426175" id="tspan3323" style="font-size:7.19543791px;font-variant:normal;font-weight:normal;writing-mode:lr-tb;fill:#211c1d;fill-opacity:1;fill-rule:nonzero;stroke:none;font-family:Helvetica;-inkscape-font-specification:Helvetica">14</tspan>
</text>
</g>
</svg>
