<?xml version="1.0" encoding="UTF-8" standalone="no"?>
<!-- Created with Inkscape (http://www.inkscape.org/) -->

<svg
   xmlns:dc="http://purl.org/dc/elements/1.1/"
   xmlns:cc="http://creativecommons.org/ns#"
   xmlns:rdf="http://www.w3.org/1999/02/22-rdf-syntax-ns#"
   xmlns:svg="http://www.w3.org/2000/svg"
   xmlns="http://www.w3.org/2000/svg"
   version="1.1"
   width="50.487499"
   height="146.35001"
   id="svg3295"
   xml:space="preserve"><metadata
     id="metadata3301"><rdf:RDF><cc:Work
         rdf:about=""><dc:format>image/svg+xml</dc:format><dc:type
           rdf:resource="http://purl.org/dc/dcmitype/StillImage" /><dc:title></dc:title></cc:Work></rdf:RDF></metadata><defs
     id="defs3299"><clipPath
       id="clipPath3311"><path
         d="M 0,1170.82 0,0 l 403.852,0 0,1170.82 -403.852,0 z"
         id="path3313" /></clipPath><clipPath
       id="clipPath3369"><path
         d="M 0,720 720,720 720,0 0,0 0,720 z"
         id="path3371" /></clipPath><pattern
       id="pattern3373"
       height="72"
       width="72"
       y="0"
       x="0"
       patternUnits="userSpaceOnUse"
       patternTransform="matrix(0.999995,0,0,-0.999995,-69.1,-13)"><g
         id="g3375"
         transform="scale(0.1,0.1)"><g
           id="g3377"><g
             id="g3379"
             clip-path="url(#clipPath3369)"><path
               id="path3381"
               style="fill:#ffffff;fill-opacity:1;fill-rule:nonzero;stroke:none"
               d="M 0,0 720,0 720,720 0,720 0,0 z" /><path
               id="path3383"
               style="fill:none;stroke:#211c1d;stroke-opacity:1;stroke-width:3;stroke-linecap:square;stroke-linejoin:bevel;stroke-miterlimit:4;stroke-dasharray:none"
               d="M 0,0 720,720" /><path
               id="path3385"
               style="fill:none;stroke:#211c1d;stroke-opacity:1;stroke-width:3;stroke-linecap:square;stroke-linejoin:bevel;stroke-miterlimit:4;stroke-dasharray:none"
               d="M -30.0117,29.9883 660,720" /><path
               id="path3387"
               style="fill:none;stroke:#211c1d;stroke-opacity:1;stroke-width:3;stroke-linecap:square;stroke-linejoin:bevel;stroke-miterlimit:4;stroke-dasharray:none"
               d="M -30.0508,89.9531 600,720" /><path
               id="path3389"
               style="fill:none;stroke:#211c1d;stroke-opacity:1;stroke-width:3;stroke-linecap:square;stroke-linejoin:bevel;stroke-miterlimit:4;stroke-dasharray:none"
               d="M -30.0898,149.91 540,720" /><path
               id="path3391"
               style="fill:none;stroke:#211c1d;stroke-opacity:1;stroke-width:3;stroke-linecap:square;stroke-linejoin:bevel;stroke-miterlimit:4;stroke-dasharray:none"
               d="M -30.1328,209.871 480,720" /><path
               id="path3393"
               style="fill:none;stroke:#211c1d;stroke-opacity:1;stroke-width:3;stroke-linecap:square;stroke-linejoin:bevel;stroke-miterlimit:4;stroke-dasharray:none"
               d="M -30.1602,269.844 420,720" /><path
               id="path3395"
               style="fill:none;stroke:#211c1d;stroke-opacity:1;stroke-width:3;stroke-linecap:square;stroke-linejoin:bevel;stroke-miterlimit:4;stroke-dasharray:none"
               d="M -30.1992,329.805 360,720" /><path
               id="path3397"
               style="fill:none;stroke:#211c1d;stroke-opacity:1;stroke-width:3;stroke-linecap:square;stroke-linejoin:bevel;stroke-miterlimit:4;stroke-dasharray:none"
               d="M -30.2383,389.758 300,720" /><path
               id="path3399"
               style="fill:none;stroke:#211c1d;stroke-opacity:1;stroke-width:3;stroke-linecap:square;stroke-linejoin:bevel;stroke-miterlimit:4;stroke-dasharray:none"
               d="M -30.2695,449.719 240,720" /><path
               id="path3401"
               style="fill:none;stroke:#211c1d;stroke-opacity:1;stroke-width:3;stroke-linecap:square;stroke-linejoin:bevel;stroke-miterlimit:4;stroke-dasharray:none"
               d="M -30.3086,509.688 180,720" /><path
               id="path3403"
               style="fill:none;stroke:#211c1d;stroke-opacity:1;stroke-width:3;stroke-linecap:square;stroke-linejoin:bevel;stroke-miterlimit:4;stroke-dasharray:none"
               d="M -30.3516,569.648 120,720" /><path
               id="path3405"
               style="fill:none;stroke:#211c1d;stroke-opacity:1;stroke-width:3;stroke-linecap:square;stroke-linejoin:bevel;stroke-miterlimit:4;stroke-dasharray:none"
               d="M -30.3906,629.609 60,720" /><path
               id="path3407"
               style="fill:none;stroke:#211c1d;stroke-opacity:1;stroke-width:3;stroke-linecap:square;stroke-linejoin:bevel;stroke-miterlimit:4;stroke-dasharray:none"
               d="M -30.4219,689.57 0,720" /><path
               id="path3409"
               style="fill:none;stroke:#211c1d;stroke-opacity:1;stroke-width:3;stroke-linecap:square;stroke-linejoin:bevel;stroke-miterlimit:4;stroke-dasharray:none"
               d="M 60,0 750.012,690.02" /><path
               id="path3411"
               style="fill:none;stroke:#211c1d;stroke-opacity:1;stroke-width:3;stroke-linecap:square;stroke-linejoin:bevel;stroke-miterlimit:4;stroke-dasharray:none"
               d="M 120,0 750.051,630.059" /><path
               id="path3413"
               style="fill:none;stroke:#211c1d;stroke-opacity:1;stroke-width:3;stroke-linecap:square;stroke-linejoin:bevel;stroke-miterlimit:4;stroke-dasharray:none"
               d="M 180,0 750.09,570.098" /><path
               id="path3415"
               style="fill:none;stroke:#211c1d;stroke-opacity:1;stroke-width:3;stroke-linecap:square;stroke-linejoin:bevel;stroke-miterlimit:4;stroke-dasharray:none"
               d="M 240,0 750.133,510.129" /><path
               id="path3417"
               style="fill:none;stroke:#211c1d;stroke-opacity:1;stroke-width:3;stroke-linecap:square;stroke-linejoin:bevel;stroke-miterlimit:4;stroke-dasharray:none"
               d="M 300,0 750.16,450.168" /><path
               id="path3419"
               style="fill:none;stroke:#211c1d;stroke-opacity:1;stroke-width:3;stroke-linecap:square;stroke-linejoin:bevel;stroke-miterlimit:4;stroke-dasharray:none"
               d="M 360,0 750.199,390.215" /><path
               id="path3421"
               style="fill:none;stroke:#211c1d;stroke-opacity:1;stroke-width:3;stroke-linecap:square;stroke-linejoin:bevel;stroke-miterlimit:4;stroke-dasharray:none"
               d="M 420,0 750.238,330.254" /><path
               id="path3423"
               style="fill:none;stroke:#211c1d;stroke-opacity:1;stroke-width:3;stroke-linecap:square;stroke-linejoin:bevel;stroke-miterlimit:4;stroke-dasharray:none"
               d="M 480,0 750.277,270.281" /><path
               id="path3425"
               style="fill:none;stroke:#211c1d;stroke-opacity:1;stroke-width:3;stroke-linecap:square;stroke-linejoin:bevel;stroke-miterlimit:4;stroke-dasharray:none"
               d="M 540,0 750.309,210.32" /><path
               id="path3427"
               style="fill:none;stroke:#211c1d;stroke-opacity:1;stroke-width:3;stroke-linecap:square;stroke-linejoin:bevel;stroke-miterlimit:4;stroke-dasharray:none"
               d="M 600,0 750.352,150.359" /><path
               id="path3429"
               style="fill:none;stroke:#211c1d;stroke-opacity:1;stroke-width:3;stroke-linecap:square;stroke-linejoin:bevel;stroke-miterlimit:4;stroke-dasharray:none"
               d="m 660,0 90.391,90.4023" /><path
               id="path3431"
               style="fill:none;stroke:#211c1d;stroke-opacity:1;stroke-width:3;stroke-linecap:square;stroke-linejoin:bevel;stroke-miterlimit:4;stroke-dasharray:none"
               d="m 720,0 30.43,30.4297" /><path
               id="path3433"
               style="fill:none;stroke:#211c1d;stroke-opacity:1;stroke-width:3;stroke-linecap:square;stroke-linejoin:bevel;stroke-miterlimit:4;stroke-dasharray:none"
               d="M 720,0 0,720" /><path
               id="path3435"
               style="fill:none;stroke:#211c1d;stroke-opacity:1;stroke-width:3;stroke-linecap:square;stroke-linejoin:bevel;stroke-miterlimit:4;stroke-dasharray:none"
               d="M 660,0 -30.0117,690.02" /><path
               id="path3437"
               style="fill:none;stroke:#211c1d;stroke-opacity:1;stroke-width:3;stroke-linecap:square;stroke-linejoin:bevel;stroke-miterlimit:4;stroke-dasharray:none"
               d="M 600,0 -30.0508,630.059" /><path
               id="path3439"
               style="fill:none;stroke:#211c1d;stroke-opacity:1;stroke-width:3;stroke-linecap:square;stroke-linejoin:bevel;stroke-miterlimit:4;stroke-dasharray:none"
               d="M 540,0 -30.0898,570.098" /><path
               id="path3441"
               style="fill:none;stroke:#211c1d;stroke-opacity:1;stroke-width:3;stroke-linecap:square;stroke-linejoin:bevel;stroke-miterlimit:4;stroke-dasharray:none"
               d="M 480,0 -30.1328,510.137" /><path
               id="path3443"
               style="fill:none;stroke:#211c1d;stroke-opacity:1;stroke-width:3;stroke-linecap:square;stroke-linejoin:bevel;stroke-miterlimit:4;stroke-dasharray:none"
               d="M 420,0 -30.1602,450.168" /><path
               id="path3445"
               style="fill:none;stroke:#211c1d;stroke-opacity:1;stroke-width:3;stroke-linecap:square;stroke-linejoin:bevel;stroke-miterlimit:4;stroke-dasharray:none"
               d="M 360,0 -30.1992,390.215" /><path
               id="path3447"
               style="fill:none;stroke:#211c1d;stroke-opacity:1;stroke-width:3;stroke-linecap:square;stroke-linejoin:bevel;stroke-miterlimit:4;stroke-dasharray:none"
               d="M 300,0 -30.2383,330.254" /><path
               id="path3449"
               style="fill:none;stroke:#211c1d;stroke-opacity:1;stroke-width:3;stroke-linecap:square;stroke-linejoin:bevel;stroke-miterlimit:4;stroke-dasharray:none"
               d="M 240,0 -30.2695,270.293" /><path
               id="path3451"
               style="fill:none;stroke:#211c1d;stroke-opacity:1;stroke-width:3;stroke-linecap:square;stroke-linejoin:bevel;stroke-miterlimit:4;stroke-dasharray:none"
               d="M 180,0 -30.3086,210.32" /><path
               id="path3453"
               style="fill:none;stroke:#211c1d;stroke-opacity:1;stroke-width:3;stroke-linecap:square;stroke-linejoin:bevel;stroke-miterlimit:4;stroke-dasharray:none"
               d="M 120,0 -30.3516,150.359" /><path
               id="path3455"
               style="fill:none;stroke:#211c1d;stroke-opacity:1;stroke-width:3;stroke-linecap:square;stroke-linejoin:bevel;stroke-miterlimit:4;stroke-dasharray:none"
               d="M 60,0 -30.3906,90.4023" /><path
               id="path3457"
               style="fill:none;stroke:#211c1d;stroke-opacity:1;stroke-width:3;stroke-linecap:square;stroke-linejoin:bevel;stroke-miterlimit:4;stroke-dasharray:none"
               d="M 0,0 -30.4219,30.4414" /><path
               id="path3459"
               style="fill:none;stroke:#211c1d;stroke-opacity:1;stroke-width:3;stroke-linecap:square;stroke-linejoin:bevel;stroke-miterlimit:4;stroke-dasharray:none"
               d="M 750.012,29.9883 60,720" /><path
               id="path3461"
               style="fill:none;stroke:#211c1d;stroke-opacity:1;stroke-width:3;stroke-linecap:square;stroke-linejoin:bevel;stroke-miterlimit:4;stroke-dasharray:none"
               d="M 750.051,89.9531 120,720" /><path
               id="path3463"
               style="fill:none;stroke:#211c1d;stroke-opacity:1;stroke-width:3;stroke-linecap:square;stroke-linejoin:bevel;stroke-miterlimit:4;stroke-dasharray:none"
               d="M 750.09,149.91 180,720" /><path
               id="path3465"
               style="fill:none;stroke:#211c1d;stroke-opacity:1;stroke-width:3;stroke-linecap:square;stroke-linejoin:bevel;stroke-miterlimit:4;stroke-dasharray:none"
               d="M 750.133,209.871 240,720" /><path
               id="path3467"
               style="fill:none;stroke:#211c1d;stroke-opacity:1;stroke-width:3;stroke-linecap:square;stroke-linejoin:bevel;stroke-miterlimit:4;stroke-dasharray:none"
               d="M 750.16,269.844 300,720" /><path
               id="path3469"
               style="fill:none;stroke:#211c1d;stroke-opacity:1;stroke-width:3;stroke-linecap:square;stroke-linejoin:bevel;stroke-miterlimit:4;stroke-dasharray:none"
               d="M 750.199,329.805 360,720" /><path
               id="path3471"
               style="fill:none;stroke:#211c1d;stroke-opacity:1;stroke-width:3;stroke-linecap:square;stroke-linejoin:bevel;stroke-miterlimit:4;stroke-dasharray:none"
               d="M 750.238,389.758 420,720" /><path
               id="path3473"
               style="fill:none;stroke:#211c1d;stroke-opacity:1;stroke-width:3;stroke-linecap:square;stroke-linejoin:bevel;stroke-miterlimit:4;stroke-dasharray:none"
               d="M 750.277,449.727 480,720" /><path
               id="path3475"
               style="fill:none;stroke:#211c1d;stroke-opacity:1;stroke-width:3;stroke-linecap:square;stroke-linejoin:bevel;stroke-miterlimit:4;stroke-dasharray:none"
               d="M 750.309,509.688 540,720" /><path
               id="path3477"
               style="fill:none;stroke:#211c1d;stroke-opacity:1;stroke-width:3;stroke-linecap:square;stroke-linejoin:bevel;stroke-miterlimit:4;stroke-dasharray:none"
               d="M 750.352,569.648 600,720" /><path
               id="path3479"
               style="fill:none;stroke:#211c1d;stroke-opacity:1;stroke-width:3;stroke-linecap:square;stroke-linejoin:bevel;stroke-miterlimit:4;stroke-dasharray:none"
               d="M 750.391,629.609 660,720" /><path
               id="path3481"
               style="fill:none;stroke:#211c1d;stroke-opacity:1;stroke-width:3;stroke-linecap:square;stroke-linejoin:bevel;stroke-miterlimit:4;stroke-dasharray:none"
               d="M 750.43,689.578 720,720" /></g></g></g></pattern></defs><g
     transform="matrix(1.25,0,0,-1.25,0,146.35)"
     id="g3303"><g
       transform="scale(0.1,0.1)"
       id="g3305"><g
         id="g3307"><g
           clip-path="url(#clipPath3311)"
           id="g3309"><path
             d="m 401.352,883.887 0,10.41 c 0,7.715 -9.434,20.391 -23.379,27.656 13.945,7.246 23.379,19.942 23.379,27.637 l 0,4.531 -90.907,0 0,-4.531 c 0,-7.715 9.5,-20.41 23.535,-27.637 -14.035,-7.246 -23.535,-19.922 -23.535,-27.656 l 0,-10.41 90.907,0"
             id="path3315"
             style="fill:#a4bdc8;fill-opacity:1;fill-rule:nonzero;stroke:none" /><path
             d="m 401.352,883.887 0,10.41 c 0,7.715 -9.434,20.391 -23.379,27.656 13.945,7.246 23.379,19.942 23.379,27.637 l 0,4.531 -90.907,0 0,-4.531 c 0,-7.715 9.5,-20.41 23.535,-27.637 -14.035,-7.246 -23.535,-19.922 -23.535,-27.656 l 0,-10.41 90.907,0 z"
             id="path3317"
             style="fill:none;stroke:#100f0d;stroke-width:5;stroke-linecap:butt;stroke-linejoin:miter;stroke-miterlimit:4;stroke-opacity:1;stroke-dasharray:none" /><g
             transform="scale(10,10)"
             id="g3319"><text
               transform="matrix(1,0,0,-0.90697189,31.0328,3.13906)"
               id="text3321"><tspan
                 x="0 4.0019484"
                 y="0"
                 id="tspan3323"
                 style="font-size:7.19543791px;font-variant:normal;font-weight:normal;writing-mode:lr-tb;fill:#211c1d;fill-opacity:1;fill-rule:nonzero;stroke:none;font-family:Helvetica;-inkscape-font-specification:Helvetica">14</tspan></text>
</g><path
             d="m 310.375,771.934 91.0547,0 0,48.0469 -91.0547,0 0,-48.0469 z"
             id="path3325"
             style="fill:#211c1d;fill-opacity:1;fill-rule:nonzero;stroke:none" /><path
             d="m 310.375,504.551 91.0547,0 0,31.7383 -91.0547,0 0,-31.7383 z"
             id="path3327"
             style="fill:#7a7e82;fill-opacity:1;fill-rule:nonzero;stroke:none" /><path
             d="m 310.375,504.551 91.0547,0 0,31.7383 -91.0547,0 0,-31.7383 z"
             id="path3329"
             style="fill:none;stroke:#211c1d;stroke-width:0.62;stroke-linecap:butt;stroke-linejoin:miter;stroke-miterlimit:4;stroke-opacity:1;stroke-dasharray:none" /><path
             d="m 310.375,668.594 91.0547,0 0,37.168 -91.0547,0 0,-37.168 z"
             id="path3331"
             style="fill:#211c1d;fill-opacity:1;fill-rule:nonzero;stroke:none" /><path
             d="m 310.375,612.402 91.0547,0 0,44.4336 -91.0547,0 0,-44.4336 z"
             id="path3333"
             style="fill:#211c1d;fill-opacity:1;fill-rule:nonzero;stroke:none" /><path
             d="m 310.375,556.211 91.0547,0 0,19.9414 -91.0547,0 0,-19.9414 z"
             id="path3335"
             style="fill:#e9eae9;fill-opacity:1;fill-rule:nonzero;stroke:none" /><path
             d="m 310.375,556.211 91.0547,0 0,19.9414 -91.0547,0 0,-19.9414 z"
             id="path3337"
             style="fill:none;stroke:#211c1d;stroke-width:0.62;stroke-linecap:butt;stroke-linejoin:miter;stroke-miterlimit:4;stroke-opacity:1;stroke-dasharray:none" /><path
             d="m 310.375,233.535 91.0547,0 0,16.3086 -91.0547,0 0,-16.3086 z"
             id="path3339"
             style="fill:#e9eae9;fill-opacity:1;fill-rule:nonzero;stroke:none" /><path
             d="m 310.375,233.535 91.0547,0 0,16.3086 -91.0547,0 0,-16.3086 z"
             id="path3341"
             style="fill:none;stroke:#211c1d;stroke-width:0.62;stroke-linecap:butt;stroke-linejoin:miter;stroke-miterlimit:4;stroke-opacity:1;stroke-dasharray:none" /><path
             d="m 310.375,726.621 91.0547,0 0,19.9414 -91.0547,0 0,-19.9414 z"
             id="path3343"
             style="fill:#bbbcbd;fill-opacity:1;fill-rule:nonzero;stroke:none" /><path
             d="m 310.375,726.621 91.0547,0 0,19.9414 -91.0547,0 0,-19.9414 z"
             id="path3345"
             style="fill:none;stroke:#211c1d;stroke-width:0.62;stroke-linecap:butt;stroke-linejoin:miter;stroke-miterlimit:4;stroke-opacity:1;stroke-dasharray:none" /><path
             d="m 310.375,456.504 91.0547,0 0,25.3906 -91.0547,0 0,-25.3906 z"
             id="path3347"
             style="fill:#bbbcbd;fill-opacity:1;fill-rule:nonzero;stroke:none" /><path
             d="m 310.375,456.504 91.0547,0 0,25.3906 -91.0547,0 0,-25.3906 z"
             id="path3349"
             style="fill:none;stroke:#211c1d;stroke-width:0.62;stroke-linecap:butt;stroke-linejoin:miter;stroke-miterlimit:4;stroke-opacity:1;stroke-dasharray:none" /><path
             d="m 310.375,384.004 91.0547,0 0,25.3906 -91.0547,0 0,-25.3906 z"
             id="path3351"
             style="fill:#bbbcbd;fill-opacity:1;fill-rule:nonzero;stroke:none" /><path
             d="m 310.375,384.004 91.0547,0 0,25.3906 -91.0547,0 0,-25.3906 z"
             id="path3353"
             style="fill:none;stroke:#211c1d;stroke-width:0.62;stroke-linecap:butt;stroke-linejoin:miter;stroke-miterlimit:4;stroke-opacity:1;stroke-dasharray:none" /><path
             d="m 310.375,195.469 91.0547,0 0,18.1055 -91.0547,0 0,-18.1055 z"
             id="path3355"
             style="fill:#bbbcbd;fill-opacity:1;fill-rule:nonzero;stroke:none" /><path
             d="m 310.375,195.469 91.0547,0 0,18.1055 -91.0547,0 0,-18.1055 z"
             id="path3357"
             style="fill:none;stroke:#211c1d;stroke-width:0.62;stroke-linecap:butt;stroke-linejoin:miter;stroke-miterlimit:4;stroke-opacity:1;stroke-dasharray:none" /><path
             d="m 310.375,148.34 91.0547,0 0,18.1211 -91.0547,0 0,-18.1211 z"
             id="path3359"
             style="fill:#bbbcbd;fill-opacity:1;fill-rule:nonzero;stroke:none" /><path
             d="m 310.375,148.34 91.0547,0 0,18.1211 -91.0547,0 0,-18.1211 z"
             id="path3361"
             style="fill:none;stroke:#211c1d;stroke-width:0.62;stroke-linecap:butt;stroke-linejoin:miter;stroke-miterlimit:4;stroke-opacity:1;stroke-dasharray:none" /><path
             d="m 310.375,311.504 91.0547,0 0,35.3516 -91.0547,0 0,-35.3516 z"
             id="path3363"
             style="fill:#211c1d;fill-opacity:1;fill-rule:nonzero;stroke:none" /><path
             d="m 310.375,258.906 91.0547,0 0,46.25 -91.0547,0 0,-46.25 z"
             id="path3365"
             style="fill:#211c1d;fill-opacity:1;fill-rule:nonzero;stroke:none" /><path
             d="m 333.969,921.953 c -14.024,-7.246 -23.516,-19.922 -23.516,-27.656 l 0,-773.168 c 0,-11.309 20.352,-20.508 45.449,-20.508 25.11,0 45.45,9.199 45.45,20.508 l 0,773.168 c 0,7.715 -9.434,20.391 -23.379,27.656 13.945,7.246 23.379,19.942 23.379,27.637 l 0,88.83 c 0,11.33 -20.34,20.51 -45.45,20.51 -25.097,0 -45.449,-9.18 -45.449,-20.51 l 0,-88.83 c 0,-7.735 9.492,-20.41 23.516,-27.637 z"
             id="path3367"
             style="fill:none;stroke:#211c1d;stroke-width:5;stroke-linecap:butt;stroke-linejoin:miter;stroke-miterlimit:4;stroke-opacity:1;stroke-dasharray:none" /><path
             d="m 310.414,954.121 0,84.299 c 0,9.88 15.41,18.1 35.957,20.08 l -0.059,59.12 c -10.359,3.65 -17.695,12.75 -17.695,23.45 0,13.91 12.422,25.16 27.735,25.16 15.312,0 27.734,-11.25 27.734,-25.16 0,-10.7 -7.344,-19.8 -17.695,-23.45 l -0.028,-59.22 c 20.047,-2.13 34.969,-10.28 34.969,-19.98 l 0,-84.299 -90.918,0"
             id="path3483"
             style="fill:url(#pattern3373);fill-opacity:1;fill-rule:nonzero;stroke:none" /><path
             d="m 310.414,954.121 0,84.299 c 0,9.88 15.41,18.1 35.957,20.08 l -0.059,59.12 c -10.359,3.65 -17.695,12.75 -17.695,23.45 0,13.91 12.422,25.16 27.735,25.16 15.312,0 27.734,-11.25 27.734,-25.16 0,-10.7 -7.344,-19.8 -17.695,-23.45 l -0.028,-59.22 c 20.047,-2.13 34.969,-10.28 34.969,-19.98 l 0,-84.299 -90.918,0 z"
             id="path3485"
             style="fill:none;stroke:#211c1d;stroke-width:5;stroke-linecap:butt;stroke-linejoin:miter;stroke-miterlimit:4;stroke-opacity:1;stroke-dasharray:none" /><path
             d="M 330.785,921.66 0,921.66"
             id="path3487"
             style="fill:none;stroke:#231f20;stroke-width:5;stroke-linecap:butt;stroke-linejoin:miter;stroke-miterlimit:4;stroke-opacity:1;stroke-dasharray:none" /><g
             transform="scale(10,10)"
             id="g3489"><text
               transform="matrix(1,0,0,-0.90698012,22.8453,98.6008)"
               id="text3491"><tspan
                 x="0 1.7353495 3.7363315 4.7358446"
                 y="0"
                 id="tspan3493"
                 style="font-size:3.59771943px;font-variant:normal;font-weight:normal;writing-mode:lr-tb;fill:#231f20;fill-opacity:1;fill-rule:nonzero;stroke:none;font-family:Helvetica;-inkscape-font-specification:Helvetica">11.2</tspan><tspan
                 x="0 1.7353495 3.7363315 4.7358446"
                 y="6.5964069"
                 id="tspan3495"
                 style="font-size:3.59771943px;font-variant:normal;font-weight:normal;writing-mode:lr-tb;fill:#231f20;fill-opacity:1;fill-rule:nonzero;stroke:none;font-family:Helvetica;-inkscape-font-specification:Helvetica">11.1</tspan><tspan
                 x="0 1.7353495 3.7363315 4.7358446"
                 y="10.493703"
                 id="tspan3497"
                 style="font-size:3.59771943px;font-variant:normal;font-weight:normal;writing-mode:lr-tb;fill:#231f20;fill-opacity:1;fill-rule:nonzero;stroke:none;font-family:Helvetica;-inkscape-font-specification:Helvetica">11.1</tspan><tspan
                 x="0 1.7353495 3.7363315 4.7358446"
                 y="16.290754"
                 id="tspan3499"
                 style="font-size:3.59771943px;font-variant:normal;font-weight:normal;writing-mode:lr-tb;fill:#231f20;fill-opacity:1;fill-rule:nonzero;stroke:none;font-family:Helvetica;-inkscape-font-specification:Helvetica">11.2</tspan><tspan
                 x="2.7347677 4.7357469"
                 y="-17.28738"
                 id="tspan3501"
                 style="font-size:3.59771943px;font-variant:normal;font-weight:normal;writing-mode:lr-tb;fill:#231f20;fill-opacity:1;fill-rule:nonzero;stroke:none;font-family:Helvetica;-inkscape-font-specification:Helvetica">13</tspan><tspan
                 x="2.7347677 4.7357469"
                 y="-10.293015"
                 id="tspan3503"
                 style="font-size:3.59771943px;font-variant:normal;font-weight:normal;writing-mode:lr-tb;fill:#231f20;fill-opacity:1;fill-rule:nonzero;stroke:none;font-family:Helvetica;-inkscape-font-specification:Helvetica">12</tspan><tspan
                 x="-0.26523182 1.7351002 3.7354321 4.7355981"
                 y="26.383863"
                 id="tspan3505"
                 style="font-size:3.59771943px;font-variant:normal;font-weight:normal;writing-mode:lr-tb;fill:#231f20;fill-opacity:1;fill-rule:nonzero;stroke:none;font-family:Helvetica;-inkscape-font-specification:Helvetica">13.1</tspan><tspan
                 x="2.7347677 4.7357469"
                 y="22.483988"
                 id="tspan3507"
                 style="font-size:3.59771943px;font-variant:normal;font-weight:normal;writing-mode:lr-tb;fill:#231f20;fill-opacity:1;fill-rule:nonzero;stroke:none;font-family:Helvetica;-inkscape-font-specification:Helvetica">12</tspan><tspan
                 x="-10.401904 -8.4015722 -6.4012399 -5.4010739"
                 y="28.754799"
                 id="tspan3509"
                 style="font-size:3.59771943px;font-variant:normal;font-weight:normal;writing-mode:lr-tb;fill:#231f20;fill-opacity:1;fill-rule:nonzero;stroke:none;font-family:Helvetica;-inkscape-font-specification:Helvetica">13.2</tspan></text>
</g><path
             d="m 202.445,735.176 111.426,0"
             id="path3511"
             style="fill:none;stroke:#231f20;stroke-width:1.82598996;stroke-linecap:butt;stroke-linejoin:miter;stroke-miterlimit:4;stroke-opacity:1;stroke-dasharray:none" /><g
             transform="scale(10,10)"
             id="g3513"><text
               transform="matrix(1,0,0,-0.90698012,22.5801,70.6824)"
               id="text3515"><tspan
                 x="0 2.0003321 4.0006642 5.0008302"
                 y="0"
                 id="tspan3517"
                 style="font-size:3.59771943px;font-variant:normal;font-weight:normal;writing-mode:lr-tb;fill:#231f20;fill-opacity:1;fill-rule:nonzero;stroke:none;font-family:Helvetica;-inkscape-font-specification:Helvetica">13.3</tspan><tspan
                 x="0 2.0003321 4.0006642 5.0008302"
                 y="3.3976929"
                 id="tspan3519"
                 style="font-size:3.59771943px;font-variant:normal;font-weight:normal;writing-mode:lr-tb;fill:#231f20;fill-opacity:1;fill-rule:nonzero;stroke:none;font-family:Helvetica;-inkscape-font-specification:Helvetica">21.1</tspan><tspan
                 x="-10.136716 -8.136384 -6.1360521 -5.1358862"
                 y="5.9667459"
                 id="tspan3521"
                 style="font-size:3.59771943px;font-variant:normal;font-weight:normal;writing-mode:lr-tb;fill:#231f20;fill-opacity:1;fill-rule:nonzero;stroke:none;font-family:Helvetica;-inkscape-font-specification:Helvetica">21.2</tspan></text>
</g><path
             d="m 202.445,662.676 111.426,0"
             id="path3523"
             style="fill:none;stroke:#231f20;stroke-width:1.82598996;stroke-linecap:butt;stroke-linejoin:miter;stroke-miterlimit:4;stroke-opacity:1;stroke-dasharray:none" /><g
             transform="scale(10,10)"
             id="g3525"><text
               transform="matrix(1,0,0,-0.90698012,22.5801,62.3426)"
               id="text3527"><tspan
                 x="0 2.0003321 4.0006642 5.0008302"
                 y="0"
                 id="tspan3529"
                 style="font-size:3.59771943px;font-variant:normal;font-weight:normal;writing-mode:lr-tb;fill:#231f20;fill-opacity:1;fill-rule:nonzero;stroke:none;font-family:Helvetica;-inkscape-font-specification:Helvetica">21.3</tspan><tspan
                 x="0 2.0003321 4.0006642 5.0008302"
                 y="4.3968878"
                 id="tspan3531"
                 style="font-size:3.59771943px;font-variant:normal;font-weight:normal;writing-mode:lr-tb;fill:#231f20;fill-opacity:1;fill-rule:nonzero;stroke:none;font-family:Helvetica;-inkscape-font-specification:Helvetica">22.1</tspan><tspan
                 x="0 2.0003321 4.0006642 5.0008302"
                 y="9.5914116"
                 id="tspan3533"
                 style="font-size:3.59771943px;font-variant:normal;font-weight:normal;writing-mode:lr-tb;fill:#231f20;fill-opacity:1;fill-rule:nonzero;stroke:none;font-family:Helvetica;-inkscape-font-specification:Helvetica">22.3</tspan><tspan
                 x="-10.136716 -8.136384 -6.1360521 -5.1358862"
                 y="7.5667481"
                 id="tspan3535"
                 style="font-size:3.59771943px;font-variant:normal;font-weight:normal;writing-mode:lr-tb;fill:#231f20;fill-opacity:1;fill-rule:nonzero;stroke:none;font-family:Helvetica;-inkscape-font-specification:Helvetica">22.2</tspan></text>
</g><path
             d="m 202.445,564.785 111.426,0"
             id="path3537"
             style="fill:none;stroke:#231f20;stroke-width:1.82598996;stroke-linecap:butt;stroke-linejoin:miter;stroke-miterlimit:4;stroke-opacity:1;stroke-dasharray:none" /><g
             transform="scale(10,10)"
             id="g3539"><text
               transform="matrix(1,0,0,-0.90698012,22.5801,50.7414)"
               id="text3541"><tspan
                 x="0 2.0003321 4.0006642 5.0008302"
                 y="0"
                 id="tspan3543"
                 style="font-size:3.59771943px;font-variant:normal;font-weight:normal;writing-mode:lr-tb;fill:#231f20;fill-opacity:1;fill-rule:nonzero;stroke:none;font-family:Helvetica;-inkscape-font-specification:Helvetica">23.1</tspan><tspan
                 x="0 2.0003321 4.0006642 5.0008302"
                 y="5.5972118"
                 id="tspan3545"
                 style="font-size:3.59771943px;font-variant:normal;font-weight:normal;writing-mode:lr-tb;fill:#231f20;fill-opacity:1;fill-rule:nonzero;stroke:none;font-family:Helvetica;-inkscape-font-specification:Helvetica">23.3</tspan><tspan
                 x="-10.136716 -8.136384 -6.1360521 -5.1358862"
                 y="2.7693219"
                 id="tspan3547"
                 style="font-size:3.59771943px;font-variant:normal;font-weight:normal;writing-mode:lr-tb;fill:#231f20;fill-opacity:1;fill-rule:nonzero;stroke:none;font-family:Helvetica;-inkscape-font-specification:Helvetica">23.2</tspan></text>
</g><path
             d="m 202.445,492.246 111.426,0"
             id="path3549"
             style="fill:none;stroke:#231f20;stroke-width:1.82598996;stroke-linecap:butt;stroke-linejoin:miter;stroke-miterlimit:4;stroke-opacity:1;stroke-dasharray:none" /><g
             transform="scale(10,10)"
             id="g3551"><text
               transform="matrix(1,0,0,-0.90698012,22.5801,42.0422)"
               id="text3553"><tspan
                 x="0 2.0003321 4.0006642 5.0008302"
                 y="0"
                 id="tspan3555"
                 style="font-size:3.59771943px;font-variant:normal;font-weight:normal;writing-mode:lr-tb;fill:#231f20;fill-opacity:1;fill-rule:nonzero;stroke:none;font-family:Helvetica;-inkscape-font-specification:Helvetica">24.1</tspan><tspan
                 x="0 2.0003321 4.0006642 5.0008302"
                 y="3.9967799"
                 id="tspan3557"
                 style="font-size:3.59771943px;font-variant:normal;font-weight:normal;writing-mode:lr-tb;fill:#231f20;fill-opacity:1;fill-rule:nonzero;stroke:none;font-family:Helvetica;-inkscape-font-specification:Helvetica">24.2</tspan><tspan
                 x="0 2.0003321 4.0006642 5.0008302"
                 y="7.5977631"
                 id="tspan3559"
                 style="font-size:3.59771943px;font-variant:normal;font-weight:normal;writing-mode:lr-tb;fill:#231f20;fill-opacity:1;fill-rule:nonzero;stroke:none;font-family:Helvetica;-inkscape-font-specification:Helvetica">24.3</tspan><tspan
                 x="0 2.0003321 4.0006642 5.0008302"
                 y="11.393844"
                 id="tspan3561"
                 style="font-size:3.59771943px;font-variant:normal;font-weight:normal;writing-mode:lr-tb;fill:#231f20;fill-opacity:1;fill-rule:nonzero;stroke:none;font-family:Helvetica;-inkscape-font-specification:Helvetica">31.1</tspan><tspan
                 x="-10.136716 -8.136384 -6.1360521 -5.1358862"
                 y="13.566659"
                 id="tspan3563"
                 style="font-size:3.59771943px;font-variant:normal;font-weight:normal;writing-mode:lr-tb;fill:#231f20;fill-opacity:1;fill-rule:nonzero;stroke:none;font-family:Helvetica;-inkscape-font-specification:Helvetica">31.2</tspan></text>
</g><path
             d="m 202.445,307.344 111.426,0"
             id="path3565"
             style="fill:none;stroke:#231f20;stroke-width:1.82598996;stroke-linecap:butt;stroke-linejoin:miter;stroke-miterlimit:4;stroke-opacity:1;stroke-dasharray:none" /><g
             transform="scale(10,10)"
             id="g3567"><text
               transform="matrix(1,0,0,-0.90698012,22.5801,27.175)"
               id="text3569"><tspan
                 x="0 2.0003321 4.0006642 5.0008302"
                 y="0"
                 id="tspan3571"
                 style="font-size:3.59771943px;font-variant:normal;font-weight:normal;writing-mode:lr-tb;fill:#231f20;fill-opacity:1;fill-rule:nonzero;stroke:none;font-family:Helvetica;-inkscape-font-specification:Helvetica">31.3</tspan><tspan
                 x="-11.872697 -9.872365 -7.8720326 -6.8718667 -5.1359787"
                 y="2.970021"
                 id="tspan3573"
                 style="font-size:3.59771943px;font-variant:normal;font-weight:normal;writing-mode:lr-tb;fill:#231f20;fill-opacity:1;fill-rule:nonzero;stroke:none;font-family:Helvetica;-inkscape-font-specification:Helvetica">32.11</tspan></text>
</g><path
             d="m 202.445,254.785 111.426,0"
             id="path3575"
             style="fill:none;stroke:#231f20;stroke-width:1.82598996;stroke-linecap:butt;stroke-linejoin:miter;stroke-miterlimit:4;stroke-opacity:1;stroke-dasharray:none" /><g
             transform="scale(10,10)"
             id="g3577"><text
               transform="matrix(1,0,0,-0.90698012,20.5789,22.8254)"
               id="text3579"><tspan
                 x="0 2.0003321 4.0006642 5.0008302 7.0023432"
                 y="0"
                 id="tspan3581"
                 style="font-size:3.59771943px;font-variant:normal;font-weight:normal;writing-mode:lr-tb;fill:#231f20;fill-opacity:1;fill-rule:nonzero;stroke:none;font-family:Helvetica;-inkscape-font-specification:Helvetica">32.12</tspan><tspan
                 x="-10.136331 -8.1359978 -6.1356664 -5.1355004 -3.1351683"
                 y="1.772707"
                 id="tspan3583"
                 style="font-size:3.59771943px;font-variant:normal;font-weight:normal;writing-mode:lr-tb;fill:#231f20;fill-opacity:1;fill-rule:nonzero;stroke:none;font-family:Helvetica;-inkscape-font-specification:Helvetica">32.13</tspan></text>
</g><path
             d="m 202.445,222.168 111.426,0"
             id="path3585"
             style="fill:none;stroke:#231f20;stroke-width:1.82598996;stroke-linecap:butt;stroke-linejoin:miter;stroke-miterlimit:4;stroke-opacity:1;stroke-dasharray:none" /><g
             transform="scale(10,10)"
             id="g3587"><text
               transform="matrix(1,0,0,-0.90698012,22.5801,19.2004)"
               id="text3589"><tspan
                 x="0 2.0003321 4.0006642 5.0008302"
                 y="0"
                 id="tspan3591"
                 style="font-size:3.59771943px;font-variant:normal;font-weight:normal;writing-mode:lr-tb;fill:#231f20;fill-opacity:1;fill-rule:nonzero;stroke:none;font-family:Helvetica;-inkscape-font-specification:Helvetica">32.2</tspan><tspan
                 x="-12.137532 -10.137199 -8.1368675 -7.1367016 -5.1363697"
                 y="2.5716331"
                 id="tspan3593"
                 style="font-size:3.59771943px;font-variant:normal;font-weight:normal;writing-mode:lr-tb;fill:#231f20;fill-opacity:1;fill-rule:nonzero;stroke:none;font-family:Helvetica;-inkscape-font-specification:Helvetica">32.31</tspan></text>
</g><path
             d="m 202.445,178.652 111.426,0"
             id="path3595"
             style="fill:none;stroke:#231f20;stroke-width:1.82598996;stroke-linecap:butt;stroke-linejoin:miter;stroke-miterlimit:4;stroke-opacity:1;stroke-dasharray:none" /><g
             transform="scale(10,10)"
             id="g3597"><text
               transform="matrix(1,0,0,-0.90698012,20.5789,14.4852)"
               id="text3599"><tspan
                 x="0 2.0003321 4.0006642 5.0008302 7.0023432"
                 y="0"
                 id="tspan3601"
                 style="font-size:3.59771943px;font-variant:normal;font-weight:normal;writing-mode:lr-tb;fill:#231f20;fill-opacity:1;fill-rule:nonzero;stroke:none;font-family:Helvetica;-inkscape-font-specification:Helvetica">32.32</tspan><tspan
                 x="0 2.0003321 4.0006642 5.0008302 7.0023432"
                 y="3.5979619"
                 id="tspan3603"
                 style="font-size:3.59771943px;font-variant:normal;font-weight:normal;writing-mode:lr-tb;fill:#231f20;fill-opacity:1;fill-rule:nonzero;stroke:none;font-family:Helvetica;-inkscape-font-specification:Helvetica">32.33</tspan></text>
</g></g></g></g></g></svg>