<?xml version="1.0" encoding="UTF-8"?>
<svg xmlns:xlink="http://www.w3.org/1999/xlink" xmlns="http://www.w3.org/2000/svg" contentScriptType="text/ecmascript" zoomAndPan="magnify" contentStyleType="text/css" preserveAspectRatio="xMidYMid meet" version="1.0">

<g id="chromosome14" title="Chromosome 14">
<path style="fill:#211c1d;fill-opacity:1;fill-rule:nonzero;stroke:none" id="14q12" d="m 38.796875,100.77074999999999 11.3818375,0.0 0.0,-6.005862500000001 -11.3818375,-0.0 0.0,6.005862500000001 z "/>
<path style="fill:#7a7e82;fill-opacity:1;fill-rule:nonzero;stroke:none" id="14q23.1" d="m 38.796875,134.193625 11.3818375,0.0 0.0,-3.9672875000000003 -11.3818375,-0.0 0.0,3.9672875000000003 z "/>
<path style="fill:none;stroke:#211c1d;stroke-width:0.1;stroke-linecap:butt;stroke-linejoin:miter;stroke-miterlimit:4;stroke-opacity:1;stroke-dasharray:none" id="14q23.1-o" d="m 38.796875,134.193625 11.3818375,0.0 0.0,-3.9672875000000003 -11.3818375,-0.0 0.0,3.9672875000000003 z "/>
<path style="fill:#211c1d;fill-opacity:1;fill-rule:nonzero;stroke:none" id="14q21.1" d="m 38.796875,113.68824999999998 11.3818375,0.0 0.0,-4.646 -11.3818375,-0.0 0.0,4.646 z "/>
<path style="fill:#211c1d;fill-opacity:1;fill-rule:nonzero;stroke:none" id="14q21.3" d="m 38.796875,120.71224999999998 11.3818375,0.0 0.0,-5.5542 -11.3818375,-0.0 0.0,5.5542 z "/>
<path style="fill:#e9eae9;fill-opacity:1;fill-rule:nonzero;stroke:none" id="14q22.2" d="m 38.796875,127.73612499999999 11.3818375,0.0 0.0,-2.492675 -11.3818375,-0.0 0.0,2.492675 z "/>
<path style="fill:none;stroke:#211c1d;stroke-width:0.1;stroke-linecap:butt;stroke-linejoin:miter;stroke-miterlimit:4;stroke-opacity:1;stroke-dasharray:none" id="14q22.2-o" d="m 38.796875,127.73612499999999 11.3818375,0.0 0.0,-2.492675 -11.3818375,-0.0 0.0,2.492675 z "/>
<path style="fill:#e9eae9;fill-opacity:1;fill-rule:nonzero;stroke:none" id="14q32.12" d="m 38.796875,168.070625 11.3818375,0.0 0.0,-2.038575 -11.3818375,-0.0 0.0,2.038575 z "/>
<path style="fill:none;stroke:#211c1d;stroke-width:0.1;stroke-linecap:butt;stroke-linejoin:miter;stroke-miterlimit:4;stroke-opacity:1;stroke-dasharray:none" id="14q32.12-o" d="m 38.796875,168.070625 11.3818375,0.0 0.0,-2.038575 -11.3818375,-0.0 0.0,2.038575 z "/>
<path style="fill:#bbbcbd;fill-opacity:1;fill-rule:nonzero;stroke:none" id="14q13.2" d="m 38.796875,106.434875 11.3818375,0.0 0.0,-2.492675 -11.3818375,-0.0 0.0,2.492675 z "/>
<path style="fill:none;stroke:#211c1d;stroke-width:0.1;stroke-linecap:butt;stroke-linejoin:miter;stroke-miterlimit:4;stroke-opacity:1;stroke-dasharray:none" id="14q13.2-o" d="m 38.796875,106.434875 11.3818375,0.0 0.0,-2.492675 -11.3818375,-0.0 0.0,2.492675 z "/>
<path style="fill:#bbbcbd;fill-opacity:1;fill-rule:nonzero;stroke:none" id="14q23.3" d="m 38.796875,140.1995 11.3818375,0.0 0.0,-3.173825 -11.3818375,-0.0 0.0,3.173825 z "/>
<path style="fill:none;stroke:#211c1d;stroke-width:0.1;stroke-linecap:butt;stroke-linejoin:miter;stroke-miterlimit:4;stroke-opacity:1;stroke-dasharray:none" id="14q23.3-o" d="m 38.796875,140.1995 11.3818375,0.0 0.0,-3.173825 -11.3818375,-0.0 0.0,3.173825 z "/>
<path style="fill:#bbbcbd;fill-opacity:1;fill-rule:nonzero;stroke:none" id="14q24.2" d="m 38.796875,149.262 11.3818375,0.0 0.0,-3.173825 -11.3818375,-0.0 0.0,3.173825 z "/>
<path style="fill:none;stroke:#211c1d;stroke-width:0.1;stroke-linecap:butt;stroke-linejoin:miter;stroke-miterlimit:4;stroke-opacity:1;stroke-dasharray:none" id="14q24.2-o" d="m 38.796875,149.262 11.3818375,0.0 0.0,-3.173825 -11.3818375,-0.0 0.0,3.173825 z "/>
<path style="fill:#bbbcbd;fill-opacity:1;fill-rule:nonzero;stroke:none" id="14q32.2" d="m 38.796875,172.82887499999998 11.3818375,0.0 0.0,-2.2631875 -11.3818375,-0.0 0.0,2.2631875 z "/>
<path style="fill:none;stroke:#211c1d;stroke-width:0.1;stroke-linecap:butt;stroke-linejoin:miter;stroke-miterlimit:4;stroke-opacity:1;stroke-dasharray:none" id="14q32.2-o" d="m 38.796875,172.82887499999998 11.3818375,0.0 0.0,-2.2631875 -11.3818375,-0.0 0.0,2.2631875 z "/>
<path style="fill:#bbbcbd;fill-opacity:1;fill-rule:nonzero;stroke:none" id="14q32.32" d="m 38.796875,178.72 11.3818375,0.0 0.0,-2.2651375 -11.3818375,-0.0 0.0,2.2651375 z "/>
<path style="fill:none;stroke:#211c1d;stroke-width:0.1;stroke-linecap:butt;stroke-linejoin:miter;stroke-miterlimit:4;stroke-opacity:1;stroke-dasharray:none" id="14q32.32-o" d="m 38.796875,178.72 11.3818375,0.0 0.0,-2.2651375 -11.3818375,-0.0 0.0,2.2651375 z "/>
<path style="fill:#211c1d;fill-opacity:1;fill-rule:nonzero;stroke:none" id="14q31.1" d="m 38.796875,158.3245 11.3818375,0.0 0.0,-4.41895 -11.3818375,-0.0 0.0,4.41895 z "/>
<path style="fill:#211c1d;fill-opacity:1;fill-rule:nonzero;stroke:none" id="14q31.3" d="m 38.796875,164.89925 11.3818375,0.0 0.0,-5.78125 -11.3818375,-0.0 0.0,5.78125 z "/>
<path style="fill:#fffafa;stroke:#211c1d;stroke-width:0.1;stroke-linecap:butt;stroke-linejoin:miter;stroke-miterlimit:4;stroke-opacity:1;stroke-dasharray:none" id="14q31.2" d="m 38.796875,159.118 11.3818375,0.0 0,-0.7934999999999945 -11.3818375,-0.0 0,0.7934999999999945 z "/>
<path style="fill:#fffafa;stroke:#211c1d;stroke-width:0.1;stroke-linecap:butt;stroke-linejoin:miter;stroke-miterlimit:4;stroke-opacity:1;stroke-dasharray:none" id="14q13.1" d="m 38.796875,103.9422 11.3818375,0.0 0,-3.171450000000007 -11.3818375,-0.0 0,3.171450000000007 z "/>
<path style="fill:#fffafa;stroke:#211c1d;stroke-width:0.1;stroke-linecap:butt;stroke-linejoin:miter;stroke-miterlimit:4;stroke-opacity:1;stroke-dasharray:none" id="14q22.3" d="m 38.796875,130.2263375 11.3818375,0.0 0,-2.4902125000000126 -11.3818375,-0.0 0,2.4902125000000126 z "/>
<path style="fill:#fffafa;stroke:#211c1d;stroke-width:0.1;stroke-linecap:butt;stroke-linejoin:miter;stroke-miterlimit:4;stroke-opacity:1;stroke-dasharray:none" id="14q11.2" d="m 38.796875,94.76488749999999 11.3818375,0.0 0,-7.9882624999999905 -11.3818375,-0.0 0,7.9882624999999905 z "/>
<path style="fill:#fffafa;stroke:#211c1d;stroke-width:0.1;stroke-linecap:butt;stroke-linejoin:miter;stroke-miterlimit:4;stroke-opacity:1;stroke-dasharray:none" id="14q24.3" d="m 38.796875,153.90555 11.3818375,0.0 0,-4.643550000000005 -11.3818375,-0.0 0,4.643550000000005 z "/>
<path style="fill:#fffafa;stroke:#211c1d;stroke-width:0.1;stroke-linecap:butt;stroke-linejoin:miter;stroke-miterlimit:4;stroke-opacity:1;stroke-dasharray:none" id="14q22.1" d="m 38.796875,125.24344999999998 11.3818375,0.0 0,-4.531199999999998 -11.3818375,-0.0 0,4.531199999999998 z "/>
<path style="fill:#fffafa;stroke:#211c1d;stroke-width:0.1;stroke-linecap:butt;stroke-linejoin:miter;stroke-miterlimit:4;stroke-opacity:1;stroke-dasharray:none" id="14q23.2" d="m 38.796875,137.025675 11.3818375,0.0 0,-2.8320500000000095 -11.3818375,-0.0 0,2.8320500000000095 z "/>
<path style="fill:#fffafa;stroke:#211c1d;stroke-width:0.1;stroke-linecap:butt;stroke-linejoin:miter;stroke-miterlimit:4;stroke-opacity:1;stroke-dasharray:none" id="14q32.13" d="m 38.796875,170.5656875 11.3818375,0.0 0,-2.495062499999989 -11.3818375,-0.0 0,2.495062499999989 z "/>
<path style="fill:#fffafa;stroke:#211c1d;stroke-width:0.1;stroke-linecap:butt;stroke-linejoin:miter;stroke-miterlimit:4;stroke-opacity:1;stroke-dasharray:none" id="14q32.31" d="m 38.796875,176.4548625 11.3818375,0.0 0,-3.625987500000008 -11.3818375,-0.0 0,3.625987500000008 z "/>
<path style="fill:#fffafa;stroke:#211c1d;stroke-width:0.1;stroke-linecap:butt;stroke-linejoin:miter;stroke-miterlimit:4;stroke-opacity:1;stroke-dasharray:none" id="14q13.3" d="m 38.796875,109.04224999999998 11.3818375,0.0 0,-2.6073749999999762 -11.3818375,-0.0 0,2.6073749999999762 z "/>
<path style="fill:#fffafa;stroke:#211c1d;stroke-width:0.1;stroke-linecap:butt;stroke-linejoin:miter;stroke-miterlimit:4;stroke-opacity:1;stroke-dasharray:none" id="14q21.2" d="m 38.796875,115.15804999999999 11.3818375,0.0 0,-1.4698000000000064 -11.3818375,-0.0 0,1.4698000000000064 z "/>
<path style="fill:#fffafa;stroke:#211c1d;stroke-width:0.1;stroke-linecap:butt;stroke-linejoin:miter;stroke-miterlimit:4;stroke-opacity:1;stroke-dasharray:none" id="14q24.1" d="m 38.796875,146.088175 11.3818375,0.0 0,-5.888675000000006 -11.3818375,-0.0 0,5.888675000000006 z "/>
<path style="fill:#fffafa;stroke:#211c1d;stroke-width:0.1;stroke-linecap:butt;stroke-linejoin:miter;stroke-miterlimit:4;stroke-opacity:1;stroke-dasharray:none" id="14q32.11" d="m 38.796875,166.03205 11.3818375,0.0 0,-1.1328000000000031 -11.3818375,-0.0 0,1.1328000000000031 z "/>
<path style="fill:#fffafa;stroke:#211c1d;stroke-width:0.1;stroke-linecap:butt;stroke-linejoin:miter;stroke-miterlimit:4;stroke-opacity:1;stroke-dasharray:none" id="14q32.33" d="m 38.796875,178.72 0.0,3.5 c 0.0,1.4136250000000001 2.544,2.5635000000000003 5.681125,2.5635000000000003 3.13875,0.0 5.681250000000001,-1.149875 5.681250000000001,-2.5635000000000003 l 0.0,-3.5 -11.3818375,-0.0 z"/>
<path style="fill:#a4bdc8;fill-opacity:1;fill-rule:nonzero;stroke:none" id="centromere14-f" d="m 50.169,86.776625 0.0,-1.3012500000000002 c 0.0,-0.9643750000000001 -1.1792500000000001,-2.548875 -2.9223750000000006,-3.457 1.743125,-0.9057500000000002 2.9223750000000006,-2.49275 2.9223750000000006,-3.454625 l 0.0,-0.566375 -11.363375,-0.0 0.0,0.566375 c 0.0,0.9643750000000001 1.1875,2.55125 2.941875,3.454625 -1.7543750000000002,0.9057500000000002 -2.941875,2.49025 -2.941875,3.457 l 0.0,1.3012500000000002 11.363375,0.0 "/>
<path style="fill:none;stroke:#100f0d;stroke-width:0.8;stroke-linecap:butt;stroke-linejoin:miter;stroke-miterlimit:4;stroke-opacity:1;stroke-dasharray:none" id="centromere14-o" d="m 50.169,86.776625 0.0,-1.3012500000000002 c 0.0,-0.9643750000000001 -1.1792500000000001,-2.548875 -2.9223750000000006,-3.457 1.743125,-0.9057500000000002 2.9223750000000006,-2.49275 2.9223750000000006,-3.454625 l 0.0,-0.566375 -11.363375,-0.0 0.0,0.566375 c 0.0,0.9643750000000001 1.1875,2.55125 2.941875,3.454625 -1.7543750000000002,0.9057500000000002 -2.941875,2.49025 -2.941875,3.457 l 0.0,1.3012500000000002 11.363375,0.0 z "/>
<path style="fill:none;stroke:#211c1d;stroke-width:0.8;stroke-linecap:butt;stroke-linejoin:miter;stroke-miterlimit:4;stroke-opacity:1;stroke-dasharray:none" id="outline14" d="m 41.746125000000006,82.01837499999999 c -1.7530000000000001,0.9057500000000002 -2.9395,2.49025 -2.9395,3.457 l 0.0,96.646 c 0.0,1.4136250000000001 2.544,2.5635000000000003 5.681125,2.5635000000000003 3.13875,0.0 5.681250000000001,-1.149875 5.681250000000001,-2.5635000000000003 l 0.0,-96.646 c 0.0,-0.9643750000000001 -1.1792500000000001,-2.548875 -2.9223750000000006,-3.457 1.743125,-0.9057500000000002 2.9223750000000006,-2.49275 2.9223750000000006,-3.454625 l 0.0,-11.103750000000002 c 0.0,-1.41625 -2.5425000000000004,-2.56375 -5.681250000000001,-2.56375 -3.1371250000000006,-0.0 -5.681125,1.1475 -5.681125,2.56375 l 0.0,11.103750000000002 c 0.0,0.9668750000000002 1.1865,2.55125 2.9395,3.454625 z "/>
<path style="fill:#c4cdf2;fill-opacity:1;fill-rule:nonzero;stroke:none" id="satellite14" d="m 38.80175,77.99737499999998 0.0,-10.537375000000003 c 0.0,-1.235 1.9262500000000002,-2.2625 4.494625,-2.51 l -0.007375,-7.39 c -1.294875,-0.45625 -2.211875,-1.5937500000000002 -2.211875,-2.9312500000000004 0.0,-1.73875 1.5527500000000003,-3.145 3.4668750000000004,-3.145 1.9140000000000001,0.0 3.4667500000000007,1.40625 3.4667500000000007,3.145 0.0,1.3375000000000001 -0.918,2.475 -2.211875,2.9312500000000004 l -0.0035000000000000005,7.402500000000001 c 2.505875,0.26625 4.371125,1.2850000000000001 4.371125,2.4975000000000005 l 0.0,10.537375000000003 -11.36475,-0.0 "/>
<path style="fill:none;stroke:#211c1d;stroke-width:0.8;stroke-linecap:butt;stroke-linejoin:miter;stroke-miterlimit:4;stroke-opacity:1;stroke-dasharray:none" id="satellite14-o" d="m 38.80175,77.99737499999998 0.0,-10.537375000000003 c 0.0,-1.235 1.9262500000000002,-2.2625 4.494625,-2.51 l -0.007375,-7.39 c -1.294875,-0.45625 -2.211875,-1.5937500000000002 -2.211875,-2.9312500000000004 0.0,-1.73875 1.5527500000000003,-3.145 3.4668750000000004,-3.145 1.9140000000000001,0.0 3.4667500000000007,1.40625 3.4667500000000007,3.145 0.0,1.3375000000000001 -0.918,2.475 -2.211875,2.9312500000000004 l -0.0035000000000000005,7.402500000000001 c 2.505875,0.26625 4.371125,1.2850000000000001 4.371125,2.4975000000000005 l 0.0,10.537375000000003 -11.36475,-0.0 z "/>
<path style="fill:none;stroke:#231f20;stroke-width:0.8;stroke-linecap:butt;stroke-linejoin:miter;stroke-miterlimit:4;stroke-opacity:1;stroke-dasharray:none;display:none" id="centre14" d="M 41.34812500000001,82.055 0.0,82.055 "/>
<text>
<tspan x="38.791000000000004 43.79343550000001" y="193.338675" id="label14" style="font-size:7.19543791px;font-variant:normal;font-weight:normal;writing-mode:lr-tb;fill:#211c1d;fill-opacity:1;fill-rule:nonzero;stroke:none;font-family:Helvetica;-inkscape-font-specification:Helvetica">14</tspan>
</text>
</g>
</svg>
