<?xml version="1.0" encoding="UTF-8" standalone="no"?>
<!-- Created with Inkscape (http://www.inkscape.org/) -->

<svg
   xmlns:dc="http://purl.org/dc/elements/1.1/"
   xmlns:cc="http://creativecommons.org/ns#"
   xmlns:rdf="http://www.w3.org/1999/02/22-rdf-syntax-ns#"
   xmlns:svg="http://www.w3.org/2000/svg"
   xmlns="http://www.w3.org/2000/svg"
   version="1.1"
   width="45.487499"
   height="126.45"
   id="svg3605"
   xml:space="preserve"><metadata
     id="metadata3611"><rdf:RDF><cc:Work
         rdf:about=""><dc:format>image/svg+xml</dc:format><dc:type
           rdf:resource="http://purl.org/dc/dcmitype/StillImage" /><dc:title></dc:title></cc:Work></rdf:RDF></metadata><defs
     id="defs3609"><clipPath
       id="clipPath3621"><path
         d="M 0,1011.61 0,0 l 363.891,0 0,1011.61 -363.891,0 z"
         id="path3623" /></clipPath><clipPath
       id="clipPath3689"><path
         d="M 0,720 720,720 720,0 0,0 0,720 z"
         id="path3691" /></clipPath><pattern
       id="pattern3693"
       height="72"
       width="72"
       y="0"
       x="0"
       patternUnits="userSpaceOnUse"
       patternTransform="matrix(0.999995,0,0,-0.999995,-70.8,-22)"><g
         id="g3695"
         transform="scale(0.1,0.1)"><g
           id="g3697"><g
             id="g3699"
             clip-path="url(#clipPath3689)"><path
               id="path3701"
               style="fill:#ffffff;fill-opacity:1;fill-rule:nonzero;stroke:none"
               d="M 0,0 720,0 720,720 0,720 0,0 z" /><path
               id="path3703"
               style="fill:none;stroke:#211c1d;stroke-opacity:1;stroke-width:3;stroke-linecap:square;stroke-linejoin:bevel;stroke-miterlimit:4;stroke-dasharray:none"
               d="M 0,0 720,720" /><path
               id="path3705"
               style="fill:none;stroke:#211c1d;stroke-opacity:1;stroke-width:3;stroke-linecap:square;stroke-linejoin:bevel;stroke-miterlimit:4;stroke-dasharray:none"
               d="M -30.0117,29.9883 660,720" /><path
               id="path3707"
               style="fill:none;stroke:#211c1d;stroke-opacity:1;stroke-width:3;stroke-linecap:square;stroke-linejoin:bevel;stroke-miterlimit:4;stroke-dasharray:none"
               d="M -30.0508,89.9531 600,720" /><path
               id="path3709"
               style="fill:none;stroke:#211c1d;stroke-opacity:1;stroke-width:3;stroke-linecap:square;stroke-linejoin:bevel;stroke-miterlimit:4;stroke-dasharray:none"
               d="M -30.0898,149.91 540,720" /><path
               id="path3711"
               style="fill:none;stroke:#211c1d;stroke-opacity:1;stroke-width:3;stroke-linecap:square;stroke-linejoin:bevel;stroke-miterlimit:4;stroke-dasharray:none"
               d="M -30.1328,209.871 480,720" /><path
               id="path3713"
               style="fill:none;stroke:#211c1d;stroke-opacity:1;stroke-width:3;stroke-linecap:square;stroke-linejoin:bevel;stroke-miterlimit:4;stroke-dasharray:none"
               d="M -30.1602,269.844 420,720" /><path
               id="path3715"
               style="fill:none;stroke:#211c1d;stroke-opacity:1;stroke-width:3;stroke-linecap:square;stroke-linejoin:bevel;stroke-miterlimit:4;stroke-dasharray:none"
               d="M -30.1992,329.805 360,720" /><path
               id="path3717"
               style="fill:none;stroke:#211c1d;stroke-opacity:1;stroke-width:3;stroke-linecap:square;stroke-linejoin:bevel;stroke-miterlimit:4;stroke-dasharray:none"
               d="M -30.2383,389.758 300,720" /><path
               id="path3719"
               style="fill:none;stroke:#211c1d;stroke-opacity:1;stroke-width:3;stroke-linecap:square;stroke-linejoin:bevel;stroke-miterlimit:4;stroke-dasharray:none"
               d="M -30.2695,449.719 240,720" /><path
               id="path3721"
               style="fill:none;stroke:#211c1d;stroke-opacity:1;stroke-width:3;stroke-linecap:square;stroke-linejoin:bevel;stroke-miterlimit:4;stroke-dasharray:none"
               d="M -30.3086,509.688 180,720" /><path
               id="path3723"
               style="fill:none;stroke:#211c1d;stroke-opacity:1;stroke-width:3;stroke-linecap:square;stroke-linejoin:bevel;stroke-miterlimit:4;stroke-dasharray:none"
               d="M -30.3516,569.648 120,720" /><path
               id="path3725"
               style="fill:none;stroke:#211c1d;stroke-opacity:1;stroke-width:3;stroke-linecap:square;stroke-linejoin:bevel;stroke-miterlimit:4;stroke-dasharray:none"
               d="M -30.3906,629.609 60,720" /><path
               id="path3727"
               style="fill:none;stroke:#211c1d;stroke-opacity:1;stroke-width:3;stroke-linecap:square;stroke-linejoin:bevel;stroke-miterlimit:4;stroke-dasharray:none"
               d="M -30.4219,689.57 0,720" /><path
               id="path3729"
               style="fill:none;stroke:#211c1d;stroke-opacity:1;stroke-width:3;stroke-linecap:square;stroke-linejoin:bevel;stroke-miterlimit:4;stroke-dasharray:none"
               d="M 60,0 750.012,690.02" /><path
               id="path3731"
               style="fill:none;stroke:#211c1d;stroke-opacity:1;stroke-width:3;stroke-linecap:square;stroke-linejoin:bevel;stroke-miterlimit:4;stroke-dasharray:none"
               d="M 120,0 750.051,630.059" /><path
               id="path3733"
               style="fill:none;stroke:#211c1d;stroke-opacity:1;stroke-width:3;stroke-linecap:square;stroke-linejoin:bevel;stroke-miterlimit:4;stroke-dasharray:none"
               d="M 180,0 750.09,570.098" /><path
               id="path3735"
               style="fill:none;stroke:#211c1d;stroke-opacity:1;stroke-width:3;stroke-linecap:square;stroke-linejoin:bevel;stroke-miterlimit:4;stroke-dasharray:none"
               d="M 240,0 750.133,510.129" /><path
               id="path3737"
               style="fill:none;stroke:#211c1d;stroke-opacity:1;stroke-width:3;stroke-linecap:square;stroke-linejoin:bevel;stroke-miterlimit:4;stroke-dasharray:none"
               d="M 300,0 750.16,450.168" /><path
               id="path3739"
               style="fill:none;stroke:#211c1d;stroke-opacity:1;stroke-width:3;stroke-linecap:square;stroke-linejoin:bevel;stroke-miterlimit:4;stroke-dasharray:none"
               d="M 360,0 750.199,390.215" /><path
               id="path3741"
               style="fill:none;stroke:#211c1d;stroke-opacity:1;stroke-width:3;stroke-linecap:square;stroke-linejoin:bevel;stroke-miterlimit:4;stroke-dasharray:none"
               d="M 420,0 750.238,330.254" /><path
               id="path3743"
               style="fill:none;stroke:#211c1d;stroke-opacity:1;stroke-width:3;stroke-linecap:square;stroke-linejoin:bevel;stroke-miterlimit:4;stroke-dasharray:none"
               d="M 480,0 750.277,270.281" /><path
               id="path3745"
               style="fill:none;stroke:#211c1d;stroke-opacity:1;stroke-width:3;stroke-linecap:square;stroke-linejoin:bevel;stroke-miterlimit:4;stroke-dasharray:none"
               d="M 540,0 750.309,210.32" /><path
               id="path3747"
               style="fill:none;stroke:#211c1d;stroke-opacity:1;stroke-width:3;stroke-linecap:square;stroke-linejoin:bevel;stroke-miterlimit:4;stroke-dasharray:none"
               d="M 600,0 750.352,150.359" /><path
               id="path3749"
               style="fill:none;stroke:#211c1d;stroke-opacity:1;stroke-width:3;stroke-linecap:square;stroke-linejoin:bevel;stroke-miterlimit:4;stroke-dasharray:none"
               d="m 660,0 90.391,90.4023" /><path
               id="path3751"
               style="fill:none;stroke:#211c1d;stroke-opacity:1;stroke-width:3;stroke-linecap:square;stroke-linejoin:bevel;stroke-miterlimit:4;stroke-dasharray:none"
               d="m 720,0 30.43,30.4297" /><path
               id="path3753"
               style="fill:none;stroke:#211c1d;stroke-opacity:1;stroke-width:3;stroke-linecap:square;stroke-linejoin:bevel;stroke-miterlimit:4;stroke-dasharray:none"
               d="M 720,0 0,720" /><path
               id="path3755"
               style="fill:none;stroke:#211c1d;stroke-opacity:1;stroke-width:3;stroke-linecap:square;stroke-linejoin:bevel;stroke-miterlimit:4;stroke-dasharray:none"
               d="M 660,0 -30.0117,690.02" /><path
               id="path3757"
               style="fill:none;stroke:#211c1d;stroke-opacity:1;stroke-width:3;stroke-linecap:square;stroke-linejoin:bevel;stroke-miterlimit:4;stroke-dasharray:none"
               d="M 600,0 -30.0508,630.059" /><path
               id="path3759"
               style="fill:none;stroke:#211c1d;stroke-opacity:1;stroke-width:3;stroke-linecap:square;stroke-linejoin:bevel;stroke-miterlimit:4;stroke-dasharray:none"
               d="M 540,0 -30.0898,570.098" /><path
               id="path3761"
               style="fill:none;stroke:#211c1d;stroke-opacity:1;stroke-width:3;stroke-linecap:square;stroke-linejoin:bevel;stroke-miterlimit:4;stroke-dasharray:none"
               d="M 480,0 -30.1328,510.137" /><path
               id="path3763"
               style="fill:none;stroke:#211c1d;stroke-opacity:1;stroke-width:3;stroke-linecap:square;stroke-linejoin:bevel;stroke-miterlimit:4;stroke-dasharray:none"
               d="M 420,0 -30.1602,450.168" /><path
               id="path3765"
               style="fill:none;stroke:#211c1d;stroke-opacity:1;stroke-width:3;stroke-linecap:square;stroke-linejoin:bevel;stroke-miterlimit:4;stroke-dasharray:none"
               d="M 360,0 -30.1992,390.215" /><path
               id="path3767"
               style="fill:none;stroke:#211c1d;stroke-opacity:1;stroke-width:3;stroke-linecap:square;stroke-linejoin:bevel;stroke-miterlimit:4;stroke-dasharray:none"
               d="M 300,0 -30.2383,330.254" /><path
               id="path3769"
               style="fill:none;stroke:#211c1d;stroke-opacity:1;stroke-width:3;stroke-linecap:square;stroke-linejoin:bevel;stroke-miterlimit:4;stroke-dasharray:none"
               d="M 240,0 -30.2695,270.293" /><path
               id="path3771"
               style="fill:none;stroke:#211c1d;stroke-opacity:1;stroke-width:3;stroke-linecap:square;stroke-linejoin:bevel;stroke-miterlimit:4;stroke-dasharray:none"
               d="M 180,0 -30.3086,210.32" /><path
               id="path3773"
               style="fill:none;stroke:#211c1d;stroke-opacity:1;stroke-width:3;stroke-linecap:square;stroke-linejoin:bevel;stroke-miterlimit:4;stroke-dasharray:none"
               d="M 120,0 -30.3516,150.359" /><path
               id="path3775"
               style="fill:none;stroke:#211c1d;stroke-opacity:1;stroke-width:3;stroke-linecap:square;stroke-linejoin:bevel;stroke-miterlimit:4;stroke-dasharray:none"
               d="M 60,0 -30.3906,90.4023" /><path
               id="path3777"
               style="fill:none;stroke:#211c1d;stroke-opacity:1;stroke-width:3;stroke-linecap:square;stroke-linejoin:bevel;stroke-miterlimit:4;stroke-dasharray:none"
               d="M 0,0 -30.4219,30.4414" /><path
               id="path3779"
               style="fill:none;stroke:#211c1d;stroke-opacity:1;stroke-width:3;stroke-linecap:square;stroke-linejoin:bevel;stroke-miterlimit:4;stroke-dasharray:none"
               d="M 750.012,29.9883 60,720" /><path
               id="path3781"
               style="fill:none;stroke:#211c1d;stroke-opacity:1;stroke-width:3;stroke-linecap:square;stroke-linejoin:bevel;stroke-miterlimit:4;stroke-dasharray:none"
               d="M 750.051,89.9531 120,720" /><path
               id="path3783"
               style="fill:none;stroke:#211c1d;stroke-opacity:1;stroke-width:3;stroke-linecap:square;stroke-linejoin:bevel;stroke-miterlimit:4;stroke-dasharray:none"
               d="M 750.09,149.91 180,720" /><path
               id="path3785"
               style="fill:none;stroke:#211c1d;stroke-opacity:1;stroke-width:3;stroke-linecap:square;stroke-linejoin:bevel;stroke-miterlimit:4;stroke-dasharray:none"
               d="M 750.133,209.871 240,720" /><path
               id="path3787"
               style="fill:none;stroke:#211c1d;stroke-opacity:1;stroke-width:3;stroke-linecap:square;stroke-linejoin:bevel;stroke-miterlimit:4;stroke-dasharray:none"
               d="M 750.16,269.844 300,720" /><path
               id="path3789"
               style="fill:none;stroke:#211c1d;stroke-opacity:1;stroke-width:3;stroke-linecap:square;stroke-linejoin:bevel;stroke-miterlimit:4;stroke-dasharray:none"
               d="M 750.199,329.805 360,720" /><path
               id="path3791"
               style="fill:none;stroke:#211c1d;stroke-opacity:1;stroke-width:3;stroke-linecap:square;stroke-linejoin:bevel;stroke-miterlimit:4;stroke-dasharray:none"
               d="M 750.238,389.758 420,720" /><path
               id="path3793"
               style="fill:none;stroke:#211c1d;stroke-opacity:1;stroke-width:3;stroke-linecap:square;stroke-linejoin:bevel;stroke-miterlimit:4;stroke-dasharray:none"
               d="M 750.277,449.727 480,720" /><path
               id="path3795"
               style="fill:none;stroke:#211c1d;stroke-opacity:1;stroke-width:3;stroke-linecap:square;stroke-linejoin:bevel;stroke-miterlimit:4;stroke-dasharray:none"
               d="M 750.309,509.688 540,720" /><path
               id="path3797"
               style="fill:none;stroke:#211c1d;stroke-opacity:1;stroke-width:3;stroke-linecap:square;stroke-linejoin:bevel;stroke-miterlimit:4;stroke-dasharray:none"
               d="M 750.352,569.648 600,720" /><path
               id="path3799"
               style="fill:none;stroke:#211c1d;stroke-opacity:1;stroke-width:3;stroke-linecap:square;stroke-linejoin:bevel;stroke-miterlimit:4;stroke-dasharray:none"
               d="M 750.391,629.609 660,720" /><path
               id="path3801"
               style="fill:none;stroke:#211c1d;stroke-opacity:1;stroke-width:3;stroke-linecap:square;stroke-linejoin:bevel;stroke-miterlimit:4;stroke-dasharray:none"
               d="M 750.43,689.578 720,720" /></g></g></g></pattern></defs><g
     transform="matrix(1.25,0,0,-1.25,0,126.45)"
     id="g3613"><g
       transform="scale(0.1,0.1)"
       id="g3615"><g
         id="g3617"><g
           clip-path="url(#clipPath3621)"
           id="g3619"><path
             d="m 359.145,783.387 2.246,-6.973 c 0,6.973 -8.504,18.398 -21.075,24.941 12.571,6.524 21.075,17.969 21.075,24.922 l 0,8.575 -81.922,0 0,-8.575 c 0,-6.972 8.562,-18.398 21.191,-24.922 -12.629,-6.543 -21.191,-17.929 -21.191,-24.941 l 2.246,6.973 77.43,0"
             id="path3625"
             style="fill:#a4bdc8;fill-opacity:1;fill-rule:nonzero;stroke:none" /><path
             d="m 359.145,783.387 2.246,-6.973 c 0,6.973 -8.504,18.398 -21.075,24.941 12.571,6.524 21.075,17.969 21.075,24.922 l 0,8.575 -81.922,0 0,-8.575 c 0,-6.972 8.562,-18.398 21.191,-24.922 -12.629,-6.543 -21.191,-17.929 -21.191,-24.941 l 2.246,6.973 77.43,0 z"
             id="path3627"
             style="fill:none;stroke:#100f0d;stroke-width:5;stroke-linecap:butt;stroke-linejoin:miter;stroke-miterlimit:4;stroke-opacity:1;stroke-dasharray:none" /><g
             transform="scale(10,10)"
             id="g3629"><text
               transform="matrix(1,0,0,-0.90697189,27.9359,3.13867)"
               id="text3631"><tspan
                 x="0 4.0019484"
                 y="0"
                 id="tspan3633"
                 style="font-size:7.19543791px;font-variant:normal;font-weight:normal;writing-mode:lr-tb;fill:#211c1d;fill-opacity:1;fill-rule:nonzero;stroke:none;font-family:Helvetica;-inkscape-font-specification:Helvetica">15</tspan></text>
</g><path
             d="m 279.379,591.004 82.082,0 0,35.1172 -82.082,0 0,-35.1172 z"
             id="path3635"
             style="fill:#7a7e82;fill-opacity:1;fill-rule:nonzero;stroke:none" /><path
             d="m 279.379,591.004 82.082,0 0,35.1172 -82.082,0 0,-35.1172 z"
             id="path3637"
             style="fill:none;stroke:#211c1d;stroke-width:0.62;stroke-linecap:butt;stroke-linejoin:miter;stroke-miterlimit:4;stroke-opacity:1;stroke-dasharray:none" /><path
             d="m 279.379,484.812 82.082,0 0,33.4961 -82.082,0 0,-33.4961 z"
             id="path3639"
             style="fill:#7a7e82;fill-opacity:1;fill-rule:nonzero;stroke:none" /><path
             d="m 279.379,484.812 82.082,0 0,33.4961 -82.082,0 0,-33.4961 z"
             id="path3641"
             style="fill:none;stroke:#211c1d;stroke-width:0.62;stroke-linecap:butt;stroke-linejoin:miter;stroke-miterlimit:4;stroke-opacity:1;stroke-dasharray:none" /><path
             d="m 279.379,427.605 82.082,0 0,35.1367 -82.082,0 0,-35.1367 z"
             id="path3643"
             style="fill:#7a7e82;fill-opacity:1;fill-rule:nonzero;stroke:none" /><path
             d="m 279.379,427.605 82.082,0 0,35.1367 -82.082,0 0,-35.1367 z"
             id="path3645"
             style="fill:none;stroke:#211c1d;stroke-width:0.62;stroke-linecap:butt;stroke-linejoin:miter;stroke-miterlimit:4;stroke-opacity:1;stroke-dasharray:none" /><path
             d="m 279.379,545.242 82.082,0 0,12.2656 -82.082,0 0,-12.2656 z"
             id="path3647"
             style="fill:#e9eae9;fill-opacity:1;fill-rule:nonzero;stroke:none" /><path
             d="m 279.379,545.242 82.082,0 0,12.2656 -82.082,0 0,-12.2656 z"
             id="path3649"
             style="fill:none;stroke:#211c1d;stroke-width:0.62;stroke-linecap:butt;stroke-linejoin:miter;stroke-miterlimit:4;stroke-opacity:1;stroke-dasharray:none" /><path
             d="m 279.379,393.289 82.082,0 0,13.9062 -82.082,0 0,-13.9062 z"
             id="path3651"
             style="fill:#e9eae9;fill-opacity:1;fill-rule:nonzero;stroke:none" /><path
             d="m 279.379,393.289 82.082,0 0,13.9062 -82.082,0 0,-13.9062 z"
             id="path3653"
             style="fill:none;stroke:#211c1d;stroke-width:0.62;stroke-linecap:butt;stroke-linejoin:miter;stroke-miterlimit:4;stroke-opacity:1;stroke-dasharray:none" /><path
             d="m 279.379,352.449 82.082,0 0,15.5273 -82.082,0 0,-15.5273 z"
             id="path3655"
             style="fill:#e9eae9;fill-opacity:1;fill-rule:nonzero;stroke:none" /><path
             d="m 279.379,352.449 82.082,0 0,15.5273 -82.082,0 0,-15.5273 z"
             id="path3657"
             style="fill:none;stroke:#211c1d;stroke-width:0.62;stroke-linecap:butt;stroke-linejoin:miter;stroke-miterlimit:4;stroke-opacity:1;stroke-dasharray:none" /><path
             d="m 279.379,313.25 82.082,0 0,15.5078 -82.082,0 0,-15.5078 z"
             id="path3659"
             style="fill:#e9eae9;fill-opacity:1;fill-rule:nonzero;stroke:none" /><path
             d="m 279.379,313.25 82.082,0 0,15.5078 -82.082,0 0,-15.5078 z"
             id="path3661"
             style="fill:none;stroke:#211c1d;stroke-width:0.62;stroke-linecap:butt;stroke-linejoin:miter;stroke-miterlimit:4;stroke-opacity:1;stroke-dasharray:none" /><path
             d="m 279.379,282.195 82.082,0 0,10.6055 -82.082,0 0,-10.6055 z"
             id="path3663"
             style="fill:#e9eae9;fill-opacity:1;fill-rule:nonzero;stroke:none" /><path
             d="m 279.379,282.195 82.082,0 0,10.6055 -82.082,0 0,-10.6055 z"
             id="path3665"
             style="fill:none;stroke:#211c1d;stroke-width:0.62;stroke-linecap:butt;stroke-linejoin:miter;stroke-miterlimit:4;stroke-opacity:1;stroke-dasharray:none" /><path
             d="m 279.379,710.262 82.082,0 0,28.5938 -82.082,0 0,-28.5938 z"
             id="path3667"
             style="fill:#bbbcbd;fill-opacity:1;fill-rule:nonzero;stroke:none" /><path
             d="m 279.379,710.262 82.082,0 0,28.5938 -82.082,0 0,-28.5938 z"
             id="path3669"
             style="fill:none;stroke:#211c1d;stroke-width:0.62;stroke-linecap:butt;stroke-linejoin:miter;stroke-miterlimit:4;stroke-opacity:1;stroke-dasharray:none" /><path
             d="m 279.379,659.637 82.082,0 0,22.0508 -82.082,0 0,-22.0508 z"
             id="path3671"
             style="fill:#bbbcbd;fill-opacity:1;fill-rule:nonzero;stroke:none" /><path
             d="m 279.379,659.637 82.082,0 0,22.0508 -82.082,0 0,-22.0508 z"
             id="path3673"
             style="fill:none;stroke:#211c1d;stroke-width:0.62;stroke-linecap:butt;stroke-linejoin:miter;stroke-miterlimit:4;stroke-opacity:1;stroke-dasharray:none" /><path
             d="m 279.379,247.898 82.082,0 0,18.7891 -82.082,0 0,-18.7891 z"
             id="path3675"
             style="fill:#bbbcbd;fill-opacity:1;fill-rule:nonzero;stroke:none" /><path
             d="m 279.379,247.898 82.082,0 0,18.7891 -82.082,0 0,-18.7891 z"
             id="path3677"
             style="fill:none;stroke:#211c1d;stroke-width:0.62;stroke-linecap:butt;stroke-linejoin:miter;stroke-miterlimit:4;stroke-opacity:1;stroke-dasharray:none" /><path
             d="m 279.379,195.613 82.082,0 0,31.875 -82.082,0 0,-31.875 z"
             id="path3679"
             style="fill:#bbbcbd;fill-opacity:1;fill-rule:nonzero;stroke:none" /><path
             d="m 279.379,195.613 82.082,0 0,31.875 -82.082,0 0,-31.875 z"
             id="path3681"
             style="fill:none;stroke:#211c1d;stroke-width:0.62;stroke-linecap:butt;stroke-linejoin:miter;stroke-miterlimit:4;stroke-opacity:1;stroke-dasharray:none" /><path
             d="m 279.379,123.699 82.082,0 0,31.8555 -82.082,0 0,-31.8555 z"
             id="path3683"
             style="fill:#bbbcbd;fill-opacity:1;fill-rule:nonzero;stroke:none" /><path
             d="m 279.379,123.699 82.082,0 0,31.8555 -82.082,0 0,-31.8555 z"
             id="path3685"
             style="fill:none;stroke:#211c1d;stroke-width:0.62;stroke-linecap:butt;stroke-linejoin:miter;stroke-miterlimit:4;stroke-opacity:1;stroke-dasharray:none" /><path
             d="m 300.66,801.355 c -12.629,-6.543 -21.191,-17.929 -21.191,-24.941 l 0,-664.121 c 0,-10.215 18.34,-18.5157 40.957,-18.5157 22.625,0 40.965,8.3007 40.965,18.5157 l 0,664.121 c 0,6.973 -8.496,18.398 -21.063,24.941 12.567,6.524 21.063,17.969 21.063,24.922 l 0,67.813 c 0,10.195 -18.34,18.476 -40.965,18.476 -22.617,0 -40.957,-8.281 -40.957,-18.476 l 0,-67.813 c 0,-6.972 8.562,-18.398 21.191,-24.922 z"
             id="path3687"
             style="fill:none;stroke:#211c1d;stroke-width:5;stroke-linecap:butt;stroke-linejoin:miter;stroke-miterlimit:4;stroke-opacity:1;stroke-dasharray:none" /><path
             d="m 279.438,834.91 0,59.024 c 0,8.886 13.886,16.308 32.402,18.086 l -0.059,53.281 c -9.324,3.301 -15.945,11.523 -15.945,21.152 0,12.52 11.18,22.657 25.008,22.657 13.808,0 24.992,-10.137 24.992,-22.657 0,-9.629 -6.621,-17.851 -15.949,-21.152 l -0.039,-53.379 c 18.066,-1.914 31.523,-9.238 31.523,-17.988 l 0,-59.024 -81.933,0"
             id="path3803"
             style="fill:url(#pattern3693);fill-opacity:1;fill-rule:nonzero;stroke:none" /><path
             d="m 279.438,834.91 0,59.024 c 0,8.886 13.886,16.308 32.402,18.086 l -0.059,53.281 c -9.324,3.301 -15.945,11.523 -15.945,21.152 0,12.52 11.18,22.657 25.008,22.657 13.808,0 24.992,-10.137 24.992,-22.657 0,-9.629 -6.621,-17.851 -15.949,-21.152 l -0.039,-53.379 c 18.066,-1.914 31.523,-9.238 31.523,-17.988 l 0,-59.024 -81.933,0 z"
             id="path3805"
             style="fill:none;stroke:#211c1d;stroke-width:5;stroke-linecap:butt;stroke-linejoin:miter;stroke-miterlimit:4;stroke-opacity:1;stroke-dasharray:none" /><path
             d="M 298.129,801.102 0,801.102"
             id="path3807"
             style="fill:none;stroke:#231f20;stroke-width:5;stroke-linecap:butt;stroke-linejoin:miter;stroke-miterlimit:4;stroke-opacity:1;stroke-dasharray:none" /><g
             transform="scale(10,10)"
             id="g3809"><text
               transform="matrix(1,0,0,-0.90698012,20.5914,85.9102)"
               id="text3811"><tspan
                 x="0 1.5639588 3.3662536 4.266644"
                 y="0"
                 id="tspan3813"
                 style="font-size:3.24153733px;font-variant:normal;font-weight:normal;writing-mode:lr-tb;fill:#231f20;fill-opacity:1;fill-rule:nonzero;stroke:none;font-family:Helvetica;-inkscape-font-specification:Helvetica">11.2</tspan><tspan
                 x="0 1.5639588 3.3662536 4.266644"
                 y="5.9456429"
                 id="tspan3815"
                 style="font-size:3.24153733px;font-variant:normal;font-weight:normal;writing-mode:lr-tb;fill:#231f20;fill-opacity:1;fill-rule:nonzero;stroke:none;font-family:Helvetica;-inkscape-font-specification:Helvetica">11.1</tspan><tspan
                 x="0 1.5639588 3.3662536 4.266644"
                 y="9.0961199"
                 id="tspan3817"
                 style="font-size:3.24153733px;font-variant:normal;font-weight:normal;writing-mode:lr-tb;fill:#231f20;fill-opacity:1;fill-rule:nonzero;stroke:none;font-family:Helvetica;-inkscape-font-specification:Helvetica">11.1</tspan><tspan
                 x="0 1.5639588 3.3662536 4.266644"
                 y="12.341351"
                 id="tspan3819"
                 style="font-size:3.24153733px;font-variant:normal;font-weight:normal;writing-mode:lr-tb;fill:#231f20;fill-opacity:1;fill-rule:nonzero;stroke:none;font-family:Helvetica;-inkscape-font-specification:Helvetica">11.2</tspan><tspan
                 x="2.4644532 4.266748"
                 y="-12.700984"
                 id="tspan3821"
                 style="font-size:3.24153733px;font-variant:normal;font-weight:normal;writing-mode:lr-tb;fill:#231f20;fill-opacity:1;fill-rule:nonzero;stroke:none;font-family:Helvetica;-inkscape-font-specification:Helvetica">13</tspan><tspan
                 x="2.4644532 4.266748"
                 y="-8.1959896"
                 id="tspan3823"
                 style="font-size:3.24153733px;font-variant:normal;font-weight:normal;writing-mode:lr-tb;fill:#231f20;fill-opacity:1;fill-rule:nonzero;stroke:none;font-family:Helvetica;-inkscape-font-specification:Helvetica">12</tspan><tspan
                 x="-0.23945399 1.5628408 3.3651357 4.2671833"
                 y="21.977989"
                 id="tspan3825"
                 style="font-size:3.24153733px;font-variant:normal;font-weight:normal;writing-mode:lr-tb;fill:#231f20;fill-opacity:1;fill-rule:nonzero;stroke:none;font-family:Helvetica;-inkscape-font-specification:Helvetica">13.2</tspan><tspan
                 x="2.4644532 4.266748"
                 y="28.821613"
                 id="tspan3827"
                 style="font-size:3.24153733px;font-variant:normal;font-weight:normal;writing-mode:lr-tb;fill:#231f20;fill-opacity:1;fill-rule:nonzero;stroke:none;font-family:Helvetica;-inkscape-font-specification:Helvetica">14</tspan><tspan
                 x="-9.3749466 -7.5726514 -5.7703567 -4.8692093"
                 y="42.849152"
                 id="tspan3829"
                 style="font-size:3.24153733px;font-variant:normal;font-weight:normal;writing-mode:lr-tb;fill:#231f20;fill-opacity:1;fill-rule:nonzero;stroke:none;font-family:Helvetica;-inkscape-font-specification:Helvetica">21.2</tspan></text>
</g><path
             d="m 182.461,479.461 100.434,0"
             id="path3831"
             style="fill:none;stroke:#231f20;stroke-width:1.82598996;stroke-linecap:butt;stroke-linejoin:miter;stroke-miterlimit:4;stroke-opacity:1;stroke-dasharray:none" /><g
             transform="scale(10,10)"
             id="g3833"><text
               transform="matrix(1,0,0,-0.90698012,11.2164,39.125)"
               id="text3835"><tspan
                 x="0 1.8022949 3.6045897 4.5057368"
                 y="0"
                 id="tspan3837"
                 style="font-size:3.24153733px;font-variant:normal;font-weight:normal;writing-mode:lr-tb;fill:#231f20;fill-opacity:1;fill-rule:nonzero;stroke:none;font-family:Helvetica;-inkscape-font-specification:Helvetica">22.2</tspan></text>
</g><path
             d="m 182.461,400.223 100.434,0"
             id="path3839"
             style="fill:none;stroke:#231f20;stroke-width:1.82598996;stroke-linecap:butt;stroke-linejoin:miter;stroke-miterlimit:4;stroke-opacity:1;stroke-dasharray:none" /><g
             transform="scale(10,10)"
             id="g3841"><text
               transform="matrix(1,0,0,-0.90698012,18.5492,37.1406)"
               id="text3843"><tspan
                 x="0 1.8022949 3.6045897 4.5066371 6.3089323"
                 y="0"
                 id="tspan3845"
                 style="font-size:3.24153733px;font-variant:normal;font-weight:normal;writing-mode:lr-tb;fill:#231f20;fill-opacity:1;fill-rule:nonzero;stroke:none;font-family:Helvetica;-inkscape-font-specification:Helvetica">22.31</tspan><tspan
                 x="1.8027297 3.6050246 5.4073195 6.3093672"
                 y="8.6482048"
                 id="tspan3847"
                 style="font-size:3.24153733px;font-variant:normal;font-weight:normal;writing-mode:lr-tb;fill:#231f20;fill-opacity:1;fill-rule:nonzero;stroke:none;font-family:Helvetica;-inkscape-font-specification:Helvetica">24.1</tspan><tspan
                 x="4.5066366 6.3089318"
                 y="-37.829441"
                 id="tspan3849"
                 style="font-size:3.24153733px;font-variant:normal;font-weight:normal;writing-mode:lr-tb;fill:#231f20;fill-opacity:1;fill-rule:nonzero;stroke:none;font-family:Helvetica;-inkscape-font-specification:Helvetica">12</tspan><tspan
                 x="1.8027297 3.6050246 5.4073195 6.3093672"
                 y="-34.405472"
                 id="tspan3851"
                 style="font-size:3.24153733px;font-variant:normal;font-weight:normal;writing-mode:lr-tb;fill:#231f20;fill-opacity:1;fill-rule:nonzero;stroke:none;font-family:Helvetica;-inkscape-font-specification:Helvetica">13.1</tspan><tspan
                 x="1.8027297 3.6050246 5.4073195 6.3093672"
                 y="-28.912056"
                 id="tspan3853"
                 style="font-size:3.24153733px;font-variant:normal;font-weight:normal;writing-mode:lr-tb;fill:#231f20;fill-opacity:1;fill-rule:nonzero;stroke:none;font-family:Helvetica;-inkscape-font-specification:Helvetica">13.3</tspan><tspan
                 x="1.8027297 3.6050246 5.4073195 6.3093672"
                 y="-21.344877"
                 id="tspan3855"
                 style="font-size:3.24153733px;font-variant:normal;font-weight:normal;writing-mode:lr-tb;fill:#231f20;fill-opacity:1;fill-rule:nonzero;stroke:none;font-family:Helvetica;-inkscape-font-specification:Helvetica">15.1</tspan><tspan
                 x="1.8027297 3.6050246 5.4073195 6.3093672"
                 y="-16.301525"
                 id="tspan3857"
                 style="font-size:3.24153733px;font-variant:normal;font-weight:normal;writing-mode:lr-tb;fill:#231f20;fill-opacity:1;fill-rule:nonzero;stroke:none;font-family:Helvetica;-inkscape-font-specification:Helvetica">15.3</tspan><tspan
                 x="-7.3328066 -5.5305119 -3.7282171 -2.8270698"
                 y="-18.849047"
                 id="tspan3859"
                 style="font-size:3.24153733px;font-variant:normal;font-weight:normal;writing-mode:lr-tb;fill:#231f20;fill-opacity:1;fill-rule:nonzero;stroke:none;font-family:Helvetica;-inkscape-font-specification:Helvetica">15.2</tspan></text>
</g><path
             d="m 182.461,551.355 100.434,0"
             id="path3861"
             style="fill:none;stroke:#231f20;stroke-width:1.82598996;stroke-linecap:butt;stroke-linejoin:miter;stroke-miterlimit:4;stroke-opacity:1;stroke-dasharray:none" /><g
             transform="scale(10,10)"
             id="g3863"><text
               transform="matrix(1,0,0,-0.90698012,20.352,48.9844)"
               id="text3865"><tspan
                 x="0 1.8022949 3.6045897 4.5066371"
                 y="0"
                 id="tspan3867"
                 style="font-size:3.24153733px;font-variant:normal;font-weight:normal;writing-mode:lr-tb;fill:#231f20;fill-opacity:1;fill-rule:nonzero;stroke:none;font-family:Helvetica;-inkscape-font-specification:Helvetica">21.1</tspan><tspan
                 x="0 1.8022949 3.6045897 4.5066371"
                 y="6.1243792"
                 id="tspan3869"
                 style="font-size:3.24153733px;font-variant:normal;font-weight:normal;writing-mode:lr-tb;fill:#231f20;fill-opacity:1;fill-rule:nonzero;stroke:none;font-family:Helvetica;-inkscape-font-specification:Helvetica">21.3</tspan><tspan
                 x="0 1.8022949 3.6045897 4.5066371"
                 y="9.0961199"
                 id="tspan3871"
                 style="font-size:3.24153733px;font-variant:normal;font-weight:normal;writing-mode:lr-tb;fill:#231f20;fill-opacity:1;fill-rule:nonzero;stroke:none;font-family:Helvetica;-inkscape-font-specification:Helvetica">22.1</tspan><tspan
                 x="-10.938277 -9.1359825 -7.3336878 -6.4325404 -4.6302452"
                 y="15.285098"
                 id="tspan3873"
                 style="font-size:3.24153733px;font-variant:normal;font-weight:normal;writing-mode:lr-tb;fill:#231f20;fill-opacity:1;fill-rule:nonzero;stroke:none;font-family:Helvetica;-inkscape-font-specification:Helvetica">22.32</tspan></text>
</g><path
             d="m 182.461,360.184 100.434,0"
             id="path3875"
             style="fill:none;stroke:#231f20;stroke-width:1.82598996;stroke-linecap:butt;stroke-linejoin:miter;stroke-miterlimit:4;stroke-opacity:1;stroke-dasharray:none" /><g
             transform="scale(10,10)"
             id="g3877"><text
               transform="matrix(1,0,0,-0.90698012,13.9199,31.1973)"
               id="text3879"><tspan
                 x="0 1.8022949"
                 y="0"
                 id="tspan3881"
                 style="font-size:3.24153733px;font-variant:normal;font-weight:normal;writing-mode:lr-tb;fill:#231f20;fill-opacity:1;fill-rule:nonzero;stroke:none;font-family:Helvetica;-inkscape-font-specification:Helvetica">23</tspan></text>
</g><path
             d="m 182.461,320.984 100.434,0"
             id="path3883"
             style="fill:none;stroke:#231f20;stroke-width:1.82598996;stroke-linecap:butt;stroke-linejoin:miter;stroke-miterlimit:4;stroke-opacity:1;stroke-dasharray:none" /><g
             transform="scale(10,10)"
             id="g3885"><text
               transform="matrix(1,0,0,-0.90698012,20.352,26.3555)"
               id="text3887"><tspan
                 x="0 1.8022949 3.6045897 4.5066371"
                 y="0"
                 id="tspan3889"
                 style="font-size:3.24153733px;font-variant:normal;font-weight:normal;writing-mode:lr-tb;fill:#231f20;fill-opacity:1;fill-rule:nonzero;stroke:none;font-family:Helvetica;-inkscape-font-specification:Helvetica">24.3</tspan><tspan
                 x="-9.1355362 -7.3332419 -5.5309467 -4.6297994"
                 y="-1.647379"
                 id="tspan3891"
                 style="font-size:3.24153733px;font-variant:normal;font-weight:normal;writing-mode:lr-tb;fill:#231f20;fill-opacity:1;fill-rule:nonzero;stroke:none;font-family:Helvetica;-inkscape-font-specification:Helvetica">24.2</tspan></text>
</g><path
             d="m 182.461,287.469 100.434,0"
             id="path3893"
             style="fill:none;stroke:#231f20;stroke-width:1.82598996;stroke-linecap:butt;stroke-linejoin:miter;stroke-miterlimit:4;stroke-opacity:1;stroke-dasharray:none" /><g
             transform="scale(10,10)"
             id="g3895"><text
               transform="matrix(1,0,0,-0.90698012,20.352,22.6797)"
               id="text3897"><tspan
                 x="0 1.8022949 3.6045897 4.5066371"
                 y="0"
                 id="tspan3899"
                 style="font-size:3.24153733px;font-variant:normal;font-weight:normal;writing-mode:lr-tb;fill:#231f20;fill-opacity:1;fill-rule:nonzero;stroke:none;font-family:Helvetica;-inkscape-font-specification:Helvetica">25.2</tspan><tspan
                 x="0 1.8022949 3.6045897 4.5066371"
                 y="2.971741"
                 id="tspan3901"
                 style="font-size:3.24153733px;font-variant:normal;font-weight:normal;writing-mode:lr-tb;fill:#231f20;fill-opacity:1;fill-rule:nonzero;stroke:none;font-family:Helvetica;-inkscape-font-specification:Helvetica">25.3</tspan><tspan
                 x="-9.1355362 -7.3332419 -5.5309467 -4.6297994"
                 y="-2.276191"
                 id="tspan3903"
                 style="font-size:3.24153733px;font-variant:normal;font-weight:normal;writing-mode:lr-tb;fill:#231f20;fill-opacity:1;fill-rule:nonzero;stroke:none;font-family:Helvetica;-inkscape-font-specification:Helvetica">25.1</tspan></text>
</g><path
             d="m 182.461,256.434 100.434,0"
             id="path3905"
             style="fill:none;stroke:#231f20;stroke-width:1.82598996;stroke-linecap:butt;stroke-linejoin:miter;stroke-miterlimit:4;stroke-opacity:1;stroke-dasharray:none" /><g
             transform="scale(10,10)"
             id="g3907"><text
               transform="matrix(1,0,0,-0.90698012,20.352,16.7168)"
               id="text3909"><tspan
                 x="0 1.8022949 3.6045897 4.5066371"
                 y="0"
                 id="tspan3911"
                 style="font-size:3.24153733px;font-variant:normal;font-weight:normal;writing-mode:lr-tb;fill:#231f20;fill-opacity:1;fill-rule:nonzero;stroke:none;font-family:Helvetica;-inkscape-font-specification:Helvetica">26.1</tspan><tspan
                 x="0 1.8022949 3.6045897 4.5066371"
                 y="4.1432109"
                 id="tspan3913"
                 style="font-size:3.24153733px;font-variant:normal;font-weight:normal;writing-mode:lr-tb;fill:#231f20;fill-opacity:1;fill-rule:nonzero;stroke:none;font-family:Helvetica;-inkscape-font-specification:Helvetica">26.2</tspan><tspan
                 x="0 1.8022949 3.6045897 4.5066371"
                 y="7.4767351"
                 id="tspan3915"
                 style="font-size:3.24153733px;font-variant:normal;font-weight:normal;writing-mode:lr-tb;fill:#231f20;fill-opacity:1;fill-rule:nonzero;stroke:none;font-family:Helvetica;-inkscape-font-specification:Helvetica">26.3</tspan><tspan
                 x="-1.6609405 0.14135432 1.9436492 2.8447967 4.6470914"
                 y="-17.899345"
                 id="tspan3917"
                 style="font-size:3.24153733px;font-variant:normal;font-weight:normal;writing-mode:lr-tb;fill:#231f20;fill-opacity:1;fill-rule:nonzero;stroke:none;font-family:Helvetica;-inkscape-font-specification:Helvetica">22.33</tspan></text>
</g></g></g></g></g></svg>