<?xml version="1.0" encoding="UTF-8"?>
<svg xmlns:xlink="http://www.w3.org/1999/xlink" xmlns="http://www.w3.org/2000/svg" contentScriptType="text/ecmascript" zoomAndPan="magnify" contentStyleType="text/css" preserveAspectRatio="xMidYMid meet" version="1.0">

<g id="chromosome15">
<path style="fill:#a4bdc8;fill-opacity:1;fill-rule:nonzero;stroke:none" id="centromere15-f" d="m 44.893125,84.269375 0.28075000000000006,0.8716250000000001 c 0.0,-0.8716250000000001 -1.0630000000000002,-2.29975 -2.634375,-3.117625 1.5713750000000002,-0.8155000000000001 2.634375,-2.246125 2.634375,-3.1152500000000005 l 0.0,-1.071875 -10.24025,-0.0 0.0,1.071875 c 0.0,0.8715 1.07025,2.29975 2.648875,3.1152500000000005 -1.5786250000000002,0.8178750000000001 -2.648875,2.241125 -2.648875,3.117625 l 0.28075000000000006,-0.8716250000000001 9.67875,0.0 "/>
<path style="fill:none;stroke:#100f0d;stroke-width:0.8;stroke-linecap:butt;stroke-linejoin:miter;stroke-miterlimit:4;stroke-opacity:1;stroke-dasharray:none" id="centromere15-o" d="m 44.893125,84.269375 0.28075000000000006,0.8716250000000001 c 0.0,-0.8716250000000001 -1.0630000000000002,-2.29975 -2.634375,-3.117625 1.5713750000000002,-0.8155000000000001 2.634375,-2.246125 2.634375,-3.1152500000000005 l 0.0,-1.071875 -10.24025,-0.0 0.0,1.071875 c 0.0,0.8715 1.07025,2.29975 2.648875,3.1152500000000005 -1.5786250000000002,0.8178750000000001 -2.648875,2.241125 -2.648875,3.117625 l 0.28075000000000006,-0.8716250000000001 9.67875,0.0 z "/>
<path style="fill:#7a7e82;fill-opacity:1;fill-rule:nonzero;stroke:none" id="15q14" d="m 34.922375,108.31724999999999 10.26025,0.0 0.0,-4.38965 -10.26025,-0.0 0.0,4.38965 z "/>
<path style="fill:none;stroke:#211c1d;stroke-width:0.1;stroke-linecap:butt;stroke-linejoin:miter;stroke-miterlimit:4;stroke-opacity:1;stroke-dasharray:none" id="15q14-o" d="m 34.922375,108.31724999999999 10.26025,0.0 0.0,-4.38965 -10.26025,-0.0 0.0,4.38965 z "/>
<path style="fill:#7a7e82;fill-opacity:1;fill-rule:nonzero;stroke:none" id="15q21.1" d="m 34.922375,121.59125 10.26025,0.0 0.0,-4.1870125 -10.26025,-0.0 0.0,4.1870125 z "/>
<path style="fill:none;stroke:#211c1d;stroke-width:0.1;stroke-linecap:butt;stroke-linejoin:miter;stroke-miterlimit:4;stroke-opacity:1;stroke-dasharray:none" id="15q21.1-o" d="m 34.922375,121.59125 10.26025,0.0 0.0,-4.1870125 -10.26025,-0.0 0.0,4.1870125 z "/>
<path style="fill:#7a7e82;fill-opacity:1;fill-rule:nonzero;stroke:none" id="15q21.3" d="m 34.922375,128.742125 10.26025,0.0 0.0,-4.3920875 -10.26025,-0.0 0.0,4.3920875 z "/>
<path style="fill:none;stroke:#211c1d;stroke-width:0.1;stroke-linecap:butt;stroke-linejoin:miter;stroke-miterlimit:4;stroke-opacity:1;stroke-dasharray:none" id="15q21.3-o" d="m 34.922375,128.742125 10.26025,0.0 0.0,-4.3920875 -10.26025,-0.0 0.0,4.3920875 z "/>
<path style="fill:#e9eae9;fill-opacity:1;fill-rule:nonzero;stroke:none" id="15q15.2" d="m 34.922375,114.03750000000001 10.26025,0.0 0.0,-1.5332000000000001 -10.26025,-0.0 0.0,1.5332000000000001 z "/>
<path style="fill:none;stroke:#211c1d;stroke-width:0.1;stroke-linecap:butt;stroke-linejoin:miter;stroke-miterlimit:4;stroke-opacity:1;stroke-dasharray:none" id="15q15.2-o" d="m 34.922375,114.03750000000001 10.26025,0.0 0.0,-1.5332000000000001 -10.26025,-0.0 0.0,1.5332000000000001 z "/>
<path style="fill:#e9eae9;fill-opacity:1;fill-rule:nonzero;stroke:none" id="15q22.2" d="m 34.922375,133.031625 10.26025,0.0 0.0,-1.7382750000000002 -10.26025,-0.0 0.0,1.7382750000000002 z "/>
<path style="fill:none;stroke:#211c1d;stroke-width:0.1;stroke-linecap:butt;stroke-linejoin:miter;stroke-miterlimit:4;stroke-opacity:1;stroke-dasharray:none" id="15q22.2-o" d="m 34.922375,133.031625 10.26025,0.0 0.0,-1.7382750000000002 -10.26025,-0.0 0.0,1.7382750000000002 z "/>
<path style="fill:#e9eae9;fill-opacity:1;fill-rule:nonzero;stroke:none" id="15q22.32" d="m 34.922375,138.136625 10.26025,0.0 0.0,-1.9409125000000003 -10.26025,-0.0 0.0,1.9409125000000003 z "/>
<path style="fill:none;stroke:#211c1d;stroke-width:0.1;stroke-linecap:butt;stroke-linejoin:miter;stroke-miterlimit:4;stroke-opacity:1;stroke-dasharray:none" id="15q22.32-o" d="m 34.922375,138.136625 10.26025,0.0 0.0,-1.9409125000000003 -10.26025,-0.0 0.0,1.9409125000000003 z "/>
<path style="fill:#e9eae9;fill-opacity:1;fill-rule:nonzero;stroke:none" id="15q23" d="m 34.922375,143.0365 10.26025,0.0 0.0,-1.938475 -10.26025,-0.0 0.0,1.938475 z "/>
<path style="fill:none;stroke:#211c1d;stroke-width:0.1;stroke-linecap:butt;stroke-linejoin:miter;stroke-miterlimit:4;stroke-opacity:1;stroke-dasharray:none" id="15q23-o" d="m 34.922375,143.0365 10.26025,0.0 0.0,-1.938475 -10.26025,-0.0 0.0,1.938475 z "/>
<path style="fill:#e9eae9;fill-opacity:1;fill-rule:nonzero;stroke:none" id="15q24.2" d="m 34.922375,146.918375 10.26025,0.0 0.0,-1.3256875 -10.26025,-0.0 0.0,1.3256875 z "/>
<path style="fill:none;stroke:#211c1d;stroke-width:0.1;stroke-linecap:butt;stroke-linejoin:miter;stroke-miterlimit:4;stroke-opacity:1;stroke-dasharray:none" id="15q24.2-o" d="m 34.922375,146.918375 10.26025,0.0 0.0,-1.3256875 -10.26025,-0.0 0.0,1.3256875 z "/>
<path style="fill:#bbbcbd;fill-opacity:1;fill-rule:nonzero;stroke:none" id="15q12" d="m 34.922375,93.41 10.26025,0.0 0.0,-3.574225 -10.26025,-0.0 0.0,3.574225 z "/>
<path style="fill:none;stroke:#211c1d;stroke-width:0.1;stroke-linecap:butt;stroke-linejoin:miter;stroke-miterlimit:4;stroke-opacity:1;stroke-dasharray:none" id="15q12-o" d="m 34.922375,93.41 10.26025,0.0 0.0,-3.574225 -10.26025,-0.0 0.0,3.574225 z "/>
<path style="fill:#bbbcbd;fill-opacity:1;fill-rule:nonzero;stroke:none" id="15q13.2" d="m 34.922375,99.738125 10.26025,0.0 0.0,-2.7563500000000003 -10.26025,-0.0 0.0,2.7563500000000003 z "/>
<path style="fill:none;stroke:#211c1d;stroke-width:0.1;stroke-linecap:butt;stroke-linejoin:miter;stroke-miterlimit:4;stroke-opacity:1;stroke-dasharray:none" id="15q13.2-o" d="m 34.922375,99.738125 10.26025,0.0 0.0,-2.7563500000000003 -10.26025,-0.0 0.0,2.7563500000000003 z "/>
<path style="fill:#bbbcbd;fill-opacity:1;fill-rule:nonzero;stroke:none" id="15q25.1" d="m 34.922375,151.2055 10.26025,0.0 0.0,-2.3486375000000006 -10.26025,-0.0 0.0,2.3486375000000006 z "/>
<path style="fill:none;stroke:#211c1d;stroke-width:0.1;stroke-linecap:butt;stroke-linejoin:miter;stroke-miterlimit:4;stroke-opacity:1;stroke-dasharray:none" id="15q25.1-o" d="m 34.922375,151.2055 10.26025,0.0 0.0,-2.3486375000000006 -10.26025,-0.0 0.0,2.3486375000000006 z "/>
<path style="fill:#bbbcbd;fill-opacity:1;fill-rule:nonzero;stroke:none" id="15q25.3" d="m 34.922375,157.741125 10.26025,0.0 0.0,-3.984375 -10.26025,-0.0 0.0,3.984375 z "/>
<path style="fill:none;stroke:#211c1d;stroke-width:0.1;stroke-linecap:butt;stroke-linejoin:miter;stroke-miterlimit:4;stroke-opacity:1;stroke-dasharray:none" id="15q25.3-o" d="m 34.922375,157.741125 10.26025,0.0 0.0,-3.984375 -10.26025,-0.0 0.0,3.984375 z "/>
<path style="fill:#bbbcbd;fill-opacity:1;fill-rule:nonzero;stroke:none" id="15q26.2" d="m 34.922375,166.730375 10.26025,0.0 0.0,-3.9819375 -10.26025,-0.0 0.0,3.9819375 z "/>
<path style="fill:none;stroke:#211c1d;stroke-width:0.1;stroke-linecap:butt;stroke-linejoin:miter;stroke-miterlimit:4;stroke-opacity:1;stroke-dasharray:none" id="15q26.2-o" d="m 34.922375,166.730375 10.26025,0.0 0.0,-3.9819375 -10.26025,-0.0 0.0,3.9819375 z "/>
<path style="fill:none;stroke:#211c1d;stroke-width:0.8;stroke-linecap:butt;stroke-linejoin:miter;stroke-miterlimit:4;stroke-opacity:1;stroke-dasharray:none" id="outline15" d="m 37.5825,82.023375 c -1.5786250000000002,0.8178750000000001 -2.648875,2.241125 -2.648875,3.117625 l 0.0,83.015125 c 0.0,1.276875 2.2925,2.3144625 5.119625,2.3144625 2.828125,0.0 5.120625,-1.0375875 5.120625,-2.3144625 l 0.0,-83.015125 c 0.0,-0.8716250000000001 -1.0620000000000003,-2.29975 -2.6328750000000003,-3.117625 1.5708750000000002,-0.8155000000000001 2.6328750000000003,-2.246125 2.6328750000000003,-3.1152500000000005 l 0.0,-8.476625 c 0.0,-1.274375 -2.2925,-2.3095 -5.120625,-2.3095 -2.8271250000000006,-0.0 -5.119625,1.035125 -5.119625,2.3095 l 0.0,8.476625 c 0.0,0.8715 1.07025,2.29975 2.648875,3.1152500000000005 z "/>
<path style="fill:#c4cdf2;fill-opacity:1;fill-rule:nonzero;stroke:none" id="satellite15" d="m 34.92975,77.82900000000001 0.0,-7.378 c 0.0,-1.11075 1.7357500000000001,-2.0385 4.05025,-2.26075 l -0.007375,-6.660125 c -1.1655,-0.4126250000000001 -1.993125,-1.4403750000000002 -1.993125,-2.644 0.0,-1.565 1.3975000000000002,-2.8321250000000004 3.126,-2.8321250000000004 1.726,0.0 3.124,1.267125 3.124,2.8321250000000004 0.0,1.203625 -0.8276250000000002,2.231375 -1.993625,2.644 l -0.004875,6.672375000000001 c 2.25825,0.23925000000000002 3.9403750000000004,1.15475 3.9403750000000004,2.2485 l 0.0,7.378 -10.241625,-0.0 "/>
<path style="fill:none;stroke:#211c1d;stroke-width:0.8;stroke-linecap:butt;stroke-linejoin:miter;stroke-miterlimit:4;stroke-opacity:1;stroke-dasharray:none" id="satellite15-o" d="m 34.92975,77.82900000000001 0.0,-7.378 c 0.0,-1.11075 1.7357500000000001,-2.0385 4.05025,-2.26075 l -0.007375,-6.660125 c -1.1655,-0.4126250000000001 -1.993125,-1.4403750000000002 -1.993125,-2.644 0.0,-1.565 1.3975000000000002,-2.8321250000000004 3.126,-2.8321250000000004 1.726,0.0 3.124,1.267125 3.124,2.8321250000000004 0.0,1.203625 -0.8276250000000002,2.231375 -1.993625,2.644 l -0.004875,6.672375000000001 c 2.25825,0.23925000000000002 3.9403750000000004,1.15475 3.9403750000000004,2.2485 l 0.0,7.378 -10.241625,-0.0 z "/>
<path style="fill:none;stroke:#231f20;stroke-width:0.8;stroke-linecap:butt;stroke-linejoin:miter;stroke-miterlimit:4;stroke-opacity:1;stroke-dasharray:none;display:none" id="centre15" d="M 37.266125,82.05499999999999 0.0,82.05499999999999 "/>
<text>
<tspan x="34.919875 39.9223105" y="178.2694125" id="label15" style="font-size:7.19543791px;font-variant:normal;font-weight:normal;writing-mode:lr-tb;fill:#211c1d;fill-opacity:1;fill-rule:nonzero;stroke:none;font-family:Helvetica;-inkscape-font-specification:Helvetica">15</tspan>
</text>
<path style="fill:none;stroke:#211c1d;stroke-width:0.1;stroke-linecap:butt;stroke-linejoin:miter;stroke-miterlimit:4;stroke-opacity:1;stroke-dasharray:none;display:none" id="15q15.2-1" d="m 34.922375,112.50430000000001 10.26025,0.0 0,-4.187050000000028 -10.26025,-0.0 0,4.187050000000028 z "/>
<path style="fill:none;stroke:#211c1d;stroke-width:0.1;stroke-linecap:butt;stroke-linejoin:miter;stroke-miterlimit:4;stroke-opacity:1;stroke-dasharray:none;display:none" id="15q25.1-1" d="m 34.922375,148.8568625 10.26025,0.0 0,-1.938487500000008 -10.26025,-0.0 0,1.938487500000008 z "/>
<path style="fill:none;stroke:#211c1d;stroke-width:0.1;stroke-linecap:butt;stroke-linejoin:miter;stroke-miterlimit:4;stroke-opacity:1;stroke-dasharray:none;display:none" id="15q21.1-1" d="m 34.922375,117.40423750000001 10.26025,0.0 0,-3.3667374999999993 -10.26025,-0.0 0,3.3667374999999993 z "/>
<path style="fill:none;stroke:#211c1d;stroke-width:0.1;stroke-linecap:butt;stroke-linejoin:miter;stroke-miterlimit:4;stroke-opacity:1;stroke-dasharray:none;display:none" id="15q23-1" d="m 34.922375,141.09802499999998 10.26025,0.0 0,-2.961399999999969 -10.26025,-0.0 0,2.961399999999969 z "/>
<path style="fill:none;stroke:#211c1d;stroke-width:0.1;stroke-linecap:butt;stroke-linejoin:miter;stroke-miterlimit:4;stroke-opacity:1;stroke-dasharray:none;display:none" id="15q13.2-1" d="m 34.922375,96.981775 10.26025,0.0 0,-3.5717750000000024 -10.26025,-0.0 0,3.5717750000000024 z "/>
<path style="fill:none;stroke:#211c1d;stroke-width:0.1;stroke-linecap:butt;stroke-linejoin:miter;stroke-miterlimit:4;stroke-opacity:1;stroke-dasharray:none;display:none" id="15q25.3-1" d="m 34.922375,153.75675 10.26025,0.0 0,-2.5512500000000102 -10.26025,-0.0 0,2.5512500000000102 z "/>
<path style="fill:none;stroke:#211c1d;stroke-width:0.1;stroke-linecap:butt;stroke-linejoin:miter;stroke-miterlimit:4;stroke-opacity:1;stroke-dasharray:none;display:none" id="15q22.32-1" d="m 34.922375,136.1957125 10.26025,0.0 0,-3.164087500000022 -10.26025,-0.0 0,3.164087500000022 z "/>
<path style="fill:none;stroke:#211c1d;stroke-width:0.1;stroke-linecap:butt;stroke-linejoin:miter;stroke-miterlimit:4;stroke-opacity:1;stroke-dasharray:none;display:none" id="15q21.3-1" d="m 34.922375,124.35003749999998 10.26025,0.0 0,-2.7587874999999826 -10.26025,-0.0 0,2.7587874999999826 z "/>
<path style="fill:none;stroke:#211c1d;stroke-width:0.1;stroke-linecap:butt;stroke-linejoin:miter;stroke-miterlimit:4;stroke-opacity:1;stroke-dasharray:none;display:none" id="15q12-1" d="m 34.922375,89.835775 10.26025,0.0 0,-5.566400000000002 -10.26025,-0.0 0,5.566400000000002 z "/>
<path style="fill:none;stroke:#211c1d;stroke-width:0.1;stroke-linecap:butt;stroke-linejoin:miter;stroke-miterlimit:4;stroke-opacity:1;stroke-dasharray:none;display:none" id="15q14-1" d="m 34.922375,103.92759999999998 10.26025,0.0 0,-4.189474999999987 -10.26025,-0.0 0,4.189474999999987 z "/>
<path style="fill:none;stroke:#211c1d;stroke-width:0.1;stroke-linecap:butt;stroke-linejoin:miter;stroke-miterlimit:4;stroke-opacity:1;stroke-dasharray:none;display:none" id="15q26.2-1" d="m 34.922375,162.74843750000002 10.26025,0.0 0,-5.007312500000012 -10.26025,-0.0 0,5.007312500000012 z "/>
<path style="fill:none;stroke:#211c1d;stroke-width:0.1;stroke-linecap:butt;stroke-linejoin:miter;stroke-miterlimit:4;stroke-opacity:1;stroke-dasharray:none;display:none" id="15q22.2-1" d="m 34.922375,131.29335 10.26025,0.0 0,-2.5512250000000165 -10.26025,-0.0 0,2.5512250000000165 z "/>
<path style="fill:none;stroke:#211c1d;stroke-width:0.1;stroke-linecap:butt;stroke-linejoin:miter;stroke-miterlimit:4;stroke-opacity:1;stroke-dasharray:none;display:none" id="bottom" d="m 34.922375,166.730375 0.0,1.4 c 0.0,1.276875 2.2925,2.3144625 5.119625,2.3144625 2.828125,0.0 5.120625,-1.0375875 5.120625,-2.3144625 l 0.0,-1.4 -10.26025,-0.0 z"/>
<path style="fill:none;stroke:#211c1d;stroke-width:0.1;stroke-linecap:butt;stroke-linejoin:miter;stroke-miterlimit:4;stroke-opacity:1;stroke-dasharray:none;display:none" id="15q24.2-1" d="m 34.922375,145.5926875 10.26025,0.0 0,-2.5561875000000214 -10.26025,-0.0 0,2.5561875000000214 z "/>
</g>
</svg>
