<?xml version="1.0" encoding="UTF-8"?>
<svg xmlns:xlink="http://www.w3.org/1999/xlink" xmlns="http://www.w3.org/2000/svg" contentScriptType="text/ecmascript" zoomAndPan="magnify" contentStyleType="text/css" preserveAspectRatio="xMidYMid meet" version="1.0">
<g>
<path style="fill:#a4bdc8;fill-opacity:1;fill-rule:nonzero;stroke:none" d="m 44.893125,28.526624999999996 0.28075000000000006,0.8716250000000001 c 0.0,-0.8716250000000001 -1.0630000000000002,-2.29975 -2.634375,-3.117625 1.5713750000000002,-0.8155000000000001 2.634375,-2.246125 2.634375,-3.1152500000000005 l 0.0,-1.071875 -10.24025,-0.0 0.0,1.071875 c 0.0,0.8715 1.07025,2.29975 2.648875,3.1152500000000005 -1.5786250000000002,0.8178750000000001 -2.648875,2.241125 -2.648875,3.117625 l 0.28075000000000006,-0.8716250000000001 9.67875,0.0 " id="path3625"/>
<path style="fill:none;stroke:#100f0d;stroke-width:0.8;stroke-linecap:butt;stroke-linejoin:miter;stroke-miterlimit:4;stroke-opacity:1;stroke-dasharray:none" d="m 44.893125,28.526624999999996 0.28075000000000006,0.8716250000000001 c 0.0,-0.8716250000000001 -1.0630000000000002,-2.29975 -2.634375,-3.117625 1.5713750000000002,-0.8155000000000001 2.634375,-2.246125 2.634375,-3.1152500000000005 l 0.0,-1.071875 -10.24025,-0.0 0.0,1.071875 c 0.0,0.8715 1.07025,2.29975 2.648875,3.1152500000000005 -1.5786250000000002,0.8178750000000001 -2.648875,2.241125 -2.648875,3.117625 l 0.28075000000000006,-0.8716250000000001 9.67875,0.0 z " id="path3627"/>
<path style="fill:#7a7e82;fill-opacity:1;fill-rule:nonzero;stroke:none" d="m 34.922375,52.574499999999986 10.26025,0.0 0.0,-4.38965 -10.26025,-0.0 0.0,4.38965 z " id="path3635"/>
<path style="fill:none;stroke:#211c1d;stroke-width:0.1;stroke-linecap:butt;stroke-linejoin:miter;stroke-miterlimit:4;stroke-opacity:1;stroke-dasharray:none" d="m 34.922375,52.574499999999986 10.26025,0.0 0.0,-4.38965 -10.26025,-0.0 0.0,4.38965 z " id="path3637"/>
<path style="fill:#7a7e82;fill-opacity:1;fill-rule:nonzero;stroke:none" d="m 34.922375,65.8485 10.26025,0.0 0.0,-4.1870125 -10.26025,-0.0 0.0,4.1870125 z " id="path3639"/>
<path style="fill:none;stroke:#211c1d;stroke-width:0.1;stroke-linecap:butt;stroke-linejoin:miter;stroke-miterlimit:4;stroke-opacity:1;stroke-dasharray:none" d="m 34.922375,65.8485 10.26025,0.0 0.0,-4.1870125 -10.26025,-0.0 0.0,4.1870125 z " id="path3641"/>
<path style="fill:#7a7e82;fill-opacity:1;fill-rule:nonzero;stroke:none" d="m 34.922375,72.99937499999999 10.26025,0.0 0.0,-4.3920875 -10.26025,-0.0 0.0,4.3920875 z " id="path3643"/>
<path style="fill:none;stroke:#211c1d;stroke-width:0.1;stroke-linecap:butt;stroke-linejoin:miter;stroke-miterlimit:4;stroke-opacity:1;stroke-dasharray:none" d="m 34.922375,72.99937499999999 10.26025,0.0 0.0,-4.3920875 -10.26025,-0.0 0.0,4.3920875 z " id="path3645"/>
<path style="fill:#e9eae9;fill-opacity:1;fill-rule:nonzero;stroke:none" d="m 34.922375,58.29475000000001 10.26025,0.0 0.0,-1.5332000000000001 -10.26025,-0.0 0.0,1.5332000000000001 z " id="path3647"/>
<path style="fill:none;stroke:#211c1d;stroke-width:0.1;stroke-linecap:butt;stroke-linejoin:miter;stroke-miterlimit:4;stroke-opacity:1;stroke-dasharray:none" d="m 34.922375,58.29475000000001 10.26025,0.0 0.0,-1.5332000000000001 -10.26025,-0.0 0.0,1.5332000000000001 z " id="path3649"/>
<path style="fill:#e9eae9;fill-opacity:1;fill-rule:nonzero;stroke:none" d="m 34.922375,77.28887499999999 10.26025,0.0 0.0,-1.7382750000000002 -10.26025,-0.0 0.0,1.7382750000000002 z " id="path3651"/>
<path style="fill:none;stroke:#211c1d;stroke-width:0.1;stroke-linecap:butt;stroke-linejoin:miter;stroke-miterlimit:4;stroke-opacity:1;stroke-dasharray:none" d="m 34.922375,77.28887499999999 10.26025,0.0 0.0,-1.7382750000000002 -10.26025,-0.0 0.0,1.7382750000000002 z " id="path3653"/>
<path style="fill:#e9eae9;fill-opacity:1;fill-rule:nonzero;stroke:none" d="m 34.922375,82.39387500000001 10.26025,0.0 0.0,-1.9409125000000003 -10.26025,-0.0 0.0,1.9409125000000003 z " id="path3655"/>
<path style="fill:none;stroke:#211c1d;stroke-width:0.1;stroke-linecap:butt;stroke-linejoin:miter;stroke-miterlimit:4;stroke-opacity:1;stroke-dasharray:none" d="m 34.922375,82.39387500000001 10.26025,0.0 0.0,-1.9409125000000003 -10.26025,-0.0 0.0,1.9409125000000003 z " id="path3657"/>
<path style="fill:#e9eae9;fill-opacity:1;fill-rule:nonzero;stroke:none" d="m 34.922375,87.29375 10.26025,0.0 0.0,-1.938475 -10.26025,-0.0 0.0,1.938475 z " id="path3659"/>
<path style="fill:none;stroke:#211c1d;stroke-width:0.1;stroke-linecap:butt;stroke-linejoin:miter;stroke-miterlimit:4;stroke-opacity:1;stroke-dasharray:none" d="m 34.922375,87.29375 10.26025,0.0 0.0,-1.938475 -10.26025,-0.0 0.0,1.938475 z " id="path3661"/>
<path style="fill:#e9eae9;fill-opacity:1;fill-rule:nonzero;stroke:none" d="m 34.922375,91.175625 10.26025,0.0 0.0,-1.3256875 -10.26025,-0.0 0.0,1.3256875 z " id="path3663"/>
<path style="fill:none;stroke:#211c1d;stroke-width:0.1;stroke-linecap:butt;stroke-linejoin:miter;stroke-miterlimit:4;stroke-opacity:1;stroke-dasharray:none" d="m 34.922375,91.175625 10.26025,0.0 0.0,-1.3256875 -10.26025,-0.0 0.0,1.3256875 z " id="path3665"/>
<path style="fill:#bbbcbd;fill-opacity:1;fill-rule:nonzero;stroke:none" d="m 34.922375,37.667249999999996 10.26025,0.0 0.0,-3.574225 -10.26025,-0.0 0.0,3.574225 z " id="path3667"/>
<path style="fill:none;stroke:#211c1d;stroke-width:0.1;stroke-linecap:butt;stroke-linejoin:miter;stroke-miterlimit:4;stroke-opacity:1;stroke-dasharray:none" d="m 34.922375,37.667249999999996 10.26025,0.0 0.0,-3.574225 -10.26025,-0.0 0.0,3.574225 z " id="path3669"/>
<path style="fill:#bbbcbd;fill-opacity:1;fill-rule:nonzero;stroke:none" d="m 34.922375,43.995374999999996 10.26025,0.0 0.0,-2.7563500000000003 -10.26025,-0.0 0.0,2.7563500000000003 z " id="path3671"/>
<path style="fill:none;stroke:#211c1d;stroke-width:0.1;stroke-linecap:butt;stroke-linejoin:miter;stroke-miterlimit:4;stroke-opacity:1;stroke-dasharray:none" d="m 34.922375,43.995374999999996 10.26025,0.0 0.0,-2.7563500000000003 -10.26025,-0.0 0.0,2.7563500000000003 z " id="path3673"/>
<path style="fill:#bbbcbd;fill-opacity:1;fill-rule:nonzero;stroke:none" d="m 34.922375,95.46275 10.26025,0.0 0.0,-2.3486375000000006 -10.26025,-0.0 0.0,2.3486375000000006 z " id="path3675"/>
<path style="fill:none;stroke:#211c1d;stroke-width:0.1;stroke-linecap:butt;stroke-linejoin:miter;stroke-miterlimit:4;stroke-opacity:1;stroke-dasharray:none" d="m 34.922375,95.46275 10.26025,0.0 0.0,-2.3486375000000006 -10.26025,-0.0 0.0,2.3486375000000006 z " id="path3677"/>
<path style="fill:#bbbcbd;fill-opacity:1;fill-rule:nonzero;stroke:none" d="m 34.922375,101.998375 10.26025,0.0 0.0,-3.984375 -10.26025,-0.0 0.0,3.984375 z " id="path3679"/>
<path style="fill:none;stroke:#211c1d;stroke-width:0.1;stroke-linecap:butt;stroke-linejoin:miter;stroke-miterlimit:4;stroke-opacity:1;stroke-dasharray:none" d="m 34.922375,101.998375 10.26025,0.0 0.0,-3.984375 -10.26025,-0.0 0.0,3.984375 z " id="path3681"/>
<path style="fill:#bbbcbd;fill-opacity:1;fill-rule:nonzero;stroke:none" d="m 34.922375,110.98762500000001 10.26025,0.0 0.0,-3.9819375 -10.26025,-0.0 0.0,3.9819375 z " id="path3683"/>
<path style="fill:none;stroke:#211c1d;stroke-width:0.1;stroke-linecap:butt;stroke-linejoin:miter;stroke-miterlimit:4;stroke-opacity:1;stroke-dasharray:none" d="m 34.922375,110.98762500000001 10.26025,0.0 0.0,-3.9819375 -10.26025,-0.0 0.0,3.9819375 z " id="path3685"/>
<path style="fill:none;stroke:#211c1d;stroke-width:0.8;stroke-linecap:butt;stroke-linejoin:miter;stroke-miterlimit:4;stroke-opacity:1;stroke-dasharray:none" d="m 37.5825,26.280625 c -1.5786250000000002,0.8178750000000001 -2.648875,2.241125 -2.648875,3.117625 l 0.0,83.015125 c 0.0,1.276875 2.2925,2.3144625 5.119625,2.3144625 2.828125,0.0 5.120625,-1.0375875 5.120625,-2.3144625 l 0.0,-83.015125 c 0.0,-0.8716250000000001 -1.0620000000000003,-2.29975 -2.6328750000000003,-3.117625 1.5708750000000002,-0.8155000000000001 2.6328750000000003,-2.246125 2.6328750000000003,-3.1152500000000005 l 0.0,-8.476625 c 0.0,-1.274375 -2.2925,-2.3095 -5.120625,-2.3095 -2.8271250000000006,-0.0 -5.119625,1.035125 -5.119625,2.3095 l 0.0,8.476625 c 0.0,0.8715 1.07025,2.29975 2.648875,3.1152500000000005 z " id="path3687"/>
<path style="fill:#c4cdf2;fill-opacity:1;fill-rule:nonzero;stroke:none" d="m 34.92975,22.086250000000007 0.0,-7.378 c 0.0,-1.11075 1.7357500000000001,-2.0385 4.05025,-2.26075 l -0.007375,-6.660125 c -1.1655,-0.4126250000000001 -1.993125,-1.4403750000000002 -1.993125,-2.644 0.0,-1.565 1.3975000000000002,-2.8321250000000004 3.126,-2.8321250000000004 1.726,0.0 3.124,1.267125 3.124,2.8321250000000004 0.0,1.203625 -0.8276250000000002,2.231375 -1.993625,2.644 l -0.004875,6.672375000000001 c 2.25825,0.23925000000000002 3.9403750000000004,1.15475 3.9403750000000004,2.2485 l 0.0,7.378 -10.241625,-0.0 " id="path3803"/>
<path style="fill:none;stroke:#211c1d;stroke-width:0.8;stroke-linecap:butt;stroke-linejoin:miter;stroke-miterlimit:4;stroke-opacity:1;stroke-dasharray:none" d="m 34.92975,22.086250000000007 0.0,-7.378 c 0.0,-1.11075 1.7357500000000001,-2.0385 4.05025,-2.26075 l -0.007375,-6.660125 c -1.1655,-0.4126250000000001 -1.993125,-1.4403750000000002 -1.993125,-2.644 0.0,-1.565 1.3975000000000002,-2.8321250000000004 3.126,-2.8321250000000004 1.726,0.0 3.124,1.267125 3.124,2.8321250000000004 0.0,1.203625 -0.8276250000000002,2.231375 -1.993625,2.644 l -0.004875,6.672375000000001 c 2.25825,0.23925000000000002 3.9403750000000004,1.15475 3.9403750000000004,2.2485 l 0.0,7.378 -10.241625,-0.0 z " id="path3805"/>
<path style="fill:none;stroke:#231f20;stroke-width:0.8;stroke-linecap:butt;stroke-linejoin:miter;stroke-miterlimit:4;stroke-opacity:1;stroke-dasharray:none;display:none" d="M 37.266125,26.31224999999999 0.0,26.31224999999999 " id="path3807"/>
<text>
<tspan x="34.919875 39.9223105" y="122.5266625" id="tspan3633" style="font-size:7.19543791px;font-variant:normal;font-weight:normal;writing-mode:lr-tb;fill:#211c1d;fill-opacity:1;fill-rule:nonzero;stroke:none;font-family:Helvetica;-inkscape-font-specification:Helvetica">15</tspan>
</text>
</g>
</svg>
