<?xml version="1.0" encoding="UTF-8"?>
<svg xmlns:xlink="http://www.w3.org/1999/xlink" xmlns="http://www.w3.org/2000/svg" contentScriptType="text/ecmascript" zoomAndPan="magnify" contentStyleType="text/css" preserveAspectRatio="xMidYMid meet" version="1.0">

<g id="chromosome16" title="Chromosome 16">
<path style="fill:#211c1d;fill-opacity:1;fill-rule:nonzero;stroke:none" id="16q21" d="m 38.79887500000001,119.57637500000001 11.3818375,0.0 0.0,-7.475100000000001 -11.3818375,-0.0 0.0,7.475100000000001 z "/>
<path style="fill:#bbbcbd;fill-opacity:1;fill-rule:nonzero;stroke:none" id="16q12.2" d="m 38.79887500000001,107.79475000000001 11.3818375,0.0 0.0,-4.7587875 -11.3818375,-0.0 0.0,4.7587875 z "/>
<path style="fill:none;stroke:#211c1d;stroke-width:0.1;stroke-linecap:butt;stroke-linejoin:miter;stroke-miterlimit:4;stroke-opacity:1;stroke-dasharray:none" id="16q12.2-o" d="m 38.79887500000001,107.79475000000001 11.3818375,0.0 0.0,-4.7587875 -11.3818375,-0.0 0.0,4.7587875 z "/>
<path style="fill:#bbbcbd;fill-opacity:1;fill-rule:nonzero;stroke:none" id="16p13.2" d="m 38.79887500000001,48.065749999999994 11.3818375,0.0 0.0,-5.7597625 -11.3818375,-0.0 0.0,5.7597625 z "/>
<path style="fill:none;stroke:#211c1d;stroke-width:0.1;stroke-linecap:butt;stroke-linejoin:miter;stroke-miterlimit:4;stroke-opacity:1;stroke-dasharray:none" id="16p13.2-o" d="m 38.79887500000001,48.065749999999994 11.3818375,0.0 0.0,-5.7597625 -11.3818375,-0.0 0.0,5.7597625 z "/>
<path style="fill:#bbbcbd;fill-opacity:1;fill-rule:nonzero;stroke:none" id="16p13.12" d="m 38.79887500000001,56.224875 11.3818375,0.0 0.0,-3.1543000000000005 -11.3818375,-0.0 0.0,3.1543000000000005 z "/>
<path style="fill:none;stroke:#211c1d;stroke-width:0.1;stroke-linecap:butt;stroke-linejoin:miter;stroke-miterlimit:4;stroke-opacity:1;stroke-dasharray:none" id="16p13.12-o" d="m 38.79887500000001,56.224875 11.3818375,0.0 0.0,-3.1543000000000005 -11.3818375,-0.0 0.0,3.1543000000000005 z "/>
<path style="fill:#bbbcbd;fill-opacity:1;fill-rule:nonzero;stroke:none" id="16p12.3" d="m 38.79887500000001,63.587625 11.3818375,0.0 0.0,-4.513675 -11.3818375,-0.0 0.0,4.513675 z "/>
<path style="fill:none;stroke:#211c1d;stroke-width:0.1;stroke-linecap:butt;stroke-linejoin:miter;stroke-miterlimit:4;stroke-opacity:1;stroke-dasharray:none" id="16p12.3-o" d="m 38.79887500000001,63.587625 11.3818375,0.0 0.0,-4.513675 -11.3818375,-0.0 0.0,4.513675 z "/>
<path style="fill:#bbbcbd;fill-opacity:1;fill-rule:nonzero;stroke:none" id="16p12.1" d="m 38.79887500000001,70.726875 11.3818375,0.0 0.0,-3.7182625000000002 -11.3818375,-0.0 0.0,3.7182625000000002 z "/>
<path style="fill:none;stroke:#211c1d;stroke-width:0.1;stroke-linecap:butt;stroke-linejoin:miter;stroke-miterlimit:4;stroke-opacity:1;stroke-dasharray:none" id="16p12.1-o" d="m 38.79887500000001,70.726875 11.3818375,0.0 0.0,-3.7182625000000002 -11.3818375,-0.0 0.0,3.7182625000000002 z "/>
<path style="fill:#bbbcbd;fill-opacity:1;fill-rule:nonzero;stroke:none" id="16q22.2" d="m 38.79887500000001,130.6805 11.3818375,0.0 0.0,-2.488275 -11.3818375,-0.0 0.0,2.488275 z "/>
<path style="fill:none;stroke:#211c1d;stroke-width:0.1;stroke-linecap:butt;stroke-linejoin:miter;stroke-miterlimit:4;stroke-opacity:1;stroke-dasharray:none" id="16q22.2-o" d="m 38.79887500000001,130.6805 11.3818375,0.0 0.0,-2.488275 -11.3818375,-0.0 0.0,2.488275 z "/>
<path style="fill:#bbbcbd;fill-opacity:1;fill-rule:nonzero;stroke:none" id="16q23.3" d="m 38.79887500000001,145.6365 11.3818375,0.0 0.0,-2.492675 -11.3818375,-0.0 0.0,2.492675 z "/>
<path style="fill:none;stroke:#211c1d;stroke-width:0.1;stroke-linecap:butt;stroke-linejoin:miter;stroke-miterlimit:4;stroke-opacity:1;stroke-dasharray:none" id="16q23.3-o" d="m 38.79887500000001,145.6365 11.3818375,0.0 0.0,-2.492675 -11.3818375,-0.0 0.0,2.492675 z "/>
<path style="fill:#e9eae9;fill-opacity:1;fill-rule:nonzero;stroke:none" id="16q24.2" d="m 38.79887500000001,151.529625 11.3818375,0.0 0.0,-1.813475 -11.3818375,-0.0 0.0,1.813475 z "/>
<path style="fill:none;stroke:#211c1d;stroke-width:0.1;stroke-linecap:butt;stroke-linejoin:miter;stroke-miterlimit:4;stroke-opacity:1;stroke-dasharray:none" id="16q24.2-o" d="m 38.79887500000001,151.529625 11.3818375,0.0 0.0,-1.813475 -11.3818375,-0.0 0.0,1.813475 z "/>
<path style="fill:#5a5758;fill-opacity:1;fill-rule:nonzero;stroke:none" id="16q23.1" d="m 38.79887500000001,140.650625 11.3818375,0.0 0.0,-6.230475000000001 -11.3818375,-0.0 0.0,6.230475000000001 z "/>
<path style="fill:#fffafa;stroke:#211c1d;stroke-width:0.1;stroke-linecap:butt;stroke-linejoin:miter;stroke-miterlimit:4;stroke-opacity:1;stroke-dasharray:none" id="16q23.2" d="m 38.79887500000001,143.14382500000002 11.3818375,0.0 0,-2.49320000000003 -11.3818375,-0.0 0,2.49320000000003 z "/>
<path style="fill:#fffafa;stroke:#211c1d;stroke-width:0.1;stroke-linecap:butt;stroke-linejoin:miter;stroke-miterlimit:4;stroke-opacity:1;stroke-dasharray:none" id="16q22.3" d="m 38.79887500000001,134.42014999999998 11.3818375,0.0 0,-3.7396499999999833 -11.3818375,-0.0 0,3.7396499999999833 z "/>
<path style="fill:#fffafa;stroke:#211c1d;stroke-width:0.1;stroke-linecap:butt;stroke-linejoin:miter;stroke-miterlimit:4;stroke-opacity:1;stroke-dasharray:none" id="16p11.2" d="m 38.79887500000001,77.997375 11.3818375,0.0 0,-7.270499999999998 -11.3818375,-0.0 0,7.270499999999998 z "/>
<path style="fill:#fffafa;stroke:#211c1d;stroke-width:0.1;stroke-linecap:butt;stroke-linejoin:miter;stroke-miterlimit:4;stroke-opacity:1;stroke-dasharray:none" id="16p13.11" d="m 38.79887500000001,59.07395 11.3818375,0.0 0,-2.8490750000000062 -11.3818375,-0.0 0,2.8490750000000062 z "/>
<path style="fill:#fffafa;stroke:#211c1d;stroke-width:0.1;stroke-linecap:butt;stroke-linejoin:miter;stroke-miterlimit:4;stroke-opacity:1;stroke-dasharray:none" id="16p12.2" d="m 38.79887500000001,67.00861250000001 11.3818375,0.0 0,-3.4209875000000096 -11.3818375,-0.0 0,3.4209875000000096 z "/>
<path style="fill:#fffafa;stroke:#211c1d;stroke-width:0.1;stroke-linecap:butt;stroke-linejoin:miter;stroke-miterlimit:4;stroke-opacity:1;stroke-dasharray:none" id="16q24.3" d="m 38.79887500000001,151.529625 c 0.0,1.416 2.544,2.564 5.681125,2.564 3.1372500000000003,0.0 5.681250000000001,-1.148 5.681250000000001,-2.564  l -11.3818375,-0.0 z"/>
<path style="fill:#fffafa;stroke:#211c1d;stroke-width:0.1;stroke-linecap:butt;stroke-linejoin:miter;stroke-miterlimit:4;stroke-opacity:1;stroke-dasharray:none" id="16p13.13" d="m 38.79887500000001,53.070575 11.3818375,0.0 0,-5.004825000000004 -11.3818375,-0.0 0,5.004825000000004 z "/>
<path style="fill:#fffafa;stroke:#211c1d;stroke-width:0.1;stroke-linecap:butt;stroke-linejoin:miter;stroke-miterlimit:4;stroke-opacity:1;stroke-dasharray:none" id="16q24.1" d="m 38.79887500000001,149.71615 11.3818375,0.0 0,-4.079649999999987 -11.3818375,-0.0 0,4.079649999999987 z "/>
<path style="fill:#fffafa;stroke:#211c1d;stroke-width:0.1;stroke-linecap:butt;stroke-linejoin:miter;stroke-miterlimit:4;stroke-opacity:1;stroke-dasharray:none" id="16q12.1" d="m 38.79887500000001,103.03596250000001 11.3818375,0.0 0,-5.548837500000005 -11.3818375,-0.0 0,5.548837500000005 z "/>
<path style="fill:#fffafa;stroke:#211c1d;stroke-width:0.1;stroke-linecap:butt;stroke-linejoin:miter;stroke-miterlimit:4;stroke-opacity:1;stroke-dasharray:none" id="16q22.1" d="m 38.79887500000001,128.192225 11.3818375,0.0 0,-8.615849999999995 -11.3818375,-0.0 0,8.615849999999995 z "/>
<path style="fill:#fffafa;stroke:#211c1d;stroke-width:0.1;stroke-linecap:butt;stroke-linejoin:miter;stroke-miterlimit:4;stroke-opacity:1;stroke-dasharray:none" id="16p13.3" d="m 38.79887500000001,42.3059875 11.3818375,0.0 0.0,-5.7597625 c 0.0,-1.41625 -2.544,-2.56375 -5.681250000000001,-2.56375 -3.1371250000000006,-0.0 -5.681125,1.1475 -5.681125,2.56375  l 0.0,5.7597625 z "/>
<path style="fill:#fffafa;stroke:#211c1d;stroke-width:0.1;stroke-linecap:butt;stroke-linejoin:miter;stroke-miterlimit:4;stroke-opacity:1;stroke-dasharray:none" id="16q13" d="m 38.79887500000001,112.10127500000002 11.3818375,0.0 0,-4.306525000000008 -11.3818375,-0.0 0,4.306525000000008 z "/>
<path style="fill:#a4bdc8;fill-opacity:1;fill-rule:nonzero;stroke:none" id="centromere16-f" d="m 50.16937500000001,85.531 0.0,-0.05562500000000001 c 0.0,-0.964875 -1.178625,-2.549375 -2.92325,-3.457 1.744625,-0.9057500000000002 2.92325,-2.49325 2.92325,-3.454625 l 0.0,-0.566375 -11.36325,-0.0 0.0,0.566375 c 0.0,0.9662500000000002 1.1875,2.55075 2.941,3.454625 -1.7535,0.9057500000000002 -2.941,2.49025 -2.941,3.457 l 0.0,0.05562500000000001 11.36325,0.0 "/>
<path style="fill:none;stroke:#100f0d;stroke-width:0.8;stroke-linecap:butt;stroke-linejoin:miter;stroke-miterlimit:4;stroke-opacity:1;stroke-dasharray:none" id="centromere16-o" d="m 50.16937500000001,85.531 0.0,-0.05562500000000001 c 0.0,-0.964875 -1.178625,-2.549375 -2.92325,-3.457 1.744625,-0.9057500000000002 2.92325,-2.49325 2.92325,-3.454625 l 0.0,-0.566375 -11.36325,-0.0 0.0,0.566375 c 0.0,0.9662500000000002 1.1875,2.55075 2.941,3.454625 -1.7535,0.9057500000000002 -2.941,2.49025 -2.941,3.457 l 0.0,0.05562500000000001 11.36325,0.0 z "/>
<path style="fill:#c4cdf2;fill-opacity:1;fill-rule:nonzero;stroke:none" id="16q11.2" d="m 38.79887500000001,97.487125 11.3818375,0.0 0.0,-11.896975000000001 -11.3818375,-0.0 0.0,11.896975000000001 z "/>
<path style="fill:none;stroke:#211c1d;stroke-width:0.8;stroke-linecap:butt;stroke-linejoin:miter;stroke-miterlimit:4;stroke-opacity:1;stroke-dasharray:none" id="16q11.2-o" d="m 38.79887500000001,97.487125 11.3818375,0.0 0.0,-11.896975000000001 -11.3818375,-0.0 0.0,11.896975000000001 z "/>
<path style="fill:none;stroke:#211c1d;stroke-width:0.8;stroke-linecap:butt;stroke-linejoin:miter;stroke-miterlimit:4;stroke-opacity:1;stroke-dasharray:none" id="outline16" d="m 41.745625,82.01837499999999 c -1.7530000000000001,0.9057500000000002 -2.9395,2.49025 -2.9395,3.457 l 0.0,65.827125 c 0.0,1.416 2.544,2.564 5.681125,2.564 3.1372500000000003,0.0 5.681250000000001,-1.148 5.681250000000001,-2.564 l 0.0,-65.827125 c 0.0,-0.964875 -1.1792500000000001,-2.549375 -2.9223750000000006,-3.457 1.743125,-0.9057500000000002 2.9223750000000006,-2.49325 2.9223750000000006,-3.454625 l 0.0,-41.921375000000005 c 0.0,-1.41625 -2.544,-2.56375 -5.681250000000001,-2.56375 -3.1371250000000006,-0.0 -5.681125,1.1475 -5.681125,2.56375 l 0.0,41.921375000000005 c 0.0,0.9662500000000002 1.1865,2.55075 2.9395,3.454625 z "/>
<path style="fill:none;stroke:#231f20;stroke-width:0.8;stroke-linecap:butt;stroke-linejoin:miter;stroke-miterlimit:4;stroke-opacity:1;stroke-dasharray:none;display:none" id="centre16" d="M 41.347625,82.055 0.0,82.055 "/>
<text>
<tspan x="38.7915 43.793935499999996" y="162.51980000000003" id="label16" style="font-size:7.19543791px;font-variant:normal;font-weight:normal;writing-mode:lr-tb;fill:#211c1d;fill-opacity:1;fill-rule:nonzero;stroke:none;font-family:Helvetica;-inkscape-font-specification:Helvetica">16</tspan>
</text>
</g>
</svg>
