<?xml version="1.0" encoding="UTF-8"?>
<svg xmlns:xlink="http://www.w3.org/1999/xlink" xmlns="http://www.w3.org/2000/svg" contentScriptType="text/ecmascript" zoomAndPan="magnify" contentStyleType="text/css" preserveAspectRatio="xMidYMid meet" version="1.0">
<g>
<path style="fill:#a4bdc8;fill-opacity:1;fill-rule:nonzero;stroke:none" d="m 50.16937500000001,51.762375000000006 0.0,-0.05562500000000001 c 0.0,-0.964875 -1.178625,-2.549375 -2.92325,-3.457 1.744625,-0.9057500000000002 2.92325,-2.49325 2.92325,-3.454625 l 0.0,-0.566375 -11.36325,-0.0 0.0,0.566375 c 0.0,0.9662500000000002 1.1875,2.55075 2.941,3.454625 -1.7535,0.9057500000000002 -2.941,2.49025 -2.941,3.457 l 0.0,0.05562500000000001 11.36325,0.0 " id="centromere16-f"/>
<path style="fill:none;stroke:#100f0d;stroke-width:0.8;stroke-linecap:butt;stroke-linejoin:miter;stroke-miterlimit:4;stroke-opacity:1;stroke-dasharray:none" d="m 50.16937500000001,51.762375000000006 0.0,-0.05562500000000001 c 0.0,-0.964875 -1.178625,-2.549375 -2.92325,-3.457 1.744625,-0.9057500000000002 2.92325,-2.49325 2.92325,-3.454625 l 0.0,-0.566375 -11.36325,-0.0 0.0,0.566375 c 0.0,0.9662500000000002 1.1875,2.55075 2.941,3.454625 -1.7535,0.9057500000000002 -2.941,2.49025 -2.941,3.457 l 0.0,0.05562500000000001 11.36325,0.0 z " id="centromere16-o"/>
<path style="fill:#c4cdf2;fill-opacity:1;fill-rule:nonzero;stroke:none" d="m 38.79887500000001,63.718500000000006 11.3818375,0.0 0.0,-11.896975000000001 -11.3818375,-0.0 0.0,11.896975000000001 z " id="path136"/>
<path style="fill:none;stroke:#211c1d;stroke-width:0.8;stroke-linecap:butt;stroke-linejoin:miter;stroke-miterlimit:4;stroke-opacity:1;stroke-dasharray:none" d="m 38.79887500000001,63.718500000000006 11.3818375,0.0 0.0,-11.896975000000001 -11.3818375,-0.0 0.0,11.896975000000001 z " id="path138"/>
<path style="fill:#211c1d;fill-opacity:1;fill-rule:nonzero;stroke:none" d="m 38.79887500000001,85.80775000000001 11.3818375,0.0 0.0,-7.475100000000001 -11.3818375,-0.0 0.0,7.475100000000001 z " id="path150"/>
<path style="fill:#bbbcbd;fill-opacity:1;fill-rule:nonzero;stroke:none" d="m 38.79887500000001,74.02612500000001 11.3818375,0.0 0.0,-4.7587875 -11.3818375,-0.0 0.0,4.7587875 z " id="path152"/>
<path style="fill:none;stroke:#211c1d;stroke-width:0.1;stroke-linecap:butt;stroke-linejoin:miter;stroke-miterlimit:4;stroke-opacity:1;stroke-dasharray:none" d="m 38.79887500000001,74.02612500000001 11.3818375,0.0 0.0,-4.7587875 -11.3818375,-0.0 0.0,4.7587875 z " id="path154"/>
<path style="fill:#bbbcbd;fill-opacity:1;fill-rule:nonzero;stroke:none" d="m 38.79887500000001,14.297124999999994 11.3818375,0.0 0.0,-5.7597625 -11.3818375,-0.0 0.0,5.7597625 z " id="path156"/>
<path style="fill:none;stroke:#211c1d;stroke-width:0.1;stroke-linecap:butt;stroke-linejoin:miter;stroke-miterlimit:4;stroke-opacity:1;stroke-dasharray:none" d="m 38.79887500000001,14.297124999999994 11.3818375,0.0 0.0,-5.7597625 -11.3818375,-0.0 0.0,5.7597625 z " id="path158"/>
<path style="fill:#bbbcbd;fill-opacity:1;fill-rule:nonzero;stroke:none" d="m 38.79887500000001,22.456249999999997 11.3818375,0.0 0.0,-3.1543000000000005 -11.3818375,-0.0 0.0,3.1543000000000005 z " id="path160"/>
<path style="fill:none;stroke:#211c1d;stroke-width:0.1;stroke-linecap:butt;stroke-linejoin:miter;stroke-miterlimit:4;stroke-opacity:1;stroke-dasharray:none" d="m 38.79887500000001,22.456249999999997 11.3818375,0.0 0.0,-3.1543000000000005 -11.3818375,-0.0 0.0,3.1543000000000005 z " id="path162"/>
<path style="fill:#bbbcbd;fill-opacity:1;fill-rule:nonzero;stroke:none" d="m 38.79887500000001,29.819000000000003 11.3818375,0.0 0.0,-4.513675 -11.3818375,-0.0 0.0,4.513675 z " id="path164"/>
<path style="fill:none;stroke:#211c1d;stroke-width:0.1;stroke-linecap:butt;stroke-linejoin:miter;stroke-miterlimit:4;stroke-opacity:1;stroke-dasharray:none" d="m 38.79887500000001,29.819000000000003 11.3818375,0.0 0.0,-4.513675 -11.3818375,-0.0 0.0,4.513675 z " id="path166"/>
<path style="fill:#bbbcbd;fill-opacity:1;fill-rule:nonzero;stroke:none" d="m 38.79887500000001,36.95825000000001 11.3818375,0.0 0.0,-3.7182625000000002 -11.3818375,-0.0 0.0,3.7182625000000002 z " id="path168"/>
<path style="fill:none;stroke:#211c1d;stroke-width:0.1;stroke-linecap:butt;stroke-linejoin:miter;stroke-miterlimit:4;stroke-opacity:1;stroke-dasharray:none" d="m 38.79887500000001,36.95825000000001 11.3818375,0.0 0.0,-3.7182625000000002 -11.3818375,-0.0 0.0,3.7182625000000002 z " id="path170"/>
<path style="fill:#bbbcbd;fill-opacity:1;fill-rule:nonzero;stroke:none" d="m 38.79887500000001,96.91187500000001 11.3818375,0.0 0.0,-2.488275 -11.3818375,-0.0 0.0,2.488275 z " id="path172"/>
<path style="fill:none;stroke:#211c1d;stroke-width:0.1;stroke-linecap:butt;stroke-linejoin:miter;stroke-miterlimit:4;stroke-opacity:1;stroke-dasharray:none" d="m 38.79887500000001,96.91187500000001 11.3818375,0.0 0.0,-2.488275 -11.3818375,-0.0 0.0,2.488275 z " id="path174"/>
<path style="fill:#bbbcbd;fill-opacity:1;fill-rule:nonzero;stroke:none" d="m 38.79887500000001,111.86787500000001 11.3818375,0.0 0.0,-2.492675 -11.3818375,-0.0 0.0,2.492675 z " id="path176"/>
<path style="fill:none;stroke:#211c1d;stroke-width:0.1;stroke-linecap:butt;stroke-linejoin:miter;stroke-miterlimit:4;stroke-opacity:1;stroke-dasharray:none" d="m 38.79887500000001,111.86787500000001 11.3818375,0.0 0.0,-2.492675 -11.3818375,-0.0 0.0,2.492675 z " id="path178"/>
<path style="fill:#e9eae9;fill-opacity:1;fill-rule:nonzero;stroke:none" d="m 38.79887500000001,117.76100000000001 11.3818375,0.0 0.0,-1.813475 -11.3818375,-0.0 0.0,1.813475 z " id="path180"/>
<path style="fill:none;stroke:#211c1d;stroke-width:0.1;stroke-linecap:butt;stroke-linejoin:miter;stroke-miterlimit:4;stroke-opacity:1;stroke-dasharray:none" d="m 38.79887500000001,117.76100000000001 11.3818375,0.0 0.0,-1.813475 -11.3818375,-0.0 0.0,1.813475 z " id="path182"/>
<path style="fill:#5a5758;fill-opacity:1;fill-rule:nonzero;stroke:none" d="m 38.79887500000001,106.882 11.3818375,0.0 0.0,-6.230475000000001 -11.3818375,-0.0 0.0,6.230475000000001 z " id="path184"/>
<path style="fill:none;stroke:#211c1d;stroke-width:0.8;stroke-linecap:butt;stroke-linejoin:miter;stroke-miterlimit:4;stroke-opacity:1;stroke-dasharray:none" d="m 41.745625,48.24974999999999 c -1.7530000000000001,0.9057500000000002 -2.9395,2.49025 -2.9395,3.457 l 0.0,65.827125 c 0.0,1.416 2.544,2.564 5.681125,2.564 3.1372500000000003,0.0 5.681250000000001,-1.148 5.681250000000001,-2.564 l 0.0,-65.827125 c 0.0,-0.964875 -1.1792500000000001,-2.549375 -2.9223750000000006,-3.457 1.743125,-0.9057500000000002 2.9223750000000006,-2.49325 2.9223750000000006,-3.454625 l 0.0,-41.921375000000005 c 0.0,-1.41625 -2.544,-2.56375 -5.681250000000001,-2.56375 -3.1371250000000006,-0.0 -5.681125,1.1475 -5.681125,2.56375 l 0.0,41.921375000000005 c 0.0,0.9662500000000002 1.1865,2.55075 2.9395,3.454625 z " id="outline16"/>
<path style="fill:none;stroke:#231f20;stroke-width:0.8;stroke-linecap:butt;stroke-linejoin:miter;stroke-miterlimit:4;stroke-opacity:1;stroke-dasharray:none;display:none" d="M 41.347625,48.28637500000001 0.0,48.28637500000001 " id="centre16"/>
<text>
<tspan x="38.7915 43.793935499999996" y="128.75117500000002" id="label16" style="font-size:7.19543791px;font-variant:normal;font-weight:normal;writing-mode:lr-tb;fill:#211c1d;fill-opacity:1;fill-rule:nonzero;stroke:none;font-family:Helvetica;-inkscape-font-specification:Helvetica">16</tspan>
</text>
</g>
</svg>
