<?xml version="1.0" encoding="UTF-8" standalone="no"?>
<!-- Created with Inkscape (http://www.inkscape.org/) -->
<svg xmlns:dc="http://purl.org/dc/elements/1.1/" xmlns:cc="http://creativecommons.org/ns#" xmlns:rdf="http://www.w3.org/1999/02/22-rdf-syntax-ns#" xmlns:svg="http://www.w3.org/2000/svg" xmlns="http://www.w3.org/2000/svg" version="1.1" width="50.487499" height="132.675" id="svg2" xml:space="preserve">
  <metadata id="metadata8">
    <rdf:RDF>
      <cc:Work rdf:about="">
        <dc:format>image/svg+xml</dc:format>
        <dc:type rdf:resource="http://purl.org/dc/dcmitype/StillImage"/>
        <dc:title/>
      </cc:Work>
    </rdf:RDF>
  </metadata>
  <defs id="defs6">
    <clipPath id="clipPath18">
      <path d="m 0,0 403.945,0 0,1061 L 0,1061 0,0 z" id="path20"/>
    </clipPath>
    <clipPath id="clipPath22">
      <path d="M 0,720 720,720 720,0 0,0 0,720 z" id="path24"/>
    </clipPath>
    <pattern id="pattern26" height="72" width="72" y="0" x="0" patternUnits="userSpaceOnUse" patternTransform="matrix(0.999995,0,0,-0.999995,-68.6,-19.6)">
      <g id="g28" transform="scale(0.1,0.1)">
        <g id="g30">
          <g id="g32" clip-path="url(#clipPath22)">
            <path id="path34" style="fill:#ffffff;fill-opacity:1;fill-rule:nonzero;stroke:none" d="M 0,0 720,0 720,720 0,720 0,0 z"/>
            <path id="path36" style="fill:none;stroke:#211c1d;stroke-opacity:1;stroke-width:3;stroke-linecap:square;stroke-linejoin:bevel;stroke-miterlimit:4;stroke-dasharray:none" d="M 0,0 720,720"/>
            <path id="path38" style="fill:none;stroke:#211c1d;stroke-opacity:1;stroke-width:3;stroke-linecap:square;stroke-linejoin:bevel;stroke-miterlimit:4;stroke-dasharray:none" d="M -30.0117,29.9883 660,720"/>
            <path id="path40" style="fill:none;stroke:#211c1d;stroke-opacity:1;stroke-width:3;stroke-linecap:square;stroke-linejoin:bevel;stroke-miterlimit:4;stroke-dasharray:none" d="M -30.0508,89.9531 600,720"/>
            <path id="path42" style="fill:none;stroke:#211c1d;stroke-opacity:1;stroke-width:3;stroke-linecap:square;stroke-linejoin:bevel;stroke-miterlimit:4;stroke-dasharray:none" d="M -30.0898,149.91 540,720"/>
            <path id="path44" style="fill:none;stroke:#211c1d;stroke-opacity:1;stroke-width:3;stroke-linecap:square;stroke-linejoin:bevel;stroke-miterlimit:4;stroke-dasharray:none" d="M -30.1328,209.871 480,720"/>
            <path id="path46" style="fill:none;stroke:#211c1d;stroke-opacity:1;stroke-width:3;stroke-linecap:square;stroke-linejoin:bevel;stroke-miterlimit:4;stroke-dasharray:none" d="M -30.1602,269.844 420,720"/>
            <path id="path48" style="fill:none;stroke:#211c1d;stroke-opacity:1;stroke-width:3;stroke-linecap:square;stroke-linejoin:bevel;stroke-miterlimit:4;stroke-dasharray:none" d="M -30.1992,329.805 360,720"/>
            <path id="path50" style="fill:none;stroke:#211c1d;stroke-opacity:1;stroke-width:3;stroke-linecap:square;stroke-linejoin:bevel;stroke-miterlimit:4;stroke-dasharray:none" d="M -30.2383,389.758 300,720"/>
            <path id="path52" style="fill:none;stroke:#211c1d;stroke-opacity:1;stroke-width:3;stroke-linecap:square;stroke-linejoin:bevel;stroke-miterlimit:4;stroke-dasharray:none" d="M -30.2695,449.719 240,720"/>
            <path id="path54" style="fill:none;stroke:#211c1d;stroke-opacity:1;stroke-width:3;stroke-linecap:square;stroke-linejoin:bevel;stroke-miterlimit:4;stroke-dasharray:none" d="M -30.3086,509.688 180,720"/>
            <path id="path56" style="fill:none;stroke:#211c1d;stroke-opacity:1;stroke-width:3;stroke-linecap:square;stroke-linejoin:bevel;stroke-miterlimit:4;stroke-dasharray:none" d="M -30.3516,569.648 120,720"/>
            <path id="path58" style="fill:none;stroke:#211c1d;stroke-opacity:1;stroke-width:3;stroke-linecap:square;stroke-linejoin:bevel;stroke-miterlimit:4;stroke-dasharray:none" d="M -30.3906,629.609 60,720"/>
            <path id="path60" style="fill:none;stroke:#211c1d;stroke-opacity:1;stroke-width:3;stroke-linecap:square;stroke-linejoin:bevel;stroke-miterlimit:4;stroke-dasharray:none" d="M -30.4219,689.57 0,720"/>
            <path id="path62" style="fill:none;stroke:#211c1d;stroke-opacity:1;stroke-width:3;stroke-linecap:square;stroke-linejoin:bevel;stroke-miterlimit:4;stroke-dasharray:none" d="M 60,0 750.012,690.02"/>
            <path id="path64" style="fill:none;stroke:#211c1d;stroke-opacity:1;stroke-width:3;stroke-linecap:square;stroke-linejoin:bevel;stroke-miterlimit:4;stroke-dasharray:none" d="M 120,0 750.051,630.059"/>
            <path id="path66" style="fill:none;stroke:#211c1d;stroke-opacity:1;stroke-width:3;stroke-linecap:square;stroke-linejoin:bevel;stroke-miterlimit:4;stroke-dasharray:none" d="M 180,0 750.09,570.098"/>
            <path id="path68" style="fill:none;stroke:#211c1d;stroke-opacity:1;stroke-width:3;stroke-linecap:square;stroke-linejoin:bevel;stroke-miterlimit:4;stroke-dasharray:none" d="M 240,0 750.133,510.129"/>
            <path id="path70" style="fill:none;stroke:#211c1d;stroke-opacity:1;stroke-width:3;stroke-linecap:square;stroke-linejoin:bevel;stroke-miterlimit:4;stroke-dasharray:none" d="M 300,0 750.16,450.168"/>
            <path id="path72" style="fill:none;stroke:#211c1d;stroke-opacity:1;stroke-width:3;stroke-linecap:square;stroke-linejoin:bevel;stroke-miterlimit:4;stroke-dasharray:none" d="M 360,0 750.199,390.215"/>
            <path id="path74" style="fill:none;stroke:#211c1d;stroke-opacity:1;stroke-width:3;stroke-linecap:square;stroke-linejoin:bevel;stroke-miterlimit:4;stroke-dasharray:none" d="M 420,0 750.238,330.254"/>
            <path id="path76" style="fill:none;stroke:#211c1d;stroke-opacity:1;stroke-width:3;stroke-linecap:square;stroke-linejoin:bevel;stroke-miterlimit:4;stroke-dasharray:none" d="M 480,0 750.277,270.281"/>
            <path id="path78" style="fill:none;stroke:#211c1d;stroke-opacity:1;stroke-width:3;stroke-linecap:square;stroke-linejoin:bevel;stroke-miterlimit:4;stroke-dasharray:none" d="M 540,0 750.309,210.32"/>
            <path id="path80" style="fill:none;stroke:#211c1d;stroke-opacity:1;stroke-width:3;stroke-linecap:square;stroke-linejoin:bevel;stroke-miterlimit:4;stroke-dasharray:none" d="M 600,0 750.352,150.359"/>
            <path id="path82" style="fill:none;stroke:#211c1d;stroke-opacity:1;stroke-width:3;stroke-linecap:square;stroke-linejoin:bevel;stroke-miterlimit:4;stroke-dasharray:none" d="m 660,0 90.391,90.4023"/>
            <path id="path84" style="fill:none;stroke:#211c1d;stroke-opacity:1;stroke-width:3;stroke-linecap:square;stroke-linejoin:bevel;stroke-miterlimit:4;stroke-dasharray:none" d="m 720,0 30.43,30.4297"/>
            <path id="path86" style="fill:none;stroke:#211c1d;stroke-opacity:1;stroke-width:3;stroke-linecap:square;stroke-linejoin:bevel;stroke-miterlimit:4;stroke-dasharray:none" d="M 720,0 0,720"/>
            <path id="path88" style="fill:none;stroke:#211c1d;stroke-opacity:1;stroke-width:3;stroke-linecap:square;stroke-linejoin:bevel;stroke-miterlimit:4;stroke-dasharray:none" d="M 660,0 -30.0117,690.02"/>
            <path id="path90" style="fill:none;stroke:#211c1d;stroke-opacity:1;stroke-width:3;stroke-linecap:square;stroke-linejoin:bevel;stroke-miterlimit:4;stroke-dasharray:none" d="M 600,0 -30.0508,630.059"/>
            <path id="path92" style="fill:none;stroke:#211c1d;stroke-opacity:1;stroke-width:3;stroke-linecap:square;stroke-linejoin:bevel;stroke-miterlimit:4;stroke-dasharray:none" d="M 540,0 -30.0898,570.098"/>
            <path id="path94" style="fill:none;stroke:#211c1d;stroke-opacity:1;stroke-width:3;stroke-linecap:square;stroke-linejoin:bevel;stroke-miterlimit:4;stroke-dasharray:none" d="M 480,0 -30.1328,510.137"/>
            <path id="path96" style="fill:none;stroke:#211c1d;stroke-opacity:1;stroke-width:3;stroke-linecap:square;stroke-linejoin:bevel;stroke-miterlimit:4;stroke-dasharray:none" d="M 420,0 -30.1602,450.168"/>
            <path id="path98" style="fill:none;stroke:#211c1d;stroke-opacity:1;stroke-width:3;stroke-linecap:square;stroke-linejoin:bevel;stroke-miterlimit:4;stroke-dasharray:none" d="M 360,0 -30.1992,390.215"/>
            <path id="path100" style="fill:none;stroke:#211c1d;stroke-opacity:1;stroke-width:3;stroke-linecap:square;stroke-linejoin:bevel;stroke-miterlimit:4;stroke-dasharray:none" d="M 300,0 -30.2383,330.254"/>
            <path id="path102" style="fill:none;stroke:#211c1d;stroke-opacity:1;stroke-width:3;stroke-linecap:square;stroke-linejoin:bevel;stroke-miterlimit:4;stroke-dasharray:none" d="M 240,0 -30.2695,270.293"/>
            <path id="path104" style="fill:none;stroke:#211c1d;stroke-opacity:1;stroke-width:3;stroke-linecap:square;stroke-linejoin:bevel;stroke-miterlimit:4;stroke-dasharray:none" d="M 180,0 -30.3086,210.32"/>
            <path id="path106" style="fill:none;stroke:#211c1d;stroke-opacity:1;stroke-width:3;stroke-linecap:square;stroke-linejoin:bevel;stroke-miterlimit:4;stroke-dasharray:none" d="M 120,0 -30.3516,150.359"/>
            <path id="path108" style="fill:none;stroke:#211c1d;stroke-opacity:1;stroke-width:3;stroke-linecap:square;stroke-linejoin:bevel;stroke-miterlimit:4;stroke-dasharray:none" d="M 60,0 -30.3906,90.4023"/>
            <path id="path110" style="fill:none;stroke:#211c1d;stroke-opacity:1;stroke-width:3;stroke-linecap:square;stroke-linejoin:bevel;stroke-miterlimit:4;stroke-dasharray:none" d="M 0,0 -30.4219,30.4414"/>
            <path id="path112" style="fill:none;stroke:#211c1d;stroke-opacity:1;stroke-width:3;stroke-linecap:square;stroke-linejoin:bevel;stroke-miterlimit:4;stroke-dasharray:none" d="M 750.012,29.9883 60,720"/>
            <path id="path114" style="fill:none;stroke:#211c1d;stroke-opacity:1;stroke-width:3;stroke-linecap:square;stroke-linejoin:bevel;stroke-miterlimit:4;stroke-dasharray:none" d="M 750.051,89.9531 120,720"/>
            <path id="path116" style="fill:none;stroke:#211c1d;stroke-opacity:1;stroke-width:3;stroke-linecap:square;stroke-linejoin:bevel;stroke-miterlimit:4;stroke-dasharray:none" d="M 750.09,149.91 180,720"/>
            <path id="path118" style="fill:none;stroke:#211c1d;stroke-opacity:1;stroke-width:3;stroke-linecap:square;stroke-linejoin:bevel;stroke-miterlimit:4;stroke-dasharray:none" d="M 750.133,209.871 240,720"/>
            <path id="path120" style="fill:none;stroke:#211c1d;stroke-opacity:1;stroke-width:3;stroke-linecap:square;stroke-linejoin:bevel;stroke-miterlimit:4;stroke-dasharray:none" d="M 750.16,269.844 300,720"/>
            <path id="path122" style="fill:none;stroke:#211c1d;stroke-opacity:1;stroke-width:3;stroke-linecap:square;stroke-linejoin:bevel;stroke-miterlimit:4;stroke-dasharray:none" d="M 750.199,329.805 360,720"/>
            <path id="path124" style="fill:none;stroke:#211c1d;stroke-opacity:1;stroke-width:3;stroke-linecap:square;stroke-linejoin:bevel;stroke-miterlimit:4;stroke-dasharray:none" d="M 750.238,389.758 420,720"/>
            <path id="path126" style="fill:none;stroke:#211c1d;stroke-opacity:1;stroke-width:3;stroke-linecap:square;stroke-linejoin:bevel;stroke-miterlimit:4;stroke-dasharray:none" d="M 750.277,449.727 480,720"/>
            <path id="path128" style="fill:none;stroke:#211c1d;stroke-opacity:1;stroke-width:3;stroke-linecap:square;stroke-linejoin:bevel;stroke-miterlimit:4;stroke-dasharray:none" d="M 750.309,509.688 540,720"/>
            <path id="path130" style="fill:none;stroke:#211c1d;stroke-opacity:1;stroke-width:3;stroke-linecap:square;stroke-linejoin:bevel;stroke-miterlimit:4;stroke-dasharray:none" d="M 750.352,569.648 600,720"/>
            <path id="path132" style="fill:none;stroke:#211c1d;stroke-opacity:1;stroke-width:3;stroke-linecap:square;stroke-linejoin:bevel;stroke-miterlimit:4;stroke-dasharray:none" d="M 750.391,629.609 660,720"/>
            <path id="path134" style="fill:none;stroke:#211c1d;stroke-opacity:1;stroke-width:3;stroke-linecap:square;stroke-linejoin:bevel;stroke-miterlimit:4;stroke-dasharray:none" d="M 750.43,689.578 720,720"/>
          </g>
        </g>
      </g>
    </pattern>
  </defs>
  <g transform="matrix(1.25,0,0,-1.25,0,132.675)" id="g10">
    <g transform="scale(0.1,0.1)" id="g12">
      <g id="g14">
        <g clip-path="url(#clipPath18)" id="g16">
          <path d="m 310.391,551.652 91.0547,0 0,95.1758 -91.0547,0 0,-95.1758 z" id="path136" style="fill:url(#pattern26);fill-opacity:1;fill-rule:nonzero;stroke:none"/>
          <path d="m 310.391,551.652 91.0547,0 0,95.1758 -91.0547,0 0,-95.1758 z" id="path138" style="fill:none;stroke:#211c1d;stroke-width:5;stroke-linecap:butt;stroke-linejoin:miter;stroke-miterlimit:4;stroke-opacity:1;stroke-dasharray:none"/>
          <path d="m 401.355,647.301 0,0.445 c 0,7.719 -9.429,20.395 -23.386,27.656 13.957,7.246 23.386,19.946 23.386,27.637 l 0,4.531 -90.906,0 0,-4.531 c 0,-7.73 9.5,-20.406 23.528,-27.637 -14.028,-7.246 -23.528,-19.922 -23.528,-27.656 l 0,-0.445 90.906,0" id="path140" style="fill:#a4bdc8;fill-opacity:1;fill-rule:nonzero;stroke:none"/>
          <path d="m 401.355,647.301 0,0.445 c 0,7.719 -9.429,20.395 -23.386,27.656 13.957,7.246 23.386,19.946 23.386,27.637 l 0,4.531 -90.906,0 0,-4.531 c 0,-7.73 9.5,-20.406 23.528,-27.637 -14.028,-7.246 -23.528,-19.922 -23.528,-27.656 l 0,-0.445 90.906,0 z" id="path142" style="fill:none;stroke:#100f0d;stroke-width:5;stroke-linecap:butt;stroke-linejoin:miter;stroke-miterlimit:4;stroke-opacity:1;stroke-dasharray:none"/>
          <g transform="scale(10,10)" id="g144"><text transform="matrix(1,0,0,-0.90697189,31.0332,3.13906)" id="text146"><tspan x="0 4.0019484" y="0" id="tspan148" style="font-size:7.19543791px;font-variant:normal;font-weight:normal;writing-mode:lr-tb;fill:#211c1d;fill-opacity:1;fill-rule:nonzero;stroke:none;font-family:Helvetica;-inkscape-font-specification:Helvetica">16</tspan></text>
</g>
          <path d="m 310.391,374.938 91.0547,0 0,59.8008 -91.0547,0 0,-59.8008 z" id="path150" style="fill:#211c1d;fill-opacity:1;fill-rule:nonzero;stroke:none"/>
          <path d="m 310.391,469.191 91.0547,0 0,38.0703 -91.0547,0 0,-38.0703 z" id="path152" style="fill:#bbbcbd;fill-opacity:1;fill-rule:nonzero;stroke:none"/>
          <path d="m 310.391,469.191 91.0547,0 0,38.0703 -91.0547,0 0,-38.0703 z" id="path154" style="fill:none;stroke:#211c1d;stroke-width:0.62;stroke-linecap:butt;stroke-linejoin:miter;stroke-miterlimit:4;stroke-opacity:1;stroke-dasharray:none"/>
          <path d="m 310.391,947.023 91.0547,0 0,46.0781 -91.0547,0 0,-46.0781 z" id="path156" style="fill:#bbbcbd;fill-opacity:1;fill-rule:nonzero;stroke:none"/>
          <path d="m 310.391,947.023 91.0547,0 0,46.0781 -91.0547,0 0,-46.0781 z" id="path158" style="fill:none;stroke:#211c1d;stroke-width:0.62;stroke-linecap:butt;stroke-linejoin:miter;stroke-miterlimit:4;stroke-opacity:1;stroke-dasharray:none"/>
          <path d="m 310.391,881.75 91.0547,0 0,25.2344 -91.0547,0 0,-25.2344 z" id="path160" style="fill:#bbbcbd;fill-opacity:1;fill-rule:nonzero;stroke:none"/>
          <path d="m 310.391,881.75 91.0547,0 0,25.2344 -91.0547,0 0,-25.2344 z" id="path162" style="fill:none;stroke:#211c1d;stroke-width:0.62;stroke-linecap:butt;stroke-linejoin:miter;stroke-miterlimit:4;stroke-opacity:1;stroke-dasharray:none"/>
          <path d="m 310.391,822.848 91.0547,0 0,36.1094 -91.0547,0 0,-36.1094 z" id="path164" style="fill:#bbbcbd;fill-opacity:1;fill-rule:nonzero;stroke:none"/>
          <path d="m 310.391,822.848 91.0547,0 0,36.1094 -91.0547,0 0,-36.1094 z" id="path166" style="fill:none;stroke:#211c1d;stroke-width:0.62;stroke-linecap:butt;stroke-linejoin:miter;stroke-miterlimit:4;stroke-opacity:1;stroke-dasharray:none"/>
          <path d="m 310.391,765.734 91.0547,0 0,29.7461 -91.0547,0 0,-29.7461 z" id="path168" style="fill:#bbbcbd;fill-opacity:1;fill-rule:nonzero;stroke:none"/>
          <path d="m 310.391,765.734 91.0547,0 0,29.7461 -91.0547,0 0,-29.7461 z" id="path170" style="fill:none;stroke:#211c1d;stroke-width:0.62;stroke-linecap:butt;stroke-linejoin:miter;stroke-miterlimit:4;stroke-opacity:1;stroke-dasharray:none"/>
          <path d="m 310.391,286.105 91.0547,0 0,19.9062 -91.0547,0 0,-19.9062 z" id="path172" style="fill:#bbbcbd;fill-opacity:1;fill-rule:nonzero;stroke:none"/>
          <path d="m 310.391,286.105 91.0547,0 0,19.9062 -91.0547,0 0,-19.9062 z" id="path174" style="fill:none;stroke:#211c1d;stroke-width:0.62;stroke-linecap:butt;stroke-linejoin:miter;stroke-miterlimit:4;stroke-opacity:1;stroke-dasharray:none"/>
          <path d="m 310.391,166.457 91.0547,0 0,19.9414 -91.0547,0 0,-19.9414 z" id="path176" style="fill:#bbbcbd;fill-opacity:1;fill-rule:nonzero;stroke:none"/>
          <path d="m 310.391,166.457 91.0547,0 0,19.9414 -91.0547,0 0,-19.9414 z" id="path178" style="fill:none;stroke:#211c1d;stroke-width:0.62;stroke-linecap:butt;stroke-linejoin:miter;stroke-miterlimit:4;stroke-opacity:1;stroke-dasharray:none"/>
          <path d="m 310.391,119.312 91.0547,0 0,14.5078 -91.0547,0 0,-14.5078 z" id="path180" style="fill:#e9eae9;fill-opacity:1;fill-rule:nonzero;stroke:none"/>
          <path d="m 310.391,119.312 91.0547,0 0,14.5078 -91.0547,0 0,-14.5078 z" id="path182" style="fill:none;stroke:#211c1d;stroke-width:0.62;stroke-linecap:butt;stroke-linejoin:miter;stroke-miterlimit:4;stroke-opacity:1;stroke-dasharray:none"/>
          <path d="m 310.391,206.344 91.0547,0 0,49.8438 -91.0547,0 0,-49.8438 z" id="path184" style="fill:#5a5758;fill-opacity:1;fill-rule:nonzero;stroke:none"/>
          <path d="m 333.965,675.402 c -14.024,-7.246 -23.516,-19.922 -23.516,-27.656 l 0,-526.617 c 0,-11.328 20.352,-20.512 45.449,-20.512 25.098,0 45.45,9.184 45.45,20.512 l 0,526.617 c 0,7.719 -9.434,20.395 -23.379,27.656 13.945,7.246 23.379,19.946 23.379,27.637 l 0,335.371 c 0,11.33 -20.352,20.51 -45.45,20.51 -25.097,0 -45.449,-9.18 -45.449,-20.51 l 0,-335.371 c 0,-7.73 9.492,-20.406 23.516,-27.637 z" id="path186" style="fill:none;stroke:#211c1d;stroke-width:5;stroke-linecap:butt;stroke-linejoin:miter;stroke-miterlimit:4;stroke-opacity:1;stroke-dasharray:none"/>
          <path d="M 330.781,675.109 0,675.109" id="path188" style="fill:none;stroke:#231f20;stroke-width:5;stroke-linecap:butt;stroke-linejoin:miter;stroke-miterlimit:4;stroke-opacity:1;stroke-dasharray:none"/>
          <g transform="scale(10,10)" id="g190"><text transform="matrix(1,0,0,-0.90698012,22.8445,68.2348)" id="text192"><tspan x="0 1.7353495 3.7363315 4.7358446" y="0" id="tspan194" style="font-size:3.59771943px;font-variant:normal;font-weight:normal;writing-mode:lr-tb;fill:#231f20;fill-opacity:1;fill-rule:nonzero;stroke:none;font-family:Helvetica;-inkscape-font-specification:Helvetica">11.1</tspan><tspan x="0 1.7353495 3.7363315 4.7358446" y="4.1970491" id="tspan196" style="font-size:3.59771943px;font-variant:normal;font-weight:normal;writing-mode:lr-tb;fill:#231f20;fill-opacity:1;fill-rule:nonzero;stroke:none;font-family:Helvetica;-inkscape-font-specification:Helvetica">11.1</tspan><tspan x="-0.26484373 1.7354883 3.7358203 4.7359862" y="-36.276825" id="tspan198" style="font-size:3.59771943px;font-variant:normal;font-weight:normal;writing-mode:lr-tb;fill:#231f20;fill-opacity:1;fill-rule:nonzero;stroke:none;font-family:Helvetica;-inkscape-font-specification:Helvetica">13.3</tspan><tspan x="-0.26484373 1.7354883 3.7358203 4.7359862" y="-30.479774" id="tspan200" style="font-size:3.59771943px;font-variant:normal;font-weight:normal;writing-mode:lr-tb;fill:#231f20;fill-opacity:1;fill-rule:nonzero;stroke:none;font-family:Helvetica;-inkscape-font-specification:Helvetica">13.2</tspan><tspan x="-2.2660122 -0.26568019 1.7346518 2.7348177 4.7359405" y="-25.882189" id="tspan202" style="font-size:3.59771943px;font-variant:normal;font-weight:normal;writing-mode:lr-tb;fill:#231f20;fill-opacity:1;fill-rule:nonzero;stroke:none;font-family:Helvetica;-inkscape-font-specification:Helvetica">13.13</tspan><tspan x="-2.2660122 -0.26568019 1.7346518 2.7348177 4.7359405" y="-22.085676" id="tspan204" style="font-size:3.59771943px;font-variant:normal;font-weight:normal;writing-mode:lr-tb;fill:#231f20;fill-opacity:1;fill-rule:nonzero;stroke:none;font-family:Helvetica;-inkscape-font-specification:Helvetica">13.12</tspan><tspan x="-2.0007782 -0.00044614001 1.9998859 3.000052 4.73594" y="-18.889973" id="tspan206" style="font-size:3.59771943px;font-variant:normal;font-weight:normal;writing-mode:lr-tb;fill:#231f20;fill-opacity:1;fill-rule:nonzero;stroke:none;font-family:Helvetica;-inkscape-font-specification:Helvetica">13.11</tspan><tspan x="-0.26484153 1.7354904 3.7358224 4.7359886" y="22.285902" id="tspan208" style="font-size:3.59771943px;font-variant:normal;font-weight:normal;writing-mode:lr-tb;fill:#231f20;fill-opacity:1;fill-rule:nonzero;stroke:none;font-family:Helvetica;-inkscape-font-specification:Helvetica">12.2</tspan><tspan x="-0.26484153 1.7354904 3.7358224 4.7359886" y="65.05751" id="tspan210" style="font-size:3.59771943px;font-variant:normal;font-weight:normal;writing-mode:lr-tb;fill:#231f20;fill-opacity:1;fill-rule:nonzero;stroke:none;font-family:Helvetica;-inkscape-font-specification:Helvetica">24.3</tspan><tspan x="-0.26484153 1.7354904 3.7358224 4.7359886" y="-15.888033" id="tspan212" style="font-size:3.59771943px;font-variant:normal;font-weight:normal;writing-mode:lr-tb;fill:#231f20;fill-opacity:1;fill-rule:nonzero;stroke:none;font-family:Helvetica;-inkscape-font-specification:Helvetica">12.3</tspan><tspan x="-0.26484153 1.7354904 3.7358224 4.7359886" y="-12.49206" id="tspan214" style="font-size:3.59771943px;font-variant:normal;font-weight:normal;writing-mode:lr-tb;fill:#231f20;fill-opacity:1;fill-rule:nonzero;stroke:none;font-family:Helvetica;-inkscape-font-specification:Helvetica">12.2</tspan><tspan x="-0.26484153 1.7354904 3.7358224 4.7359886" y="-9.2942057" id="tspan216" style="font-size:3.59771943px;font-variant:normal;font-weight:normal;writing-mode:lr-tb;fill:#231f20;fill-opacity:1;fill-rule:nonzero;stroke:none;font-family:Helvetica;-inkscape-font-specification:Helvetica">12.1</tspan><tspan x="2.21e-06 1.7353517 3.7363338 4.7358465" y="-4.5954037" id="tspan218" style="font-size:3.59771943px;font-variant:normal;font-weight:normal;writing-mode:lr-tb;fill:#231f20;fill-opacity:1;fill-rule:nonzero;stroke:none;font-family:Helvetica;-inkscape-font-specification:Helvetica">11.2</tspan><tspan x="-0.26484153 1.7354904 3.7358224 4.7359886" y="60.259712" id="tspan220" style="font-size:3.59771943px;font-variant:normal;font-weight:normal;writing-mode:lr-tb;fill:#231f20;fill-opacity:1;fill-rule:nonzero;stroke:none;font-family:Helvetica;-inkscape-font-specification:Helvetica">24.1</tspan><tspan x="-10.401558 -8.401226 -6.4008937 -5.4007277" y="62.634956" id="tspan222" style="font-size:3.59771943px;font-variant:normal;font-weight:normal;writing-mode:lr-tb;fill:#231f20;fill-opacity:1;fill-rule:nonzero;stroke:none;font-family:Helvetica;-inkscape-font-specification:Helvetica">24.2</tspan></text>
</g>
          <path d="m 202.445,124.254 110.934,0" id="path224" style="fill:none;stroke:#231f20;stroke-width:1.82598996;stroke-linecap:butt;stroke-linejoin:miter;stroke-miterlimit:4;stroke-opacity:1;stroke-dasharray:none"/>
          <g transform="scale(10,10)" id="g226"><text transform="matrix(1,0,0,-0.90698012,22.5797,16.4789)" id="text228"><tspan x="0 2.0003321 4.0006642 5.0008302" y="0" id="tspan230" style="font-size:3.59771943px;font-variant:normal;font-weight:normal;writing-mode:lr-tb;fill:#231f20;fill-opacity:1;fill-rule:nonzero;stroke:none;font-family:Helvetica;-inkscape-font-specification:Helvetica">23.3</tspan><tspan x="0 2.0003321 4.0006642 5.0008302" y="-5.5967822" id="tspan232" style="font-size:3.59771943px;font-variant:normal;font-weight:normal;writing-mode:lr-tb;fill:#231f20;fill-opacity:1;fill-rule:nonzero;stroke:none;font-family:Helvetica;-inkscape-font-specification:Helvetica">23.1</tspan><tspan x="-10.136716 -8.136384 -6.1360521 -5.1358862" y="-2.4269221" id="tspan234" style="font-size:3.59771943px;font-variant:normal;font-weight:normal;writing-mode:lr-tb;fill:#231f20;fill-opacity:1;fill-rule:nonzero;stroke:none;font-family:Helvetica;-inkscape-font-specification:Helvetica">23.2</tspan></text>
</g>
          <path d="m 202.445,196.754 110.934,0" id="path236" style="fill:none;stroke:#231f20;stroke-width:1.82598996;stroke-linecap:butt;stroke-linejoin:miter;stroke-miterlimit:4;stroke-opacity:1;stroke-dasharray:none"/>
          <g transform="scale(10,10)" id="g238"><text transform="matrix(1,0,0,-0.90698012,22.5797,26.0863)" id="text240"><tspan x="0 2.0003321 4.0006642 5.0008302" y="0" id="tspan242" style="font-size:3.59771943px;font-variant:normal;font-weight:normal;writing-mode:lr-tb;fill:#231f20;fill-opacity:1;fill-rule:nonzero;stroke:none;font-family:Helvetica;-inkscape-font-specification:Helvetica">22.3</tspan><tspan x="0 2.0003321 4.0006642 5.0008302" y="-7.3949032" id="tspan244" style="font-size:3.59771943px;font-variant:normal;font-weight:normal;writing-mode:lr-tb;fill:#231f20;fill-opacity:1;fill-rule:nonzero;stroke:none;font-family:Helvetica;-inkscape-font-specification:Helvetica">22.1</tspan><tspan x="0 2.0003321 4.0006642 5.0008302" y="-2.9997351" id="tspan246" style="font-size:3.59771943px;font-variant:normal;font-weight:normal;writing-mode:lr-tb;fill:#231f20;fill-opacity:1;fill-rule:nonzero;stroke:none;font-family:Helvetica;-inkscape-font-specification:Helvetica">22.2</tspan><tspan x="2.9999995 5.0009785" y="-14.19116" id="tspan248" style="font-size:3.59771943px;font-variant:normal;font-weight:normal;writing-mode:lr-tb;fill:#231f20;fill-opacity:1;fill-rule:nonzero;stroke:none;font-family:Helvetica;-inkscape-font-specification:Helvetica">21</tspan><tspan x="2.9999995 5.0009785" y="-19.589823" id="tspan250" style="font-size:3.59771943px;font-variant:normal;font-weight:normal;writing-mode:lr-tb;fill:#231f20;fill-opacity:1;fill-rule:nonzero;stroke:none;font-family:Helvetica;-inkscape-font-specification:Helvetica">13</tspan><tspan x="0.26484594 2.0001955 4.0011773 5.0006905" y="-35.880589" id="tspan252" style="font-size:3.59771943px;font-variant:normal;font-weight:normal;writing-mode:lr-tb;fill:#231f20;fill-opacity:1;fill-rule:nonzero;stroke:none;font-family:Helvetica;-inkscape-font-specification:Helvetica">11.2</tspan><tspan x="2.21e-06 2.0003343 4.0006661 5.0008321" y="-28.481375" id="tspan254" style="font-size:3.59771943px;font-variant:normal;font-weight:normal;writing-mode:lr-tb;fill:#231f20;fill-opacity:1;fill-rule:nonzero;stroke:none;font-family:Helvetica;-inkscape-font-specification:Helvetica">12.1</tspan></text>
</g>
        </g>
      </g>
    </g>
  </g>
</svg>
