<?xml version="1.0" encoding="UTF-8" standalone="no"?>
<!-- Created with Inkscape (http://www.inkscape.org/) -->
<svg xmlns:dc="http://purl.org/dc/elements/1.1/" xmlns:cc="http://creativecommons.org/ns#" xmlns:rdf="http://www.w3.org/1999/02/22-rdf-syntax-ns#" xmlns:svg="http://www.w3.org/2000/svg" xmlns="http://www.w3.org/2000/svg" version="1.1" width="50.487499" height="127.0125" id="svg3231" xml:space="preserve">
  <metadata id="metadata3237">
    <rdf:RDF>
      <cc:Work rdf:about="">
        <dc:format>image/svg+xml</dc:format>
        <dc:type rdf:resource="http://purl.org/dc/dcmitype/StillImage"/>
        <dc:title/>
      </cc:Work>
    </rdf:RDF>
  </metadata>
  <defs id="defs3235">
    <clipPath id="clipPath3247">
      <path d="m 0,0 403.852,0 0,1016 L 0,1016 0,0 z" id="path3249"/>
    </clipPath>
  </defs>
  <g transform="matrix(1.25,0,0,-1.25,0,127.0125)" id="g3239">
    <g transform="scale(0.1,0.1)" id="g3241">
      <g id="g3243">
        <g clip-path="url(#clipPath3247)" id="g3245">
          <path d="m 401.352,676.305 0,0.449 c 0,7.715 -9.454,20.391 -23.399,27.656 13.945,7.246 23.399,19.942 23.399,27.637 l 0,2.715 -90.918,0 0,-2.715 c 0,-7.735 9.492,-20.41 23.527,-27.637 -14.035,-7.246 -23.527,-19.922 -23.527,-27.656 l 0,-0.449 90.918,0" id="path3251" style="fill:#a4bdc8;fill-opacity:1;fill-rule:nonzero;stroke:none"/>
          <path d="m 401.352,676.305 0,0.449 c 0,7.715 -9.454,20.391 -23.399,27.656 13.945,7.246 23.399,19.942 23.399,27.637 l 0,2.715 -90.918,0 0,-2.715 c 0,-7.735 9.492,-20.41 23.527,-27.637 -14.035,-7.246 -23.527,-19.922 -23.527,-27.656 l 0,-0.449 90.918,0 z" id="path3253" style="fill:none;stroke:#100f0d;stroke-width:5;stroke-linecap:butt;stroke-linejoin:miter;stroke-miterlimit:4;stroke-opacity:1;stroke-dasharray:none"/>
          <g transform="scale(10,10)" id="g3255"><text transform="matrix(1,0,0,-0.90697189,31.0316,3.13828)" id="text3257"><tspan x="0 4.0019484" y="0" id="tspan3259" style="font-size:7.19543791px;font-variant:normal;font-weight:normal;writing-mode:lr-tb;fill:#211c1d;fill-opacity:1;fill-rule:nonzero;stroke:none;font-family:Helvetica;-inkscape-font-specification:Helvetica">17</tspan></text>
</g>
          <path d="m 310.375,911.656 91.0352,0 0,22.5195 -91.0352,0 0,-22.5195 z" id="path3261" style="fill:#bbbcbd;fill-opacity:1;fill-rule:nonzero;stroke:none"/>
          <path d="m 310.375,911.656 91.0352,0 0,22.5195 -91.0352,0 0,-22.5195 z" id="path3263" style="fill:none;stroke:#211c1d;stroke-width:0.62;stroke-linecap:butt;stroke-linejoin:miter;stroke-miterlimit:4;stroke-opacity:1;stroke-dasharray:none"/>
          <path d="m 310.375,596.227 91.0352,0 0,29.7461 -91.0352,0 0,-29.7461 z" id="path3265" style="fill:#bbbcbd;fill-opacity:1;fill-rule:nonzero;stroke:none"/>
          <path d="m 310.375,596.227 91.0352,0 0,29.7461 -91.0352,0 0,-29.7461 z" id="path3267" style="fill:none;stroke:#211c1d;stroke-width:0.62;stroke-linecap:butt;stroke-linejoin:miter;stroke-miterlimit:4;stroke-opacity:1;stroke-dasharray:none"/>
          <path d="m 310.375,302.574 91.0352,0 0,24.2969 -91.0352,0 0,-24.2969 z" id="path3269" style="fill:#bbbcbd;fill-opacity:1;fill-rule:nonzero;stroke:none"/>
          <path d="m 310.375,302.574 91.0352,0 0,24.2969 -91.0352,0 0,-24.2969 z" id="path3271" style="fill:none;stroke:#211c1d;stroke-width:0.62;stroke-linecap:butt;stroke-linejoin:miter;stroke-miterlimit:4;stroke-opacity:1;stroke-dasharray:none"/>
          <path d="m 310.375,534.605 91.0352,0 0,26.1328 -91.0352,0 0,-26.1328 z" id="path3273" style="fill:#e9eae9;fill-opacity:1;fill-rule:nonzero;stroke:none"/>
          <path d="m 310.375,534.605 91.0352,0 0,26.1328 -91.0352,0 0,-26.1328 z" id="path3275" style="fill:none;stroke:#211c1d;stroke-width:0.62;stroke-linecap:butt;stroke-linejoin:miter;stroke-miterlimit:4;stroke-opacity:1;stroke-dasharray:none"/>
          <path d="m 310.375,454.84 91.0352,0 0,29.7656 -91.0352,0 0,-29.7656 z" id="path3277" style="fill:#e9eae9;fill-opacity:1;fill-rule:nonzero;stroke:none"/>
          <path d="m 310.375,454.84 91.0352,0 0,29.7656 -91.0352,0 0,-29.7656 z" id="path3279" style="fill:none;stroke:#211c1d;stroke-width:0.62;stroke-linecap:butt;stroke-linejoin:miter;stroke-miterlimit:4;stroke-opacity:1;stroke-dasharray:none"/>
          <path d="m 310.375,179.293 91.0352,0 0,20.6836 -91.0352,0 0,-20.6836 z" id="path3281" style="fill:#e9eae9;fill-opacity:1;fill-rule:nonzero;stroke:none"/>
          <path d="m 310.375,179.293 91.0352,0 0,20.6836 -91.0352,0 0,-20.6836 z" id="path3283" style="fill:none;stroke:#211c1d;stroke-width:0.62;stroke-linecap:butt;stroke-linejoin:miter;stroke-miterlimit:4;stroke-opacity:1;stroke-dasharray:none"/>
          <path d="m 310.375,828.121 91.0352,0 0,39.8828 -91.0352,0 0,-39.8828 z" id="path3285" style="fill:#7a7e82;fill-opacity:1;fill-rule:nonzero;stroke:none"/>
          <path d="m 310.375,828.121 91.0352,0 0,39.8828 -91.0352,0 0,-39.8828 z" id="path3287" style="fill:none;stroke:#211c1d;stroke-width:0.62;stroke-linecap:butt;stroke-linejoin:miter;stroke-miterlimit:4;stroke-opacity:1;stroke-dasharray:none"/>
          <path d="m 310.375,389.43 91.0352,0 0,38.0469 -91.0352,0 0,-38.0469 z" id="path3289" style="fill:#7a7e82;fill-opacity:1;fill-rule:nonzero;stroke:none"/>
          <path d="m 310.375,389.43 91.0352,0 0,38.0469 -91.0352,0 0,-38.0469 z" id="path3291" style="fill:none;stroke:#211c1d;stroke-width:0.62;stroke-linecap:butt;stroke-linejoin:miter;stroke-miterlimit:4;stroke-opacity:1;stroke-dasharray:none"/>
          <path d="m 310.375,336.832 91.0352,0 0,30.8398 -91.0352,0 0,-30.8398 z" id="path3293" style="fill:#7a7e82;fill-opacity:1;fill-rule:nonzero;stroke:none"/>
          <path d="m 310.375,336.832 91.0352,0 0,30.8398 -91.0352,0 0,-30.8398 z" id="path3295" style="fill:none;stroke:#211c1d;stroke-width:0.62;stroke-linecap:butt;stroke-linejoin:miter;stroke-miterlimit:4;stroke-opacity:1;stroke-dasharray:none"/>
          <path d="m 310.375,244.391 91.0352,0 0,32.6367 -91.0352,0 0,-32.6367 z" id="path3297" style="fill:#7a7e82;fill-opacity:1;fill-rule:nonzero;stroke:none"/>
          <path d="m 310.375,244.391 91.0352,0 0,32.6367 -91.0352,0 0,-32.6367 z" id="path3299" style="fill:none;stroke:#211c1d;stroke-width:0.62;stroke-linecap:butt;stroke-linejoin:miter;stroke-miterlimit:4;stroke-opacity:1;stroke-dasharray:none"/>
          <path d="m 333.961,704.41 c -14.035,-7.246 -23.516,-19.922 -23.516,-27.656 l 0,-555.645 c 0,-11.308 20.352,-20.507 45.45,-20.507 25.105,0 45.457,9.199 45.457,20.507 l 0,555.645 c 0,7.715 -9.442,20.391 -23.387,27.656 13.945,7.246 23.387,19.942 23.387,27.637 l 0,261.035 c 0,11.328 -20.352,20.528 -45.457,20.528 -25.098,0 -45.45,-9.2 -45.45,-20.528 l 0,-261.035 c 0,-7.735 9.481,-20.41 23.516,-27.637 z" id="path3301" style="fill:none;stroke:#211c1d;stroke-width:5;stroke-linecap:butt;stroke-linejoin:miter;stroke-miterlimit:4;stroke-opacity:1;stroke-dasharray:none"/>
          <path d="M 330.766,704.117 0,704.117" id="path3303" style="fill:none;stroke:#231f20;stroke-width:5;stroke-linecap:butt;stroke-linejoin:miter;stroke-miterlimit:4;stroke-opacity:1;stroke-dasharray:none"/>
          <g transform="scale(10,10)" id="g3305"><text transform="matrix(1,0,0,-0.90698012,22.8434,76.8465)" id="text3307"><tspan x="0 1.7353495 3.7363315 4.7358446" y="0" id="tspan3309" style="font-size:3.59771943px;font-variant:normal;font-weight:normal;writing-mode:lr-tb;fill:#231f20;fill-opacity:1;fill-rule:nonzero;stroke:none;font-family:Helvetica;-inkscape-font-specification:Helvetica">11.2</tspan><tspan x="0 1.7353495 3.7363315 4.7358446" y="6.2966542" id="tspan3311" style="font-size:3.59771943px;font-variant:normal;font-weight:normal;writing-mode:lr-tb;fill:#231f20;fill-opacity:1;fill-rule:nonzero;stroke:none;font-family:Helvetica;-inkscape-font-specification:Helvetica">11.1</tspan><tspan x="0 1.7353495 3.7363315 4.7358446" y="10.493703" id="tspan3313" style="font-size:3.59771943px;font-variant:normal;font-weight:normal;writing-mode:lr-tb;fill:#231f20;fill-opacity:1;fill-rule:nonzero;stroke:none;font-family:Helvetica;-inkscape-font-specification:Helvetica">11.1</tspan><tspan x="-0.26523405 1.735098 3.73543 4.7355962" y="25.684004" id="tspan3315" style="font-size:3.59771943px;font-variant:normal;font-weight:normal;writing-mode:lr-tb;fill:#231f20;fill-opacity:1;fill-rule:nonzero;stroke:none;font-family:Helvetica;-inkscape-font-specification:Helvetica">21.2</tspan><tspan x="-0.26523405 1.735098 3.73543 4.7355962" y="57.76376" id="tspan3317" style="font-size:3.59771943px;font-variant:normal;font-weight:normal;writing-mode:lr-tb;fill:#231f20;fill-opacity:1;fill-rule:nonzero;stroke:none;font-family:Helvetica;-inkscape-font-specification:Helvetica">24.3</tspan><tspan x="-0.26523405 1.735098 3.73543 4.7355962" y="61.762688" id="tspan3319" style="font-size:3.59771943px;font-variant:normal;font-weight:normal;writing-mode:lr-tb;fill:#231f20;fill-opacity:1;fill-rule:nonzero;stroke:none;font-family:Helvetica;-inkscape-font-specification:Helvetica">25.1</tspan><tspan x="-0.26523405 1.735098 3.73543 4.7355962" y="-20.586967" id="tspan3321" style="font-size:3.59771943px;font-variant:normal;font-weight:normal;writing-mode:lr-tb;fill:#231f20;fill-opacity:1;fill-rule:nonzero;stroke:none;font-family:Helvetica;-inkscape-font-specification:Helvetica">13.3</tspan><tspan x="0 1.7353495 3.7363315 4.7358446" y="14.191083" id="tspan3323" style="font-size:3.59771943px;font-variant:normal;font-weight:normal;writing-mode:lr-tb;fill:#231f20;fill-opacity:1;fill-rule:nonzero;stroke:none;font-family:Helvetica;-inkscape-font-specification:Helvetica">11.2</tspan><tspan x="-0.26523405 1.735098 3.73543 4.7355962" y="-15.588842" id="tspan3325" style="font-size:3.59771943px;font-variant:normal;font-weight:normal;writing-mode:lr-tb;fill:#231f20;fill-opacity:1;fill-rule:nonzero;stroke:none;font-family:Helvetica;-inkscape-font-specification:Helvetica">13.2</tspan><tspan x="-0.26523405 1.735098 3.73543 4.7355962" y="-11.792331" id="tspan3327" style="font-size:3.59771943px;font-variant:normal;font-weight:normal;writing-mode:lr-tb;fill:#231f20;fill-opacity:1;fill-rule:nonzero;stroke:none;font-family:Helvetica;-inkscape-font-specification:Helvetica">13.1</tspan><tspan x="2.7347655 4.7357445" y="-7.3950133" id="tspan3329" style="font-size:3.59771943px;font-variant:normal;font-weight:normal;writing-mode:lr-tb;fill:#231f20;fill-opacity:1;fill-rule:nonzero;stroke:none;font-family:Helvetica;-inkscape-font-specification:Helvetica">12</tspan><tspan x="2.7347655 4.7357445" y="18.588358" id="tspan3331" style="font-size:3.59771943px;font-variant:normal;font-weight:normal;writing-mode:lr-tb;fill:#231f20;fill-opacity:1;fill-rule:nonzero;stroke:none;font-family:Helvetica;-inkscape-font-specification:Helvetica">12</tspan><tspan x="-0.26523405 1.735098 3.73543 4.7355962" y="22.085545" id="tspan3333" style="font-size:3.59771943px;font-variant:normal;font-weight:normal;writing-mode:lr-tb;fill:#231f20;fill-opacity:1;fill-rule:nonzero;stroke:none;font-family:Helvetica;-inkscape-font-specification:Helvetica">21.1</tspan><tspan x="-2.2664025 -0.26607049 1.7342615 2.7344275 4.7355499" y="29.680717" id="tspan3335" style="font-size:3.59771943px;font-variant:normal;font-weight:normal;writing-mode:lr-tb;fill:#231f20;fill-opacity:1;fill-rule:nonzero;stroke:none;font-family:Helvetica;-inkscape-font-specification:Helvetica">21.31</tspan><tspan x="-2.2664025 -0.26607049 1.7342615 2.7344275 4.7355499" y="34.078033" id="tspan3337" style="font-size:3.59771943px;font-variant:normal;font-weight:normal;writing-mode:lr-tb;fill:#231f20;fill-opacity:1;fill-rule:nonzero;stroke:none;font-family:Helvetica;-inkscape-font-specification:Helvetica">21.32</tspan><tspan x="-2.2664025 -0.26607049 1.7342615 2.7344275 4.7355499" y="37.476158" id="tspan3339" style="font-size:3.59771943px;font-variant:normal;font-weight:normal;writing-mode:lr-tb;fill:#231f20;fill-opacity:1;fill-rule:nonzero;stroke:none;font-family:Helvetica;-inkscape-font-specification:Helvetica">21.33</tspan><tspan x="2.7347655 4.7357445" y="40.874283" id="tspan3341" style="font-size:3.59771943px;font-variant:normal;font-weight:normal;writing-mode:lr-tb;fill:#231f20;fill-opacity:1;fill-rule:nonzero;stroke:none;font-family:Helvetica;-inkscape-font-specification:Helvetica">22</tspan><tspan x="-0.26523405 1.735098 3.73543 4.7355962" y="44.171188" id="tspan3343" style="font-size:3.59771943px;font-variant:normal;font-weight:normal;writing-mode:lr-tb;fill:#231f20;fill-opacity:1;fill-rule:nonzero;stroke:none;font-family:Helvetica;-inkscape-font-specification:Helvetica">23.1</tspan><tspan x="-0.26523405 1.735098 3.73543 4.7355962" y="47.170925" id="tspan3345" style="font-size:3.59771943px;font-variant:normal;font-weight:normal;writing-mode:lr-tb;fill:#231f20;fill-opacity:1;fill-rule:nonzero;stroke:none;font-family:Helvetica;-inkscape-font-specification:Helvetica">23.2</tspan><tspan x="-10.40195 -8.401618 -6.4012861 -5.4011202" y="49.341591" id="tspan3347" style="font-size:3.59771943px;font-variant:normal;font-weight:normal;writing-mode:lr-tb;fill:#231f20;fill-opacity:1;fill-rule:nonzero;stroke:none;font-family:Helvetica;-inkscape-font-specification:Helvetica">23.3</tspan></text>
</g>
          <path d="m 202.441,330.914 110.922,0" id="path3349" style="fill:none;stroke:#231f20;stroke-width:1.82598996;stroke-linecap:butt;stroke-linejoin:miter;stroke-miterlimit:4;stroke-opacity:1;stroke-dasharray:none"/>
          <g transform="scale(10,10)" id="g3351"><text transform="matrix(1,0,0,-0.90698012,22.5781,30.077)" id="text3353"><tspan x="0 2.0003321 4.0006642 5.0008302" y="0" id="tspan3355" style="font-size:3.59771943px;font-variant:normal;font-weight:normal;writing-mode:lr-tb;fill:#231f20;fill-opacity:1;fill-rule:nonzero;stroke:none;font-family:Helvetica;-inkscape-font-specification:Helvetica">24.1</tspan><tspan x="0 2.0003321 4.0006642 5.0008302" y="2.9997351" id="tspan3357" style="font-size:3.59771943px;font-variant:normal;font-weight:normal;writing-mode:lr-tb;fill:#231f20;fill-opacity:1;fill-rule:nonzero;stroke:none;font-family:Helvetica;-inkscape-font-specification:Helvetica">24.2</tspan><tspan x="0 2.0003321 4.0006642 5.0008302" y="19.189285" id="tspan3359" style="font-size:3.59771943px;font-variant:normal;font-weight:normal;writing-mode:lr-tb;fill:#231f20;fill-opacity:1;fill-rule:nonzero;stroke:none;font-family:Helvetica;-inkscape-font-specification:Helvetica">25.3</tspan><tspan x="0 2.0003321 4.0006642 5.0008302" y="13.995191" id="tspan3361" style="font-size:3.59771943px;font-variant:normal;font-weight:normal;writing-mode:lr-tb;fill:#231f20;fill-opacity:1;fill-rule:nonzero;stroke:none;font-family:Helvetica;-inkscape-font-specification:Helvetica">25.2</tspan></text>
</g>
        </g>
      </g>
    </g>
  </g>
</svg>
