<?xml version="1.0" encoding="UTF-8"?>
<svg xmlns:xlink="http://www.w3.org/1999/xlink" xmlns="http://www.w3.org/2000/svg" contentScriptType="text/ecmascript" zoomAndPan="magnify" contentStyleType="text/css" preserveAspectRatio="xMidYMid meet" version="1.0">
<g id="chromosome17">
<path style="fill:#a4bdc8;fill-opacity:1;fill-rule:nonzero;stroke:none" d="m 50.169,85.53150000000001 0.0,-0.056125 c 0.0,-0.9643750000000001 -1.18175,-2.548875 -2.924875,-3.457 1.743125,-0.9057500000000002 2.924875,-2.49275 2.924875,-3.454625 l 0.0,-0.33937500000000004 -11.36475,-0.0 0.0,0.33937500000000004 c 0.0,0.9668750000000002 1.1865,2.55125 2.940875,3.454625 -1.7543750000000002,0.9057500000000002 -2.940875,2.49025 -2.940875,3.457 l 0.0,0.056125 11.36475,0.0 " id="centromere17-f"/>
<path style="fill:none;stroke:#100f0d;stroke-width:0.8;stroke-linecap:butt;stroke-linejoin:miter;stroke-miterlimit:4;stroke-opacity:1;stroke-dasharray:none" d="m 50.169,85.53150000000001 0.0,-0.056125 c 0.0,-0.9643750000000001 -1.18175,-2.548875 -2.924875,-3.457 1.743125,-0.9057500000000002 2.924875,-2.49275 2.924875,-3.454625 l 0.0,-0.33937500000000004 -11.36475,-0.0 0.0,0.33937500000000004 c 0.0,0.9668750000000002 1.1865,2.55125 2.940875,3.454625 -1.7543750000000002,0.9057500000000002 -2.940875,2.49025 -2.940875,3.457 l 0.0,0.056125 11.36475,0.0 z " id="centromere17-o"/>
<path style="fill:#bbbcbd;fill-opacity:1;fill-rule:nonzero;stroke:none" d="m 38.796875,56.11262500000001 11.379400000000002,0.0 0.0,-2.8149375000000005 -11.379400000000002,-0.0 0.0,2.8149375000000005 z " id="17p13.2"/>
<path style="fill:none;stroke:#211c1d;stroke-width:0.1;stroke-linecap:butt;stroke-linejoin:miter;stroke-miterlimit:4;stroke-opacity:1;stroke-dasharray:none" d="m 38.796875,56.11262500000001 11.379400000000002,0.0 0.0,-2.8149375000000005 -11.379400000000002,-0.0 0.0,2.8149375000000005 z " id="17p13.2-o"/>
<path style="fill:#bbbcbd;fill-opacity:1;fill-rule:nonzero;stroke:none" d="m 38.796875,95.54125 11.379400000000002,0.0 0.0,-3.7182625000000002 -11.379400000000002,-0.0 0.0,3.7182625000000002 z " id="17q12"/>
<path style="fill:none;stroke:#211c1d;stroke-width:0.1;stroke-linecap:butt;stroke-linejoin:miter;stroke-miterlimit:4;stroke-opacity:1;stroke-dasharray:none" d="m 38.796875,95.54125 11.379400000000002,0.0 0.0,-3.7182625000000002 -11.379400000000002,-0.0 0.0,3.7182625000000002 z " id="17q12-o"/>
<path style="fill:#bbbcbd;fill-opacity:1;fill-rule:nonzero;stroke:none" d="m 38.796875,132.247875 11.379400000000002,0.0 0.0,-3.0371125000000005 -11.379400000000002,-0.0 0.0,3.0371125000000005 z " id="17q24.1"/>
<path style="fill:none;stroke:#211c1d;stroke-width:0.1;stroke-linecap:butt;stroke-linejoin:miter;stroke-miterlimit:4;stroke-opacity:1;stroke-dasharray:none" d="m 38.796875,132.247875 11.379400000000002,0.0 0.0,-3.0371125000000005 -11.379400000000002,-0.0 0.0,3.0371125000000005 z " id="17q24.1-o"/>
<path style="fill:#e9eae9;fill-opacity:1;fill-rule:nonzero;stroke:none" d="m 38.796875,103.244 11.379400000000002,0.0 0.0,-3.2666 -11.379400000000002,-0.0 0.0,3.2666 z " id="17q21.2"/>
<path style="fill:none;stroke:#211c1d;stroke-width:0.1;stroke-linecap:butt;stroke-linejoin:miter;stroke-miterlimit:4;stroke-opacity:1;stroke-dasharray:none" d="m 38.796875,103.244 11.379400000000002,0.0 0.0,-3.2666 -11.379400000000002,-0.0 0.0,3.2666 z " id="17q21.2-o"/>
<path style="fill:#e9eae9;fill-opacity:1;fill-rule:nonzero;stroke:none" d="m 38.796875,113.214625 11.379400000000002,0.0 0.0,-3.7207 -11.379400000000002,-0.0 0.0,3.7207 z " id="17q21.32"/>
<path style="fill:none;stroke:#211c1d;stroke-width:0.1;stroke-linecap:butt;stroke-linejoin:miter;stroke-miterlimit:4;stroke-opacity:1;stroke-dasharray:none" d="m 38.796875,113.214625 11.379400000000002,0.0 0.0,-3.7207 -11.379400000000002,-0.0 0.0,3.7207 z " id="17q21.32-o"/>
<path style="fill:#e9eae9;fill-opacity:1;fill-rule:nonzero;stroke:none" d="m 38.796875,147.65800000000002 11.379400000000002,0.0 0.0,-2.58545 -11.379400000000002,-0.0 0.0,2.58545 z " id="17q25.2"/>
<path style="fill:none;stroke:#211c1d;stroke-width:0.1;stroke-linecap:butt;stroke-linejoin:miter;stroke-miterlimit:4;stroke-opacity:1;stroke-dasharray:none" d="m 38.796875,147.65800000000002 11.379400000000002,0.0 0.0,-2.58545 -11.379400000000002,-0.0 0.0,2.58545 z " id="17q25.2-o"/>
<path style="fill:#7a7e82;fill-opacity:1;fill-rule:nonzero;stroke:none" d="m 38.796875,66.5545 11.379400000000002,0.0 0.0,-4.98535 -11.379400000000002,-0.0 0.0,4.98535 z " id="17p12"/>
<path style="fill:none;stroke:#211c1d;stroke-width:0.1;stroke-linecap:butt;stroke-linejoin:miter;stroke-miterlimit:4;stroke-opacity:1;stroke-dasharray:none" d="m 38.796875,66.5545 11.379400000000002,0.0 0.0,-4.98535 -11.379400000000002,-0.0 0.0,4.98535 z " id="17p12-o"/>
<path style="fill:#7a7e82;fill-opacity:1;fill-rule:nonzero;stroke:none" d="m 38.796875,121.390875 11.379400000000002,0.0 0.0,-4.7558625 -11.379400000000002,-0.0 0.0,4.7558625 z " id="17q22"/>
<path style="fill:none;stroke:#211c1d;stroke-width:0.1;stroke-linecap:butt;stroke-linejoin:miter;stroke-miterlimit:4;stroke-opacity:1;stroke-dasharray:none" d="m 38.796875,121.390875 11.379400000000002,0.0 0.0,-4.7558625 -11.379400000000002,-0.0 0.0,4.7558625 z " id="17q22-o"/>
<path style="fill:#7a7e82;fill-opacity:1;fill-rule:nonzero;stroke:none" d="m 38.796875,127.965625 11.379400000000002,0.0 0.0,-3.8549750000000005 -11.379400000000002,-0.0 0.0,3.8549750000000005 z " id="17q23.2"/>
<path style="fill:none;stroke:#211c1d;stroke-width:0.1;stroke-linecap:butt;stroke-linejoin:miter;stroke-miterlimit:4;stroke-opacity:1;stroke-dasharray:none" d="m 38.796875,127.965625 11.379400000000002,0.0 0.0,-3.8549750000000005 -11.379400000000002,-0.0 0.0,3.8549750000000005 z " id="17q23.2-o"/>
<path style="fill:#7a7e82;fill-opacity:1;fill-rule:nonzero;stroke:none" d="m 38.796875,139.52075000000002 11.379400000000002,0.0 0.0,-4.0795875 -11.379400000000002,-0.0 0.0,4.0795875 z " id="17q24.3"/>
<path style="fill:none;stroke:#211c1d;stroke-width:0.1;stroke-linecap:butt;stroke-linejoin:miter;stroke-miterlimit:4;stroke-opacity:1;stroke-dasharray:none" d="m 38.796875,139.52075000000002 11.379400000000002,0.0 0.0,-4.0795875 -11.379400000000002,-0.0 0.0,4.0795875 z " id="17q24.3-o"/>
<path style="fill:none;stroke:#211c1d;stroke-width:0.8;stroke-linecap:butt;stroke-linejoin:miter;stroke-miterlimit:4;stroke-opacity:1;stroke-dasharray:none" d="m 41.745125,82.01837499999999 c -1.7543750000000002,0.9057500000000002 -2.9395,2.49025 -2.9395,3.457 l 0.0,69.455625 c 0.0,1.4135 2.544,2.5633750000000006 5.681250000000001,2.5633750000000006 3.1381250000000005,0.0 5.682125,-1.149875 5.682125,-2.5633750000000006 l 0.0,-69.455625 c 0.0,-0.9643750000000001 -1.18025,-2.548875 -2.923375,-3.457 1.743125,-0.9057500000000002 2.923375,-2.49275 2.923375,-3.454625 l 0.0,-32.629375 c 0.0,-1.416 -2.544,-2.566 -5.682125,-2.566 -3.1372500000000003,-0.0 -5.681250000000001,1.15 -5.681250000000001,2.566 l 0.0,32.629375 c 0.0,0.9668750000000002 1.185125,2.55125 2.9395,3.454625 z " id="outline17"/>
<path style="fill:none;stroke:#231f20;stroke-width:0.8;stroke-linecap:butt;stroke-linejoin:miter;stroke-miterlimit:4;stroke-opacity:1;stroke-dasharray:none;display:none" d="M 41.34575000000001,82.055 0.0,82.055 " id="centre17"/>
<text>
<tspan x="38.789500000000004 43.7919355" y="166.146775" id="label17" style="font-size:7.19543791px;font-variant:normal;font-weight:normal;writing-mode:lr-tb;fill:#211c1d;fill-opacity:1;fill-rule:nonzero;stroke:none;font-family:Helvetica;-inkscape-font-specification:Helvetica">17</tspan>
</text>
</g>
</svg>
