<?xml version="1.0" encoding="UTF-8"?>
<svg xmlns:xlink="http://www.w3.org/1999/xlink" xmlns="http://www.w3.org/2000/svg" contentScriptType="text/ecmascript" zoomAndPan="magnify" contentStyleType="text/css" preserveAspectRatio="xMidYMid meet" version="1.0">

<g id="chromosome17" title="Chromosome 17">
<path style="fill:#bbbcbd;fill-opacity:1;fill-rule:nonzero;stroke:none" id="17p13.2" d="m 38.796875,56.11262500000001 11.379400000000002,0.0 0.0,-2.8149375000000005 -11.379400000000002,-0.0 0.0,2.8149375000000005 z "/>
<path style="fill:none;stroke:#211c1d;stroke-width:0.1;stroke-linecap:butt;stroke-linejoin:miter;stroke-miterlimit:4;stroke-opacity:1;stroke-dasharray:none" id="17p13.2-o" d="m 38.796875,56.11262500000001 11.379400000000002,0.0 0.0,-2.8149375000000005 -11.379400000000002,-0.0 0.0,2.8149375000000005 z "/>
<path style="fill:#bbbcbd;fill-opacity:1;fill-rule:nonzero;stroke:none" id="17q12" d="m 38.796875,95.54125 11.379400000000002,0.0 0.0,-3.7182625000000002 -11.379400000000002,-0.0 0.0,3.7182625000000002 z "/>
<path style="fill:none;stroke:#211c1d;stroke-width:0.1;stroke-linecap:butt;stroke-linejoin:miter;stroke-miterlimit:4;stroke-opacity:1;stroke-dasharray:none" id="17q12-o" d="m 38.796875,95.54125 11.379400000000002,0.0 0.0,-3.7182625000000002 -11.379400000000002,-0.0 0.0,3.7182625000000002 z "/>
<path style="fill:#bbbcbd;fill-opacity:1;fill-rule:nonzero;stroke:none" id="17q24.1" d="m 38.796875,132.247875 11.379400000000002,0.0 0.0,-3.0371125000000005 -11.379400000000002,-0.0 0.0,3.0371125000000005 z "/>
<path style="fill:none;stroke:#211c1d;stroke-width:0.1;stroke-linecap:butt;stroke-linejoin:miter;stroke-miterlimit:4;stroke-opacity:1;stroke-dasharray:none" id="17q24.1-o" d="m 38.796875,132.247875 11.379400000000002,0.0 0.0,-3.0371125000000005 -11.379400000000002,-0.0 0.0,3.0371125000000005 z "/>
<path style="fill:#e9eae9;fill-opacity:1;fill-rule:nonzero;stroke:none" id="17q21.2" d="m 38.796875,103.244 11.379400000000002,0.0 0.0,-3.2666 -11.379400000000002,-0.0 0.0,3.2666 z "/>
<path style="fill:none;stroke:#211c1d;stroke-width:0.1;stroke-linecap:butt;stroke-linejoin:miter;stroke-miterlimit:4;stroke-opacity:1;stroke-dasharray:none" id="17q21.2-o" d="m 38.796875,103.244 11.379400000000002,0.0 0.0,-3.2666 -11.379400000000002,-0.0 0.0,3.2666 z "/>
<path style="fill:#e9eae9;fill-opacity:1;fill-rule:nonzero;stroke:none" id="17q21.32" d="m 38.796875,113.214625 11.379400000000002,0.0 0.0,-3.7207 -11.379400000000002,-0.0 0.0,3.7207 z "/>
<path style="fill:none;stroke:#211c1d;stroke-width:0.1;stroke-linecap:butt;stroke-linejoin:miter;stroke-miterlimit:4;stroke-opacity:1;stroke-dasharray:none" id="17q21.32-o" d="m 38.796875,113.214625 11.379400000000002,0.0 0.0,-3.7207 -11.379400000000002,-0.0 0.0,3.7207 z "/>
<path style="fill:#e9eae9;fill-opacity:1;fill-rule:nonzero;stroke:none" id="17q25.2" d="m 38.796875,147.65800000000002 11.379400000000002,0.0 0.0,-2.58545 -11.379400000000002,-0.0 0.0,2.58545 z "/>
<path style="fill:none;stroke:#211c1d;stroke-width:0.1;stroke-linecap:butt;stroke-linejoin:miter;stroke-miterlimit:4;stroke-opacity:1;stroke-dasharray:none" id="17q25.2-o" d="m 38.796875,147.65800000000002 11.379400000000002,0.0 0.0,-2.58545 -11.379400000000002,-0.0 0.0,2.58545 z "/>
<path style="fill:#7a7e82;fill-opacity:1;fill-rule:nonzero;stroke:none" id="17p12" d="m 38.796875,66.5545 11.379400000000002,0.0 0.0,-4.98535 -11.379400000000002,-0.0 0.0,4.98535 z "/>
<path style="fill:none;stroke:#211c1d;stroke-width:0.1;stroke-linecap:butt;stroke-linejoin:miter;stroke-miterlimit:4;stroke-opacity:1;stroke-dasharray:none" id="17p12-o" d="m 38.796875,66.5545 11.379400000000002,0.0 0.0,-4.98535 -11.379400000000002,-0.0 0.0,4.98535 z "/>
<path style="fill:#7a7e82;fill-opacity:1;fill-rule:nonzero;stroke:none" id="17q22" d="m 38.796875,121.390875 11.379400000000002,0.0 0.0,-4.7558625 -11.379400000000002,-0.0 0.0,4.7558625 z "/>
<path style="fill:none;stroke:#211c1d;stroke-width:0.1;stroke-linecap:butt;stroke-linejoin:miter;stroke-miterlimit:4;stroke-opacity:1;stroke-dasharray:none" id="17q22-o" d="m 38.796875,121.390875 11.379400000000002,0.0 0.0,-4.7558625 -11.379400000000002,-0.0 0.0,4.7558625 z "/>
<path style="fill:#7a7e82;fill-opacity:1;fill-rule:nonzero;stroke:none" id="17q23.2" d="m 38.796875,127.965625 11.379400000000002,0.0 0.0,-3.8549750000000005 -11.379400000000002,-0.0 0.0,3.8549750000000005 z "/>
<path style="fill:none;stroke:#211c1d;stroke-width:0.1;stroke-linecap:butt;stroke-linejoin:miter;stroke-miterlimit:4;stroke-opacity:1;stroke-dasharray:none" id="17q23.2-o" d="m 38.796875,127.965625 11.379400000000002,0.0 0.0,-3.8549750000000005 -11.379400000000002,-0.0 0.0,3.8549750000000005 z "/>
<path style="fill:#7a7e82;fill-opacity:1;fill-rule:nonzero;stroke:none" id="17q24.3" d="m 38.796875,139.52075000000002 11.379400000000002,0.0 0.0,-4.0795875 -11.379400000000002,-0.0 0.0,4.0795875 z "/>
<path style="fill:none;stroke:#211c1d;stroke-width:0.1;stroke-linecap:butt;stroke-linejoin:miter;stroke-miterlimit:4;stroke-opacity:1;stroke-dasharray:none" id="17q24.3-o" d="m 38.796875,139.52075000000002 11.379400000000002,0.0 0.0,-4.0795875 -11.379400000000002,-0.0 0.0,4.0795875 z "/>
<path style="fill:#fffafa;stroke:#211c1d;stroke-width:0.1;stroke-linecap:butt;stroke-linejoin:miter;stroke-miterlimit:4;stroke-opacity:1;stroke-dasharray:none" id="17q23.1" d="m 38.796875,124.11065 11.379400000000002,0.0 0,-2.7197750000000127 -11.379400000000002,-0.0 0,2.7197750000000127 z "/>
<path style="fill:#fffafa;stroke:#211c1d;stroke-width:0.1;stroke-linecap:butt;stroke-linejoin:miter;stroke-miterlimit:4;stroke-opacity:1;stroke-dasharray:none" id="17p13.1" d="m 38.796875,61.56915000000001 11.379400000000002,0.0 0,-5.456524999999999 -11.379400000000002,-0.0 0,5.456524999999999 z "/>
<path style="fill:#fffafa;stroke:#211c1d;stroke-width:0.1;stroke-linecap:butt;stroke-linejoin:miter;stroke-miterlimit:4;stroke-opacity:1;stroke-dasharray:none" id="17q21.33" d="m 38.796875,116.63501249999999 11.379400000000002,0.0 0,-3.4203874999999897 -11.379400000000002,-0.0 0,3.4203874999999897 z "/>
<path style="fill:#fffafa;stroke:#211c1d;stroke-width:0.1;stroke-linecap:butt;stroke-linejoin:miter;stroke-miterlimit:4;stroke-opacity:1;stroke-dasharray:none" id="17q23.3" d="m 38.796875,129.2107625 11.379400000000002,0.0 0,-1.2451374999999842 -11.379400000000002,-0.0 0,1.2451374999999842 z "/>
<path style="fill:#fffafa;stroke:#211c1d;stroke-width:0.1;stroke-linecap:butt;stroke-linejoin:miter;stroke-miterlimit:4;stroke-opacity:1;stroke-dasharray:none" id="17q25.3" d="m 38.796875,147.65800000000002 0.0,7 c 0.0,1.4135 2.544,2.5633750000000006 5.681250000000001,2.5633750000000006 3.1381250000000005,0.0 5.682125,-1.149875 5.682125,-2.5633750000000006  l 0.0,-7 -11.379400000000002,-0.0 z"/>
<path style="fill:#fffafa;stroke:#211c1d;stroke-width:0.1;stroke-linecap:butt;stroke-linejoin:miter;stroke-miterlimit:4;stroke-opacity:1;stroke-dasharray:none" id="17p11.2" d="m 38.796875,78.22437500000002 11.379400000000002,0.0 0,-11.669875000000019 -11.379400000000002,-0.0 0,11.669875000000019 z "/>
<path style="fill:#fffafa;stroke:#211c1d;stroke-width:0.1;stroke-linecap:butt;stroke-linejoin:miter;stroke-miterlimit:4;stroke-opacity:1;stroke-dasharray:none" id="17q25.1" d="m 38.796875,145.07255 11.379400000000002,0.0 0,-5.551799999999986 -11.379400000000002,-0.0 0,5.551799999999986 z "/>
<path style="fill:#fffafa;stroke:#211c1d;stroke-width:0.1;stroke-linecap:butt;stroke-linejoin:miter;stroke-miterlimit:4;stroke-opacity:1;stroke-dasharray:none" id="17q21.31" d="m 38.796875,109.493925 11.379400000000002,0.0 0,-6.249925000000005 -11.379400000000002,-0.0 0,6.249925000000005 z "/>
<path style="fill:#fffafa;stroke:#211c1d;stroke-width:0.1;stroke-linecap:butt;stroke-linejoin:miter;stroke-miterlimit:4;stroke-opacity:1;stroke-dasharray:none" id="17q21.1" d="m 38.796875,99.9774 11.379400000000002,0.0 0,-4.436149999999998 -11.379400000000002,-0.0 0,4.436149999999998 z "/>
<path style="fill:#fffafa;stroke:#211c1d;stroke-width:0.1;stroke-linecap:butt;stroke-linejoin:miter;stroke-miterlimit:4;stroke-opacity:1;stroke-dasharray:none" id="17q11.2" d="m 38.796875,91.82298750000001 11.379400000000002,0.0 0,-6.291487500000002 -11.379400000000002,-0.0 0,6.291487500000002 z "/>
<path style="fill:#fffafa;stroke:#211c1d;stroke-width:0.1;stroke-linecap:butt;stroke-linejoin:miter;stroke-miterlimit:4;stroke-opacity:1;stroke-dasharray:none" id="17q24.2" d="m 38.796875,135.44116250000002 11.379400000000002,0.0 0,-3.193287500000025 -11.379400000000002,-0.0 0,3.193287500000025 z "/>
<path style="fill:#fffafa;stroke:#211c1d;stroke-width:0.1;stroke-linecap:butt;stroke-linejoin:miter;stroke-miterlimit:4;stroke-opacity:1;stroke-dasharray:none" id="17p13.3" d="m 38.796875,53.2976875 11.379400000000002,0.0 0.0,-7 c 0.0,-1.416 -2.544,-2.566 -5.682125,-2.566 -3.1372500000000003,-0.0 -5.681250000000001,1.15 -5.681250000000001,2.566 l 0.0,7 z"/>
<path style="fill:#a4bdc8;fill-opacity:1;fill-rule:nonzero;stroke:none" id="centromere17-f" d="m 50.169,85.53150000000001 0.0,-0.056125 c 0.0,-0.9643750000000001 -1.18175,-2.548875 -2.924875,-3.457 1.743125,-0.9057500000000002 2.924875,-2.49275 2.924875,-3.454625 l 0.0,-0.33937500000000004 -11.36475,-0.0 0.0,0.33937500000000004 c 0.0,0.9668750000000002 1.1865,2.55125 2.940875,3.454625 -1.7543750000000002,0.9057500000000002 -2.940875,2.49025 -2.940875,3.457 l 0.0,0.056125 11.36475,0.0 "/>
<path style="fill:none;stroke:#100f0d;stroke-width:0.8;stroke-linecap:butt;stroke-linejoin:miter;stroke-miterlimit:4;stroke-opacity:1;stroke-dasharray:none" id="centromere17-o" d="m 50.169,85.53150000000001 0.0,-0.056125 c 0.0,-0.9643750000000001 -1.18175,-2.548875 -2.924875,-3.457 1.743125,-0.9057500000000002 2.924875,-2.49275 2.924875,-3.454625 l 0.0,-0.33937500000000004 -11.36475,-0.0 0.0,0.33937500000000004 c 0.0,0.9668750000000002 1.1865,2.55125 2.940875,3.454625 -1.7543750000000002,0.9057500000000002 -2.940875,2.49025 -2.940875,3.457 l 0.0,0.056125 11.36475,0.0 z "/>
<path style="fill:none;stroke:#211c1d;stroke-width:0.8;stroke-linecap:butt;stroke-linejoin:miter;stroke-miterlimit:4;stroke-opacity:1;stroke-dasharray:none" id="outline17" d="m 41.745125,82.01837499999999 c -1.7543750000000002,0.9057500000000002 -2.9395,2.49025 -2.9395,3.457 l 0.0,69.455625 c 0.0,1.4135 2.544,2.5633750000000006 5.681250000000001,2.5633750000000006 3.1381250000000005,0.0 5.682125,-1.149875 5.682125,-2.5633750000000006 l 0.0,-69.455625 c 0.0,-0.9643750000000001 -1.18025,-2.548875 -2.923375,-3.457 1.743125,-0.9057500000000002 2.923375,-2.49275 2.923375,-3.454625 l 0.0,-32.629375 c 0.0,-1.416 -2.544,-2.566 -5.682125,-2.566 -3.1372500000000003,-0.0 -5.681250000000001,1.15 -5.681250000000001,2.566 l 0.0,32.629375 c 0.0,0.9668750000000002 1.185125,2.55125 2.9395,3.454625 z "/>
<path style="fill:none;stroke:#231f20;stroke-width:0.8;stroke-linecap:butt;stroke-linejoin:miter;stroke-miterlimit:4;stroke-opacity:1;stroke-dasharray:none;display:none" id="centre17" d="M 41.34575000000001,82.055 0.0,82.055 "/>
<text>
<tspan x="38.789500000000004 43.7919355" y="166.146775" id="label17" style="font-size:7.19543791px;font-variant:normal;font-weight:normal;writing-mode:lr-tb;fill:#211c1d;fill-opacity:1;fill-rule:nonzero;stroke:none;font-family:Helvetica;-inkscape-font-specification:Helvetica">17</tspan>
</text>
</g>
</svg>
