<?xml version="1.0" encoding="UTF-8"?>
<svg xmlns:xlink="http://www.w3.org/1999/xlink" xmlns="http://www.w3.org/2000/svg" contentScriptType="text/ecmascript" zoomAndPan="magnify" contentStyleType="text/css" preserveAspectRatio="xMidYMid meet" version="1.0">
<g id="chromosome18">
<path style="fill:#a4bdc8;fill-opacity:1;fill-rule:nonzero;stroke:none" d="m 50.16937500000001,87.39925 0.0,-1.92375 c 0.0,-0.9643750000000001 -1.17675,-2.548875 -2.920875,-3.4571250000000004 1.744125,-0.9057500000000002 2.920875,-2.490125 2.920875,-3.4545000000000003 l 0.0,-1.3598750000000002 -11.36325,-0.0 0.0,1.3598750000000002 c 0.0,0.9667500000000001 1.1875,2.55125 2.942875,3.4545000000000003 -1.7553750000000001,0.905875 -2.942875,2.49025 -2.942875,3.4571250000000004 l 0.0,1.92375 11.36325,0.0 " id="centromere18-f"/>
<path style="fill:none;stroke:#100f0d;stroke-width:0.8;stroke-linecap:butt;stroke-linejoin:miter;stroke-miterlimit:4;stroke-opacity:1;stroke-dasharray:none" d="m 50.16937500000001,87.39925 0.0,-1.92375 c 0.0,-0.9643750000000001 -1.17675,-2.548875 -2.920875,-3.4571250000000004 1.744125,-0.9057500000000002 2.920875,-2.490125 2.920875,-3.4545000000000003 l 0.0,-1.3598750000000002 -11.36325,-0.0 0.0,1.3598750000000002 c 0.0,0.9667500000000001 1.1875,2.55125 2.942875,3.4545000000000003 -1.7553750000000001,0.905875 -2.942875,2.49025 -2.942875,3.4571250000000004 l 0.0,1.92375 11.36325,0.0 z " id="centromere18-o"/>
<path style="fill:#211c1d;fill-opacity:1;fill-rule:nonzero;stroke:none" d="m 38.79975,101.051625 11.3798875,0.0 0.0,-7.985837500000001 -11.3798875,-0.0 0.0,7.985837500000001 z " id="18q12.1"/>
<path style="fill:#7a7e82;fill-opacity:1;fill-rule:nonzero;stroke:none" d="m 38.79975,111.27874999999999 11.3798875,0.0 0.0,-6.428225000000001 -11.3798875,-0.0 0.0,6.428225000000001 z " id="18q12.3"/>
<path style="fill:none;stroke:#211c1d;stroke-width:0.1;stroke-linecap:butt;stroke-linejoin:miter;stroke-miterlimit:4;stroke-opacity:1;stroke-dasharray:none" d="m 38.79975,111.27874999999999 11.3798875,0.0 0.0,-6.428225000000001 -11.3798875,-0.0 0.0,6.428225000000001 z " id="18q12.3-o"/>
<path style="fill:#7a7e82;fill-opacity:1;fill-rule:nonzero;stroke:none" d="m 38.79975,123.7225 11.3798875,0.0 0.0,-4.824225 -11.3798875,-0.0 0.0,4.824225 z " id="18q21.2"/>
<path style="fill:none;stroke:#211c1d;stroke-width:0.1;stroke-linecap:butt;stroke-linejoin:miter;stroke-miterlimit:4;stroke-opacity:1;stroke-dasharray:none" d="m 38.79975,123.7225 11.3798875,0.0 0.0,-4.824225 -11.3798875,-0.0 0.0,4.824225 z " id="18q21.2-o"/>
<path style="fill:#bbbcbd;fill-opacity:1;fill-rule:nonzero;stroke:none" d="m 38.79975,65.19474999999997 11.3798875,0.0 0.0,-5.212400000000001 -11.3798875,-0.0 0.0,5.212400000000001 z " id="18p11.31"/>
<path style="fill:none;stroke:#211c1d;stroke-width:0.1;stroke-linecap:butt;stroke-linejoin:miter;stroke-miterlimit:4;stroke-opacity:1;stroke-dasharray:none" d="m 38.79975,65.19474999999997 11.3798875,0.0 0.0,-5.212400000000001 -11.3798875,-0.0 0.0,5.212400000000001 z " id="18p11.31-o"/>
<path style="fill:#bbbcbd;fill-opacity:1;fill-rule:nonzero;stroke:none" d="m 38.79975,128.90812499999998 11.3798875,0.0 0.0,-2.7587875 -11.3798875,-0.0 0.0,2.7587875 z " id="18q21.32"/>
<path style="fill:none;stroke:#211c1d;stroke-width:0.1;stroke-linecap:butt;stroke-linejoin:miter;stroke-miterlimit:4;stroke-opacity:1;stroke-dasharray:none" d="m 38.79975,128.90812499999998 11.3798875,0.0 0.0,-2.7587875 -11.3798875,-0.0 0.0,2.7587875 z " id="18q21.32-o"/>
<path style="fill:#211c1d;fill-opacity:1;fill-rule:nonzero;stroke:none" d="m 38.79975,137.11362499999998 11.3798875,0.0 0.0,-6.4331000000000005 -11.3798875,-0.0 0.0,6.4331000000000005 z " id="18q22.1"/>
<path style="fill:#e9eae9;fill-opacity:1;fill-rule:nonzero;stroke:none" d="m 38.79975,70.27287499999997 11.3798875,0.0 0.0,-3.03955 -11.3798875,-0.0 0.0,3.03955 z " id="18p11.22"/>
<path style="fill:none;stroke:#211c1d;stroke-width:0.1;stroke-linecap:butt;stroke-linejoin:miter;stroke-miterlimit:4;stroke-opacity:1;stroke-dasharray:none" d="m 38.79975,70.27287499999997 11.3798875,0.0 0.0,-3.03955 -11.3798875,-0.0 0.0,3.03955 z " id="18p11.22-o"/>
<path style="fill:#e9eae9;fill-opacity:1;fill-rule:nonzero;stroke:none" d="m 38.79975,143.8275 11.3798875,0.0 0.0,-4.082025 -11.3798875,-0.0 0.0,4.082025 z " id="18q22.3"/>
<path style="fill:none;stroke:#211c1d;stroke-width:0.1;stroke-linecap:butt;stroke-linejoin:miter;stroke-miterlimit:4;stroke-opacity:1;stroke-dasharray:none" d="m 38.79975,143.8275 11.3798875,0.0 0.0,-4.082025 -11.3798875,-0.0 0.0,4.082025 z " id="18q22.3-o"/>
<path style="fill:none;stroke:#211c1d;stroke-width:0.8;stroke-linecap:butt;stroke-linejoin:miter;stroke-miterlimit:4;stroke-opacity:1;stroke-dasharray:none" d="m 41.749,82.01837499999999 c -1.7553750000000001,0.905875 -2.941375,2.49025 -2.941375,3.4571250000000004 l 0.0,60.390625 c 0.0,1.4135 2.543875,2.5635000000000003 5.683625,2.5635000000000003 3.136625,0.0 5.678125,-1.15 5.678125,-2.5635000000000003 l 0.0,-60.390625 c 0.0,-0.9643750000000001 -1.17675,-2.548875 -2.919875,-3.4571250000000004 1.743125,-0.9057500000000002 2.919875,-2.490125 2.919875,-3.4545000000000003 l 0.0,-19.48975 c 0.0,-1.416 -2.5415000000000005,-2.561125 -5.678125,-2.561125 -3.1397500000000003,-0.0 -5.683625,1.145125 -5.683625,2.561125 l 0.0,19.48975 c 0.0,0.9667500000000001 1.186,2.55125 2.941375,3.4545000000000003 z " id="outline18"/>
<path style="fill:none;stroke:#231f20;stroke-width:0.8;stroke-linecap:butt;stroke-linejoin:miter;stroke-miterlimit:4;stroke-opacity:1;stroke-dasharray:none;display:none" d="M 41.349125,82.05499999999998 0.0,82.05499999999998 " id="centre18"/>
<text>
<tspan x="38.793 43.7954355" y="157.0819125" id="label18" style="font-size:7.19543791px;font-variant:normal;font-weight:normal;writing-mode:lr-tb;fill:#211c1d;fill-opacity:1;fill-rule:nonzero;stroke:none;font-family:Helvetica;-inkscape-font-specification:Helvetica">18</tspan>
</text>
</g>
</svg>
