<?xml version="1.0" encoding="UTF-8" standalone="no"?>
<!-- Created with Inkscape (http://www.inkscape.org/) -->

<svg
   xmlns:dc="http://purl.org/dc/elements/1.1/"
   xmlns:cc="http://creativecommons.org/ns#"
   xmlns:rdf="http://www.w3.org/1999/02/22-rdf-syntax-ns#"
   xmlns:svg="http://www.w3.org/2000/svg"
   xmlns="http://www.w3.org/2000/svg"
   version="1.1"
   width="50.487499"
   height="105.225"
   id="svg3363"
   xml:space="preserve"><metadata
     id="metadata3369"><rdf:RDF><cc:Work
         rdf:about=""><dc:format>image/svg+xml</dc:format><dc:type
           rdf:resource="http://purl.org/dc/dcmitype/StillImage" /><dc:title></dc:title></cc:Work></rdf:RDF></metadata><defs
     id="defs3367"><clipPath
       id="clipPath3379"><path
         d="M 0,841.797 0,0 l 403.855,0 0,841.797 -403.855,0 z"
         id="path3381" /></clipPath></defs><g
     transform="matrix(1.25,0,0,-1.25,0,105.225)"
     id="g3371"><g
       transform="scale(0.1,0.1)"
       id="g3373"><g
         id="g3375"><g
           clip-path="url(#clipPath3379)"
           id="g3377"><path
             d="m 401.355,588.848 0,15.39 c 0,7.715 -9.414,20.391 -23.367,27.657 13.953,7.246 23.367,19.921 23.367,27.636 l 0,10.879 -90.906,0 0,-10.879 c 0,-7.734 9.5,-20.41 23.543,-27.636 -14.043,-7.247 -23.543,-19.922 -23.543,-27.657 l 0,-15.39 90.906,0"
             id="path3383"
             style="fill:#a4bdc8;fill-opacity:1;fill-rule:nonzero;stroke:none" /><path
             d="m 401.355,588.848 0,15.39 c 0,7.715 -9.414,20.391 -23.367,27.657 13.953,7.246 23.367,19.921 23.367,27.636 l 0,10.879 -90.906,0 0,-10.879 c 0,-7.734 9.5,-20.41 23.543,-27.636 -14.043,-7.247 -23.543,-19.922 -23.543,-27.657 l 0,-15.39 90.906,0 z"
             id="path3385"
             style="fill:none;stroke:#100f0d;stroke-width:5;stroke-linecap:butt;stroke-linejoin:miter;stroke-miterlimit:4;stroke-opacity:1;stroke-dasharray:none" /><path
             d="m 310.398,479.629 91.0391,0 0,63.8867 -91.0391,0 0,-63.8867 z"
             id="path3387"
             style="fill:#211c1d;fill-opacity:1;fill-rule:nonzero;stroke:none" /><path
             d="m 310.398,397.812 91.0391,0 0,51.4258 -91.0391,0 0,-51.4258 z"
             id="path3389"
             style="fill:#7a7e82;fill-opacity:1;fill-rule:nonzero;stroke:none" /><path
             d="m 310.398,397.812 91.0391,0 0,51.4258 -91.0391,0 0,-51.4258 z"
             id="path3391"
             style="fill:none;stroke:#211c1d;stroke-width:0.62;stroke-linecap:butt;stroke-linejoin:miter;stroke-miterlimit:4;stroke-opacity:1;stroke-dasharray:none" /><path
             d="m 310.398,298.262 91.0391,0 0,38.5938 -91.0391,0 0,-38.5938 z"
             id="path3393"
             style="fill:#7a7e82;fill-opacity:1;fill-rule:nonzero;stroke:none" /><path
             d="m 310.398,298.262 91.0391,0 0,38.5938 -91.0391,0 0,-38.5938 z"
             id="path3395"
             style="fill:none;stroke:#211c1d;stroke-width:0.62;stroke-linecap:butt;stroke-linejoin:miter;stroke-miterlimit:4;stroke-opacity:1;stroke-dasharray:none" /><path
             d="m 310.398,766.484 91.0391,0 0,41.6992 -91.0391,0 0,-41.6992 z"
             id="path3397"
             style="fill:#bbbcbd;fill-opacity:1;fill-rule:nonzero;stroke:none" /><path
             d="m 310.398,766.484 91.0391,0 0,41.6992 -91.0391,0 0,-41.6992 z"
             id="path3399"
             style="fill:none;stroke:#211c1d;stroke-width:0.62;stroke-linecap:butt;stroke-linejoin:miter;stroke-miterlimit:4;stroke-opacity:1;stroke-dasharray:none" /><path
             d="m 310.398,256.777 91.0391,0 0,22.0703 -91.0391,0 0,-22.0703 z"
             id="path3401"
             style="fill:#bbbcbd;fill-opacity:1;fill-rule:nonzero;stroke:none" /><path
             d="m 310.398,256.777 91.0391,0 0,22.0703 -91.0391,0 0,-22.0703 z"
             id="path3403"
             style="fill:none;stroke:#211c1d;stroke-width:0.62;stroke-linecap:butt;stroke-linejoin:miter;stroke-miterlimit:4;stroke-opacity:1;stroke-dasharray:none" /><path
             d="m 310.398,191.133 91.0391,0 0,51.4648 -91.0391,0 0,-51.4648 z"
             id="path3405"
             style="fill:#211c1d;fill-opacity:1;fill-rule:nonzero;stroke:none" /><path
             d="m 310.398,725.859 91.0391,0 0,24.3164 -91.0391,0 0,-24.3164 z"
             id="path3407"
             style="fill:#e9eae9;fill-opacity:1;fill-rule:nonzero;stroke:none" /><path
             d="m 310.398,725.859 91.0391,0 0,24.3164 -91.0391,0 0,-24.3164 z"
             id="path3409"
             style="fill:none;stroke:#211c1d;stroke-width:0.62;stroke-linecap:butt;stroke-linejoin:miter;stroke-miterlimit:4;stroke-opacity:1;stroke-dasharray:none" /><path
             d="m 310.398,137.422 91.0391,0 0,32.6562 -91.0391,0 0,-32.6562 z"
             id="path3411"
             style="fill:#e9eae9;fill-opacity:1;fill-rule:nonzero;stroke:none" /><path
             d="m 310.398,137.422 91.0391,0 0,32.6562 -91.0391,0 0,-32.6562 z"
             id="path3413"
             style="fill:none;stroke:#211c1d;stroke-width:0.62;stroke-linecap:butt;stroke-linejoin:miter;stroke-miterlimit:4;stroke-opacity:1;stroke-dasharray:none" /><path
             d="m 333.992,631.895 c -14.043,-7.247 -23.531,-19.922 -23.531,-27.657 l 0,-483.125 c 0,-11.308 20.351,-20.508 45.469,-20.508 25.093,0 45.425,9.2 45.425,20.508 l 0,483.125 c 0,7.715 -9.414,20.391 -23.359,27.657 13.945,7.246 23.359,19.921 23.359,27.636 l 0,155.918 c 0,11.328 -20.332,20.489 -45.425,20.489 -25.118,0 -45.469,-9.161 -45.469,-20.489 l 0,-155.918 c 0,-7.734 9.488,-20.41 23.531,-27.636 z"
             id="path3415"
             style="fill:none;stroke:#211c1d;stroke-width:5;stroke-linecap:butt;stroke-linejoin:miter;stroke-miterlimit:4;stroke-opacity:1;stroke-dasharray:none" /><g
             transform="scale(10,10)"
             id="g3417"><text
               transform="matrix(1,0,0,-0.90697189,31.0344,3.13867)"
               id="text3419"><tspan
                 x="0 4.0019484"
                 y="0"
                 id="tspan3421"
                 style="font-size:7.19543791px;font-variant:normal;font-weight:normal;writing-mode:lr-tb;fill:#211c1d;fill-opacity:1;fill-rule:nonzero;stroke:none;font-family:Helvetica;-inkscape-font-specification:Helvetica">18</tspan></text>
</g><path
             d="M 330.793,631.602 0,631.602"
             id="path3423"
             style="fill:none;stroke:#231f20;stroke-width:5;stroke-linecap:butt;stroke-linejoin:miter;stroke-miterlimit:4;stroke-opacity:1;stroke-dasharray:none" /><g
             transform="scale(10,10)"
             id="g3425"><text
               transform="matrix(1,0,0,-0.90698012,20.8445,81.3781)"
               id="text3427"><tspan
                 x="0 1.7353495 3.7363286 4.7358398 6.7368221"
                 y="0"
                 id="tspan3429"
                 style="font-size:3.59771943px;font-variant:normal;font-weight:normal;writing-mode:lr-tb;fill:#231f20;fill-opacity:1;fill-rule:nonzero;stroke:none;font-family:Helvetica;-inkscape-font-specification:Helvetica">11.32</tspan><tspan
                 x="0 1.7353495 3.7363286 4.7358398 6.7368221"
                 y="3.99893"
                 id="tspan3431"
                 style="font-size:3.59771943px;font-variant:normal;font-weight:normal;writing-mode:lr-tb;fill:#231f20;fill-opacity:1;fill-rule:nonzero;stroke:none;font-family:Helvetica;-inkscape-font-specification:Helvetica">11.31</tspan><tspan
                 x="-9.7949228 -8.0595732 -6.0585942 -5.0590825 -3.0581021"
                 y="7.196784"
                 id="tspan3433"
                 style="font-size:3.59771943px;font-variant:normal;font-weight:normal;writing-mode:lr-tb;fill:#231f20;fill-opacity:1;fill-rule:nonzero;stroke:none;font-family:Helvetica;-inkscape-font-specification:Helvetica">11.23</tspan><tspan
                 x="0 1.7353495 3.7363286 4.7358398 6.7368221"
                 y="9.5935621"
                 id="tspan3435"
                 style="font-size:3.59771943px;font-variant:normal;font-weight:normal;writing-mode:lr-tb;fill:#231f20;fill-opacity:1;fill-rule:nonzero;stroke:none;font-family:Helvetica;-inkscape-font-specification:Helvetica">11.22</tspan><tspan
                 x="0 1.7353495 3.7363286 4.7358398 6.7368221"
                 y="14.090375"
                 id="tspan3437"
                 style="font-size:3.59771943px;font-variant:normal;font-weight:normal;writing-mode:lr-tb;fill:#231f20;fill-opacity:1;fill-rule:nonzero;stroke:none;font-family:Helvetica;-inkscape-font-specification:Helvetica">11.21</tspan><tspan
                 x="2.0011685 3.7365179 5.7375002 6.7370129"
                 y="19.08592"
                 id="tspan3439"
                 style="font-size:3.59771943px;font-variant:normal;font-weight:normal;writing-mode:lr-tb;fill:#231f20;fill-opacity:1;fill-rule:nonzero;stroke:none;font-family:Helvetica;-inkscape-font-specification:Helvetica">11.1</tspan><tspan
                 x="2.0011685 3.7365179 5.7375002 6.7370129"
                 y="24.084045"
                 id="tspan3441"
                 style="font-size:3.59771943px;font-variant:normal;font-weight:normal;writing-mode:lr-tb;fill:#231f20;fill-opacity:1;fill-rule:nonzero;stroke:none;font-family:Helvetica;-inkscape-font-specification:Helvetica">11.1</tspan><tspan
                 x="2.0011685 3.7365179 5.7375002 6.7370129"
                 y="28.382309"
                 id="tspan3443"
                 style="font-size:3.59771943px;font-variant:normal;font-weight:normal;writing-mode:lr-tb;fill:#231f20;fill-opacity:1;fill-rule:nonzero;stroke:none;font-family:Helvetica;-inkscape-font-specification:Helvetica">11.2</tspan></text>
</g><path
             d="m 202.871,758.477 110.945,0"
             id="path3445"
             style="fill:none;stroke:#231f20;stroke-width:1.82598996;stroke-linecap:butt;stroke-linejoin:miter;stroke-miterlimit:4;stroke-opacity:1;stroke-dasharray:none" /><g
             transform="scale(10,10)"
             id="g3447"><text
               transform="matrix(1,0,0,-0.90698012,22.5805,50.0148)"
               id="text3449"><tspan
                 x="0 2.0003321 4.0006642 5.0008302"
                 y="0"
                 id="tspan3451"
                 style="font-size:3.59771943px;font-variant:normal;font-weight:normal;writing-mode:lr-tb;fill:#231f20;fill-opacity:1;fill-rule:nonzero;stroke:none;font-family:Helvetica;-inkscape-font-specification:Helvetica">12.1</tspan><tspan
                 x="0 2.0003321 4.0006642 5.0008302"
                 y="5.0933089"
                 id="tspan3453"
                 style="font-size:3.59771943px;font-variant:normal;font-weight:normal;writing-mode:lr-tb;fill:#231f20;fill-opacity:1;fill-rule:nonzero;stroke:none;font-family:Helvetica;-inkscape-font-specification:Helvetica">12.2</tspan><tspan
                 x="0 2.0003321 4.0006642 5.0008302"
                 y="9.6947765"
                 id="tspan3455"
                 style="font-size:3.59771943px;font-variant:normal;font-weight:normal;writing-mode:lr-tb;fill:#231f20;fill-opacity:1;fill-rule:nonzero;stroke:none;font-family:Helvetica;-inkscape-font-specification:Helvetica">12.3</tspan><tspan
                 x="0 2.0003321 4.0006642 5.0008302"
                 y="15.888066"
                 id="tspan3457"
                 style="font-size:3.59771943px;font-variant:normal;font-weight:normal;writing-mode:lr-tb;fill:#231f20;fill-opacity:1;fill-rule:nonzero;stroke:none;font-family:Helvetica;-inkscape-font-specification:Helvetica">21.1</tspan><tspan
                 x="0 2.0003321 4.0006642 5.0008302"
                 y="21.284578"
                 id="tspan3459"
                 style="font-size:3.59771943px;font-variant:normal;font-weight:normal;writing-mode:lr-tb;fill:#231f20;fill-opacity:1;fill-rule:nonzero;stroke:none;font-family:Helvetica;-inkscape-font-specification:Helvetica">21.2</tspan><tspan
                 x="-2.0007825 -0.00045055 1.9998815 3.0000474 5.0011697"
                 y="24.583649"
                 id="tspan3461"
                 style="font-size:3.59771943px;font-variant:normal;font-weight:normal;writing-mode:lr-tb;fill:#231f20;fill-opacity:1;fill-rule:nonzero;stroke:none;font-family:Helvetica;-inkscape-font-specification:Helvetica">21.31</tspan><tspan
                 x="-12.0957 -10.095368 -8.0950365 -7.0948706 -5.0937481"
                 y="26.681522"
                 id="tspan3463"
                 style="font-size:3.59771943px;font-variant:normal;font-weight:normal;writing-mode:lr-tb;fill:#231f20;fill-opacity:1;fill-rule:nonzero;stroke:none;font-family:Helvetica;-inkscape-font-specification:Helvetica">21.32</tspan><tspan
                 x="-2.0007825 -0.00045055 1.9998815 3.0000474 5.0011697"
                 y="28.679913"
                 id="tspan3465"
                 style="font-size:3.59771943px;font-variant:normal;font-weight:normal;writing-mode:lr-tb;fill:#231f20;fill-opacity:1;fill-rule:nonzero;stroke:none;font-family:Helvetica;-inkscape-font-specification:Helvetica">21.33</tspan><tspan
                 x="0 2.0003321 4.0006642 5.0008302"
                 y="32.379089"
                 id="tspan3467"
                 style="font-size:3.59771943px;font-variant:normal;font-weight:normal;writing-mode:lr-tb;fill:#231f20;fill-opacity:1;fill-rule:nonzero;stroke:none;font-family:Helvetica;-inkscape-font-specification:Helvetica">22.1</tspan><tspan
                 x="0 2.0003321 4.0006642 5.0008302"
                 y="36.374149"
                 id="tspan3469"
                 style="font-size:3.59771943px;font-variant:normal;font-weight:normal;writing-mode:lr-tb;fill:#231f20;fill-opacity:1;fill-rule:nonzero;stroke:none;font-family:Helvetica;-inkscape-font-specification:Helvetica">22.2</tspan><tspan
                 x="0 2.0003321 4.0006642 5.0008302"
                 y="39.472519"
                 id="tspan3471"
                 style="font-size:3.59771943px;font-variant:normal;font-weight:normal;writing-mode:lr-tb;fill:#231f20;fill-opacity:1;fill-rule:nonzero;stroke:none;font-family:Helvetica;-inkscape-font-specification:Helvetica">22.3</tspan><tspan
                 x="2.9999995 5.0009785"
                 y="43.070911"
                 id="tspan3473"
                 style="font-size:3.59771943px;font-variant:normal;font-weight:normal;writing-mode:lr-tb;fill:#231f20;fill-opacity:1;fill-rule:nonzero;stroke:none;font-family:Helvetica;-inkscape-font-specification:Helvetica">23</tspan></text>
</g><path
             d="m 202.871,268.125 110.945,0"
             id="path3475"
             style="fill:none;stroke:#231f20;stroke-width:1.82598996;stroke-linecap:butt;stroke-linejoin:miter;stroke-miterlimit:4;stroke-opacity:1;stroke-dasharray:none" /></g></g></g></g></svg>