<?xml version="1.0" encoding="UTF-8"?>
<svg xmlns:xlink="http://www.w3.org/1999/xlink" xmlns="http://www.w3.org/2000/svg" contentScriptType="text/ecmascript" zoomAndPan="magnify" contentStyleType="text/css" preserveAspectRatio="xMidYMid meet" version="1.0">
<g>
<path style="fill:#a4bdc8;fill-opacity:1;fill-rule:nonzero;stroke:none" d="m 45.17575,40.767999999999994 0.0,-0.05425 c 0.0,-0.869125 -1.064375,-2.294375 -2.6367500000000006,-3.1122500000000004 1.5723750000000003,-0.820875 2.6367500000000006,-2.246625 2.6367500000000006,-3.11825 l 0.0,-0.50725 -10.244125000000002,-0.0 0.0,0.50725 c 0.0,0.8745000000000002 1.07175,2.30225 2.651375,3.11825 -1.579625,0.813 -2.651375,2.24075 -2.651375,3.1122500000000004 l 0.0,0.05425 10.244125000000002,0.0 " id="path22"/>
<path style="fill:none;stroke:#100f0d;stroke-width:0.8;stroke-linecap:butt;stroke-linejoin:miter;stroke-miterlimit:4;stroke-opacity:1;stroke-dasharray:none" d="m 45.17575,40.767999999999994 0.0,-0.05425 c 0.0,-0.869125 -1.064375,-2.294375 -2.6367500000000006,-3.1122500000000004 1.5723750000000003,-0.820875 2.6367500000000006,-2.246625 2.6367500000000006,-3.11825 l 0.0,-0.50725 -10.244125000000002,-0.0 0.0,0.50725 c 0.0,0.8745000000000002 1.07175,2.30225 2.651375,3.11825 -1.579625,0.813 -2.651375,2.24075 -2.651375,3.1122500000000004 l 0.0,0.05425 10.244125000000002,0.0 z " id="path24"/>
<path style="fill:#c4cdf2;fill-opacity:1;fill-rule:nonzero;stroke:none" d="m 34.924375,34.077999999999996 10.258787500000002,0.0 0.0,-4.2890625 -10.258787500000002,-0.0 0.0,4.2890625 z " id="path86"/>
<path style="fill:none;stroke:#211c1d;stroke-width:0.1;stroke-linecap:butt;stroke-linejoin:miter;stroke-miterlimit:4;stroke-opacity:1;stroke-dasharray:none" d="m 34.924375,34.077999999999996 10.258787500000002,0.0 0.0,-4.2890625 -10.258787500000002,-0.0 0.0,4.2890625 z " id="path88"/>
<path style="fill:#c4cdf2;fill-opacity:1;fill-rule:nonzero;stroke:none" d="m 34.924375,44.69812499999999 10.258787500000002,0.0 0.0,-3.8837875 -10.258787500000002,-0.0 0.0,3.8837875 z " id="path144"/>
<path style="fill:none;stroke:#211c1d;stroke-width:0.1;stroke-linecap:butt;stroke-linejoin:miter;stroke-miterlimit:4;stroke-opacity:1;stroke-dasharray:none" d="m 34.924375,44.69812499999999 10.258787500000002,0.0 0.0,-3.8837875 -10.258787500000002,-0.0 0.0,3.8837875 z " id="path146"/>
<path style="fill:#e9eae9;fill-opacity:1;fill-rule:nonzero;stroke:none" d="m 34.924375,23.25337499999999 10.258787500000002,0.0 0.0,-3.4721625 -10.258787500000002,-0.0 0.0,3.4721625 z " id="path148"/>
<path style="fill:none;stroke:#211c1d;stroke-width:0.1;stroke-linecap:butt;stroke-linejoin:miter;stroke-miterlimit:4;stroke-opacity:1;stroke-dasharray:none" d="m 34.924375,23.25337499999999 10.258787500000002,0.0 0.0,-3.4721625 -10.258787500000002,-0.0 0.0,3.4721625 z " id="path150"/>
<path style="fill:#e9eae9;fill-opacity:1;fill-rule:nonzero;stroke:none" d="m 34.924375,16.7025 10.258787500000002,0.0 0.0,-5.3974625 -10.258787500000002,-0.0 0.0,5.3974625 z " id="path152"/>
<path style="fill:none;stroke:#211c1d;stroke-width:0.1;stroke-linecap:butt;stroke-linejoin:miter;stroke-miterlimit:4;stroke-opacity:1;stroke-dasharray:none" d="m 34.924375,16.7025 10.258787500000002,0.0 0.0,-5.3974625 -10.258787500000002,-0.0 0.0,5.3974625 z " id="path154"/>
<path style="fill:#e9eae9;fill-opacity:1;fill-rule:nonzero;stroke:none" d="m 34.924375,71.040875 10.258787500000002,0.0 0.0,-2.448725 -10.258787500000002,-0.0 0.0,2.448725 z " id="path156"/>
<path style="fill:none;stroke:#211c1d;stroke-width:0.1;stroke-linecap:butt;stroke-linejoin:miter;stroke-miterlimit:4;stroke-opacity:1;stroke-dasharray:none" d="m 34.924375,71.040875 10.258787500000002,0.0 0.0,-2.448725 -10.258787500000002,-0.0 0.0,2.448725 z " id="path158"/>
<path style="fill:#e9eae9;fill-opacity:1;fill-rule:nonzero;stroke:none" d="m 34.924375,63.69037499999999 10.258787500000002,0.0 0.0,-3.6748000000000003 -10.258787500000002,-0.0 0.0,3.6748000000000003 z " id="path160"/>
<path style="fill:none;stroke:#211c1d;stroke-width:0.1;stroke-linecap:butt;stroke-linejoin:miter;stroke-miterlimit:4;stroke-opacity:1;stroke-dasharray:none" d="m 34.924375,63.69037499999999 10.258787500000002,0.0 0.0,-3.6748000000000003 -10.258787500000002,-0.0 0.0,3.6748000000000003 z " id="path162"/>
<path style="fill:#e9eae9;fill-opacity:1;fill-rule:nonzero;stroke:none" d="m 34.924375,58.379749999999994 10.258787500000002,0.0 0.0,-2.8588875 -10.258787500000002,-0.0 0.0,2.8588875 z " id="path164"/>
<path style="fill:none;stroke:#211c1d;stroke-width:0.1;stroke-linecap:butt;stroke-linejoin:miter;stroke-miterlimit:4;stroke-opacity:1;stroke-dasharray:none" d="m 34.924375,58.379749999999994 10.258787500000002,0.0 0.0,-2.8588875 -10.258787500000002,-0.0 0.0,2.8588875 z " id="path166"/>
<path style="fill:#e9eae9;fill-opacity:1;fill-rule:nonzero;stroke:none" d="m 34.924375,51.64149999999999 10.258787500000002,0.0 0.0,-3.2685500000000003 -10.258787500000002,-0.0 0.0,3.2685500000000003 z " id="path168"/>
<path style="fill:none;stroke:#211c1d;stroke-width:0.1;stroke-linecap:butt;stroke-linejoin:miter;stroke-miterlimit:4;stroke-opacity:1;stroke-dasharray:none" d="m 34.924375,51.64149999999999 10.258787500000002,0.0 0.0,-3.2685500000000003 -10.258787500000002,-0.0 0.0,3.2685500000000003 z " id="path170"/>
<path style="fill:#e9eae9;fill-opacity:1;fill-rule:nonzero;stroke:none" d="m 34.931625,73.87537499999999 0.0,1.254875 c 0.0,1.2745000000000002 2.2925,2.30715 5.121125000000001,2.30715 2.829625,0.0 5.123000000000001,-1.03265 5.123000000000001,-2.30715 l 0.0,-1.254875 -10.244125000000002,-0.0 " id="path172"/>
<path style="fill:none;stroke:#211c1d;stroke-width:0.1;stroke-linecap:butt;stroke-linejoin:miter;stroke-miterlimit:4;stroke-opacity:1;stroke-dasharray:none" d="m 34.931625,73.87537499999999 0.0,1.254875 c 0.0,1.2745000000000002 2.2925,2.30715 5.121125000000001,2.30715 2.829625,0.0 5.123000000000001,-1.03265 5.123000000000001,-2.30715 l 0.0,-1.254875 -10.244125000000002,-0.0 z " id="path174"/>
<path style="fill:none;stroke:#211c1d;stroke-width:0.8;stroke-linecap:butt;stroke-linejoin:miter;stroke-miterlimit:4;stroke-opacity:1;stroke-dasharray:none" d="m 37.583,37.60149999999999 c -1.579625,0.813 -2.651375,2.24075 -2.651375,3.1122500000000004 l 0.0,34.4165 c 0.0,1.2745000000000002 2.2925,2.30715 5.121125000000001,2.30715 2.829625,0.0 5.123000000000001,-1.03265 5.123000000000001,-2.30715 l 0.0,-34.4165 c 0.0,-0.869125 -1.064375,-2.294375 -2.6367500000000006,-3.1122500000000004 1.5723750000000003,-0.820875 2.6367500000000006,-2.246625 2.6367500000000006,-3.11825 l 0.0,-31.857375 c 0.0,-1.274375 -2.293375,-2.3125 -5.123000000000001,-2.3125 -2.828625,-0.0 -5.121125000000001,1.038125 -5.121125000000001,2.3125 l 0.0,31.857375 c 0.0,0.8745000000000002 1.07175,2.30225 2.651375,3.11825 z " id="path176"/>
<path style="fill:none;stroke:#231f20;stroke-width:0.8;stroke-linecap:butt;stroke-linejoin:miter;stroke-miterlimit:4;stroke-opacity:1;stroke-dasharray:none;display:none" d="M 37.267125,37.63025 0.0,37.63025 " id="path178"/>
<text>
<tspan x="34.919375 39.9218105" y="85.23916249999999" id="tspan30" style="font-size:7.19543791px;font-variant:normal;font-weight:normal;writing-mode:lr-tb;fill:#211c1d;fill-opacity:1;fill-rule:nonzero;stroke:none;font-family:Helvetica;-inkscape-font-specification:Helvetica">19</tspan>
</text>
</g>
</svg>
