<?xml version="1.0" encoding="UTF-8" standalone="no"?>
<!-- Created with Inkscape (http://www.inkscape.org/) -->

<svg
   xmlns:dc="http://purl.org/dc/elements/1.1/"
   xmlns:cc="http://creativecommons.org/ns#"
   xmlns:rdf="http://www.w3.org/1999/02/22-rdf-syntax-ns#"
   xmlns:svg="http://www.w3.org/2000/svg"
   xmlns="http://www.w3.org/2000/svg"
   version="1.1"
   width="45.487499"
   height="89.162498"
   id="svg2"
   xml:space="preserve"><metadata
     id="metadata8"><rdf:RDF><cc:Work
         rdf:about=""><dc:format>image/svg+xml</dc:format><dc:type
           rdf:resource="http://purl.org/dc/dcmitype/StillImage" /><dc:title></dc:title></cc:Work></rdf:RDF></metadata><defs
     id="defs6"><clipPath
       id="clipPath18"><path
         d="m 0,0 363.906,0 0,713 L 0,713 0,0 z"
         id="path20" /></clipPath><pattern
       id="pattern32"
       height="72"
       width="72"
       y="0"
       x="0"
       patternUnits="userSpaceOnUse"
       patternTransform="matrix(0.707108,0.707108,0.707108,-0.707108,14.7,29.0117)"><g
         id="g34"
         transform="scale(0.1,0.1)"><path
           id="path36"
           style="fill:#ffffff;fill-opacity:1;fill-rule:nonzero;stroke:none"
           d="M 0,0 720,0 720,720 0,720 0,0 z" /><path
           id="path38"
           style="fill:none;stroke:#211c1d;stroke-opacity:1;stroke-width:3;stroke-linecap:butt;stroke-linejoin:round;stroke-miterlimit:4;stroke-dasharray:none"
           d="M -74.8398,105.156 105.152,-74.8438" /><path
           id="path40"
           style="fill:none;stroke:#211c1d;stroke-opacity:1;stroke-width:3;stroke-linecap:butt;stroke-linejoin:round;stroke-miterlimit:4;stroke-dasharray:none"
           d="M -74.8398,165.156 165.152,-74.8438" /><path
           id="path42"
           style="fill:none;stroke:#211c1d;stroke-opacity:1;stroke-width:3;stroke-linecap:butt;stroke-linejoin:round;stroke-miterlimit:4;stroke-dasharray:none"
           d="M -74.8398,225.156 225.152,-74.8438" /><path
           id="path44"
           style="fill:none;stroke:#211c1d;stroke-opacity:1;stroke-width:3;stroke-linecap:butt;stroke-linejoin:round;stroke-miterlimit:4;stroke-dasharray:none"
           d="M -74.8398,285.156 285.152,-74.8438" /><path
           id="path46"
           style="fill:none;stroke:#211c1d;stroke-opacity:1;stroke-width:3;stroke-linecap:butt;stroke-linejoin:round;stroke-miterlimit:4;stroke-dasharray:none"
           d="M -74.8398,345.156 345.152,-74.8438" /><path
           id="path48"
           style="fill:none;stroke:#211c1d;stroke-opacity:1;stroke-width:3;stroke-linecap:butt;stroke-linejoin:round;stroke-miterlimit:4;stroke-dasharray:none"
           d="M -74.8398,405.156 405.152,-74.8438" /><path
           id="path50"
           style="fill:none;stroke:#211c1d;stroke-opacity:1;stroke-width:3;stroke-linecap:butt;stroke-linejoin:round;stroke-miterlimit:4;stroke-dasharray:none"
           d="M -74.8398,465.156 465.152,-74.8438" /><path
           id="path52"
           style="fill:none;stroke:#211c1d;stroke-opacity:1;stroke-width:3;stroke-linecap:butt;stroke-linejoin:round;stroke-miterlimit:4;stroke-dasharray:none"
           d="M -74.8398,525.156 525.152,-74.8438" /><path
           id="path54"
           style="fill:none;stroke:#211c1d;stroke-opacity:1;stroke-width:3;stroke-linecap:butt;stroke-linejoin:round;stroke-miterlimit:4;stroke-dasharray:none"
           d="M -74.8398,585.156 585.152,-74.8438" /><path
           id="path56"
           style="fill:none;stroke:#211c1d;stroke-opacity:1;stroke-width:3;stroke-linecap:butt;stroke-linejoin:round;stroke-miterlimit:4;stroke-dasharray:none"
           d="M -74.8398,645.156 645.152,-74.8438" /><path
           id="path58"
           style="fill:none;stroke:#211c1d;stroke-opacity:1;stroke-width:3;stroke-linecap:butt;stroke-linejoin:round;stroke-miterlimit:4;stroke-dasharray:none"
           d="M -74.8398,705.156 705.152,-74.8438" /><path
           id="path60"
           style="fill:none;stroke:#211c1d;stroke-opacity:1;stroke-width:3;stroke-linecap:butt;stroke-linejoin:round;stroke-miterlimit:4;stroke-dasharray:none"
           d="M -74.8398,765.148 765.152,-74.8438" /><path
           id="path62"
           style="fill:none;stroke:#211c1d;stroke-opacity:1;stroke-width:3;stroke-linecap:butt;stroke-linejoin:round;stroke-miterlimit:4;stroke-dasharray:none"
           d="M -14.8398,765.148 765.152,-14.8438" /><path
           id="path64"
           style="fill:none;stroke:#211c1d;stroke-opacity:1;stroke-width:3;stroke-linecap:butt;stroke-linejoin:round;stroke-miterlimit:4;stroke-dasharray:none"
           d="M 45.1523,765.148 765.152,45.1562" /><path
           id="path66"
           style="fill:none;stroke:#211c1d;stroke-opacity:1;stroke-width:3;stroke-linecap:butt;stroke-linejoin:round;stroke-miterlimit:4;stroke-dasharray:none"
           d="m 105.152,765.148 660,-659.992" /><path
           id="path68"
           style="fill:none;stroke:#211c1d;stroke-opacity:1;stroke-width:3;stroke-linecap:butt;stroke-linejoin:round;stroke-miterlimit:4;stroke-dasharray:none"
           d="m 165.152,765.148 600,-599.992" /><path
           id="path70"
           style="fill:none;stroke:#211c1d;stroke-opacity:1;stroke-width:3;stroke-linecap:butt;stroke-linejoin:round;stroke-miterlimit:4;stroke-dasharray:none"
           d="m 225.152,765.148 540,-539.992" /><path
           id="path72"
           style="fill:none;stroke:#211c1d;stroke-opacity:1;stroke-width:3;stroke-linecap:butt;stroke-linejoin:round;stroke-miterlimit:4;stroke-dasharray:none"
           d="m 285.152,765.148 480,-479.992" /><path
           id="path74"
           style="fill:none;stroke:#211c1d;stroke-opacity:1;stroke-width:3;stroke-linecap:butt;stroke-linejoin:round;stroke-miterlimit:4;stroke-dasharray:none"
           d="m 345.152,765.148 420,-419.992" /><path
           id="path76"
           style="fill:none;stroke:#211c1d;stroke-opacity:1;stroke-width:3;stroke-linecap:butt;stroke-linejoin:round;stroke-miterlimit:4;stroke-dasharray:none"
           d="m 405.152,765.148 360,-359.992" /><path
           id="path78"
           style="fill:none;stroke:#211c1d;stroke-opacity:1;stroke-width:3;stroke-linecap:butt;stroke-linejoin:round;stroke-miterlimit:4;stroke-dasharray:none"
           d="m 465.152,765.148 300,-299.992" /><path
           id="path80"
           style="fill:none;stroke:#211c1d;stroke-opacity:1;stroke-width:3;stroke-linecap:butt;stroke-linejoin:round;stroke-miterlimit:4;stroke-dasharray:none"
           d="m 525.152,765.148 240,-239.992" /><path
           id="path82"
           style="fill:none;stroke:#211c1d;stroke-opacity:1;stroke-width:3;stroke-linecap:butt;stroke-linejoin:round;stroke-miterlimit:4;stroke-dasharray:none"
           d="m 585.152,765.148 180,-179.992" /><path
           id="path84"
           style="fill:none;stroke:#211c1d;stroke-opacity:1;stroke-width:3;stroke-linecap:butt;stroke-linejoin:round;stroke-miterlimit:4;stroke-dasharray:none"
           d="m 645.152,765.148 120,-119.992" /></g></pattern><pattern
       id="pattern90"
       height="72"
       width="72"
       y="0"
       x="0"
       patternUnits="userSpaceOnUse"
       patternTransform="matrix(0.707108,0.707108,0.707108,-0.707108,14.7,29.0117)"><g
         id="g92"
         transform="scale(0.1,0.1)"><path
           id="path94"
           style="fill:#ffffff;fill-opacity:1;fill-rule:nonzero;stroke:none"
           d="M 0,0 720,0 720,720 0,720 0,0 z" /><path
           id="path96"
           style="fill:none;stroke:#211c1d;stroke-opacity:1;stroke-width:3;stroke-linecap:butt;stroke-linejoin:round;stroke-miterlimit:4;stroke-dasharray:none"
           d="M -74.8398,105.156 105.152,-74.8438" /><path
           id="path98"
           style="fill:none;stroke:#211c1d;stroke-opacity:1;stroke-width:3;stroke-linecap:butt;stroke-linejoin:round;stroke-miterlimit:4;stroke-dasharray:none"
           d="M -74.8398,165.156 165.152,-74.8438" /><path
           id="path100"
           style="fill:none;stroke:#211c1d;stroke-opacity:1;stroke-width:3;stroke-linecap:butt;stroke-linejoin:round;stroke-miterlimit:4;stroke-dasharray:none"
           d="M -74.8398,225.156 225.152,-74.8438" /><path
           id="path102"
           style="fill:none;stroke:#211c1d;stroke-opacity:1;stroke-width:3;stroke-linecap:butt;stroke-linejoin:round;stroke-miterlimit:4;stroke-dasharray:none"
           d="M -74.8398,285.156 285.152,-74.8438" /><path
           id="path104"
           style="fill:none;stroke:#211c1d;stroke-opacity:1;stroke-width:3;stroke-linecap:butt;stroke-linejoin:round;stroke-miterlimit:4;stroke-dasharray:none"
           d="M -74.8398,345.156 345.152,-74.8438" /><path
           id="path106"
           style="fill:none;stroke:#211c1d;stroke-opacity:1;stroke-width:3;stroke-linecap:butt;stroke-linejoin:round;stroke-miterlimit:4;stroke-dasharray:none"
           d="M -74.8398,405.156 405.152,-74.8438" /><path
           id="path108"
           style="fill:none;stroke:#211c1d;stroke-opacity:1;stroke-width:3;stroke-linecap:butt;stroke-linejoin:round;stroke-miterlimit:4;stroke-dasharray:none"
           d="M -74.8398,465.156 465.152,-74.8438" /><path
           id="path110"
           style="fill:none;stroke:#211c1d;stroke-opacity:1;stroke-width:3;stroke-linecap:butt;stroke-linejoin:round;stroke-miterlimit:4;stroke-dasharray:none"
           d="M -74.8398,525.156 525.152,-74.8438" /><path
           id="path112"
           style="fill:none;stroke:#211c1d;stroke-opacity:1;stroke-width:3;stroke-linecap:butt;stroke-linejoin:round;stroke-miterlimit:4;stroke-dasharray:none"
           d="M -74.8398,585.156 585.152,-74.8438" /><path
           id="path114"
           style="fill:none;stroke:#211c1d;stroke-opacity:1;stroke-width:3;stroke-linecap:butt;stroke-linejoin:round;stroke-miterlimit:4;stroke-dasharray:none"
           d="M -74.8398,645.156 645.152,-74.8438" /><path
           id="path116"
           style="fill:none;stroke:#211c1d;stroke-opacity:1;stroke-width:3;stroke-linecap:butt;stroke-linejoin:round;stroke-miterlimit:4;stroke-dasharray:none"
           d="M -74.8398,705.156 705.152,-74.8438" /><path
           id="path118"
           style="fill:none;stroke:#211c1d;stroke-opacity:1;stroke-width:3;stroke-linecap:butt;stroke-linejoin:round;stroke-miterlimit:4;stroke-dasharray:none"
           d="M -74.8398,765.148 765.152,-74.8438" /><path
           id="path120"
           style="fill:none;stroke:#211c1d;stroke-opacity:1;stroke-width:3;stroke-linecap:butt;stroke-linejoin:round;stroke-miterlimit:4;stroke-dasharray:none"
           d="M -14.8398,765.148 765.152,-14.8438" /><path
           id="path122"
           style="fill:none;stroke:#211c1d;stroke-opacity:1;stroke-width:3;stroke-linecap:butt;stroke-linejoin:round;stroke-miterlimit:4;stroke-dasharray:none"
           d="M 45.1523,765.148 765.152,45.1562" /><path
           id="path124"
           style="fill:none;stroke:#211c1d;stroke-opacity:1;stroke-width:3;stroke-linecap:butt;stroke-linejoin:round;stroke-miterlimit:4;stroke-dasharray:none"
           d="m 105.152,765.148 660,-659.992" /><path
           id="path126"
           style="fill:none;stroke:#211c1d;stroke-opacity:1;stroke-width:3;stroke-linecap:butt;stroke-linejoin:round;stroke-miterlimit:4;stroke-dasharray:none"
           d="m 165.152,765.148 600,-599.992" /><path
           id="path128"
           style="fill:none;stroke:#211c1d;stroke-opacity:1;stroke-width:3;stroke-linecap:butt;stroke-linejoin:round;stroke-miterlimit:4;stroke-dasharray:none"
           d="m 225.152,765.148 540,-539.992" /><path
           id="path130"
           style="fill:none;stroke:#211c1d;stroke-opacity:1;stroke-width:3;stroke-linecap:butt;stroke-linejoin:round;stroke-miterlimit:4;stroke-dasharray:none"
           d="m 285.152,765.148 480,-479.992" /><path
           id="path132"
           style="fill:none;stroke:#211c1d;stroke-opacity:1;stroke-width:3;stroke-linecap:butt;stroke-linejoin:round;stroke-miterlimit:4;stroke-dasharray:none"
           d="m 345.152,765.148 420,-419.992" /><path
           id="path134"
           style="fill:none;stroke:#211c1d;stroke-opacity:1;stroke-width:3;stroke-linecap:butt;stroke-linejoin:round;stroke-miterlimit:4;stroke-dasharray:none"
           d="m 405.152,765.148 360,-359.992" /><path
           id="path136"
           style="fill:none;stroke:#211c1d;stroke-opacity:1;stroke-width:3;stroke-linecap:butt;stroke-linejoin:round;stroke-miterlimit:4;stroke-dasharray:none"
           d="m 465.152,765.148 300,-299.992" /><path
           id="path138"
           style="fill:none;stroke:#211c1d;stroke-opacity:1;stroke-width:3;stroke-linecap:butt;stroke-linejoin:round;stroke-miterlimit:4;stroke-dasharray:none"
           d="m 525.152,765.148 240,-239.992" /><path
           id="path140"
           style="fill:none;stroke:#211c1d;stroke-opacity:1;stroke-width:3;stroke-linecap:butt;stroke-linejoin:round;stroke-miterlimit:4;stroke-dasharray:none"
           d="m 585.152,765.148 180,-179.992" /><path
           id="path142"
           style="fill:none;stroke:#211c1d;stroke-opacity:1;stroke-width:3;stroke-linecap:butt;stroke-linejoin:round;stroke-miterlimit:4;stroke-dasharray:none"
           d="m 645.152,765.148 120,-119.992" /></g></pattern></defs><g
     transform="matrix(1.25,0,0,-1.25,0,89.1625)"
     id="g10"><g
       transform="scale(0.1,0.1)"
       id="g12"><g
         id="g14"><g
           clip-path="url(#clipPath18)"
           id="g16"><path
             d="m 361.406,387.156 0,0.434 c 0,6.953 -8.515,18.355 -21.094,24.898 12.579,6.567 21.094,17.973 21.094,24.946 l 0,4.058 -81.953,0 0,-4.058 c 0,-6.996 8.574,-18.418 21.211,-24.946 -12.637,-6.504 -21.211,-17.926 -21.211,-24.898 l 0,-0.434 81.953,0"
             id="path22"
             style="fill:#a4bdc8;fill-opacity:1;fill-rule:nonzero;stroke:none" /><path
             d="m 361.406,387.156 0,0.434 c 0,6.953 -8.515,18.355 -21.094,24.898 12.579,6.567 21.094,17.973 21.094,24.946 l 0,4.058 -81.953,0 0,-4.058 c 0,-6.996 8.574,-18.418 21.211,-24.946 -12.637,-6.504 -21.211,-17.926 -21.211,-24.898 l 0,-0.434 81.953,0 z"
             id="path24"
             style="fill:none;stroke:#100f0d;stroke-width:5;stroke-linecap:butt;stroke-linejoin:miter;stroke-miterlimit:4;stroke-opacity:1;stroke-dasharray:none" /><g
             transform="scale(10,10)"
             id="g26"><text
               transform="matrix(1,0,0,-0.90697189,27.9355,3.13867)"
               id="text28"><tspan
                 x="0 4.0019484"
                 y="0"
                 id="tspan30"
                 style="font-size:7.19543791px;font-variant:normal;font-weight:normal;writing-mode:lr-tb;fill:#211c1d;fill-opacity:1;fill-rule:nonzero;stroke:none;font-family:Helvetica;-inkscape-font-specification:Helvetica">19</tspan></text>
</g><path
             d="m 279.395,440.676 82.0703,0 0,34.3125 -82.0703,0 0,-34.3125 z"
             id="path86"
             style="fill:url(#pattern32);fill-opacity:1;fill-rule:nonzero;stroke:none" /><path
             d="m 279.395,440.676 82.0703,0 0,34.3125 -82.0703,0 0,-34.3125 z"
             id="path88"
             style="fill:none;stroke:#211c1d;stroke-width:0.62;stroke-linecap:butt;stroke-linejoin:miter;stroke-miterlimit:4;stroke-opacity:1;stroke-dasharray:none" /><path
             d="m 279.395,355.715 82.0703,0 0,31.0703 -82.0703,0 0,-31.0703 z"
             id="path144"
             style="fill:url(#pattern90);fill-opacity:1;fill-rule:nonzero;stroke:none" /><path
             d="m 279.395,355.715 82.0703,0 0,31.0703 -82.0703,0 0,-31.0703 z"
             id="path146"
             style="fill:none;stroke:#211c1d;stroke-width:0.62;stroke-linecap:butt;stroke-linejoin:miter;stroke-miterlimit:4;stroke-opacity:1;stroke-dasharray:none" /><path
             d="m 279.395,527.273 82.0703,0 0,27.7773 -82.0703,0 0,-27.7773 z"
             id="path148"
             style="fill:#e9eae9;fill-opacity:1;fill-rule:nonzero;stroke:none" /><path
             d="m 279.395,527.273 82.0703,0 0,27.7773 -82.0703,0 0,-27.7773 z"
             id="path150"
             style="fill:none;stroke:#211c1d;stroke-width:0.62;stroke-linecap:butt;stroke-linejoin:miter;stroke-miterlimit:4;stroke-opacity:1;stroke-dasharray:none" /><path
             d="m 279.395,579.68 82.0703,0 0,43.1797 -82.0703,0 0,-43.1797 z"
             id="path152"
             style="fill:#e9eae9;fill-opacity:1;fill-rule:nonzero;stroke:none" /><path
             d="m 279.395,579.68 82.0703,0 0,43.1797 -82.0703,0 0,-43.1797 z"
             id="path154"
             style="fill:none;stroke:#211c1d;stroke-width:0.62;stroke-linecap:butt;stroke-linejoin:miter;stroke-miterlimit:4;stroke-opacity:1;stroke-dasharray:none" /><path
             d="m 279.395,144.973 82.0703,0 0,19.5898 -82.0703,0 0,-19.5898 z"
             id="path156"
             style="fill:#e9eae9;fill-opacity:1;fill-rule:nonzero;stroke:none" /><path
             d="m 279.395,144.973 82.0703,0 0,19.5898 -82.0703,0 0,-19.5898 z"
             id="path158"
             style="fill:none;stroke:#211c1d;stroke-width:0.62;stroke-linecap:butt;stroke-linejoin:miter;stroke-miterlimit:4;stroke-opacity:1;stroke-dasharray:none" /><path
             d="m 279.395,203.777 82.0703,0 0,29.3984 -82.0703,0 0,-29.3984 z"
             id="path160"
             style="fill:#e9eae9;fill-opacity:1;fill-rule:nonzero;stroke:none" /><path
             d="m 279.395,203.777 82.0703,0 0,29.3984 -82.0703,0 0,-29.3984 z"
             id="path162"
             style="fill:none;stroke:#211c1d;stroke-width:0.62;stroke-linecap:butt;stroke-linejoin:miter;stroke-miterlimit:4;stroke-opacity:1;stroke-dasharray:none" /><path
             d="m 279.395,246.262 82.0703,0 0,22.8711 -82.0703,0 0,-22.8711 z"
             id="path164"
             style="fill:#e9eae9;fill-opacity:1;fill-rule:nonzero;stroke:none" /><path
             d="m 279.395,246.262 82.0703,0 0,22.8711 -82.0703,0 0,-22.8711 z"
             id="path166"
             style="fill:none;stroke:#211c1d;stroke-width:0.62;stroke-linecap:butt;stroke-linejoin:miter;stroke-miterlimit:4;stroke-opacity:1;stroke-dasharray:none" /><path
             d="m 279.395,300.168 82.0703,0 0,26.1484 -82.0703,0 0,-26.1484 z"
             id="path168"
             style="fill:#e9eae9;fill-opacity:1;fill-rule:nonzero;stroke:none" /><path
             d="m 279.395,300.168 82.0703,0 0,26.1484 -82.0703,0 0,-26.1484 z"
             id="path170"
             style="fill:none;stroke:#211c1d;stroke-width:0.62;stroke-linecap:butt;stroke-linejoin:miter;stroke-miterlimit:4;stroke-opacity:1;stroke-dasharray:none" /><path
             d="m 279.453,122.297 0,-10.039 c 0,-10.196 18.34,-18.4572 40.969,-18.4572 22.637,0 40.984,8.2612 40.984,18.4572 l 0,10.039 -81.953,0"
             id="path172"
             style="fill:#e9eae9;fill-opacity:1;fill-rule:nonzero;stroke:none" /><path
             d="m 279.453,122.297 0,-10.039 c 0,-10.196 18.34,-18.4572 40.969,-18.4572 22.637,0 40.984,8.2612 40.984,18.4572 l 0,10.039 -81.953,0 z"
             id="path174"
             style="fill:none;stroke:#211c1d;stroke-width:0.62;stroke-linecap:butt;stroke-linejoin:miter;stroke-miterlimit:4;stroke-opacity:1;stroke-dasharray:none" /><path
             d="m 300.664,412.488 c -12.637,-6.504 -21.211,-17.926 -21.211,-24.898 l 0,-275.332 c 0,-10.196 18.34,-18.4572 40.969,-18.4572 22.637,0 40.984,8.2612 40.984,18.4572 l 0,275.332 c 0,6.953 -8.515,18.355 -21.094,24.898 12.579,6.567 21.094,17.973 21.094,24.946 l 0,254.859 c 0,10.195 -18.347,18.5 -40.984,18.5 -22.629,0 -40.969,-8.305 -40.969,-18.5 l 0,-254.859 c 0,-6.996 8.574,-18.418 21.211,-24.946 z"
             id="path176"
             style="fill:none;stroke:#211c1d;stroke-width:5;stroke-linecap:butt;stroke-linejoin:miter;stroke-miterlimit:4;stroke-opacity:1;stroke-dasharray:none" /><path
             d="M 298.137,412.258 0,412.258"
             id="path178"
             style="fill:none;stroke:#231f20;stroke-width:5;stroke-linecap:butt;stroke-linejoin:miter;stroke-miterlimit:4;stroke-opacity:1;stroke-dasharray:none" /><g
             transform="scale(10,10)"
             id="g180"><text
               transform="matrix(1,0,0,-0.90698012,23.293,41.877)"
               id="text182"><tspan
                 x="0 1.5634781"
                 y="0"
                 id="tspan184"
                 style="font-size:3.24153733px;font-variant:normal;font-weight:normal;writing-mode:lr-tb;fill:#231f20;fill-opacity:1;fill-rule:nonzero;stroke:none;font-family:Helvetica;-inkscape-font-specification:Helvetica">11</tspan><tspan
                 x="0 1.5634781"
                 y="3.7814391"
                 id="tspan186"
                 style="font-size:3.24153733px;font-variant:normal;font-weight:normal;writing-mode:lr-tb;fill:#231f20;fill-opacity:1;fill-rule:nonzero;stroke:none;font-family:Helvetica;-inkscape-font-specification:Helvetica">11</tspan><tspan
                 x="-2.9421813 -1.1398865 0.66240823 1.5635557"
                 y="-25.130661"
                 id="tspan188"
                 style="font-size:3.24153733px;font-variant:normal;font-weight:normal;writing-mode:lr-tb;fill:#231f20;fill-opacity:1;fill-rule:nonzero;stroke:none;font-family:Helvetica;-inkscape-font-specification:Helvetica">13.3</tspan><tspan
                 x="-0.23945399 1.5628408"
                 y="6.7531691"
                 id="tspan190"
                 style="font-size:3.24153733px;font-variant:normal;font-weight:normal;writing-mode:lr-tb;fill:#231f20;fill-opacity:1;fill-rule:nonzero;stroke:none;font-family:Helvetica;-inkscape-font-specification:Helvetica">12</tspan><tspan
                 x="-2.9421813 -1.1398865 0.66240823 1.5635557"
                 y="-19.004066"
                 id="tspan192"
                 style="font-size:3.24153733px;font-variant:normal;font-weight:normal;writing-mode:lr-tb;fill:#231f20;fill-opacity:1;fill-rule:nonzero;stroke:none;font-family:Helvetica;-inkscape-font-specification:Helvetica">13.2</tspan><tspan
                 x="-4.7449112 -2.9426162 -1.1403215 -0.23917404 1.5631207"
                 y="-15.224788"
                 id="tspan194"
                 style="font-size:3.24153733px;font-variant:normal;font-weight:normal;writing-mode:lr-tb;fill:#231f20;fill-opacity:1;fill-rule:nonzero;stroke:none;font-family:Helvetica;-inkscape-font-specification:Helvetica">13.13</tspan><tspan
                 x="-4.7449112 -2.9426162 -1.1403215 -0.23917404 1.5631207"
                 y="-12.34134"
                 id="tspan196"
                 style="font-size:3.24153733px;font-variant:normal;font-weight:normal;writing-mode:lr-tb;fill:#231f20;fill-opacity:1;fill-rule:nonzero;stroke:none;font-family:Helvetica;-inkscape-font-specification:Helvetica">13.12</tspan><tspan
                 x="-4.5070205 -2.7047257 -0.90243089 -0.00128349 1.5632874"
                 y="-7.8363461"
                 id="tspan198"
                 style="font-size:3.24153733px;font-variant:normal;font-weight:normal;writing-mode:lr-tb;fill:#231f20;fill-opacity:1;fill-rule:nonzero;stroke:none;font-family:Helvetica;-inkscape-font-specification:Helvetica">13.11</tspan><tspan
                 x="-4.5070205 -2.7047257 -0.90243089 -0.00128349 1.5632874"
                 y="9.8175144"
                 id="tspan200"
                 style="font-size:3.24153733px;font-variant:normal;font-weight:normal;writing-mode:lr-tb;fill:#231f20;fill-opacity:1;fill-rule:nonzero;stroke:none;font-family:Helvetica;-inkscape-font-specification:Helvetica">13.11</tspan><tspan
                 x="-4.7449112 -2.9426162 -1.1403215 -0.23917404 1.5631207"
                 y="12.698812"
                 id="tspan202"
                 style="font-size:3.24153733px;font-variant:normal;font-weight:normal;writing-mode:lr-tb;fill:#231f20;fill-opacity:1;fill-rule:nonzero;stroke:none;font-family:Helvetica;-inkscape-font-specification:Helvetica">13.12</tspan><tspan
                 x="-4.7449112 -2.9426162 -1.1403215 -0.23917404 1.5631207"
                 y="15.941893"
                 id="tspan204"
                 style="font-size:3.24153733px;font-variant:normal;font-weight:normal;writing-mode:lr-tb;fill:#231f20;fill-opacity:1;fill-rule:nonzero;stroke:none;font-family:Helvetica;-inkscape-font-specification:Helvetica">13.13</tspan><tspan
                 x="-2.9421813 -1.1398865 0.66240823 1.5635557"
                 y="18.823191"
                 id="tspan206"
                 style="font-size:3.24153733px;font-variant:normal;font-weight:normal;writing-mode:lr-tb;fill:#231f20;fill-opacity:1;fill-rule:nonzero;stroke:none;font-family:Helvetica;-inkscape-font-specification:Helvetica">13.2</tspan><tspan
                 x="-13.88123 -12.078936 -10.275718 -9.3753252 -7.5730309"
                 y="20.782816"
                 id="tspan208"
                 style="font-size:3.24153733px;font-variant:normal;font-weight:normal;writing-mode:lr-tb;fill:#231f20;fill-opacity:1;fill-rule:nonzero;stroke:none;font-family:Helvetica;-inkscape-font-specification:Helvetica">13.31</tspan></text>
</g><path
             d="m 182.461,239.27 99.973,0"
             id="path210"
             style="fill:none;stroke:#231f20;stroke-width:1.82598996;stroke-linecap:butt;stroke-linejoin:miter;stroke-miterlimit:4;stroke-opacity:1;stroke-dasharray:none" /><g
             transform="scale(10,10)"
             id="g212"><text
               transform="matrix(1,0,0,-0.90698012,18.548,20.8828)"
               id="text214"><tspan
                 x="0 1.8022949 3.6045897 4.5057368 6.308032"
                 y="0"
                 id="tspan216"
                 style="font-size:3.24153733px;font-variant:normal;font-weight:normal;writing-mode:lr-tb;fill:#231f20;fill-opacity:1;fill-rule:nonzero;stroke:none;font-family:Helvetica;-inkscape-font-specification:Helvetica">13.32</tspan><tspan
                 x="0 1.8022949 3.6045897 4.5057368 6.308032"
                 y="3.7835889"
                 id="tspan218"
                 style="font-size:3.24153733px;font-variant:normal;font-weight:normal;writing-mode:lr-tb;fill:#231f20;fill-opacity:1;fill-rule:nonzero;stroke:none;font-family:Helvetica;-inkscape-font-specification:Helvetica">13.33</tspan><tspan
                 x="0 1.8022949 3.6045897 4.5057368 6.308032"
                 y="7.024509"
                 id="tspan220"
                 style="font-size:3.24153733px;font-variant:normal;font-weight:normal;writing-mode:lr-tb;fill:#231f20;fill-opacity:1;fill-rule:nonzero;stroke:none;font-family:Helvetica;-inkscape-font-specification:Helvetica">13.41</tspan><tspan
                 x="0 1.8022949 3.6045897 4.5057368 6.308032"
                 y="9.9079571"
                 id="tspan222"
                 style="font-size:3.24153733px;font-variant:normal;font-weight:normal;writing-mode:lr-tb;fill:#231f20;fill-opacity:1;fill-rule:nonzero;stroke:none;font-family:Helvetica;-inkscape-font-specification:Helvetica">13.42</tspan><tspan
                 x="0 1.8022949 3.6045897 4.5057368 6.308032"
                 y="12.789255"
                 id="tspan224"
                 style="font-size:3.24153733px;font-variant:normal;font-weight:normal;writing-mode:lr-tb;fill:#231f20;fill-opacity:1;fill-rule:nonzero;stroke:none;font-family:Helvetica;-inkscape-font-specification:Helvetica">13.43</tspan><tspan
                 x="4.5054679 6.3077631"
                 y="-26.47864"
                 id="tspan226"
                 style="font-size:3.24153733px;font-variant:normal;font-weight:normal;writing-mode:lr-tb;fill:#231f20;fill-opacity:1;fill-rule:nonzero;stroke:none;font-family:Helvetica;-inkscape-font-specification:Helvetica">12</tspan></text>
</g></g></g></g></g></svg>