<?xml version="1.0" encoding="UTF-8"?>
<svg xmlns:xlink="http://www.w3.org/1999/xlink" xmlns="http://www.w3.org/2000/svg" contentScriptType="text/ecmascript" zoomAndPan="magnify" contentStyleType="text/css" preserveAspectRatio="xMidYMid meet" version="1.0">

<g id="chromosome19" title="Chromosome 19">
<path style="fill:#c4cdf2;fill-opacity:1;fill-rule:nonzero;stroke:none" id="19p12" d="m 34.924375,78.50274999999999 10.258787500000002,0.0 0.0,-4.2890625 -10.258787500000002,-0.0 0.0,4.2890625 z "/>
<path style="fill:none;stroke:#211c1d;stroke-width:0.8;stroke-linecap:butt;stroke-linejoin:miter;stroke-miterlimit:4;stroke-opacity:1;stroke-dasharray:none" id="19p12-o" d="m 34.924375,78.50274999999999 10.258787500000002,0.0 0.0,-4.2890625 -10.258787500000002,-0.0 0.0,4.2890625 z "/>
<path style="fill:#c4cdf2;fill-opacity:1;fill-rule:nonzero;stroke:none" id="19q12" d="m 34.924375,89.122875 10.258787500000002,0.0 0.0,-3.8837875 -10.258787500000002,-0.0 0.0,3.8837875 z "/>
<path style="fill:none;stroke:#211c1d;stroke-width:0.8;stroke-linecap:butt;stroke-linejoin:miter;stroke-miterlimit:4;stroke-opacity:1;stroke-dasharray:none" id="19q12-o" d="m 34.924375,89.122875 10.258787500000002,0.0 0.0,-3.8837875 -10.258787500000002,-0.0 0.0,3.8837875 z "/>
<path style="fill:#e9eae9;fill-opacity:1;fill-rule:nonzero;stroke:none" id="19p13.12" d="m 34.924375,67.678125 10.258787500000002,0.0 0.0,-3.4721625 -10.258787500000002,-0.0 0.0,3.4721625 z "/>
<path style="fill:none;stroke:#211c1d;stroke-width:0.1;stroke-linecap:butt;stroke-linejoin:miter;stroke-miterlimit:4;stroke-opacity:1;stroke-dasharray:none" id="19p13.12-o" d="m 34.924375,67.678125 10.258787500000002,0.0 0.0,-3.4721625 -10.258787500000002,-0.0 0.0,3.4721625 z "/>
<path style="fill:#e9eae9;fill-opacity:1;fill-rule:nonzero;stroke:none" id="19p13.2" d="m 34.924375,61.127250000000004 10.258787500000002,0.0 0.0,-5.3974625 -10.258787500000002,-0.0 0.0,5.3974625 z "/>
<path style="fill:none;stroke:#211c1d;stroke-width:0.1;stroke-linecap:butt;stroke-linejoin:miter;stroke-miterlimit:4;stroke-opacity:1;stroke-dasharray:none" id="19p13.2-o" d="m 34.924375,61.127250000000004 10.258787500000002,0.0 0.0,-5.3974625 -10.258787500000002,-0.0 0.0,5.3974625 z "/>
<path style="fill:#e9eae9;fill-opacity:1;fill-rule:nonzero;stroke:none" id="19q13.41" d="m 34.924375,115.465625 10.258787500000002,0.0 0.0,-2.448725 -10.258787500000002,-0.0 0.0,2.448725 z "/>
<path style="fill:none;stroke:#211c1d;stroke-width:0.1;stroke-linecap:butt;stroke-linejoin:miter;stroke-miterlimit:4;stroke-opacity:1;stroke-dasharray:none" id="19q13.41-o" d="m 34.924375,115.465625 10.258787500000002,0.0 0.0,-2.448725 -10.258787500000002,-0.0 0.0,2.448725 z "/>
<path style="fill:#e9eae9;fill-opacity:1;fill-rule:nonzero;stroke:none" id="19q13.32" d="m 34.924375,108.11512499999999 10.258787500000002,0.0 0.0,-3.6748000000000003 -10.258787500000002,-0.0 0.0,3.6748000000000003 z "/>
<path style="fill:none;stroke:#211c1d;stroke-width:0.1;stroke-linecap:butt;stroke-linejoin:miter;stroke-miterlimit:4;stroke-opacity:1;stroke-dasharray:none" id="19q13.32-o" d="m 34.924375,108.11512499999999 10.258787500000002,0.0 0.0,-3.6748000000000003 -10.258787500000002,-0.0 0.0,3.6748000000000003 z "/>
<path style="fill:#e9eae9;fill-opacity:1;fill-rule:nonzero;stroke:none" id="19q13.2" d="m 34.924375,102.80449999999999 10.258787500000002,0.0 0.0,-2.8588875 -10.258787500000002,-0.0 0.0,2.8588875 z "/>
<path style="fill:none;stroke:#211c1d;stroke-width:0.1;stroke-linecap:butt;stroke-linejoin:miter;stroke-miterlimit:4;stroke-opacity:1;stroke-dasharray:none" id="19q13.2-o" d="m 34.924375,102.80449999999999 10.258787500000002,0.0 0.0,-2.8588875 -10.258787500000002,-0.0 0.0,2.8588875 z "/>
<path style="fill:#e9eae9;fill-opacity:1;fill-rule:nonzero;stroke:none" id="19q13.12" d="m 34.924375,96.06625 10.258787500000002,0.0 0.0,-3.2685500000000003 -10.258787500000002,-0.0 0.0,3.2685500000000003 z "/>
<path style="fill:none;stroke:#211c1d;stroke-width:0.1;stroke-linecap:butt;stroke-linejoin:miter;stroke-miterlimit:4;stroke-opacity:1;stroke-dasharray:none" id="19q13.12-o" d="m 34.924375,96.06625 10.258787500000002,0.0 0.0,-3.2685500000000003 -10.258787500000002,-0.0 0.0,3.2685500000000003 z "/>
<path style="fill:#e9eae9;fill-opacity:1;fill-rule:nonzero;stroke:none" id="19q13.43" d="m 34.931625,118.300125 0.0,1.254875 c 0.0,1.2745000000000002 2.2925,2.30715 5.121125000000001,2.30715 2.829625,0.0 5.123000000000001,-1.03265 5.123000000000001,-2.30715 l 0.0,-1.254875 -10.244125000000002,-0.0 "/>
<path style="fill:none;stroke:#211c1d;stroke-width:0.1;stroke-linecap:butt;stroke-linejoin:miter;stroke-miterlimit:4;stroke-opacity:1;stroke-dasharray:none" id="19q13.43-o" d="m 34.931625,118.300125 0.0,1.254875 c 0.0,1.2745000000000002 2.2925,2.30715 5.121125000000001,2.30715 2.829625,0.0 5.123000000000001,-1.03265 5.123000000000001,-2.30715 l 0.0,-1.254875 -10.244125000000002,-0.0 z "/>
<path style="fill:#fffafa;stroke:#211c1d;stroke-width:0.1;stroke-linecap:butt;stroke-linejoin:miter;stroke-miterlimit:4;stroke-opacity:1;stroke-dasharray:none" id="19q13.42" d="m 34.924375,118.300125 10.258787500000002,0.0 0,-2.8344999999999914 -10.258787500000002,-0.0 0,2.8344999999999914 z "/>
<path style="fill:#fffafa;stroke:#211c1d;stroke-width:0.1;stroke-linecap:butt;stroke-linejoin:miter;stroke-miterlimit:4;stroke-opacity:1;stroke-dasharray:none" id="19q13.31" d="m 34.924375,104.44032499999999 10.258787500000002,0.0 0,-1.635824999999997 -10.258787500000002,-0.0 0,1.635824999999997 z "/>
<path style="fill:#fffafa;stroke:#211c1d;stroke-width:0.1;stroke-linecap:butt;stroke-linejoin:miter;stroke-miterlimit:4;stroke-opacity:1;stroke-dasharray:none" id="19p13.11" d="m 34.924375,74.21368749999999 10.258787500000002,0.0 0,-6.5355624999999975 -10.258787500000002,-0.0 0,6.5355624999999975 z "/>
<path style="fill:#fffafa;stroke:#211c1d;stroke-width:0.1;stroke-linecap:butt;stroke-linejoin:miter;stroke-miterlimit:4;stroke-opacity:1;stroke-dasharray:none" id="19q13.13" d="m 34.924375,99.9456125 10.258787500000002,0.0 0,-3.879362499999999 -10.258787500000002,-0.0 0,3.879362499999999 z "/>
<path style="fill:#fffafa;stroke:#211c1d;stroke-width:0.1;stroke-linecap:butt;stroke-linejoin:miter;stroke-miterlimit:4;stroke-opacity:1;stroke-dasharray:none" id="19p13.13" d="m 34.924375,64.2059625 10.258787500000002,0.0 0,-3.0787124999999946 -10.258787500000002,-0.0 0,3.0787124999999946 z "/>
<path style="fill:#fffafa;stroke:#211c1d;stroke-width:0.1;stroke-linecap:butt;stroke-linejoin:miter;stroke-miterlimit:4;stroke-opacity:1;stroke-dasharray:none" id="19q13.33" d="m 34.924375,113.0169 10.258787500000002,0.0 0,-4.901775000000015 -10.258787500000002,-0.0 0,4.901775000000015 z "/>
<path style="fill:#fffafa;stroke:#211c1d;stroke-width:0.1;stroke-linecap:butt;stroke-linejoin:miter;stroke-miterlimit:4;stroke-opacity:1;stroke-dasharray:none" id="19q13.11" d="m 34.924375,92.79769999999999 10.258787500000002,0.0 0,-3.6748249999999985 -10.258787500000002,-0.0 0,3.6748249999999985 z "/>
<path style="fill:#fffafa;stroke:#211c1d;stroke-width:0.1;stroke-linecap:butt;stroke-linejoin:miter;stroke-miterlimit:4;stroke-opacity:1;stroke-dasharray:none" id="19p13.3" d="m 34.924375,55.7297875 10.258787500000002,0.0 0.0,-8.75 c 0.0,-1.274375 -2.293375,-2.3125 -5.123000000000001,-2.3125 -2.828625,-0.0 -5.121125000000001,1.038125 -5.121125000000001,2.3125 l 0.0,8.75 z"/>
<path style="fill:#a4bdc8;fill-opacity:1;fill-rule:nonzero;stroke:none" id="centromere19-f" d="m 45.17575,85.19274999999999 0.0,-0.05425 c 0.0,-0.869125 -1.064375,-2.294375 -2.6367500000000006,-3.1122500000000004 1.5723750000000003,-0.820875 2.6367500000000006,-2.246625 2.6367500000000006,-3.11825 l 0.0,-0.50725 -10.244125000000002,-0.0 0.0,0.50725 c 0.0,0.8745000000000002 1.07175,2.30225 2.651375,3.11825 -1.579625,0.813 -2.651375,2.24075 -2.651375,3.1122500000000004 l 0.0,0.05425 10.244125000000002,0.0 "/>
<path style="fill:none;stroke:#100f0d;stroke-width:0.8;stroke-linecap:butt;stroke-linejoin:miter;stroke-miterlimit:4;stroke-opacity:1;stroke-dasharray:none" id="centromere19-o" d="m 45.17575,85.19274999999999 0.0,-0.05425 c 0.0,-0.869125 -1.064375,-2.294375 -2.6367500000000006,-3.1122500000000004 1.5723750000000003,-0.820875 2.6367500000000006,-2.246625 2.6367500000000006,-3.11825 l 0.0,-0.50725 -10.244125000000002,-0.0 0.0,0.50725 c 0.0,0.8745000000000002 1.07175,2.30225 2.651375,3.11825 -1.579625,0.813 -2.651375,2.24075 -2.651375,3.1122500000000004 l 0.0,0.05425 10.244125000000002,0.0 z "/>
<path style="fill:none;stroke:#211c1d;stroke-width:0.8;stroke-linecap:butt;stroke-linejoin:miter;stroke-miterlimit:4;stroke-opacity:1;stroke-dasharray:none" id="outline19" d="m 37.583,82.02624999999999 c -1.579625,0.813 -2.651375,2.24075 -2.651375,3.1122500000000004 l 0.0,34.4165 c 0.0,1.2745000000000002 2.2925,2.30715 5.121125000000001,2.30715 2.829625,0.0 5.123000000000001,-1.03265 5.123000000000001,-2.30715 l 0.0,-34.4165 c 0.0,-0.869125 -1.064375,-2.294375 -2.6367500000000006,-3.1122500000000004 1.5723750000000003,-0.820875 2.6367500000000006,-2.246625 2.6367500000000006,-3.11825 l 0.0,-31.857375 c 0.0,-1.274375 -2.293375,-2.3125 -5.123000000000001,-2.3125 -2.828625,-0.0 -5.121125000000001,1.038125 -5.121125000000001,2.3125 l 0.0,31.857375 c 0.0,0.8745000000000002 1.07175,2.30225 2.651375,3.11825 z "/>
<path style="fill:none;stroke:#231f20;stroke-width:0.8;stroke-linecap:butt;stroke-linejoin:miter;stroke-miterlimit:4;stroke-opacity:1;stroke-dasharray:none;display:none" id="centre19" d="M 37.267125,82.055 0.0,82.055 "/>
<text>
<tspan x="34.919375 39.9218105" y="129.66391249999998" id="label19" style="font-size:7.19543791px;font-variant:normal;font-weight:normal;writing-mode:lr-tb;fill:#211c1d;fill-opacity:1;fill-rule:nonzero;stroke:none;font-family:Helvetica;-inkscape-font-specification:Helvetica">19</tspan>
</text>
</g>
</svg>
