<?xml version="1.0" encoding="UTF-8"?>
<svg xmlns:xlink="http://www.w3.org/1999/xlink" xmlns="http://www.w3.org/2000/svg" contentScriptType="text/ecmascript" zoomAndPan="magnify" contentStyleType="text/css" preserveAspectRatio="xMidYMid meet" version="1.0">
<g>
<path style="fill:#c9d9de;fill-opacity:1;fill-rule:nonzero;stroke:none" d="m 49.777375,125.38 -10.580125,-0.0 c 0.110375,-0.33 0.3345,-0.73125 0.663125,-1.1275 0.12150000000000001,-0.14875 0.256875,-0.2975 0.40475000000000005,-0.44500000000000006 0.443875,-0.43875 0.997625,-0.8550000000000001 1.625,-1.17875 l 0.537625,-0.2775 -0.0015,-0.00125 0.0,0.0 -0.464375,-0.24 -0.07175,-0.03625 c -0.54925,-0.285 -1.0430000000000001,-0.64 -1.4551250000000002,-1.02 -0.21475,-0.19750000000000004 -0.40762500000000007,-0.4025000000000001 -0.574625,-0.60625 -0.4907500000000001,-0.5925 -0.7485000000000002,-1.195 -0.74175,-1.5537500000000002 l 0.0,-1.9537500000000003 10.737375,0.0 0.0,1.9537500000000003 c 0.0,0.0050 0.0,0.00875 0.0,0.013750000000000002 5.0E-4,0.35875 -0.255375,0.9525 -0.737375,1.5375000000000003 -0.35687500000000005,0.44000000000000006 -0.8315,0.8800000000000001 -1.389125,1.255 -0.19925,0.13375 -0.40925,0.25875 -0.6280000000000001,0.3725 l -0.532625,0.27875 0.0010,0.0 -5.0E-4,-0.0 0.532625,0.2775 c 0.8311250000000001,0.43125 1.53225,1.02875 2.016625,1.625 0.32625000000000004,0.3950000000000001 0.549375,0.79625 0.6587500000000001,1.12625 " id="path3417"/>
<path style="fill:#595b5d;fill-opacity:1;fill-rule:nonzero;stroke:none" d="m 49.85600000000001,126.005 -10.737375,-0.0 0.0,-0.20000000000000004 c -0.001875,-0.1175 0.024500000000000004,-0.2625 0.078625,-0.42500000000000004 l 10.580125,0.0 c -0.10937500000000001,-0.33 -0.3325,-0.73125 -0.6587500000000001,-1.12625 -0.484375,-0.59625 -1.1855,-1.19375 -2.016625,-1.625 l -0.532625,-0.2775 5.0E-4,0.0 0.532125,0.27625 c 0.8311250000000001,0.43125 1.53225,1.02875 2.016625,1.625 0.48787500000000006,0.5925 0.743625,1.195 0.737375,1.5525 l 0.0,0.20000000000000004 m 0.625,-0.19875000000000004 0.0,-0.00125 c 0.0,0.00125 0.0,0.00125 0.0,0.00125 m -11.987375,-0.0 -0.002375,-0.0 0.0,-0.42625 0.05462500000000001,0.0 c 0.11625000000000002,-0.49 0.4121250000000001,-1.00875 0.830125,-1.5237500000000002 0.140625,-0.17125 0.295875,-0.34125000000000005 0.464375,-0.5075 -0.1685,0.16625 -0.32325,0.33625000000000005 -0.46337500000000004,0.5075 -0.5410000000000001,0.6675 -0.8765000000000001,1.34 -0.8833750000000001,1.9487500000000002 l 0.0,0.0 m 11.987375,-0.006250000000000001 c -0.0020,-0.13625 -0.0205,-0.27625 -0.05425,-0.41875 l 0.05425,0.0 0.0,0.41875 m -10.215875,-1.99125 c 0.443375,-0.43875 0.996625,-0.8562500000000001 1.624,-1.17875 l 0.537125,-0.27875 0.0015,0.00125 -0.537625,0.2775 c -0.627375,0.32375 -1.1811250000000002,0.74 -1.625,1.17875 m 1.4805,-1.4575000000000002 0.0,0.0 0.1435,-0.2775 c -0.54925,-0.28375 -1.0425,-0.63875 -1.454125,-1.01875 0.4121250000000001,0.38000000000000006 0.905875,0.735 1.4551250000000002,1.02 l 0.07175,0.03625 -0.07275000000000001,-0.0375 -0.1435,0.2775 m 6.130375,0.0 c -5.0E-4,-0.0 -5.0E-4,-0.0 -5.0E-4,-0.0 0.078625,-0.04875000000000001 0.15575,-0.09875000000000002 0.23137500000000003,-0.15 -0.075625,0.051250000000000004 -0.15275,0.10125000000000002 -0.230875,0.15 m -0.1465,-0.65 c 0.557625,-0.37500000000000006 1.03225,-0.8150000000000001 1.389125,-1.255 0.482,-0.585 0.737875,-1.17875 0.737375,-1.5375000000000003 5.0E-4,0.35875 -0.254875,0.95375 -0.737375,1.53875 -0.35687500000000005,0.43875 -0.8315,0.8800000000000001 -1.389125,1.25375 m -7.724125000000001,-0.19125000000000003 c -0.233375,-0.21625000000000003 -0.4443750000000001,-0.44000000000000006 -0.629375,-0.66625 -0.5415000000000001,-0.6675 -0.878,-1.33875 -0.8847500000000001,-1.9487500000000002 l 0.0,-2.5787500000000003 0.002375,0.0 0.0,2.5787500000000003 c 0.006875000000000001,0.61 0.342375,1.2825 0.8833750000000001,1.9487500000000002 0.1845,0.22625000000000003 0.3955,0.45000000000000007 0.628375,0.66625 m 9.850625,-2.615 0.0,-1.9537500000000003 -10.737375,-0.0 0.0,-0.625 10.737375,0.0 0.0,2.5787500000000003 " id="path3419"/>
<path style="fill:#706e71;fill-opacity:1;fill-rule:nonzero;stroke:none" d="m 39.118625,106.82374999999999 10.737300000000001,0.0 0.0,-11.26855 -10.737300000000001,-0.0 0.0,11.26855 z " id="path3427"/>
<path style="fill:#706e71;fill-opacity:1;fill-rule:nonzero;stroke:none" d="m 39.118625,78.04374999999999 10.737300000000001,0.0 0.0,-5.6044875 -10.737300000000001,-0.0 0.0,5.6044875 z " id="path3429"/>
<path style="fill:#706e71;fill-opacity:1;fill-rule:nonzero;stroke:none" d="m 39.118625,71.245 10.737300000000001,0.0 0.0,-6.056150000000001 -10.737300000000001,-0.0 0.0,6.056150000000001 z " id="path3431"/>
<path style="fill:#706e71;fill-opacity:1;fill-rule:nonzero;stroke:none" d="m 39.118625,185.68124999999998 10.737300000000001,0.0 0.0,-6.285150000000001 -10.737300000000001,-0.0 0.0,6.285150000000001 z " id="path3433"/>
<path style="fill:#706e71;fill-opacity:1;fill-rule:nonzero;stroke:none" d="m 39.118625,190.44 10.737300000000001,0.0 0.0,-3.5639625 -10.737300000000001,-0.0 0.0,3.5639625 z " id="path3435"/>
<path style="fill:#f3f3f4;fill-opacity:1;fill-rule:nonzero;stroke:none" d="m 39.118625,42.32874999999996 10.737300000000001,0.0 0.0,-2.9336 -10.737300000000001,-0.0 0.0,2.9336 z " id="path3437"/>
<path style="fill:#706e71;fill-opacity:1;fill-rule:nonzero;stroke:none" d="m 49.85600000000001,42.40625 -10.737375,-0.0 0.0,-0.0775 10.737375,0.0 0.0,0.0775 m 0.0,-3.0112500000000004 -10.737375,-0.0 0.0,-0.0775 10.737375,0.0 0.0,0.0775 " id="path3439"/>
<path style="fill:#f3f3f4;fill-opacity:1;fill-rule:nonzero;stroke:none" d="m 39.118625,144.31999999999996 10.737300000000001,0.0 0.0,-3.4086875000000005 -10.737300000000001,-0.0 0.0,3.4086875000000005 z " id="path3441"/>
<path style="fill:#706e71;fill-opacity:1;fill-rule:nonzero;stroke:none" d="m 49.85600000000001,144.39749999999998 -10.737375,-0.0 0.0,-0.0775 10.737375,0.0 0.0,0.0775 m 0.0,-3.48625 -10.737375,-0.0 0.0,-0.0775 10.737375,0.0 0.0,0.0775 " id="path3443"/>
<path style="fill:#f3f3f4;fill-opacity:1;fill-rule:nonzero;stroke:none" d="m 39.118625,176.72375 10.737300000000001,0.0 0.0,-4.5390625 -10.737300000000001,-0.0 0.0,4.5390625 z " id="path3445"/>
<path style="fill:#706e71;fill-opacity:1;fill-rule:nonzero;stroke:none" d="m 49.85600000000001,176.80124999999998 -10.737375,-0.0 0.0,-0.0775 10.737375,0.0 0.0,0.0775 m 0.0,-4.61625 -10.737375,-0.0 0.0,-0.0775 10.737375,0.0 0.0,0.0775 " id="path3447"/>
<path style="fill:#f3f3f4;fill-opacity:1;fill-rule:nonzero;stroke:none" d="m 39.118625,194.8525 10.737300000000001,0.0 0.0,-2.7246125000000005 -10.737300000000001,-0.0 0.0,2.7246125000000005 z " id="path3449"/>
<path style="fill:#706e71;fill-opacity:1;fill-rule:nonzero;stroke:none" d="m 49.85600000000001,194.92999999999998 -10.737375,-0.0 0.0,-0.0775 10.737375,0.0 0.0,0.0775 m 0.0,-2.8025000000000007 -10.737375,-0.0 0.0,-0.0775 10.737375,0.0 0.0,0.0775 " id="path3451"/>
<path style="fill:#706e71;fill-opacity:1;fill-rule:nonzero;stroke:none" d="m 39.118625,299.20875 10.737300000000001,0.0 0.0,-6.5112250000000005 -10.737300000000001,-0.0 0.0,6.5112250000000005 z " id="path3453"/>
<path style="fill:#706e71;fill-opacity:1;fill-rule:nonzero;stroke:none" d="m 39.118625,278.360125 10.737300000000001,0.0 0.0,-8.32275 -10.737300000000001,-0.0 0.0,8.32275 z " id="path3455"/>
<path style="fill:#7a7e82;fill-opacity:1;fill-rule:nonzero;stroke:none" d="m 38.796375,34.88999999999993 11.3818375,0.0 0.0,-5.729975 -11.3818375,-0.0 0.0,5.729975 z " id="path3457"/>
<path style="fill:#211c1d;fill-opacity:1;fill-rule:nonzero;stroke:none" d="m 50.178250000000006,34.88999999999993 0.0,-0.03875 -11.343250000000001,-0.0 0.0,-5.65125 11.304625,0.0 0.0,5.69 0.038625,0.0 0.0,-0.03875 0.0,0.03875 0.0385,0.0 0.0,-5.7675 -11.459,-0.0 0.0,5.8075 11.459,0.0 0.0,-0.04 -0.0385,-0.0 " id="path3459"/>
<path style="fill:#7a7e82;fill-opacity:1;fill-rule:nonzero;stroke:none" d="m 38.796375,26.72999999999996 11.3818375,0.0 0.0,-5.5024375 -11.3818375,-0.0 0.0,5.5024375 z " id="path3461"/>
<path style="fill:#211c1d;fill-opacity:1;fill-rule:nonzero;stroke:none" d="m 50.178250000000006,26.72999999999996 0.0,-0.03875 -11.343250000000001,-0.0 0.0,-5.425 11.304625,0.0 0.0,5.463750000000001 0.038625,0.0 0.0,-0.03875 0.0,0.03875 0.0385,0.0 0.0,-5.54125 -11.459,-0.0 0.0,5.58 11.459,0.0 0.0,-0.03875 -0.0385,-0.0 " id="path3463"/>
<path style="fill:#7a7e82;fill-opacity:1;fill-rule:nonzero;stroke:none" d="m 38.796375,50.75124999999997 11.3818375,0.0 0.0,-5.9555625 -11.3818375,-0.0 0.0,5.9555625 z " id="path3465"/>
<path style="fill:#211c1d;fill-opacity:1;fill-rule:nonzero;stroke:none" d="m 50.178250000000006,50.75124999999997 0.0,-0.03875 -11.343250000000001,-0.0 0.0,-5.87875 11.304625,0.0 0.0,5.917500000000001 0.038625,0.0 0.0,-0.03875 0.0,0.03875 0.0385,0.0 0.0,-5.995 -11.459,-0.0 0.0,6.033750000000001 11.459,0.0 0.0,-0.03875 -0.0385,-0.0 " id="path3467"/>
<path style="fill:#7a7e82;fill-opacity:1;fill-rule:nonzero;stroke:none" d="m 38.796375,206.2215 11.3818375,0.0 0.0,-6.432612500000001 -11.3818375,-0.0 0.0,6.432612500000001 z " id="path3469"/>
<path style="fill:#211c1d;fill-opacity:1;fill-rule:nonzero;stroke:none" d="m 50.178250000000006,206.2215 0.0,-0.039125 -11.343250000000001,-0.0 0.0,-6.354875 11.304625,0.0 0.0,6.394000000000001 0.038625,0.0 0.0,-0.039125 0.0,0.039125 0.0385,0.0 0.0,-6.4715 -11.459,-0.0 0.0,6.51 11.459,0.0 0.0,-0.0385 -0.0385,-0.0 " id="path3471"/>
<path style="fill:#7a7e82;fill-opacity:1;fill-rule:nonzero;stroke:none" d="m 38.796375,218.45874999999998 11.3818375,0.0 0.0,-7.7915 -11.3818375,-0.0 0.0,7.7915 z " id="path3473"/>
<path style="fill:#211c1d;fill-opacity:1;fill-rule:nonzero;stroke:none" d="m 50.178250000000006,218.45874999999998 0.0,-0.0385 -11.343250000000001,-0.0 0.0,-7.713875 11.304625,0.0 0.0,7.752375000000001 0.038625,0.0 0.0,-0.0385 0.0,0.0385 0.0385,0.0 0.0,-7.83 -11.459,-0.0 0.0,7.868625 11.459,0.0 0.0,-0.038625 -0.0385,-0.0 " id="path3475"/>
<path style="fill:#7a7e82;fill-opacity:1;fill-rule:nonzero;stroke:none" d="m 38.796375,243.83862499999998 11.3818375,0.0 0.0,-8.2461 -11.3818375,-0.0 0.0,8.2461 z " id="path3477"/>
<path style="fill:#211c1d;fill-opacity:1;fill-rule:nonzero;stroke:none" d="m 50.178250000000006,243.83862499999998 0.0,-0.0385 -11.343250000000001,-0.0 0.0,-8.169 11.304625,0.0 0.0,8.2075 0.038625,0.0 0.0,-0.0385 0.0,0.0385 0.0385,0.0 0.0,-8.285125 -11.459,-0.0 0.0,8.32425 11.459,0.0 0.0,-0.039125 -0.0385,-0.0 " id="path3479"/>
<path style="fill:#7a7e82;fill-opacity:1;fill-rule:nonzero;stroke:none" d="m 38.796375,291.423625 11.3818375,0.0 0.0,-5.073725 -11.3818375,-0.0 0.0,5.073725 z " id="path3481"/>
<path style="fill:#211c1d;fill-opacity:1;fill-rule:nonzero;stroke:none" d="m 50.178250000000006,291.423625 0.0,-0.038625 -11.343250000000001,-0.0 0.0,-4.996 11.304625,0.0 0.0,5.034625 0.038625,0.0 0.0,-0.038625 0.0,0.038625 0.0385,0.0 0.0,-5.11225 -11.459,-0.0 0.0,5.151375 11.459,0.0 0.0,-0.039125 -0.0385,-0.0 " id="path3483"/>
<path style="fill:#7a7e82;fill-opacity:1;fill-rule:nonzero;stroke:none" d="m 38.796375,253.80737499999998 11.3818375,0.0 0.0,-6.8847625 -11.3818375,-0.0 0.0,6.8847625 z " id="path3485"/>
<path style="fill:#211c1d;fill-opacity:1;fill-rule:nonzero;stroke:none" d="m 50.178250000000006,253.80737499999998 0.0,-0.0385 -11.343250000000001,-0.0 0.0,-6.807625000000001 11.304625,0.0 0.0,6.846125000000001 0.038625,0.0 0.0,-0.0385 0.0,0.0385 0.0385,0.0 0.0,-6.923750000000001 -11.459,-0.0 0.0,6.962875 11.459,0.0 0.0,-0.039125 -0.0385,-0.0 " id="path3487"/>
<path style="fill:#bbbcbd;fill-opacity:1;fill-rule:nonzero;stroke:none" d="m 38.796375,137.78749999999997 11.3818375,0.0 0.0,-5.0722625 -11.3818375,-0.0 0.0,5.0722625 z " id="path3489"/>
<path style="fill:#211c1d;fill-opacity:1;fill-rule:nonzero;stroke:none" d="m 50.178250000000006,137.78749999999997 0.0,-0.03875 -11.343250000000001,-0.0 0.0,-4.995000000000001 11.304625,0.0 0.0,5.03375 0.038625,0.0 0.0,-0.03875 0.0,0.03875 0.0385,0.0 0.0,-5.11125 -11.459,-0.0 0.0,5.15 11.459,0.0 0.0,-0.03875 -0.0385,-0.0 " id="path3491"/>
<path style="fill:#bbbcbd;fill-opacity:1;fill-rule:nonzero;stroke:none" d="m 38.796375,13.136249999999961 11.3818375,0.0 0.0,-4.145025 -11.3818375,-0.0 0.0,4.145025 z " id="path3493"/>
<path style="fill:#211c1d;fill-opacity:1;fill-rule:nonzero;stroke:none" d="m 50.178250000000006,13.136249999999961 0.0,-0.03875 -11.343250000000001,-0.0 0.0,-4.0675 11.304625,0.0 0.0,4.10625 0.038625,0.0 0.0,-0.03875 0.0,0.03875 0.0385,0.0 0.0,-4.18375 -11.459,-0.0 0.0,4.2225 11.459,0.0 0.0,-0.03875 -0.0385,-0.0 " id="path3495"/>
<path style="fill:#bbbcbd;fill-opacity:1;fill-rule:nonzero;stroke:none" d="m 38.796375,57.548749999999984 11.3818375,0.0 0.0,-4.14355 -11.3818375,-0.0 0.0,4.14355 z " id="path3497"/>
<path style="fill:#211c1d;fill-opacity:1;fill-rule:nonzero;stroke:none" d="m 50.178250000000006,57.548749999999984 0.0,-0.03875 -11.343250000000001,-0.0 0.0,-4.06625 11.304625,0.0 0.0,4.105 0.038625,0.0 0.0,-0.03875 0.0,0.03875 0.0385,0.0 0.0,-4.18375 -11.459,-0.0 0.0,4.221250000000001 11.459,0.0 0.0,-0.0375 -0.0385,-0.0 " id="path3499"/>
<path style="fill:#bbbcbd;fill-opacity:1;fill-rule:nonzero;stroke:none" d="m 38.796375,155.00875 11.3818375,0.0 0.0,-5.069825 -11.3818375,-0.0 0.0,5.069825 z " id="path3501"/>
<path style="fill:#211c1d;fill-opacity:1;fill-rule:nonzero;stroke:none" d="m 50.178250000000006,155.00875 0.0,-0.03875 -11.343250000000001,-0.0 0.0,-4.9925 11.304625,0.0 0.0,5.03125 0.038625,0.0 0.0,-0.03875 0.0,0.03875 0.0385,0.0 0.0,-5.10875 -11.459,-0.0 0.0,5.147500000000001 11.459,0.0 0.0,-0.03875 -0.0385,-0.0 " id="path3503"/>
<path style="fill:#bbbcbd;fill-opacity:1;fill-rule:nonzero;stroke:none" d="m 38.796375,167.24624999999997 11.3818375,0.0 0.0,-5.9765625 -11.3818375,-0.0 0.0,5.9765625 z " id="path3505"/>
<path style="fill:#211c1d;fill-opacity:1;fill-rule:nonzero;stroke:none" d="m 50.178250000000006,167.24624999999997 0.0,-0.03875 -11.343250000000001,-0.0 0.0,-5.898750000000001 11.304625,0.0 0.0,5.9375 0.038625,0.0 0.0,-0.03875 0.0,0.03875 0.0385,0.0 0.0,-6.015000000000001 -11.459,-0.0 0.0,6.05375 11.459,0.0 0.0,-0.03875 -0.0385,-0.0 " id="path3507"/>
<path style="fill:#bbbcbd;fill-opacity:1;fill-rule:nonzero;stroke:none" d="m 38.796375,233.18725 11.3818375,0.0 0.0,-3.4873 -11.3818375,-0.0 0.0,3.4873 z " id="path3509"/>
<path style="fill:#211c1d;fill-opacity:1;fill-rule:nonzero;stroke:none" d="m 50.178250000000006,233.18725 0.0,-0.0385 -11.343250000000001,-0.0 0.0,-3.410125 11.304625,0.0 0.0,3.4486250000000003 0.038625,0.0 0.0,-0.0385 0.0,0.0385 0.0385,0.0 0.0,-3.5258750000000005 -11.459,-0.0 0.0,3.5650000000000004 11.459,0.0 0.0,-0.039125 -0.0385,-0.0 " id="path3511"/>
<path style="fill:#bbbcbd;fill-opacity:1;fill-rule:nonzero;stroke:none" d="m 38.796375,265.365 11.3818375,0.0 0.0,-3.4848625000000006 -11.3818375,-0.0 0.0,3.4848625000000006 z " id="path3513"/>
<path style="fill:#211c1d;fill-opacity:1;fill-rule:nonzero;stroke:none" d="m 50.178250000000006,265.365 0.0,-0.0385 -11.343250000000001,-0.0 0.0,-3.4077500000000005 11.304625,0.0 0.0,3.44625 0.038625,0.0 0.0,-0.0385 0.0,0.0385 0.0385,0.0 0.0,-3.5238750000000003 -11.459,-0.0 0.0,3.5625 11.459,0.0 0.0,-0.038625 -0.0385,-0.0 " id="path3515"/>
<path style="fill:#bbbcbd;fill-opacity:1;fill-rule:nonzero;stroke:none" d="m 38.796375,307.966125 11.3818375,0.0 0.0,-2.3535125 -11.3818375,-0.0 0.0,2.3535125 z " id="path3517"/>
<path style="fill:#211c1d;fill-opacity:1;fill-rule:nonzero;stroke:none" d="m 50.178250000000006,307.966125 0.0,-0.038625 -11.343250000000001,-0.0 0.0,-2.276375 11.304625,0.0 0.0,2.315 0.038625,0.0 0.0,-0.038625 0.0,0.038625 0.0385,0.0 0.0,-2.392625 -11.459,-0.0 0.0,2.431625 11.459,0.0 0.0,-0.039 -0.0385,-0.0 " id="path3519"/>
<path style="fill:#bbbcbd;fill-opacity:1;fill-rule:nonzero;stroke:none" d="m 38.796375,93.57999999999996 11.3818375,0.0 0.0,-3.0107375000000003 -11.3818375,-0.0 0.0,3.0107375000000003 z " id="path3521"/>
<path style="fill:#211c1d;fill-opacity:1;fill-rule:nonzero;stroke:none" d="m 50.178250000000006,93.57999999999996 0.0,-0.03875 -11.343250000000001,-0.0 0.0,-2.9325 11.304625,0.0 0.0,2.9712500000000004 0.038625,0.0 0.0,-0.03875 0.0,0.03875 0.0385,0.0 0.0,-3.05 -11.459,-0.0 0.0,3.08875 11.459,0.0 0.0,-0.03875 -0.0385,-0.0 " id="path3523"/>
<path style="fill:#bbbcbd;fill-opacity:1;fill-rule:nonzero;stroke:none" d="m 38.796375,86.55499999999995 11.3818375,0.0 0.0,-4.14355 -11.3818375,-0.0 0.0,4.14355 z " id="path3525"/>
<path style="fill:#211c1d;fill-opacity:1;fill-rule:nonzero;stroke:none" d="m 50.178250000000006,86.55499999999995 0.0,-0.03875 -11.343250000000001,-0.0 0.0,-4.06625 11.304625,0.0 0.0,4.105 0.038625,0.0 0.0,-0.03875 0.0,0.03875 0.0385,0.0 0.0,-4.1825 -11.459,-0.0 0.0,4.22 11.459,0.0 0.0,-0.0375 -0.0385,-0.0 " id="path3527"/>
<path style="fill:#706e71;fill-opacity:1;fill-rule:nonzero;stroke:none" d="m 44.48725,317.3264625 c -2.412,-0.0087875 -4.480875,-0.6362250000000002 -5.462875,-1.6650875 -0.325625,-0.346125 -0.53125,-0.7611250000000002 -0.53075,-1.213875 l 0.0,-188.6425 0.310125,0.00125 0.0,0.19875000000000004 0.314875,0.0 0.0,6.67125 -0.360875,-0.0 0.0,5.15 0.360875,0.0 0.0,3.0075000000000003 -0.360875,-0.0 0.0,3.5637500000000006 0.360875,0.0 0.0,5.5025 -0.360875,-0.0 0.0,5.147500000000001 0.360875,0.0 0.0,6.18375 -0.360875,-0.0 0.0,6.05375 0.360875,0.0 0.0,4.8225 -0.360875,-0.0 0.0,4.69375 0.360875,0.0 0.0,2.595 -0.32225,-0.0 0.0,6.285 0.32225,0.0 0.0,1.195 -0.32225,-0.0 0.0,3.5637500000000006 0.32225,0.0 0.0,1.6100000000000003 -0.360875,-0.0 0.0,2.88 0.360875,0.0 0.0,4.82 -0.360875,-0.0 0.0,6.51 0.360875,0.0 0.0,4.36875 -0.360875,-0.0 0.0,7.868625 0.360875,0.0 0.0,11.164000000000001 -0.360875,-0.0 0.0,3.5650000000000004 0.360875,0.0 0.0,2.327125 -0.360875,-0.0 0.0,8.32425 0.360875,0.0 0.0,3.005875 -0.360875,-0.0 0.0,6.962875 0.360875,0.0 0.0,7.994625000000001 -0.360875,-0.0 0.0,3.5625 0.360875,0.0 0.0,4.63375 -0.32225,-0.0 0.0,8.32275 0.32225,0.0 0.0,7.951250000000001 -0.360875,-0.0 0.0,5.151375 0.360875,0.0 0.0,1.23475 -0.32225,-0.0 0.0,6.51125 0.32225,0.0 0.0,6.36475 -0.360875,-0.0 0.0,2.431625 0.360875,0.0 0.0,6.442375 c 5.0E-4,0.258875 0.112875,0.5186250000000001 0.36187500000000006,0.78625 0.24800000000000003,0.266 0.6308750000000001,0.524875 1.117625,0.745 0.9731250000000001,0.44000000000000006 2.3545,0.7227125 3.8828750000000003,0.7227125 0.001875,0.0 0.004375,0.0 0.006250000000000001,0.0 0.015250000000000001,0.0 0.029875000000000002,0.0 0.045,0.0 2.276875,0.0 4.224625,-0.6602125000000001 4.961875,-1.4677125 0.2495,-0.267625 0.361375,-0.527375 0.36187500000000006,-0.78625 l 0.0,-6.442375 0.36075,0.0 0.0,-2.431625 -0.36075,-0.0 0.0,-6.36475 0.32225,0.0 0.0,-6.51125 -0.32225,-0.0 0.0,-1.23475 0.36075,0.0 0.0,-5.151375 -0.36075,-0.0 0.0,-7.951250000000001 0.32225,0.0 0.0,-8.32275 -0.32225,-0.0 0.0,-4.63375 0.36075,0.0 0.0,-3.5625 -0.36075,-0.0 0.0,-7.994625000000001 0.36075,0.0 0.0,-6.962875 -0.36075,-0.0 0.0,-3.005875 0.36075,0.0 0.0,-8.32425 -0.36075,-0.0 0.0,-2.327125 0.36075,0.0 0.0,-3.5650000000000004 -0.36075,-0.0 0.0,-11.164000000000001 0.36075,0.0 0.0,-7.868625 -0.36075,-0.0 0.0,-4.36875 0.36075,0.0 0.0,-6.51 -0.36075,-0.0 0.0,-4.82 0.36075,0.0 0.0,-2.88 -0.36075,-0.0 0.0,-1.6100000000000003 0.32225,0.0 0.0,-3.5637500000000006 -0.32225,-0.0 0.0,-1.195 0.32225,0.0 0.0,-6.285 -0.32225,-0.0 0.0,-2.595 0.36075,0.0 0.0,-4.69375 -0.36075,-0.0 0.0,-4.8225 0.36075,0.0 0.0,-6.05375 -0.36075,-0.0 0.0,-6.18375 0.36075,0.0 0.0,-5.147500000000001 -0.36075,-0.0 0.0,-5.5025 0.36075,0.0 0.0,-3.5637500000000006 -0.36075,-0.0 0.0,-3.0075000000000003 0.36075,0.0 0.0,-5.15 -0.36075,-0.0 0.0,-6.67125 0.3125,0.0 0.0,-0.19875000000000004 0.3125,0.0 0.0,188.64125 c 5.0E-4,0.45275000000000004 -0.20512500000000003,0.86775 -0.530375,1.213875 -0.32662500000000005,0.34725 -0.7758750000000001,0.6411250000000001 -1.316875,0.8862500000000001 -1.0815,0.4873375 -2.538,0.7788375000000001 -4.1465,0.7788375000000001 m 5.993750000000001,-191.5202125 c 0.0,-0.0025 0.0,-0.00375 0.0,-0.006250000000000001 l 0.0,-0.00125 c 0.0,0.0025 0.0,0.0050 0.0,0.006250000000000001 l 0.0,0.0 m -0.05425,-0.42500000000000004 -5.0E-4,-0.0 c -0.11525,-0.48875 -0.408125,-1.00625 -0.82275,-1.5212500000000002 -0.441875,-0.5425 -1.03025,-1.07375 -1.7280000000000002,-1.50875 0.0,0.0 0.0,0.0 5.0E-4,0.0 0.6972500000000001,0.43500000000000005 1.285625,0.9662500000000002 1.7275,1.5075000000000003 0.4146250000000001,0.515 0.7075,1.0325000000000002 0.82325,1.5225 m -10.586375,-2.03125 c 0.36475,-0.36 0.7928750000000001,-0.70125 1.272375,-0.99875 -0.408625,-0.2525 -0.7802500000000001,-0.54 -1.107375,-0.84125 0.327125,0.30125 0.69925,0.58875 1.108375,0.8425 -0.4795,0.29625 -0.9081250000000001,0.6375 -1.273375,0.9975 m 8.2665,-1.1487500000000002 c 0.5967500000000001,-0.40625 1.104125,-0.8787500000000001 1.496625,-1.36 0.537125,-0.6675 0.8711250000000001,-1.33875 0.8775,-1.9462500000000003 l 0.0,-2.5787500000000003 -0.625,-0.0 0.0,-9.49125 0.32225,0.0 0.0,-11.26875 -0.32225,-0.0 0.0,-1.9362500000000002 0.36075,0.0 0.0,-3.08875 -0.36075,-0.0 0.0,-3.9375000000000004 0.36075,0.0 0.0,-4.22 -0.36075,-0.0 0.0,-4.32875 0.32225,0.0 0.0,-5.60375 -0.32225,-0.0 0.0,-1.195 0.32225,0.0 0.0,-6.05625 -0.32225,-0.0 0.0,-7.602500000000001 0.36075,0.0 0.0,-4.221250000000001 -0.36075,-0.0 0.0,-2.575 0.36075,0.0 0.0,-6.033750000000001 -0.36075,-0.0 0.0,-2.35 0.36075,0.0 0.0,-3.08875 -0.36075,-0.0 0.0,-4.3875 0.36075,0.0 0.0,-5.8075 -0.36075,-0.0 0.0,-2.35375 0.36075,0.0 0.0,-5.58 -0.36075,-0.0 0.0,-8.01375 0.36075,0.0 0.0,-4.2225 -0.36075,-0.0 0.0,-6.07875 c -5.0E-4,-0.25625 -0.112375,-0.5162500000000001 -0.36187500000000006,-0.78375 -0.24800000000000003,-0.26625 -0.6303750000000001,-0.525 -1.117625,-0.745 -0.97275,-0.44000000000000006 -2.354,-0.7237500000000001 -3.8828750000000003,-0.7237500000000001 -0.001875,-0.0 -0.004375,-0.0 -0.0063750000000000005,-0.0 -0.015125,-0.0 -0.029750000000000002,-0.0 -0.044875,-0.0 -2.275875,-0.0 -4.224125,0.66125 -4.961875,1.46875 -0.2495,0.2675 -0.361375,0.5275 -0.36187500000000006,0.78375 l 0.0,6.07875 -0.360875,-0.0 0.0,4.2225 0.360875,0.0 0.0,8.01375 -0.360875,-0.0 0.0,5.58 0.360875,0.0 0.0,2.35375 -0.360875,-0.0 0.0,5.8075 0.360875,0.0 0.0,4.3875 -0.360875,-0.0 0.0,3.08875 0.360875,0.0 0.0,2.35 -0.360875,-0.0 0.0,6.033750000000001 0.360875,0.0 0.0,2.575 -0.360875,-0.0 0.0,4.221250000000001 0.360875,0.0 0.0,7.602500000000001 -0.32225,-0.0 0.0,6.05625 0.32225,0.0 0.0,1.195 -0.32225,-0.0 0.0,5.60375 0.32225,0.0 0.0,4.32875 -0.360875,-0.0 0.0,4.22 0.360875,0.0 0.0,3.9375000000000004 -0.360875,-0.0 0.0,3.08875 0.360875,0.0 0.0,1.9362500000000002 -0.32225,-0.0 0.0,11.26875 0.32225,0.0 0.0,9.49125 -0.625,-0.0 0.0,-113.44125 c -5.0E-4,-0.45000000000000007 0.205625,-0.8662500000000001 0.53075,-1.21125 0.32675000000000004,-0.3475 0.7758750000000001,-0.64125 1.316875,-0.8862500000000001 1.081625,-0.48750000000000004 2.538125,-0.7787500000000002 4.146,-0.7800000000000001 2.413125,0.00875 4.4815,0.6375 5.463,1.6662500000000002 0.325125,0.345 0.53125,0.76125 0.53075,1.21125 l 0.0,116.02000000000001 c -0.0063750000000000005,0.6075 -0.339875,1.28 -0.8775,1.9462500000000003 -0.39212500000000006,0.48250000000000004 -0.899875,0.9550000000000001 -1.496625,1.36 " id="path3529"/>
<path style="fill:#595e64;fill-opacity:1;fill-rule:nonzero;stroke:none" d="m 39.19725,125.38 -0.0020,-0.0 c 0.110375,-0.33 0.3345,-0.73125 0.663625,-1.1275 0.12212500000000001,-0.14875 0.258375,-0.2975 0.40625,-0.44500000000000006 -0.14787500000000003,0.1475 -0.28325,0.29625 -0.40475000000000005,0.44500000000000006 -0.32862500000000006,0.39625 -0.55275,0.7975 -0.663125,1.1275 m 7.372625,-3.02875 -0.0010,-0.0 0.532625,-0.27875 c 0.21875000000000003,-0.11375000000000002 0.42875,-0.23875000000000002 0.6280000000000001,-0.3725 -0.19925,0.13375 -0.40925,0.26 -0.6280000000000001,0.37375 l -0.531625,0.2775 m -4.143625,-0.00125 -0.464375,-0.24 0.464375,0.24 0.0,0.0 m -1.99125,-1.29625 c -0.21525000000000002,-0.19750000000000004 -0.408625,-0.4025000000000001 -0.576125,-0.6075 -0.49125,-0.5925 -0.7495,-1.195 -0.742625,-1.5525 l 0.0,-1.9537500000000003 0.002375,0.0 0.0,1.9537500000000003 c -0.006750000000000001,0.35875 0.251,0.9612500000000002 0.74175,1.5537500000000002 0.16700000000000004,0.20375000000000001 0.359875,0.40875 0.574625,0.60625 m 9.421,-2.14625 c 0.0,-0.0050 0.0,-0.00875 0.0,-0.013750000000000002 l 0.0,0.0 c 0.0,0.0050 0.0,0.00875 0.0,0.013750000000000002 " id="path3531"/>
<path style="fill:#353233;fill-opacity:1;fill-rule:nonzero;stroke:none" d="m 50.16850000000001,126.005 -0.3125,-0.0 0.0,-0.20000000000000004 c 0.006250000000000001,-0.3575 -0.2495,-0.96 -0.737375,-1.5525 -0.484375,-0.59625 -1.1855,-1.19375 -2.016625,-1.625 l -0.532125,-0.27625 0.531625,-0.2775 c 0.21875000000000003,-0.11375000000000002 0.42875,-0.24 0.6280000000000001,-0.37375 0.557625,-0.37375 1.03225,-0.8150000000000001 1.389125,-1.25375 0.48250000000000004,-0.585 0.737875,-1.18 0.737375,-1.53875 0.0,-0.0050 0.0,-0.00875 0.0,-0.013750000000000002 l 0.0,-2.5787500000000003 0.625,0.0 0.0,2.5787500000000003 c -0.0063750000000000005,0.6075 -0.340375,1.27875 -0.8775,1.9462500000000003 -0.39250000000000007,0.48125 -0.899875,0.95375 -1.496625,1.36 -0.075625,0.051250000000000004 -0.15275,0.10125000000000002 -0.23137500000000003,0.15 0.0,0.0 0.0,0.0 5.0E-4,0.0 -5.0E-4,-0.0 -5.0E-4,-0.0 -5.0E-4,-0.0 0.6977500000000001,0.43500000000000005 1.286125,0.9662500000000002 1.7280000000000002,1.50875 0.4146250000000001,0.515 0.7075,1.0325000000000002 0.82275,1.5212500000000002 l 5.0E-4,0.0 c 0.03375,0.1425 0.052250000000000005,0.2825 0.05425,0.41875 l 0.0,0.00125 c 0.0,0.0025 0.0,0.00375 0.0,0.006250000000000001 l 0.0,-0.00125 0.0,0.00125 -0.3125,-0.0 0.0,0.19875000000000004 m -11.049875,-0.0 -0.314875,-0.0 0.0,-0.19875000000000004 -0.310125,-0.0 0.0,-0.00125 c 0.006875000000000001,-0.60875 0.342375,-1.2812500000000002 0.8833750000000001,-1.9487500000000002 0.140125,-0.17125 0.294875,-0.34125000000000005 0.46337500000000004,-0.5075 0.36525,-0.36 0.793875,-0.70125 1.273375,-0.9975 -0.40912500000000007,-0.25375 -0.78125,-0.54125 -1.108375,-0.8425 -0.23287500000000003,-0.21625000000000003 -0.443875,-0.44000000000000006 -0.628375,-0.66625 -0.5410000000000001,-0.66625 -0.8765000000000001,-1.33875 -0.8833750000000001,-1.9487500000000002 l 0.0,-2.5787500000000003 0.625,0.0 0.0,0.625 -0.002375,-0.0 0.0,1.9537500000000003 c -0.006875000000000001,0.3575 0.251375,0.96 0.742625,1.5525 0.1675,0.20500000000000002 0.360875,0.41000000000000003 0.576125,0.6075 0.411625,0.38000000000000006 0.904875,0.735 1.454125,1.01875 l -0.1435,0.2775 0.1435,-0.2775 0.07275000000000001,0.0375 0.464375,0.24 -0.537125,0.27875 c -0.627375,0.3225 -1.180625,0.74 -1.624,1.17875 -0.14787500000000003,0.1475 -0.284125,0.29625 -0.40625,0.44500000000000006 -0.32912500000000006,0.39625 -0.55325,0.7975 -0.663625,1.1275 l 0.0020,0.0 c -0.054125000000000006,0.1625 -0.0805,0.3075 -0.078625,0.42500000000000004 l 0.0,0.20000000000000004 m -0.002375,-0.19875000000000004 0.0,0.0 " id="path3533"/>
<path style="fill:#3d393b;fill-opacity:1;fill-rule:nonzero;stroke:none" d="m 50.178250000000006,106.82374999999999 -0.32225,-0.0 0.0,-11.26875 0.32225,0.0 0.0,11.26875 m -11.059625000000002,-0.0 -0.32225,-0.0 0.0,-11.26875 0.32225,0.0 0.0,11.26875 " id="path3535"/>
<path style="fill:#3d393b;fill-opacity:1;fill-rule:nonzero;stroke:none" d="m 50.178250000000006,78.04374999999999 -0.32225,-0.0 0.0,-5.60375 0.32225,0.0 0.0,5.60375 m -11.059625000000002,-0.0 -0.32225,-0.0 0.0,-5.60375 0.32225,0.0 0.0,5.60375 " id="path3537"/>
<path style="fill:#3d393b;fill-opacity:1;fill-rule:nonzero;stroke:none" d="m 50.178250000000006,71.245 -0.32225,-0.0 0.0,-6.05625 0.32225,0.0 0.0,6.05625 m -11.059625000000002,-0.0 -0.32225,-0.0 0.0,-6.05625 0.32225,0.0 0.0,6.05625 " id="path3539"/>
<path style="fill:#3d393b;fill-opacity:1;fill-rule:nonzero;stroke:none" d="m 50.178250000000006,185.68124999999998 -0.32225,-0.0 0.0,-6.285 0.32225,0.0 0.0,6.285 m -11.059625000000002,-0.0 -0.32225,-0.0 0.0,-6.285 0.32225,0.0 0.0,6.285 " id="path3541"/>
<path style="fill:#3d393b;fill-opacity:1;fill-rule:nonzero;stroke:none" d="m 50.178250000000006,190.44 -0.32225,-0.0 0.0,-3.5637500000000006 0.32225,0.0 0.0,3.5637500000000006 m -11.059625000000002,-0.0 -0.32225,-0.0 0.0,-3.5637500000000006 0.32225,0.0 0.0,3.5637500000000006 " id="path3543"/>
<path style="fill:#69686b;fill-opacity:1;fill-rule:nonzero;stroke:none" d="m 50.13962500000001,42.32874999999996 -0.283625,-0.0 0.0,-2.93375 0.283625,0.0 0.0,2.93375 m -11.021,-0.0 -0.283625,-0.0 0.0,-2.93375 0.283625,0.0 0.0,2.93375 " id="path3545"/>
<path style="fill:#3d393b;fill-opacity:1;fill-rule:nonzero;stroke:none" d="m 50.216750000000005,42.40625 -0.36075,-0.0 0.0,-0.0775 0.283625,0.0 0.0,-2.93375 -0.283625,-0.0 0.0,-0.0775 0.36075,0.0 0.0,3.08875 m -0.0385,-0.03875 0.0,-0.03875 0.0,0.03875 m -11.059625000000002,0.03875 -0.360875,-0.0 0.0,-3.08875 0.360875,0.0 0.0,0.0775 -0.283625,-0.0 0.0,2.93375 0.283625,0.0 0.0,0.0775 " id="path3547"/>
<path style="fill:#69686b;fill-opacity:1;fill-rule:nonzero;stroke:none" d="m 50.13962500000001,144.31999999999996 -0.283625,-0.0 0.0,-3.4087500000000004 0.283625,0.0 0.0,3.4087500000000004 m -11.021,-0.0 -0.283625,-0.0 0.0,-3.4087500000000004 0.283625,0.0 0.0,3.4087500000000004 " id="path3549"/>
<path style="fill:#3d393b;fill-opacity:1;fill-rule:nonzero;stroke:none" d="m 50.216750000000005,144.39749999999998 -0.36075,-0.0 0.0,-0.0775 0.283625,0.0 0.0,-3.4087500000000004 -0.283625,-0.0 0.0,-0.0775 0.36075,0.0 0.0,3.5637500000000006 m -0.0385,-0.03875 0.0,-0.03875 0.0,0.03875 m -11.059625000000002,0.03875 -0.360875,-0.0 0.0,-3.5637500000000006 0.360875,0.0 0.0,0.0775 -0.283625,-0.0 0.0,3.4087500000000004 0.283625,0.0 0.0,0.0775 " id="path3551"/>
<path style="fill:#69686b;fill-opacity:1;fill-rule:nonzero;stroke:none" d="m 50.13962500000001,176.72375 -0.283625,-0.0 0.0,-4.53875 0.283625,0.0 0.0,4.53875 m -11.021,-0.0 -0.283625,-0.0 0.0,-4.53875 0.283625,0.0 0.0,4.53875 " id="path3553"/>
<path style="fill:#3d393b;fill-opacity:1;fill-rule:nonzero;stroke:none" d="m 50.216750000000005,176.80124999999998 -0.36075,-0.0 0.0,-0.0775 0.283625,0.0 0.0,-4.53875 -0.283625,-0.0 0.0,-0.0775 0.36075,0.0 0.0,4.69375 m -0.0385,-0.03875 0.0,-0.03875 0.0,0.03875 m -11.059625000000002,0.03875 -0.360875,-0.0 0.0,-4.69375 0.360875,0.0 0.0,0.0775 -0.283625,-0.0 0.0,4.53875 0.283625,0.0 0.0,0.0775 " id="path3555"/>
<path style="fill:#69686b;fill-opacity:1;fill-rule:nonzero;stroke:none" d="m 50.13962500000001,194.8525 -0.283625,-0.0 0.0,-2.725 0.283625,0.0 0.0,2.725 m -11.021,-0.0 -0.283625,-0.0 0.0,-2.725 0.283625,0.0 0.0,2.725 " id="path3557"/>
<path style="fill:#3d393b;fill-opacity:1;fill-rule:nonzero;stroke:none" d="m 50.216750000000005,194.92999999999998 -0.36075,-0.0 0.0,-0.0775 0.283625,0.0 0.0,-2.725 -0.283625,-0.0 0.0,-0.0775 0.36075,0.0 0.0,2.88 m -0.0385,-0.03875 0.0,-0.03875 0.0,0.03875 m -11.059625000000002,0.03875 -0.360875,-0.0 0.0,-2.88 0.360875,0.0 0.0,0.0775 -0.283625,-0.0 0.0,2.725 0.283625,0.0 0.0,0.0775 " id="path3559"/>
<path style="fill:#3d393b;fill-opacity:1;fill-rule:nonzero;stroke:none" d="m 50.178250000000006,299.20875 -0.32225,-0.0 0.0,-6.51125 0.32225,0.0 0.0,6.51125 m -11.059625000000002,-0.0 -0.32225,-0.0 0.0,-6.51125 0.32225,0.0 0.0,6.51125 " id="path3561"/>
<path style="fill:#3d393b;fill-opacity:1;fill-rule:nonzero;stroke:none" d="m 50.178250000000006,278.360125 -0.32225,-0.0 0.0,-8.32275 0.32225,0.0 0.0,8.32275 m -11.059625000000002,-0.0 -0.32225,-0.0 0.0,-8.32275 0.32225,0.0 0.0,8.32275 " id="path3563"/>
<path style="fill:#403e41;fill-opacity:1;fill-rule:nonzero;stroke:none" d="m 50.13962500000001,34.85124999999999 -0.283625,-0.0 0.0,-5.65125 0.283625,0.0 0.0,5.65125 m -11.021,-0.0 -0.283625,-0.0 0.0,-5.65125 0.283625,0.0 0.0,5.65125 " id="path3565"/>
<path style="fill:#211c1d;fill-opacity:1;fill-rule:nonzero;stroke:none" d="m 50.216750000000005,34.93000000000001 -0.36075,-0.0 0.0,-0.07875 0.283625,0.0 0.0,-5.65125 -0.283625,-0.0 0.0,-0.0775 0.36075,0.0 0.0,5.8075 m -0.0385,-0.04 0.0,-0.03875 0.0,0.03875 m -11.059625000000002,0.04 -0.360875,-0.0 0.0,-5.8075 0.360875,0.0 0.0,0.0775 -0.283625,-0.0 0.0,5.65125 0.283625,0.0 0.0,0.07875 " id="path3567"/>
<path style="fill:#403e41;fill-opacity:1;fill-rule:nonzero;stroke:none" d="m 50.13962500000001,26.691249999999968 -0.283625,-0.0 0.0,-5.425 0.283625,0.0 0.0,5.425 m -11.021,-0.0 -0.283625,-0.0 0.0,-5.425 0.283625,0.0 0.0,5.425 " id="path3569"/>
<path style="fill:#211c1d;fill-opacity:1;fill-rule:nonzero;stroke:none" d="m 50.216750000000005,26.76875000000001 -0.36075,-0.0 0.0,-0.0775 0.283625,0.0 0.0,-5.425 -0.283625,-0.0 0.0,-0.0775 0.36075,0.0 0.0,5.58 m -0.0385,-0.03875 0.0,-0.03875 0.0,0.03875 m -11.059625000000002,0.03875 -0.360875,-0.0 0.0,-5.58 0.360875,0.0 0.0,0.0775 -0.283625,-0.0 0.0,5.425 0.283625,0.0 0.0,0.0775 " id="path3571"/>
<path style="fill:#403e41;fill-opacity:1;fill-rule:nonzero;stroke:none" d="m 50.13962500000001,50.71249999999998 -0.283625,-0.0 0.0,-5.87875 0.283625,0.0 0.0,5.87875 m -11.021,-0.0 -0.283625,-0.0 0.0,-5.87875 0.283625,0.0 0.0,5.87875 " id="path3573"/>
<path style="fill:#211c1d;fill-opacity:1;fill-rule:nonzero;stroke:none" d="m 50.216750000000005,50.789999999999964 -0.36075,-0.0 0.0,-0.0775 0.283625,0.0 0.0,-5.87875 -0.283625,-0.0 0.0,-0.0775 0.36075,0.0 0.0,6.033750000000001 m -0.0385,-0.03875 0.0,-0.03875 0.0,0.03875 m -11.059625000000002,0.03875 -0.360875,-0.0 0.0,-6.033750000000001 0.360875,0.0 0.0,0.0775 -0.283625,-0.0 0.0,5.87875 0.283625,0.0 0.0,0.0775 " id="path3575"/>
<path style="fill:#403e41;fill-opacity:1;fill-rule:nonzero;stroke:none" d="m 50.13962500000001,206.18237499999998 -0.283625,-0.0 0.0,-6.354875 0.283625,0.0 0.0,6.354875 m -11.021,-0.0 -0.283625,-0.0 0.0,-6.354875 0.283625,0.0 0.0,6.354875 " id="path3577"/>
<path style="fill:#211c1d;fill-opacity:1;fill-rule:nonzero;stroke:none" d="m 50.216750000000005,206.26 -0.36075,-0.0 0.0,-0.077625 0.283625,0.0 0.0,-6.354875 -0.283625,-0.0 0.0,-0.0775 0.36075,0.0 0.0,6.51 m -0.0385,-0.0385 0.0,-0.039125 0.0,0.039125 m -11.059625000000002,0.0385 -0.360875,-0.0 0.0,-6.51 0.360875,0.0 0.0,0.0775 -0.283625,-0.0 0.0,6.354875 0.283625,0.0 0.0,0.077625 " id="path3579"/>
<path style="fill:#403e41;fill-opacity:1;fill-rule:nonzero;stroke:none" d="m 50.13962500000001,218.42024999999998 -0.283625,-0.0 0.0,-7.713875 0.283625,0.0 0.0,7.713875 m -11.021,-0.0 -0.283625,-0.0 0.0,-7.713875 0.283625,0.0 0.0,7.713875 " id="path3581"/>
<path style="fill:#211c1d;fill-opacity:1;fill-rule:nonzero;stroke:none" d="m 50.216750000000005,218.49737499999998 -0.36075,-0.0 0.0,-0.077125 0.283625,0.0 0.0,-7.713875 -0.283625,-0.0 0.0,-0.077625 0.36075,0.0 0.0,7.868625 m -0.0385,-0.038625 0.0,-0.0385 0.0,0.0385 m -11.059625000000002,0.038625 -0.360875,-0.0 0.0,-7.868625 0.360875,0.0 0.0,0.077625 -0.283625,-0.0 0.0,7.713875 0.283625,0.0 0.0,0.077125 " id="path3583"/>
<path style="fill:#403e41;fill-opacity:1;fill-rule:nonzero;stroke:none" d="m 50.13962500000001,243.80012499999998 -0.283625,-0.0 0.0,-8.169 0.283625,0.0 0.0,8.169 m -11.021,-0.0 -0.283625,-0.0 0.0,-8.169 0.283625,0.0 0.0,8.169 " id="path3585"/>
<path style="fill:#211c1d;fill-opacity:1;fill-rule:nonzero;stroke:none" d="m 50.216750000000005,243.87775 -0.36075,-0.0 0.0,-0.077625 0.283625,0.0 0.0,-8.169 -0.283625,-0.0 0.0,-0.077625 0.36075,0.0 0.0,8.32425 m -0.0385,-0.039125 0.0,-0.0385 0.0,0.0385 m -11.059625000000002,0.039125 -0.360875,-0.0 0.0,-8.32425 0.360875,0.0 0.0,0.077625 -0.283625,-0.0 0.0,8.169 0.283625,0.0 0.0,0.077625 " id="path3587"/>
<path style="fill:#403e41;fill-opacity:1;fill-rule:nonzero;stroke:none" d="m 50.13962500000001,291.385 -0.283625,-0.0 0.0,-4.996 0.283625,0.0 0.0,4.996 m -11.021,-0.0 -0.283625,-0.0 0.0,-4.996 0.283625,0.0 0.0,4.996 " id="path3589"/>
<path style="fill:#211c1d;fill-opacity:1;fill-rule:nonzero;stroke:none" d="m 50.216750000000005,291.46274999999997 -0.36075,-0.0 0.0,-0.07775000000000001 0.283625,0.0 0.0,-4.996 -0.283625,-0.0 0.0,-0.077625 0.36075,0.0 0.0,5.151375 m -0.0385,-0.039125 0.0,-0.038625 0.0,0.038625 m -11.059625000000002,0.039125 -0.360875,-0.0 0.0,-5.151375 0.360875,0.0 0.0,0.077625 -0.283625,-0.0 0.0,4.996 0.283625,0.0 0.0,0.07775000000000001 " id="path3591"/>
<path style="fill:#403e41;fill-opacity:1;fill-rule:nonzero;stroke:none" d="m 50.13962500000001,253.76887499999998 -0.283625,-0.0 0.0,-6.807625000000001 0.283625,0.0 0.0,6.807625000000001 m -11.021,-0.0 -0.283625,-0.0 0.0,-6.807625000000001 0.283625,0.0 0.0,6.807625000000001 " id="path3593"/>
<path style="fill:#211c1d;fill-opacity:1;fill-rule:nonzero;stroke:none" d="m 50.216750000000005,253.8465 -0.36075,-0.0 0.0,-0.077625 0.283625,0.0 0.0,-6.807625000000001 -0.283625,-0.0 0.0,-0.077625 0.36075,0.0 0.0,6.962875 m -0.0385,-0.039125 0.0,-0.0385 0.0,0.0385 m -11.059625000000002,0.039125 -0.360875,-0.0 0.0,-6.962875 0.360875,0.0 0.0,0.077625 -0.283625,-0.0 0.0,6.807625000000001 0.283625,0.0 0.0,0.077625 " id="path3595"/>
<path style="fill:#555358;fill-opacity:1;fill-rule:nonzero;stroke:none" d="m 50.13962500000001,137.74875 -0.283625,-0.0 0.0,-4.995000000000001 0.283625,0.0 0.0,4.995000000000001 m -11.021,-0.0 -0.283625,-0.0 0.0,-4.995000000000001 0.283625,0.0 0.0,4.995000000000001 " id="path3597"/>
<path style="fill:#211c1d;fill-opacity:1;fill-rule:nonzero;stroke:none" d="m 50.216750000000005,137.82625 -0.36075,-0.0 0.0,-0.0775 0.283625,0.0 0.0,-4.995000000000001 -0.283625,-0.0 0.0,-0.0775 0.36075,0.0 0.0,5.15 m -0.0385,-0.03875 0.0,-0.03875 0.0,0.03875 m -11.059625000000002,0.03875 -0.360875,-0.0 0.0,-5.15 0.360875,0.0 0.0,0.0775 -0.283625,-0.0 0.0,4.995000000000001 0.283625,0.0 0.0,0.0775 " id="path3599"/>
<path style="fill:#555358;fill-opacity:1;fill-rule:nonzero;stroke:none" d="m 50.13962500000001,13.097499999999968 -0.283625,-0.0 0.0,-4.0675 0.283625,0.0 0.0,4.0675 m -11.021,-0.0 -0.283625,-0.0 0.0,-4.0675 0.283625,0.0 0.0,4.0675 " id="path3601"/>
<path style="fill:#211c1d;fill-opacity:1;fill-rule:nonzero;stroke:none" d="m 50.216750000000005,13.175000000000011 -0.36075,-0.0 0.0,-0.0775 0.283625,0.0 0.0,-4.0675 -0.283625,-0.0 0.0,-0.0775 0.36075,0.0 0.0,4.2225 m -0.0385,-0.03875 0.0,-0.03875 0.0,0.03875 m -11.059625000000002,0.03875 -0.360875,-0.0 0.0,-4.2225 0.360875,0.0 0.0,0.0775 -0.283625,-0.0 0.0,4.0675 0.283625,0.0 0.0,0.0775 " id="path3603"/>
<path style="fill:#555358;fill-opacity:1;fill-rule:nonzero;stroke:none" d="m 50.13962500000001,57.509999999999934 -0.283625,-0.0 0.0,-4.06625 0.283625,0.0 0.0,4.06625 m -11.021,-0.0 -0.283625,-0.0 0.0,-4.06625 0.283625,0.0 0.0,4.06625 " id="path3605"/>
<path style="fill:#211c1d;fill-opacity:1;fill-rule:nonzero;stroke:none" d="m 50.216750000000005,57.58625000000001 -0.36075,-0.0 0.0,-0.07625 0.283625,0.0 0.0,-4.06625 -0.283625,-0.0 0.0,-0.07875 0.36075,0.0 0.0,4.221250000000001 m -0.0385,-0.0375 0.0,-0.03875 0.0,0.03875 m -11.059625000000002,0.0375 -0.360875,-0.0 0.0,-4.221250000000001 0.360875,0.0 0.0,0.07875 -0.283625,-0.0 0.0,4.06625 0.283625,0.0 0.0,0.07625 " id="path3607"/>
<path style="fill:#555358;fill-opacity:1;fill-rule:nonzero;stroke:none" d="m 50.13962500000001,154.96999999999997 -0.283625,-0.0 0.0,-4.9925 0.283625,0.0 0.0,4.9925 m -11.021,-0.0 -0.283625,-0.0 0.0,-4.9925 0.283625,0.0 0.0,4.9925 " id="path3609"/>
<path style="fill:#211c1d;fill-opacity:1;fill-rule:nonzero;stroke:none" d="m 50.216750000000005,155.04749999999996 -0.36075,-0.0 0.0,-0.0775 0.283625,0.0 0.0,-4.9925 -0.283625,-0.0 0.0,-0.0775 0.36075,0.0 0.0,5.147500000000001 m -0.0385,-0.03875 0.0,-0.03875 0.0,0.03875 m -11.059625000000002,0.03875 -0.360875,-0.0 0.0,-5.147500000000001 0.360875,0.0 0.0,0.0775 -0.283625,-0.0 0.0,4.9925 0.283625,0.0 0.0,0.0775 " id="path3611"/>
<path style="fill:#555358;fill-opacity:1;fill-rule:nonzero;stroke:none" d="m 50.13962500000001,167.20749999999998 -0.283625,-0.0 0.0,-5.898750000000001 0.283625,0.0 0.0,5.898750000000001 m -11.021,-0.0 -0.283625,-0.0 0.0,-5.898750000000001 0.283625,0.0 0.0,5.898750000000001 " id="path3613"/>
<path style="fill:#211c1d;fill-opacity:1;fill-rule:nonzero;stroke:none" d="m 50.216750000000005,167.285 -0.36075,-0.0 0.0,-0.0775 0.283625,0.0 0.0,-5.898750000000001 -0.283625,-0.0 0.0,-0.0775 0.36075,0.0 0.0,6.05375 m -0.0385,-0.03875 0.0,-0.03875 0.0,0.03875 m -11.059625000000002,0.03875 -0.360875,-0.0 0.0,-6.05375 0.360875,0.0 0.0,0.0775 -0.283625,-0.0 0.0,5.898750000000001 0.283625,0.0 0.0,0.0775 " id="path3615"/>
<path style="fill:#555358;fill-opacity:1;fill-rule:nonzero;stroke:none" d="m 50.13962500000001,233.14875 -0.283625,-0.0 0.0,-3.410125 0.283625,0.0 0.0,3.410125 m -11.021,-0.0 -0.283625,-0.0 0.0,-3.410125 0.283625,0.0 0.0,3.410125 " id="path3617"/>
<path style="fill:#211c1d;fill-opacity:1;fill-rule:nonzero;stroke:none" d="m 50.216750000000005,233.226375 -0.36075,-0.0 0.0,-0.077625 0.283625,0.0 0.0,-3.410125 -0.283625,-0.0 0.0,-0.07725 0.36075,0.0 0.0,3.5650000000000004 m -0.0385,-0.039125 0.0,-0.0385 0.0,0.0385 m -11.059625000000002,0.039125 -0.360875,-0.0 0.0,-3.5650000000000004 0.360875,0.0 0.0,0.07725 -0.283625,-0.0 0.0,3.410125 0.283625,0.0 0.0,0.077625 " id="path3619"/>
<path style="fill:#555358;fill-opacity:1;fill-rule:nonzero;stroke:none" d="m 50.13962500000001,265.3265 -0.283625,-0.0 0.0,-3.4077500000000005 0.283625,0.0 0.0,3.4077500000000005 m -11.021,-0.0 -0.283625,-0.0 0.0,-3.4077500000000005 0.283625,0.0 0.0,3.4077500000000005 " id="path3621"/>
<path style="fill:#211c1d;fill-opacity:1;fill-rule:nonzero;stroke:none" d="m 50.216750000000005,265.403625 -0.36075,-0.0 0.0,-0.077125 0.283625,0.0 0.0,-3.4077500000000005 -0.283625,-0.0 0.0,-0.077625 0.36075,0.0 0.0,3.5625 m -0.0385,-0.038625 0.0,-0.0385 0.0,0.0385 m -11.059625000000002,0.038625 -0.360875,-0.0 0.0,-3.5625 0.360875,0.0 0.0,0.077625 -0.283625,-0.0 0.0,3.4077500000000005 0.283625,0.0 0.0,0.077125 " id="path3623"/>
<path style="fill:#555358;fill-opacity:1;fill-rule:nonzero;stroke:none" d="m 50.13962500000001,307.9275 -0.283625,-0.0 0.0,-2.276375 0.283625,0.0 0.0,2.276375 m -11.021,-0.0 -0.283625,-0.0 0.0,-2.276375 0.283625,0.0 0.0,2.276375 " id="path3625"/>
<path style="fill:#211c1d;fill-opacity:1;fill-rule:nonzero;stroke:none" d="m 50.216750000000005,308.00512499999996 -0.36075,-0.0 0.0,-0.077625 0.283625,0.0 0.0,-2.276375 -0.283625,-0.0 0.0,-0.077625 0.36075,0.0 0.0,2.431625 m -0.0385,-0.039 0.0,-0.038625 0.0,0.038625 m -11.059625000000002,0.039 -0.360875,-0.0 0.0,-2.431625 0.360875,0.0 0.0,0.077625 -0.283625,-0.0 0.0,2.276375 0.283625,0.0 0.0,0.077625 " id="path3627"/>
<path style="fill:#555358;fill-opacity:1;fill-rule:nonzero;stroke:none" d="m 50.13962500000001,93.54124999999999 -0.283625,-0.0 0.0,-2.9325 0.283625,0.0 0.0,2.9325 m -11.021,-0.0 -0.283625,-0.0 0.0,-2.9325 0.283625,0.0 0.0,2.9325 " id="path3629"/>
<path style="fill:#211c1d;fill-opacity:1;fill-rule:nonzero;stroke:none" d="m 50.216750000000005,93.61874999999998 -0.36075,-0.0 0.0,-0.0775 0.283625,0.0 0.0,-2.9325 -0.283625,-0.0 0.0,-0.07875 0.36075,0.0 0.0,3.08875 m -0.0385,-0.03875 0.0,-0.03875 0.0,0.03875 m -11.059625000000002,0.03875 -0.360875,-0.0 0.0,-3.08875 0.360875,0.0 0.0,0.07875 -0.283625,-0.0 0.0,2.9325 0.283625,0.0 0.0,0.0775 " id="path3631"/>
<path style="fill:#555358;fill-opacity:1;fill-rule:nonzero;stroke:none" d="m 50.13962500000001,86.51624999999999 -0.283625,-0.0 0.0,-4.06625 0.283625,0.0 0.0,4.06625 m -11.021,-0.0 -0.283625,-0.0 0.0,-4.06625 0.283625,0.0 0.0,4.06625 " id="path3633"/>
<path style="fill:#211c1d;fill-opacity:1;fill-rule:nonzero;stroke:none" d="m 50.216750000000005,86.59249999999997 -0.36075,-0.0 0.0,-0.07625 0.283625,0.0 0.0,-4.06625 -0.283625,-0.0 0.0,-0.0775 0.36075,0.0 0.0,4.22 m -0.0385,-0.0375 0.0,-0.03875 0.0,0.03875 m -11.059625000000002,0.0375 -0.360875,-0.0 0.0,-4.22 0.360875,0.0 0.0,0.0775 -0.283625,-0.0 0.0,4.06625 0.283625,0.0 0.0,0.07625 " id="path3635"/>
<path style="fill:#231f20;fill-opacity:1;fill-rule:nonzero;stroke:none;display:none" d="m 0.0,122.69749999999996 41.349125,0.0 0.0,-0.625 -41.349125,-0.0 0.0,0.625 z " id="path3637"/>
<text>
<tspan x="41.7905" y="325.21513749999997" id="tspan3425" style="font-size:7.19543791px;font-variant:normal;font-weight:normal;writing-mode:lr-tb;fill:#211c1d;fill-opacity:1;fill-rule:nonzero;stroke:none;font-family:Helvetica;-inkscape-font-specification:Helvetica">2</tspan>
</text>
</g>
</svg>
