<?xml version="1.0" encoding="UTF-8"?>
<svg xmlns:xlink="http://www.w3.org/1999/xlink" xmlns="http://www.w3.org/2000/svg" contentScriptType="text/ecmascript" zoomAndPan="magnify" contentStyleType="text/css" preserveAspectRatio="xMidYMid meet" version="1.0">

<g id="chromosome2" title="Chromosome 2">
<path style="fill:#211c1d;fill-opacity:1;fill-rule:nonzero;stroke:none" id="2p12" d="m 38.795875,154.06124999999997 11.3818375,0.0 0.0,-11.26855 -11.3818375,-0.0 0.0,11.26855 z "/>
<path style="fill:#211c1d;fill-opacity:1;fill-rule:nonzero;stroke:none" id="2p16.1" d="m 38.795875,125.28124999999999 11.3818375,0.0 0.0,-5.6044875 -11.3818375,-0.0 0.0,5.6044875 z "/>
<path style="fill:#211c1d;fill-opacity:1;fill-rule:nonzero;stroke:none" id="2p16.3" d="m 38.795875,118.4825 11.3818375,0.0 0.0,-6.056150000000001 -11.3818375,-0.0 0.0,6.056150000000001 z "/>
<path style="fill:#211c1d;fill-opacity:1;fill-rule:nonzero;stroke:none" id="2q22.1" d="m 38.795875,232.91875 11.3818375,0.0 0.0,-6.285150000000001 -11.3818375,-0.0 0.0,6.285150000000001 z "/>
<path style="fill:#211c1d;fill-opacity:1;fill-rule:nonzero;stroke:none" id="2q22.3" d="m 38.795875,237.6775 11.3818375,0.0 0.0,-3.5639625 -11.3818375,-0.0 0.0,3.5639625 z "/>
<path style="fill:#e9eae9;fill-opacity:1;fill-rule:nonzero;stroke:none" id="2p23.2" d="m 38.795875,89.56624999999995 11.3818375,0.0 0.0,-2.9336 -11.3818375,-0.0 0.0,2.9336 z "/>
<path style="fill:none;stroke:#211c1d;stroke-width:0.1;stroke-linecap:butt;stroke-linejoin:miter;stroke-miterlimit:4;stroke-opacity:1;stroke-dasharray:none" id="2p23.2-o" d="m 38.795875,89.56624999999995 11.3818375,0.0 0.0,-2.9336 -11.3818375,-0.0 0.0,2.9336 z"/>
<path style="fill:#e9eae9;fill-opacity:1;fill-rule:nonzero;stroke:none" id="2q12.3" d="m 38.795875,191.55749999999995 11.3818375,0.0 0.0,-3.4086875000000005 -11.3818375,-0.0 0.0,3.4086875000000005 z "/>
<path style="fill:none;stroke:#211c1d;stroke-width:0.1;stroke-linecap:butt;stroke-linejoin:miter;stroke-miterlimit:4;stroke-opacity:1;stroke-dasharray:none" id="2q12.3-o" d="m 38.795875,191.55749999999995 11.3818375,0.0 0.0,-3.4086875000000005 -11.3818375,-0.0 0.0,3.4086875000000005 z"/>
<path style="fill:#e9eae9;fill-opacity:1;fill-rule:nonzero;stroke:none" id="2q21.2" d="m 38.795875,223.96125 11.3818375,0.0 0.0,-4.5390625 -11.3818375,-0.0 0.0,4.5390625 z "/>
<path style="fill:none;stroke:#211c1d;stroke-width:0.1;stroke-linecap:butt;stroke-linejoin:miter;stroke-miterlimit:4;stroke-opacity:1;stroke-dasharray:none" id="2q21.2-o" d="m 38.795875,223.96125 11.3818375,0.0 0.0,-4.5390625 -11.3818375,-0.0 0.0,4.5390625 z "/>
<path style="fill:#e9eae9;fill-opacity:1;fill-rule:nonzero;stroke:none" id="2q23.2" d="m 38.795875,242.08999999999997 11.3818375,0.0 0.0,-2.7246125000000005 -11.3818375,-0.0 0.0,2.7246125000000005 z "/>
<path style="fill:none;stroke:#211c1d;stroke-width:0.1;stroke-linecap:butt;stroke-linejoin:miter;stroke-miterlimit:4;stroke-opacity:1;stroke-dasharray:none" id="2q23.2-o" d="m 38.795875,242.08999999999997 11.3818375,0.0 0.0,-2.7246125000000005 -11.3818375,-0.0 0.0,2.7246125000000005 z"/>
<path style="fill:#211c1d;fill-opacity:1;fill-rule:nonzero;stroke:none" id="2q36.3" d="m 38.795875,346.44625 11.3818375,0.0 0.0,-6.5112250000000005 -11.3818375,-0.0 0.0,6.5112250000000005 z "/>
<path style="fill:#211c1d;fill-opacity:1;fill-rule:nonzero;stroke:none" id="2q34" d="m 38.795875,325.597625 11.3818375,0.0 0.0,-8.32275 -11.3818375,-0.0 0.0,8.32275 z "/>
<path style="fill:#7a7e82;fill-opacity:1;fill-rule:nonzero;stroke:none" id="2p24.1" d="m 38.796375,82.12749999999993 11.3818375,0.0 0.0,-5.729975 -11.3818375,-0.0 0.0,5.729975 z "/>
<path style="fill:none;stroke:#211c1d;stroke-width:0.1;stroke-linecap:butt;stroke-linejoin:miter;stroke-miterlimit:4;stroke-opacity:1;stroke-dasharray:none" id="2p24.1-o" d="m 38.796375,82.12749999999993 11.3818375,0.0 0.0,-5.729975 -11.3818375,-0.0 0.0,5.729975 z"/>
<path style="fill:#7a7e82;fill-opacity:1;fill-rule:nonzero;stroke:none" id="2p24.3" d="m 38.796375,73.96749999999996 11.3818375,0.0 0.0,-5.5024375 -11.3818375,-0.0 0.0,5.5024375 z "/>
<path style="fill:none;stroke:#211c1d;stroke-width:0.1;stroke-linecap:butt;stroke-linejoin:miter;stroke-miterlimit:4;stroke-opacity:1;stroke-dasharray:none" id="2p24.3-o" d="m 38.796375,73.96749999999996 11.3818375,0.0 0.0,-5.5024375 -11.3818375,-0.0 0.0,5.5024375 z "/>
<path style="fill:#7a7e82;fill-opacity:1;fill-rule:nonzero;stroke:none" id="2p22.3" d="m 38.796375,97.98874999999997 11.3818375,0.0 0.0,-5.9555625 -11.3818375,-0.0 0.0,5.9555625 z "/>
<path style="fill:none;stroke:#211c1d;stroke-width:0.1;stroke-linecap:butt;stroke-linejoin:miter;stroke-miterlimit:4;stroke-opacity:1;stroke-dasharray:none" id="2p22.3-o" d="m 38.796375,97.98874999999997 11.3818375,0.0 0.0,-5.9555625 -11.3818375,-0.0 0.0,5.9555625 z"/>
<path style="fill:#7a7e82;fill-opacity:1;fill-rule:nonzero;stroke:none" id="2q24.1" d="m 38.796375,253.459 11.3818375,0.0 0.0,-6.432612500000001 -11.3818375,-0.0 0.0,6.432612500000001 z "/>
<path style="fill:none;stroke:#211c1d;stroke-width:0.1;stroke-linecap:butt;stroke-linejoin:miter;stroke-miterlimit:4;stroke-opacity:1;stroke-dasharray:none" id="2q24.1-o" d="m 38.796375,253.459 11.3818375,0.0 0.0,-6.432612500000001 -11.3818375,-0.0 0.0,6.432612500000001 z  "/>
<path style="fill:#7a7e82;fill-opacity:1;fill-rule:nonzero;stroke:none" id="2q24.3" d="m 38.796375,265.69624999999996 11.3818375,0.0 0.0,-7.7915 -11.3818375,-0.0 0.0,7.7915 z "/>
<path style="fill:none;stroke:#211c1d;stroke-width:0.1;stroke-linecap:butt;stroke-linejoin:miter;stroke-miterlimit:4;stroke-opacity:1;stroke-dasharray:none" id="2q24.3-o" d="m 38.796375,265.69624999999996 11.3818375,0.0 0.0,-7.7915 -11.3818375,-0.0 0.0,7.7915 z "/>
<path style="fill:#7a7e82;fill-opacity:1;fill-rule:nonzero;stroke:none" id="2q32.1" d="m 38.796375,291.076125 11.3818375,0.0 0.0,-8.2461 -11.3818375,-0.0 0.0,8.2461 z "/>
<path style="fill:none;stroke:#211c1d;stroke-width:0.1;stroke-linecap:butt;stroke-linejoin:miter;stroke-miterlimit:4;stroke-opacity:1;stroke-dasharray:none" id="2q32.1-o" d="m 38.796375,291.076125 11.3818375,0.0 0.0,-8.2461 -11.3818375,-0.0 0.0,8.2461 z"/>
<path style="fill:#7a7e82;fill-opacity:1;fill-rule:nonzero;stroke:none" id="2q36.1" d="m 38.796375,338.661125 11.3818375,0.0 0.0,-5.073725 -11.3818375,-0.0 0.0,5.073725 z "/>
<path style="fill:none;stroke:#211c1d;stroke-width:0.1;stroke-linecap:butt;stroke-linejoin:miter;stroke-miterlimit:4;stroke-opacity:1;stroke-dasharray:none" id="2q36.1-o" d="m 38.796375,338.661125 11.3818375,0.0 0.0,-5.073725 -11.3818375,-0.0 0.0,5.073725 z"/>
<path style="fill:#7a7e82;fill-opacity:1;fill-rule:nonzero;stroke:none" id="2q32.3" d="m 38.796375,301.044875 11.3818375,0.0 0.0,-6.8847625 -11.3818375,-0.0 0.0,6.8847625 z "/>
<path style="fill:none;stroke:#211c1d;stroke-width:0.1;stroke-linecap:butt;stroke-linejoin:miter;stroke-miterlimit:4;stroke-opacity:1;stroke-dasharray:none" id="2q32.3-o" d="m 38.796375,301.044875 11.3818375,0.0 0.0,-6.8847625 -11.3818375,-0.0 0.0,6.8847625 z "/>
<path style="fill:#bbbcbd;fill-opacity:1;fill-rule:nonzero;stroke:none" id="2q12.1" d="m 38.796375,185.02499999999998 11.3818375,0.0 0.0,-5.0722625 -11.3818375,-0.0 0.0,5.0722625 z "/>
<path style="fill:none;stroke:#211c1d;stroke-width:0.1;stroke-linecap:butt;stroke-linejoin:miter;stroke-miterlimit:4;stroke-opacity:1;stroke-dasharray:none" id="2q12.1-o" d="m 38.796375,185.02499999999998 11.3818375,0.0 0.0,-5.0722625 -11.3818375,-0.0 0.0,5.0722625 z "/>
<path style="fill:#bbbcbd;fill-opacity:1;fill-rule:nonzero;stroke:none" id="2p25.2" d="m 38.796375,60.37374999999996 11.3818375,0.0 0.0,-4.145025 -11.3818375,-0.0 0.0,4.145025 z "/>
<path style="fill:none;stroke:#211c1d;stroke-width:0.1;stroke-linecap:butt;stroke-linejoin:miter;stroke-miterlimit:4;stroke-opacity:1;stroke-dasharray:none" id="2p25.2-o" d="m 38.796375,60.37374999999996 11.3818375,0.0 0.0,-4.145025 -11.3818375,-0.0 0.0,4.145025 z "/>
<path style="fill:#bbbcbd;fill-opacity:1;fill-rule:nonzero;stroke:none" id="2p22.1" d="m 38.796375,104.78624999999998 11.3818375,0.0 0.0,-4.14355 -11.3818375,-0.0 0.0,4.14355 z "/>
<path style="fill:none;stroke:#211c1d;stroke-width:0.1;stroke-linecap:butt;stroke-linejoin:miter;stroke-miterlimit:4;stroke-opacity:1;stroke-dasharray:none" id="2p22.1-o" d="m 38.796375,104.78624999999998 11.3818375,0.0 0.0,-4.14355 -11.3818375,-0.0 0.0,4.14355 z "/>
<path style="fill:#bbbcbd;fill-opacity:1;fill-rule:nonzero;stroke:none" id="2q14.1" d="m 38.796375,202.24624999999997 11.3818375,0.0 0.0,-5.069825 -11.3818375,-0.0 0.0,5.069825 z "/>
<path style="fill:none;stroke:#211c1d;stroke-width:0.1;stroke-linecap:butt;stroke-linejoin:miter;stroke-miterlimit:4;stroke-opacity:1;stroke-dasharray:none" id="2q14.1-o" d="m 38.796375,202.24624999999997 11.3818375,0.0 0.0,-5.069825 -11.3818375,-0.0 0.0,5.069825 z  "/>
<path style="fill:#bbbcbd;fill-opacity:1;fill-rule:nonzero;stroke:none" id="2q14.3" d="m 38.796375,214.48375 11.3818375,0.0 0.0,-5.9765625 -11.3818375,-0.0 0.0,5.9765625 z "/>
<path style="fill:none;stroke:#211c1d;stroke-width:0.1;stroke-linecap:butt;stroke-linejoin:miter;stroke-miterlimit:4;stroke-opacity:1;stroke-dasharray:none" id="2q14.3-o" d="m 38.796375,214.48375 11.3818375,0.0 0.0,-5.9765625 -11.3818375,-0.0 0.0,5.9765625 z "/>
<path style="fill:#bbbcbd;fill-opacity:1;fill-rule:nonzero;stroke:none" id="2q31.2" d="m 38.796375,280.42475 11.3818375,0.0 0.0,-3.4873 -11.3818375,-0.0 0.0,3.4873 z "/>
<path style="fill:none;stroke:#211c1d;stroke-width:0.1;stroke-linecap:butt;stroke-linejoin:miter;stroke-miterlimit:4;stroke-opacity:1;stroke-dasharray:none" id="2q31.2-o" d="m 38.796375,280.42475 11.3818375,0.0 0.0,-3.4873 -11.3818375,-0.0 0.0,3.4873 z "/>
<path style="fill:#bbbcbd;fill-opacity:1;fill-rule:nonzero;stroke:none" id="2q33.2" d="m 38.796375,312.6025 11.3818375,0.0 0.0,-3.4848625000000006 -11.3818375,-0.0 0.0,3.4848625000000006 z "/>
<path style="fill:none;stroke:#211c1d;stroke-width:0.1;stroke-linecap:butt;stroke-linejoin:miter;stroke-miterlimit:4;stroke-opacity:1;stroke-dasharray:none" id="2q33.2-o" d="m 38.796375,312.6025 11.3818375,0.0 0.0,-3.4848625000000006 -11.3818375,-0.0 0.0,3.4848625000000006 z"/>
<path style="fill:#bbbcbd;fill-opacity:1;fill-rule:nonzero;stroke:none" id="2q37.2" d="m 38.796375,355.203625 11.3818375,0.0 0.0,-2.3535125 -11.3818375,-0.0 0.0,2.3535125 z "/>
<path style="fill:none;stroke:#211c1d;stroke-width:0.1;stroke-linecap:butt;stroke-linejoin:miter;stroke-miterlimit:4;stroke-opacity:1;stroke-dasharray:none" id="2q37.2-o" d="m 38.796375,355.203625 11.3818375,0.0 0.0,-2.3535125 -11.3818375,-0.0 0.0,2.3535125 z "/>
<path style="fill:#bbbcbd;fill-opacity:1;fill-rule:nonzero;stroke:none" id="2p13.2" d="m 38.796375,140.81749999999994 11.3818375,0.0 0.0,-3.0107375000000003 -11.3818375,-0.0 0.0,3.0107375000000003 z "/>
<path style="fill:none;stroke:#211c1d;stroke-width:0.1;stroke-linecap:butt;stroke-linejoin:miter;stroke-miterlimit:4;stroke-opacity:1;stroke-dasharray:none" id="2p13.2-o" d="m 38.796375,140.81749999999994 11.3818375,0.0 0.0,-3.0107375000000003 -11.3818375,-0.0 0.0,3.0107375000000003 z "/>
<path style="fill:#bbbcbd;fill-opacity:1;fill-rule:nonzero;stroke:none" id="2p14" d="m 38.796375,133.79249999999996 11.3818375,0.0 0.0,-4.14355 -11.3818375,-0.0 0.0,4.14355 z "/>
<path style="fill:none;stroke:#211c1d;stroke-width:0.1;stroke-linecap:butt;stroke-linejoin:miter;stroke-miterlimit:4;stroke-opacity:1;stroke-dasharray:none" id="2p14-o" d="m 38.796375,133.79249999999996 11.3818375,0.0 0.0,-4.14355 -11.3818375,-0.0 0.0,4.14355 z"/>
<path style="fill:#fffafa;stroke:#211c1d;stroke-width:0.1;stroke-linecap:butt;stroke-linejoin:miter;stroke-miterlimit:4;stroke-opacity:1;stroke-dasharray:none" id="2q21.3" d="m 38.795875,226.6336 11.3818375,0.0 0,-2.6723499999999945 -11.3818375,-0.0 0,2.6723499999999945 z "/>
<path style="fill:#fffafa;stroke:#211c1d;stroke-width:0.1;stroke-linecap:butt;stroke-linejoin:miter;stroke-miterlimit:4;stroke-opacity:1;stroke-dasharray:none" id="2q14.2" d="m 38.796375,208.5071875 11.3818375,0.0 0,-6.260937500000011 -11.3818375,-0.0 0,6.260937500000011 z "/>
<path style="fill:#fffafa;stroke:#211c1d;stroke-width:0.1;stroke-linecap:butt;stroke-linejoin:miter;stroke-miterlimit:4;stroke-opacity:1;stroke-dasharray:none" id="2p16.2" d="m 38.795875,119.67676249999998 11.3818375,0.0 0,-1.1942624999999794 -11.3818375,-0.0 0,1.1942624999999794 z "/>
<path style="fill:#fffafa;stroke:#211c1d;stroke-width:0.1;stroke-linecap:butt;stroke-linejoin:miter;stroke-miterlimit:4;stroke-opacity:1;stroke-dasharray:none" id="2p22.2" d="m 38.796375,100.64269999999998 11.3818375,0.0 0,-2.653950000000009 -11.3818375,-0.0 0,2.653950000000009 z "/>
<path style="fill:#fffafa;stroke:#211c1d;stroke-width:0.1;stroke-linecap:butt;stroke-linejoin:miter;stroke-miterlimit:4;stroke-opacity:1;stroke-dasharray:none" id="2q35" d="m 38.795875,333.5874 11.3818375,0.0 0,-7.989775000000009 -11.3818375,-0.0 0,7.989775000000009 z "/>
<path style="fill:#fffafa;stroke:#211c1d;stroke-width:0.1;stroke-linecap:butt;stroke-linejoin:miter;stroke-miterlimit:4;stroke-opacity:1;stroke-dasharray:none" id="2p23.3" d="m 38.796375,86.63264999999996 11.3818375,0.0 0,-4.505150000000029 -11.3818375,-0.0 0,4.505150000000029 z "/>
<path style="fill:#fffafa;stroke:#211c1d;stroke-width:0.1;stroke-linecap:butt;stroke-linejoin:miter;stroke-miterlimit:4;stroke-opacity:1;stroke-dasharray:none" id="2q31.3" d="m 38.796375,282.830025 11.3818375,0.0 0,-2.4052749999999605 -11.3818375,-0.0 0,2.4052749999999605 z "/>
<path style="fill:#fffafa;stroke:#211c1d;stroke-width:0.1;stroke-linecap:butt;stroke-linejoin:miter;stroke-miterlimit:4;stroke-opacity:1;stroke-dasharray:none" id="2p13.3" d="m 38.796375,137.80676249999993 11.3818375,0.0 0,-4.0142624999999725 -11.3818375,-0.0 0,4.0142624999999725 z "/>
<path style="fill:#fffafa;stroke:#211c1d;stroke-width:0.1;stroke-linecap:butt;stroke-linejoin:miter;stroke-miterlimit:4;stroke-opacity:1;stroke-dasharray:none" id="2q23.1" d="m 38.795875,239.36538749999997 11.3818375,0.0 0,-1.6878874999999596 -11.3818375,-0.0 0,1.6878874999999596 z "/>
<path style="fill:#fffafa;stroke:#211c1d;stroke-width:0.1;stroke-linecap:butt;stroke-linejoin:miter;stroke-miterlimit:4;stroke-opacity:1;stroke-dasharray:none" id="2q23.3" d="m 38.795875,247.0263875 11.3818375,0.0 0,-4.9363875000000235 -11.3818375,-0.0 0,4.9363875000000235 z "/>
<path style="fill:#fffafa;stroke:#211c1d;stroke-width:0.1;stroke-linecap:butt;stroke-linejoin:miter;stroke-miterlimit:4;stroke-opacity:1;stroke-dasharray:none" id="2q32.2" d="m 38.796375,294.16011249999997 11.3818375,0.0 0,-3.083987499999978 -11.3818375,-0.0 0,3.083987499999978 z "/>
<path style="fill:#fffafa;stroke:#211c1d;stroke-width:0.1;stroke-linecap:butt;stroke-linejoin:miter;stroke-miterlimit:4;stroke-opacity:1;stroke-dasharray:none" id="2q12.2" d="m 38.796375,188.14881249999993 11.3818375,0.0 0,-3.123812499999957 -11.3818375,-0.0 0,3.123812499999957 z "/>
<path style="fill:#fffafa;stroke:#211c1d;stroke-width:0.1;stroke-linecap:butt;stroke-linejoin:miter;stroke-miterlimit:4;stroke-opacity:1;stroke-dasharray:none" id="2q24.2" d="m 38.796375,257.90475 11.3818375,0.0 0,-4.445749999999975 -11.3818375,-0.0 0,4.445749999999975 z "/>
<path style="fill:#fffafa;stroke:#211c1d;stroke-width:0.1;stroke-linecap:butt;stroke-linejoin:miter;stroke-miterlimit:4;stroke-opacity:1;stroke-dasharray:none" id="2p25.3" d="m 38.796375,56.228725 0.0,-6 c 0.0,-1.41625 2.5415000000000005,-2.5625000000000004 5.68025,-2.5625000000000004 3.1371250000000006,-0.0 5.681125,1.14625 5.681125,2.5625000000000004 l 0.0,6 -11.3818375,0.0 z"/>
<path style="fill:#fffafa;stroke:#211c1d;stroke-width:0.1;stroke-linecap:butt;stroke-linejoin:miter;stroke-miterlimit:4;stroke-opacity:1;stroke-dasharray:none" id="2p15" d="m 38.795875,129.64894999999996 11.3818375,0.0 0,-4.367699999999971 -11.3818375,-0.0 0,4.367699999999971 z "/>
<path style="fill:#fffafa;stroke:#211c1d;stroke-width:0.1;stroke-linecap:butt;stroke-linejoin:miter;stroke-miterlimit:4;stroke-opacity:1;stroke-dasharray:none" id="2q21.1" d="m 38.796375,219.4221875 11.3818375,0.0 0,-4.9384375000000205 -11.3818375,-0.0 0,4.9384375000000205 z "/>
<path style="fill:#fffafa;stroke:#211c1d;stroke-width:0.1;stroke-linecap:butt;stroke-linejoin:miter;stroke-miterlimit:4;stroke-opacity:1;stroke-dasharray:none" id="2q37.1" d="m 38.795875,352.85011249999997 11.3818375,0.0 0,-6.403862499999946 -11.3818375,-0.0 0,6.403862499999946 z "/>
<path style="fill:#fffafa;stroke:#211c1d;stroke-width:0.1;stroke-linecap:butt;stroke-linejoin:miter;stroke-miterlimit:4;stroke-opacity:1;stroke-dasharray:none" id="2q11.2" d="m 38.796375,179.95273749999998 11.3818375,0.0 0,-7.335237499999977 -11.3818375,-0.0 0,7.335237499999977 z "/>
<path style="fill:#fffafa;stroke:#211c1d;stroke-width:0.1;stroke-linecap:butt;stroke-linejoin:miter;stroke-miterlimit:4;stroke-opacity:1;stroke-dasharray:none" id="2p25.1" d="m 38.796375,68.46506249999996 11.3818375,0.0 0,-8.0913125 -11.3818375,-0.0 0,8.0913125 z "/>
<path style="fill:#fffafa;stroke:#211c1d;stroke-width:0.1;stroke-linecap:butt;stroke-linejoin:miter;stroke-miterlimit:4;stroke-opacity:1;stroke-dasharray:none" id="2p23.1" d="m 38.795875,92.03318749999997 11.3818375,0.0 0,-2.4669375000000144 -11.3818375,-0.0 0,2.4669375000000144 z "/>
<path style="fill:#fffafa;stroke:#211c1d;stroke-width:0.1;stroke-linecap:butt;stroke-linejoin:miter;stroke-miterlimit:4;stroke-opacity:1;stroke-dasharray:none" id="2q33.3" d="m 38.796375,317.274875 11.3818375,0.0 0,-4.672374999999988 -11.3818375,-0.0 0,4.672374999999988 z "/>
<path style="fill:#fffafa;stroke:#211c1d;stroke-width:0.1;stroke-linecap:butt;stroke-linejoin:miter;stroke-miterlimit:4;stroke-opacity:1;stroke-dasharray:none" id="2p21" d="m 38.796375,112.42635 11.3818375,0.0 0,-7.640100000000018 -11.3818375,-0.0 0,7.640100000000018 z "/>
<path style="fill:#fffafa;stroke:#211c1d;stroke-width:0.1;stroke-linecap:butt;stroke-linejoin:miter;stroke-miterlimit:4;stroke-opacity:1;stroke-dasharray:none" id="2q33.1" d="m 38.796375,309.1176375 11.3818375,0.0 0,-8.07276250000001 -11.3818375,-0.0 0,8.07276250000001 z "/>
<path style="fill:#fffafa;stroke:#211c1d;stroke-width:0.1;stroke-linecap:butt;stroke-linejoin:miter;stroke-miterlimit:4;stroke-opacity:1;stroke-dasharray:none" id="2p13.1" d="m 38.796375,142.79269999999997 11.3818375,0.0 0,-1.9752000000000294 -11.3818375,-0.0 0,1.9752000000000294 z "/>
<path style="fill:#fffafa;stroke:#211c1d;stroke-width:0.1;stroke-linecap:butt;stroke-linejoin:miter;stroke-miterlimit:4;stroke-opacity:1;stroke-dasharray:none" id="2q36.2" d="m 38.796375,339.935025 11.3818375,0.0 0,-1.2738999999999692 -11.3818375,-0.0 0,1.2738999999999692 z "/>
<path style="fill:#fffafa;stroke:#211c1d;stroke-width:0.1;stroke-linecap:butt;stroke-linejoin:miter;stroke-miterlimit:4;stroke-opacity:1;stroke-dasharray:none" id="2q37.3" d="m 38.796375,355.203625 11.3818375,0.0 0.0,6.5 c 0.0,1.416 -2.544,2.5633750000000006 -5.681125,2.5633750000000006 -3.13875,0.0 -5.68025,-1.147375 -5.68025,-2.5633750000000006 l 0.0,-6.5 z"/>
<path style="fill:#fffafa;stroke:#211c1d;stroke-width:0.1;stroke-linecap:butt;stroke-linejoin:miter;stroke-miterlimit:4;stroke-opacity:1;stroke-dasharray:none" id="2q13" d="m 38.795875,197.17642499999997 11.3818375,0.0 0,-5.618925000000019 -11.3818375,-0.0 0,5.618925000000019 z "/>
<path style="fill:#fffafa;stroke:#211c1d;stroke-width:0.1;stroke-linecap:butt;stroke-linejoin:miter;stroke-miterlimit:4;stroke-opacity:1;stroke-dasharray:none" id="2p24.2" d="m 38.796375,76.39752499999993 11.3818375,0.0 0,-2.430024999999972 -11.3818375,-0.0 0,2.430024999999972 z "/>
<path style="fill:#fffafa;stroke:#211c1d;stroke-width:0.1;stroke-linecap:butt;stroke-linejoin:miter;stroke-miterlimit:4;stroke-opacity:1;stroke-dasharray:none" id="2q22.2" d="m 38.795875,234.1135375 11.3818375,0.0 0,-1.194787500000018 -11.3818375,-0.0 0,1.194787500000018 z "/>
<path style="fill:#fffafa;stroke:#211c1d;stroke-width:0.1;stroke-linecap:butt;stroke-linejoin:miter;stroke-miterlimit:4;stroke-opacity:1;stroke-dasharray:none" id="2q31.1" d="m 38.796375,276.93745 11.3818375,0.0 0,-11.241200000000049 -11.3818375,-0.0 0,11.241200000000049 z "/>
<path style="fill:#fffafa;stroke:#211c1d;stroke-width:0.1;stroke-linecap:butt;stroke-linejoin:miter;stroke-miterlimit:4;stroke-opacity:1;stroke-dasharray:none" id="2p11.2" d="m 38.796375,164.1775 11.3818375,0.0 0,-10.11625 -11.3818375,-0.0 0,10.11625 z "/>
<path style="fill:#c9d9de;fill-opacity:1;fill-rule:nonzero;stroke:none" id="centromere2-f" d="m 49.777375,172.6175 -10.580125,-0.0 c 0.110375,-0.33 0.3345,-0.73125 0.663125,-1.1275 0.12150000000000001,-0.14875 0.256875,-0.2975 0.40475000000000005,-0.44500000000000006 0.443875,-0.43875 0.997625,-0.8550000000000001 1.625,-1.17875 l 0.537625,-0.2775 -0.0015,-0.00125 0.0,0.0 -0.464375,-0.24 -0.07175,-0.03625 c -0.54925,-0.285 -1.0430000000000001,-0.64 -1.4551250000000002,-1.02 -0.21475,-0.19750000000000004 -0.40762500000000007,-0.4025000000000001 -0.574625,-0.60625 -0.4907500000000001,-0.5925 -0.7485000000000002,-1.195 -0.74175,-1.5537500000000002 l 0.0,-1.9537500000000003 10.737375,0.0 0.0,1.9537500000000003 c 0.0,0.0050 0.0,0.00875 0.0,0.013750000000000002 5.0E-4,0.35875 -0.255375,0.9525 -0.737375,1.5375000000000003 -0.35687500000000005,0.44000000000000006 -0.8315,0.8800000000000001 -1.389125,1.255 -0.19925,0.13375 -0.40925,0.25875 -0.6280000000000001,0.3725 l -0.532625,0.27875 0.0010,0.0 -5.0E-4,-0.0 0.532625,0.2775 c 0.8311250000000001,0.43125 1.53225,1.02875 2.016625,1.625 0.32625000000000004,0.3950000000000001 0.549375,0.79625 0.6587500000000001,1.12625 "/>
<path style="fill:none;stroke:#211c1d;stroke-width:0.8;stroke-linecap:butt;stroke-linejoin:miter;stroke-miterlimit:4;stroke-opacity:1;stroke-dasharray:none" id="centromere2-o" d="m 49.777375,172.6175 -10.580125,-0.0 c 0.110375,-0.33 0.3345,-0.73125 0.663125,-1.1275 0.12150000000000001,-0.14875 0.256875,-0.2975 0.40475000000000005,-0.44500000000000006 0.443875,-0.43875 0.997625,-0.8550000000000001 1.625,-1.17875 l 0.537625,-0.2775 -0.0015,-0.00125 0.0,0.0 -0.464375,-0.24 -0.07175,-0.03625 c -0.54925,-0.285 -1.0430000000000001,-0.64 -1.4551250000000002,-1.02 -0.21475,-0.19750000000000004 -0.40762500000000007,-0.4025000000000001 -0.574625,-0.60625 -0.4907500000000001,-0.5925 -0.7485000000000002,-1.195 -0.74175,-1.5537500000000002 l 0.0,-1.9537500000000003 10.737375,0.0 0.0,1.9537500000000003 c 0.0,0.0050 0.0,0.00875 0.0,0.013750000000000002 5.0E-4,0.35875 -0.255375,0.9525 -0.737375,1.5375000000000003 -0.35687500000000005,0.44000000000000006 -0.8315,0.8800000000000001 -1.389125,1.255 -0.19925,0.13375 -0.40925,0.25875 -0.6280000000000001,0.3725 l -0.532625,0.27875 0.0010,0.0 -5.0E-4,-0.0 0.532625,0.2775 c 0.8311250000000001,0.43125 1.53225,1.02875 2.016625,1.625 0.32625000000000004,0.3950000000000001 0.549375,0.79625 0.6587500000000001,1.12625 z"/>
<path style="fill:none;stroke:#211c1d;stroke-width:0.8;stroke-linecap:butt;stroke-linejoin:miter;stroke-miterlimit:4;stroke-opacity:1;stroke-dasharray:none" id="outline2" d="m 50.1777097,172.6175 l 0.0,189 c 0.0,1.416 -2.544,2.5633750000000006 -5.681125,2.5633750000000006 -3.13875,0.0 -5.68025,-1.147375 -5.68025,-2.5633750000000006 l 0.0,-189 c 0.110375,-0.33 0.3345,-0.73125 0.663125,-1.1275 0.12150000000000001,-0.14875 0.256875,-0.2975 0.40475000000000005,-0.44500000000000006 0.443875,-0.43875 0.997625,-0.8550000000000001 1.625,-1.17875 l 0.537625,-0.2775 -0.0015,-0.00125 0.0,0.0 -0.464375,-0.24 -0.07175,-0.03625 c -0.54925,-0.285 -1.0430000000000001,-0.64 -1.4551250000000002,-1.02 -0.21475,-0.19750000000000004 -0.40762500000000007,-0.4025000000000001 -0.574625,-0.60625 -0.4907500000000001,-0.5925 -0.7485000000000002,-1.195 -0.74175,-1.5537500000000002 l 0.0,-1.9537500000000003 l 0.0,-114 c 0.0,-1.41625 2.5415000000000005,-2.5625000000000004 5.68025,-2.5625000000000004 3.1371250000000006,-0.0 5.681125,1.14625 5.681125,2.5625000000000004 l 0.0,114 l 0.0,1.9537500000000003 c 0.0,0.0050 0.0,0.00875 0.0,0.013750000000000002 5.0E-4,0.35875 -0.255375,0.9525 -0.737375,1.5375000000000003 -0.35687500000000005,0.44000000000000006 -0.8315,0.8800000000000001 -1.389125,1.255 -0.19925,0.13375 -0.40925,0.25875 -0.6280000000000001,0.3725  l -0.532625,0.27875 0.0010,0.0 -5.0E-4,-0.0 0.532625,0.2775 c 0.8311250000000001,0.43125 1.53225,1.02875 2.016625,1.625 0.32625000000000004,0.3950000000000001 0.549375,0.79625 0.6587500000000001,1.12625 z"/>
<path style="fill:none;stroke:#231f20;stroke-width:0.8;stroke-linecap:butt;stroke-linejoin:miter;stroke-miterlimit:4;stroke-opacity:1;stroke-dasharray:none;display:none" id="centre2" d="M 41.349125,169.93499999999995 0.0,169.93499999999995"/>
<text>
<tspan x="41.7905" y="372.4526375" id="label2" style="font-size:7.19543791px;font-variant:normal;font-weight:normal;writing-mode:lr-tb;fill:#211c1d;fill-opacity:1;fill-rule:nonzero;stroke:none;font-family:Helvetica;-inkscape-font-specification:Helvetica">2</tspan>
</text>
</g>
</svg>
