<?xml version="1.0" encoding="UTF-8" standalone="no"?>
<!-- Created with Inkscape (http://www.inkscape.org/) -->
<svg xmlns:dc="http://purl.org/dc/elements/1.1/" xmlns:cc="http://creativecommons.org/ns#" xmlns:rdf="http://www.w3.org/1999/02/22-rdf-syntax-ns#" xmlns:svg="http://www.w3.org/2000/svg" xmlns="http://www.w3.org/2000/svg" version="1.1" width="50.474998" height="329.13751" id="svg3397" xml:space="preserve">
  <metadata id="metadata3403">
    <rdf:RDF>
      <cc:Work rdf:about="">
        <dc:format>image/svg+xml</dc:format>
        <dc:type rdf:resource="http://purl.org/dc/dcmitype/StillImage"/>
        <dc:title/>
      </cc:Work>
    </rdf:RDF>
  </metadata>
  <defs id="defs3401">
    <clipPath id="clipPath3413">
      <path d="m 0,0 403.848,0 0,2633 L 0,2633 0,0 z" id="path3415"/>
    </clipPath>
  </defs>
  <g transform="matrix(1.25,0,0,-1.25,0,329.1375)" id="g3405">
    <g transform="scale(0.1,0.1)" id="g3407">
      <g id="g3409">
        <g clip-path="url(#clipPath3413)" id="g3411">
          <path d="m 398.219,1630.06 -84.641,0 c 0.883,2.64 2.676,5.85 5.305,9.02 0.972,1.19 2.055,2.38 3.238,3.56 3.551,3.51 7.981,6.84 13,9.43 l 4.301,2.22 -0.012,0.01 0,0 -3.715,1.92 -0.574,0.29 c -4.394,2.28 -8.344,5.12 -11.641,8.16 -1.718,1.58 -3.261,3.22 -4.597,4.85 -3.926,4.74 -5.988,9.56 -5.934,12.43 l 0,15.63 85.899,0 0,-15.63 c 0,-0.04 0,-0.07 0,-0.11 0.004,-2.87 -2.043,-7.62 -5.899,-12.3 -2.855,-3.52 -6.652,-7.04 -11.113,-10.04 -1.594,-1.07 -3.274,-2.07 -5.024,-2.98 l -4.261,-2.23 0.008,0 -0.004,0 4.261,-2.22 c 6.649,-3.45 12.258,-8.23 16.133,-13 2.61,-3.16 4.395,-6.37 5.27,-9.01" id="path3417" style="fill:#c9d9de;fill-opacity:1;fill-rule:nonzero;stroke:none"/>
          <path d="m 398.848,1625.06 -85.899,0 0,1.6 c -0.015,0.94 0.196,2.1 0.629,3.4 l 84.641,0 c -0.875,2.64 -2.66,5.85 -5.27,9.01 -3.875,4.77 -9.484,9.55 -16.133,13 l -4.261,2.22 0.004,0 4.257,-2.21 c 6.649,-3.45 12.258,-8.23 16.133,-13 3.903,-4.74 5.949,-9.56 5.899,-12.42 l 0,-1.6 m 5,1.59 0,0.01 c 0,-0.01 0,-0.01 0,-0.01 m -95.899,0 -0.019,0 0,3.41 0.437,0 c 0.93,3.92 3.297,8.07 6.641,12.19 1.125,1.37 2.367,2.73 3.715,4.06 -1.348,-1.33 -2.586,-2.69 -3.707,-4.06 -4.328,-5.34 -7.012,-10.72 -7.067,-15.59 l 0,0 m 95.899,0.05 c -0.016,1.09 -0.164,2.21 -0.434,3.35 l 0.434,0 0,-3.35 m -81.727,15.93 c 3.547,3.51 7.973,6.85 12.992,9.43 l 4.297,2.23 0.012,-0.01 -4.301,-2.22 c -5.019,-2.59 -9.449,-5.92 -13,-9.43 m 11.844,11.66 0,0 1.148,2.22 c -4.394,2.27 -8.34,5.11 -11.633,8.15 3.297,-3.04 7.247,-5.88 11.641,-8.16 l 0.574,-0.29 -0.582,0.3 -1.148,-2.22 m 49.043,0 c -0.004,0 -0.004,0 -0.004,0 0.629,0.39 1.246,0.79 1.851,1.2 -0.605,-0.41 -1.222,-0.81 -1.847,-1.2 m -1.172,5.2 c 4.461,3 8.258,6.52 11.113,10.04 3.856,4.68 5.903,9.43 5.899,12.3 0.004,-2.87 -2.039,-7.63 -5.899,-12.31 -2.855,-3.51 -6.652,-7.04 -11.113,-10.03 m -61.793,1.53 c -1.867,1.73 -3.555,3.52 -5.035,5.33 -4.332,5.34 -7.024,10.71 -7.078,15.59 l 0,20.63 0.019,0 0,-20.63 c 0.055,-4.88 2.739,-10.26 7.067,-15.59 1.476,-1.81 3.164,-3.6 5.027,-5.33 m 78.805,20.92 0,15.63 -85.899,0 0,5 85.899,0 0,-20.63" id="path3419" style="fill:#595b5d;fill-opacity:1;fill-rule:nonzero;stroke:none"/>
          <g transform="scale(10,10)" id="g3421"><text transform="matrix(1,0,0,-0.90697189,33.4324,3.13789)" id="text3423"><tspan x="0" y="0" id="tspan3425" style="font-size:7.19543791px;font-variant:normal;font-weight:normal;writing-mode:lr-tb;fill:#211c1d;fill-opacity:1;fill-rule:nonzero;stroke:none;font-family:Helvetica;-inkscape-font-specification:Helvetica">2</tspan></text>
</g>
          <path d="m 312.949,1778.51 85.8984,0 0,90.1484 -85.8984,0 0,-90.1484 z" id="path3427" style="fill:#706e71;fill-opacity:1;fill-rule:nonzero;stroke:none"/>
          <path d="m 312.949,2008.75 85.8984,0 0,44.8359 -85.8984,0 0,-44.8359 z" id="path3429" style="fill:#706e71;fill-opacity:1;fill-rule:nonzero;stroke:none"/>
          <path d="m 312.949,2063.14 85.8984,0 0,48.4492 -85.8984,0 0,-48.4492 z" id="path3431" style="fill:#706e71;fill-opacity:1;fill-rule:nonzero;stroke:none"/>
          <path d="m 312.949,1147.65 85.8984,0 0,50.2812 -85.8984,0 0,-50.2812 z" id="path3433" style="fill:#706e71;fill-opacity:1;fill-rule:nonzero;stroke:none"/>
          <path d="m 312.949,1109.58 85.8984,0 0,28.5117 -85.8984,0 0,-28.5117 z" id="path3435" style="fill:#706e71;fill-opacity:1;fill-rule:nonzero;stroke:none"/>
          <path d="m 312.949,2294.47 85.8984,0 0,23.4688 -85.8984,0 0,-23.4688 z" id="path3437" style="fill:#f3f3f4;fill-opacity:1;fill-rule:nonzero;stroke:none"/>
          <path d="m 398.848,2293.85 -85.899,0 0,0.62 85.899,0 0,-0.62 m 0,24.09 -85.899,0 0,0.62 85.899,0 0,-0.62" id="path3439" style="fill:#706e71;fill-opacity:1;fill-rule:nonzero;stroke:none"/>
          <path d="m 312.949,1478.54 85.8984,0 0,27.2695 -85.8984,0 0,-27.2695 z" id="path3441" style="fill:#f3f3f4;fill-opacity:1;fill-rule:nonzero;stroke:none"/>
          <path d="m 398.848,1477.92 -85.899,0 0,0.62 85.899,0 0,-0.62 m 0,27.89 -85.899,0 0,0.62 85.899,0 0,-0.62" id="path3443" style="fill:#706e71;fill-opacity:1;fill-rule:nonzero;stroke:none"/>
          <path d="m 312.949,1219.31 85.8984,0 0,36.3125 -85.8984,0 0,-36.3125 z" id="path3445" style="fill:#f3f3f4;fill-opacity:1;fill-rule:nonzero;stroke:none"/>
          <path d="m 398.848,1218.69 -85.899,0 0,0.62 85.899,0 0,-0.62 m 0,36.93 -85.899,0 0,0.62 85.899,0 0,-0.62" id="path3447" style="fill:#706e71;fill-opacity:1;fill-rule:nonzero;stroke:none"/>
          <path d="m 312.949,1074.28 85.8984,0 0,21.7969 -85.8984,0 0,-21.7969 z" id="path3449" style="fill:#f3f3f4;fill-opacity:1;fill-rule:nonzero;stroke:none"/>
          <path d="m 398.848,1073.66 -85.899,0 0,0.62 85.899,0 0,-0.62 m 0,22.42 -85.899,0 0,0.62 85.899,0 0,-0.62" id="path3451" style="fill:#706e71;fill-opacity:1;fill-rule:nonzero;stroke:none"/>
          <path d="m 312.949,239.43 85.8984,0 0,52.0898 -85.8984,0 0,-52.0898 z" id="path3453" style="fill:#706e71;fill-opacity:1;fill-rule:nonzero;stroke:none"/>
          <path d="m 312.949,406.219 85.8984,0 0,66.582 -85.8984,0 0,-66.582 z" id="path3455" style="fill:#706e71;fill-opacity:1;fill-rule:nonzero;stroke:none"/>
          <path d="m 310.371,2353.98 91.0547,0 0,45.8398 -91.0547,0 0,-45.8398 z" id="path3457" style="fill:#7a7e82;fill-opacity:1;fill-rule:nonzero;stroke:none"/>
          <path d="m 401.426,2353.98 0,0.31 -90.746,0 0,45.21 90.437,0 0,-45.52 0.309,0 0,0.31 0,-0.31 0.308,0 0,46.14 -91.672,0 0,-46.46 91.672,0 0,0.32 -0.308,0" id="path3459" style="fill:#211c1d;fill-opacity:1;fill-rule:nonzero;stroke:none"/>
          <path d="m 310.371,2419.26 91.0547,0 0,44.0195 -91.0547,0 0,-44.0195 z" id="path3461" style="fill:#7a7e82;fill-opacity:1;fill-rule:nonzero;stroke:none"/>
          <path d="m 401.426,2419.26 0,0.31 -90.746,0 0,43.4 90.437,0 0,-43.71 0.309,0 0,0.31 0,-0.31 0.308,0 0,44.33 -91.672,0 0,-44.64 91.672,0 0,0.31 -0.308,0" id="path3463" style="fill:#211c1d;fill-opacity:1;fill-rule:nonzero;stroke:none"/>
          <path d="m 310.371,2227.09 91.0547,0 0,47.6445 -91.0547,0 0,-47.6445 z" id="path3465" style="fill:#7a7e82;fill-opacity:1;fill-rule:nonzero;stroke:none"/>
          <path d="m 401.426,2227.09 0,0.31 -90.746,0 0,47.03 90.437,0 0,-47.34 0.309,0 0,0.31 0,-0.31 0.308,0 0,47.96 -91.672,0 0,-48.27 91.672,0 0,0.31 -0.308,0" id="path3467" style="fill:#211c1d;fill-opacity:1;fill-rule:nonzero;stroke:none"/>
          <path d="m 310.371,983.328 91.0547,0 0,51.4609 -91.0547,0 0,-51.4609 z" id="path3469" style="fill:#7a7e82;fill-opacity:1;fill-rule:nonzero;stroke:none"/>
          <path d="m 401.426,983.328 0,0.313 -90.746,0 0,50.839 90.437,0 0,-51.152 0.309,0 0,0.313 0,-0.313 0.308,0 0,51.772 -91.672,0 0,-52.08 91.672,0 0,0.308 -0.308,0" id="path3471" style="fill:#211c1d;fill-opacity:1;fill-rule:nonzero;stroke:none"/>
          <path d="m 310.371,885.43 91.0547,0 0,62.332 -91.0547,0 0,-62.332 z" id="path3473" style="fill:#7a7e82;fill-opacity:1;fill-rule:nonzero;stroke:none"/>
          <path d="m 401.426,885.43 0,0.308 -90.746,0 0,61.711 90.437,0 0,-62.019 0.309,0 0,0.308 0,-0.308 0.308,0 0,62.64 -91.672,0 0,-62.949 91.672,0 0,0.309 -0.308,0" id="path3475" style="fill:#211c1d;fill-opacity:1;fill-rule:nonzero;stroke:none"/>
          <path d="m 310.371,682.391 91.0547,0 0,65.9688 -91.0547,0 0,-65.9688 z" id="path3477" style="fill:#7a7e82;fill-opacity:1;fill-rule:nonzero;stroke:none"/>
          <path d="m 401.426,682.391 0,0.308 -90.746,0 0,65.352 90.437,0 0,-65.66 0.309,0 0,0.308 0,-0.308 0.308,0 0,66.281 -91.672,0 0,-66.594 91.672,0 0,0.313 -0.308,0" id="path3479" style="fill:#211c1d;fill-opacity:1;fill-rule:nonzero;stroke:none"/>
          <path d="m 310.371,301.711 91.0547,0 0,40.5898 -91.0547,0 0,-40.5898 z" id="path3481" style="fill:#7a7e82;fill-opacity:1;fill-rule:nonzero;stroke:none"/>
          <path d="m 401.426,301.711 0,0.309 -90.746,0 0,39.968 90.437,0 0,-40.277 0.309,0 0,0.309 0,-0.309 0.308,0 0,40.898 -91.672,0 0,-41.211 91.672,0 0,0.313 -0.308,0" id="path3483" style="fill:#211c1d;fill-opacity:1;fill-rule:nonzero;stroke:none"/>
          <path d="m 310.371,602.641 91.0547,0 0,55.0781 -91.0547,0 0,-55.0781 z" id="path3485" style="fill:#7a7e82;fill-opacity:1;fill-rule:nonzero;stroke:none"/>
          <path d="m 401.426,602.641 0,0.308 -90.746,0 0,54.461 90.437,0 0,-54.769 0.309,0 0,0.308 0,-0.308 0.308,0 0,55.39 -91.672,0 0,-55.703 91.672,0 0,0.313 -0.308,0" id="path3487" style="fill:#211c1d;fill-opacity:1;fill-rule:nonzero;stroke:none"/>
          <path d="m 310.371,1530.8 91.0547,0 0,40.5781 -91.0547,0 0,-40.5781 z" id="path3489" style="fill:#bbbcbd;fill-opacity:1;fill-rule:nonzero;stroke:none"/>
          <path d="m 401.426,1530.8 0,0.31 -90.746,0 0,39.96 90.437,0 0,-40.27 0.309,0 0,0.31 0,-0.31 0.308,0 0,40.89 -91.672,0 0,-41.2 91.672,0 0,0.31 -0.308,0" id="path3491" style="fill:#211c1d;fill-opacity:1;fill-rule:nonzero;stroke:none"/>
          <path d="m 310.371,2528.01 91.0547,0 0,33.1602 -91.0547,0 0,-33.1602 z" id="path3493" style="fill:#bbbcbd;fill-opacity:1;fill-rule:nonzero;stroke:none"/>
          <path d="m 401.426,2528.01 0,0.31 -90.746,0 0,32.54 90.437,0 0,-32.85 0.309,0 0,0.31 0,-0.31 0.308,0 0,33.47 -91.672,0 0,-33.78 91.672,0 0,0.31 -0.308,0" id="path3495" style="fill:#211c1d;fill-opacity:1;fill-rule:nonzero;stroke:none"/>
          <path d="m 310.371,2172.71 91.0547,0 0,33.1484 -91.0547,0 0,-33.1484 z" id="path3497" style="fill:#bbbcbd;fill-opacity:1;fill-rule:nonzero;stroke:none"/>
          <path d="m 401.426,2172.71 0,0.31 -90.746,0 0,32.53 90.437,0 0,-32.84 0.309,0 0,0.31 0,-0.31 0.308,0 0,33.47 -91.672,0 0,-33.77 91.672,0 0,0.3 -0.308,0" id="path3499" style="fill:#211c1d;fill-opacity:1;fill-rule:nonzero;stroke:none"/>
          <path d="m 310.371,1393.03 91.0547,0 0,40.5586 -91.0547,0 0,-40.5586 z" id="path3501" style="fill:#bbbcbd;fill-opacity:1;fill-rule:nonzero;stroke:none"/>
          <path d="m 401.426,1393.03 0,0.31 -90.746,0 0,39.94 90.437,0 0,-40.25 0.309,0 0,0.31 0,-0.31 0.308,0 0,40.87 -91.672,0 0,-41.18 91.672,0 0,0.31 -0.308,0" id="path3503" style="fill:#211c1d;fill-opacity:1;fill-rule:nonzero;stroke:none"/>
          <path d="m 310.371,1295.13 91.0547,0 0,47.8125 -91.0547,0 0,-47.8125 z" id="path3505" style="fill:#bbbcbd;fill-opacity:1;fill-rule:nonzero;stroke:none"/>
          <path d="m 401.426,1295.13 0,0.31 -90.746,0 0,47.19 90.437,0 0,-47.5 0.309,0 0,0.31 0,-0.31 0.308,0 0,48.12 -91.672,0 0,-48.43 91.672,0 0,0.31 -0.308,0" id="path3507" style="fill:#211c1d;fill-opacity:1;fill-rule:nonzero;stroke:none"/>
          <path d="m 310.371,767.602 91.0547,0 0,27.8984 -91.0547,0 0,-27.8984 z" id="path3509" style="fill:#bbbcbd;fill-opacity:1;fill-rule:nonzero;stroke:none"/>
          <path d="m 401.426,767.602 0,0.308 -90.746,0 0,27.281 90.437,0 0,-27.589 0.309,0 0,0.308 0,-0.308 0.308,0 0,28.207 -91.672,0 0,-28.52 91.672,0 0,0.313 -0.308,0" id="path3511" style="fill:#211c1d;fill-opacity:1;fill-rule:nonzero;stroke:none"/>
          <path d="m 310.371,510.18 91.0547,0 0,27.8789 -91.0547,0 0,-27.8789 z" id="path3513" style="fill:#bbbcbd;fill-opacity:1;fill-rule:nonzero;stroke:none"/>
          <path d="m 401.426,510.18 0,0.308 -90.746,0 0,27.262 90.437,0 0,-27.57 0.309,0 0,0.308 0,-0.308 0.308,0 0,28.191 -91.672,0 0,-28.5 91.672,0 0,0.309 -0.308,0" id="path3515" style="fill:#211c1d;fill-opacity:1;fill-rule:nonzero;stroke:none"/>
          <path d="m 310.371,169.371 91.0547,0 0,18.8281 -91.0547,0 0,-18.8281 z" id="path3517" style="fill:#bbbcbd;fill-opacity:1;fill-rule:nonzero;stroke:none"/>
          <path d="m 401.426,169.371 0,0.309 -90.746,0 0,18.211 90.437,0 0,-18.52 0.309,0 0,0.309 0,-0.309 0.308,0 0,19.141 -91.672,0 0,-19.453 91.672,0 0,0.312 -0.308,0" id="path3519" style="fill:#211c1d;fill-opacity:1;fill-rule:nonzero;stroke:none"/>
          <path d="m 310.371,1884.46 91.0547,0 0,24.0859 -91.0547,0 0,-24.0859 z" id="path3521" style="fill:#bbbcbd;fill-opacity:1;fill-rule:nonzero;stroke:none"/>
          <path d="m 401.426,1884.46 0,0.31 -90.746,0 0,23.46 90.437,0 0,-23.77 0.309,0 0,0.31 0,-0.31 0.308,0 0,24.4 -91.672,0 0,-24.71 91.672,0 0,0.31 -0.308,0" id="path3523" style="fill:#211c1d;fill-opacity:1;fill-rule:nonzero;stroke:none"/>
          <path d="m 310.371,1940.66 91.0547,0 0,33.1484 -91.0547,0 0,-33.1484 z" id="path3525" style="fill:#bbbcbd;fill-opacity:1;fill-rule:nonzero;stroke:none"/>
          <path d="m 401.426,1940.66 0,0.31 -90.746,0 0,32.53 90.437,0 0,-32.84 0.309,0 0,0.31 0,-0.31 0.308,0 0,33.46 -91.672,0 0,-33.76 91.672,0 0,0.3 -0.308,0" id="path3527" style="fill:#211c1d;fill-opacity:1;fill-rule:nonzero;stroke:none"/>
          <path d="m 355.898,94.4883 c -19.296,0.0703 -35.847,5.0898 -43.703,13.3207 -2.605,2.769 -4.25,6.089 -4.246,9.711 l 0,1509.14 2.481,-0.01 0,-1.59 2.519,0 0,-53.37 -2.887,0 0,-41.2 2.887,0 0,-24.06 -2.887,0 0,-28.51 2.887,0 0,-44.02 -2.887,0 0,-41.18 2.887,0 0,-49.47 -2.887,0 0,-48.43 2.887,0 0,-38.58 -2.887,0 0,-37.55 2.887,0 0,-20.76 -2.578,0 0,-50.28 2.578,0 0,-9.56 -2.578,0 0,-28.51 2.578,0 0,-12.88 -2.887,0 0,-23.04 2.887,0 0,-38.56 -2.887,0 0,-52.08 2.887,0 0,-34.95 -2.887,0 0,-62.949 2.887,0 0,-89.312 -2.887,0 0,-28.52 2.887,0 0,-18.617 -2.887,0 0,-66.594 2.887,0 0,-24.047 -2.887,0 0,-55.703 2.887,0 0,-63.957 -2.887,0 0,-28.5 2.887,0 0,-37.07 -2.578,0 0,-66.582 2.578,0 0,-63.61 -2.887,0 0,-41.211 2.887,0 0,-9.878 -2.578,0 0,-52.09 2.578,0 0,-50.918 -2.887,0 0,-19.453 2.887,0 0,-51.539 c 0.004,-2.071 0.903,-4.149 2.895,-6.29 1.984,-2.128 5.047,-4.199 8.941,-5.96 7.785,-3.52 18.836,-5.7817 31.063,-5.7817 0.015,0 0.035,0 0.05,0 0.122,0 0.239,0 0.36,0 18.215,0 33.797,5.2817 39.695,11.7417 1.996,2.141 2.891,4.219 2.895,6.29 l 0,51.539 2.886,0 0,19.453 -2.886,0 0,50.918 2.578,0 0,52.09 -2.578,0 0,9.878 2.886,0 0,41.211 -2.886,0 0,63.61 2.578,0 0,66.582 -2.578,0 0,37.07 2.886,0 0,28.5 -2.886,0 0,63.957 2.886,0 0,55.703 -2.886,0 0,24.047 2.886,0 0,66.594 -2.886,0 0,18.617 2.886,0 0,28.52 -2.886,0 0,89.312 2.886,0 0,62.949 -2.886,0 0,34.95 2.886,0 0,52.08 -2.886,0 0,38.56 2.886,0 0,23.04 -2.886,0 0,12.88 2.578,0 0,28.51 -2.578,0 0,9.56 2.578,0 0,50.28 -2.578,0 0,20.76 2.886,0 0,37.55 -2.886,0 0,38.58 2.886,0 0,48.43 -2.886,0 0,49.47 2.886,0 0,41.18 -2.886,0 0,44.02 2.886,0 0,28.51 -2.886,0 0,24.06 2.886,0 0,41.2 -2.886,0 0,53.37 2.5,0 0,1.59 2.5,0 0,-1509.13 c 0.004,-3.622 -1.641,-6.942 -4.243,-9.711 -2.613,-2.778 -6.207,-5.129 -10.535,-7.09 -8.652,-3.8987 -20.304,-6.2307 -33.172,-6.2307 m 47.95,1532.1617 c 0,0.02 0,0.03 0,0.05 l 0,0.01 c 0,-0.02 0,-0.04 0,-0.05 l 0,0 m -0.434,3.4 -0.004,0 c -0.922,3.91 -3.265,8.05 -6.582,12.17 -3.535,4.34 -8.242,8.59 -13.824,12.07 0,0 0,0 0.004,0 5.578,-3.48 10.285,-7.73 13.82,-12.06 3.317,-4.12 5.66,-8.26 6.586,-12.18 m -84.691,16.25 c 2.918,2.88 6.343,5.61 10.179,7.99 -3.269,2.02 -6.242,4.32 -8.859,6.73 2.617,-2.41 5.594,-4.71 8.867,-6.74 -3.836,-2.37 -7.265,-5.1 -10.187,-7.98 m 66.132,9.19 c 4.774,3.25 8.833,7.03 11.973,10.88 4.297,5.34 6.969,10.71 7.02,15.57 l 0,20.63 -5,0 0,75.93 2.578,0 0,90.15 -2.578,0 0,15.49 2.886,0 0,24.71 -2.886,0 0,31.5 2.886,0 0,33.76 -2.886,0 0,34.63 2.578,0 0,44.83 -2.578,0 0,9.56 2.578,0 0,48.45 -2.578,0 0,60.82 2.886,0 0,33.77 -2.886,0 0,20.6 2.886,0 0,48.27 -2.886,0 0,18.8 2.886,0 0,24.71 -2.886,0 0,35.1 2.886,0 0,46.46 -2.886,0 0,18.83 2.886,0 0,44.64 -2.886,0 0,64.11 2.886,0 0,33.78 -2.886,0 0,48.63 c -0.004,2.05 -0.899,4.13 -2.895,6.27 -1.984,2.13 -5.043,4.2 -8.941,5.96 -7.782,3.52 -18.832,5.79 -31.063,5.79 -0.015,0 -0.035,0 -0.051,0 -0.121,0 -0.238,0 -0.359,0 -18.207,0 -33.793,-5.29 -39.695,-11.75 -1.996,-2.14 -2.891,-4.22 -2.895,-6.27 l 0,-48.63 -2.887,0 0,-33.78 2.887,0 0,-64.11 -2.887,0 0,-44.64 2.887,0 0,-18.83 -2.887,0 0,-46.46 2.887,0 0,-35.1 -2.887,0 0,-24.71 2.887,0 0,-18.8 -2.887,0 0,-48.27 2.887,0 0,-20.6 -2.887,0 0,-33.77 2.887,0 0,-60.82 -2.578,0 0,-48.45 2.578,0 0,-9.56 -2.578,0 0,-44.83 2.578,0 0,-34.63 -2.887,0 0,-33.76 2.887,0 0,-31.5 -2.887,0 0,-24.71 2.887,0 0,-15.49 -2.578,0 0,-90.15 2.578,0 0,-75.93 -5,0 0,907.53 c -0.004,3.6 1.645,6.93 4.246,9.69 2.614,2.78 6.207,5.13 10.535,7.09 8.653,3.9 20.305,6.23 33.168,6.24 19.305,-0.07 35.852,-5.1 43.704,-13.33 2.601,-2.76 4.25,-6.09 4.246,-9.69 l 0,-928.16 c -0.051,-4.86 -2.719,-10.24 -7.02,-15.57 -3.137,-3.86 -7.199,-7.64 -11.973,-10.88" id="path3529" style="fill:#706e71;fill-opacity:1;fill-rule:nonzero;stroke:none"/>
          <path d="m 313.578,1630.06 -0.016,0 c 0.883,2.64 2.676,5.85 5.309,9.02 0.977,1.19 2.067,2.38 3.25,3.56 -1.183,-1.18 -2.266,-2.37 -3.238,-3.56 -2.629,-3.17 -4.422,-6.38 -5.305,-9.02 m 58.981,24.23 -0.008,0 4.261,2.23 c 1.75,0.91 3.43,1.91 5.024,2.98 -1.594,-1.07 -3.274,-2.08 -5.024,-2.99 l -4.253,-2.22 m -33.149,0.01 -3.715,1.92 3.715,-1.92 0,0 m -15.93,10.37 c -1.722,1.58 -3.269,3.22 -4.609,4.86 -3.93,4.74 -5.996,9.56 -5.941,12.42 l 0,15.63 0.019,0 0,-15.63 c -0.054,-2.87 2.008,-7.69 5.934,-12.43 1.336,-1.63 2.879,-3.27 4.597,-4.85 m 75.368,17.17 c 0,0.04 0,0.07 0,0.11 l 0,0 c 0,-0.04 0,-0.07 0,-0.11" id="path3531" style="fill:#595e64;fill-opacity:1;fill-rule:nonzero;stroke:none"/>
          <path d="m 401.348,1625.06 -2.5,0 0,1.6 c 0.05,2.86 -1.996,7.68 -5.899,12.42 -3.875,4.77 -9.484,9.55 -16.133,13 l -4.257,2.21 4.253,2.22 c 1.75,0.91 3.43,1.92 5.024,2.99 4.461,2.99 8.258,6.52 11.113,10.03 3.86,4.68 5.903,9.44 5.899,12.31 0,0.04 0,0.07 0,0.11 l 0,20.63 5,0 0,-20.63 c -0.051,-4.86 -2.723,-10.23 -7.02,-15.57 -3.14,-3.85 -7.199,-7.63 -11.973,-10.88 -0.605,-0.41 -1.222,-0.81 -1.851,-1.2 0,0 0,0 0.004,0 -0.004,0 -0.004,0 -0.004,0 5.582,-3.48 10.289,-7.73 13.824,-12.07 3.317,-4.12 5.66,-8.26 6.582,-12.17 l 0.004,0 c 0.27,-1.14 0.418,-2.26 0.434,-3.35 l 0,-0.01 c 0,-0.02 0,-0.03 0,-0.05 l 0,0.01 0,-0.01 -2.5,0 0,-1.59 m -88.399,0 -2.519,0 0,1.59 -2.481,0 0,0.01 c 0.055,4.87 2.739,10.25 7.067,15.59 1.121,1.37 2.359,2.73 3.707,4.06 2.922,2.88 6.351,5.61 10.187,7.98 -3.273,2.03 -6.25,4.33 -8.867,6.74 -1.863,1.73 -3.551,3.52 -5.027,5.33 -4.328,5.33 -7.012,10.71 -7.067,15.59 l 0,20.63 5,0 0,-5 -0.019,0 0,-15.63 c -0.055,-2.86 2.011,-7.68 5.941,-12.42 1.34,-1.64 2.887,-3.28 4.609,-4.86 3.293,-3.04 7.239,-5.88 11.633,-8.15 l -1.148,-2.22 1.148,2.22 0.582,-0.3 3.715,-1.92 -4.297,-2.23 c -5.019,-2.58 -9.445,-5.92 -12.992,-9.43 -1.183,-1.18 -2.273,-2.37 -3.25,-3.56 -2.633,-3.17 -4.426,-6.38 -5.309,-9.02 l 0.016,0 c -0.433,-1.3 -0.644,-2.46 -0.629,-3.4 l 0,-1.6 m -0.019,1.59 0,0" id="path3533" style="fill:#353233;fill-opacity:1;fill-rule:nonzero;stroke:none"/>
          <path d="m 401.426,1778.51 -2.578,0 0,90.15 2.578,0 0,-90.15 m -88.477,0 -2.578,0 0,90.15 2.578,0 0,-90.15" id="path3535" style="fill:#3d393b;fill-opacity:1;fill-rule:nonzero;stroke:none"/>
          <path d="m 401.426,2008.75 -2.578,0 0,44.83 2.578,0 0,-44.83 m -88.477,0 -2.578,0 0,44.83 2.578,0 0,-44.83" id="path3537" style="fill:#3d393b;fill-opacity:1;fill-rule:nonzero;stroke:none"/>
          <path d="m 401.426,2063.14 -2.578,0 0,48.45 2.578,0 0,-48.45 m -88.477,0 -2.578,0 0,48.45 2.578,0 0,-48.45" id="path3539" style="fill:#3d393b;fill-opacity:1;fill-rule:nonzero;stroke:none"/>
          <path d="m 401.426,1147.65 -2.578,0 0,50.28 2.578,0 0,-50.28 m -88.477,0 -2.578,0 0,50.28 2.578,0 0,-50.28" id="path3541" style="fill:#3d393b;fill-opacity:1;fill-rule:nonzero;stroke:none"/>
          <path d="m 401.426,1109.58 -2.578,0 0,28.51 2.578,0 0,-28.51 m -88.477,0 -2.578,0 0,28.51 2.578,0 0,-28.51" id="path3543" style="fill:#3d393b;fill-opacity:1;fill-rule:nonzero;stroke:none"/>
          <path d="m 401.117,2294.47 -2.269,0 0,23.47 2.269,0 0,-23.47 m -88.168,0 -2.269,0 0,23.47 2.269,0 0,-23.47" id="path3545" style="fill:#69686b;fill-opacity:1;fill-rule:nonzero;stroke:none"/>
          <path d="m 401.734,2293.85 -2.886,0 0,0.62 2.269,0 0,23.47 -2.269,0 0,0.62 2.886,0 0,-24.71 m -0.308,0.31 0,0.31 0,-0.31 m -88.477,-0.31 -2.887,0 0,24.71 2.887,0 0,-0.62 -2.269,0 0,-23.47 2.269,0 0,-0.62" id="path3547" style="fill:#3d393b;fill-opacity:1;fill-rule:nonzero;stroke:none"/>
          <path d="m 401.117,1478.54 -2.269,0 0,27.27 2.269,0 0,-27.27 m -88.168,0 -2.269,0 0,27.27 2.269,0 0,-27.27" id="path3549" style="fill:#69686b;fill-opacity:1;fill-rule:nonzero;stroke:none"/>
          <path d="m 401.734,1477.92 -2.886,0 0,0.62 2.269,0 0,27.27 -2.269,0 0,0.62 2.886,0 0,-28.51 m -0.308,0.31 0,0.31 0,-0.31 m -88.477,-0.31 -2.887,0 0,28.51 2.887,0 0,-0.62 -2.269,0 0,-27.27 2.269,0 0,-0.62" id="path3551" style="fill:#3d393b;fill-opacity:1;fill-rule:nonzero;stroke:none"/>
          <path d="m 401.117,1219.31 -2.269,0 0,36.31 2.269,0 0,-36.31 m -88.168,0 -2.269,0 0,36.31 2.269,0 0,-36.31" id="path3553" style="fill:#69686b;fill-opacity:1;fill-rule:nonzero;stroke:none"/>
          <path d="m 401.734,1218.69 -2.886,0 0,0.62 2.269,0 0,36.31 -2.269,0 0,0.62 2.886,0 0,-37.55 m -0.308,0.31 0,0.31 0,-0.31 m -88.477,-0.31 -2.887,0 0,37.55 2.887,0 0,-0.62 -2.269,0 0,-36.31 2.269,0 0,-0.62" id="path3555" style="fill:#3d393b;fill-opacity:1;fill-rule:nonzero;stroke:none"/>
          <path d="m 401.117,1074.28 -2.269,0 0,21.8 2.269,0 0,-21.8 m -88.168,0 -2.269,0 0,21.8 2.269,0 0,-21.8" id="path3557" style="fill:#69686b;fill-opacity:1;fill-rule:nonzero;stroke:none"/>
          <path d="m 401.734,1073.66 -2.886,0 0,0.62 2.269,0 0,21.8 -2.269,0 0,0.62 2.886,0 0,-23.04 m -0.308,0.31 0,0.31 0,-0.31 m -88.477,-0.31 -2.887,0 0,23.04 2.887,0 0,-0.62 -2.269,0 0,-21.8 2.269,0 0,-0.62" id="path3559" style="fill:#3d393b;fill-opacity:1;fill-rule:nonzero;stroke:none"/>
          <path d="m 401.426,239.43 -2.578,0 0,52.09 2.578,0 0,-52.09 m -88.477,0 -2.578,0 0,52.09 2.578,0 0,-52.09" id="path3561" style="fill:#3d393b;fill-opacity:1;fill-rule:nonzero;stroke:none"/>
          <path d="m 401.426,406.219 -2.578,0 0,66.582 2.578,0 0,-66.582 m -88.477,0 -2.578,0 0,66.582 2.578,0 0,-66.582" id="path3563" style="fill:#3d393b;fill-opacity:1;fill-rule:nonzero;stroke:none"/>
          <path d="m 401.117,2354.29 -2.269,0 0,45.21 2.269,0 0,-45.21 m -88.168,0 -2.269,0 0,45.21 2.269,0 0,-45.21" id="path3565" style="fill:#403e41;fill-opacity:1;fill-rule:nonzero;stroke:none"/>
          <path d="m 401.734,2353.66 -2.886,0 0,0.63 2.269,0 0,45.21 -2.269,0 0,0.62 2.886,0 0,-46.46 m -0.308,0.32 0,0.31 0,-0.31 m -88.477,-0.32 -2.887,0 0,46.46 2.887,0 0,-0.62 -2.269,0 0,-45.21 2.269,0 0,-0.63" id="path3567" style="fill:#211c1d;fill-opacity:1;fill-rule:nonzero;stroke:none"/>
          <path d="m 401.117,2419.57 -2.269,0 0,43.4 2.269,0 0,-43.4 m -88.168,0 -2.269,0 0,43.4 2.269,0 0,-43.4" id="path3569" style="fill:#403e41;fill-opacity:1;fill-rule:nonzero;stroke:none"/>
          <path d="m 401.734,2418.95 -2.886,0 0,0.62 2.269,0 0,43.4 -2.269,0 0,0.62 2.886,0 0,-44.64 m -0.308,0.31 0,0.31 0,-0.31 m -88.477,-0.31 -2.887,0 0,44.64 2.887,0 0,-0.62 -2.269,0 0,-43.4 2.269,0 0,-0.62" id="path3571" style="fill:#211c1d;fill-opacity:1;fill-rule:nonzero;stroke:none"/>
          <path d="m 401.117,2227.4 -2.269,0 0,47.03 2.269,0 0,-47.03 m -88.168,0 -2.269,0 0,47.03 2.269,0 0,-47.03" id="path3573" style="fill:#403e41;fill-opacity:1;fill-rule:nonzero;stroke:none"/>
          <path d="m 401.734,2226.78 -2.886,0 0,0.62 2.269,0 0,47.03 -2.269,0 0,0.62 2.886,0 0,-48.27 m -0.308,0.31 0,0.31 0,-0.31 m -88.477,-0.31 -2.887,0 0,48.27 2.887,0 0,-0.62 -2.269,0 0,-47.03 2.269,0 0,-0.62" id="path3575" style="fill:#211c1d;fill-opacity:1;fill-rule:nonzero;stroke:none"/>
          <path d="m 401.117,983.641 -2.269,0 0,50.839 2.269,0 0,-50.839 m -88.168,0 -2.269,0 0,50.839 2.269,0 0,-50.839" id="path3577" style="fill:#403e41;fill-opacity:1;fill-rule:nonzero;stroke:none"/>
          <path d="m 401.734,983.02 -2.886,0 0,0.621 2.269,0 0,50.839 -2.269,0 0,0.62 2.886,0 0,-52.08 m -0.308,0.308 0,0.313 0,-0.313 m -88.477,-0.308 -2.887,0 0,52.08 2.887,0 0,-0.62 -2.269,0 0,-50.839 2.269,0 0,-0.621" id="path3579" style="fill:#211c1d;fill-opacity:1;fill-rule:nonzero;stroke:none"/>
          <path d="m 401.117,885.738 -2.269,0 0,61.711 2.269,0 0,-61.711 m -88.168,0 -2.269,0 0,61.711 2.269,0 0,-61.711" id="path3581" style="fill:#403e41;fill-opacity:1;fill-rule:nonzero;stroke:none"/>
          <path d="m 401.734,885.121 -2.886,0 0,0.617 2.269,0 0,61.711 -2.269,0 0,0.621 2.886,0 0,-62.949 m -0.308,0.309 0,0.308 0,-0.308 m -88.477,-0.309 -2.887,0 0,62.949 2.887,0 0,-0.621 -2.269,0 0,-61.711 2.269,0 0,-0.617" id="path3583" style="fill:#211c1d;fill-opacity:1;fill-rule:nonzero;stroke:none"/>
          <path d="m 401.117,682.699 -2.269,0 0,65.352 2.269,0 0,-65.352 m -88.168,0 -2.269,0 0,65.352 2.269,0 0,-65.352" id="path3585" style="fill:#403e41;fill-opacity:1;fill-rule:nonzero;stroke:none"/>
          <path d="m 401.734,682.078 -2.886,0 0,0.621 2.269,0 0,65.352 -2.269,0 0,0.621 2.886,0 0,-66.594 m -0.308,0.313 0,0.308 0,-0.308 m -88.477,-0.313 -2.887,0 0,66.594 2.887,0 0,-0.621 -2.269,0 0,-65.352 2.269,0 0,-0.621" id="path3587" style="fill:#211c1d;fill-opacity:1;fill-rule:nonzero;stroke:none"/>
          <path d="m 401.117,302.02 -2.269,0 0,39.968 2.269,0 0,-39.968 m -88.168,0 -2.269,0 0,39.968 2.269,0 0,-39.968" id="path3589" style="fill:#403e41;fill-opacity:1;fill-rule:nonzero;stroke:none"/>
          <path d="m 401.734,301.398 -2.886,0 0,0.622 2.269,0 0,39.968 -2.269,0 0,0.621 2.886,0 0,-41.211 m -0.308,0.313 0,0.309 0,-0.309 m -88.477,-0.313 -2.887,0 0,41.211 2.887,0 0,-0.621 -2.269,0 0,-39.968 2.269,0 0,-0.622" id="path3591" style="fill:#211c1d;fill-opacity:1;fill-rule:nonzero;stroke:none"/>
          <path d="m 401.117,602.949 -2.269,0 0,54.461 2.269,0 0,-54.461 m -88.168,0 -2.269,0 0,54.461 2.269,0 0,-54.461" id="path3593" style="fill:#403e41;fill-opacity:1;fill-rule:nonzero;stroke:none"/>
          <path d="m 401.734,602.328 -2.886,0 0,0.621 2.269,0 0,54.461 -2.269,0 0,0.621 2.886,0 0,-55.703 m -0.308,0.313 0,0.308 0,-0.308 m -88.477,-0.313 -2.887,0 0,55.703 2.887,0 0,-0.621 -2.269,0 0,-54.461 2.269,0 0,-0.621" id="path3595" style="fill:#211c1d;fill-opacity:1;fill-rule:nonzero;stroke:none"/>
          <path d="m 401.117,1531.11 -2.269,0 0,39.96 2.269,0 0,-39.96 m -88.168,0 -2.269,0 0,39.96 2.269,0 0,-39.96" id="path3597" style="fill:#555358;fill-opacity:1;fill-rule:nonzero;stroke:none"/>
          <path d="m 401.734,1530.49 -2.886,0 0,0.62 2.269,0 0,39.96 -2.269,0 0,0.62 2.886,0 0,-41.2 m -0.308,0.31 0,0.31 0,-0.31 m -88.477,-0.31 -2.887,0 0,41.2 2.887,0 0,-0.62 -2.269,0 0,-39.96 2.269,0 0,-0.62" id="path3599" style="fill:#211c1d;fill-opacity:1;fill-rule:nonzero;stroke:none"/>
          <path d="m 401.117,2528.32 -2.269,0 0,32.54 2.269,0 0,-32.54 m -88.168,0 -2.269,0 0,32.54 2.269,0 0,-32.54" id="path3601" style="fill:#555358;fill-opacity:1;fill-rule:nonzero;stroke:none"/>
          <path d="m 401.734,2527.7 -2.886,0 0,0.62 2.269,0 0,32.54 -2.269,0 0,0.62 2.886,0 0,-33.78 m -0.308,0.31 0,0.31 0,-0.31 m -88.477,-0.31 -2.887,0 0,33.78 2.887,0 0,-0.62 -2.269,0 0,-32.54 2.269,0 0,-0.62" id="path3603" style="fill:#211c1d;fill-opacity:1;fill-rule:nonzero;stroke:none"/>
          <path d="m 401.117,2173.02 -2.269,0 0,32.53 2.269,0 0,-32.53 m -88.168,0 -2.269,0 0,32.53 2.269,0 0,-32.53" id="path3605" style="fill:#555358;fill-opacity:1;fill-rule:nonzero;stroke:none"/>
          <path d="m 401.734,2172.41 -2.886,0 0,0.61 2.269,0 0,32.53 -2.269,0 0,0.63 2.886,0 0,-33.77 m -0.308,0.3 0,0.31 0,-0.31 m -88.477,-0.3 -2.887,0 0,33.77 2.887,0 0,-0.63 -2.269,0 0,-32.53 2.269,0 0,-0.61" id="path3607" style="fill:#211c1d;fill-opacity:1;fill-rule:nonzero;stroke:none"/>
          <path d="m 401.117,1393.34 -2.269,0 0,39.94 2.269,0 0,-39.94 m -88.168,0 -2.269,0 0,39.94 2.269,0 0,-39.94" id="path3609" style="fill:#555358;fill-opacity:1;fill-rule:nonzero;stroke:none"/>
          <path d="m 401.734,1392.72 -2.886,0 0,0.62 2.269,0 0,39.94 -2.269,0 0,0.62 2.886,0 0,-41.18 m -0.308,0.31 0,0.31 0,-0.31 m -88.477,-0.31 -2.887,0 0,41.18 2.887,0 0,-0.62 -2.269,0 0,-39.94 2.269,0 0,-0.62" id="path3611" style="fill:#211c1d;fill-opacity:1;fill-rule:nonzero;stroke:none"/>
          <path d="m 401.117,1295.44 -2.269,0 0,47.19 2.269,0 0,-47.19 m -88.168,0 -2.269,0 0,47.19 2.269,0 0,-47.19" id="path3613" style="fill:#555358;fill-opacity:1;fill-rule:nonzero;stroke:none"/>
          <path d="m 401.734,1294.82 -2.886,0 0,0.62 2.269,0 0,47.19 -2.269,0 0,0.62 2.886,0 0,-48.43 m -0.308,0.31 0,0.31 0,-0.31 m -88.477,-0.31 -2.887,0 0,48.43 2.887,0 0,-0.62 -2.269,0 0,-47.19 2.269,0 0,-0.62" id="path3615" style="fill:#211c1d;fill-opacity:1;fill-rule:nonzero;stroke:none"/>
          <path d="m 401.117,767.91 -2.269,0 0,27.281 2.269,0 0,-27.281 m -88.168,0 -2.269,0 0,27.281 2.269,0 0,-27.281" id="path3617" style="fill:#555358;fill-opacity:1;fill-rule:nonzero;stroke:none"/>
          <path d="m 401.734,767.289 -2.886,0 0,0.621 2.269,0 0,27.281 -2.269,0 0,0.618 2.886,0 0,-28.52 m -0.308,0.313 0,0.308 0,-0.308 m -88.477,-0.313 -2.887,0 0,28.52 2.887,0 0,-0.618 -2.269,0 0,-27.281 2.269,0 0,-0.621" id="path3619" style="fill:#211c1d;fill-opacity:1;fill-rule:nonzero;stroke:none"/>
          <path d="m 401.117,510.488 -2.269,0 0,27.262 2.269,0 0,-27.262 m -88.168,0 -2.269,0 0,27.262 2.269,0 0,-27.262" id="path3621" style="fill:#555358;fill-opacity:1;fill-rule:nonzero;stroke:none"/>
          <path d="m 401.734,509.871 -2.886,0 0,0.617 2.269,0 0,27.262 -2.269,0 0,0.621 2.886,0 0,-28.5 m -0.308,0.309 0,0.308 0,-0.308 m -88.477,-0.309 -2.887,0 0,28.5 2.887,0 0,-0.621 -2.269,0 0,-27.262 2.269,0 0,-0.617" id="path3623" style="fill:#211c1d;fill-opacity:1;fill-rule:nonzero;stroke:none"/>
          <path d="m 401.117,169.68 -2.269,0 0,18.211 2.269,0 0,-18.211 m -88.168,0 -2.269,0 0,18.211 2.269,0 0,-18.211" id="path3625" style="fill:#555358;fill-opacity:1;fill-rule:nonzero;stroke:none"/>
          <path d="m 401.734,169.059 -2.886,0 0,0.621 2.269,0 0,18.211 -2.269,0 0,0.621 2.886,0 0,-19.453 m -0.308,0.312 0,0.309 0,-0.309 m -88.477,-0.312 -2.887,0 0,19.453 2.887,0 0,-0.621 -2.269,0 0,-18.211 2.269,0 0,-0.621" id="path3627" style="fill:#211c1d;fill-opacity:1;fill-rule:nonzero;stroke:none"/>
          <path d="m 401.117,1884.77 -2.269,0 0,23.46 2.269,0 0,-23.46 m -88.168,0 -2.269,0 0,23.46 2.269,0 0,-23.46" id="path3629" style="fill:#555358;fill-opacity:1;fill-rule:nonzero;stroke:none"/>
          <path d="m 401.734,1884.15 -2.886,0 0,0.62 2.269,0 0,23.46 -2.269,0 0,0.63 2.886,0 0,-24.71 m -0.308,0.31 0,0.31 0,-0.31 m -88.477,-0.31 -2.887,0 0,24.71 2.887,0 0,-0.63 -2.269,0 0,-23.46 2.269,0 0,-0.62" id="path3631" style="fill:#211c1d;fill-opacity:1;fill-rule:nonzero;stroke:none"/>
          <path d="m 401.117,1940.97 -2.269,0 0,32.53 2.269,0 0,-32.53 m -88.168,0 -2.269,0 0,32.53 2.269,0 0,-32.53" id="path3633" style="fill:#555358;fill-opacity:1;fill-rule:nonzero;stroke:none"/>
          <path d="m 401.734,1940.36 -2.886,0 0,0.61 2.269,0 0,32.53 -2.269,0 0,0.62 2.886,0 0,-33.76 m -0.308,0.3 0,0.31 0,-0.31 m -88.477,-0.3 -2.887,0 0,33.76 2.887,0 0,-0.62 -2.269,0 0,-32.53 2.269,0 0,-0.61" id="path3635" style="fill:#211c1d;fill-opacity:1;fill-rule:nonzero;stroke:none"/>
          <path d="m 0,1651.52 330.793,0 0,5 -330.793,0 0,-5 z" id="path3637" style="fill:#231f20;fill-opacity:1;fill-rule:nonzero;stroke:none"/>
          <g transform="scale(10,10)" id="g3639"><text transform="matrix(1,0,0,-0.90698012,22.8438,161.774)" id="text3641"><tspan x="0 1.7358392 3.7368181 4.736331" y="0" id="tspan3643" style="font-size:3.59771943px;font-variant:normal;font-weight:normal;writing-mode:lr-tb;fill:#231f20;fill-opacity:1;fill-rule:nonzero;stroke:none;font-family:Helvetica;-inkscape-font-specification:Helvetica">11.1</tspan><tspan x="-0.26523405 1.735098 3.73543 4.7355962" y="15.090408" id="tspan3645" style="font-size:3.59771943px;font-variant:normal;font-weight:normal;writing-mode:lr-tb;fill:#231f20;fill-opacity:1;fill-rule:nonzero;stroke:none;font-family:Helvetica;-inkscape-font-specification:Helvetica">12.3</tspan><tspan x="-0.26523405 1.735098 3.73543 4.7355962" y="60.060635" id="tspan3647" style="font-size:3.59771943px;font-variant:normal;font-weight:normal;writing-mode:lr-tb;fill:#231f20;fill-opacity:1;fill-rule:nonzero;stroke:none;font-family:Helvetica;-inkscape-font-specification:Helvetica">23.2</tspan><tspan x="-0.26523405 1.735098 3.73543 4.7355962" y="150.70308" id="tspan3649" style="font-size:3.59771943px;font-variant:normal;font-weight:normal;writing-mode:lr-tb;fill:#231f20;fill-opacity:1;fill-rule:nonzero;stroke:none;font-family:Helvetica;-inkscape-font-specification:Helvetica">36.3</tspan><tspan x="-0.26523405 1.735098 3.73543 4.7355962" y="34.176823" id="tspan3651" style="font-size:3.59771943px;font-variant:normal;font-weight:normal;writing-mode:lr-tb;fill:#231f20;fill-opacity:1;fill-rule:nonzero;stroke:none;font-family:Helvetica;-inkscape-font-specification:Helvetica">14.3</tspan><tspan x="-0.26523405 1.735098 3.73543 4.7355962" y="68.355301" id="tspan3653" style="font-size:3.59771943px;font-variant:normal;font-weight:normal;writing-mode:lr-tb;fill:#231f20;fill-opacity:1;fill-rule:nonzero;stroke:none;font-family:Helvetica;-inkscape-font-specification:Helvetica">24.1</tspan><tspan x="-0.26523405 1.735098 3.73543 4.7355962" y="79.15049" id="tspan3655" style="font-size:3.59771943px;font-variant:normal;font-weight:normal;writing-mode:lr-tb;fill:#231f20;fill-opacity:1;fill-rule:nonzero;stroke:none;font-family:Helvetica;-inkscape-font-specification:Helvetica">24.3</tspan><tspan x="-0.26523405 1.735098 3.73543 4.7355962" y="73.152306" id="tspan3657" style="font-size:3.59771943px;font-variant:normal;font-weight:normal;writing-mode:lr-tb;fill:#231f20;fill-opacity:1;fill-rule:nonzero;stroke:none;font-family:Helvetica;-inkscape-font-specification:Helvetica">24.2</tspan><tspan x="-0.26523405 1.735098 3.73543 4.7355962" y="96.337051" id="tspan3659" style="font-size:3.59771943px;font-variant:normal;font-weight:normal;writing-mode:lr-tb;fill:#231f20;fill-opacity:1;fill-rule:nonzero;stroke:none;font-family:Helvetica;-inkscape-font-specification:Helvetica">31.3</tspan><tspan x="-0.26523405 1.735098 3.73543 4.7355962" y="93.338173" id="tspan3661" style="font-size:3.59771943px;font-variant:normal;font-weight:normal;writing-mode:lr-tb;fill:#231f20;fill-opacity:1;fill-rule:nonzero;stroke:none;font-family:Helvetica;-inkscape-font-specification:Helvetica">31.2</tspan><tspan x="-0.26523405 1.735098 3.73543 4.7355962" y="87.142738" id="tspan3663" style="font-size:3.59771943px;font-variant:normal;font-weight:normal;writing-mode:lr-tb;fill:#231f20;fill-opacity:1;fill-rule:nonzero;stroke:none;font-family:Helvetica;-inkscape-font-specification:Helvetica">31.1</tspan><tspan x="-0.26523405 1.735098 3.73543 4.7355962" y="100.73399" id="tspan3665" style="font-size:3.59771943px;font-variant:normal;font-weight:normal;writing-mode:lr-tb;fill:#231f20;fill-opacity:1;fill-rule:nonzero;stroke:none;font-family:Helvetica;-inkscape-font-specification:Helvetica">32.1</tspan><tspan x="-0.26523405 1.735098 3.73543 4.7355962" y="105.73212" id="tspan3667" style="font-size:3.59771943px;font-variant:normal;font-weight:normal;writing-mode:lr-tb;fill:#231f20;fill-opacity:1;fill-rule:nonzero;stroke:none;font-family:Helvetica;-inkscape-font-specification:Helvetica">32.2</tspan><tspan x="-0.26523405 1.735098 3.73543 4.7355962" y="109.9296" id="tspan3669" style="font-size:3.59771943px;font-variant:normal;font-weight:normal;writing-mode:lr-tb;fill:#231f20;fill-opacity:1;fill-rule:nonzero;stroke:none;font-family:Helvetica;-inkscape-font-specification:Helvetica">32.3</tspan><tspan x="-0.26523405 1.735098 3.73543 4.7355962" y="116.92396" id="tspan3671" style="font-size:3.59771943px;font-variant:normal;font-weight:normal;writing-mode:lr-tb;fill:#231f20;fill-opacity:1;fill-rule:nonzero;stroke:none;font-family:Helvetica;-inkscape-font-specification:Helvetica">33.1</tspan><tspan x="2.7347655 4.7357445" y="138.30933" id="tspan3673" style="font-size:3.59771943px;font-variant:normal;font-weight:normal;writing-mode:lr-tb;fill:#231f20;fill-opacity:1;fill-rule:nonzero;stroke:none;font-family:Helvetica;-inkscape-font-specification:Helvetica">35</tspan><tspan x="2.7347655 4.7357445" y="130.91441" id="tspan3675" style="font-size:3.59771943px;font-variant:normal;font-weight:normal;writing-mode:lr-tb;fill:#231f20;fill-opacity:1;fill-rule:nonzero;stroke:none;font-family:Helvetica;-inkscape-font-specification:Helvetica">34</tspan><tspan x="-0.26523405 1.735098 3.73543 4.7355962" y="125.51963" id="tspan3677" style="font-size:3.59771943px;font-variant:normal;font-weight:normal;writing-mode:lr-tb;fill:#231f20;fill-opacity:1;fill-rule:nonzero;stroke:none;font-family:Helvetica;-inkscape-font-specification:Helvetica">33.3</tspan><tspan x="-0.26523405 1.735098 3.73543 4.7355962" y="121.91995" id="tspan3679" style="font-size:3.59771943px;font-variant:normal;font-weight:normal;writing-mode:lr-tb;fill:#231f20;fill-opacity:1;fill-rule:nonzero;stroke:none;font-family:Helvetica;-inkscape-font-specification:Helvetica">33.2</tspan><tspan x="-0.26523405 1.735098 3.73543 4.7355962" y="-50.267948" id="tspan3681" style="font-size:3.59771943px;font-variant:normal;font-weight:normal;writing-mode:lr-tb;fill:#231f20;fill-opacity:1;fill-rule:nonzero;stroke:none;font-family:Helvetica;-inkscape-font-specification:Helvetica">16.3</tspan><tspan x="-0.26523405 1.735098 3.73543 4.7355962" y="-44.473049" id="tspan3683" style="font-size:3.59771943px;font-variant:normal;font-weight:normal;writing-mode:lr-tb;fill:#231f20;fill-opacity:1;fill-rule:nonzero;stroke:none;font-family:Helvetica;-inkscape-font-specification:Helvetica">16.1</tspan><tspan x="2.7347655 4.7357445" y="-37.077286" id="tspan3685" style="font-size:3.59771943px;font-variant:normal;font-weight:normal;writing-mode:lr-tb;fill:#231f20;fill-opacity:1;fill-rule:nonzero;stroke:none;font-family:Helvetica;-inkscape-font-specification:Helvetica">14</tspan><tspan x="-0.26523405 1.735098 3.73543 4.7355962" y="-33.081364" id="tspan3687" style="font-size:3.59771943px;font-variant:normal;font-weight:normal;writing-mode:lr-tb;fill:#231f20;fill-opacity:1;fill-rule:nonzero;stroke:none;font-family:Helvetica;-inkscape-font-specification:Helvetica">13.3</tspan><tspan x="2.7347655 4.7357445" y="-21.088049" id="tspan3689" style="font-size:3.59771943px;font-variant:normal;font-weight:normal;writing-mode:lr-tb;fill:#231f20;fill-opacity:1;fill-rule:nonzero;stroke:none;font-family:Helvetica;-inkscape-font-specification:Helvetica">12</tspan><tspan x="-2.21e-06 1.735837 3.7368159 4.7363291" y="-5.0987225" id="tspan3691" style="font-size:3.59771943px;font-variant:normal;font-weight:normal;writing-mode:lr-tb;fill:#231f20;fill-opacity:1;fill-rule:nonzero;stroke:none;font-family:Helvetica;-inkscape-font-specification:Helvetica">11.1</tspan><tspan x="-10.058988 -8.0586557 -6.0583239 -5.0581579" y="146.60582" id="tspan3693" style="font-size:3.59771943px;font-variant:normal;font-weight:normal;writing-mode:lr-tb;fill:#231f20;fill-opacity:1;fill-rule:nonzero;stroke:none;font-family:Helvetica;-inkscape-font-specification:Helvetica">36.2</tspan></text>
</g>
          <path d="m 202.867,296.211 110.934,0 0,1.82812 -110.934,0 0,-1.82812 z" id="path3695" style="fill:#231f20;fill-opacity:1;fill-rule:nonzero;stroke:none"/>
          <g transform="scale(10,10)" id="g3697"><text transform="matrix(1,0,0,-0.90698012,22.5785,12.0371)" id="text3699"><tspan x="0 2.0003321 4.0006642 5.0008302" y="0" id="tspan3701" style="font-size:3.59771943px;font-variant:normal;font-weight:normal;writing-mode:lr-tb;fill:#231f20;fill-opacity:1;fill-rule:nonzero;stroke:none;font-family:Helvetica;-inkscape-font-specification:Helvetica">37.3</tspan><tspan x="0 2.0003321 4.0006642 5.0008302" y="-4.9955449" id="tspan3703" style="font-size:3.59771943px;font-variant:normal;font-weight:normal;writing-mode:lr-tb;fill:#231f20;fill-opacity:1;fill-rule:nonzero;stroke:none;font-family:Helvetica;-inkscape-font-specification:Helvetica">37.2</tspan><tspan x="0 2.0003321 4.0006642 5.0008302" y="-8.9957647" id="tspan3705" style="font-size:3.59771943px;font-variant:normal;font-weight:normal;writing-mode:lr-tb;fill:#231f20;fill-opacity:1;fill-rule:nonzero;stroke:none;font-family:Helvetica;-inkscape-font-specification:Helvetica">37.1</tspan><tspan x="0 2.0003321 4.0006642 5.0008302" y="-20.98831" id="tspan3707" style="font-size:3.59771943px;font-variant:normal;font-weight:normal;writing-mode:lr-tb;fill:#231f20;fill-opacity:1;fill-rule:nonzero;stroke:none;font-family:Helvetica;-inkscape-font-specification:Helvetica">36.1</tspan><tspan x="0 2.0003321 4.0006642 5.0008302" y="-101.53462" id="tspan3709" style="font-size:3.59771943px;font-variant:normal;font-weight:normal;writing-mode:lr-tb;fill:#231f20;fill-opacity:1;fill-rule:nonzero;stroke:none;font-family:Helvetica;-inkscape-font-specification:Helvetica">23.3</tspan><tspan x="-9.7937536 -7.7934217 -5.7930899 -4.7929239" y="-107.23176" id="tspan3711" style="font-size:3.59771943px;font-variant:normal;font-weight:normal;writing-mode:lr-tb;fill:#231f20;fill-opacity:1;fill-rule:nonzero;stroke:none;font-family:Helvetica;-inkscape-font-specification:Helvetica">23.1</tspan></text>
</g>
          <path d="m 202.867,1101.1 110.934,0 0,1.8281 -110.934,0 0,-1.8281 z" id="path3713" style="fill:#231f20;fill-opacity:1;fill-rule:nonzero;stroke:none"/>
          <g transform="scale(10,10)" id="g3715"><text transform="matrix(1,0,0,-0.90698012,22.5785,111.017)" id="text3717"><tspan x="0 2.0003321 4.0006642 5.0008302" y="0" id="tspan3719" style="font-size:3.59771943px;font-variant:normal;font-weight:normal;writing-mode:lr-tb;fill:#231f20;fill-opacity:1;fill-rule:nonzero;stroke:none;font-family:Helvetica;-inkscape-font-specification:Helvetica">22.3</tspan><tspan x="-9.7937536 -7.7934217 -5.7930899 -4.7929239" y="-2.6969609" id="tspan3721" style="font-size:3.59771943px;font-variant:normal;font-weight:normal;writing-mode:lr-tb;fill:#231f20;fill-opacity:1;fill-rule:nonzero;stroke:none;font-family:Helvetica;-inkscape-font-specification:Helvetica">22.2</tspan></text>
</g>
          <path d="m 202.867,1142.8 110.934,0 0,1.8281 -110.934,0 0,-1.8281 z" id="path3723" style="fill:#231f20;fill-opacity:1;fill-rule:nonzero;stroke:none"/>
          <g transform="scale(10,10)" id="g3725"><text transform="matrix(1,0,0,-0.90698012,22.5785,115.73)" id="text3727"><tspan x="0 2.0003321 4.0006642 5.0008302" y="0" id="tspan3729" style="font-size:3.59771943px;font-variant:normal;font-weight:normal;writing-mode:lr-tb;fill:#231f20;fill-opacity:1;fill-rule:nonzero;stroke:none;font-family:Helvetica;-inkscape-font-specification:Helvetica">22.1</tspan><tspan x="0 2.0003321 4.0006642 5.0008302" y="-4.198339" id="tspan3731" style="font-size:3.59771943px;font-variant:normal;font-weight:normal;writing-mode:lr-tb;fill:#231f20;fill-opacity:1;fill-rule:nonzero;stroke:none;font-family:Helvetica;-inkscape-font-specification:Helvetica">21.3</tspan><tspan x="0 2.0003321 4.0006642 5.0008302" y="-7.7937212" id="tspan3733" style="font-size:3.59771943px;font-variant:normal;font-weight:normal;writing-mode:lr-tb;fill:#231f20;fill-opacity:1;fill-rule:nonzero;stroke:none;font-family:Helvetica;-inkscape-font-specification:Helvetica">21.2</tspan><tspan x="0 2.0003321 4.0006642 5.0008302" y="-11.592382" id="tspan3735" style="font-size:3.59771943px;font-variant:normal;font-weight:normal;writing-mode:lr-tb;fill:#231f20;fill-opacity:1;fill-rule:nonzero;stroke:none;font-family:Helvetica;-inkscape-font-specification:Helvetica">21.1</tspan><tspan x="0 2.0003321 4.0006642 5.0008302" y="-21.984871" id="tspan3737" style="font-size:3.59771943px;font-variant:normal;font-weight:normal;writing-mode:lr-tb;fill:#231f20;fill-opacity:1;fill-rule:nonzero;stroke:none;font-family:Helvetica;-inkscape-font-specification:Helvetica">14.2</tspan><tspan x="0 2.0003321 4.0006642 5.0008302" y="-26.783155" id="tspan3739" style="font-size:3.59771943px;font-variant:normal;font-weight:normal;writing-mode:lr-tb;fill:#231f20;fill-opacity:1;fill-rule:nonzero;stroke:none;font-family:Helvetica;-inkscape-font-specification:Helvetica">14.1</tspan><tspan x="2.9999995 5.0009785" y="-31.579292" id="tspan3741" style="font-size:3.59771943px;font-variant:normal;font-weight:normal;writing-mode:lr-tb;fill:#231f20;fill-opacity:1;fill-rule:nonzero;stroke:none;font-family:Helvetica;-inkscape-font-specification:Helvetica">13</tspan><tspan x="0 2.0003321 4.0006642 5.0008302" y="-38.675301" id="tspan3743" style="font-size:3.59771943px;font-variant:normal;font-weight:normal;writing-mode:lr-tb;fill:#231f20;fill-opacity:1;fill-rule:nonzero;stroke:none;font-family:Helvetica;-inkscape-font-specification:Helvetica">12.2</tspan><tspan x="0 2.0003321 4.0006642 5.0008302" y="-42.072563" id="tspan3745" style="font-size:3.59771943px;font-variant:normal;font-weight:normal;writing-mode:lr-tb;fill:#231f20;fill-opacity:1;fill-rule:nonzero;stroke:none;font-family:Helvetica;-inkscape-font-specification:Helvetica">12.1</tspan><tspan x="0.26523405 2.0010731 4.0020523 5.001565" y="-46.469452" id="tspan3747" style="font-size:3.59771943px;font-variant:normal;font-weight:normal;writing-mode:lr-tb;fill:#231f20;fill-opacity:1;fill-rule:nonzero;stroke:none;font-family:Helvetica;-inkscape-font-specification:Helvetica">11.2</tspan><tspan x="0 2.0003321 4.0006642 5.0008302" y="-157.19846" id="tspan3749" style="font-size:3.59771943px;font-variant:normal;font-weight:normal;writing-mode:lr-tb;fill:#231f20;fill-opacity:1;fill-rule:nonzero;stroke:none;font-family:Helvetica;-inkscape-font-specification:Helvetica">25.3</tspan><tspan x="0 2.0003321 4.0006642 5.0008302" y="-151.60252" id="tspan3751" style="font-size:3.59771943px;font-variant:normal;font-weight:normal;writing-mode:lr-tb;fill:#231f20;fill-opacity:1;fill-rule:nonzero;stroke:none;font-family:Helvetica;-inkscape-font-specification:Helvetica">25.2</tspan><tspan x="0 2.0003321 4.0006642 5.0008302" y="-146.40543" id="tspan3753" style="font-size:3.59771943px;font-variant:normal;font-weight:normal;writing-mode:lr-tb;fill:#231f20;fill-opacity:1;fill-rule:nonzero;stroke:none;font-family:Helvetica;-inkscape-font-specification:Helvetica">25.1</tspan><tspan x="0 2.0003321 4.0006642 5.0008302" y="-140.61052" id="tspan3755" style="font-size:3.59771943px;font-variant:normal;font-weight:normal;writing-mode:lr-tb;fill:#231f20;fill-opacity:1;fill-rule:nonzero;stroke:none;font-family:Helvetica;-inkscape-font-specification:Helvetica">24.3</tspan><tspan x="0 2.0003321 4.0006642 5.0008302" y="-136.81186" id="tspan3757" style="font-size:3.59771943px;font-variant:normal;font-weight:normal;writing-mode:lr-tb;fill:#231f20;fill-opacity:1;fill-rule:nonzero;stroke:none;font-family:Helvetica;-inkscape-font-specification:Helvetica">24.2</tspan><tspan x="0 2.0003321 4.0006642 5.0008302" y="-133.21562" id="tspan3759" style="font-size:3.59771943px;font-variant:normal;font-weight:normal;writing-mode:lr-tb;fill:#231f20;fill-opacity:1;fill-rule:nonzero;stroke:none;font-family:Helvetica;-inkscape-font-specification:Helvetica">24.1</tspan><tspan x="0 2.0003321 4.0006642 5.0008302" y="-128.61674" id="tspan3761" style="font-size:3.59771943px;font-variant:normal;font-weight:normal;writing-mode:lr-tb;fill:#231f20;fill-opacity:1;fill-rule:nonzero;stroke:none;font-family:Helvetica;-inkscape-font-specification:Helvetica">23.3</tspan><tspan x="0 2.0003321 4.0006642 5.0008302" y="-123.02125" id="tspan3763" style="font-size:3.59771943px;font-variant:normal;font-weight:normal;writing-mode:lr-tb;fill:#231f20;fill-opacity:1;fill-rule:nonzero;stroke:none;font-family:Helvetica;-inkscape-font-specification:Helvetica">23.1</tspan><tspan x="-9.7937536 -7.7934217 -5.7930899 -4.7929239" y="-125.81857" id="tspan3765" style="font-size:3.59771943px;font-variant:normal;font-weight:normal;writing-mode:lr-tb;fill:#231f20;fill-opacity:1;fill-rule:nonzero;stroke:none;font-family:Helvetica;-inkscape-font-specification:Helvetica">23.2</tspan></text>
</g>
          <path d="m 202.867,2306.61 110.934,0 0,1.8281 -110.934,0 0,-1.8281 z" id="path3767" style="fill:#231f20;fill-opacity:1;fill-rule:nonzero;stroke:none"/>
          <g transform="scale(10,10)" id="g3769"><text transform="matrix(1,0,0,-0.90698012,22.5785,223.5)" id="text3771"><tspan x="0 2.0003321 4.0006642 5.0008302" y="0" id="tspan3773" style="font-size:3.59771943px;font-variant:normal;font-weight:normal;writing-mode:lr-tb;fill:#231f20;fill-opacity:1;fill-rule:nonzero;stroke:none;font-family:Helvetica;-inkscape-font-specification:Helvetica">22.3</tspan><tspan x="0 2.0003321 4.0006642 5.0008302" y="3.198714" id="tspan3775" style="font-size:3.59771943px;font-variant:normal;font-weight:normal;writing-mode:lr-tb;fill:#231f20;fill-opacity:1;fill-rule:nonzero;stroke:none;font-family:Helvetica;-inkscape-font-specification:Helvetica">22.2</tspan><tspan x="0 2.0003321 4.0006642 5.0008302" y="6.3944178" id="tspan3777" style="font-size:3.59771943px;font-variant:normal;font-weight:normal;writing-mode:lr-tb;fill:#231f20;fill-opacity:1;fill-rule:nonzero;stroke:none;font-family:Helvetica;-inkscape-font-specification:Helvetica">22.1</tspan><tspan x="2.9999995 5.0009785" y="11.790931" id="tspan3779" style="font-size:3.59771943px;font-variant:normal;font-weight:normal;writing-mode:lr-tb;fill:#231f20;fill-opacity:1;fill-rule:nonzero;stroke:none;font-family:Helvetica;-inkscape-font-specification:Helvetica">21</tspan><tspan x="-9.7937756 -7.7934437 -5.7931118 -4.7929459" y="20.386587" id="tspan3781" style="font-size:3.59771943px;font-variant:normal;font-weight:normal;writing-mode:lr-tb;fill:#231f20;fill-opacity:1;fill-rule:nonzero;stroke:none;font-family:Helvetica;-inkscape-font-specification:Helvetica">16.2</tspan></text>
</g>
          <path d="m 202.867,2058.26 110.934,0 0,1.8281 -110.934,0 0,-1.8281 z" id="path3783" style="fill:#231f20;fill-opacity:1;fill-rule:nonzero;stroke:none"/>
          <g transform="scale(10,10)" id="g3785"><text transform="matrix(1,0,0,-0.90698012,25.5785,198.666)" id="text3787"><tspan x="0 2.0009789" y="0" id="tspan3789" style="font-size:3.59771943px;font-variant:normal;font-weight:normal;writing-mode:lr-tb;fill:#231f20;fill-opacity:1;fill-rule:nonzero;stroke:none;font-family:Helvetica;-inkscape-font-specification:Helvetica">15</tspan><tspan x="-2.9999995 -0.99966758 1.0006644 2.0008304" y="13.391363" id="tspan3791" style="font-size:3.59771943px;font-variant:normal;font-weight:normal;writing-mode:lr-tb;fill:#231f20;fill-opacity:1;fill-rule:nonzero;stroke:none;font-family:Helvetica;-inkscape-font-specification:Helvetica">13.1</tspan><tspan x="-12.793754 -10.793422 -8.7930899 -7.7929235" y="10.392488" id="tspan3793" style="font-size:3.59771943px;font-variant:normal;font-weight:normal;writing-mode:lr-tb;fill:#231f20;fill-opacity:1;fill-rule:nonzero;stroke:none;font-family:Helvetica;-inkscape-font-specification:Helvetica">13.2</tspan></text>
</g>
          <path d="m 202.867,1900.54 110.934,0 0,1.8281 -110.934,0 0,-1.8281 z" id="path3795" style="fill:#231f20;fill-opacity:1;fill-rule:nonzero;stroke:none"/>
          <g transform="scale(10,10)" id="g3797"><text transform="matrix(1,0,0,-0.90698012,22.8438,173.105)" id="text3799"><tspan x="0 1.7358392 3.7368181 4.736331" y="0" id="tspan3801" style="font-size:3.59771943px;font-variant:normal;font-weight:normal;writing-mode:lr-tb;fill:#231f20;fill-opacity:1;fill-rule:nonzero;stroke:none;font-family:Helvetica;-inkscape-font-specification:Helvetica">11.2</tspan></text>
</g>
        </g>
      </g>
    </g>
  </g>
</svg>
