<?xml version="1.0" encoding="UTF-8"?>
<svg xmlns:xlink="http://www.w3.org/1999/xlink" xmlns="http://www.w3.org/2000/svg" contentScriptType="text/ecmascript" zoomAndPan="magnify" contentStyleType="text/css" preserveAspectRatio="xMidYMid meet" version="1.0">
<g>
<path style="fill:#a4bdc8;fill-opacity:1;fill-rule:nonzero;stroke:none" d="m 50.16937500000001,40.664625 0.0,-0.056125 c 0.0,-0.9643750000000001 -1.1801250000000003,-2.548875 -2.92425,-3.457 1.744125,-0.90825 2.92425,-2.49275 2.92425,-3.454625 l 0.0,-0.566375 -11.36325,-0.0 0.0,0.566375 c 0.0,0.9667500000000001 1.189,2.548875 2.9395,3.454625 -1.7505000000000002,0.9057500000000002 -2.9395,2.49025 -2.9395,3.457 l 0.0,0.056125 11.36325,0.0 " id="path3223"/>
<path style="fill:none;stroke:#100f0d;stroke-width:0.8;stroke-linecap:butt;stroke-linejoin:miter;stroke-miterlimit:4;stroke-opacity:1;stroke-dasharray:none" d="m 50.16937500000001,40.664625 0.0,-0.056125 c 0.0,-0.9643750000000001 -1.1801250000000003,-2.548875 -2.92425,-3.457 1.744125,-0.90825 2.92425,-2.49275 2.92425,-3.454625 l 0.0,-0.566375 -11.36325,-0.0 0.0,0.566375 c 0.0,0.9667500000000001 1.189,2.548875 2.9395,3.454625 -1.7505000000000002,0.9057500000000002 -2.9395,2.49025 -2.9395,3.457 l 0.0,0.056125 11.36325,0.0 z " id="path3225"/>
<path style="fill:#e9eae9;fill-opacity:1;fill-rule:nonzero;stroke:none" d="m 38.796375,29.617250000000013 11.3833,0.0 0.0,-2.9443375 -11.3833,-0.0 0.0,2.9443375 z " id="path3233"/>
<path style="fill:none;stroke:#211c1d;stroke-width:0.1;stroke-linecap:butt;stroke-linejoin:miter;stroke-miterlimit:4;stroke-opacity:1;stroke-dasharray:none" d="m 38.796375,29.617250000000013 11.3833,0.0 0.0,-2.9443375 -11.3833,-0.0 0.0,2.9443375 z " id="path3235"/>
<path style="fill:#e9eae9;fill-opacity:1;fill-rule:nonzero;stroke:none" d="m 38.796375,47.293125 11.3833,0.0 0.0,-2.9467750000000006 -11.3833,-0.0 0.0,2.9467750000000006 z " id="path3237"/>
<path style="fill:none;stroke:#211c1d;stroke-width:0.1;stroke-linecap:butt;stroke-linejoin:miter;stroke-miterlimit:4;stroke-opacity:1;stroke-dasharray:none" d="m 38.796375,47.293125 11.3833,0.0 0.0,-2.9467750000000006 -11.3833,-0.0 0.0,2.9467750000000006 z " id="path3239"/>
<path style="fill:#e9eae9;fill-opacity:1;fill-rule:nonzero;stroke:none" d="m 38.796375,63.154875000000004 11.3833,0.0 0.0,-4.0795875 -11.3833,-0.0 0.0,4.0795875 z " id="path3241"/>
<path style="fill:none;stroke:#211c1d;stroke-width:0.1;stroke-linecap:butt;stroke-linejoin:miter;stroke-miterlimit:4;stroke-opacity:1;stroke-dasharray:none" d="m 38.796375,63.154875000000004 11.3833,0.0 0.0,-4.0795875 -11.3833,-0.0 0.0,4.0795875 z " id="path3243"/>
<path style="fill:#7a7e82;fill-opacity:1;fill-rule:nonzero;stroke:none" d="m 38.796375,21.233500000000006 11.3833,0.0 0.0,-6.345212500000001 -11.3833,-0.0 0.0,6.345212500000001 z " id="path3245"/>
<path style="fill:none;stroke:#211c1d;stroke-width:0.1;stroke-linecap:butt;stroke-linejoin:miter;stroke-miterlimit:4;stroke-opacity:1;stroke-dasharray:none" d="m 38.796375,21.233500000000006 11.3833,0.0 0.0,-6.345212500000001 -11.3833,-0.0 0.0,6.345212500000001 z " id="path3247"/>
<path style="fill:#7a7e82;fill-opacity:1;fill-rule:nonzero;stroke:none" d="m 38.796375,12.603125000000006 11.3833,0.0 0.0,-4.738775 -11.3833,-0.0 0.0,4.738775 z " id="path3249"/>
<path style="fill:none;stroke:#211c1d;stroke-width:0.1;stroke-linecap:butt;stroke-linejoin:miter;stroke-miterlimit:4;stroke-opacity:1;stroke-dasharray:none" d="m 38.796375,12.603125000000006 11.3833,0.0 0.0,-4.738775 -11.3833,-0.0 0.0,4.738775 z " id="path3251"/>
<path style="fill:#7a7e82;fill-opacity:1;fill-rule:nonzero;stroke:none" d="m 38.796375,56.111375 11.3833,0.0 0.0,-4.965825 -11.3833,-0.0 0.0,4.965825 z " id="path3253"/>
<path style="fill:none;stroke:#211c1d;stroke-width:0.1;stroke-linecap:butt;stroke-linejoin:miter;stroke-miterlimit:4;stroke-opacity:1;stroke-dasharray:none" d="m 38.796375,56.111375 11.3833,0.0 0.0,-4.965825 -11.3833,-0.0 0.0,4.965825 z " id="path3255"/>
<path style="fill:#7a7e82;fill-opacity:1;fill-rule:nonzero;stroke:none" d="m 38.796375,75.59875000000001 11.3833,0.0 0.0,-5.419925 -11.3833,-0.0 0.0,5.419925 z " id="path3257"/>
<path style="fill:none;stroke:#211c1d;stroke-width:0.1;stroke-linecap:butt;stroke-linejoin:miter;stroke-miterlimit:4;stroke-opacity:1;stroke-dasharray:none" d="m 38.796375,75.59875000000001 11.3833,0.0 0.0,-5.419925 -11.3833,-0.0 0.0,5.419925 z " id="path3259"/>
<path style="fill:#bbbcbd;fill-opacity:1;fill-rule:nonzero;stroke:none" d="m 38.796375,80.152 11.3833,0.0 0.0,-2.719725 -11.3833,-0.0 0.0,2.719725 z " id="path3261"/>
<path style="fill:none;stroke:#211c1d;stroke-width:0.1;stroke-linecap:butt;stroke-linejoin:miter;stroke-miterlimit:4;stroke-opacity:1;stroke-dasharray:none" d="m 38.796375,80.152 11.3833,0.0 0.0,-2.719725 -11.3833,-0.0 0.0,2.719725 z " id="path3263"/>
<path style="fill:none;stroke:#211c1d;stroke-width:0.8;stroke-linecap:butt;stroke-linejoin:miter;stroke-miterlimit:4;stroke-opacity:1;stroke-dasharray:none" d="m 41.745625,37.151500000000006 c -1.7505000000000002,0.9057500000000002 -2.9395,2.49025 -2.9395,3.457 l 0.0,42.714875 c 0.0,1.4135 2.5453750000000004,2.5635000000000003 5.68025,2.5635000000000003 3.1381250000000005,0.0 5.683,-1.15 5.683,-2.5635000000000003 l 0.0,-42.714875 c 0.0,-0.9643750000000001 -1.1801250000000003,-2.548875 -2.92425,-3.457 1.744125,-0.90825 2.92425,-2.49275 2.92425,-3.454625 l 0.0,-30.817875000000004 c 0.0,-1.416 -2.544875,-2.5635000000000003 -5.683,-2.5635000000000003 -3.134875,-0.0 -5.68025,1.1475 -5.68025,2.5635000000000003 l 0.0,30.817875000000004 c 0.0,0.9667500000000001 1.189,2.548875 2.9395,3.454625 z " id="path3265"/>
<path style="fill:none;stroke:#231f20;stroke-width:0.8;stroke-linecap:butt;stroke-linejoin:miter;stroke-miterlimit:4;stroke-opacity:1;stroke-dasharray:none;display:none" d="M 41.350125000000006,37.18812500000001 0.0,37.18812500000001 " id="path3267"/>
<text>
<tspan x="38.79 43.792435499999996" y="94.5391625" id="tspan3231" style="font-size:7.19543791px;font-variant:normal;font-weight:normal;writing-mode:lr-tb;fill:#211c1d;fill-opacity:1;fill-rule:nonzero;stroke:none;font-family:Helvetica;-inkscape-font-specification:Helvetica">20</tspan>
</text>
</g>
</svg>
