<?xml version="1.0" encoding="UTF-8" standalone="no"?>
<!-- Created with Inkscape (http://www.inkscape.org/) -->

<svg
   xmlns:dc="http://purl.org/dc/elements/1.1/"
   xmlns:cc="http://creativecommons.org/ns#"
   xmlns:rdf="http://www.w3.org/1999/02/22-rdf-syntax-ns#"
   xmlns:svg="http://www.w3.org/2000/svg"
   xmlns="http://www.w3.org/2000/svg"
   version="1.1"
   width="50.487499"
   height="73.912498"
   id="svg3315"
   xml:space="preserve"><metadata
     id="metadata3321"><rdf:RDF><cc:Work
         rdf:about=""><dc:format>image/svg+xml</dc:format><dc:type
           rdf:resource="http://purl.org/dc/dcmitype/StillImage" /><dc:title></dc:title></cc:Work></rdf:RDF></metadata><defs
     id="defs3319"><clipPath
       id="clipPath3331"><path
         d="m 0,0 403.855,0 0,591 L 0,591 0,0 z"
         id="path3333" /></clipPath><pattern
       id="pattern3357"
       height="72"
       width="72"
       y="0"
       x="0"
       patternUnits="userSpaceOnUse"
       patternTransform="matrix(0.999995,0,0,-0.999995,-68.4,-42.5)"><g
         id="g3359"
         transform="scale(0.1,0.1)"><path
           id="path3361"
           style="fill:#ffffff;fill-opacity:1;fill-rule:nonzero;stroke:none"
           d="M 0,0 720,0 720,720 0,720 0,0 z" /><path
           id="path3363"
           style="fill:none;stroke:#211c1d;stroke-opacity:1;stroke-width:3;stroke-linecap:square;stroke-linejoin:bevel;stroke-miterlimit:4;stroke-dasharray:none"
           d="M 0,0 720,720" /><path
           id="path3365"
           style="fill:none;stroke:#211c1d;stroke-opacity:1;stroke-width:3;stroke-linecap:square;stroke-linejoin:bevel;stroke-miterlimit:4;stroke-dasharray:none"
           d="M -30.0117,29.9883 660,720" /><path
           id="path3367"
           style="fill:none;stroke:#211c1d;stroke-opacity:1;stroke-width:3;stroke-linecap:square;stroke-linejoin:bevel;stroke-miterlimit:4;stroke-dasharray:none"
           d="M -30.0508,89.9531 600,720" /><path
           id="path3369"
           style="fill:none;stroke:#211c1d;stroke-opacity:1;stroke-width:3;stroke-linecap:square;stroke-linejoin:bevel;stroke-miterlimit:4;stroke-dasharray:none"
           d="M -30.0898,149.91 540,720" /><path
           id="path3371"
           style="fill:none;stroke:#211c1d;stroke-opacity:1;stroke-width:3;stroke-linecap:square;stroke-linejoin:bevel;stroke-miterlimit:4;stroke-dasharray:none"
           d="M -30.1328,209.871 480,720" /><path
           id="path3373"
           style="fill:none;stroke:#211c1d;stroke-opacity:1;stroke-width:3;stroke-linecap:square;stroke-linejoin:bevel;stroke-miterlimit:4;stroke-dasharray:none"
           d="M -30.1602,269.844 420,720" /><path
           id="path3375"
           style="fill:none;stroke:#211c1d;stroke-opacity:1;stroke-width:3;stroke-linecap:square;stroke-linejoin:bevel;stroke-miterlimit:4;stroke-dasharray:none"
           d="M -30.1992,329.805 360,720" /><path
           id="path3377"
           style="fill:none;stroke:#211c1d;stroke-opacity:1;stroke-width:3;stroke-linecap:square;stroke-linejoin:bevel;stroke-miterlimit:4;stroke-dasharray:none"
           d="M -30.2383,389.758 300,720" /><path
           id="path3379"
           style="fill:none;stroke:#211c1d;stroke-opacity:1;stroke-width:3;stroke-linecap:square;stroke-linejoin:bevel;stroke-miterlimit:4;stroke-dasharray:none"
           d="M -30.2695,449.719 240,720" /><path
           id="path3381"
           style="fill:none;stroke:#211c1d;stroke-opacity:1;stroke-width:3;stroke-linecap:square;stroke-linejoin:bevel;stroke-miterlimit:4;stroke-dasharray:none"
           d="M -30.3086,509.688 180,720" /><path
           id="path3383"
           style="fill:none;stroke:#211c1d;stroke-opacity:1;stroke-width:3;stroke-linecap:square;stroke-linejoin:bevel;stroke-miterlimit:4;stroke-dasharray:none"
           d="M -30.3516,569.648 120,720" /><path
           id="path3385"
           style="fill:none;stroke:#211c1d;stroke-opacity:1;stroke-width:3;stroke-linecap:square;stroke-linejoin:bevel;stroke-miterlimit:4;stroke-dasharray:none"
           d="M -30.3906,629.609 60,720" /><path
           id="path3387"
           style="fill:none;stroke:#211c1d;stroke-opacity:1;stroke-width:3;stroke-linecap:square;stroke-linejoin:bevel;stroke-miterlimit:4;stroke-dasharray:none"
           d="M -30.4219,689.57 0,720" /><path
           id="path3389"
           style="fill:none;stroke:#211c1d;stroke-opacity:1;stroke-width:3;stroke-linecap:square;stroke-linejoin:bevel;stroke-miterlimit:4;stroke-dasharray:none"
           d="M 60,0 750.012,690.02" /><path
           id="path3391"
           style="fill:none;stroke:#211c1d;stroke-opacity:1;stroke-width:3;stroke-linecap:square;stroke-linejoin:bevel;stroke-miterlimit:4;stroke-dasharray:none"
           d="M 120,0 750.051,630.059" /><path
           id="path3393"
           style="fill:none;stroke:#211c1d;stroke-opacity:1;stroke-width:3;stroke-linecap:square;stroke-linejoin:bevel;stroke-miterlimit:4;stroke-dasharray:none"
           d="M 180,0 750.09,570.098" /><path
           id="path3395"
           style="fill:none;stroke:#211c1d;stroke-opacity:1;stroke-width:3;stroke-linecap:square;stroke-linejoin:bevel;stroke-miterlimit:4;stroke-dasharray:none"
           d="M 240,0 750.133,510.129" /><path
           id="path3397"
           style="fill:none;stroke:#211c1d;stroke-opacity:1;stroke-width:3;stroke-linecap:square;stroke-linejoin:bevel;stroke-miterlimit:4;stroke-dasharray:none"
           d="M 300,0 750.16,450.168" /><path
           id="path3399"
           style="fill:none;stroke:#211c1d;stroke-opacity:1;stroke-width:3;stroke-linecap:square;stroke-linejoin:bevel;stroke-miterlimit:4;stroke-dasharray:none"
           d="M 360,0 750.199,390.215" /><path
           id="path3401"
           style="fill:none;stroke:#211c1d;stroke-opacity:1;stroke-width:3;stroke-linecap:square;stroke-linejoin:bevel;stroke-miterlimit:4;stroke-dasharray:none"
           d="M 420,0 750.238,330.254" /><path
           id="path3403"
           style="fill:none;stroke:#211c1d;stroke-opacity:1;stroke-width:3;stroke-linecap:square;stroke-linejoin:bevel;stroke-miterlimit:4;stroke-dasharray:none"
           d="M 480,0 750.277,270.281" /><path
           id="path3405"
           style="fill:none;stroke:#211c1d;stroke-opacity:1;stroke-width:3;stroke-linecap:square;stroke-linejoin:bevel;stroke-miterlimit:4;stroke-dasharray:none"
           d="M 540,0 750.309,210.32" /><path
           id="path3407"
           style="fill:none;stroke:#211c1d;stroke-opacity:1;stroke-width:3;stroke-linecap:square;stroke-linejoin:bevel;stroke-miterlimit:4;stroke-dasharray:none"
           d="M 600,0 750.352,150.359" /><path
           id="path3409"
           style="fill:none;stroke:#211c1d;stroke-opacity:1;stroke-width:3;stroke-linecap:square;stroke-linejoin:bevel;stroke-miterlimit:4;stroke-dasharray:none"
           d="m 660,0 90.391,90.4023" /><path
           id="path3411"
           style="fill:none;stroke:#211c1d;stroke-opacity:1;stroke-width:3;stroke-linecap:square;stroke-linejoin:bevel;stroke-miterlimit:4;stroke-dasharray:none"
           d="m 720,0 30.43,30.4297" /><path
           id="path3413"
           style="fill:none;stroke:#211c1d;stroke-opacity:1;stroke-width:3;stroke-linecap:square;stroke-linejoin:bevel;stroke-miterlimit:4;stroke-dasharray:none"
           d="M 720,0 0,720" /><path
           id="path3415"
           style="fill:none;stroke:#211c1d;stroke-opacity:1;stroke-width:3;stroke-linecap:square;stroke-linejoin:bevel;stroke-miterlimit:4;stroke-dasharray:none"
           d="M 660,0 -30.0117,690.02" /><path
           id="path3417"
           style="fill:none;stroke:#211c1d;stroke-opacity:1;stroke-width:3;stroke-linecap:square;stroke-linejoin:bevel;stroke-miterlimit:4;stroke-dasharray:none"
           d="M 600,0 -30.0508,630.059" /><path
           id="path3419"
           style="fill:none;stroke:#211c1d;stroke-opacity:1;stroke-width:3;stroke-linecap:square;stroke-linejoin:bevel;stroke-miterlimit:4;stroke-dasharray:none"
           d="M 540,0 -30.0898,570.098" /><path
           id="path3421"
           style="fill:none;stroke:#211c1d;stroke-opacity:1;stroke-width:3;stroke-linecap:square;stroke-linejoin:bevel;stroke-miterlimit:4;stroke-dasharray:none"
           d="M 480,0 -30.1328,510.137" /><path
           id="path3423"
           style="fill:none;stroke:#211c1d;stroke-opacity:1;stroke-width:3;stroke-linecap:square;stroke-linejoin:bevel;stroke-miterlimit:4;stroke-dasharray:none"
           d="M 420,0 -30.1602,450.168" /><path
           id="path3425"
           style="fill:none;stroke:#211c1d;stroke-opacity:1;stroke-width:3;stroke-linecap:square;stroke-linejoin:bevel;stroke-miterlimit:4;stroke-dasharray:none"
           d="M 360,0 -30.1992,390.215" /><path
           id="path3427"
           style="fill:none;stroke:#211c1d;stroke-opacity:1;stroke-width:3;stroke-linecap:square;stroke-linejoin:bevel;stroke-miterlimit:4;stroke-dasharray:none"
           d="M 300,0 -30.2383,330.254" /><path
           id="path3429"
           style="fill:none;stroke:#211c1d;stroke-opacity:1;stroke-width:3;stroke-linecap:square;stroke-linejoin:bevel;stroke-miterlimit:4;stroke-dasharray:none"
           d="M 240,0 -30.2695,270.293" /><path
           id="path3431"
           style="fill:none;stroke:#211c1d;stroke-opacity:1;stroke-width:3;stroke-linecap:square;stroke-linejoin:bevel;stroke-miterlimit:4;stroke-dasharray:none"
           d="M 180,0 -30.3086,210.32" /><path
           id="path3433"
           style="fill:none;stroke:#211c1d;stroke-opacity:1;stroke-width:3;stroke-linecap:square;stroke-linejoin:bevel;stroke-miterlimit:4;stroke-dasharray:none"
           d="M 120,0 -30.3516,150.359" /><path
           id="path3435"
           style="fill:none;stroke:#211c1d;stroke-opacity:1;stroke-width:3;stroke-linecap:square;stroke-linejoin:bevel;stroke-miterlimit:4;stroke-dasharray:none"
           d="M 60,0 -30.3906,90.4023" /><path
           id="path3437"
           style="fill:none;stroke:#211c1d;stroke-opacity:1;stroke-width:3;stroke-linecap:square;stroke-linejoin:bevel;stroke-miterlimit:4;stroke-dasharray:none"
           d="M 0,0 -30.4219,30.4414" /><path
           id="path3439"
           style="fill:none;stroke:#211c1d;stroke-opacity:1;stroke-width:3;stroke-linecap:square;stroke-linejoin:bevel;stroke-miterlimit:4;stroke-dasharray:none"
           d="M 750.012,29.9883 60,720" /><path
           id="path3441"
           style="fill:none;stroke:#211c1d;stroke-opacity:1;stroke-width:3;stroke-linecap:square;stroke-linejoin:bevel;stroke-miterlimit:4;stroke-dasharray:none"
           d="M 750.051,89.9531 120,720" /><path
           id="path3443"
           style="fill:none;stroke:#211c1d;stroke-opacity:1;stroke-width:3;stroke-linecap:square;stroke-linejoin:bevel;stroke-miterlimit:4;stroke-dasharray:none"
           d="M 750.09,149.91 180,720" /><path
           id="path3445"
           style="fill:none;stroke:#211c1d;stroke-opacity:1;stroke-width:3;stroke-linecap:square;stroke-linejoin:bevel;stroke-miterlimit:4;stroke-dasharray:none"
           d="M 750.133,209.871 240,720" /><path
           id="path3447"
           style="fill:none;stroke:#211c1d;stroke-opacity:1;stroke-width:3;stroke-linecap:square;stroke-linejoin:bevel;stroke-miterlimit:4;stroke-dasharray:none"
           d="M 750.16,269.844 300,720" /><path
           id="path3449"
           style="fill:none;stroke:#211c1d;stroke-opacity:1;stroke-width:3;stroke-linecap:square;stroke-linejoin:bevel;stroke-miterlimit:4;stroke-dasharray:none"
           d="M 750.199,329.805 360,720" /><path
           id="path3451"
           style="fill:none;stroke:#211c1d;stroke-opacity:1;stroke-width:3;stroke-linecap:square;stroke-linejoin:bevel;stroke-miterlimit:4;stroke-dasharray:none"
           d="M 750.238,389.758 420,720" /><path
           id="path3453"
           style="fill:none;stroke:#211c1d;stroke-opacity:1;stroke-width:3;stroke-linecap:square;stroke-linejoin:bevel;stroke-miterlimit:4;stroke-dasharray:none"
           d="M 750.277,449.727 480,720" /><path
           id="path3455"
           style="fill:none;stroke:#211c1d;stroke-opacity:1;stroke-width:3;stroke-linecap:square;stroke-linejoin:bevel;stroke-miterlimit:4;stroke-dasharray:none"
           d="M 750.309,509.688 540,720" /><path
           id="path3457"
           style="fill:none;stroke:#211c1d;stroke-opacity:1;stroke-width:3;stroke-linecap:square;stroke-linejoin:bevel;stroke-miterlimit:4;stroke-dasharray:none"
           d="M 750.352,569.648 600,720" /><path
           id="path3459"
           style="fill:none;stroke:#211c1d;stroke-opacity:1;stroke-width:3;stroke-linecap:square;stroke-linejoin:bevel;stroke-miterlimit:4;stroke-dasharray:none"
           d="M 750.391,629.609 660,720" /><path
           id="path3461"
           style="fill:none;stroke:#211c1d;stroke-opacity:1;stroke-width:3;stroke-linecap:square;stroke-linejoin:bevel;stroke-miterlimit:4;stroke-dasharray:none"
           d="M 750.43,689.578 720,720" /></g></pattern></defs><g
     transform="matrix(1.25,0,0,-1.25,0,73.9125)"
     id="g3323"><g
       transform="scale(0.1,0.1)"
       id="g3325"><g
         id="g3327"><g
           clip-path="url(#clipPath3331)"
           id="g3329"><g
             transform="scale(10,10)"
             id="g3335"><text
               transform="matrix(1,0,0,-0.90697189,31.0332,3.13867)"
               id="text3337"><tspan
                 x="0 4.0019484"
                 y="0"
                 id="tspan3339"
                 style="font-size:7.19543791px;font-variant:normal;font-weight:normal;writing-mode:lr-tb;fill:#211c1d;fill-opacity:1;fill-rule:nonzero;stroke:none;font-family:Helvetica;-inkscape-font-specification:Helvetica">21</tspan></text>
</g><path
             d="m 310.371,281.074 91.0664,0 0,67.9883 -91.0664,0 0,-67.9883 z"
             id="path3341"
             style="fill:#211c1d;fill-opacity:1;fill-rule:nonzero;stroke:none" /><path
             d="m 310.371,234.395 91.0664,0 0,27.207 -91.0664,0 0,-27.207 z"
             id="path3343"
             style="fill:#7a7e82;fill-opacity:1;fill-rule:nonzero;stroke:none" /><path
             d="m 310.371,234.395 91.0664,0 0,27.207 -91.0664,0 0,-27.207 z"
             id="path3345"
             style="fill:none;stroke:#211c1d;stroke-width:0.62;stroke-linecap:butt;stroke-linejoin:miter;stroke-miterlimit:4;stroke-opacity:1;stroke-dasharray:none" /><path
             d="m 310.371,190.898 91.0664,0 0,20.4102 -91.0664,0 0,-20.4102 z"
             id="path3347"
             style="fill:#bbbcbd;fill-opacity:1;fill-rule:nonzero;stroke:none" /><path
             d="m 310.371,190.898 91.0664,0 0,20.4102 -91.0664,0 0,-20.4102 z"
             id="path3349"
             style="fill:none;stroke:#211c1d;stroke-width:0.62;stroke-linecap:butt;stroke-linejoin:miter;stroke-miterlimit:4;stroke-opacity:1;stroke-dasharray:none" /><path
             d="m 310.371,154.648 91.0664,0 0,23.1055 -91.0664,0 0,-23.1055 z"
             id="path3351"
             style="fill:#bbbcbd;fill-opacity:1;fill-rule:nonzero;stroke:none" /><path
             d="m 310.371,154.648 91.0664,0 0,23.1055 -91.0664,0 0,-23.1055 z"
             id="path3353"
             style="fill:none;stroke:#211c1d;stroke-width:0.62;stroke-linecap:butt;stroke-linejoin:miter;stroke-miterlimit:4;stroke-opacity:1;stroke-dasharray:none" /><path
             d="m 333.965,396.211 c -14.004,-7.246 -23.516,-19.922 -23.516,-25.859 l 0,-247.422 c 0,-13.145 20.363,-22.325 45.469,-22.325 25.098,0 45.437,9.18 45.437,20.508 l 0,247.442 c 0,7.715 -9.414,20.39 -23.367,27.656 13.953,7.246 23.367,19.941 23.367,27.637 l 0,37.148 c 0,11.348 -20.339,20.527 -45.437,20.527 -25.106,0 -45.469,-9.179 -45.469,-20.527 l 0,-37.148 c 0,-7.735 9.512,-20.41 23.516,-27.637 z"
             id="path3355"
             style="fill:none;stroke:#211c1d;stroke-width:5;stroke-linecap:butt;stroke-linejoin:miter;stroke-miterlimit:4;stroke-opacity:1;stroke-dasharray:none" /><path
             d="m 310.305,426.289 0,34.688 c 0,9.863 15.418,18.085 35.933,20.078 l -0.054,59.101 c -10.344,3.653 -17.7,12.793 -17.7,23.457 0,13.907 12.422,25.157 27.739,25.157 15.332,0 27.742,-11.25 27.742,-25.157 0,-10.664 -7.344,-19.804 -17.688,-23.457 l -0.047,-59.199 c 20.059,-2.129 34.981,-10.273 34.981,-19.98 l 0,-34.688 -90.906,0"
             id="path3463"
             style="fill:url(#pattern3357);fill-opacity:1;fill-rule:nonzero;stroke:none" /><path
             d="m 310.305,426.289 0,34.688 c 0,9.863 15.418,18.085 35.933,20.078 l -0.054,59.101 c -10.344,3.653 -17.7,12.793 -17.7,23.457 0,13.907 12.422,25.157 27.739,25.157 15.332,0 27.742,-11.25 27.742,-25.157 0,-10.664 -7.344,-19.804 -17.688,-23.457 l -0.047,-59.199 c 20.059,-2.129 34.981,-10.273 34.981,-19.98 l 0,-34.688 -90.906,0 z"
             id="path3465"
             style="fill:none;stroke:#211c1d;stroke-width:5;stroke-linecap:butt;stroke-linejoin:miter;stroke-miterlimit:4;stroke-opacity:1;stroke-dasharray:none" /><path
             d="m 396.855,378.984 4.5,-10.429 c 0,7.715 -9.421,20.39 -23.367,27.656 13.946,7.246 23.367,19.941 23.367,27.637 l 0,2.265 -90.906,0 0,-2.265 c 0,-7.715 9.512,-20.41 23.516,-27.637 -14.004,-7.246 -23.516,-19.922 -23.516,-27.656 l 4.5,10.429 81.906,0"
             id="path3467"
             style="fill:#a4bdc8;fill-opacity:1;fill-rule:nonzero;stroke:none" /><path
             d="m 396.855,378.984 4.5,-10.429 c 0,7.715 -9.421,20.39 -23.367,27.656 13.946,7.246 23.367,19.941 23.367,27.637 l 0,2.265 -90.906,0 0,-2.265 c 0,-7.715 9.512,-20.41 23.516,-27.637 -14.004,-7.246 -23.516,-19.922 -23.516,-27.656 l 4.5,10.429 81.906,0 z"
             id="path3469"
             style="fill:none;stroke:#100f0d;stroke-width:5;stroke-linecap:butt;stroke-linejoin:miter;stroke-miterlimit:4;stroke-opacity:1;stroke-dasharray:none" /><path
             d="M 330.801,395.918 0,395.918"
             id="path3471"
             style="fill:none;stroke:#231f20;stroke-width:5;stroke-linecap:butt;stroke-linejoin:miter;stroke-miterlimit:4;stroke-opacity:1;stroke-dasharray:none" /><g
             transform="scale(10,10)"
             id="g3473"><text
               transform="matrix(1,0,0,-0.90698012,22.8438,43.9406)"
               id="text3475"><tspan
                 x="0 1.7353495 3.7363315 4.7364974"
                 y="0"
                 id="tspan3477"
                 style="font-size:3.59771943px;font-variant:normal;font-weight:normal;writing-mode:lr-tb;fill:#231f20;fill-opacity:1;fill-rule:nonzero;stroke:none;font-family:Helvetica;-inkscape-font-specification:Helvetica">11.2</tspan><tspan
                 x="0 1.7353495 3.7363315 4.7364974"
                 y="4.296103"
                 id="tspan3479"
                 style="font-size:3.59771943px;font-variant:normal;font-weight:normal;writing-mode:lr-tb;fill:#231f20;fill-opacity:1;fill-rule:nonzero;stroke:none;font-family:Helvetica;-inkscape-font-specification:Helvetica">11.1</tspan><tspan
                 x="0 1.7353495 3.7363315 4.7364974"
                 y="7.7932911"
                 id="tspan3481"
                 style="font-size:3.59771943px;font-variant:normal;font-weight:normal;writing-mode:lr-tb;fill:#231f20;fill-opacity:1;fill-rule:nonzero;stroke:none;font-family:Helvetica;-inkscape-font-specification:Helvetica">11.1</tspan><tspan
                 x="2.7351537 4.7361326"
                 y="-12.892609"
                 id="tspan3483"
                 style="font-size:3.59771943px;font-variant:normal;font-weight:normal;writing-mode:lr-tb;fill:#231f20;fill-opacity:1;fill-rule:nonzero;stroke:none;font-family:Helvetica;-inkscape-font-specification:Helvetica">13</tspan><tspan
                 x="2.7351537 4.7361326"
                 y="-6.5981159"
                 id="tspan3485"
                 style="font-size:3.59771943px;font-variant:normal;font-weight:normal;writing-mode:lr-tb;fill:#231f20;fill-opacity:1;fill-rule:nonzero;stroke:none;font-family:Helvetica;-inkscape-font-specification:Helvetica">12</tspan><tspan
                 x="-0.26484594 1.735486 3.7358181 4.7359838"
                 y="22.585323"
                 id="tspan3487"
                 style="font-size:3.59771943px;font-variant:normal;font-weight:normal;writing-mode:lr-tb;fill:#231f20;fill-opacity:1;fill-rule:nonzero;stroke:none;font-family:Helvetica;-inkscape-font-specification:Helvetica">21.3</tspan><tspan
                 x="-0.26484594 1.735486 3.7358181 4.7359838"
                 y="14.992302"
                 id="tspan3489"
                 style="font-size:3.59771943px;font-variant:normal;font-weight:normal;writing-mode:lr-tb;fill:#231f20;fill-opacity:1;fill-rule:nonzero;stroke:none;font-family:Helvetica;-inkscape-font-specification:Helvetica">21.1</tspan><tspan
                 x="-0.26484594 1.735486 3.7358181 4.7359838"
                 y="19.488674"
                 id="tspan3491"
                 style="font-size:3.59771943px;font-variant:normal;font-weight:normal;writing-mode:lr-tb;fill:#231f20;fill-opacity:1;fill-rule:nonzero;stroke:none;font-family:Helvetica;-inkscape-font-specification:Helvetica">21.2</tspan><tspan
                 x="-10.136716 -8.4013662 -6.4003878 -5.4002218"
                 y="9.5656338"
                 id="tspan3493"
                 style="font-size:3.59771943px;font-variant:normal;font-weight:normal;writing-mode:lr-tb;fill:#231f20;fill-opacity:1;fill-rule:nonzero;stroke:none;font-family:Helvetica;-inkscape-font-specification:Helvetica">11.2</tspan></text>
</g><path
             d="m 202.449,362.598 111.43,0"
             id="path3495"
             style="fill:none;stroke:#231f20;stroke-width:1.82598996;stroke-linecap:butt;stroke-linejoin:miter;stroke-miterlimit:4;stroke-opacity:1;stroke-dasharray:none" /><g
             transform="scale(10,10)"
             id="g3497"><text
               transform="matrix(1,0,0,-0.90698012,10.707,21.3059)"
               id="text3499"><tspan
                 x="0 2.0003321 4.0006642 5.0008302 6.7371593"
                 y="0"
                 id="tspan3501"
                 style="font-size:3.59771943px;font-variant:normal;font-weight:normal;writing-mode:lr-tb;fill:#231f20;fill-opacity:1;fill-rule:nonzero;stroke:none;font-family:Helvetica;-inkscape-font-specification:Helvetica">22.11</tspan></text>
</g><path
             d="m 202.449,223.027 111.43,0"
             id="path3503"
             style="fill:none;stroke:#231f20;stroke-width:1.82598996;stroke-linecap:butt;stroke-linejoin:miter;stroke-miterlimit:4;stroke-opacity:1;stroke-dasharray:none" /><g
             transform="scale(10,10)"
             id="g3505"><text
               transform="matrix(1,0,0,-0.90698012,20.5781,19.1066)"
               id="text3507"><tspan
                 x="0 2.0003321 4.0006642 5.0008302 7.0018091"
                 y="0"
                 id="tspan3509"
                 style="font-size:3.59771943px;font-variant:normal;font-weight:normal;writing-mode:lr-tb;fill:#231f20;fill-opacity:1;fill-rule:nonzero;stroke:none;font-family:Helvetica;-inkscape-font-specification:Helvetica">22.12</tspan><tspan
                 x="-10.136716 -8.136384 -6.1360521 -5.1358862 -3.1349072"
                 y="1.772277"
                 id="tspan3511"
                 style="font-size:3.59771943px;font-variant:normal;font-weight:normal;writing-mode:lr-tb;fill:#231f20;fill-opacity:1;fill-rule:nonzero;stroke:none;font-family:Helvetica;-inkscape-font-specification:Helvetica">22.13</tspan></text>
</g><path
             d="m 202.449,184.961 111.43,0"
             id="path3513"
             style="fill:none;stroke:#231f20;stroke-width:1.82598996;stroke-linecap:butt;stroke-linejoin:miter;stroke-miterlimit:4;stroke-opacity:1;stroke-dasharray:none" /><g
             transform="scale(10,10)"
             id="g3515"><text
               transform="matrix(1,0,0,-0.90698012,22.5789,15.5715)"
               id="text3517"><tspan
                 x="0 2.0003321 4.0006642 5.0008302"
                 y="0"
                 id="tspan3519"
                 style="font-size:3.59771943px;font-variant:normal;font-weight:normal;writing-mode:lr-tb;fill:#231f20;fill-opacity:1;fill-rule:nonzero;stroke:none;font-family:Helvetica;-inkscape-font-specification:Helvetica">22.2</tspan><tspan
                 x="0 2.0003321 4.0006642 5.0008302"
                 y="3.9967799"
                 id="tspan3521"
                 style="font-size:3.59771943px;font-variant:normal;font-weight:normal;writing-mode:lr-tb;fill:#231f20;fill-opacity:1;fill-rule:nonzero;stroke:none;font-family:Helvetica;-inkscape-font-specification:Helvetica">22.3</tspan></text>
</g></g></g></g></g></svg>