<?xml version="1.0" encoding="UTF-8"?>
<svg xmlns:xlink="http://www.w3.org/1999/xlink" xmlns="http://www.w3.org/2000/svg" contentScriptType="text/ecmascript" zoomAndPan="magnify" contentStyleType="text/css" preserveAspectRatio="xMidYMid meet" version="1.0">
<g>
<path style="fill:#a4bdc8;fill-opacity:1;fill-rule:nonzero;stroke:none" d="m 49.606875,26.53949999999999 0.5625,1.3036250000000003 c 0.0,-0.9643750000000001 -1.177625,-2.54875 -2.920875,-3.457 1.7432500000000002,-0.9057500000000002 2.920875,-2.492625 2.920875,-3.454625 l 0.0,-0.28312500000000007 -11.36325,-0.0 0.0,0.28312500000000007 c 0.0,0.9643750000000001 1.189,2.55125 2.9395,3.454625 -1.7505000000000002,0.9057500000000002 -2.9395,2.49025 -2.9395,3.457 l 0.5625,-1.3036250000000003 10.238250000000003,0.0 " id="centromere21-f"/>
<path style="fill:none;stroke:#100f0d;stroke-width:0.8;stroke-linecap:butt;stroke-linejoin:miter;stroke-miterlimit:4;stroke-opacity:1;stroke-dasharray:none" d="m 49.606875,26.53949999999999 0.5625,1.3036250000000003 c 0.0,-0.9643750000000001 -1.177625,-2.54875 -2.920875,-3.457 1.7432500000000002,-0.9057500000000002 2.920875,-2.492625 2.920875,-3.454625 l 0.0,-0.28312500000000007 -11.36325,-0.0 0.0,0.28312500000000007 c 0.0,0.9643750000000001 1.189,2.55125 2.9395,3.454625 -1.7505000000000002,0.9057500000000002 -2.9395,2.49025 -2.9395,3.457 l 0.5625,-1.3036250000000003 10.238250000000003,0.0 z " id="centromere21-o"/>
<path style="fill:#211c1d;fill-opacity:1;fill-rule:nonzero;stroke:none" d="m 38.796375,38.77824999999999 11.3833,0.0 0.0,-8.4985375 -11.3833,-0.0 0.0,8.4985375 z " id="21q21.1"/>
<path style="fill:#7a7e82;fill-opacity:1;fill-rule:nonzero;stroke:none" d="m 38.796375,44.61312499999999 11.3833,0.0 0.0,-3.4008750000000005 -11.3833,-0.0 0.0,3.4008750000000005 z " id="21q21.3"/>
<path style="fill:none;stroke:#211c1d;stroke-width:0.1;stroke-linecap:butt;stroke-linejoin:miter;stroke-miterlimit:4;stroke-opacity:1;stroke-dasharray:none" d="m 38.796375,44.61312499999999 11.3833,0.0 0.0,-3.4008750000000005 -11.3833,-0.0 0.0,3.4008750000000005 z " id="21q21.3-o"/>
<path style="fill:#bbbcbd;fill-opacity:1;fill-rule:nonzero;stroke:none" d="m 38.796375,50.05024999999999 11.3833,0.0 0.0,-2.551275 -11.3833,-0.0 0.0,2.551275 z " id="21q22.12"/>
<path style="fill:none;stroke:#211c1d;stroke-width:0.1;stroke-linecap:butt;stroke-linejoin:miter;stroke-miterlimit:4;stroke-opacity:1;stroke-dasharray:none" d="m 38.796375,50.05024999999999 11.3833,0.0 0.0,-2.551275 -11.3833,-0.0 0.0,2.551275 z " id="21q22.12-o"/>
<path style="fill:#bbbcbd;fill-opacity:1;fill-rule:nonzero;stroke:none" d="m 38.796375,54.58149999999999 11.3833,0.0 0.0,-2.8881875 -11.3833,-0.0 0.0,2.8881875 z " id="21q22.2"/>
<path style="fill:none;stroke:#211c1d;stroke-width:0.1;stroke-linecap:butt;stroke-linejoin:miter;stroke-miterlimit:4;stroke-opacity:1;stroke-dasharray:none" d="m 38.796375,54.58149999999999 11.3833,0.0 0.0,-2.8881875 -11.3833,-0.0 0.0,2.8881875 z " id="21q22.2-o"/>
<path style="fill:none;stroke:#211c1d;stroke-width:0.8;stroke-linecap:butt;stroke-linejoin:miter;stroke-miterlimit:4;stroke-opacity:1;stroke-dasharray:none" d="m 41.745625,24.386124999999986 c -1.7505000000000002,0.9057500000000002 -2.9395,2.49025 -2.9395,3.2323750000000007 l 0.0,30.92775 c 0.0,1.643125 2.5453750000000004,2.790625 5.683625,2.790625 3.1372500000000003,0.0 5.679625000000001,-1.1475 5.679625000000001,-2.5635000000000003 l 0.0,-30.930250000000004 c 0.0,-0.9643750000000001 -1.17675,-2.54875 -2.920875,-3.457 1.744125,-0.9057500000000002 2.920875,-2.492625 2.920875,-3.454625 l 0.0,-4.6435 c 0.0,-1.4185 -2.542375,-2.565875 -5.679625000000001,-2.565875 -3.13825,-0.0 -5.683625,1.147375 -5.683625,2.565875 l 0.0,4.6435 c 0.0,0.9668750000000002 1.189,2.55125 2.9395,3.454625 z " id="outline21"/>
<path style="fill:#c4cdf2;fill-opacity:1;fill-rule:nonzero;stroke:none" d="m 38.78812500000001,20.626374999999996 0.0,-4.336 c 0.0,-1.232875 1.9272500000000001,-2.260625 4.491625,-2.50975 l -0.006750000000000001,-7.387625 c -1.293,-0.456625 -2.2125,-1.5991250000000001 -2.2125,-2.9321250000000005 0.0,-1.738375 1.5527500000000003,-3.1446250000000004 3.4673750000000005,-3.1446250000000004 1.9165,0.0 3.4677500000000006,1.40625 3.4677500000000006,3.1446250000000004 0.0,1.333 -0.918,2.4755 -2.211,2.9321250000000005 l -0.005875,7.399875 c 2.507375,0.266125 4.372625,1.2841250000000002 4.372625,2.4975000000000005 l 0.0,4.336 -11.36325,-0.0 " id="satellite21"/>
<path style="fill:none;stroke:#211c1d;stroke-width:0.8;stroke-linecap:butt;stroke-linejoin:miter;stroke-miterlimit:4;stroke-opacity:1;stroke-dasharray:none" d="m 38.78812500000001,20.626374999999996 0.0,-4.336 c 0.0,-1.232875 1.9272500000000001,-2.260625 4.491625,-2.50975 l -0.006750000000000001,-7.387625 c -1.293,-0.456625 -2.2125,-1.5991250000000001 -2.2125,-2.9321250000000005 0.0,-1.738375 1.5527500000000003,-3.1446250000000004 3.4673750000000005,-3.1446250000000004 1.9165,0.0 3.4677500000000006,1.40625 3.4677500000000006,3.1446250000000004 0.0,1.333 -0.918,2.4755 -2.211,2.9321250000000005 l -0.005875,7.399875 c 2.507375,0.266125 4.372625,1.2841250000000002 4.372625,2.4975000000000005 l 0.0,4.336 -11.36325,-0.0 z " id="satellite21-o"/>
<path style="fill:none;stroke:#231f20;stroke-width:0.8;stroke-linecap:butt;stroke-linejoin:miter;stroke-miterlimit:4;stroke-opacity:1;stroke-dasharray:none;display:none" d="M 41.350125000000006,24.422749999999986 0.0,24.422749999999986 " id="centre21"/>
<text>
<tspan x="38.7915 43.793935499999996" y="69.98916249999999" id="label21" style="font-size:7.19543791px;font-variant:normal;font-weight:normal;writing-mode:lr-tb;fill:#211c1d;fill-opacity:1;fill-rule:nonzero;stroke:none;font-family:Helvetica;-inkscape-font-specification:Helvetica">21</tspan>
</text>
</g>
</svg>
