<?xml version="1.0" encoding="UTF-8"?>
<svg xmlns:xlink="http://www.w3.org/1999/xlink" xmlns="http://www.w3.org/2000/svg" contentScriptType="text/ecmascript" zoomAndPan="magnify" contentStyleType="text/css" preserveAspectRatio="xMidYMid meet" version="1.0">

<g id="chromosome22" title="Chromosome 22">
<path style="fill:#f1f2f1;fill-opacity:1;fill-rule:nonzero;stroke:none" id="22q11.22" d="m 38.796375,97.599875 11.3833,0.0 0.0,-3.0615250000000005 -11.3833,-0.0 0.0,3.0615250000000005 z "/>
<path style="fill:none;stroke:#797677;stroke-width:0.1;stroke-linecap:butt;stroke-linejoin:miter;stroke-miterlimit:4;stroke-opacity:1;stroke-dasharray:none" id="22q11.22-o" d="m 38.796375,97.599875 11.3833,0.0 0.0,-3.0615250000000005 -11.3833,-0.0 0.0,3.0615250000000005 z "/>
<path style="fill:#d6d6d7;fill-opacity:1;fill-rule:nonzero;stroke:none" id="22q12.3" d="m 38.796375,114.25525 11.3833,0.0 0.0,-4.87305 -11.3833,-0.0 0.0,4.87305 z "/>
<path style="fill:none;stroke:#797677;stroke-width:0.1;stroke-linecap:butt;stroke-linejoin:miter;stroke-miterlimit:4;stroke-opacity:1;stroke-dasharray:none" id="22q12.3-o" d="m 38.796375,114.25525 11.3833,0.0 0.0,-4.87305 -11.3833,-0.0 0.0,4.87305 z "/>
<path style="fill:#d6d6d7;fill-opacity:1;fill-rule:nonzero;stroke:none" id="22q12.1" d="m 38.796375,105.075 11.3833,0.0 0.0,-3.1733375 -11.3833,-0.0 0.0,3.1733375 z "/>
<path style="fill:none;stroke:#797677;stroke-width:0.1;stroke-linecap:butt;stroke-linejoin:miter;stroke-miterlimit:4;stroke-opacity:1;stroke-dasharray:none" id="22q12.1-o" d="m 38.796375,105.075 11.3833,0.0 0.0,-3.1733375 -11.3833,-0.0 0.0,3.1733375 z "/>
<path style="fill:#d6d6d7;fill-opacity:1;fill-rule:nonzero;stroke:none" id="22q13.32" d="m 38.796375,134.536 11.3833,0.0 0.0,-2.8349625 -11.3833,-0.0 0.0,2.8349625 z "/>
<path style="fill:none;stroke:#797677;stroke-width:0.1;stroke-linecap:butt;stroke-linejoin:miter;stroke-miterlimit:4;stroke-opacity:1;stroke-dasharray:none" id="22q13.32-o" d="m 38.796375,134.536 11.3833,0.0 0.0,-2.8349625 -11.3833,-0.0 0.0,2.8349625 z "/>
<path style="fill:#d6d6d7;fill-opacity:1;fill-rule:nonzero;stroke:none" id="22q13.2" d="m 38.796375,124.33824999999999 11.3833,0.0 0.0,-3.7377875000000005 -11.3833,-0.0 0.0,3.7377875000000005 z "/>
<path style="fill:none;stroke:#797677;stroke-width:0.1;stroke-linecap:butt;stroke-linejoin:miter;stroke-miterlimit:4;stroke-opacity:1;stroke-dasharray:none" id="22q13.2-o" d="m 38.796375,124.33824999999999 11.3833,0.0 0.0,-3.7377875000000005 -11.3833,-0.0 0.0,3.7377875000000005 z "/>
<path style="fill:#fffafa;stroke:#797677;stroke-width:0.1;stroke-linecap:butt;stroke-linejoin:miter;stroke-miterlimit:4;stroke-opacity:1;stroke-dasharray:none" id="22q13.31" d="m 38.796375,131.7010375 11.3833,0.0 0,-7.3627875000000245 -11.3833,-0.0 0,7.3627875000000245 z "/>
<path style="fill:#fffafa;stroke:#797677;stroke-width:0.1;stroke-linecap:butt;stroke-linejoin:miter;stroke-miterlimit:4;stroke-opacity:1;stroke-dasharray:none" id="22q12.2" d="m 38.796375,109.3822 11.3833,0.0 0,-4.307199999999995 -11.3833,-0.0 0,4.307199999999995 z "/>
<path style="fill:#fffafa;stroke:#797677;stroke-width:0.1;stroke-linecap:butt;stroke-linejoin:miter;stroke-miterlimit:4;stroke-opacity:1;stroke-dasharray:none" id="22q13.1" d="m 38.796375,120.60046249999999 11.3833,0.0 0,-6.345212499999988 -11.3833,-0.0 0,6.345212499999988 z "/>
<path style="fill:#fffafa;stroke:#797677;stroke-width:0.1;stroke-linecap:butt;stroke-linejoin:miter;stroke-miterlimit:4;stroke-opacity:1;stroke-dasharray:none" id="22q11.21" d="m 38.796375,94.53835 11.3833,0.0 0,-7.646474999999995 -11.3833,-0.0 0,7.646474999999995 z "/>
<path style="fill:#fffafa;stroke:#797677;stroke-width:0.1;stroke-linecap:butt;stroke-linejoin:miter;stroke-miterlimit:4;stroke-opacity:1;stroke-dasharray:none" id="22q13.33" d="m 38.796375,134.536 c 0.0,1.416 2.5453750000000004,2.564 5.682125,2.564 3.13875,0.0 5.681125,-1.148 5.681125,-2.564  l -11.3833,-0.0 z"/>
<path style="fill:#fffafa;stroke:#797677;stroke-width:0.1;stroke-linecap:butt;stroke-linejoin:miter;stroke-miterlimit:4;stroke-opacity:1;stroke-dasharray:none" id="22q11.23" d="m 38.796375,101.9016625 11.3833,0.0 0,-4.301787500000003 -11.3833,-0.0 0,4.301787500000003 z "/>
<path style="fill:#c8d7de;fill-opacity:1;fill-rule:nonzero;stroke:none" id="centromere22-f" d="m 50.16937500000001,86.891875 0.0,-1.416 c 0.0,-0.9643750000000001 -1.177625,-2.54875 -2.920875,-3.4575 1.7432500000000002,-0.9052500000000001 2.920875,-2.492125 2.920875,-3.4541250000000003 l 0.0,-0.566875 -11.36325,-0.0 0.0,0.566875 c 0.0,0.9668750000000002 1.189,2.55125 2.941875,3.4541250000000003 -1.7528750000000002,0.9057500000000002 -2.941875,2.49075 -2.941875,3.4575 l 0.0,1.416 11.36325,0.0 "/>
<path style="fill:none;stroke:#797677;stroke-width:0.8;stroke-linecap:butt;stroke-linejoin:miter;stroke-miterlimit:4;stroke-opacity:1;stroke-dasharray:none" id="centromere22-o" d="m 50.16937500000001,86.891875 0.0,-1.416 c 0.0,-0.9643750000000001 -1.177625,-2.54875 -2.920875,-3.4575 1.7432500000000002,-0.9052500000000001 2.920875,-2.492125 2.920875,-3.4541250000000003 l 0.0,-0.566875 -11.36325,-0.0 0.0,0.566875 c 0.0,0.9668750000000002 1.189,2.55125 2.941875,3.4541250000000003 -1.7528750000000002,0.9057500000000002 -2.941875,2.49075 -2.941875,3.4575 l 0.0,1.416 11.36325,0.0 z "/>
<path style="fill:none;stroke:#797677;stroke-width:0.8;stroke-linecap:butt;stroke-linejoin:miter;stroke-miterlimit:4;stroke-opacity:1;stroke-dasharray:none" id="outline22" d="m 41.748000000000005,82.01837499999999 c -1.7528750000000002,0.9057500000000002 -2.941875,2.49075 -2.941875,3.4575 l 0.0,48.6055 c 0.0,1.416 2.5453750000000004,2.564 5.682125,2.564 3.13875,0.0 5.681125,-1.148 5.681125,-2.564 l 0.0,-48.6055 c 0.0,-0.9643750000000001 -1.177625,-2.54875 -2.920875,-3.4575 1.7432500000000002,-0.9052500000000001 2.920875,-2.492125 2.920875,-3.4541250000000003 l 0.0,-4.192375 c 0.0,-1.413 -2.542375,-2.563 -5.681125,-2.563 -3.13675,-0.0 -5.682125,1.15 -5.682125,2.563 l 0.0,4.192375 c 0.0,0.9668750000000002 1.189,2.55125 2.941875,3.4541250000000003 z "/>
<path style="fill:#c4cdf2;fill-opacity:1;fill-rule:nonzero;stroke:none" id="satellite22" d="m 38.806125,78.00037499999999 0.0,-3.6285 c 0.0,-1.23 1.9272500000000001,-2.26025 4.494625,-2.50675 l -0.00725,-7.39025 c -1.2963750000000003,-0.4565 -2.212,-1.5991250000000001 -2.212,-2.9321250000000005 0.0,-1.73825 1.5542500000000001,-3.1420000000000003 3.4658750000000005,-3.1420000000000003 1.9165,0.0 3.46625,1.40375 3.46625,3.1420000000000003 0.0,1.333 -0.9155000000000001,2.475625 -2.211375,2.9321250000000005 l -0.004875,7.400000000000001 c 2.507375,0.268 4.372,1.286625 4.372,2.497 l 0.0,3.6285 -11.36325,-0.0 "/>
<path style="fill:none;stroke:#797677;stroke-width:0.8;stroke-linecap:butt;stroke-linejoin:miter;stroke-miterlimit:4;stroke-opacity:1;stroke-dasharray:none" id="satellite22-o" d="m 38.806125,78.00037499999999 0.0,-3.6285 c 0.0,-1.23 1.9272500000000001,-2.26025 4.494625,-2.50675 l -0.00725,-7.39025 c -1.2963750000000003,-0.4565 -2.212,-1.5991250000000001 -2.212,-2.9321250000000005 0.0,-1.73825 1.5542500000000001,-3.1420000000000003 3.4658750000000005,-3.1420000000000003 1.9165,0.0 3.46625,1.40375 3.46625,3.1420000000000003 0.0,1.333 -0.9155000000000001,2.475625 -2.211375,2.9321250000000005 l -0.004875,7.400000000000001 c 2.507375,0.268 4.372,1.286625 4.372,2.497 l 0.0,3.6285 -11.36325,-0.0 z "/>
<path style="fill:none;stroke:#231f20;stroke-width:0.8;stroke-linecap:butt;stroke-linejoin:miter;stroke-miterlimit:4;stroke-opacity:1;stroke-dasharray:none;display:none" id="centre22" d="M 41.350125000000006,82.055 0.0,82.055 "/>
<text>
<tspan x="38.79 43.792435499999996" y="145.2986625" id="label22" style="font-size:7.19543791px;font-variant:normal;font-weight:normal;writing-mode:lr-tb;fill:#797677;fill-opacity:1;fill-rule:nonzero;stroke:none;font-family:Helvetica;-inkscape-font-specification:Helvetica">22</tspan>
</text>
</g>
</svg>
