<?xml version="1.0" encoding="UTF-8"?>
<svg xmlns:xlink="http://www.w3.org/1999/xlink" xmlns="http://www.w3.org/2000/svg" contentScriptType="text/ecmascript" zoomAndPan="magnify" contentStyleType="text/css" preserveAspectRatio="xMidYMid meet" version="1.0">
<g>
<path style="fill:#a4bdc8;fill-opacity:1;fill-rule:nonzero;stroke:none" d="m 50.169,125.43125 0.0,-4.19 c 0.0,-0.9675 -1.17775,-2.55 -2.9223750000000006,-3.4575 1.744625,-0.9062500000000001 2.9223750000000006,-2.49125 2.9223750000000006,-3.4562500000000003 l 0.0,0.45500000000000007 -11.363375,-0.0 0.0,-0.45500000000000007 c 0.0,0.96875 1.1875,2.5525 2.942875,3.4562500000000003 -1.7553750000000001,0.9075 -2.942875,2.4875 -2.942875,3.4575 l 0.0,4.19 11.363375,0.0 " id="path3823"/>
<path style="fill:none;stroke:#100f0d;stroke-width:0.8;stroke-linecap:butt;stroke-linejoin:miter;stroke-miterlimit:4;stroke-opacity:1;stroke-dasharray:none" d="m 50.169,125.43125 0.0,-4.19 c 0.0,-0.9675 -1.17775,-2.55 -2.9223750000000006,-3.4575 1.744625,-0.9062500000000001 2.9223750000000006,-2.49125 2.9223750000000006,-3.4562500000000003 l 0.0,0.45500000000000007 -11.363375,-0.0 0.0,-0.45500000000000007 c 0.0,0.96875 1.1875,2.5525 2.942875,3.4562500000000003 -1.7553750000000001,0.9075 -2.942875,2.4875 -2.942875,3.4575 l 0.0,4.19 11.363375,0.0 z " id="path3825"/>
<path style="fill:#211c1d;fill-opacity:1;fill-rule:nonzero;stroke:none" d="m 38.798375,28.966249999999974 11.3818375,0.0 0.0,-6.863275 -11.3818375,-0.0 0.0,6.863275 z " id="path3827"/>
<path style="fill:#211c1d;fill-opacity:1;fill-rule:nonzero;stroke:none" d="m 38.798375,219.185 11.3818375,0.0 0.0,-8.0961875 -11.3818375,-0.0 0.0,8.0961875 z " id="path3835"/>
<path style="fill:#211c1d;fill-opacity:1;fill-rule:nonzero;stroke:none" d="m 38.798375,197.205125 11.3818375,0.0 0.0,-8.1001 -11.3818375,-0.0 0.0,8.1001 z " id="path3837"/>
<path style="fill:#7a7e82;fill-opacity:1;fill-rule:nonzero;stroke:none" d="m 38.798375,249.69625 11.3818375,0.0 0.0,-6.657712500000001 -11.3818375,-0.0 0.0,6.657712500000001 z " id="path3839"/>
<path style="fill:none;stroke:#211c1d;stroke-width:0.1;stroke-linecap:butt;stroke-linejoin:miter;stroke-miterlimit:4;stroke-opacity:1;stroke-dasharray:none" d="m 38.798375,249.69625 11.3818375,0.0 0.0,-6.657712500000001 -11.3818375,-0.0 0.0,6.657712500000001 z " id="path3841"/>
<path style="fill:#7a7e82;fill-opacity:1;fill-rule:nonzero;stroke:none" d="m 38.798375,35.31 11.3818375,0.0 0.0,-4.59815 -11.3818375,-0.0 0.0,4.59815 z " id="path3843"/>
<path style="fill:none;stroke:#211c1d;stroke-width:0.1;stroke-linecap:butt;stroke-linejoin:miter;stroke-miterlimit:4;stroke-opacity:1;stroke-dasharray:none" d="m 38.798375,35.31 11.3818375,0.0 0.0,-4.59815 -11.3818375,-0.0 0.0,4.59815 z " id="path3845"/>
<path style="fill:#7a7e82;fill-opacity:1;fill-rule:nonzero;stroke:none" d="m 38.798375,49.58499999999998 11.3818375,0.0 0.0,-4.14355 -11.3818375,-0.0 0.0,4.14355 z " id="path3847"/>
<path style="fill:none;stroke:#211c1d;stroke-width:0.1;stroke-linecap:butt;stroke-linejoin:miter;stroke-miterlimit:4;stroke-opacity:1;stroke-dasharray:none" d="m 38.798375,49.58499999999998 11.3818375,0.0 0.0,-4.14355 -11.3818375,-0.0 0.0,4.14355 z " id="path3849"/>
<path style="fill:#7a7e82;fill-opacity:1;fill-rule:nonzero;stroke:none" d="m 38.798375,113.71375 11.3818375,0.0 0.0,-3.2387750000000004 -11.3818375,-0.0 0.0,3.2387750000000004 z " id="path3851"/>
<path style="fill:none;stroke:#211c1d;stroke-width:0.1;stroke-linecap:butt;stroke-linejoin:miter;stroke-miterlimit:4;stroke-opacity:1;stroke-dasharray:none" d="m 38.798375,113.71375 11.3818375,0.0 0.0,-3.2387750000000004 -11.3818375,-0.0 0.0,3.2387750000000004 z " id="path3853"/>
<path style="fill:#7a7e82;fill-opacity:1;fill-rule:nonzero;stroke:none" d="m 38.798375,107.82249999999999 11.3818375,0.0 0.0,-5.5044 -11.3818375,-0.0 0.0,5.5044 z " id="path3855"/>
<path style="fill:none;stroke:#211c1d;stroke-width:0.1;stroke-linecap:butt;stroke-linejoin:miter;stroke-miterlimit:4;stroke-opacity:1;stroke-dasharray:none" d="m 38.798375,107.82249999999999 11.3818375,0.0 0.0,-5.5044 -11.3818375,-0.0 0.0,5.5044 z " id="path3857"/>
<path style="fill:#7a7e82;fill-opacity:1;fill-rule:nonzero;stroke:none" d="m 38.798375,234.286125 11.3818375,0.0 0.0,-3.9375000000000004 -11.3818375,-0.0 0.0,3.9375000000000004 z " id="path3859"/>
<path style="fill:none;stroke:#211c1d;stroke-width:0.1;stroke-linecap:butt;stroke-linejoin:miter;stroke-miterlimit:4;stroke-opacity:1;stroke-dasharray:none" d="m 38.798375,234.286125 11.3818375,0.0 0.0,-3.9375000000000004 -11.3818375,-0.0 0.0,3.9375000000000004 z " id="path3861"/>
<path style="fill:#7a7e82;fill-opacity:1;fill-rule:nonzero;stroke:none" d="m 38.798375,227.48875 11.3818375,0.0 0.0,-5.07275 -11.3818375,-0.0 0.0,5.07275 z " id="path3863"/>
<path style="fill:none;stroke:#211c1d;stroke-width:0.1;stroke-linecap:butt;stroke-linejoin:miter;stroke-miterlimit:4;stroke-opacity:1;stroke-dasharray:none" d="m 38.798375,227.48875 11.3818375,0.0 0.0,-5.07275 -11.3818375,-0.0 0.0,5.07275 z " id="path3865"/>
<path style="fill:#7a7e82;fill-opacity:1;fill-rule:nonzero;stroke:none" d="m 38.798375,159.962375 11.3818375,0.0 0.0,-4.166012500000001 -11.3818375,-0.0 0.0,4.166012500000001 z " id="path3867"/>
<path style="fill:none;stroke:#211c1d;stroke-width:0.1;stroke-linecap:butt;stroke-linejoin:miter;stroke-miterlimit:4;stroke-opacity:1;stroke-dasharray:none" d="m 38.798375,159.962375 11.3818375,0.0 0.0,-4.166012500000001 -11.3818375,-0.0 0.0,4.166012500000001 z " id="path3869"/>
<path style="fill:#7a7e82;fill-opacity:1;fill-rule:nonzero;stroke:none" d="m 38.798375,153.61762499999998 11.3818375,0.0 0.0,-4.1665 -11.3818375,-0.0 0.0,4.1665 z " id="path3871"/>
<path style="fill:none;stroke:#211c1d;stroke-width:0.1;stroke-linecap:butt;stroke-linejoin:miter;stroke-miterlimit:4;stroke-opacity:1;stroke-dasharray:none" d="m 38.798375,153.61762499999998 11.3818375,0.0 0.0,-4.1665 -11.3818375,-0.0 0.0,4.1665 z " id="path3873"/>
<path style="fill:#7a7e82;fill-opacity:1;fill-rule:nonzero;stroke:none" d="m 38.798375,139.56625 11.3818375,0.0 0.0,-5.5253875 -11.3818375,-0.0 0.0,5.5253875 z " id="path3875"/>
<path style="fill:none;stroke:#211c1d;stroke-width:0.1;stroke-linecap:butt;stroke-linejoin:miter;stroke-miterlimit:4;stroke-opacity:1;stroke-dasharray:none" d="m 38.798375,139.56625 11.3818375,0.0 0.0,-5.5253875 -11.3818375,-0.0 0.0,5.5253875 z " id="path3877"/>
<path style="fill:#e9eae9;fill-opacity:1;fill-rule:nonzero;stroke:none" d="m 38.798375,17.63624999999999 11.3818375,0.0 0.0,-2.7851500000000002 -11.3818375,-0.0 0.0,2.7851500000000002 z " id="path3879"/>
<path style="fill:none;stroke:#211c1d;stroke-width:0.1;stroke-linecap:butt;stroke-linejoin:miter;stroke-miterlimit:4;stroke-opacity:1;stroke-dasharray:none" d="m 38.798375,17.63624999999999 11.3818375,0.0 0.0,-2.7851500000000002 -11.3818375,-0.0 0.0,2.7851500000000002 z " id="path3881"/>
<path style="fill:#e9eae9;fill-opacity:1;fill-rule:nonzero;stroke:none" d="m 38.798375,76.09874999999997 11.3818375,0.0 0.0,-3.2368125 -11.3818375,-0.0 0.0,3.2368125 z " id="path3883"/>
<path style="fill:none;stroke:#211c1d;stroke-width:0.1;stroke-linecap:butt;stroke-linejoin:miter;stroke-miterlimit:4;stroke-opacity:1;stroke-dasharray:none" d="m 38.798375,76.09874999999997 11.3818375,0.0 0.0,-3.2368125 -11.3818375,-0.0 0.0,3.2368125 z " id="path3885"/>
<path style="fill:#e9eae9;fill-opacity:1;fill-rule:nonzero;stroke:none" d="m 38.798375,239.725125 11.3818375,0.0 0.0,-2.3515625 -11.3818375,-0.0 0.0,2.3515625 z " id="path3887"/>
<path style="fill:none;stroke:#211c1d;stroke-width:0.1;stroke-linecap:butt;stroke-linejoin:miter;stroke-miterlimit:4;stroke-opacity:1;stroke-dasharray:none" d="m 38.798375,239.725125 11.3818375,0.0 0.0,-2.3515625 -11.3818375,-0.0 0.0,2.3515625 z " id="path3889"/>
<path style="fill:#e9eae9;fill-opacity:1;fill-rule:nonzero;stroke:none" d="m 38.798375,183.98149999999998 11.3818375,0.0 0.0,-4.1665 -11.3818375,-0.0 0.0,4.1665 z " id="path3891"/>
<path style="fill:none;stroke:#211c1d;stroke-width:0.1;stroke-linecap:butt;stroke-linejoin:miter;stroke-miterlimit:4;stroke-opacity:1;stroke-dasharray:none" d="m 38.798375,183.98149999999998 11.3818375,0.0 0.0,-4.1665 -11.3818375,-0.0 0.0,4.1665 z " id="path3893"/>
<path style="fill:#e9eae9;fill-opacity:1;fill-rule:nonzero;stroke:none" d="m 38.798375,177.183625 11.3818375,0.0 0.0,-5.524900000000001 -11.3818375,-0.0 0.0,5.524900000000001 z " id="path3895"/>
<path style="fill:none;stroke:#211c1d;stroke-width:0.1;stroke-linecap:butt;stroke-linejoin:miter;stroke-miterlimit:4;stroke-opacity:1;stroke-dasharray:none" d="m 38.798375,177.183625 11.3818375,0.0 0.0,-5.524900000000001 -11.3818375,-0.0 0.0,5.524900000000001 z " id="path3897"/>
<path style="fill:#e9eae9;fill-opacity:1;fill-rule:nonzero;stroke:none" d="m 38.798375,166.306125 11.3818375,0.0 0.0,-3.2587875 -11.3818375,-0.0 0.0,3.2587875 z " id="path3899"/>
<path style="fill:none;stroke:#211c1d;stroke-width:0.1;stroke-linecap:butt;stroke-linejoin:miter;stroke-miterlimit:4;stroke-opacity:1;stroke-dasharray:none" d="m 38.798375,166.306125 11.3818375,0.0 0.0,-3.2587875 -11.3818375,-0.0 0.0,3.2587875 z " id="path3901"/>
<path style="fill:#e9eae9;fill-opacity:1;fill-rule:nonzero;stroke:none" d="m 38.798375,130.95875 11.3818375,0.0 0.0,-2.1284125 -11.3818375,-0.0 0.0,2.1284125 z " id="path3903"/>
<path style="fill:none;stroke:#211c1d;stroke-width:0.1;stroke-linecap:butt;stroke-linejoin:miter;stroke-miterlimit:4;stroke-opacity:1;stroke-dasharray:none" d="m 38.798375,130.95875 11.3818375,0.0 0.0,-2.1284125 -11.3818375,-0.0 0.0,2.1284125 z " id="path3905"/>
<path style="fill:#bbbcbd;fill-opacity:1;fill-rule:nonzero;stroke:none" d="m 50.169,4.7099999999999795 0.0,-1.19125 c 0.0,-1.41375 -2.5425000000000004,-2.56125 -5.681250000000001,-2.56125 -3.1381250000000005,-0.0 -5.682125,1.1475 -5.682125,2.56125 l 0.0,1.19125 11.363375,0.0 " id="path3907"/>
<path style="fill:none;stroke:#211c1d;stroke-width:0.1;stroke-linecap:butt;stroke-linejoin:miter;stroke-miterlimit:4;stroke-opacity:1;stroke-dasharray:none" d="m 50.169,4.7099999999999795 0.0,-1.19125 c 0.0,-1.41375 -2.5425000000000004,-2.56125 -5.681250000000001,-2.56125 -3.1381250000000005,-0.0 -5.682125,1.1475 -5.682125,2.56125 l 0.0,1.19125 11.363375,0.0 z " id="path3909"/>
<path style="fill:#bbbcbd;fill-opacity:1;fill-rule:nonzero;stroke:none" d="m 38.798375,9.931249999999977 11.3818375,0.0 0.0,-3.2387750000000004 -11.3818375,-0.0 0.0,3.2387750000000004 z " id="path3911"/>
<path style="fill:none;stroke:#211c1d;stroke-width:0.1;stroke-linecap:butt;stroke-linejoin:miter;stroke-miterlimit:4;stroke-opacity:1;stroke-dasharray:none" d="m 38.798375,9.931249999999977 11.3818375,0.0 0.0,-3.2387750000000004 -11.3818375,-0.0 0.0,3.2387750000000004 z " id="path3913"/>
<path style="fill:#bbbcbd;fill-opacity:1;fill-rule:nonzero;stroke:none" d="m 38.798375,43.921249999999986 11.3818375,0.0 0.0,-4.59765 -11.3818375,-0.0 0.0,4.59765 z " id="path3915"/>
<path style="fill:none;stroke:#211c1d;stroke-width:0.1;stroke-linecap:butt;stroke-linejoin:miter;stroke-miterlimit:4;stroke-opacity:1;stroke-dasharray:none" d="m 38.798375,43.921249999999986 11.3818375,0.0 0.0,-4.59765 -11.3818375,-0.0 0.0,4.59765 z " id="path3917"/>
<path style="fill:#bbbcbd;fill-opacity:1;fill-rule:nonzero;stroke:none" d="m 38.798375,59.328750000000014 11.3818375,0.0 0.0,-4.142575 -11.3818375,-0.0 0.0,4.142575 z " id="path3919"/>
<path style="fill:none;stroke:#211c1d;stroke-width:0.1;stroke-linecap:butt;stroke-linejoin:miter;stroke-miterlimit:4;stroke-opacity:1;stroke-dasharray:none" d="m 38.798375,59.328750000000014 11.3818375,0.0 0.0,-4.142575 -11.3818375,-0.0 0.0,4.142575 z " id="path3921"/>
<path style="fill:#bbbcbd;fill-opacity:1;fill-rule:nonzero;stroke:none" d="m 38.798375,97.85125 11.3818375,0.0 0.0,-5.050775 -11.3818375,-0.0 0.0,5.050775 z " id="path3923"/>
<path style="fill:none;stroke:#211c1d;stroke-width:0.1;stroke-linecap:butt;stroke-linejoin:miter;stroke-miterlimit:4;stroke-opacity:1;stroke-dasharray:none" d="m 38.798375,97.85125 11.3818375,0.0 0.0,-5.050775 -11.3818375,-0.0 0.0,5.050775 z " id="path3925"/>
<path style="fill:#bbbcbd;fill-opacity:1;fill-rule:nonzero;stroke:none" d="m 38.798375,87.88125 11.3818375,0.0 0.0,-5.503900000000001 -11.3818375,-0.0 0.0,5.503900000000001 z " id="path3927"/>
<path style="fill:none;stroke:#211c1d;stroke-width:0.1;stroke-linecap:butt;stroke-linejoin:miter;stroke-miterlimit:4;stroke-opacity:1;stroke-dasharray:none" d="m 38.798375,87.88125 11.3818375,0.0 0.0,-5.503900000000001 -11.3818375,-0.0 0.0,5.503900000000001 z " id="path3929"/>
<path style="fill:#bbbcbd;fill-opacity:1;fill-rule:nonzero;stroke:none" d="m 38.798375,209.361375 11.3818375,0.0 0.0,-2.354 -11.3818375,-0.0 0.0,2.354 z " id="path3931"/>
<path style="fill:none;stroke:#211c1d;stroke-width:0.1;stroke-linecap:butt;stroke-linejoin:miter;stroke-miterlimit:4;stroke-opacity:1;stroke-dasharray:none" d="m 38.798375,209.361375 11.3818375,0.0 0.0,-2.354 -11.3818375,-0.0 0.0,2.354 z " id="path3933"/>
<path style="fill:#bbbcbd;fill-opacity:1;fill-rule:nonzero;stroke:none" d="m 38.798375,204.827625 11.3818375,0.0 0.0,-3.7128875 -11.3818375,-0.0 0.0,3.7128875 z " id="path3935"/>
<path style="fill:none;stroke:#211c1d;stroke-width:0.1;stroke-linecap:butt;stroke-linejoin:miter;stroke-miterlimit:4;stroke-opacity:1;stroke-dasharray:none" d="m 38.798375,204.827625 11.3818375,0.0 0.0,-3.7128875 -11.3818375,-0.0 0.0,3.7128875 z " id="path3937"/>
<path style="fill:#bbbcbd;fill-opacity:1;fill-rule:nonzero;stroke:none" d="m 38.798375,147.726125 11.3818375,0.0 0.0,-5.524900000000001 -11.3818375,-0.0 0.0,5.524900000000001 z " id="path3939"/>
<path style="fill:none;stroke:#211c1d;stroke-width:0.1;stroke-linecap:butt;stroke-linejoin:miter;stroke-miterlimit:4;stroke-opacity:1;stroke-dasharray:none" d="m 38.798375,147.726125 11.3818375,0.0 0.0,-5.524900000000001 -11.3818375,-0.0 0.0,5.524900000000001 z " id="path3941"/>
<path style="fill:#c4cdf2;fill-opacity:1;fill-rule:nonzero;stroke:none" d="m 38.806625,125.43125 11.363775,0.0 0.0,-4.190425 -11.363775,-0.0 0.0,4.190425 z " id="path4057"/>
<path style="fill:none;stroke:#211c1d;stroke-width:0.8;stroke-linecap:butt;stroke-linejoin:miter;stroke-miterlimit:4;stroke-opacity:1;stroke-dasharray:none" d="m 38.806625,125.43125 0.0,-4.19 11.36375,0.0 0.0,4.19 " id="path4059"/>
<path style="fill:none;stroke:#211c1d;stroke-width:0.8;stroke-linecap:butt;stroke-linejoin:miter;stroke-miterlimit:4;stroke-opacity:1;stroke-dasharray:none" d="m 41.7475,117.78375 c -1.7543750000000002,0.9075 -2.940875,2.48875 -2.940875,3.4562500000000003 l 0.0,132.4475 c 0.0,1.416 2.544,2.5639625000000006 5.681125,2.5639625000000006 3.1397500000000003,0.0 5.681250000000001,-1.1479625 5.681250000000001,-2.5639625000000006 l 0.0,-132.4475 c 0.0,-0.9650000000000001 -1.1792500000000001,-2.54875 -2.921,-3.4562500000000003 1.74175,-0.9062500000000001 2.921,-2.49125 2.921,-3.455 l 0.0,-110.80875 c 0.0,-1.41625 -2.5415000000000005,-2.5625000000000004 -5.681250000000001,-2.5625000000000004 -3.1371250000000006,-0.0 -5.681125,1.14625 -5.681125,2.5625000000000004 l 0.0,110.80875 c 0.0,0.9662500000000002 1.1865,2.55 2.940875,3.455 z " id="path4061"/>
<path style="fill:none;stroke:#231f20;stroke-width:0.8;stroke-linecap:butt;stroke-linejoin:miter;stroke-miterlimit:4;stroke-opacity:1;stroke-dasharray:none;display:none" d="M 41.349625,117.82 0.0,117.82 " id="path4063"/>
<text>
<tspan x="41.7925" y="264.451175" id="tspan3833" style="font-size:7.19543791px;font-variant:normal;font-weight:normal;writing-mode:lr-tb;fill:#211c1d;fill-opacity:1;fill-rule:nonzero;stroke:none;font-family:Helvetica;-inkscape-font-specification:Helvetica">3</tspan>
</text>
</g>
</svg>
