<?xml version="1.0" encoding="UTF-8"?>
<svg xmlns:xlink="http://www.w3.org/1999/xlink" xmlns="http://www.w3.org/2000/svg" contentScriptType="text/ecmascript" zoomAndPan="magnify" contentStyleType="text/css" preserveAspectRatio="xMidYMid meet" version="1.0">
<g id="chromosome3">
<path style="fill:#a4bdc8;fill-opacity:1;fill-rule:nonzero;stroke:none" d="m 50.169,177.54625000000001 0.0,-4.19 c 0.0,-0.9675 -1.17775,-2.55 -2.9223750000000006,-3.4575 1.744625,-0.9062500000000001 2.9223750000000006,-2.49125 2.9223750000000006,-3.4562500000000003 l 0.0,0.45500000000000007 -11.363375,-0.0 0.0,-0.45500000000000007 c 0.0,0.96875 1.1875,2.5525 2.942875,3.4562500000000003 -1.7553750000000001,0.9075 -2.942875,2.4875 -2.942875,3.4575 l 0.0,4.19 11.363375,0.0 " id="centromere3-f"/>
<path style="fill:none;stroke:#100f0d;stroke-width:0.8;stroke-linecap:butt;stroke-linejoin:miter;stroke-miterlimit:4;stroke-opacity:1;stroke-dasharray:none" d="m 50.169,177.54625000000001 0.0,-4.19 c 0.0,-0.9675 -1.17775,-2.55 -2.9223750000000006,-3.4575 1.744625,-0.9062500000000001 2.9223750000000006,-2.49125 2.9223750000000006,-3.4562500000000003 l 0.0,0.45500000000000007 -11.363375,-0.0 0.0,-0.45500000000000007 c 0.0,0.96875 1.1875,2.5525 2.942875,3.4562500000000003 -1.7553750000000001,0.9075 -2.942875,2.4875 -2.942875,3.4575 l 0.0,4.19 11.363375,0.0 z " id="centromere3-o"/>
<path style="fill:#211c1d;fill-opacity:1;fill-rule:nonzero;stroke:none" d="m 38.798375,81.08124999999998 11.3818375,0.0 0.0,-6.863275 -11.3818375,-0.0 0.0,6.863275 z " id="3p24.3"/>
<path style="fill:#211c1d;fill-opacity:1;fill-rule:nonzero;stroke:none" d="m 38.798375,271.3 11.3818375,0.0 0.0,-8.0961875 -11.3818375,-0.0 0.0,8.0961875 z " id="3q26.1"/>
<path style="fill:#211c1d;fill-opacity:1;fill-rule:nonzero;stroke:none" d="m 38.798375,249.32012500000002 11.3818375,0.0 0.0,-8.1001 -11.3818375,-0.0 0.0,8.1001 z " id="3q24"/>
<path style="fill:#7a7e82;fill-opacity:1;fill-rule:nonzero;stroke:none" d="m 38.798375,301.81125 11.3818375,0.0 0.0,-6.657712500000001 -11.3818375,-0.0 0.0,6.657712500000001 z " id="3q28"/>
<path style="fill:none;stroke:#211c1d;stroke-width:0.1;stroke-linecap:butt;stroke-linejoin:miter;stroke-miterlimit:4;stroke-opacity:1;stroke-dasharray:none" d="m 38.798375,301.81125 11.3818375,0.0 0.0,-6.657712500000001 -11.3818375,-0.0 0.0,6.657712500000001 z " id="3q28-o"/>
<path style="fill:#7a7e82;fill-opacity:1;fill-rule:nonzero;stroke:none" d="m 38.798375,87.42500000000001 11.3818375,0.0 0.0,-4.59815 -11.3818375,-0.0 0.0,4.59815 z " id="3p24.1"/>
<path style="fill:none;stroke:#211c1d;stroke-width:0.1;stroke-linecap:butt;stroke-linejoin:miter;stroke-miterlimit:4;stroke-opacity:1;stroke-dasharray:none" d="m 38.798375,87.42500000000001 11.3818375,0.0 0.0,-4.59815 -11.3818375,-0.0 0.0,4.59815 z " id="3p24.1-o"/>
<path style="fill:#7a7e82;fill-opacity:1;fill-rule:nonzero;stroke:none" d="m 38.798375,101.69999999999999 11.3818375,0.0 0.0,-4.14355 -11.3818375,-0.0 0.0,4.14355 z " id="3p22.1"/>
<path style="fill:none;stroke:#211c1d;stroke-width:0.1;stroke-linecap:butt;stroke-linejoin:miter;stroke-miterlimit:4;stroke-opacity:1;stroke-dasharray:none" d="m 38.798375,101.69999999999999 11.3818375,0.0 0.0,-4.14355 -11.3818375,-0.0 0.0,4.14355 z " id="3p22.1-o"/>
<path style="fill:#7a7e82;fill-opacity:1;fill-rule:nonzero;stroke:none" d="m 38.798375,165.82875 11.3818375,0.0 0.0,-3.2387750000000004 -11.3818375,-0.0 0.0,3.2387750000000004 z " id="3p12.1"/>
<path style="fill:none;stroke:#211c1d;stroke-width:0.1;stroke-linecap:butt;stroke-linejoin:miter;stroke-miterlimit:4;stroke-opacity:1;stroke-dasharray:none" d="m 38.798375,165.82875 11.3818375,0.0 0.0,-3.2387750000000004 -11.3818375,-0.0 0.0,3.2387750000000004 z " id="3p12.1-o"/>
<path style="fill:#7a7e82;fill-opacity:1;fill-rule:nonzero;stroke:none" d="m 38.798375,159.9375 11.3818375,0.0 0.0,-5.5044 -11.3818375,-0.0 0.0,5.5044 z " id="3p12.3"/>
<path style="fill:none;stroke:#211c1d;stroke-width:0.1;stroke-linecap:butt;stroke-linejoin:miter;stroke-miterlimit:4;stroke-opacity:1;stroke-dasharray:none" d="m 38.798375,159.9375 11.3818375,0.0 0.0,-5.5044 -11.3818375,-0.0 0.0,5.5044 z " id="3p12.3-o"/>
<path style="fill:#7a7e82;fill-opacity:1;fill-rule:nonzero;stroke:none" d="m 38.798375,286.401125 11.3818375,0.0 0.0,-3.9375000000000004 -11.3818375,-0.0 0.0,3.9375000000000004 z " id="3q26.33"/>
<path style="fill:none;stroke:#211c1d;stroke-width:0.1;stroke-linecap:butt;stroke-linejoin:miter;stroke-miterlimit:4;stroke-opacity:1;stroke-dasharray:none" d="m 38.798375,286.401125 11.3818375,0.0 0.0,-3.9375000000000004 -11.3818375,-0.0 0.0,3.9375000000000004 z " id="3q26.33-o"/>
<path style="fill:#7a7e82;fill-opacity:1;fill-rule:nonzero;stroke:none" d="m 38.798375,279.60375 11.3818375,0.0 0.0,-5.07275 -11.3818375,-0.0 0.0,5.07275 z " id="3q26.31"/>
<path style="fill:none;stroke:#211c1d;stroke-width:0.1;stroke-linecap:butt;stroke-linejoin:miter;stroke-miterlimit:4;stroke-opacity:1;stroke-dasharray:none" d="m 38.798375,279.60375 11.3818375,0.0 0.0,-5.07275 -11.3818375,-0.0 0.0,5.07275 z " id="3q26.31-o"/>
<path style="fill:#7a7e82;fill-opacity:1;fill-rule:nonzero;stroke:none" d="m 38.798375,212.07737500000002 11.3818375,0.0 0.0,-4.166012500000001 -11.3818375,-0.0 0.0,4.166012500000001 z " id="3q13.33"/>
<path style="fill:none;stroke:#211c1d;stroke-width:0.1;stroke-linecap:butt;stroke-linejoin:miter;stroke-miterlimit:4;stroke-opacity:1;stroke-dasharray:none" d="m 38.798375,212.07737500000002 11.3818375,0.0 0.0,-4.166012500000001 -11.3818375,-0.0 0.0,4.166012500000001 z " id="3q13.33-o"/>
<path style="fill:#7a7e82;fill-opacity:1;fill-rule:nonzero;stroke:none" d="m 38.798375,205.73262499999998 11.3818375,0.0 0.0,-4.1665 -11.3818375,-0.0 0.0,4.1665 z " id="3q13.31"/>
<path style="fill:none;stroke:#211c1d;stroke-width:0.1;stroke-linecap:butt;stroke-linejoin:miter;stroke-miterlimit:4;stroke-opacity:1;stroke-dasharray:none" d="m 38.798375,205.73262499999998 11.3818375,0.0 0.0,-4.1665 -11.3818375,-0.0 0.0,4.1665 z " id="3q13.31-o"/>
<path style="fill:#7a7e82;fill-opacity:1;fill-rule:nonzero;stroke:none" d="m 38.798375,191.68125 11.3818375,0.0 0.0,-5.5253875 -11.3818375,-0.0 0.0,5.5253875 z " id="3q13.11"/>
<path style="fill:none;stroke:#211c1d;stroke-width:0.1;stroke-linecap:butt;stroke-linejoin:miter;stroke-miterlimit:4;stroke-opacity:1;stroke-dasharray:none" d="m 38.798375,191.68125 11.3818375,0.0 0.0,-5.5253875 -11.3818375,-0.0 0.0,5.5253875 z " id="3q13.11-o"/>
<path style="fill:#e9eae9;fill-opacity:1;fill-rule:nonzero;stroke:none" d="m 38.798375,69.75125 11.3818375,0.0 0.0,-2.7851500000000002 -11.3818375,-0.0 0.0,2.7851500000000002 z " id="3p25.2"/>
<path style="fill:none;stroke:#211c1d;stroke-width:0.1;stroke-linecap:butt;stroke-linejoin:miter;stroke-miterlimit:4;stroke-opacity:1;stroke-dasharray:none" d="m 38.798375,69.75125 11.3818375,0.0 0.0,-2.7851500000000002 -11.3818375,-0.0 0.0,2.7851500000000002 z " id="3p25.2-o"/>
<path style="fill:#e9eae9;fill-opacity:1;fill-rule:nonzero;stroke:none" d="m 38.798375,128.21374999999998 11.3818375,0.0 0.0,-3.2368125 -11.3818375,-0.0 0.0,3.2368125 z " id="3p21.2"/>
<path style="fill:none;stroke:#211c1d;stroke-width:0.1;stroke-linecap:butt;stroke-linejoin:miter;stroke-miterlimit:4;stroke-opacity:1;stroke-dasharray:none" d="m 38.798375,128.21374999999998 11.3818375,0.0 0.0,-3.2368125 -11.3818375,-0.0 0.0,3.2368125 z " id="3p21.2-o"/>
<path style="fill:#e9eae9;fill-opacity:1;fill-rule:nonzero;stroke:none" d="m 38.798375,291.840125 11.3818375,0.0 0.0,-2.3515625 -11.3818375,-0.0 0.0,2.3515625 z " id="3q27.2"/>
<path style="fill:none;stroke:#211c1d;stroke-width:0.1;stroke-linecap:butt;stroke-linejoin:miter;stroke-miterlimit:4;stroke-opacity:1;stroke-dasharray:none" d="m 38.798375,291.840125 11.3818375,0.0 0.0,-2.3515625 -11.3818375,-0.0 0.0,2.3515625 z " id="3q27.2-o"/>
<path style="fill:#e9eae9;fill-opacity:1;fill-rule:nonzero;stroke:none" d="m 38.798375,236.0965 11.3818375,0.0 0.0,-4.1665 -11.3818375,-0.0 0.0,4.1665 z " id="3q22.3"/>
<path style="fill:none;stroke:#211c1d;stroke-width:0.1;stroke-linecap:butt;stroke-linejoin:miter;stroke-miterlimit:4;stroke-opacity:1;stroke-dasharray:none" d="m 38.798375,236.0965 11.3818375,0.0 0.0,-4.1665 -11.3818375,-0.0 0.0,4.1665 z " id="3q22.3-o"/>
<path style="fill:#e9eae9;fill-opacity:1;fill-rule:nonzero;stroke:none" d="m 38.798375,229.29862500000002 11.3818375,0.0 0.0,-5.524900000000001 -11.3818375,-0.0 0.0,5.524900000000001 z " id="3q22.1"/>
<path style="fill:none;stroke:#211c1d;stroke-width:0.1;stroke-linecap:butt;stroke-linejoin:miter;stroke-miterlimit:4;stroke-opacity:1;stroke-dasharray:none" d="m 38.798375,229.29862500000002 11.3818375,0.0 0.0,-5.524900000000001 -11.3818375,-0.0 0.0,5.524900000000001 z " id="3q22.1-o"/>
<path style="fill:#e9eae9;fill-opacity:1;fill-rule:nonzero;stroke:none" d="m 38.798375,218.42112500000002 11.3818375,0.0 0.0,-3.2587875 -11.3818375,-0.0 0.0,3.2587875 z " id="3q21.2"/>
<path style="fill:none;stroke:#211c1d;stroke-width:0.1;stroke-linecap:butt;stroke-linejoin:miter;stroke-miterlimit:4;stroke-opacity:1;stroke-dasharray:none" d="m 38.798375,218.42112500000002 11.3818375,0.0 0.0,-3.2587875 -11.3818375,-0.0 0.0,3.2587875 z " id="3q21.2-o"/>
<path style="fill:#e9eae9;fill-opacity:1;fill-rule:nonzero;stroke:none" d="m 38.798375,183.07375000000002 11.3818375,0.0 0.0,-2.1284125 -11.3818375,-0.0 0.0,2.1284125 z " id="3q12.2"/>
<path style="fill:none;stroke:#211c1d;stroke-width:0.1;stroke-linecap:butt;stroke-linejoin:miter;stroke-miterlimit:4;stroke-opacity:1;stroke-dasharray:none" d="m 38.798375,183.07375000000002 11.3818375,0.0 0.0,-2.1284125 -11.3818375,-0.0 0.0,2.1284125 z " id="3q12.2-o"/>
<path style="fill:#bbbcbd;fill-opacity:1;fill-rule:nonzero;stroke:none" d="m 50.169,56.82499999999998 0.0,-1.19125 c 0.0,-1.41375 -2.5425000000000004,-2.56125 -5.681250000000001,-2.56125 -3.1381250000000005,-0.0 -5.682125,1.1475 -5.682125,2.56125 l 0.0,1.19125 11.363375,0.0 " id="3p26.3"/>
<path style="fill:none;stroke:#211c1d;stroke-width:0.1;stroke-linecap:butt;stroke-linejoin:miter;stroke-miterlimit:4;stroke-opacity:1;stroke-dasharray:none" d="m 50.169,56.82499999999998 0.0,-1.19125 c 0.0,-1.41375 -2.5425000000000004,-2.56125 -5.681250000000001,-2.56125 -3.1381250000000005,-0.0 -5.682125,1.1475 -5.682125,2.56125 l 0.0,1.19125 11.363375,0.0 z " id="3p26.3-o"/>
<path style="fill:#bbbcbd;fill-opacity:1;fill-rule:nonzero;stroke:none" d="m 38.798375,62.04624999999998 11.3818375,0.0 0.0,-3.2387750000000004 -11.3818375,-0.0 0.0,3.2387750000000004 z " id="3p26.1"/>
<path style="fill:none;stroke:#211c1d;stroke-width:0.1;stroke-linecap:butt;stroke-linejoin:miter;stroke-miterlimit:4;stroke-opacity:1;stroke-dasharray:none" d="m 38.798375,62.04624999999998 11.3818375,0.0 0.0,-3.2387750000000004 -11.3818375,-0.0 0.0,3.2387750000000004 z " id="3p26.1-o"/>
<path style="fill:#bbbcbd;fill-opacity:1;fill-rule:nonzero;stroke:none" d="m 38.798375,96.03625 11.3818375,0.0 0.0,-4.59765 -11.3818375,-0.0 0.0,4.59765 z " id="3p22.3"/>
<path style="fill:none;stroke:#211c1d;stroke-width:0.1;stroke-linecap:butt;stroke-linejoin:miter;stroke-miterlimit:4;stroke-opacity:1;stroke-dasharray:none" d="m 38.798375,96.03625 11.3818375,0.0 0.0,-4.59765 -11.3818375,-0.0 0.0,4.59765 z " id="3p22.3-o"/>
<path style="fill:#bbbcbd;fill-opacity:1;fill-rule:nonzero;stroke:none" d="m 38.798375,111.44375000000002 11.3818375,0.0 0.0,-4.142575 -11.3818375,-0.0 0.0,4.142575 z " id="3p21.32"/>
<path style="fill:none;stroke:#211c1d;stroke-width:0.1;stroke-linecap:butt;stroke-linejoin:miter;stroke-miterlimit:4;stroke-opacity:1;stroke-dasharray:none" d="m 38.798375,111.44375000000002 11.3818375,0.0 0.0,-4.142575 -11.3818375,-0.0 0.0,4.142575 z " id="3p21.32-o"/>
<path style="fill:#bbbcbd;fill-opacity:1;fill-rule:nonzero;stroke:none" d="m 38.798375,149.96625 11.3818375,0.0 0.0,-5.050775 -11.3818375,-0.0 0.0,5.050775 z " id="3p14.1"/>
<path style="fill:none;stroke:#211c1d;stroke-width:0.1;stroke-linecap:butt;stroke-linejoin:miter;stroke-miterlimit:4;stroke-opacity:1;stroke-dasharray:none" d="m 38.798375,149.96625 11.3818375,0.0 0.0,-5.050775 -11.3818375,-0.0 0.0,5.050775 z " id="3p14.1-o"/>
<path style="fill:#bbbcbd;fill-opacity:1;fill-rule:nonzero;stroke:none" d="m 38.798375,139.99625 11.3818375,0.0 0.0,-5.503900000000001 -11.3818375,-0.0 0.0,5.503900000000001 z " id="3p14.3"/>
<path style="fill:none;stroke:#211c1d;stroke-width:0.1;stroke-linecap:butt;stroke-linejoin:miter;stroke-miterlimit:4;stroke-opacity:1;stroke-dasharray:none" d="m 38.798375,139.99625 11.3818375,0.0 0.0,-5.503900000000001 -11.3818375,-0.0 0.0,5.503900000000001 z " id="3p14.3-o"/>
<path style="fill:#bbbcbd;fill-opacity:1;fill-rule:nonzero;stroke:none" d="m 38.798375,261.476375 11.3818375,0.0 0.0,-2.354 -11.3818375,-0.0 0.0,2.354 z " id="3q25.32"/>
<path style="fill:none;stroke:#211c1d;stroke-width:0.1;stroke-linecap:butt;stroke-linejoin:miter;stroke-miterlimit:4;stroke-opacity:1;stroke-dasharray:none" d="m 38.798375,261.476375 11.3818375,0.0 0.0,-2.354 -11.3818375,-0.0 0.0,2.354 z " id="3q25.32-o"/>
<path style="fill:#bbbcbd;fill-opacity:1;fill-rule:nonzero;stroke:none" d="m 38.798375,256.942625 11.3818375,0.0 0.0,-3.7128875 -11.3818375,-0.0 0.0,3.7128875 z " id="3q25.2"/>
<path style="fill:none;stroke:#211c1d;stroke-width:0.1;stroke-linecap:butt;stroke-linejoin:miter;stroke-miterlimit:4;stroke-opacity:1;stroke-dasharray:none" d="m 38.798375,256.942625 11.3818375,0.0 0.0,-3.7128875 -11.3818375,-0.0 0.0,3.7128875 z " id="3q25.2-o"/>
<path style="fill:#bbbcbd;fill-opacity:1;fill-rule:nonzero;stroke:none" d="m 38.798375,199.841125 11.3818375,0.0 0.0,-5.524900000000001 -11.3818375,-0.0 0.0,5.524900000000001 z " id="3q13.13"/>
<path style="fill:none;stroke:#211c1d;stroke-width:0.1;stroke-linecap:butt;stroke-linejoin:miter;stroke-miterlimit:4;stroke-opacity:1;stroke-dasharray:none" d="m 38.798375,199.841125 11.3818375,0.0 0.0,-5.524900000000001 -11.3818375,-0.0 0.0,5.524900000000001 z " id="3q13.13-o"/>
<path style="fill:#c4cdf2;fill-opacity:1;fill-rule:nonzero;stroke:none" d="m 38.806625,177.54625000000001 11.363775,0.0 0.0,-4.190425 -11.363775,-0.0 0.0,4.190425 z " id="3q11.2"/>
<path style="fill:none;stroke:#211c1d;stroke-width:0.8;stroke-linecap:butt;stroke-linejoin:miter;stroke-miterlimit:4;stroke-opacity:1;stroke-dasharray:none" d="m 38.806625,177.54625000000001 0.0,-4.19 11.36375,0.0 0.0,4.19 " id="3q11.2-o"/>
<path style="fill:none;stroke:#211c1d;stroke-width:0.8;stroke-linecap:butt;stroke-linejoin:miter;stroke-miterlimit:4;stroke-opacity:1;stroke-dasharray:none" d="m 41.7475,169.89875 c -1.7543750000000002,0.9075 -2.940875,2.48875 -2.940875,3.4562500000000003 l 0.0,132.4475 c 0.0,1.416 2.544,2.5639625000000006 5.681125,2.5639625000000006 3.1397500000000003,0.0 5.681250000000001,-1.1479625 5.681250000000001,-2.5639625000000006 l 0.0,-132.4475 c 0.0,-0.9650000000000001 -1.1792500000000001,-2.54875 -2.921,-3.4562500000000003 1.74175,-0.9062500000000001 2.921,-2.49125 2.921,-3.455 l 0.0,-110.80875 c 0.0,-1.41625 -2.5415000000000005,-2.5625000000000004 -5.681250000000001,-2.5625000000000004 -3.1371250000000006,-0.0 -5.681125,1.14625 -5.681125,2.5625000000000004 l 0.0,110.80875 c 0.0,0.9662500000000002 1.1865,2.55 2.940875,3.455 z " id="outline3"/>
<path style="fill:none;stroke:#231f20;stroke-width:0.8;stroke-linecap:butt;stroke-linejoin:miter;stroke-miterlimit:4;stroke-opacity:1;stroke-dasharray:none;display:none" d="M 41.349625,169.935 0.0,169.935 " id="centre3"/>
<text>
<tspan x="41.7925" y="316.566175" id="label3" style="font-size:7.19543791px;font-variant:normal;font-weight:normal;writing-mode:lr-tb;fill:#211c1d;fill-opacity:1;fill-rule:nonzero;stroke:none;font-family:Helvetica;-inkscape-font-specification:Helvetica">3</tspan>
</text>
</g>
</svg>
