<?xml version="1.0" encoding="UTF-8"?>
<svg xmlns:xlink="http://www.w3.org/1999/xlink" xmlns="http://www.w3.org/2000/svg" contentScriptType="text/ecmascript" zoomAndPan="magnify" contentStyleType="text/css" preserveAspectRatio="xMidYMid meet" version="1.0">

<g id="chromosome3">
<path style="fill:#a4bdc8;fill-opacity:1;fill-rule:nonzero;stroke:none" id="centromere3-f" d="m 50.169,177.54625000000001 0.0,-4.19 c 0.0,-0.9675 -1.17775,-2.55 -2.9223750000000006,-3.4575 1.744625,-0.9062500000000001 2.9223750000000006,-2.49125 2.9223750000000006,-3.4562500000000003 l 0.0,0.45500000000000007 -11.363375,-0.0 0.0,-0.45500000000000007 c 0.0,0.96875 1.1875,2.5525 2.942875,3.4562500000000003 -1.7553750000000001,0.9075 -2.942875,2.4875 -2.942875,3.4575 l 0.0,4.19 11.363375,0.0 "/>
<path style="fill:none;stroke:#100f0d;stroke-width:0.8;stroke-linecap:butt;stroke-linejoin:miter;stroke-miterlimit:4;stroke-opacity:1;stroke-dasharray:none" id="centromere3-o" d="m 50.169,177.54625000000001 0.0,-4.19 c 0.0,-0.9675 -1.17775,-2.55 -2.9223750000000006,-3.4575 1.744625,-0.9062500000000001 2.9223750000000006,-2.49125 2.9223750000000006,-3.4562500000000003 l 0.0,0.45500000000000007 -11.363375,-0.0 0.0,-0.45500000000000007 c 0.0,0.96875 1.1875,2.5525 2.942875,3.4562500000000003 -1.7553750000000001,0.9075 -2.942875,2.4875 -2.942875,3.4575 l 0.0,4.19 11.363375,0.0 z "/>
<path style="fill:#211c1d;fill-opacity:1;fill-rule:nonzero;stroke:none" id="3p24.3" d="m 38.798375,81.08124999999998 11.3818375,0.0 0.0,-6.863275 -11.3818375,-0.0 0.0,6.863275 z "/>
<path style="fill:#211c1d;fill-opacity:1;fill-rule:nonzero;stroke:none" id="3q26.1" d="m 38.798375,271.3 11.3818375,0.0 0.0,-8.0961875 -11.3818375,-0.0 0.0,8.0961875 z "/>
<path style="fill:#211c1d;fill-opacity:1;fill-rule:nonzero;stroke:none" id="3q24" d="m 38.798375,249.32012500000002 11.3818375,0.0 0.0,-8.1001 -11.3818375,-0.0 0.0,8.1001 z "/>
<path style="fill:#7a7e82;fill-opacity:1;fill-rule:nonzero;stroke:none" id="3q28" d="m 38.798375,301.81125 11.3818375,0.0 0.0,-6.657712500000001 -11.3818375,-0.0 0.0,6.657712500000001 z "/>
<path style="fill:none;stroke:#211c1d;stroke-width:0.1;stroke-linecap:butt;stroke-linejoin:miter;stroke-miterlimit:4;stroke-opacity:1;stroke-dasharray:none" id="3q28-o" d="m 38.798375,301.81125 11.3818375,0.0 0.0,-6.657712500000001 -11.3818375,-0.0 0.0,6.657712500000001 z "/>
<path style="fill:#7a7e82;fill-opacity:1;fill-rule:nonzero;stroke:none" id="3p24.1" d="m 38.798375,87.42500000000001 11.3818375,0.0 0.0,-4.59815 -11.3818375,-0.0 0.0,4.59815 z "/>
<path style="fill:none;stroke:#211c1d;stroke-width:0.1;stroke-linecap:butt;stroke-linejoin:miter;stroke-miterlimit:4;stroke-opacity:1;stroke-dasharray:none" id="3p24.1-o" d="m 38.798375,87.42500000000001 11.3818375,0.0 0.0,-4.59815 -11.3818375,-0.0 0.0,4.59815 z "/>
<path style="fill:#7a7e82;fill-opacity:1;fill-rule:nonzero;stroke:none" id="3p22.1" d="m 38.798375,101.69999999999999 11.3818375,0.0 0.0,-4.14355 -11.3818375,-0.0 0.0,4.14355 z "/>
<path style="fill:none;stroke:#211c1d;stroke-width:0.1;stroke-linecap:butt;stroke-linejoin:miter;stroke-miterlimit:4;stroke-opacity:1;stroke-dasharray:none" id="3p22.1-o" d="m 38.798375,101.69999999999999 11.3818375,0.0 0.0,-4.14355 -11.3818375,-0.0 0.0,4.14355 z "/>
<path style="fill:#7a7e82;fill-opacity:1;fill-rule:nonzero;stroke:none" id="3p12.1" d="m 38.798375,165.82875 11.3818375,0.0 0.0,-3.2387750000000004 -11.3818375,-0.0 0.0,3.2387750000000004 z "/>
<path style="fill:none;stroke:#211c1d;stroke-width:0.1;stroke-linecap:butt;stroke-linejoin:miter;stroke-miterlimit:4;stroke-opacity:1;stroke-dasharray:none" id="3p12.1-o" d="m 38.798375,165.82875 11.3818375,0.0 0.0,-3.2387750000000004 -11.3818375,-0.0 0.0,3.2387750000000004 z "/>
<path style="fill:#7a7e82;fill-opacity:1;fill-rule:nonzero;stroke:none" id="3p12.3" d="m 38.798375,159.9375 11.3818375,0.0 0.0,-5.5044 -11.3818375,-0.0 0.0,5.5044 z "/>
<path style="fill:none;stroke:#211c1d;stroke-width:0.1;stroke-linecap:butt;stroke-linejoin:miter;stroke-miterlimit:4;stroke-opacity:1;stroke-dasharray:none" id="3p12.3-o" d="m 38.798375,159.9375 11.3818375,0.0 0.0,-5.5044 -11.3818375,-0.0 0.0,5.5044 z "/>
<path style="fill:#7a7e82;fill-opacity:1;fill-rule:nonzero;stroke:none" id="3q26.33" d="m 38.798375,286.401125 11.3818375,0.0 0.0,-3.9375000000000004 -11.3818375,-0.0 0.0,3.9375000000000004 z "/>
<path style="fill:none;stroke:#211c1d;stroke-width:0.1;stroke-linecap:butt;stroke-linejoin:miter;stroke-miterlimit:4;stroke-opacity:1;stroke-dasharray:none" id="3q26.33-o" d="m 38.798375,286.401125 11.3818375,0.0 0.0,-3.9375000000000004 -11.3818375,-0.0 0.0,3.9375000000000004 z "/>
<path style="fill:#7a7e82;fill-opacity:1;fill-rule:nonzero;stroke:none" id="3q26.31" d="m 38.798375,279.60375 11.3818375,0.0 0.0,-5.07275 -11.3818375,-0.0 0.0,5.07275 z "/>
<path style="fill:none;stroke:#211c1d;stroke-width:0.1;stroke-linecap:butt;stroke-linejoin:miter;stroke-miterlimit:4;stroke-opacity:1;stroke-dasharray:none" id="3q26.31-o" d="m 38.798375,279.60375 11.3818375,0.0 0.0,-5.07275 -11.3818375,-0.0 0.0,5.07275 z "/>
<path style="fill:#7a7e82;fill-opacity:1;fill-rule:nonzero;stroke:none" id="3q13.33" d="m 38.798375,212.07737500000002 11.3818375,0.0 0.0,-4.166012500000001 -11.3818375,-0.0 0.0,4.166012500000001 z "/>
<path style="fill:none;stroke:#211c1d;stroke-width:0.1;stroke-linecap:butt;stroke-linejoin:miter;stroke-miterlimit:4;stroke-opacity:1;stroke-dasharray:none" id="3q13.33-o" d="m 38.798375,212.07737500000002 11.3818375,0.0 0.0,-4.166012500000001 -11.3818375,-0.0 0.0,4.166012500000001 z "/>
<path style="fill:#7a7e82;fill-opacity:1;fill-rule:nonzero;stroke:none" id="3q13.31" d="m 38.798375,205.73262499999998 11.3818375,0.0 0.0,-4.1665 -11.3818375,-0.0 0.0,4.1665 z "/>
<path style="fill:none;stroke:#211c1d;stroke-width:0.1;stroke-linecap:butt;stroke-linejoin:miter;stroke-miterlimit:4;stroke-opacity:1;stroke-dasharray:none" id="3q13.31-o" d="m 38.798375,205.73262499999998 11.3818375,0.0 0.0,-4.1665 -11.3818375,-0.0 0.0,4.1665 z "/>
<path style="fill:#7a7e82;fill-opacity:1;fill-rule:nonzero;stroke:none" id="3q13.11" d="m 38.798375,191.68125 11.3818375,0.0 0.0,-5.5253875 -11.3818375,-0.0 0.0,5.5253875 z "/>
<path style="fill:none;stroke:#211c1d;stroke-width:0.1;stroke-linecap:butt;stroke-linejoin:miter;stroke-miterlimit:4;stroke-opacity:1;stroke-dasharray:none" id="3q13.11-o" d="m 38.798375,191.68125 11.3818375,0.0 0.0,-5.5253875 -11.3818375,-0.0 0.0,5.5253875 z "/>
<path style="fill:#e9eae9;fill-opacity:1;fill-rule:nonzero;stroke:none" id="3p25.2" d="m 38.798375,69.75125 11.3818375,0.0 0.0,-2.7851500000000002 -11.3818375,-0.0 0.0,2.7851500000000002 z "/>
<path style="fill:none;stroke:#211c1d;stroke-width:0.1;stroke-linecap:butt;stroke-linejoin:miter;stroke-miterlimit:4;stroke-opacity:1;stroke-dasharray:none" id="3p25.2-o" d="m 38.798375,69.75125 11.3818375,0.0 0.0,-2.7851500000000002 -11.3818375,-0.0 0.0,2.7851500000000002 z "/>
<path style="fill:#e9eae9;fill-opacity:1;fill-rule:nonzero;stroke:none" id="3p21.2" d="m 38.798375,128.21374999999998 11.3818375,0.0 0.0,-3.2368125 -11.3818375,-0.0 0.0,3.2368125 z "/>
<path style="fill:none;stroke:#211c1d;stroke-width:0.1;stroke-linecap:butt;stroke-linejoin:miter;stroke-miterlimit:4;stroke-opacity:1;stroke-dasharray:none" id="3p21.2-o" d="m 38.798375,128.21374999999998 11.3818375,0.0 0.0,-3.2368125 -11.3818375,-0.0 0.0,3.2368125 z "/>
<path style="fill:#e9eae9;fill-opacity:1;fill-rule:nonzero;stroke:none" id="3q27.2" d="m 38.798375,291.840125 11.3818375,0.0 0.0,-2.3515625 -11.3818375,-0.0 0.0,2.3515625 z "/>
<path style="fill:none;stroke:#211c1d;stroke-width:0.1;stroke-linecap:butt;stroke-linejoin:miter;stroke-miterlimit:4;stroke-opacity:1;stroke-dasharray:none" id="3q27.2-o" d="m 38.798375,291.840125 11.3818375,0.0 0.0,-2.3515625 -11.3818375,-0.0 0.0,2.3515625 z "/>
<path style="fill:#e9eae9;fill-opacity:1;fill-rule:nonzero;stroke:none" id="3q22.3" d="m 38.798375,236.0965 11.3818375,0.0 0.0,-4.1665 -11.3818375,-0.0 0.0,4.1665 z "/>
<path style="fill:none;stroke:#211c1d;stroke-width:0.1;stroke-linecap:butt;stroke-linejoin:miter;stroke-miterlimit:4;stroke-opacity:1;stroke-dasharray:none" id="3q22.3-o" d="m 38.798375,236.0965 11.3818375,0.0 0.0,-4.1665 -11.3818375,-0.0 0.0,4.1665 z "/>
<path style="fill:#e9eae9;fill-opacity:1;fill-rule:nonzero;stroke:none" id="3q22.1" d="m 38.798375,229.29862500000002 11.3818375,0.0 0.0,-5.524900000000001 -11.3818375,-0.0 0.0,5.524900000000001 z "/>
<path style="fill:none;stroke:#211c1d;stroke-width:0.1;stroke-linecap:butt;stroke-linejoin:miter;stroke-miterlimit:4;stroke-opacity:1;stroke-dasharray:none" id="3q22.1-o" d="m 38.798375,229.29862500000002 11.3818375,0.0 0.0,-5.524900000000001 -11.3818375,-0.0 0.0,5.524900000000001 z "/>
<path style="fill:#e9eae9;fill-opacity:1;fill-rule:nonzero;stroke:none" id="3q21.2" d="m 38.798375,218.42112500000002 11.3818375,0.0 0.0,-3.2587875 -11.3818375,-0.0 0.0,3.2587875 z "/>
<path style="fill:none;stroke:#211c1d;stroke-width:0.1;stroke-linecap:butt;stroke-linejoin:miter;stroke-miterlimit:4;stroke-opacity:1;stroke-dasharray:none" id="3q21.2-o" d="m 38.798375,218.42112500000002 11.3818375,0.0 0.0,-3.2587875 -11.3818375,-0.0 0.0,3.2587875 z "/>
<path style="fill:#e9eae9;fill-opacity:1;fill-rule:nonzero;stroke:none" id="3q12.2" d="m 38.798375,183.07375000000002 11.3818375,0.0 0.0,-2.1284125 -11.3818375,-0.0 0.0,2.1284125 z "/>
<path style="fill:none;stroke:#211c1d;stroke-width:0.1;stroke-linecap:butt;stroke-linejoin:miter;stroke-miterlimit:4;stroke-opacity:1;stroke-dasharray:none" id="3q12.2-o" d="m 38.798375,183.07375000000002 11.3818375,0.0 0.0,-2.1284125 -11.3818375,-0.0 0.0,2.1284125 z "/>
<path style="fill:#bbbcbd;fill-opacity:1;fill-rule:nonzero;stroke:none" id="3p26.3" d="m 50.169,56.82499999999998 0.0,-1.19125 c 0.0,-1.41375 -2.5425000000000004,-2.56125 -5.681250000000001,-2.56125 -3.1381250000000005,-0.0 -5.682125,1.1475 -5.682125,2.56125 l 0.0,1.19125 11.363375,0.0 "/>
<path style="fill:none;stroke:#211c1d;stroke-width:0.1;stroke-linecap:butt;stroke-linejoin:miter;stroke-miterlimit:4;stroke-opacity:1;stroke-dasharray:none" id="3p26.3-o" d="m 50.169,56.82499999999998 0.0,-1.19125 c 0.0,-1.41375 -2.5425000000000004,-2.56125 -5.681250000000001,-2.56125 -3.1381250000000005,-0.0 -5.682125,1.1475 -5.682125,2.56125 l 0.0,1.19125 11.363375,0.0 z "/>
<path style="fill:#bbbcbd;fill-opacity:1;fill-rule:nonzero;stroke:none" id="3p26.1" d="m 38.798375,62.04624999999998 11.3818375,0.0 0.0,-3.2387750000000004 -11.3818375,-0.0 0.0,3.2387750000000004 z "/>
<path style="fill:none;stroke:#211c1d;stroke-width:0.1;stroke-linecap:butt;stroke-linejoin:miter;stroke-miterlimit:4;stroke-opacity:1;stroke-dasharray:none" id="3p26.1-o" d="m 38.798375,62.04624999999998 11.3818375,0.0 0.0,-3.2387750000000004 -11.3818375,-0.0 0.0,3.2387750000000004 z "/>
<path style="fill:#bbbcbd;fill-opacity:1;fill-rule:nonzero;stroke:none" id="3p22.3" d="m 38.798375,96.03625 11.3818375,0.0 0.0,-4.59765 -11.3818375,-0.0 0.0,4.59765 z "/>
<path style="fill:none;stroke:#211c1d;stroke-width:0.1;stroke-linecap:butt;stroke-linejoin:miter;stroke-miterlimit:4;stroke-opacity:1;stroke-dasharray:none" id="3p22.3-o" d="m 38.798375,96.03625 11.3818375,0.0 0.0,-4.59765 -11.3818375,-0.0 0.0,4.59765 z "/>
<path style="fill:#bbbcbd;fill-opacity:1;fill-rule:nonzero;stroke:none" id="3p21.32" d="m 38.798375,111.44375000000002 11.3818375,0.0 0.0,-4.142575 -11.3818375,-0.0 0.0,4.142575 z "/>
<path style="fill:none;stroke:#211c1d;stroke-width:0.1;stroke-linecap:butt;stroke-linejoin:miter;stroke-miterlimit:4;stroke-opacity:1;stroke-dasharray:none" id="3p21.32-o" d="m 38.798375,111.44375000000002 11.3818375,0.0 0.0,-4.142575 -11.3818375,-0.0 0.0,4.142575 z "/>
<path style="fill:#bbbcbd;fill-opacity:1;fill-rule:nonzero;stroke:none" id="3p14.1" d="m 38.798375,149.96625 11.3818375,0.0 0.0,-5.050775 -11.3818375,-0.0 0.0,5.050775 z "/>
<path style="fill:none;stroke:#211c1d;stroke-width:0.1;stroke-linecap:butt;stroke-linejoin:miter;stroke-miterlimit:4;stroke-opacity:1;stroke-dasharray:none" id="3p14.1-o" d="m 38.798375,149.96625 11.3818375,0.0 0.0,-5.050775 -11.3818375,-0.0 0.0,5.050775 z "/>
<path style="fill:#bbbcbd;fill-opacity:1;fill-rule:nonzero;stroke:none" id="3p14.3" d="m 38.798375,139.99625 11.3818375,0.0 0.0,-5.503900000000001 -11.3818375,-0.0 0.0,5.503900000000001 z "/>
<path style="fill:none;stroke:#211c1d;stroke-width:0.1;stroke-linecap:butt;stroke-linejoin:miter;stroke-miterlimit:4;stroke-opacity:1;stroke-dasharray:none" id="3p14.3-o" d="m 38.798375,139.99625 11.3818375,0.0 0.0,-5.503900000000001 -11.3818375,-0.0 0.0,5.503900000000001 z "/>
<path style="fill:#bbbcbd;fill-opacity:1;fill-rule:nonzero;stroke:none" id="3q25.32" d="m 38.798375,261.476375 11.3818375,0.0 0.0,-2.354 -11.3818375,-0.0 0.0,2.354 z "/>
<path style="fill:none;stroke:#211c1d;stroke-width:0.1;stroke-linecap:butt;stroke-linejoin:miter;stroke-miterlimit:4;stroke-opacity:1;stroke-dasharray:none" id="3q25.32-o" d="m 38.798375,261.476375 11.3818375,0.0 0.0,-2.354 -11.3818375,-0.0 0.0,2.354 z "/>
<path style="fill:#bbbcbd;fill-opacity:1;fill-rule:nonzero;stroke:none" id="3q25.2" d="m 38.798375,256.942625 11.3818375,0.0 0.0,-3.7128875 -11.3818375,-0.0 0.0,3.7128875 z "/>
<path style="fill:none;stroke:#211c1d;stroke-width:0.1;stroke-linecap:butt;stroke-linejoin:miter;stroke-miterlimit:4;stroke-opacity:1;stroke-dasharray:none" id="3q25.2-o" d="m 38.798375,256.942625 11.3818375,0.0 0.0,-3.7128875 -11.3818375,-0.0 0.0,3.7128875 z "/>
<path style="fill:#bbbcbd;fill-opacity:1;fill-rule:nonzero;stroke:none" id="3q13.13" d="m 38.798375,199.841125 11.3818375,0.0 0.0,-5.524900000000001 -11.3818375,-0.0 0.0,5.524900000000001 z "/>
<path style="fill:none;stroke:#211c1d;stroke-width:0.1;stroke-linecap:butt;stroke-linejoin:miter;stroke-miterlimit:4;stroke-opacity:1;stroke-dasharray:none" id="3q13.13-o" d="m 38.798375,199.841125 11.3818375,0.0 0.0,-5.524900000000001 -11.3818375,-0.0 0.0,5.524900000000001 z "/>
<path style="fill:#c4cdf2;fill-opacity:1;fill-rule:nonzero;stroke:none" id="3q11.2" d="m 38.806625,177.54625000000001 11.363775,0.0 0.0,-4.190425 -11.363775,-0.0 0.0,4.190425 z "/>
<path style="fill:none;stroke:#211c1d;stroke-width:0.8;stroke-linecap:butt;stroke-linejoin:miter;stroke-miterlimit:4;stroke-opacity:1;stroke-dasharray:none" id="3q11.2-o" d="m 38.806625,177.54625000000001 0.0,-4.19 11.36375,0.0 0.0,4.19 "/>
<path style="fill:none;stroke:#211c1d;stroke-width:0.8;stroke-linecap:butt;stroke-linejoin:miter;stroke-miterlimit:4;stroke-opacity:1;stroke-dasharray:none" id="outline3" d="m 41.7475,169.89875 c -1.7543750000000002,0.9075 -2.940875,2.48875 -2.940875,3.4562500000000003 l 0.0,132.4475 c 0.0,1.416 2.544,2.5639625000000006 5.681125,2.5639625000000006 3.1397500000000003,0.0 5.681250000000001,-1.1479625 5.681250000000001,-2.5639625000000006 l 0.0,-132.4475 c 0.0,-0.9650000000000001 -1.1792500000000001,-2.54875 -2.921,-3.4562500000000003 1.74175,-0.9062500000000001 2.921,-2.49125 2.921,-3.455 l 0.0,-110.80875 c 0.0,-1.41625 -2.5415000000000005,-2.5625000000000004 -5.681250000000001,-2.5625000000000004 -3.1371250000000006,-0.0 -5.681125,1.14625 -5.681125,2.5625000000000004 l 0.0,110.80875 c 0.0,0.9662500000000002 1.1865,2.55 2.940875,3.455 z "/>
<path style="fill:none;stroke:#231f20;stroke-width:0.8;stroke-linecap:butt;stroke-linejoin:miter;stroke-miterlimit:4;stroke-opacity:1;stroke-dasharray:none;display:none" id="centre3" d="M 41.349625,169.935 0.0,169.935 "/>
<text>
<tspan x="41.7925" y="316.566175" id="label3" style="font-size:7.19543791px;font-variant:normal;font-weight:normal;writing-mode:lr-tb;fill:#211c1d;fill-opacity:1;fill-rule:nonzero;stroke:none;font-family:Helvetica;-inkscape-font-specification:Helvetica">3</tspan>
</text>
<path style="fill:none;stroke:#211c1d;stroke-width:0.1;stroke-linecap:butt;stroke-linejoin:miter;stroke-miterlimit:4;stroke-opacity:1;stroke-dasharray:none;display:none" id="3p14.1-1" d="m 38.798375,154.4331 11.3818375,0.0 0,-4.466849999999994 -11.3818375,-0.0 0,4.466849999999994 z "/>
<path style="fill:none;stroke:#211c1d;stroke-width:0.1;stroke-linecap:butt;stroke-linejoin:miter;stroke-miterlimit:4;stroke-opacity:1;stroke-dasharray:none;display:none" id="3p22.1-1" d="m 38.798375,107.30117500000003 11.3818375,0.0 0,-5.60117500000004 -11.3818375,-0.0 0,5.60117500000004 z "/>
<path style="fill:none;stroke:#211c1d;stroke-width:0.1;stroke-linecap:butt;stroke-linejoin:miter;stroke-miterlimit:4;stroke-opacity:1;stroke-dasharray:none;display:none" id="3q13.33-1" d="m 38.798375,207.91136250000002 11.3818375,0.0 0,-2.1787375000000395 -11.3818375,-0.0 0,2.1787375000000395 z "/>
<path style="fill:none;stroke:#211c1d;stroke-width:0.1;stroke-linecap:butt;stroke-linejoin:miter;stroke-miterlimit:4;stroke-opacity:1;stroke-dasharray:none;display:none" id="3q22.1-1" d="m 38.798375,223.773725 11.3818375,0.0 0,-5.352599999999995 -11.3818375,-0.0 0,5.352599999999995 z "/>
<path style="fill:none;stroke:#211c1d;stroke-width:0.1;stroke-linecap:butt;stroke-linejoin:miter;stroke-miterlimit:4;stroke-opacity:1;stroke-dasharray:none;display:none" id="3q28-1" d="m 38.798375,295.15353749999997 11.3818375,0.0 0,-3.31341249999997 -11.3818375,-0.0 0,3.31341249999997 z "/>
<path style="fill:none;stroke:#211c1d;stroke-width:0.1;stroke-linecap:butt;stroke-linejoin:miter;stroke-miterlimit:4;stroke-opacity:1;stroke-dasharray:none;display:none" id="3p12.3-1" d="m 38.798375,162.589975 11.3818375,0.0 0,-2.6524750000000097 -11.3818375,-0.0 0,2.6524750000000097 z "/>
<path style="fill:none;stroke:#211c1d;stroke-width:0.1;stroke-linecap:butt;stroke-linejoin:miter;stroke-miterlimit:4;stroke-opacity:1;stroke-dasharray:none;display:none" id="3p24.1-1" d="m 38.798375,91.4386 11.3818375,0.0 0,-4.0135999999999825 -11.3818375,-0.0 0,4.0135999999999825 z "/>
<path style="fill:none;stroke:#211c1d;stroke-width:0.1;stroke-linecap:butt;stroke-linejoin:miter;stroke-miterlimit:4;stroke-opacity:1;stroke-dasharray:none;display:none" id="3q12.2-1" d="m 38.806625,180.94533750000002 11.363775,0.0 0,-3.3990875000000074 -11.363775,-0.0 0,3.3990875000000074 z "/>
<path style="fill:none;stroke:#211c1d;stroke-width:0.1;stroke-linecap:butt;stroke-linejoin:miter;stroke-miterlimit:4;stroke-opacity:1;stroke-dasharray:none;display:none" id="3q22.3-1" d="m 38.798375,231.92999999999998 11.3818375,0.0 0,-2.631374999999963 -11.3818375,-0.0 0,2.631374999999963 z "/>
<path style="fill:none;stroke:#211c1d;stroke-width:0.1;stroke-linecap:butt;stroke-linejoin:miter;stroke-miterlimit:4;stroke-opacity:1;stroke-dasharray:none;display:none" id="3q26.1-1" d="m 38.798375,263.2038125 11.3818375,0.0 0,-1.7274375000000077 -11.3818375,-0.0 0,1.7274375000000077 z "/>
<path style="fill:none;stroke:#211c1d;stroke-width:0.1;stroke-linecap:butt;stroke-linejoin:miter;stroke-miterlimit:4;stroke-opacity:1;stroke-dasharray:none;display:none" id="3p25.2-1" d="m 38.798375,74.21797499999998 11.3818375,0.0 0,-4.4667249999999825 -11.3818375,-0.0 0,4.4667249999999825 z "/>
<path style="fill:none;stroke:#211c1d;stroke-width:0.1;stroke-linecap:butt;stroke-linejoin:miter;stroke-miterlimit:4;stroke-opacity:1;stroke-dasharray:none;display:none" id="3p12.1-1" d="m 38.798375,166.4425 11.3818375,0.0 0,-0.6137499999999818 -11.3818375,-0.0 0,0.6137499999999818 z "/>
<path style="fill:none;stroke:#211c1d;stroke-width:0.1;stroke-linecap:butt;stroke-linejoin:miter;stroke-miterlimit:4;stroke-opacity:1;stroke-dasharray:none;display:none" id="3p26.3-1" d="m 38.798375,58.80747499999998 11.3818375,0.0 0,-1.9824750000000009 -11.3818375,-0.0 0,1.9824750000000009 z "/>
<path style="fill:none;stroke:#211c1d;stroke-width:0.1;stroke-linecap:butt;stroke-linejoin:miter;stroke-miterlimit:4;stroke-opacity:1;stroke-dasharray:none;display:none" id="3p24.3-1" d="m 38.798375,82.82685000000001 11.3818375,0.0 0,-1.7456000000000245 -11.3818375,-0.0 0,1.7456000000000245 z "/>
<path style="fill:none;stroke:#211c1d;stroke-width:0.1;stroke-linecap:butt;stroke-linejoin:miter;stroke-miterlimit:4;stroke-opacity:1;stroke-dasharray:none;display:none" id="3q27.2-1" d="m 38.798375,289.4885625 11.3818375,0.0 0,-3.0874375000000214 -11.3818375,-0.0 0,3.0874375000000214 z "/>
<path style="fill:none;stroke:#211c1d;stroke-width:0.1;stroke-linecap:butt;stroke-linejoin:miter;stroke-miterlimit:4;stroke-opacity:1;stroke-dasharray:none;display:none" id="3q13.13-1" d="m 38.798375,194.316225 11.3818375,0.0 0,-2.634974999999997 -11.3818375,-0.0 0,2.634974999999997 z "/>
<path style="fill:none;stroke:#211c1d;stroke-width:0.1;stroke-linecap:butt;stroke-linejoin:miter;stroke-miterlimit:4;stroke-opacity:1;stroke-dasharray:none;display:none" id="3q11.2-1" d="m 38.806625,173.355825 11.363775,0.0 0,4.190425000000005 -11.363775,-0.0 0,-4.190425000000005 z "/>
<path style="fill:none;stroke:#211c1d;stroke-width:0.1;stroke-linecap:butt;stroke-linejoin:miter;stroke-miterlimit:4;stroke-opacity:1;stroke-dasharray:none;display:none" id="3q21.2-1" d="m 38.798375,215.1623375 11.3818375,0.0 0,-3.084962499999989 -11.3818375,-0.0 0,3.084962499999989 z "/>
<path style="fill:none;stroke:#211c1d;stroke-width:0.1;stroke-linecap:butt;stroke-linejoin:miter;stroke-miterlimit:4;stroke-opacity:1;stroke-dasharray:none;display:none" id="3q25.2-1" d="m 38.798375,253.22973750000003 11.3818375,0.0 0,-3.9096125000000086 -11.3818375,-0.0 0,3.9096125000000086 z "/>
<path style="fill:none;stroke:#211c1d;stroke-width:0.1;stroke-linecap:butt;stroke-linejoin:miter;stroke-miterlimit:4;stroke-opacity:1;stroke-dasharray:none;display:none" id="3q26.33-1" d="m 38.798375,282.463625 11.3818375,0.0 0,-2.859874999999988 -11.3818375,-0.0 0,2.859874999999988 z "/>
<path style="fill:none;stroke:#211c1d;stroke-width:0.1;stroke-linecap:butt;stroke-linejoin:miter;stroke-miterlimit:4;stroke-opacity:1;stroke-dasharray:none;display:none" id="3p21.2-1" d="m 38.798375,134.49235000000002 11.3818375,0.0 0,-6.27860000000004 -11.3818375,-0.0 0,6.27860000000004 z "/>
<path style="fill:none;stroke:#211c1d;stroke-width:0.1;stroke-linecap:butt;stroke-linejoin:miter;stroke-miterlimit:4;stroke-opacity:1;stroke-dasharray:none;display:none" id="3q24-1" d="m 38.798375,241.22002500000002 11.3818375,0.0 0,-5.123525000000029 -11.3818375,-0.0 0,5.123525000000029 z "/>
<path style="fill:none;stroke:#211c1d;stroke-width:0.1;stroke-linecap:butt;stroke-linejoin:miter;stroke-miterlimit:4;stroke-opacity:1;stroke-dasharray:none;display:none" id="3q26.31-1" d="m 38.798375,274.531 11.3818375,0.0 0,-3.2309999999999945 -11.3818375,-0.0 0,3.2309999999999945 z "/>
<path style="fill:none;stroke:#211c1d;stroke-width:0.1;stroke-linecap:butt;stroke-linejoin:miter;stroke-miterlimit:4;stroke-opacity:1;stroke-dasharray:none;display:none" id="bottom" d="m 38.798375,301.81125 0.0,4 c 0.0,1.416 2.544,2.5639625000000006 5.681125,2.5639625000000006 3.1397500000000003,0.0 5.681250000000001,-1.1479625 5.681250000000001,-2.5639625000000006 l 0.0,-4 -11.3818375,-0.0 z"/>
<path style="fill:none;stroke:#211c1d;stroke-width:0.1;stroke-linecap:butt;stroke-linejoin:miter;stroke-miterlimit:4;stroke-opacity:1;stroke-dasharray:none;display:none" id="3q13.11-1" d="m 38.798375,186.1558625 11.3818375,0.0 0,-3.082112499999994 -11.3818375,-0.0 0,3.082112499999994 z "/>
<path style="fill:none;stroke:#211c1d;stroke-width:0.1;stroke-linecap:butt;stroke-linejoin:miter;stroke-miterlimit:4;stroke-opacity:1;stroke-dasharray:none;display:none" id="3q25.32-1" d="m 38.798375,259.12237500000003 11.3818375,0.0 0,-2.1797500000000127 -11.3818375,-0.0 0,2.1797500000000127 z "/>
<path style="fill:none;stroke:#211c1d;stroke-width:0.1;stroke-linecap:butt;stroke-linejoin:miter;stroke-miterlimit:4;stroke-opacity:1;stroke-dasharray:none;display:none" id="3p21.32-1" d="m 38.798375,124.97693749999998 11.3818375,0.0 0,-13.533187499999954 -11.3818375,-0.0 0,13.533187499999954 z "/>
<path style="fill:none;stroke:#211c1d;stroke-width:0.1;stroke-linecap:butt;stroke-linejoin:miter;stroke-miterlimit:4;stroke-opacity:1;stroke-dasharray:none;display:none" id="3p14.3-1" d="m 38.798375,144.91547500000001 11.3818375,0.0 0,-4.9192250000000115 -11.3818375,-0.0 0,4.9192250000000115 z "/>
<path style="fill:none;stroke:#211c1d;stroke-width:0.1;stroke-linecap:butt;stroke-linejoin:miter;stroke-miterlimit:4;stroke-opacity:1;stroke-dasharray:none;display:none" id="3p26.1-1" d="m 38.798375,66.9661 11.3818375,0.0 0,-4.919850000000018 -11.3818375,-0.0 0,4.919850000000018 z "/>
<path style="fill:none;stroke:#211c1d;stroke-width:0.1;stroke-linecap:butt;stroke-linejoin:miter;stroke-miterlimit:4;stroke-opacity:1;stroke-dasharray:none;display:none" id="3q13.31-1" d="m 38.798375,201.56612499999997 11.3818375,0.0 0,-1.724999999999966 -11.3818375,-0.0 0,1.724999999999966 z "/>
<path style="fill:none;stroke:#211c1d;stroke-width:0.1;stroke-linecap:butt;stroke-linejoin:miter;stroke-miterlimit:4;stroke-opacity:1;stroke-dasharray:none;display:none" id="3p22.3-1" d="m 38.798375,97.55644999999998 11.3818375,0.0 0,-1.5201999999999884 -11.3818375,-0.0 0,1.5201999999999884 z "/>
</g>
</svg>
