<?xml version="1.0" encoding="UTF-8"?>
<svg xmlns:xlink="http://www.w3.org/1999/xlink" xmlns="http://www.w3.org/2000/svg" contentScriptType="text/ecmascript" zoomAndPan="magnify" contentStyleType="text/css" preserveAspectRatio="xMidYMid meet" version="1.0">
<g id="chromosome4">
<path style="fill:#a4bdc8;fill-opacity:1;fill-rule:nonzero;stroke:none" d="m 50.16937500000001,173.88 0.0,-0.35625000000000007 c 0.0,-1.01125 -1.178625,-2.67625 -2.92325,-3.6312500000000005 1.744625,-0.94875 2.92325,-2.6125 2.92325,-3.62625 l 0.0,0.2375 -11.36325,-0.0 0.0,-0.2375 c 0.0,1.015 1.1875,2.6775 2.941,3.62625 -1.7535,0.95375 -2.941,2.615 -2.941,3.6312500000000005 l 0.0,0.35625000000000007 11.36325,0.0 " id="centromere4-f"/>
<path style="fill:none;stroke:#100f0d;stroke-width:0.8;stroke-linecap:butt;stroke-linejoin:miter;stroke-miterlimit:4;stroke-opacity:1;stroke-dasharray:none" d="m 50.16937500000001,173.88 0.0,-0.35625000000000007 c 0.0,-1.01125 -1.178625,-2.67625 -2.92325,-3.6312500000000005 1.744625,-0.94875 2.92325,-2.6125 2.92325,-3.62625 l 0.0,0.2375 -11.36325,-0.0 0.0,-0.2375 c 0.0,1.015 1.1875,2.6775 2.941,3.62625 -1.7535,0.95375 -2.941,2.615 -2.941,3.6312500000000005 l 0.0,0.35625000000000007 11.36325,0.0 z " id="centromere4-o"/>
<path style="fill:#211c1d;fill-opacity:1;fill-rule:nonzero;stroke:none" d="m 38.796375,152.9425 11.3833,0.0 0.0,-8.5669 -11.3833,-0.0 0.0,8.5669 z " id="4p15.1"/>
<path style="fill:#211c1d;fill-opacity:1;fill-rule:nonzero;stroke:none" d="m 38.796375,186.49124999999998 11.3833,0.0 0.0,-6.8994125 -11.3833,-0.0 0.0,6.8994125 z " id="4q13.1"/>
<path style="fill:#211c1d;fill-opacity:1;fill-rule:nonzero;stroke:none" d="m 38.796375,270.956 11.3833,0.0 0.0,-10.232425000000001 -11.3833,-0.0 0.0,10.232425000000001 z " id="4q28.3"/>
<path style="fill:#bbbcbd;fill-opacity:1;fill-rule:nonzero;stroke:none" d="m 38.796375,131.05374999999995 11.3833,0.0 0.0,-5.47265 -11.3833,-0.0 0.0,5.47265 z " id="4p15.33"/>
<path style="fill:none;stroke:#211c1d;stroke-width:0.1;stroke-linecap:butt;stroke-linejoin:miter;stroke-miterlimit:4;stroke-opacity:1;stroke-dasharray:none" d="m 38.796375,131.05374999999995 11.3833,0.0 0.0,-5.47265 -11.3833,-0.0 0.0,5.47265 z " id="4p15.33-o"/>
<path style="fill:#bbbcbd;fill-opacity:1;fill-rule:nonzero;stroke:none" d="m 38.796375,163.8875 11.3833,0.0 0.0,-4.7587875 -11.3833,-0.0 0.0,4.7587875 z " id="4p13"/>
<path style="fill:none;stroke:#211c1d;stroke-width:0.1;stroke-linecap:butt;stroke-linejoin:miter;stroke-miterlimit:4;stroke-opacity:1;stroke-dasharray:none" d="m 38.796375,163.8875 11.3833,0.0 0.0,-4.7587875 -11.3833,-0.0 0.0,4.7587875 z " id="4p13-o"/>
<path style="fill:#bbbcbd;fill-opacity:1;fill-rule:nonzero;stroke:none" d="m 38.796375,201.00375 11.3833,0.0 0.0,-3.330075 -11.3833,-0.0 0.0,3.330075 z " id="4q21.21"/>
<path style="fill:none;stroke:#211c1d;stroke-width:0.1;stroke-linecap:butt;stroke-linejoin:miter;stroke-miterlimit:4;stroke-opacity:1;stroke-dasharray:none" d="m 38.796375,201.00375 11.3833,0.0 0.0,-3.330075 -11.3833,-0.0 0.0,3.330075 z " id="4q21.21-o"/>
<path style="fill:#bbbcbd;fill-opacity:1;fill-rule:nonzero;stroke:none" d="m 38.796375,257.39649999999995 11.3833,0.0 0.0,-5.476562500000001 -11.3833,-0.0 0.0,5.476562500000001 z " id="4q28.1"/>
<path style="fill:none;stroke:#211c1d;stroke-width:0.1;stroke-linecap:butt;stroke-linejoin:miter;stroke-miterlimit:4;stroke-opacity:1;stroke-dasharray:none" d="m 38.796375,257.39649999999995 11.3833,0.0 0.0,-5.476562500000001 -11.3833,-0.0 0.0,5.476562500000001 z " id="4q28.1-o"/>
<path style="fill:#bbbcbd;fill-opacity:1;fill-rule:nonzero;stroke:none" d="m 38.796375,233.83887499999997 11.3833,0.0 0.0,-5.7089875 -11.3833,-0.0 0.0,5.7089875 z " id="4q24"/>
<path style="fill:none;stroke:#211c1d;stroke-width:0.1;stroke-linecap:butt;stroke-linejoin:miter;stroke-miterlimit:4;stroke-opacity:1;stroke-dasharray:none" d="m 38.796375,233.83887499999997 11.3833,0.0 0.0,-5.7089875 -11.3833,-0.0 0.0,5.7089875 z " id="4q24-o"/>
<path style="fill:#211c1d;fill-opacity:1;fill-rule:nonzero;stroke:none" d="m 38.796375,295.93987500000003 11.3833,0.0 0.0,-6.1875 -11.3833,-0.0 0.0,6.1875 z " id="4q31.1"/>
<path style="fill:#211c1d;fill-opacity:1;fill-rule:nonzero;stroke:none" d="m 38.796375,304.742625 11.3833,0.0 0.0,-6.1840875 -11.3833,-0.0 0.0,6.1840875 z " id="4q31.3"/>
<path style="fill:#7a7e82;fill-opacity:1;fill-rule:nonzero;stroke:none" d="m 38.796375,140.80749999999998 11.3833,0.0 0.0,-5.471675 -11.3833,-0.0 0.0,5.471675 z " id="4p15.31"/>
<path style="fill:none;stroke:#211c1d;stroke-width:0.1;stroke-linecap:butt;stroke-linejoin:miter;stroke-miterlimit:4;stroke-opacity:1;stroke-dasharray:none" d="m 38.796375,140.80749999999998 11.3833,0.0 0.0,-5.471675 -11.3833,-0.0 0.0,5.471675 z " id="4p15.31-o"/>
<path style="fill:#7a7e82;fill-opacity:1;fill-rule:nonzero;stroke:none" d="m 38.796375,194.34375 11.3833,0.0 0.0,-5.23535 -11.3833,-0.0 0.0,5.23535 z " id="4q13.3"/>
<path style="fill:none;stroke:#211c1d;stroke-width:0.1;stroke-linecap:butt;stroke-linejoin:miter;stroke-miterlimit:4;stroke-opacity:1;stroke-dasharray:none" d="m 38.796375,194.34375 11.3833,0.0 0.0,-5.23535 -11.3833,-0.0 0.0,5.23535 z " id="4q13.3-o"/>
<path style="fill:#7a7e82;fill-opacity:1;fill-rule:nonzero;stroke:none" d="m 38.796375,217.66062499999998 11.3833,0.0 0.0,-7.13965 -11.3833,-0.0 0.0,7.13965 z " id="4q22.1"/>
<path style="fill:none;stroke:#211c1d;stroke-width:0.1;stroke-linecap:butt;stroke-linejoin:miter;stroke-miterlimit:4;stroke-opacity:1;stroke-dasharray:none" d="m 38.796375,217.66062499999998 11.3833,0.0 0.0,-7.13965 -11.3833,-0.0 0.0,7.13965 z " id="4q22.1-o"/>
<path style="fill:#7a7e82;fill-opacity:1;fill-rule:nonzero;stroke:none" d="m 38.796375,247.40225 11.3833,0.0 0.0,-7.13965 -11.3833,-0.0 0.0,7.13965 z " id="4q26"/>
<path style="fill:none;stroke:#211c1d;stroke-width:0.1;stroke-linecap:butt;stroke-linejoin:miter;stroke-miterlimit:4;stroke-opacity:1;stroke-dasharray:none" d="m 38.796375,247.40225 11.3833,0.0 0.0,-7.13965 -11.3833,-0.0 0.0,7.13965 z " id="4q26-o"/>
<path style="fill:#7a7e82;fill-opacity:1;fill-rule:nonzero;stroke:none" d="m 38.796375,225.27149999999997 11.3833,0.0 0.0,-5.2338875 -11.3833,-0.0 0.0,5.2338875 z " id="4q22.3"/>
<path style="fill:none;stroke:#211c1d;stroke-width:0.1;stroke-linecap:butt;stroke-linejoin:miter;stroke-miterlimit:4;stroke-opacity:1;stroke-dasharray:none" d="m 38.796375,225.27149999999997 11.3833,0.0 0.0,-5.2338875 -11.3833,-0.0 0.0,5.2338875 z " id="4q22.3-o"/>
<path style="fill:#7a7e82;fill-opacity:1;fill-rule:nonzero;stroke:none" d="m 38.796375,311.6435 11.3833,0.0 0.0,-4.994625 -11.3833,-0.0 0.0,4.994625 z " id="4q34.1"/>
<path style="fill:none;stroke:#211c1d;stroke-width:0.1;stroke-linecap:butt;stroke-linejoin:miter;stroke-miterlimit:4;stroke-opacity:1;stroke-dasharray:none" d="m 38.796375,311.6435 11.3833,0.0 0.0,-4.994625 -11.3833,-0.0 0.0,4.994625 z " id="4q34.1-o"/>
<path style="fill:#211c1d;fill-opacity:1;fill-rule:nonzero;stroke:none" d="m 38.796375,317.59124999999995 11.3833,0.0 0.0,-4.7587875 -11.3833,-0.0 0.0,4.7587875 z " id="4q34.4"/>
<path style="fill:#e9eae9;fill-opacity:1;fill-rule:nonzero;stroke:none" d="m 38.796375,118.06499999999997 11.3833,0.0 0.0,-3.1909125000000005 -11.3833,-0.0 0.0,3.1909125000000005 z " id="4p16.2"/>
<path style="fill:none;stroke:#211c1d;stroke-width:0.1;stroke-linecap:butt;stroke-linejoin:miter;stroke-miterlimit:4;stroke-opacity:1;stroke-dasharray:none" d="m 38.796375,118.06499999999997 11.3833,0.0 0.0,-3.1909125000000005 -11.3833,-0.0 0.0,3.1909125000000005 z " id="4p16.2-o"/>
<path style="fill:#e9eae9;fill-opacity:1;fill-rule:nonzero;stroke:none" d="m 38.796375,205.04999999999998 11.3833,0.0 0.0,-2.6167000000000002 -11.3833,-0.0 0.0,2.6167000000000002 z " id="4q21.23"/>
<path style="fill:none;stroke:#211c1d;stroke-width:0.1;stroke-linecap:butt;stroke-linejoin:miter;stroke-miterlimit:4;stroke-opacity:1;stroke-dasharray:none" d="m 38.796375,205.04999999999998 11.3833,0.0 0.0,-2.6167000000000002 -11.3833,-0.0 0.0,2.6167000000000002 z " id="4q21.23-o"/>
<path style="fill:#e9eae9;fill-opacity:1;fill-rule:nonzero;stroke:none" d="m 38.796375,280.47362499999997 11.3833,0.0 0.0,-3.33105 -11.3833,-0.0 0.0,3.33105 z " id="4q31.21"/>
<path style="fill:none;stroke:#211c1d;stroke-width:0.1;stroke-linecap:butt;stroke-linejoin:miter;stroke-miterlimit:4;stroke-opacity:1;stroke-dasharray:none" d="m 38.796375,280.47362499999997 11.3833,0.0 0.0,-3.33105 -11.3833,-0.0 0.0,3.33105 z " id="4q31.21-o"/>
<path style="fill:#e9eae9;fill-opacity:1;fill-rule:nonzero;stroke:none" d="m 38.796375,285.94475 11.3833,0.0 0.0,-3.3295875 -11.3833,-0.0 0.0,3.3295875 z " id="4q31.23"/>
<path style="fill:none;stroke:#211c1d;stroke-width:0.1;stroke-linecap:butt;stroke-linejoin:miter;stroke-miterlimit:4;stroke-opacity:1;stroke-dasharray:none" d="m 38.796375,285.94475 11.3833,0.0 0.0,-3.3295875 -11.3833,-0.0 0.0,3.3295875 z " id="4q31.23-o"/>
<path style="fill:#e9eae9;fill-opacity:1;fill-rule:nonzero;stroke:none" d="m 38.806125,323.67775 0.0,1.2885 c 0.0,1.487375 2.5453750000000004,2.6938750000000002 5.681125,2.6938750000000002 3.13875,0.0 5.682125,-1.2065 5.682125,-2.6938750000000002 l 0.0,-1.2885 -11.36325,-0.0 " id="4q35.2"/>
<path style="fill:none;stroke:#211c1d;stroke-width:0.1;stroke-linecap:butt;stroke-linejoin:miter;stroke-miterlimit:4;stroke-opacity:1;stroke-dasharray:none" d="m 38.806125,323.67775 0.0,1.2885 c 0.0,1.487375 2.5453750000000004,2.6938750000000002 5.681125,2.6938750000000002 3.13875,0.0 5.682125,-1.2065 5.682125,-2.6938750000000002 l 0.0,-1.2885 -11.36325,-0.0 z " id="4q35.2-o"/>
<path style="fill:none;stroke:#211c1d;stroke-width:0.8;stroke-linecap:butt;stroke-linejoin:miter;stroke-miterlimit:4;stroke-opacity:1;stroke-dasharray:none" d="m 41.745625,169.89499999999995 c -1.7530000000000001,0.9512500000000002 -2.9395,2.6125 -2.9395,3.63 l 0.0,151.44125 c 0.0,1.487375 2.5453750000000004,2.6938750000000002 5.681125,2.6938750000000002 3.1372500000000003,0.0 5.681250000000001,-1.2065 5.681250000000001,-2.6938750000000002 l 0.0,-151.44125 c 0.0,-1.01375 -1.17775,-2.6775 -2.921,-3.63 1.7432500000000002,-0.9512500000000002 2.921,-2.615 2.921,-3.6287500000000006 l 0.0,-53.298750000000005 c 0.0,-1.4850000000000003 -2.544,-2.68875 -5.681250000000001,-2.68875 -3.13575,-0.0 -5.681125,1.20375 -5.681125,2.68875 l 0.0,53.298750000000005 c 0.0,1.0162500000000003 1.1865,2.6775 2.9395,3.6287500000000006 z " id="outline4"/>
<path style="fill:none;stroke:#231f20;stroke-width:0.8;stroke-linecap:butt;stroke-linejoin:miter;stroke-miterlimit:4;stroke-opacity:1;stroke-dasharray:none;display:none" d="M 41.349125,169.93499999999997 0.0,169.93499999999997 " id="centre4"/>
<text>
<tspan x="41.293" y="336.3051375" id="label4" style="font-size:7.19543791px;font-variant:normal;font-weight:normal;writing-mode:lr-tb;fill:#211c1d;fill-opacity:1;fill-rule:nonzero;stroke:none;font-family:Helvetica;-inkscape-font-specification:Helvetica">4</tspan>
</text>
</g>
</svg>
