<?xml version="1.0" encoding="UTF-8" standalone="no"?>
<!-- Created with Inkscape (http://www.inkscape.org/) -->
<svg xmlns:dc="http://purl.org/dc/elements/1.1/" xmlns:cc="http://creativecommons.org/ns#" xmlns:rdf="http://www.w3.org/1999/02/22-rdf-syntax-ns#" xmlns:svg="http://www.w3.org/2000/svg" xmlns="http://www.w3.org/2000/svg" version="1.1" width="50.487499" height="225.3625" id="svg4493" xml:space="preserve">
  <metadata id="metadata4499">
    <rdf:RDF>
      <cc:Work rdf:about="">
        <dc:format>image/svg+xml</dc:format>
        <dc:type rdf:resource="http://purl.org/dc/dcmitype/StillImage"/>
        <dc:title/>
      </cc:Work>
    </rdf:RDF>
  </metadata>
  <defs id="defs4497">
    <clipPath id="clipPath4509">
      <path d="M 0,1802.86 0,0 l 403.855,0 0,1802.86 -403.855,0 z" id="path4511"/>
    </clipPath>
  </defs>
  <g transform="matrix(1.25,0,0,-1.25,0,225.3625)" id="g4501">
    <g transform="scale(0.1,0.1)" id="g4503">
      <g id="g4505">
        <g clip-path="url(#clipPath4509)" id="g4507">
          <g transform="scale(10,10)" id="g4513"><text transform="matrix(1,0,0,-0.90697189,33.0332,3.13906)" id="text4515"><tspan x="0" y="0" id="tspan4517" style="font-size:7.19543791px;font-variant:normal;font-weight:normal;writing-mode:lr-tb;fill:#211c1d;fill-opacity:1;fill-rule:nonzero;stroke:none;font-family:Helvetica;-inkscape-font-specification:Helvetica">5</tspan></text>
</g>
          <path d="m 310.371,1604 91.0547,0 0,41.6992 -91.0547,0 0,-41.6992 z" id="path4519" style="fill:#211c1d;fill-opacity:1;fill-rule:nonzero;stroke:none"/>
          <path d="m 310.371,933.262 91.0547,0 0,81.582 -91.0547,0 0,-81.582 z" id="path4521" style="fill:#211c1d;fill-opacity:1;fill-rule:nonzero;stroke:none"/>
          <path d="m 310.371,1555.06 91.0547,0 0,41.6992 -91.0547,0 0,-41.6992 z" id="path4523" style="fill:#211c1d;fill-opacity:1;fill-rule:nonzero;stroke:none"/>
          <path d="m 401.355,1344.79 0,13.58 c 0,7.72 -9.441,20.39 -23.386,27.65 13.945,7.25 23.386,19.93 23.386,27.64 l -90.906,0 c 0,-7.73 9.5,-20.4 23.516,-27.64 -14.016,-7.24 -23.516,-19.91 -23.516,-27.65 l 0,-13.58 90.906,0" id="path4525" style="fill:#a4bdc8;fill-opacity:1;fill-rule:nonzero;stroke:none"/>
          <path d="m 401.355,1344.79 0,13.58 c 0,7.72 -9.441,20.39 -23.386,27.65 13.945,7.25 23.386,19.93 23.386,27.64 l -90.906,0 c 0,-7.73 9.5,-20.4 23.516,-27.64 -14.016,-7.24 -23.516,-19.91 -23.516,-27.65 l 0,-13.58 90.906,0 z" id="path4527" style="fill:none;stroke:#100f0d;stroke-width:5;stroke-linecap:butt;stroke-linejoin:miter;stroke-miterlimit:4;stroke-opacity:1;stroke-dasharray:none"/>
          <path d="m 310.371,855.312 91.0547,0 0,34.4648 -91.0547,0 0,-34.4648 z" id="path4529" style="fill:#211c1d;fill-opacity:1;fill-rule:nonzero;stroke:none"/>
          <path d="m 310.371,790.051 91.0547,0 0,50.7695 -91.0547,0 0,-50.7695 z" id="path4531" style="fill:#211c1d;fill-opacity:1;fill-rule:nonzero;stroke:none"/>
          <path d="m 310.371,1671.09 91.0547,0 0,39.8789 -91.0547,0 0,-39.8789 z" id="path4533" style="fill:#bbbcbd;fill-opacity:1;fill-rule:nonzero;stroke:none"/>
          <path d="m 310.371,1671.09 91.0547,0 0,39.8789 -91.0547,0 0,-39.8789 z" id="path4535" style="fill:none;stroke:#211c1d;stroke-width:0.62;stroke-linecap:butt;stroke-linejoin:miter;stroke-miterlimit:4;stroke-opacity:1;stroke-dasharray:none"/>
          <path d="m 310.371,1040.22 91.0547,0 0,54.3906 -91.0547,0 0,-54.3906 z" id="path4537" style="fill:#bbbcbd;fill-opacity:1;fill-rule:nonzero;stroke:none"/>
          <path d="m 310.371,1040.22 91.0547,0 0,54.3906 -91.0547,0 0,-54.3906 z" id="path4539" style="fill:none;stroke:#211c1d;stroke-width:0.62;stroke-linecap:butt;stroke-linejoin:miter;stroke-miterlimit:4;stroke-opacity:1;stroke-dasharray:none"/>
          <path d="m 310.371,1413.66 91.0547,0 0,27.1836 -91.0547,0 0,-27.1836 z" id="path4541" style="fill:#bbbcbd;fill-opacity:1;fill-rule:nonzero;stroke:none"/>
          <path d="m 310.371,1413.66 91.0547,0 0,27.1836 -91.0547,0 0,-27.1836 z" id="path4543" style="fill:none;stroke:#211c1d;stroke-width:0.62;stroke-linecap:butt;stroke-linejoin:miter;stroke-miterlimit:4;stroke-opacity:1;stroke-dasharray:none"/>
          <path d="m 310.371,1129.05 91.0547,0 0,30.8047 -91.0547,0 0,-30.8047 z" id="path4545" style="fill:#bbbcbd;fill-opacity:1;fill-rule:nonzero;stroke:none"/>
          <path d="m 310.371,1129.05 91.0547,0 0,30.8047 -91.0547,0 0,-30.8047 z" id="path4547" style="fill:none;stroke:#211c1d;stroke-width:0.62;stroke-linecap:butt;stroke-linejoin:miter;stroke-miterlimit:4;stroke-opacity:1;stroke-dasharray:none"/>
          <path d="m 310.371,751.988 91.0547,0 0,19.9414 -91.0547,0 0,-19.9414 z" id="path4549" style="fill:#bbbcbd;fill-opacity:1;fill-rule:nonzero;stroke:none"/>
          <path d="m 310.371,751.988 91.0547,0 0,19.9414 -91.0547,0 0,-19.9414 z" id="path4551" style="fill:none;stroke:#211c1d;stroke-width:0.62;stroke-linecap:butt;stroke-linejoin:miter;stroke-miterlimit:4;stroke-opacity:1;stroke-dasharray:none"/>
          <path d="m 310.371,344.109 91.0547,0 0,30.8125 -91.0547,0 0,-30.8125 z" id="path4553" style="fill:#bbbcbd;fill-opacity:1;fill-rule:nonzero;stroke:none"/>
          <path d="m 310.371,344.109 91.0547,0 0,30.8125 -91.0547,0 0,-30.8125 z" id="path4555" style="fill:none;stroke:#211c1d;stroke-width:0.62;stroke-linecap:butt;stroke-linejoin:miter;stroke-miterlimit:4;stroke-opacity:1;stroke-dasharray:none"/>
          <path d="m 310.371,1734.53 91.0547,0 0,19.9297 -91.0547,0 0,-19.9297 z" id="path4557" style="fill:#e9eae9;fill-opacity:1;fill-rule:nonzero;stroke:none"/>
          <path d="m 310.371,1734.53 91.0547,0 0,19.9297 -91.0547,0 0,-19.9297 z" id="path4559" style="fill:none;stroke:#211c1d;stroke-width:0.62;stroke-linecap:butt;stroke-linejoin:miter;stroke-miterlimit:4;stroke-opacity:1;stroke-dasharray:none"/>
          <path d="m 310.371,1469.86 91.0547,0 0,38.0781 -91.0547,0 0,-38.0781 z" id="path4561" style="fill:#e9eae9;fill-opacity:1;fill-rule:nonzero;stroke:none"/>
          <path d="m 310.371,1469.86 91.0547,0 0,38.0781 -91.0547,0 0,-38.0781 z" id="path4563" style="fill:none;stroke:#211c1d;stroke-width:0.62;stroke-linecap:butt;stroke-linejoin:miter;stroke-miterlimit:4;stroke-opacity:1;stroke-dasharray:none"/>
          <path d="m 310.371,516.328 91.0547,0 0,30.8203 -91.0547,0 0,-30.8203 z" id="path4565" style="fill:#e9eae9;fill-opacity:1;fill-rule:nonzero;stroke:none"/>
          <path d="m 310.371,516.328 91.0547,0 0,30.8203 -91.0547,0 0,-30.8203 z" id="path4567" style="fill:none;stroke:#211c1d;stroke-width:0.62;stroke-linecap:butt;stroke-linejoin:miter;stroke-miterlimit:4;stroke-opacity:1;stroke-dasharray:none"/>
          <path d="m 310.371,166.441 91.0547,0 0,36.2695 -91.0547,0 0,-36.2695 z" id="path4569" style="fill:#e9eae9;fill-opacity:1;fill-rule:nonzero;stroke:none"/>
          <path d="m 310.371,166.441 91.0547,0 0,36.2695 -91.0547,0 0,-36.2695 z" id="path4571" style="fill:none;stroke:#211c1d;stroke-width:0.62;stroke-linecap:butt;stroke-linejoin:miter;stroke-miterlimit:4;stroke-opacity:1;stroke-dasharray:none"/>
          <path d="m 310.371,246.191 91.0547,0 0,63.4688 -91.0547,0 0,-63.4688 z" id="path4573" style="fill:#211c1d;fill-opacity:1;fill-rule:nonzero;stroke:none"/>
          <path d="m 310.371,1239.63 91.0547,0 0,36.2695 -91.0547,0 0,-36.2695 z" id="path4575" style="fill:#7a7e82;fill-opacity:1;fill-rule:nonzero;stroke:none"/>
          <path d="m 310.371,1239.63 91.0547,0 0,36.2695 -91.0547,0 0,-36.2695 z" id="path4577" style="fill:none;stroke:#211c1d;stroke-width:0.62;stroke-linecap:butt;stroke-linejoin:miter;stroke-miterlimit:4;stroke-opacity:1;stroke-dasharray:none"/>
          <path d="m 310.371,1194.31 91.0547,0 0,32.6445 -91.0547,0 0,-32.6445 z" id="path4579" style="fill:#7a7e82;fill-opacity:1;fill-rule:nonzero;stroke:none"/>
          <path d="m 310.371,1194.31 91.0547,0 0,32.6445 -91.0547,0 0,-32.6445 z" id="path4581" style="fill:none;stroke:#211c1d;stroke-width:0.62;stroke-linecap:butt;stroke-linejoin:miter;stroke-miterlimit:4;stroke-opacity:1;stroke-dasharray:none"/>
          <path d="m 310.371,684.898 91.0547,0 0,43.5234 -91.0547,0 0,-43.5234 z" id="path4583" style="fill:#7a7e82;fill-opacity:1;fill-rule:nonzero;stroke:none"/>
          <path d="m 310.371,684.898 91.0547,0 0,43.5234 -91.0547,0 0,-43.5234 z" id="path4585" style="fill:none;stroke:#211c1d;stroke-width:0.62;stroke-linecap:butt;stroke-linejoin:miter;stroke-miterlimit:4;stroke-opacity:1;stroke-dasharray:none"/>
          <path d="m 310.371,601.52 91.0547,0 0,43.5195 -91.0547,0 0,-43.5195 z" id="path4587" style="fill:#7a7e82;fill-opacity:1;fill-rule:nonzero;stroke:none"/>
          <path d="m 310.371,601.52 91.0547,0 0,43.5195 -91.0547,0 0,-43.5195 z" id="path4589" style="fill:none;stroke:#211c1d;stroke-width:0.62;stroke-linecap:butt;stroke-linejoin:miter;stroke-miterlimit:4;stroke-opacity:1;stroke-dasharray:none"/>
          <path d="m 310.371,416.621 91.0547,0 0,50.7578 -91.0547,0 0,-50.7578 z" id="path4591" style="fill:#7a7e82;fill-opacity:1;fill-rule:nonzero;stroke:none"/>
          <path d="m 310.371,416.621 91.0547,0 0,50.7578 -91.0547,0 0,-50.7578 z" id="path4593" style="fill:none;stroke:#211c1d;stroke-width:0.62;stroke-linecap:butt;stroke-linejoin:miter;stroke-miterlimit:4;stroke-opacity:1;stroke-dasharray:none"/>
          <path d="m 333.965,1386.02 c -14.004,-7.24 -23.516,-19.91 -23.516,-27.65 l 0,-1237.241 c 0,-11.34 20.352,-20.5 45.449,-20.5 25.098,0 45.457,9.16 45.457,20.5 l 0,1237.241 c 0,7.72 -9.441,20.39 -23.386,27.65 13.945,7.25 23.386,19.93 23.386,27.64 l 0,366.19 c 0,11.32 -20.359,20.51 -45.457,20.51 -25.097,0 -45.449,-9.19 -45.449,-20.51 l 0,-366.19 c 0,-7.73 9.512,-20.4 23.516,-27.64 z" id="path4595" style="fill:none;stroke:#211c1d;stroke-width:5;stroke-linecap:butt;stroke-linejoin:miter;stroke-miterlimit:4;stroke-opacity:1;stroke-dasharray:none"/>
          <path d="M 330.781,1385.73 0,1385.73" id="path4597" style="fill:none;stroke:#231f20;stroke-width:5;stroke-linecap:butt;stroke-linejoin:miter;stroke-miterlimit:4;stroke-opacity:1;stroke-dasharray:none"/>
          <g transform="scale(10,10)" id="g4599"><text transform="matrix(1,0,0,-0.90698012,22.5797,144.736)" id="text4601"><tspan x="0 2.0003321 4.0006642 5.0008302" y="0" id="tspan4603" style="font-size:3.59771943px;font-variant:normal;font-weight:normal;writing-mode:lr-tb;fill:#231f20;fill-opacity:1;fill-rule:nonzero;stroke:none;font-family:Helvetica;-inkscape-font-specification:Helvetica">13.1</tspan><tspan x="3.2656283 5.0014677" y="6.3969979" id="tspan4605" style="font-size:3.59771943px;font-variant:normal;font-weight:normal;writing-mode:lr-tb;fill:#231f20;fill-opacity:1;fill-rule:nonzero;stroke:none;font-family:Helvetica;-inkscape-font-specification:Helvetica">11</tspan><tspan x="0.26484594 2.0001955 4.0011773 5.0006905" y="10.795176" id="tspan4607" style="font-size:3.59771943px;font-variant:normal;font-weight:normal;writing-mode:lr-tb;fill:#231f20;fill-opacity:1;fill-rule:nonzero;stroke:none;font-family:Helvetica;-inkscape-font-specification:Helvetica">11.1</tspan><tspan x="2.21e-06 2.0003343 4.0006661 5.0008321" y="27.284071" id="tspan4609" style="font-size:3.59771943px;font-variant:normal;font-weight:normal;writing-mode:lr-tb;fill:#231f20;fill-opacity:1;fill-rule:nonzero;stroke:none;font-family:Helvetica;-inkscape-font-specification:Helvetica">12.3</tspan><tspan x="2.21e-06 2.0003343 4.0006661 5.0008321" y="38.376377" id="tspan4611" style="font-size:3.59771943px;font-variant:normal;font-weight:normal;writing-mode:lr-tb;fill:#231f20;fill-opacity:1;fill-rule:nonzero;stroke:none;font-family:Helvetica;-inkscape-font-specification:Helvetica">13.3</tspan><tspan x="2.21e-06 2.0003343 4.0006661 5.0008321" y="47.57069" id="tspan4613" style="font-size:3.59771943px;font-variant:normal;font-weight:normal;writing-mode:lr-tb;fill:#231f20;fill-opacity:1;fill-rule:nonzero;stroke:none;font-family:Helvetica;-inkscape-font-specification:Helvetica">14.2</tspan><tspan x="2.21e-06 2.0003343 4.0006661 5.0008321" y="64.359703" id="tspan4615" style="font-size:3.59771943px;font-variant:normal;font-weight:normal;writing-mode:lr-tb;fill:#231f20;fill-opacity:1;fill-rule:nonzero;stroke:none;font-family:Helvetica;-inkscape-font-specification:Helvetica">21.1</tspan><tspan x="-2.0011663 -0.00083424 1.9994978 2.9996638 5.0007863" y="-35.075222" id="tspan4617" style="font-size:3.59771943px;font-variant:normal;font-weight:normal;writing-mode:lr-tb;fill:#231f20;fill-opacity:1;fill-rule:nonzero;stroke:none;font-family:Helvetica;-inkscape-font-specification:Helvetica">15.33</tspan><tspan x="-2.0011663 -0.00083424 1.9994978 2.9996638 5.0007863" y="-28.679516" id="tspan4619" style="font-size:3.59771943px;font-variant:normal;font-weight:normal;writing-mode:lr-tb;fill:#231f20;fill-opacity:1;fill-rule:nonzero;stroke:none;font-family:Helvetica;-inkscape-font-specification:Helvetica">15.31</tspan><tspan x="2.21e-06 2.0003343 4.0006661 5.0008321" y="-25.482521" id="tspan4621" style="font-size:3.59771943px;font-variant:normal;font-weight:normal;writing-mode:lr-tb;fill:#231f20;fill-opacity:1;fill-rule:nonzero;stroke:none;font-family:Helvetica;-inkscape-font-specification:Helvetica">15.2</tspan><tspan x="2.21e-06 2.0003343 4.0006661 5.0008321" y="-21.88542" id="tspan4623" style="font-size:3.59771943px;font-variant:normal;font-weight:normal;writing-mode:lr-tb;fill:#231f20;fill-opacity:1;fill-rule:nonzero;stroke:none;font-family:Helvetica;-inkscape-font-specification:Helvetica">15.1</tspan><tspan x="2.21e-06 2.0003343 4.0006661 5.0008321" y="34.878338" id="tspan4625" style="font-size:3.59771943px;font-variant:normal;font-weight:normal;writing-mode:lr-tb;fill:#231f20;fill-opacity:1;fill-rule:nonzero;stroke:none;font-family:Helvetica;-inkscape-font-specification:Helvetica">13.2</tspan><tspan x="2.21e-06 2.0003343 4.0006661 5.0008321" y="42.973114" id="tspan4627" style="font-size:3.59771943px;font-variant:normal;font-weight:normal;writing-mode:lr-tb;fill:#231f20;fill-opacity:1;fill-rule:nonzero;stroke:none;font-family:Helvetica;-inkscape-font-specification:Helvetica">14.1</tspan><tspan x="2.21e-06 2.0003343 4.0006661 5.0008321" y="101.93637" id="tspan4629" style="font-size:3.59771943px;font-variant:normal;font-weight:normal;writing-mode:lr-tb;fill:#231f20;fill-opacity:1;fill-rule:nonzero;stroke:none;font-family:Helvetica;-inkscape-font-specification:Helvetica">31.2</tspan><tspan x="3.0000019 5.0009809" y="111.73149" id="tspan4631" style="font-size:3.59771943px;font-variant:normal;font-weight:normal;writing-mode:lr-tb;fill:#231f20;fill-opacity:1;fill-rule:nonzero;stroke:none;font-family:Helvetica;-inkscape-font-specification:Helvetica">32</tspan><tspan x="2.21e-06 2.0003343 4.0006661 5.0008321" y="117.12628" id="tspan4633" style="font-size:3.59771943px;font-variant:normal;font-weight:normal;writing-mode:lr-tb;fill:#231f20;fill-opacity:1;fill-rule:nonzero;stroke:none;font-family:Helvetica;-inkscape-font-specification:Helvetica">33.1</tspan><tspan x="2.21e-06 2.0003343 4.0006661 5.0008321" y="121.12435" id="tspan4635" style="font-size:3.59771943px;font-variant:normal;font-weight:normal;writing-mode:lr-tb;fill:#231f20;fill-opacity:1;fill-rule:nonzero;stroke:none;font-family:Helvetica;-inkscape-font-specification:Helvetica">33.2</tspan><tspan x="2.21e-06 2.0003343 4.0006661 5.0008321" y="124.92043" id="tspan4637" style="font-size:3.59771943px;font-variant:normal;font-weight:normal;writing-mode:lr-tb;fill:#231f20;fill-opacity:1;fill-rule:nonzero;stroke:none;font-family:Helvetica;-inkscape-font-specification:Helvetica">33.3</tspan><tspan x="3.0000019 5.0009809" y="130.11797" id="tspan4639" style="font-size:3.59771943px;font-variant:normal;font-weight:normal;writing-mode:lr-tb;fill:#231f20;fill-opacity:1;fill-rule:nonzero;stroke:none;font-family:Helvetica;-inkscape-font-specification:Helvetica">34</tspan><tspan x="2.21e-06 2.0003343 4.0006661 5.0008321" y="135.91415" id="tspan4641" style="font-size:3.59771943px;font-variant:normal;font-weight:normal;writing-mode:lr-tb;fill:#231f20;fill-opacity:1;fill-rule:nonzero;stroke:none;font-family:Helvetica;-inkscape-font-specification:Helvetica">35.1</tspan><tspan x="2.21e-06 2.0003343 4.0006661 5.0008321" y="140.51047" id="tspan4643" style="font-size:3.59771943px;font-variant:normal;font-weight:normal;writing-mode:lr-tb;fill:#231f20;fill-opacity:1;fill-rule:nonzero;stroke:none;font-family:Helvetica;-inkscape-font-specification:Helvetica">35.2</tspan><tspan x="2.21e-06 2.0003343 4.0006661 5.0008321" y="145.90739" id="tspan4645" style="font-size:3.59771943px;font-variant:normal;font-weight:normal;writing-mode:lr-tb;fill:#231f20;fill-opacity:1;fill-rule:nonzero;stroke:none;font-family:Helvetica;-inkscape-font-specification:Helvetica">35.3</tspan><tspan x="-2.0011663 -0.00083424 1.9994978 2.9996638 5.0007863" y="-31.67753" id="tspan4647" style="font-size:3.59771943px;font-variant:normal;font-weight:normal;writing-mode:lr-tb;fill:#231f20;fill-opacity:1;fill-rule:nonzero;stroke:none;font-family:Helvetica;-inkscape-font-specification:Helvetica">15.32</tspan><tspan x="2.21e-06 2.0003343 4.0006661 5.0008321" y="-18.088478" id="tspan4649" style="font-size:3.59771943px;font-variant:normal;font-weight:normal;writing-mode:lr-tb;fill:#231f20;fill-opacity:1;fill-rule:nonzero;stroke:none;font-family:Helvetica;-inkscape-font-specification:Helvetica">14.3</tspan><tspan x="2.21e-06 2.0003343 4.0006661 5.0008321" y="-12.491696" id="tspan4651" style="font-size:3.59771943px;font-variant:normal;font-weight:normal;writing-mode:lr-tb;fill:#231f20;fill-opacity:1;fill-rule:nonzero;stroke:none;font-family:Helvetica;-inkscape-font-specification:Helvetica">14.1</tspan><tspan x="-9.794138 -7.7938056 -5.7934737 -4.7933073" y="-15.888529" id="tspan4653" style="font-size:3.59771943px;font-variant:normal;font-weight:normal;writing-mode:lr-tb;fill:#231f20;fill-opacity:1;fill-rule:nonzero;stroke:none;font-family:Helvetica;-inkscape-font-specification:Helvetica">14.2</tspan></text>
</g>
          <path d="m 202.871,1601.45 110.938,0" id="path4655" style="fill:none;stroke:#231f20;stroke-width:1.82598996;stroke-linecap:butt;stroke-linejoin:miter;stroke-miterlimit:4;stroke-opacity:1;stroke-dasharray:none"/>
          <g transform="scale(10,10)" id="g4657"><text transform="matrix(1,0,0,-0.90698012,22.5797,151.896)" id="text4659"><tspan x="0 2.0003321 4.0006642 5.0008302" y="0" id="tspan4661" style="font-size:3.59771943px;font-variant:normal;font-weight:normal;writing-mode:lr-tb;fill:#231f20;fill-opacity:1;fill-rule:nonzero;stroke:none;font-family:Helvetica;-inkscape-font-specification:Helvetica">13.3</tspan><tspan x="0 2.0003321 4.0006642 5.0008302" y="4.3973179" id="tspan4663" style="font-size:3.59771943px;font-variant:normal;font-weight:normal;writing-mode:lr-tb;fill:#231f20;fill-opacity:1;fill-rule:nonzero;stroke:none;font-family:Helvetica;-inkscape-font-specification:Helvetica">13.2</tspan><tspan x="2.9999995 5.0009785" y="11.291758" id="tspan4665" style="font-size:3.59771943px;font-variant:normal;font-weight:normal;writing-mode:lr-tb;fill:#231f20;fill-opacity:1;fill-rule:nonzero;stroke:none;font-family:Helvetica;-inkscape-font-specification:Helvetica">12</tspan><tspan x="0.26484594 2.0001955 4.0011773 5.0006905" y="24.08399" id="tspan4667" style="font-size:3.59771943px;font-variant:normal;font-weight:normal;writing-mode:lr-tb;fill:#231f20;fill-opacity:1;fill-rule:nonzero;stroke:none;font-family:Helvetica;-inkscape-font-specification:Helvetica">11.2</tspan><tspan x="2.21e-06 2.0003343 4.0006661 5.0008321" y="29.583008" id="tspan4669" style="font-size:3.59771943px;font-variant:normal;font-weight:normal;writing-mode:lr-tb;fill:#231f20;fill-opacity:1;fill-rule:nonzero;stroke:none;font-family:Helvetica;-inkscape-font-specification:Helvetica">12.1</tspan><tspan x="-9.794138 -7.7938056 -5.7934737 -4.7933073" y="32.380325" id="tspan4671" style="font-size:3.59771943px;font-variant:normal;font-weight:normal;writing-mode:lr-tb;fill:#231f20;fill-opacity:1;fill-rule:nonzero;stroke:none;font-family:Helvetica;-inkscape-font-specification:Helvetica">12.2</tspan></text>
</g>
          <path d="m 202.871,1235.26 110.938,0" id="path4673" style="fill:none;stroke:#231f20;stroke-width:1.82598996;stroke-linecap:butt;stroke-linejoin:miter;stroke-miterlimit:4;stroke-opacity:1;stroke-dasharray:none"/>
          <g transform="scale(10,10)" id="g4675"><text transform="matrix(1,0,0,-0.90698012,22.5797,116.365)" id="text4677"><tspan x="0 2.0003321 4.0006642 5.0008302" y="0" id="tspan4679" style="font-size:3.59771943px;font-variant:normal;font-weight:normal;writing-mode:lr-tb;fill:#231f20;fill-opacity:1;fill-rule:nonzero;stroke:none;font-family:Helvetica;-inkscape-font-specification:Helvetica">13.1</tspan><tspan x="0 2.0003321 4.0006642 5.0008302" y="22.084827" id="tspan4681" style="font-size:3.59771943px;font-variant:normal;font-weight:normal;writing-mode:lr-tb;fill:#231f20;fill-opacity:1;fill-rule:nonzero;stroke:none;font-family:Helvetica;-inkscape-font-specification:Helvetica">14.3</tspan><tspan x="2.9999995 5.0009785" y="29.081343" id="tspan4683" style="font-size:3.59771943px;font-variant:normal;font-weight:normal;writing-mode:lr-tb;fill:#231f20;fill-opacity:1;fill-rule:nonzero;stroke:none;font-family:Helvetica;-inkscape-font-specification:Helvetica">15</tspan><tspan x="0 2.0003321 4.0006642 5.0008302" y="39.275711" id="tspan4685" style="font-size:3.59771943px;font-variant:normal;font-weight:normal;writing-mode:lr-tb;fill:#231f20;fill-opacity:1;fill-rule:nonzero;stroke:none;font-family:Helvetica;-inkscape-font-specification:Helvetica">21.3</tspan><tspan x="-9.7941399 -7.7938075 -5.7934756 -4.7933097" y="35.778522" id="tspan4687" style="font-size:3.59771943px;font-variant:normal;font-weight:normal;writing-mode:lr-tb;fill:#231f20;fill-opacity:1;fill-rule:nonzero;stroke:none;font-family:Helvetica;-inkscape-font-specification:Helvetica">21.2</tspan></text>
</g>
          <path d="m 202.871,849.141 110.938,0" id="path4689" style="fill:none;stroke:#231f20;stroke-width:1.82598996;stroke-linecap:butt;stroke-linejoin:miter;stroke-miterlimit:4;stroke-opacity:1;stroke-dasharray:none"/>
          <g transform="scale(10,10)" id="g4691"><text transform="matrix(1,0,0,-0.90698012,22.5797,77.1191)" id="text4693"><tspan x="0 2.0003321 4.0006642 5.0008302" y="0" id="tspan4695" style="font-size:3.59771943px;font-variant:normal;font-weight:normal;writing-mode:lr-tb;fill:#231f20;fill-opacity:1;fill-rule:nonzero;stroke:none;font-family:Helvetica;-inkscape-font-specification:Helvetica">22.1</tspan><tspan x="-9.7941399 -7.7938075 -5.7934756 -4.7933097" y="2.0996051" id="tspan4697" style="font-size:3.59771943px;font-variant:normal;font-weight:normal;writing-mode:lr-tb;fill:#231f20;fill-opacity:1;fill-rule:nonzero;stroke:none;font-family:Helvetica;-inkscape-font-specification:Helvetica">22.2</tspan></text>
</g>
          <path d="m 202.871,762.109 110.938,0" id="path4699" style="fill:none;stroke:#231f20;stroke-width:1.82598996;stroke-linecap:butt;stroke-linejoin:miter;stroke-miterlimit:4;stroke-opacity:1;stroke-dasharray:none"/>
          <g transform="scale(10,10)" id="g4701"><text transform="matrix(1,0,0,-0.90698012,22.5797,72.7648)" id="text4703"><tspan x="0 2.0003321 4.0006642 5.0008302" y="0" id="tspan4705" style="font-size:3.59771943px;font-variant:normal;font-weight:normal;writing-mode:lr-tb;fill:#231f20;fill-opacity:1;fill-rule:nonzero;stroke:none;font-family:Helvetica;-inkscape-font-specification:Helvetica">22.3</tspan><tspan x="0 2.0003321 4.0006642 5.0008302" y="3.398123" id="tspan4707" style="font-size:3.59771943px;font-variant:normal;font-weight:normal;writing-mode:lr-tb;fill:#231f20;fill-opacity:1;fill-rule:nonzero;stroke:none;font-family:Helvetica;-inkscape-font-specification:Helvetica">23.1</tspan><tspan x="0 2.0003321 4.0006642 5.0008302" y="7.99227" id="tspan4709" style="font-size:3.59771943px;font-variant:normal;font-weight:normal;writing-mode:lr-tb;fill:#231f20;fill-opacity:1;fill-rule:nonzero;stroke:none;font-family:Helvetica;-inkscape-font-specification:Helvetica">23.2</tspan><tspan x="0 2.0003321 4.0006642 5.0008302" y="12.791857" id="tspan4711" style="font-size:3.59771943px;font-variant:normal;font-weight:normal;writing-mode:lr-tb;fill:#231f20;fill-opacity:1;fill-rule:nonzero;stroke:none;font-family:Helvetica;-inkscape-font-specification:Helvetica">23.3</tspan><tspan x="0 2.0003321 4.0006642 5.0008302" y="17.984661" id="tspan4713" style="font-size:3.59771943px;font-variant:normal;font-weight:normal;writing-mode:lr-tb;fill:#231f20;fill-opacity:1;fill-rule:nonzero;stroke:none;font-family:Helvetica;-inkscape-font-specification:Helvetica">31.1</tspan><tspan x="0 2.0003321 4.0006642 5.0008302" y="27.180265" id="tspan4715" style="font-size:3.59771943px;font-variant:normal;font-weight:normal;writing-mode:lr-tb;fill:#231f20;fill-opacity:1;fill-rule:nonzero;stroke:none;font-family:Helvetica;-inkscape-font-specification:Helvetica">31.3</tspan></text>
</g>
        </g>
      </g>
    </g>
  </g>
</svg>
