<?xml version="1.0" encoding="UTF-8"?>
<svg xmlns:xlink="http://www.w3.org/1999/xlink" xmlns="http://www.w3.org/2000/svg" contentScriptType="text/ecmascript" zoomAndPan="magnify" contentStyleType="text/css" preserveAspectRatio="xMidYMid meet" version="1.0">
<g>
<path style="fill:#211c1d;fill-opacity:1;fill-rule:nonzero;stroke:none" d="m 38.796375,24.86250000000001 11.3818375,0.0 0.0,-5.212400000000001 -11.3818375,-0.0 0.0,5.212400000000001 z " id="path4519"/>
<path style="fill:#211c1d;fill-opacity:1;fill-rule:nonzero;stroke:none" d="m 38.796375,108.70475000000002 11.3818375,0.0 0.0,-10.19775 -11.3818375,-0.0 0.0,10.19775 z " id="path4521"/>
<path style="fill:#211c1d;fill-opacity:1;fill-rule:nonzero;stroke:none" d="m 38.796375,30.980000000000018 11.3818375,0.0 0.0,-5.212400000000001 -11.3818375,-0.0 0.0,5.212400000000001 z " id="path4523"/>
<path style="fill:#a4bdc8;fill-opacity:1;fill-rule:nonzero;stroke:none" d="m 50.16937500000001,57.26374999999999 0.0,-1.6975000000000002 c 0.0,-0.9650000000000001 -1.1801250000000003,-2.54875 -2.92325,-3.4562500000000003 1.743125,-0.9062500000000001 2.92325,-2.49125 2.92325,-3.455 l -11.36325,-0.0 c 0.0,0.9662500000000002 1.1875,2.55 2.9395,3.455 -1.7520000000000002,0.9050000000000001 -2.9395,2.48875 -2.9395,3.4562500000000003 l 0.0,1.6975000000000002 11.36325,0.0 " id="path4525"/>
<path style="fill:none;stroke:#100f0d;stroke-width:0.8;stroke-linecap:butt;stroke-linejoin:miter;stroke-miterlimit:4;stroke-opacity:1;stroke-dasharray:none" d="m 50.16937500000001,57.26374999999999 0.0,-1.6975000000000002 c 0.0,-0.9650000000000001 -1.1801250000000003,-2.54875 -2.92325,-3.4562500000000003 1.743125,-0.9062500000000001 2.92325,-2.49125 2.92325,-3.455 l -11.36325,-0.0 c 0.0,0.9662500000000002 1.1875,2.55 2.9395,3.455 -1.7520000000000002,0.9050000000000001 -2.9395,2.48875 -2.9395,3.4562500000000003 l 0.0,1.6975000000000002 11.36325,0.0 z " id="path4527"/>
<path style="fill:#211c1d;fill-opacity:1;fill-rule:nonzero;stroke:none" d="m 38.796375,118.4485 11.3818375,0.0 0.0,-4.3081 -11.3818375,-0.0 0.0,4.3081 z " id="path4529"/>
<path style="fill:#211c1d;fill-opacity:1;fill-rule:nonzero;stroke:none" d="m 38.796375,126.60612499999999 11.3818375,0.0 0.0,-6.3461875 -11.3818375,-0.0 0.0,6.3461875 z " id="path4531"/>
<path style="fill:#bbbcbd;fill-opacity:1;fill-rule:nonzero;stroke:none" d="m 38.796375,16.476249999999993 11.3818375,0.0 0.0,-4.9848625 -11.3818375,-0.0 0.0,4.9848625 z " id="path4533"/>
<path style="fill:none;stroke:#211c1d;stroke-width:0.1;stroke-linecap:butt;stroke-linejoin:miter;stroke-miterlimit:4;stroke-opacity:1;stroke-dasharray:none" d="m 38.796375,16.476249999999993 11.3818375,0.0 0.0,-4.9848625 -11.3818375,-0.0 0.0,4.9848625 z " id="path4535"/>
<path style="fill:#bbbcbd;fill-opacity:1;fill-rule:nonzero;stroke:none" d="m 38.796375,95.33500000000001 11.3818375,0.0 0.0,-6.798825000000001 -11.3818375,-0.0 0.0,6.798825000000001 z " id="path4537"/>
<path style="fill:none;stroke:#211c1d;stroke-width:0.1;stroke-linecap:butt;stroke-linejoin:miter;stroke-miterlimit:4;stroke-opacity:1;stroke-dasharray:none" d="m 38.796375,95.33500000000001 11.3818375,0.0 0.0,-6.798825000000001 -11.3818375,-0.0 0.0,6.798825000000001 z " id="path4539"/>
<path style="fill:#bbbcbd;fill-opacity:1;fill-rule:nonzero;stroke:none" d="m 38.796375,48.655 11.3818375,0.0 0.0,-3.3979500000000002 -11.3818375,-0.0 0.0,3.3979500000000002 z " id="path4541"/>
<path style="fill:none;stroke:#211c1d;stroke-width:0.1;stroke-linecap:butt;stroke-linejoin:miter;stroke-miterlimit:4;stroke-opacity:1;stroke-dasharray:none" d="m 38.796375,48.655 11.3818375,0.0 0.0,-3.3979500000000002 -11.3818375,-0.0 0.0,3.3979500000000002 z " id="path4543"/>
<path style="fill:#bbbcbd;fill-opacity:1;fill-rule:nonzero;stroke:none" d="m 38.796375,84.23125000000002 11.3818375,0.0 0.0,-3.8505875 -11.3818375,-0.0 0.0,3.8505875 z " id="path4545"/>
<path style="fill:none;stroke:#211c1d;stroke-width:0.1;stroke-linecap:butt;stroke-linejoin:miter;stroke-miterlimit:4;stroke-opacity:1;stroke-dasharray:none" d="m 38.796375,84.23125000000002 11.3818375,0.0 0.0,-3.8505875 -11.3818375,-0.0 0.0,3.8505875 z " id="path4547"/>
<path style="fill:#bbbcbd;fill-opacity:1;fill-rule:nonzero;stroke:none" d="m 38.796375,131.364 11.3818375,0.0 0.0,-2.492675 -11.3818375,-0.0 0.0,2.492675 z " id="path4549"/>
<path style="fill:none;stroke:#211c1d;stroke-width:0.1;stroke-linecap:butt;stroke-linejoin:miter;stroke-miterlimit:4;stroke-opacity:1;stroke-dasharray:none" d="m 38.796375,131.364 11.3818375,0.0 0.0,-2.492675 -11.3818375,-0.0 0.0,2.492675 z " id="path4551"/>
<path style="fill:#bbbcbd;fill-opacity:1;fill-rule:nonzero;stroke:none" d="m 38.796375,182.34887500000002 11.3818375,0.0 0.0,-3.8515625000000004 -11.3818375,-0.0 0.0,3.8515625000000004 z " id="path4553"/>
<path style="fill:none;stroke:#211c1d;stroke-width:0.1;stroke-linecap:butt;stroke-linejoin:miter;stroke-miterlimit:4;stroke-opacity:1;stroke-dasharray:none" d="m 38.796375,182.34887500000002 11.3818375,0.0 0.0,-3.8515625000000004 -11.3818375,-0.0 0.0,3.8515625000000004 z " id="path4555"/>
<path style="fill:#e9eae9;fill-opacity:1;fill-rule:nonzero;stroke:none" d="m 38.796375,8.546250000000015 11.3818375,0.0 0.0,-2.4912125 -11.3818375,-0.0 0.0,2.4912125 z " id="path4557"/>
<path style="fill:none;stroke:#211c1d;stroke-width:0.1;stroke-linecap:butt;stroke-linejoin:miter;stroke-miterlimit:4;stroke-opacity:1;stroke-dasharray:none" d="m 38.796375,8.546250000000015 11.3818375,0.0 0.0,-2.4912125 -11.3818375,-0.0 0.0,2.4912125 z " id="path4559"/>
<path style="fill:#e9eae9;fill-opacity:1;fill-rule:nonzero;stroke:none" d="m 38.796375,41.630000000000024 11.3818375,0.0 0.0,-4.7597625 -11.3818375,-0.0 0.0,4.7597625 z " id="path4561"/>
<path style="fill:none;stroke:#211c1d;stroke-width:0.1;stroke-linecap:butt;stroke-linejoin:miter;stroke-miterlimit:4;stroke-opacity:1;stroke-dasharray:none" d="m 38.796375,41.630000000000024 11.3818375,0.0 0.0,-4.7597625 -11.3818375,-0.0 0.0,4.7597625 z " id="path4563"/>
<path style="fill:#e9eae9;fill-opacity:1;fill-rule:nonzero;stroke:none" d="m 38.796375,160.82150000000001 11.3818375,0.0 0.0,-3.8525375 -11.3818375,-0.0 0.0,3.8525375 z " id="path4565"/>
<path style="fill:none;stroke:#211c1d;stroke-width:0.1;stroke-linecap:butt;stroke-linejoin:miter;stroke-miterlimit:4;stroke-opacity:1;stroke-dasharray:none" d="m 38.796375,160.82150000000001 11.3818375,0.0 0.0,-3.8525375 -11.3818375,-0.0 0.0,3.8525375 z " id="path4567"/>
<path style="fill:#e9eae9;fill-opacity:1;fill-rule:nonzero;stroke:none" d="m 38.796375,204.557375 11.3818375,0.0 0.0,-4.5336875 -11.3818375,-0.0 0.0,4.5336875 z " id="path4569"/>
<path style="fill:none;stroke:#211c1d;stroke-width:0.1;stroke-linecap:butt;stroke-linejoin:miter;stroke-miterlimit:4;stroke-opacity:1;stroke-dasharray:none" d="m 38.796375,204.557375 11.3818375,0.0 0.0,-4.5336875 -11.3818375,-0.0 0.0,4.5336875 z " id="path4571"/>
<path style="fill:#211c1d;fill-opacity:1;fill-rule:nonzero;stroke:none" d="m 38.796375,194.588625 11.3818375,0.0 0.0,-7.9336 -11.3818375,-0.0 0.0,7.9336 z " id="path4573"/>
<path style="fill:#7a7e82;fill-opacity:1;fill-rule:nonzero;stroke:none" d="m 38.796375,70.40875 11.3818375,0.0 0.0,-4.5336875 -11.3818375,-0.0 0.0,4.5336875 z " id="path4575"/>
<path style="fill:none;stroke:#211c1d;stroke-width:0.1;stroke-linecap:butt;stroke-linejoin:miter;stroke-miterlimit:4;stroke-opacity:1;stroke-dasharray:none" d="m 38.796375,70.40875 11.3818375,0.0 0.0,-4.5336875 -11.3818375,-0.0 0.0,4.5336875 z " id="path4577"/>
<path style="fill:#7a7e82;fill-opacity:1;fill-rule:nonzero;stroke:none" d="m 38.796375,76.07375000000002 11.3818375,0.0 0.0,-4.0805625 -11.3818375,-0.0 0.0,4.0805625 z " id="path4579"/>
<path style="fill:none;stroke:#211c1d;stroke-width:0.1;stroke-linecap:butt;stroke-linejoin:miter;stroke-miterlimit:4;stroke-opacity:1;stroke-dasharray:none" d="m 38.796375,76.07375000000002 11.3818375,0.0 0.0,-4.0805625 -11.3818375,-0.0 0.0,4.0805625 z " id="path4581"/>
<path style="fill:#7a7e82;fill-opacity:1;fill-rule:nonzero;stroke:none" d="m 38.796375,139.75025 11.3818375,0.0 0.0,-5.440425000000001 -11.3818375,-0.0 0.0,5.440425000000001 z " id="path4583"/>
<path style="fill:none;stroke:#211c1d;stroke-width:0.1;stroke-linecap:butt;stroke-linejoin:miter;stroke-miterlimit:4;stroke-opacity:1;stroke-dasharray:none" d="m 38.796375,139.75025 11.3818375,0.0 0.0,-5.440425000000001 -11.3818375,-0.0 0.0,5.440425000000001 z " id="path4585"/>
<path style="fill:#7a7e82;fill-opacity:1;fill-rule:nonzero;stroke:none" d="m 38.796375,150.1725 11.3818375,0.0 0.0,-5.439937500000001 -11.3818375,-0.0 0.0,5.439937500000001 z " id="path4587"/>
<path style="fill:none;stroke:#211c1d;stroke-width:0.1;stroke-linecap:butt;stroke-linejoin:miter;stroke-miterlimit:4;stroke-opacity:1;stroke-dasharray:none" d="m 38.796375,150.1725 11.3818375,0.0 0.0,-5.439937500000001 -11.3818375,-0.0 0.0,5.439937500000001 z " id="path4589"/>
<path style="fill:#7a7e82;fill-opacity:1;fill-rule:nonzero;stroke:none" d="m 38.796375,173.284875 11.3818375,0.0 0.0,-6.344725000000001 -11.3818375,-0.0 0.0,6.344725000000001 z " id="path4591"/>
<path style="fill:none;stroke:#211c1d;stroke-width:0.1;stroke-linecap:butt;stroke-linejoin:miter;stroke-miterlimit:4;stroke-opacity:1;stroke-dasharray:none" d="m 38.796375,173.284875 11.3818375,0.0 0.0,-6.344725000000001 -11.3818375,-0.0 0.0,6.344725000000001 z " id="path4593"/>
<path style="fill:none;stroke:#211c1d;stroke-width:0.8;stroke-linecap:butt;stroke-linejoin:miter;stroke-miterlimit:4;stroke-opacity:1;stroke-dasharray:none" d="m 41.745625,52.110000000000014 c -1.7505000000000002,0.9050000000000001 -2.9395,2.48875 -2.9395,3.4562500000000003 l 0.0,154.655125 c 0.0,1.4175000000000002 2.544,2.5625000000000004 5.681125,2.5625000000000004 3.1372500000000003,0.0 5.682125,-1.145 5.682125,-2.5625000000000004 l 0.0,-154.655125 c 0.0,-0.9650000000000001 -1.1801250000000003,-2.54875 -2.92325,-3.4562500000000003 1.743125,-0.9062500000000001 2.92325,-2.49125 2.92325,-3.455 l 0.0,-45.77375 c 0.0,-1.415 -2.544875,-2.56375 -5.682125,-2.56375 -3.1371250000000006,-0.0 -5.681125,1.1487500000000002 -5.681125,2.56375 l 0.0,45.77375 c 0.0,0.9662500000000002 1.189,2.55 2.9395,3.455 z " id="path4595"/>
<path style="fill:none;stroke:#231f20;stroke-width:0.8;stroke-linecap:butt;stroke-linejoin:miter;stroke-miterlimit:4;stroke-opacity:1;stroke-dasharray:none;display:none" d="M 41.347625,52.14625000000001 0.0,52.14625000000001 " id="path4597"/>
<text>
<tspan x="41.2915" y="221.43867500000002" id="tspan4517" style="font-size:7.19543791px;font-variant:normal;font-weight:normal;writing-mode:lr-tb;fill:#211c1d;fill-opacity:1;fill-rule:nonzero;stroke:none;font-family:Helvetica;-inkscape-font-specification:Helvetica">5</tspan>
</text>
</g>
</svg>
