<?xml version="1.0" encoding="UTF-8"?>
<svg xmlns:xlink="http://www.w3.org/1999/xlink" xmlns="http://www.w3.org/2000/svg" contentScriptType="text/ecmascript" zoomAndPan="magnify" contentStyleType="text/css" preserveAspectRatio="xMidYMid meet" version="1.0">
<g id="chromosome5"> 
<path style="fill:#a4bdc8;fill-opacity:1;fill-rule:nonzero;stroke:none" d="m 50.16937500000001,175.05249999999998 0.0,-1.6975000000000002 c 0.0,-0.9650000000000001 -1.1801250000000003,-2.54875 -2.92325,-3.4562500000000003 1.743125,-0.9062500000000001 2.92325,-2.49125 2.92325,-3.455 l -11.36325,-0.0 c 0.0,0.9662500000000002 1.1875,2.55 2.9395,3.455 -1.7520000000000002,0.9050000000000001 -2.9395,2.48875 -2.9395,3.4562500000000003 l 0.0,1.6975000000000002 11.36325,0.0 " id="centromere5-f"/>
<path style="fill:none;stroke:#100f0d;stroke-width:0.8;stroke-linecap:butt;stroke-linejoin:miter;stroke-miterlimit:4;stroke-opacity:1;stroke-dasharray:none" d="m 50.16937500000001,175.05249999999998 0.0,-1.6975000000000002 c 0.0,-0.9650000000000001 -1.1801250000000003,-2.54875 -2.92325,-3.4562500000000003 1.743125,-0.9062500000000001 2.92325,-2.49125 2.92325,-3.455 l -11.36325,-0.0 c 0.0,0.9662500000000002 1.1875,2.55 2.9395,3.455 -1.7520000000000002,0.9050000000000001 -2.9395,2.48875 -2.9395,3.4562500000000003 l 0.0,1.6975000000000002 11.36325,0.0 z " id="centromere5-o"/>
<path style="fill:#211c1d;fill-opacity:1;fill-rule:nonzero;stroke:none" d="m 38.796375,142.65125 11.3818375,0.0 0.0,-5.212400000000001 -11.3818375,-0.0 0.0,5.212400000000001 z " id="5p14.3"/>
<path style="fill:#211c1d;fill-opacity:1;fill-rule:nonzero;stroke:none" d="m 38.796375,226.4935 11.3818375,0.0 0.0,-10.19775 -11.3818375,-0.0 0.0,10.19775 z " id="5q14.3"/>
<path style="fill:#211c1d;fill-opacity:1;fill-rule:nonzero;stroke:none" d="m 38.796375,148.76875 11.3818375,0.0 0.0,-5.212400000000001 -11.3818375,-0.0 0.0,5.212400000000001 z " id="5p14.1"/>
<path style="fill:#211c1d;fill-opacity:1;fill-rule:nonzero;stroke:none" d="m 38.796375,236.23725 11.3818375,0.0 0.0,-4.3081 -11.3818375,-0.0 0.0,4.3081 z " id="5q21.1"/>
<path style="fill:#211c1d;fill-opacity:1;fill-rule:nonzero;stroke:none" d="m 38.796375,244.39487499999998 11.3818375,0.0 0.0,-6.3461875 -11.3818375,-0.0 0.0,6.3461875 z " id="5q21.3"/>
<path style="fill:#bbbcbd;fill-opacity:1;fill-rule:nonzero;stroke:none" d="m 38.796375,134.265 11.3818375,0.0 0.0,-4.9848625 -11.3818375,-0.0 0.0,4.9848625 z " id="5p15.2"/>
<path style="fill:none;stroke:#211c1d;stroke-width:0.1;stroke-linecap:butt;stroke-linejoin:miter;stroke-miterlimit:4;stroke-opacity:1;stroke-dasharray:none" d="m 38.796375,134.265 11.3818375,0.0 0.0,-4.9848625 -11.3818375,-0.0 0.0,4.9848625 z " id="5p15.2-o"/>
<path style="fill:#bbbcbd;fill-opacity:1;fill-rule:nonzero;stroke:none" d="m 38.796375,213.12375 11.3818375,0.0 0.0,-6.798825000000001 -11.3818375,-0.0 0.0,6.798825000000001 z " id="5q14.1"/>
<path style="fill:none;stroke:#211c1d;stroke-width:0.1;stroke-linecap:butt;stroke-linejoin:miter;stroke-miterlimit:4;stroke-opacity:1;stroke-dasharray:none" d="m 38.796375,213.12375 11.3818375,0.0 0.0,-6.798825000000001 -11.3818375,-0.0 0.0,6.798825000000001 z " id="5q14.1-o"/>
<path style="fill:#bbbcbd;fill-opacity:1;fill-rule:nonzero;stroke:none" d="m 38.796375,166.44375 11.3818375,0.0 0.0,-3.3979500000000002 -11.3818375,-0.0 0.0,3.3979500000000002 z " id="5p12"/>
<path style="fill:none;stroke:#211c1d;stroke-width:0.1;stroke-linecap:butt;stroke-linejoin:miter;stroke-miterlimit:4;stroke-opacity:1;stroke-dasharray:none" d="m 38.796375,166.44375 11.3818375,0.0 0.0,-3.3979500000000002 -11.3818375,-0.0 0.0,3.3979500000000002 z " id="5p12-o"/>
<path style="fill:#bbbcbd;fill-opacity:1;fill-rule:nonzero;stroke:none" d="m 38.796375,202.02 11.3818375,0.0 0.0,-3.8505875 -11.3818375,-0.0 0.0,3.8505875 z " id="5q13.2"/>
<path style="fill:none;stroke:#211c1d;stroke-width:0.1;stroke-linecap:butt;stroke-linejoin:miter;stroke-miterlimit:4;stroke-opacity:1;stroke-dasharray:none" d="m 38.796375,202.02 11.3818375,0.0 0.0,-3.8505875 -11.3818375,-0.0 0.0,3.8505875 z " id="5q13.2-o"/>
<path style="fill:#bbbcbd;fill-opacity:1;fill-rule:nonzero;stroke:none" d="m 38.796375,249.15275 11.3818375,0.0 0.0,-2.492675 -11.3818375,-0.0 0.0,2.492675 z " id="5q22.2"/>
<path style="fill:none;stroke:#211c1d;stroke-width:0.1;stroke-linecap:butt;stroke-linejoin:miter;stroke-miterlimit:4;stroke-opacity:1;stroke-dasharray:none" d="m 38.796375,249.15275 11.3818375,0.0 0.0,-2.492675 -11.3818375,-0.0 0.0,2.492675 z " id="5q22.2-o"/>
<path style="fill:#bbbcbd;fill-opacity:1;fill-rule:nonzero;stroke:none" d="m 38.796375,300.137625 11.3818375,0.0 0.0,-3.8515625000000004 -11.3818375,-0.0 0.0,3.8515625000000004 z " id="5q33.2"/>
<path style="fill:none;stroke:#211c1d;stroke-width:0.1;stroke-linecap:butt;stroke-linejoin:miter;stroke-miterlimit:4;stroke-opacity:1;stroke-dasharray:none" d="m 38.796375,300.137625 11.3818375,0.0 0.0,-3.8515625000000004 -11.3818375,-0.0 0.0,3.8515625000000004 z " id="5q33.2-o"/>
<path style="fill:#e9eae9;fill-opacity:1;fill-rule:nonzero;stroke:none" d="m 38.796375,126.33500000000001 11.3818375,0.0 0.0,-2.4912125 -11.3818375,-0.0 0.0,2.4912125 z " id="5p15.32"/>
<path style="fill:none;stroke:#211c1d;stroke-width:0.1;stroke-linecap:butt;stroke-linejoin:miter;stroke-miterlimit:4;stroke-opacity:1;stroke-dasharray:none" d="m 38.796375,126.33500000000001 11.3818375,0.0 0.0,-2.4912125 -11.3818375,-0.0 0.0,2.4912125 z " id="5p15.32-o"/>
<path style="fill:#e9eae9;fill-opacity:1;fill-rule:nonzero;stroke:none" d="m 38.796375,159.41875000000002 11.3818375,0.0 0.0,-4.7597625 -11.3818375,-0.0 0.0,4.7597625 z " id="5p13.2"/>
<path style="fill:none;stroke:#211c1d;stroke-width:0.1;stroke-linecap:butt;stroke-linejoin:miter;stroke-miterlimit:4;stroke-opacity:1;stroke-dasharray:none" d="m 38.796375,159.41875000000002 11.3818375,0.0 0.0,-4.7597625 -11.3818375,-0.0 0.0,4.7597625 z " id="5p13.2-o"/>
<path style="fill:#e9eae9;fill-opacity:1;fill-rule:nonzero;stroke:none" d="m 38.796375,278.61025 11.3818375,0.0 0.0,-3.8525375 -11.3818375,-0.0 0.0,3.8525375 z " id="5q31.2"/>
<path style="fill:none;stroke:#211c1d;stroke-width:0.1;stroke-linecap:butt;stroke-linejoin:miter;stroke-miterlimit:4;stroke-opacity:1;stroke-dasharray:none" d="m 38.796375,278.61025 11.3818375,0.0 0.0,-3.8525375 -11.3818375,-0.0 0.0,3.8525375 z " id="5q31.2-o"/>
<path style="fill:#e9eae9;fill-opacity:1;fill-rule:nonzero;stroke:none" d="m 38.796375,322.34612500000003 11.3818375,0.0 0.0,-4.5336875 -11.3818375,-0.0 0.0,4.5336875 z " id="5q35.2"/>
<path style="fill:none;stroke:#211c1d;stroke-width:0.1;stroke-linecap:butt;stroke-linejoin:miter;stroke-miterlimit:4;stroke-opacity:1;stroke-dasharray:none" d="m 38.796375,322.34612500000003 11.3818375,0.0 0.0,-4.5336875 -11.3818375,-0.0 0.0,4.5336875 z " id="5q35.2-o"/>
<path style="fill:#211c1d;fill-opacity:1;fill-rule:nonzero;stroke:none" d="m 38.796375,312.37737500000003 11.3818375,0.0 0.0,-7.9336 -11.3818375,-0.0 0.0,7.9336 z " id="5q34"/>
<path style="fill:#7a7e82;fill-opacity:1;fill-rule:nonzero;stroke:none" d="m 38.796375,188.1975 11.3818375,0.0 0.0,-4.5336875 -11.3818375,-0.0 0.0,4.5336875 z " id="5q12.1"/>
<path style="fill:none;stroke:#211c1d;stroke-width:0.1;stroke-linecap:butt;stroke-linejoin:miter;stroke-miterlimit:4;stroke-opacity:1;stroke-dasharray:none" d="m 38.796375,188.1975 11.3818375,0.0 0.0,-4.5336875 -11.3818375,-0.0 0.0,4.5336875 z " id="5q12.1-o"/>
<path style="fill:#7a7e82;fill-opacity:1;fill-rule:nonzero;stroke:none" d="m 38.796375,193.8625 11.3818375,0.0 0.0,-4.0805625 -11.3818375,-0.0 0.0,4.0805625 z " id="5q12.3"/>
<path style="fill:none;stroke:#211c1d;stroke-width:0.1;stroke-linecap:butt;stroke-linejoin:miter;stroke-miterlimit:4;stroke-opacity:1;stroke-dasharray:none" d="m 38.796375,193.8625 11.3818375,0.0 0.0,-4.0805625 -11.3818375,-0.0 0.0,4.0805625 z " id="5q12.3-o"/>
<path style="fill:#7a7e82;fill-opacity:1;fill-rule:nonzero;stroke:none" d="m 38.796375,257.539 11.3818375,0.0 0.0,-5.440425000000001 -11.3818375,-0.0 0.0,5.440425000000001 z " id="5q23.1"/>
<path style="fill:none;stroke:#211c1d;stroke-width:0.1;stroke-linecap:butt;stroke-linejoin:miter;stroke-miterlimit:4;stroke-opacity:1;stroke-dasharray:none" d="m 38.796375,257.539 11.3818375,0.0 0.0,-5.440425000000001 -11.3818375,-0.0 0.0,5.440425000000001 z " id="5q23.1-o"/>
<path style="fill:#7a7e82;fill-opacity:1;fill-rule:nonzero;stroke:none" d="m 38.796375,267.96125 11.3818375,0.0 0.0,-5.439937500000001 -11.3818375,-0.0 0.0,5.439937500000001 z " id="5q23.3"/>
<path style="fill:none;stroke:#211c1d;stroke-width:0.1;stroke-linecap:butt;stroke-linejoin:miter;stroke-miterlimit:4;stroke-opacity:1;stroke-dasharray:none" d="m 38.796375,267.96125 11.3818375,0.0 0.0,-5.439937500000001 -11.3818375,-0.0 0.0,5.439937500000001 z " id="5q23.3-o"/>
<path style="fill:#7a7e82;fill-opacity:1;fill-rule:nonzero;stroke:none" d="m 38.796375,291.073625 11.3818375,0.0 0.0,-6.344725000000001 -11.3818375,-0.0 0.0,6.344725000000001 z " id="5q32"/>
<path style="fill:none;stroke:#211c1d;stroke-width:0.1;stroke-linecap:butt;stroke-linejoin:miter;stroke-miterlimit:4;stroke-opacity:1;stroke-dasharray:none" d="m 38.796375,291.073625 11.3818375,0.0 0.0,-6.344725000000001 -11.3818375,-0.0 0.0,6.344725000000001 z " id="5q32-o"/>
<path style="fill:none;stroke:#211c1d;stroke-width:0.8;stroke-linecap:butt;stroke-linejoin:miter;stroke-miterlimit:4;stroke-opacity:1;stroke-dasharray:none" d="m 41.745625,169.89875 c -1.7505000000000002,0.9050000000000001 -2.9395,2.48875 -2.9395,3.4562500000000003 l 0.0,154.655125 c 0.0,1.4175000000000002 2.544,2.5625000000000004 5.681125,2.5625000000000004 3.1372500000000003,0.0 5.682125,-1.145 5.682125,-2.5625000000000004 l 0.0,-154.655125 c 0.0,-0.9650000000000001 -1.1801250000000003,-2.54875 -2.92325,-3.4562500000000003 1.743125,-0.9062500000000001 2.92325,-2.49125 2.92325,-3.455 l 0.0,-45.77375 c 0.0,-1.415 -2.544875,-2.56375 -5.682125,-2.56375 -3.1371250000000006,-0.0 -5.681125,1.1487500000000002 -5.681125,2.56375 l 0.0,45.77375 c 0.0,0.9662500000000002 1.189,2.55 2.9395,3.455 z " id=""/>
<path style="fill:none;stroke:#231f20;stroke-width:0.8;stroke-linecap:butt;stroke-linejoin:miter;stroke-miterlimit:4;stroke-opacity:1;stroke-dasharray:none;display:none" d="M 41.347625,169.935 0.0,169.935 " id="centre5"/>
<text>
<tspan x="41.2915" y="339.22742500000004" id="label5" style="font-size:7.19543791px;font-variant:normal;font-weight:normal;writing-mode:lr-tb;fill:#211c1d;fill-opacity:1;fill-rule:nonzero;stroke:none;font-family:Helvetica;-inkscape-font-specification:Helvetica">5</tspan>
</text>
</g>
</svg>
