<?xml version="1.0" encoding="UTF-8"?>
<svg xmlns:xlink="http://www.w3.org/1999/xlink" xmlns="http://www.w3.org/2000/svg" contentScriptType="text/ecmascript" zoomAndPan="magnify" contentStyleType="text/css" preserveAspectRatio="xMidYMid meet" version="1.0">

<g id="chromosome5"> 
<path style="fill:#a4bdc8;fill-opacity:1;fill-rule:nonzero;stroke:none" id="centromere5-f" d="m 50.16937500000001,175.05249999999998 0.0,-1.6975000000000002 c 0.0,-0.9650000000000001 -1.1801250000000003,-2.54875 -2.92325,-3.4562500000000003 1.743125,-0.9062500000000001 2.92325,-2.49125 2.92325,-3.455 l -11.36325,-0.0 c 0.0,0.9662500000000002 1.1875,2.55 2.9395,3.455 -1.7520000000000002,0.9050000000000001 -2.9395,2.48875 -2.9395,3.4562500000000003 l 0.0,1.6975000000000002 11.36325,0.0 "/>
<path style="fill:none;stroke:#100f0d;stroke-width:0.8;stroke-linecap:butt;stroke-linejoin:miter;stroke-miterlimit:4;stroke-opacity:1;stroke-dasharray:none" id="centromere5-o" d="m 50.16937500000001,175.05249999999998 0.0,-1.6975000000000002 c 0.0,-0.9650000000000001 -1.1801250000000003,-2.54875 -2.92325,-3.4562500000000003 1.743125,-0.9062500000000001 2.92325,-2.49125 2.92325,-3.455 l -11.36325,-0.0 c 0.0,0.9662500000000002 1.1875,2.55 2.9395,3.455 -1.7520000000000002,0.9050000000000001 -2.9395,2.48875 -2.9395,3.4562500000000003 l 0.0,1.6975000000000002 11.36325,0.0 z "/>
<path style="fill:#211c1d;fill-opacity:1;fill-rule:nonzero;stroke:none" id="5p14.3" d="m 38.796375,142.65125 11.3818375,0.0 0.0,-5.212400000000001 -11.3818375,-0.0 0.0,5.212400000000001 z "/>
<path style="fill:#211c1d;fill-opacity:1;fill-rule:nonzero;stroke:none" id="5q14.3" d="m 38.796375,226.4935 11.3818375,0.0 0.0,-10.19775 -11.3818375,-0.0 0.0,10.19775 z "/>
<path style="fill:#211c1d;fill-opacity:1;fill-rule:nonzero;stroke:none" id="5p14.1" d="m 38.796375,148.76875 11.3818375,0.0 0.0,-5.212400000000001 -11.3818375,-0.0 0.0,5.212400000000001 z "/>
<path style="fill:#211c1d;fill-opacity:1;fill-rule:nonzero;stroke:none" id="5q21.1" d="m 38.796375,236.23725 11.3818375,0.0 0.0,-4.3081 -11.3818375,-0.0 0.0,4.3081 z "/>
<path style="fill:#211c1d;fill-opacity:1;fill-rule:nonzero;stroke:none" id="5q21.3" d="m 38.796375,244.39487499999998 11.3818375,0.0 0.0,-6.3461875 -11.3818375,-0.0 0.0,6.3461875 z "/>
<path style="fill:#bbbcbd;fill-opacity:1;fill-rule:nonzero;stroke:none" id="5p15.2" d="m 38.796375,134.265 11.3818375,0.0 0.0,-4.9848625 -11.3818375,-0.0 0.0,4.9848625 z "/>
<path style="fill:none;stroke:#211c1d;stroke-width:0.1;stroke-linecap:butt;stroke-linejoin:miter;stroke-miterlimit:4;stroke-opacity:1;stroke-dasharray:none" id="5p15.2-o" d="m 38.796375,134.265 11.3818375,0.0 0.0,-4.9848625 -11.3818375,-0.0 0.0,4.9848625 z "/>
<path style="fill:#bbbcbd;fill-opacity:1;fill-rule:nonzero;stroke:none" id="5q14.1" d="m 38.796375,213.12375 11.3818375,0.0 0.0,-6.798825000000001 -11.3818375,-0.0 0.0,6.798825000000001 z "/>
<path style="fill:none;stroke:#211c1d;stroke-width:0.1;stroke-linecap:butt;stroke-linejoin:miter;stroke-miterlimit:4;stroke-opacity:1;stroke-dasharray:none" id="5q14.1-o" d="m 38.796375,213.12375 11.3818375,0.0 0.0,-6.798825000000001 -11.3818375,-0.0 0.0,6.798825000000001 z "/>
<path style="fill:#bbbcbd;fill-opacity:1;fill-rule:nonzero;stroke:none" id="5p12" d="m 38.796375,166.44375 11.3818375,0.0 0.0,-3.3979500000000002 -11.3818375,-0.0 0.0,3.3979500000000002 z "/>
<path style="fill:none;stroke:#211c1d;stroke-width:0.1;stroke-linecap:butt;stroke-linejoin:miter;stroke-miterlimit:4;stroke-opacity:1;stroke-dasharray:none" id="5p12-o" d="m 38.796375,166.44375 11.3818375,0.0 0.0,-3.3979500000000002 -11.3818375,-0.0 0.0,3.3979500000000002 z "/>
<path style="fill:#bbbcbd;fill-opacity:1;fill-rule:nonzero;stroke:none" id="5q13.2" d="m 38.796375,202.02 11.3818375,0.0 0.0,-3.8505875 -11.3818375,-0.0 0.0,3.8505875 z "/>
<path style="fill:none;stroke:#211c1d;stroke-width:0.1;stroke-linecap:butt;stroke-linejoin:miter;stroke-miterlimit:4;stroke-opacity:1;stroke-dasharray:none" id="5q13.2-o" d="m 38.796375,202.02 11.3818375,0.0 0.0,-3.8505875 -11.3818375,-0.0 0.0,3.8505875 z "/>
<path style="fill:#bbbcbd;fill-opacity:1;fill-rule:nonzero;stroke:none" id="5q22.2" d="m 38.796375,249.15275 11.3818375,0.0 0.0,-2.492675 -11.3818375,-0.0 0.0,2.492675 z "/>
<path style="fill:none;stroke:#211c1d;stroke-width:0.1;stroke-linecap:butt;stroke-linejoin:miter;stroke-miterlimit:4;stroke-opacity:1;stroke-dasharray:none" id="5q22.2-o" d="m 38.796375,249.15275 11.3818375,0.0 0.0,-2.492675 -11.3818375,-0.0 0.0,2.492675 z "/>
<path style="fill:#bbbcbd;fill-opacity:1;fill-rule:nonzero;stroke:none" id="5q33.2" d="m 38.796375,300.137625 11.3818375,0.0 0.0,-3.8515625000000004 -11.3818375,-0.0 0.0,3.8515625000000004 z "/>
<path style="fill:none;stroke:#211c1d;stroke-width:0.1;stroke-linecap:butt;stroke-linejoin:miter;stroke-miterlimit:4;stroke-opacity:1;stroke-dasharray:none" id="5q33.2-o" d="m 38.796375,300.137625 11.3818375,0.0 0.0,-3.8515625000000004 -11.3818375,-0.0 0.0,3.8515625000000004 z "/>
<path style="fill:#e9eae9;fill-opacity:1;fill-rule:nonzero;stroke:none" id="5p15.32" d="m 38.796375,126.33500000000001 11.3818375,0.0 0.0,-2.4912125 -11.3818375,-0.0 0.0,2.4912125 z "/>
<path style="fill:none;stroke:#211c1d;stroke-width:0.1;stroke-linecap:butt;stroke-linejoin:miter;stroke-miterlimit:4;stroke-opacity:1;stroke-dasharray:none" id="5p15.32-o" d="m 38.796375,126.33500000000001 11.3818375,0.0 0.0,-2.4912125 -11.3818375,-0.0 0.0,2.4912125 z "/>
<path style="fill:#e9eae9;fill-opacity:1;fill-rule:nonzero;stroke:none" id="5p13.2" d="m 38.796375,159.41875000000002 11.3818375,0.0 0.0,-4.7597625 -11.3818375,-0.0 0.0,4.7597625 z "/>
<path style="fill:none;stroke:#211c1d;stroke-width:0.1;stroke-linecap:butt;stroke-linejoin:miter;stroke-miterlimit:4;stroke-opacity:1;stroke-dasharray:none" id="5p13.2-o" d="m 38.796375,159.41875000000002 11.3818375,0.0 0.0,-4.7597625 -11.3818375,-0.0 0.0,4.7597625 z "/>
<path style="fill:#e9eae9;fill-opacity:1;fill-rule:nonzero;stroke:none" id="5q31.2" d="m 38.796375,278.61025 11.3818375,0.0 0.0,-3.8525375 -11.3818375,-0.0 0.0,3.8525375 z "/>
<path style="fill:none;stroke:#211c1d;stroke-width:0.1;stroke-linecap:butt;stroke-linejoin:miter;stroke-miterlimit:4;stroke-opacity:1;stroke-dasharray:none" id="5q31.2-o" d="m 38.796375,278.61025 11.3818375,0.0 0.0,-3.8525375 -11.3818375,-0.0 0.0,3.8525375 z "/>
<path style="fill:#e9eae9;fill-opacity:1;fill-rule:nonzero;stroke:none" id="5q35.2" d="m 38.796375,322.34612500000003 11.3818375,0.0 0.0,-4.5336875 -11.3818375,-0.0 0.0,4.5336875 z "/>
<path style="fill:none;stroke:#211c1d;stroke-width:0.1;stroke-linecap:butt;stroke-linejoin:miter;stroke-miterlimit:4;stroke-opacity:1;stroke-dasharray:none" id="5q35.2-o" d="m 38.796375,322.34612500000003 11.3818375,0.0 0.0,-4.5336875 -11.3818375,-0.0 0.0,4.5336875 z "/>
<path style="fill:#211c1d;fill-opacity:1;fill-rule:nonzero;stroke:none" id="5q34" d="m 38.796375,312.37737500000003 11.3818375,0.0 0.0,-7.9336 -11.3818375,-0.0 0.0,7.9336 z "/>
<path style="fill:#7a7e82;fill-opacity:1;fill-rule:nonzero;stroke:none" id="5q12.1" d="m 38.796375,188.1975 11.3818375,0.0 0.0,-4.5336875 -11.3818375,-0.0 0.0,4.5336875 z "/>
<path style="fill:none;stroke:#211c1d;stroke-width:0.1;stroke-linecap:butt;stroke-linejoin:miter;stroke-miterlimit:4;stroke-opacity:1;stroke-dasharray:none" id="5q12.1-o" d="m 38.796375,188.1975 11.3818375,0.0 0.0,-4.5336875 -11.3818375,-0.0 0.0,4.5336875 z "/>
<path style="fill:#7a7e82;fill-opacity:1;fill-rule:nonzero;stroke:none" id="5q12.3" d="m 38.796375,193.8625 11.3818375,0.0 0.0,-4.0805625 -11.3818375,-0.0 0.0,4.0805625 z "/>
<path style="fill:none;stroke:#211c1d;stroke-width:0.1;stroke-linecap:butt;stroke-linejoin:miter;stroke-miterlimit:4;stroke-opacity:1;stroke-dasharray:none" id="5q12.3-o" d="m 38.796375,193.8625 11.3818375,0.0 0.0,-4.0805625 -11.3818375,-0.0 0.0,4.0805625 z "/>
<path style="fill:#7a7e82;fill-opacity:1;fill-rule:nonzero;stroke:none" id="5q23.1" d="m 38.796375,257.539 11.3818375,0.0 0.0,-5.440425000000001 -11.3818375,-0.0 0.0,5.440425000000001 z "/>
<path style="fill:none;stroke:#211c1d;stroke-width:0.1;stroke-linecap:butt;stroke-linejoin:miter;stroke-miterlimit:4;stroke-opacity:1;stroke-dasharray:none" id="5q23.1-o" d="m 38.796375,257.539 11.3818375,0.0 0.0,-5.440425000000001 -11.3818375,-0.0 0.0,5.440425000000001 z "/>
<path style="fill:#7a7e82;fill-opacity:1;fill-rule:nonzero;stroke:none" id="5q23.3" d="m 38.796375,267.96125 11.3818375,0.0 0.0,-5.439937500000001 -11.3818375,-0.0 0.0,5.439937500000001 z "/>
<path style="fill:none;stroke:#211c1d;stroke-width:0.1;stroke-linecap:butt;stroke-linejoin:miter;stroke-miterlimit:4;stroke-opacity:1;stroke-dasharray:none" id="5q23.3-o" d="m 38.796375,267.96125 11.3818375,0.0 0.0,-5.439937500000001 -11.3818375,-0.0 0.0,5.439937500000001 z "/>
<path style="fill:#7a7e82;fill-opacity:1;fill-rule:nonzero;stroke:none" id="5q32" d="m 38.796375,291.073625 11.3818375,0.0 0.0,-6.344725000000001 -11.3818375,-0.0 0.0,6.344725000000001 z "/>
<path style="fill:none;stroke:#211c1d;stroke-width:0.1;stroke-linecap:butt;stroke-linejoin:miter;stroke-miterlimit:4;stroke-opacity:1;stroke-dasharray:none" id="5q32-o" d="m 38.796375,291.073625 11.3818375,0.0 0.0,-6.344725000000001 -11.3818375,-0.0 0.0,6.344725000000001 z "/>
<path style="fill:none;stroke:#211c1d;stroke-width:0.8;stroke-linecap:butt;stroke-linejoin:miter;stroke-miterlimit:4;stroke-opacity:1;stroke-dasharray:none" id="outline5" d="m 41.745625,169.89875 c -1.7505000000000002,0.9050000000000001 -2.9395,2.48875 -2.9395,3.4562500000000003 l 0.0,154.655125 c 0.0,1.4175000000000002 2.544,2.5625000000000004 5.681125,2.5625000000000004 3.1372500000000003,0.0 5.682125,-1.145 5.682125,-2.5625000000000004 l 0.0,-154.655125 c 0.0,-0.9650000000000001 -1.1801250000000003,-2.54875 -2.92325,-3.4562500000000003 1.743125,-0.9062500000000001 2.92325,-2.49125 2.92325,-3.455 l 0.0,-45.77375 c 0.0,-1.415 -2.544875,-2.56375 -5.682125,-2.56375 -3.1371250000000006,-0.0 -5.681125,1.1487500000000002 -5.681125,2.56375 l 0.0,45.77375 c 0.0,0.9662500000000002 1.189,2.55 2.9395,3.455 z "/>
<path style="fill:none;stroke:#231f20;stroke-width:0.8;stroke-linecap:butt;stroke-linejoin:miter;stroke-miterlimit:4;stroke-opacity:1;stroke-dasharray:none;display:none" id="centre5" d="M 41.347625,169.935 0.0,169.935 "/>
<text>
<tspan x="41.2915" y="339.22742500000004" id="label5" style="font-size:7.19543791px;font-variant:normal;font-weight:normal;writing-mode:lr-tb;fill:#211c1d;fill-opacity:1;fill-rule:nonzero;stroke:none;font-family:Helvetica;-inkscape-font-specification:Helvetica">5</tspan>
</text>
<path style="fill:none;stroke:#211c1d;stroke-width:0.1;stroke-linecap:butt;stroke-linejoin:miter;stroke-miterlimit:4;stroke-opacity:1;stroke-dasharray:none;display:none" id="5q34-1" d="m 38.796375,304.443775 11.3818375,0.0 0,-4.306150000000002 -11.3818375,-0.0 0,4.306150000000002 z "/>
<path style="fill:none;stroke:#211c1d;stroke-width:0.1;stroke-linecap:butt;stroke-linejoin:miter;stroke-miterlimit:4;stroke-opacity:1;stroke-dasharray:none;display:none" id="5q12.1-1" d="m 38.796375,183.66381249999998 11.3818375,0.0 0,-8.611312499999997 -11.3818375,-0.0 0,8.611312499999997 z "/>
<path style="fill:none;stroke:#211c1d;stroke-width:0.1;stroke-linecap:butt;stroke-linejoin:miter;stroke-miterlimit:4;stroke-opacity:1;stroke-dasharray:none;display:none" id="5q14.3-1" d="m 38.796375,216.29575 11.3818375,0.0 0,-3.171999999999997 -11.3818375,-0.0 0,3.171999999999997 z "/>
<path style="fill:none;stroke:#211c1d;stroke-width:0.1;stroke-linecap:butt;stroke-linejoin:miter;stroke-miterlimit:4;stroke-opacity:1;stroke-dasharray:none;display:none" id="5q23.1-1" d="m 38.796375,252.09857499999998 11.3818375,0.0 0,-2.945824999999985 -11.3818375,-0.0 0,2.945824999999985 z "/>
<path style="fill:none;stroke:#211c1d;stroke-width:0.1;stroke-linecap:butt;stroke-linejoin:miter;stroke-miterlimit:4;stroke-opacity:1;stroke-dasharray:none;display:none" id="5p13.2-1" d="m 38.796375,163.04579999999999 11.3818375,0.0 0,-3.6270499999999686 -11.3818375,-0.0 0,3.6270499999999686 z "/>
<path style="fill:none;stroke:#211c1d;stroke-width:0.1;stroke-linecap:butt;stroke-linejoin:miter;stroke-miterlimit:4;stroke-opacity:1;stroke-dasharray:none;display:none" id="5q13.2-1" d="m 38.796375,198.16941250000002 11.3818375,0.0 0,-4.30691250000001 -11.3818375,-0.0 0,4.30691250000001 z "/>
<path style="fill:none;stroke:#211c1d;stroke-width:0.1;stroke-linecap:butt;stroke-linejoin:miter;stroke-miterlimit:4;stroke-opacity:1;stroke-dasharray:none;display:none" id="5q21.1-1" d="m 38.796375,231.92915 11.3818375,0.0 0,-5.435649999999981 -11.3818375,-0.0 0,5.435649999999981 z "/>
<path style="fill:none;stroke:#211c1d;stroke-width:0.1;stroke-linecap:butt;stroke-linejoin:miter;stroke-miterlimit:4;stroke-opacity:1;stroke-dasharray:none;display:none" id="5q14.1-1" d="m 38.796375,206.324925 11.3818375,0.0 0,-4.304924999999997 -11.3818375,-0.0 0,4.304924999999997 z "/>
<path style="fill:none;stroke:#211c1d;stroke-width:0.1;stroke-linecap:butt;stroke-linejoin:miter;stroke-miterlimit:4;stroke-opacity:1;stroke-dasharray:none;display:none" id="5q21.3-1" d="m 38.796375,238.04868749999997 11.3818375,0.0 0,-1.8114374999999825 -11.3818375,-0.0 0,1.8114374999999825 z "/>
<path style="fill:none;stroke:#211c1d;stroke-width:0.1;stroke-linecap:butt;stroke-linejoin:miter;stroke-miterlimit:4;stroke-opacity:1;stroke-dasharray:none;display:none" id="5q23.3-1" d="m 38.796375,262.5213125 11.3818375,0.0 0,-4.982312500000035 -11.3818375,-0.0 0,4.982312500000035 z "/>
<path style="fill:none;stroke:#211c1d;stroke-width:0.1;stroke-linecap:butt;stroke-linejoin:miter;stroke-miterlimit:4;stroke-opacity:1;stroke-dasharray:none;display:none" id="5p14.3-1" d="m 38.796375,143.55635 11.3818375,0.0 0,-0.9051000000000045 -11.3818375,-0.0 0,0.9051000000000045 z "/>
<path style="fill:none;stroke:#211c1d;stroke-width:0.1;stroke-linecap:butt;stroke-linejoin:miter;stroke-miterlimit:4;stroke-opacity:1;stroke-dasharray:none;display:none" id="5q31.2-1" d="m 38.796375,274.7577125 11.3818375,0.0 0,-6.796462500000018 -11.3818375,-0.0 0,6.796462500000018 z "/>
<path style="fill:none;stroke:#211c1d;stroke-width:0.1;stroke-linecap:butt;stroke-linejoin:miter;stroke-miterlimit:4;stroke-opacity:1;stroke-dasharray:none;display:none" id="5q12.3-1" d="m 38.796375,189.7819375 11.3818375,0.0 0,-1.584437500000007 -11.3818375,-0.0 0,1.584437500000007 z "/>
<path style="fill:none;stroke:#211c1d;stroke-width:0.1;stroke-linecap:butt;stroke-linejoin:miter;stroke-miterlimit:4;stroke-opacity:1;stroke-dasharray:none;display:none" id="5q22.2-1" d="m 38.796375,246.660075 11.3818375,0.0 0,-2.2652000000000214 -11.3818375,-0.0 0,2.2652000000000214 z "/>
<path style="fill:none;stroke:#211c1d;stroke-width:0.1;stroke-linecap:butt;stroke-linejoin:miter;stroke-miterlimit:4;stroke-opacity:1;stroke-dasharray:none;display:none" id="5p14.1-1" d="m 38.796375,154.65898750000002 11.3818375,0.0 0,-5.890237500000012 -11.3818375,-0.0 0,5.890237500000012 z "/>
<path style="fill:none;stroke:#211c1d;stroke-width:0.1;stroke-linecap:butt;stroke-linejoin:miter;stroke-miterlimit:4;stroke-opacity:1;stroke-dasharray:none;display:none" id="5q35.2-1" d="m 38.796375,317.81243750000004 11.3818375,0.0 0,-5.435062500000015 -11.3818375,-0.0 0,5.435062500000015 z "/>
<path style="fill:none;stroke:#211c1d;stroke-width:0.1;stroke-linecap:butt;stroke-linejoin:miter;stroke-miterlimit:4;stroke-opacity:1;stroke-dasharray:none;display:none" id="5q32-1" d="m 38.796375,284.7289 11.3818375,0.0 0,-6.118650000000002 -11.3818375,-0.0 0,6.118650000000002 z "/>
<path style="fill:none;stroke:#211c1d;stroke-width:0.1;stroke-linecap:butt;stroke-linejoin:miter;stroke-miterlimit:4;stroke-opacity:1;stroke-dasharray:none;display:none" id="bottom" d="&lt;!-- bottom end, put in manually --&gt;"/>
<path style="fill:none;stroke:#211c1d;stroke-width:0.1;stroke-linecap:butt;stroke-linejoin:miter;stroke-miterlimit:4;stroke-opacity:1;stroke-dasharray:none;display:none" id="5p15.2-1" d="m 38.796375,137.43885 11.3818375,0.0 0,-3.173850000000016 -11.3818375,-0.0 0,3.173850000000016 z "/>
<path style="fill:none;stroke:#211c1d;stroke-width:0.1;stroke-linecap:butt;stroke-linejoin:miter;stroke-miterlimit:4;stroke-opacity:1;stroke-dasharray:none;display:none" id="5q33.2-1" d="m 38.796375,296.2860625 11.3818375,0.0 0,-5.212437500000021 -11.3818375,-0.0 0,5.212437500000021 z "/>
<path style="fill:none;stroke:#211c1d;stroke-width:0.1;stroke-linecap:butt;stroke-linejoin:miter;stroke-miterlimit:4;stroke-opacity:1;stroke-dasharray:none;display:none" id="5p15.32-1" d="m 38.796375,129.2801375 11.3818375,0.0 0,-2.945137499999987 -11.3818375,-0.0 0,2.945137499999987 z "/>
<path style="fill:none;stroke:#211c1d;stroke-width:0.1;stroke-linecap:butt;stroke-linejoin:miter;stroke-miterlimit:4;stroke-opacity:1;stroke-dasharray:none;display:none" id="5p12-1" d="m 38.796375,166.44374999999997 11.3818375,0.0 0,2.8421709430404007E-14 -11.3818375,-0.0 0,-2.8421709430404007E-14 z "/>
<path style="fill:none;stroke:#211c1d;stroke-width:0.1;stroke-linecap:butt;stroke-linejoin:miter;stroke-miterlimit:4;stroke-opacity:1;stroke-dasharray:none;display:none" id="top" d="&lt;!-- top end, put in manually --&gt;"/>
</g>
</svg>
