<?xml version="1.0" encoding="UTF-8"?>
<svg xmlns:xlink="http://www.w3.org/1999/xlink" xmlns="http://www.w3.org/2000/svg" contentScriptType="text/ecmascript" zoomAndPan="magnify" contentStyleType="text/css" preserveAspectRatio="xMidYMid meet" version="1.0">
<g>
<path style="fill:#211c1d;fill-opacity:1;fill-rule:nonzero;stroke:none" d="m 38.795875,72.47375 11.384275000000002,0.0 0.0,-5.317875 -11.384275000000002,-0.0 0.0,5.317875 z " id="path4743"/>
<path style="fill:#a4bdc8;fill-opacity:1;fill-rule:nonzero;stroke:none" d="m 49.762750000000004,78.10249999999999 0.40762500000000007,1.04 c 0.0,-0.8850000000000001 -1.179125,-2.34375 -2.9262500000000005,-3.17875 1.7471250000000003,-0.83375 2.9262500000000005,-2.29 2.9262500000000005,-3.1800000000000006 l -0.158625,0.57375 -11.0205,-0.0 -0.18562500000000004,-0.57375 c 0.0,0.8912500000000001 1.189,2.3475 2.9395,3.1800000000000006 -1.7505000000000002,0.8350000000000001 -2.9395,2.29125 -2.9395,3.17875 l 0.373625,-1.04 10.5835,0.0 " id="path4745"/>
<path style="fill:none;stroke:#100f0d;stroke-width:0.8;stroke-linecap:butt;stroke-linejoin:miter;stroke-miterlimit:4;stroke-opacity:1;stroke-dasharray:none" d="m 49.762750000000004,78.10249999999999 0.40762500000000007,1.04 c 0.0,-0.8850000000000001 -1.179125,-2.34375 -2.9262500000000005,-3.17875 1.7471250000000003,-0.83375 2.9262500000000005,-2.29 2.9262500000000005,-3.1800000000000006 l -0.158625,0.57375 -11.0205,-0.0 -0.18562500000000004,-0.57375 c 0.0,0.8912500000000001 1.189,2.3475 2.9395,3.1800000000000006 -1.7505000000000002,0.8350000000000001 -2.9395,2.29125 -2.9395,3.17875 l 0.373625,-1.04 10.5835,0.0 z " id="path4747"/>
<path style="fill:#211c1d;fill-opacity:1;fill-rule:nonzero;stroke:none" d="m 38.795875,66.21875 11.384275000000002,0.0 0.0,-7.087400000000001 -11.384275000000002,-0.0 0.0,7.087400000000001 z " id="path4749"/>
<path style="fill:#e9eae9;fill-opacity:1;fill-rule:nonzero;stroke:none" d="m 38.795875,5.865000000000009 11.384275000000002,0.0 0.0,-2.0835 -11.384275000000002,-0.0 0.0,2.0835 z " id="path4751"/>
<path style="fill:none;stroke:#211c1d;stroke-width:0.1;stroke-linecap:butt;stroke-linejoin:miter;stroke-miterlimit:4;stroke-opacity:1;stroke-dasharray:none" d="m 38.795875,5.865000000000009 11.384275000000002,0.0 0.0,-2.0835 -11.384275000000002,-0.0 0.0,2.0835 z " id="path4753"/>
<path style="fill:#e9eae9;fill-opacity:1;fill-rule:nonzero;stroke:none" d="m 38.795875,17.122499999999974 11.384275000000002,0.0 0.0,-2.9165 -11.384275000000002,-0.0 0.0,2.9165 z " id="path4755"/>
<path style="fill:none;stroke:#211c1d;stroke-width:0.1;stroke-linecap:butt;stroke-linejoin:miter;stroke-miterlimit:4;stroke-opacity:1;stroke-dasharray:none" d="m 38.795875,17.122499999999974 11.384275000000002,0.0 0.0,-2.9165 -11.384275000000002,-0.0 0.0,2.9165 z " id="path4757"/>
<path style="fill:#e9eae9;fill-opacity:1;fill-rule:nonzero;stroke:none" d="m 38.795875,40.05375000000001 11.384275000000002,0.0 0.0,-2.5004875 -11.384275000000002,-0.0 0.0,2.5004875 z " id="path4759"/>
<path style="fill:none;stroke:#211c1d;stroke-width:0.1;stroke-linecap:butt;stroke-linejoin:miter;stroke-miterlimit:4;stroke-opacity:1;stroke-dasharray:none" d="m 38.795875,40.05375000000001 11.384275000000002,0.0 0.0,-2.5004875 -11.384275000000002,-0.0 0.0,2.5004875 z " id="path4761"/>
<path style="fill:#e9eae9;fill-opacity:1;fill-rule:nonzero;stroke:none" d="m 38.795875,49.64500000000001 11.384275000000002,0.0 0.0,-2.9184625000000004 -11.384275000000002,-0.0 0.0,2.9184625000000004 z " id="path4763"/>
<path style="fill:none;stroke:#211c1d;stroke-width:0.1;stroke-linecap:butt;stroke-linejoin:miter;stroke-miterlimit:4;stroke-opacity:1;stroke-dasharray:none" d="m 38.795875,49.64500000000001 11.384275000000002,0.0 0.0,-2.9184625000000004 -11.384275000000002,-0.0 0.0,2.9184625000000004 z " id="path4765"/>
<path style="fill:#211c1d;fill-opacity:1;fill-rule:nonzero;stroke:none" d="m 38.795875,88.52499999999998 11.384275000000002,0.0 0.0,-8.861325 -11.384275000000002,-0.0 0.0,8.861325 z " id="path4767"/>
<path style="fill:#211c1d;fill-opacity:1;fill-rule:nonzero;stroke:none" d="m 38.795875,119.378375 11.384275000000002,0.0 0.0,-7.6084 -11.384275000000002,-0.0 0.0,7.6084 z " id="path4769"/>
<path style="fill:#211c1d;fill-opacity:1;fill-rule:nonzero;stroke:none" d="m 38.795875,127.50974999999998 11.384275000000002,0.0 0.0,-6.3588875 -11.384275000000002,-0.0 0.0,6.3588875 z " id="path4771"/>
<path style="fill:#211c1d;fill-opacity:1;fill-rule:nonzero;stroke:none" d="m 38.795875,152.109875 11.384275000000002,0.0 0.0,-6.149900000000001 -11.384275000000002,-0.0 0.0,6.149900000000001 z " id="path4773"/>
<path style="fill:#7a7e82;fill-opacity:1;fill-rule:nonzero;stroke:none" d="m 38.795875,26.504999999999967 11.384275000000002,0.0 0.0,-7.297362500000001 -11.384275000000002,-0.0 0.0,7.297362500000001 z " id="path4775"/>
<path style="fill:none;stroke:#211c1d;stroke-width:0.1;stroke-linecap:butt;stroke-linejoin:miter;stroke-miterlimit:4;stroke-opacity:1;stroke-dasharray:none" d="m 38.795875,26.504999999999967 11.384275000000002,0.0 0.0,-7.297362500000001 -11.384275000000002,-0.0 0.0,7.297362500000001 z " id="path4777"/>
<path style="fill:#7a7e82;fill-opacity:1;fill-rule:nonzero;stroke:none" d="m 38.795875,143.66899999999998 11.384275000000002,0.0 0.0,-4.79785 -11.384275000000002,-0.0 0.0,4.79785 z " id="path4779"/>
<path style="fill:none;stroke:#211c1d;stroke-width:0.1;stroke-linecap:butt;stroke-linejoin:miter;stroke-miterlimit:4;stroke-opacity:1;stroke-dasharray:none" d="m 38.795875,143.66899999999998 11.384275000000002,0.0 0.0,-4.79785 -11.384275000000002,-0.0 0.0,4.79785 z " id="path4781"/>
<path style="fill:#7a7e82;fill-opacity:1;fill-rule:nonzero;stroke:none" d="m 38.795875,162.42725000000002 11.384275000000002,0.0 0.0,-6.4599625000000005 -11.384275000000002,-0.0 0.0,6.4599625000000005 z " id="path4783"/>
<path style="fill:none;stroke:#211c1d;stroke-width:0.1;stroke-linecap:butt;stroke-linejoin:miter;stroke-miterlimit:4;stroke-opacity:1;stroke-dasharray:none" d="m 38.795875,162.42725000000002 11.384275000000002,0.0 0.0,-6.4599625000000005 -11.384275000000002,-0.0 0.0,6.4599625000000005 z " id="path4785"/>
<path style="fill:#7a7e82;fill-opacity:1;fill-rule:nonzero;stroke:none" d="m 38.795875,181.402375 11.384275000000002,0.0 0.0,-4.1723625 -11.384275000000002,-0.0 0.0,4.1723625 z " id="path4787"/>
<path style="fill:none;stroke:#211c1d;stroke-width:0.1;stroke-linecap:butt;stroke-linejoin:miter;stroke-miterlimit:4;stroke-opacity:1;stroke-dasharray:none" d="m 38.795875,181.402375 11.384275000000002,0.0 0.0,-4.1723625 -11.384275000000002,-0.0 0.0,4.1723625 z " id="path4789"/>
<path style="fill:#7a7e82;fill-opacity:1;fill-rule:nonzero;stroke:none" d="m 38.795875,188.069875 11.384275000000002,0.0 0.0,-4.167475 -11.384275000000002,-0.0 0.0,4.167475 z " id="path4791"/>
<path style="fill:none;stroke:#211c1d;stroke-width:0.1;stroke-linecap:butt;stroke-linejoin:miter;stroke-miterlimit:4;stroke-opacity:1;stroke-dasharray:none" d="m 38.795875,188.069875 11.384275000000002,0.0 0.0,-4.167475 -11.384275000000002,-0.0 0.0,4.167475 z " id="path4793"/>
<path style="fill:#bbbcbd;fill-opacity:1;fill-rule:nonzero;stroke:none" d="m 38.795875,13.370000000000005 11.384275000000002,0.0 0.0,-4.1704125 -11.384275000000002,-0.0 0.0,4.1704125 z " id="path4795"/>
<path style="fill:none;stroke:#211c1d;stroke-width:0.1;stroke-linecap:butt;stroke-linejoin:miter;stroke-miterlimit:4;stroke-opacity:1;stroke-dasharray:none" d="m 38.795875,13.370000000000005 11.384275000000002,0.0 0.0,-4.1704125 -11.384275000000002,-0.0 0.0,4.1704125 z " id="path4797"/>
<path style="fill:#bbbcbd;fill-opacity:1;fill-rule:nonzero;stroke:none" d="m 38.795875,34.42624999999998 11.384275000000002,0.0 0.0,-4.7954125 -11.384275000000002,-0.0 0.0,4.7954125 z " id="path4799"/>
<path style="fill:none;stroke:#211c1d;stroke-width:0.1;stroke-linecap:butt;stroke-linejoin:miter;stroke-miterlimit:4;stroke-opacity:1;stroke-dasharray:none" d="m 38.795875,34.42624999999998 11.384275000000002,0.0 0.0,-4.7954125 -11.384275000000002,-0.0 0.0,4.7954125 z " id="path4801"/>
<path style="fill:#bbbcbd;fill-opacity:1;fill-rule:nonzero;stroke:none" d="m 38.795875,98.84375 11.384275000000002,0.0 0.0,-6.254400000000001 -11.384275000000002,-0.0 0.0,6.254400000000001 z " id="path4803"/>
<path style="fill:none;stroke:#211c1d;stroke-width:0.1;stroke-linecap:butt;stroke-linejoin:miter;stroke-miterlimit:4;stroke-opacity:1;stroke-dasharray:none" d="m 38.795875,98.84375 11.384275000000002,0.0 0.0,-6.254400000000001 -11.384275000000002,-0.0 0.0,6.254400000000001 z " id="path4805"/>
<path style="fill:#bbbcbd;fill-opacity:1;fill-rule:nonzero;stroke:none" d="m 38.795875,105.09812499999998 11.384275000000002,0.0 0.0,-4.7954125 -11.384275000000002,-0.0 0.0,4.7954125 z " id="path4807"/>
<path style="fill:none;stroke:#211c1d;stroke-width:0.1;stroke-linecap:butt;stroke-linejoin:miter;stroke-miterlimit:4;stroke-opacity:1;stroke-dasharray:none" d="m 38.795875,105.09812499999998 11.384275000000002,0.0 0.0,-4.7954125 -11.384275000000002,-0.0 0.0,4.7954125 z " id="path4809"/>
<path style="fill:#bbbcbd;fill-opacity:1;fill-rule:nonzero;stroke:none" d="m 38.795875,172.642625 11.384275000000002,0.0 0.0,-4.793950000000001 -11.384275000000002,-0.0 0.0,4.793950000000001 z " id="path4811"/>
<path style="fill:none;stroke:#211c1d;stroke-width:0.1;stroke-linecap:butt;stroke-linejoin:miter;stroke-miterlimit:4;stroke-opacity:1;stroke-dasharray:none" d="m 38.795875,172.642625 11.384275000000002,0.0 0.0,-4.793950000000001 -11.384275000000002,-0.0 0.0,4.793950000000001 z " id="path4813"/>
<path style="fill:#bbbcbd;fill-opacity:1;fill-rule:nonzero;stroke:none" d="m 38.795875,195.577625 11.384275000000002,0.0 0.0,-3.3378875000000003 -11.384275000000002,-0.0 0.0,3.3378875000000003 z " id="path4815"/>
<path style="fill:none;stroke:#211c1d;stroke-width:0.1;stroke-linecap:butt;stroke-linejoin:miter;stroke-miterlimit:4;stroke-opacity:1;stroke-dasharray:none" d="m 38.795875,195.577625 11.384275000000002,0.0 0.0,-3.3378875000000003 -11.384275000000002,-0.0 0.0,3.3378875000000003 z " id="path4817"/>
<path style="fill:#bbbcbd;fill-opacity:1;fill-rule:nonzero;stroke:none" d="m 38.795875,206.835 11.384275000000002,0.0 0.0,-3.3374000000000006 -11.384275000000002,-0.0 0.0,3.3374000000000006 z " id="path4819"/>
<path style="fill:none;stroke:#211c1d;stroke-width:0.1;stroke-linecap:butt;stroke-linejoin:miter;stroke-miterlimit:4;stroke-opacity:1;stroke-dasharray:none" d="m 38.795875,206.835 11.384275000000002,0.0 0.0,-3.3374000000000006 -11.384275000000002,-0.0 0.0,3.3374000000000006 z " id="path4821"/>
<path style="fill:none;stroke:#211c1d;stroke-width:0.8;stroke-linecap:butt;stroke-linejoin:miter;stroke-miterlimit:4;stroke-opacity:1;stroke-dasharray:none" d="m 41.745125,75.96375 c -1.7505000000000002,0.8350000000000001 -2.9395,2.26375 -2.9395,3.1550000000000002 l 0.0,133.761125 c 0.0,1.3012500000000002 2.5415000000000005,2.357375 5.681250000000001,2.357375 3.1381250000000005,0.0 5.682125,-1.056125 5.682125,-2.357375 l 0.0,-133.893625 c 0.0,-0.60625 -1.17775,-2.18625 -2.923375,-3.0225 1.745625,-0.83375 2.923375,-2.29 2.923375,-3.1775 l 0.0,-69.00625 c 0.0,-1.3012500000000002 -2.544,-2.3575 -5.682125,-2.3575 -3.1397500000000003,-0.0 -5.681250000000001,1.05625 -5.681250000000001,2.3575 l 0.0,69.00625 c 0.0,0.8887500000000002 1.189,2.3450000000000006 2.9395,3.1775 z " id="path4823"/>
<path style="fill:none;stroke:#231f20;stroke-width:0.8;stroke-linecap:butt;stroke-linejoin:miter;stroke-miterlimit:4;stroke-opacity:1;stroke-dasharray:none;display:none" d="M 41.349625,75.99625 0.0,75.99625 " id="path4925"/>
<text>
<tspan x="41.291000000000004" y="223.888675" id="tspan4741" style="font-size:7.19543791px;font-variant:normal;font-weight:normal;writing-mode:lr-tb;fill:#211c1d;fill-opacity:1;fill-rule:nonzero;stroke:none;font-family:Helvetica;-inkscape-font-specification:Helvetica">6</tspan>
</text>
</g>
</svg>
