<?xml version="1.0" encoding="UTF-8" standalone="no"?>
<!-- Created with Inkscape (http://www.inkscape.org/) -->
<svg xmlns:dc="http://purl.org/dc/elements/1.1/" xmlns:cc="http://creativecommons.org/ns#" xmlns:rdf="http://www.w3.org/1999/02/22-rdf-syntax-ns#" xmlns:svg="http://www.w3.org/2000/svg" xmlns="http://www.w3.org/2000/svg" version="1.1" width="50.487499" height="227.8125" id="svg4717" xml:space="preserve">
  <metadata id="metadata4723">
    <rdf:RDF>
      <cc:Work rdf:about="">
        <dc:format>image/svg+xml</dc:format>
        <dc:type rdf:resource="http://purl.org/dc/dcmitype/StillImage"/>
        <dc:title/>
      </cc:Work>
    </rdf:RDF>
  </metadata>
  <defs id="defs4721">
    <clipPath id="clipPath4733">
      <path d="M 0,1822.51 0,0 l 403.863,0 0,1822.51 -403.863,0 z" id="path4735"/>
    </clipPath>
  </defs>
  <g transform="matrix(1.25,0,0,-1.25,0,227.8125)" id="g4725">
    <g transform="scale(0.1,0.1)" id="g4727">
      <g id="g4729">
        <g clip-path="url(#clipPath4733)" id="g4731">
          <g transform="scale(10,10)" id="g4737"><text transform="matrix(1,0,0,-0.90697189,33.0328,3.13906)" id="text4739"><tspan x="0" y="0" id="tspan4741" style="font-size:7.19543791px;font-variant:normal;font-weight:normal;writing-mode:lr-tb;fill:#211c1d;fill-opacity:1;fill-rule:nonzero;stroke:none;font-family:Helvetica;-inkscape-font-specification:Helvetica">6</tspan></text>
</g>
          <path d="m 310.367,1242.71 91.0742,0 0,42.543 -91.0742,0 0,-42.543 z" id="path4743" style="fill:#211c1d;fill-opacity:1;fill-rule:nonzero;stroke:none"/>
          <path d="m 398.102,1197.68 3.261,-8.32 c 0,7.08 -9.433,18.75 -23.41,25.43 13.977,6.67 23.41,18.32 23.41,25.44 l -1.269,-4.59 -88.164,0 -1.485,4.59 c 0,-7.13 9.512,-18.78 23.516,-25.44 -14.004,-6.68 -23.516,-18.33 -23.516,-25.43 l 2.989,8.32 84.668,0" id="path4745" style="fill:#a4bdc8;fill-opacity:1;fill-rule:nonzero;stroke:none"/>
          <path d="m 398.102,1197.68 3.261,-8.32 c 0,7.08 -9.433,18.75 -23.41,25.43 13.977,6.67 23.41,18.32 23.41,25.44 l -1.269,-4.59 -88.164,0 -1.485,4.59 c 0,-7.13 9.512,-18.78 23.516,-25.44 -14.004,-6.68 -23.516,-18.33 -23.516,-25.43 l 2.989,8.32 84.668,0 z" id="path4747" style="fill:none;stroke:#100f0d;stroke-width:5;stroke-linecap:butt;stroke-linejoin:miter;stroke-miterlimit:4;stroke-opacity:1;stroke-dasharray:none"/>
          <path d="m 310.367,1292.75 91.0742,0 0,56.6992 -91.0742,0 0,-56.6992 z" id="path4749" style="fill:#211c1d;fill-opacity:1;fill-rule:nonzero;stroke:none"/>
          <path d="m 310.367,1775.58 91.0742,0 0,16.668 -91.0742,0 0,-16.668 z" id="path4751" style="fill:#e9eae9;fill-opacity:1;fill-rule:nonzero;stroke:none"/>
          <path d="m 310.367,1775.58 91.0742,0 0,16.668 -91.0742,0 0,-16.668 z" id="path4753" style="fill:none;stroke:#211c1d;stroke-width:0.62;stroke-linecap:butt;stroke-linejoin:miter;stroke-miterlimit:4;stroke-opacity:1;stroke-dasharray:none"/>
          <path d="m 310.367,1685.52 91.0742,0 0,23.332 -91.0742,0 0,-23.332 z" id="path4755" style="fill:#e9eae9;fill-opacity:1;fill-rule:nonzero;stroke:none"/>
          <path d="m 310.367,1685.52 91.0742,0 0,23.332 -91.0742,0 0,-23.332 z" id="path4757" style="fill:none;stroke:#211c1d;stroke-width:0.62;stroke-linecap:butt;stroke-linejoin:miter;stroke-miterlimit:4;stroke-opacity:1;stroke-dasharray:none"/>
          <path d="m 310.367,1502.07 91.0742,0 0,20.0039 -91.0742,0 0,-20.0039 z" id="path4759" style="fill:#e9eae9;fill-opacity:1;fill-rule:nonzero;stroke:none"/>
          <path d="m 310.367,1502.07 91.0742,0 0,20.0039 -91.0742,0 0,-20.0039 z" id="path4761" style="fill:none;stroke:#211c1d;stroke-width:0.62;stroke-linecap:butt;stroke-linejoin:miter;stroke-miterlimit:4;stroke-opacity:1;stroke-dasharray:none"/>
          <path d="m 310.367,1425.34 91.0742,0 0,23.3477 -91.0742,0 0,-23.3477 z" id="path4763" style="fill:#e9eae9;fill-opacity:1;fill-rule:nonzero;stroke:none"/>
          <path d="m 310.367,1425.34 91.0742,0 0,23.3477 -91.0742,0 0,-23.3477 z" id="path4765" style="fill:none;stroke:#211c1d;stroke-width:0.62;stroke-linecap:butt;stroke-linejoin:miter;stroke-miterlimit:4;stroke-opacity:1;stroke-dasharray:none"/>
          <path d="m 310.367,1114.3 91.0742,0 0,70.8906 -91.0742,0 0,-70.8906 z" id="path4767" style="fill:#211c1d;fill-opacity:1;fill-rule:nonzero;stroke:none"/>
          <path d="m 310.367,867.473 91.0742,0 0,60.8672 -91.0742,0 0,-60.8672 z" id="path4769" style="fill:#211c1d;fill-opacity:1;fill-rule:nonzero;stroke:none"/>
          <path d="m 310.367,802.422 91.0742,0 0,50.8711 -91.0742,0 0,-50.8711 z" id="path4771" style="fill:#211c1d;fill-opacity:1;fill-rule:nonzero;stroke:none"/>
          <path d="m 310.367,605.621 91.0742,0 0,49.1992 -91.0742,0 0,-49.1992 z" id="path4773" style="fill:#211c1d;fill-opacity:1;fill-rule:nonzero;stroke:none"/>
          <path d="m 310.367,1610.46 91.0742,0 0,58.3789 -91.0742,0 0,-58.3789 z" id="path4775" style="fill:#7a7e82;fill-opacity:1;fill-rule:nonzero;stroke:none"/>
          <path d="m 310.367,1610.46 91.0742,0 0,58.3789 -91.0742,0 0,-58.3789 z" id="path4777" style="fill:none;stroke:#211c1d;stroke-width:0.62;stroke-linecap:butt;stroke-linejoin:miter;stroke-miterlimit:4;stroke-opacity:1;stroke-dasharray:none"/>
          <path d="m 310.367,673.148 91.0742,0 0,38.3828 -91.0742,0 0,-38.3828 z" id="path4779" style="fill:#7a7e82;fill-opacity:1;fill-rule:nonzero;stroke:none"/>
          <path d="m 310.367,673.148 91.0742,0 0,38.3828 -91.0742,0 0,-38.3828 z" id="path4781" style="fill:none;stroke:#211c1d;stroke-width:0.62;stroke-linecap:butt;stroke-linejoin:miter;stroke-miterlimit:4;stroke-opacity:1;stroke-dasharray:none"/>
          <path d="m 310.367,523.082 91.0742,0 0,51.6797 -91.0742,0 0,-51.6797 z" id="path4783" style="fill:#7a7e82;fill-opacity:1;fill-rule:nonzero;stroke:none"/>
          <path d="m 310.367,523.082 91.0742,0 0,51.6797 -91.0742,0 0,-51.6797 z" id="path4785" style="fill:none;stroke:#211c1d;stroke-width:0.62;stroke-linecap:butt;stroke-linejoin:miter;stroke-miterlimit:4;stroke-opacity:1;stroke-dasharray:none"/>
          <path d="m 310.367,371.281 91.0742,0 0,33.3789 -91.0742,0 0,-33.3789 z" id="path4787" style="fill:#7a7e82;fill-opacity:1;fill-rule:nonzero;stroke:none"/>
          <path d="m 310.367,371.281 91.0742,0 0,33.3789 -91.0742,0 0,-33.3789 z" id="path4789" style="fill:none;stroke:#211c1d;stroke-width:0.62;stroke-linecap:butt;stroke-linejoin:miter;stroke-miterlimit:4;stroke-opacity:1;stroke-dasharray:none"/>
          <path d="m 310.367,317.941 91.0742,0 0,33.3398 -91.0742,0 0,-33.3398 z" id="path4791" style="fill:#7a7e82;fill-opacity:1;fill-rule:nonzero;stroke:none"/>
          <path d="m 310.367,317.941 91.0742,0 0,33.3398 -91.0742,0 0,-33.3398 z" id="path4793" style="fill:none;stroke:#211c1d;stroke-width:0.62;stroke-linecap:butt;stroke-linejoin:miter;stroke-miterlimit:4;stroke-opacity:1;stroke-dasharray:none"/>
          <path d="m 310.367,1715.54 91.0742,0 0,33.3633 -91.0742,0 0,-33.3633 z" id="path4795" style="fill:#bbbcbd;fill-opacity:1;fill-rule:nonzero;stroke:none"/>
          <path d="m 310.367,1715.54 91.0742,0 0,33.3633 -91.0742,0 0,-33.3633 z" id="path4797" style="fill:none;stroke:#211c1d;stroke-width:0.62;stroke-linecap:butt;stroke-linejoin:miter;stroke-miterlimit:4;stroke-opacity:1;stroke-dasharray:none"/>
          <path d="m 310.367,1547.09 91.0742,0 0,38.3633 -91.0742,0 0,-38.3633 z" id="path4799" style="fill:#bbbcbd;fill-opacity:1;fill-rule:nonzero;stroke:none"/>
          <path d="m 310.367,1547.09 91.0742,0 0,38.3633 -91.0742,0 0,-38.3633 z" id="path4801" style="fill:none;stroke:#211c1d;stroke-width:0.62;stroke-linecap:butt;stroke-linejoin:miter;stroke-miterlimit:4;stroke-opacity:1;stroke-dasharray:none"/>
          <path d="m 310.367,1031.75 91.0742,0 0,50.0352 -91.0742,0 0,-50.0352 z" id="path4803" style="fill:#bbbcbd;fill-opacity:1;fill-rule:nonzero;stroke:none"/>
          <path d="m 310.367,1031.75 91.0742,0 0,50.0352 -91.0742,0 0,-50.0352 z" id="path4805" style="fill:none;stroke:#211c1d;stroke-width:0.62;stroke-linecap:butt;stroke-linejoin:miter;stroke-miterlimit:4;stroke-opacity:1;stroke-dasharray:none"/>
          <path d="m 310.367,981.715 91.0742,0 0,38.3633 -91.0742,0 0,-38.3633 z" id="path4807" style="fill:#bbbcbd;fill-opacity:1;fill-rule:nonzero;stroke:none"/>
          <path d="m 310.367,981.715 91.0742,0 0,38.3633 -91.0742,0 0,-38.3633 z" id="path4809" style="fill:none;stroke:#211c1d;stroke-width:0.62;stroke-linecap:butt;stroke-linejoin:miter;stroke-miterlimit:4;stroke-opacity:1;stroke-dasharray:none"/>
          <path d="m 310.367,441.359 91.0742,0 0,38.3516 -91.0742,0 0,-38.3516 z" id="path4811" style="fill:#bbbcbd;fill-opacity:1;fill-rule:nonzero;stroke:none"/>
          <path d="m 310.367,441.359 91.0742,0 0,38.3516 -91.0742,0 0,-38.3516 z" id="path4813" style="fill:none;stroke:#211c1d;stroke-width:0.62;stroke-linecap:butt;stroke-linejoin:miter;stroke-miterlimit:4;stroke-opacity:1;stroke-dasharray:none"/>
          <path d="m 310.367,257.879 91.0742,0 0,26.7031 -91.0742,0 0,-26.7031 z" id="path4815" style="fill:#bbbcbd;fill-opacity:1;fill-rule:nonzero;stroke:none"/>
          <path d="m 310.367,257.879 91.0742,0 0,26.7031 -91.0742,0 0,-26.7031 z" id="path4817" style="fill:none;stroke:#211c1d;stroke-width:0.62;stroke-linecap:butt;stroke-linejoin:miter;stroke-miterlimit:4;stroke-opacity:1;stroke-dasharray:none"/>
          <path d="m 310.367,167.82 91.0742,0 0,26.6992 -91.0742,0 0,-26.6992 z" id="path4819" style="fill:#bbbcbd;fill-opacity:1;fill-rule:nonzero;stroke:none"/>
          <path d="m 310.367,167.82 91.0742,0 0,26.6992 -91.0742,0 0,-26.6992 z" id="path4821" style="fill:none;stroke:#211c1d;stroke-width:0.62;stroke-linecap:butt;stroke-linejoin:miter;stroke-miterlimit:4;stroke-opacity:1;stroke-dasharray:none"/>
          <path d="m 333.961,1214.79 c -14.004,-6.68 -23.516,-18.11 -23.516,-25.24 l 0,-1070.089 c 0,-10.41 20.332,-18.859 45.45,-18.859 25.105,0 45.457,8.449 45.457,18.859 l 0,1071.149 c 0,4.85 -9.422,17.49 -23.387,24.18 13.965,6.67 23.387,18.32 23.387,25.42 l 0,552.05 c 0,10.41 -20.352,18.86 -45.457,18.86 -25.118,0 -45.45,-8.45 -45.45,-18.86 l 0,-552.05 c 0,-7.11 9.512,-18.76 23.516,-25.42 z" id="path4823" style="fill:none;stroke:#211c1d;stroke-width:5;stroke-linecap:butt;stroke-linejoin:miter;stroke-miterlimit:4;stroke-opacity:1;stroke-dasharray:none"/>
          <g transform="scale(10,10)" id="g4825"><text transform="matrix(1,0,0,-0.90698012,22.5781,125.336)" id="text4827"><tspan x="0 2.0003321 4.0006642 5.0008302" y="0" id="tspan4829" style="font-size:3.59771943px;font-variant:normal;font-weight:normal;writing-mode:lr-tb;fill:#231f20;fill-opacity:1;fill-rule:nonzero;stroke:none;font-family:Helvetica;-inkscape-font-specification:Helvetica">12.1</tspan><tspan x="0.26523405 2.0005836 4.0015655 5.0010786" y="4.1970491" id="tspan4831" style="font-size:3.59771943px;font-variant:normal;font-weight:normal;writing-mode:lr-tb;fill:#231f20;fill-opacity:1;fill-rule:nonzero;stroke:none;font-family:Helvetica;-inkscape-font-specification:Helvetica">11.1</tspan><tspan x="0 2.0003321 4.0006642 5.0008302" y="22.483999" id="tspan4833" style="font-size:3.59771943px;font-variant:normal;font-weight:normal;writing-mode:lr-tb;fill:#231f20;fill-opacity:1;fill-rule:nonzero;stroke:none;font-family:Helvetica;-inkscape-font-specification:Helvetica">14.1</tspan><tspan x="0 2.0003321 4.0006642 5.0008302" y="44.770817" id="tspan4835" style="font-size:3.59771943px;font-variant:normal;font-weight:normal;writing-mode:lr-tb;fill:#231f20;fill-opacity:1;fill-rule:nonzero;stroke:none;font-family:Helvetica;-inkscape-font-specification:Helvetica">16.2</tspan><tspan x="2.9999995 5.0009785" y="55.762821" id="tspan4837" style="font-size:3.59771943px;font-variant:normal;font-weight:normal;writing-mode:lr-tb;fill:#231f20;fill-opacity:1;fill-rule:nonzero;stroke:none;font-family:Helvetica;-inkscape-font-specification:Helvetica">21</tspan><tspan x="0 2.0003321 4.0006642 5.0008302" y="40.373508" id="tspan4839" style="font-size:3.59771943px;font-variant:normal;font-weight:normal;writing-mode:lr-tb;fill:#231f20;fill-opacity:1;fill-rule:nonzero;stroke:none;font-family:Helvetica;-inkscape-font-specification:Helvetica">16.1</tspan><tspan x="2.9999995 5.0009785" y="124.52078" id="tspan4841" style="font-size:3.59771943px;font-variant:normal;font-weight:normal;writing-mode:lr-tb;fill:#231f20;fill-opacity:1;fill-rule:nonzero;stroke:none;font-family:Helvetica;-inkscape-font-specification:Helvetica">27</tspan><tspan x="0 2.0003321 4.0006642 5.0008302" y="-5.897737" id="tspan4843" style="font-size:3.59771943px;font-variant:normal;font-weight:normal;writing-mode:lr-tb;fill:#231f20;fill-opacity:1;fill-rule:nonzero;stroke:none;font-family:Helvetica;-inkscape-font-specification:Helvetica">12.3</tspan><tspan x="2.9999995 5.0009785" y="12.489656" id="tspan4845" style="font-size:3.59771943px;font-variant:normal;font-weight:normal;writing-mode:lr-tb;fill:#231f20;fill-opacity:1;fill-rule:nonzero;stroke:none;font-family:Helvetica;-inkscape-font-specification:Helvetica">12</tspan><tspan x="0 2.0003321 4.0006642 5.0008302" y="48.169491" id="tspan4847" style="font-size:3.59771943px;font-variant:normal;font-weight:normal;writing-mode:lr-tb;fill:#231f20;fill-opacity:1;fill-rule:nonzero;stroke:none;font-family:Helvetica;-inkscape-font-specification:Helvetica">16.3</tspan><tspan x="0 2.0003321 4.0006642 5.0008302" y="62.9589" id="tspan4849" style="font-size:3.59771943px;font-variant:normal;font-weight:normal;writing-mode:lr-tb;fill:#231f20;fill-opacity:1;fill-rule:nonzero;stroke:none;font-family:Helvetica;-inkscape-font-specification:Helvetica">22.1</tspan><tspan x="0 2.0003321 4.0006642 5.0008302" y="65.958206" id="tspan4851" style="font-size:3.59771943px;font-variant:normal;font-weight:normal;writing-mode:lr-tb;fill:#231f20;fill-opacity:1;fill-rule:nonzero;stroke:none;font-family:Helvetica;-inkscape-font-specification:Helvetica">22.2</tspan><tspan x="-2.0011685 -0.00083645002 1.9994955 2.9996614 5.0007839" y="69.555733" id="tspan4853" style="font-size:3.59771943px;font-variant:normal;font-weight:normal;writing-mode:lr-tb;fill:#231f20;fill-opacity:1;fill-rule:nonzero;stroke:none;font-family:Helvetica;-inkscape-font-specification:Helvetica">22.31</tspan><tspan x="0 2.0003321 4.0006642 5.0008302" y="83.94635" id="tspan4855" style="font-size:3.59771943px;font-variant:normal;font-weight:normal;writing-mode:lr-tb;fill:#231f20;fill-opacity:1;fill-rule:nonzero;stroke:none;font-family:Helvetica;-inkscape-font-specification:Helvetica">23.1</tspan><tspan x="0 2.0003321 4.0006642 5.0008302" y="-59.663193" id="tspan4857" style="font-size:3.59771943px;font-variant:normal;font-weight:normal;writing-mode:lr-tb;fill:#231f20;fill-opacity:1;fill-rule:nonzero;stroke:none;font-family:Helvetica;-inkscape-font-specification:Helvetica">25.3</tspan><tspan x="0 2.0003321 4.0006642 5.0008302" y="-54.466949" id="tspan4859" style="font-size:3.59771943px;font-variant:normal;font-weight:normal;writing-mode:lr-tb;fill:#231f20;fill-opacity:1;fill-rule:nonzero;stroke:none;font-family:Helvetica;-inkscape-font-specification:Helvetica">25.1</tspan><tspan x="-9.7937536 -7.7934217 -5.7930899 -4.7929239" y="-56.865017" id="tspan4861" style="font-size:3.59771943px;font-variant:normal;font-weight:normal;writing-mode:lr-tb;fill:#231f20;fill-opacity:1;fill-rule:nonzero;stroke:none;font-family:Helvetica;-inkscape-font-specification:Helvetica">25.2</tspan><tspan x="0 2.0003321 4.0006642 5.0008302" y="-50.868557" id="tspan4863" style="font-size:3.59771943px;font-variant:normal;font-weight:normal;writing-mode:lr-tb;fill:#231f20;fill-opacity:1;fill-rule:nonzero;stroke:none;font-family:Helvetica;-inkscape-font-specification:Helvetica">24.3</tspan><tspan x="0 2.0003321 4.0006642 5.0008302" y="-47.069897" id="tspan4865" style="font-size:3.59771943px;font-variant:normal;font-weight:normal;writing-mode:lr-tb;fill:#231f20;fill-opacity:1;fill-rule:nonzero;stroke:none;font-family:Helvetica;-inkscape-font-specification:Helvetica">24.1</tspan><tspan x="-9.7937536 -7.7934217 -5.7930899 -4.7929239" y="-49.269844" id="tspan4867" style="font-size:3.59771943px;font-variant:normal;font-weight:normal;writing-mode:lr-tb;fill:#231f20;fill-opacity:1;fill-rule:nonzero;stroke:none;font-family:Helvetica;-inkscape-font-specification:Helvetica">24.2</tspan><tspan x="-6.7937541 -4.7927752" y="-44.873386" id="tspan4869" style="font-size:3.59771943px;font-variant:normal;font-weight:normal;writing-mode:lr-tb;fill:#231f20;fill-opacity:1;fill-rule:nonzero;stroke:none;font-family:Helvetica;-inkscape-font-specification:Helvetica">23</tspan><tspan x="-0 2.0003321 4.0006642 5.0008302" y="-41.276283" id="tspan4871" style="font-size:3.59771943px;font-variant:normal;font-weight:normal;writing-mode:lr-tb;fill:#231f20;fill-opacity:1;fill-rule:nonzero;stroke:none;font-family:Helvetica;-inkscape-font-specification:Helvetica">22.3</tspan><tspan x="-0 2.0003321 4.0006642 5.0008302" y="-36.677406" id="tspan4873" style="font-size:3.59771943px;font-variant:normal;font-weight:normal;writing-mode:lr-tb;fill:#231f20;fill-opacity:1;fill-rule:nonzero;stroke:none;font-family:Helvetica;-inkscape-font-specification:Helvetica">22.2</tspan><tspan x="-0 2.0003321 4.0006642 5.0008302" y="-33.080307" id="tspan4875" style="font-size:3.59771943px;font-variant:normal;font-weight:normal;writing-mode:lr-tb;fill:#231f20;fill-opacity:1;fill-rule:nonzero;stroke:none;font-family:Helvetica;-inkscape-font-specification:Helvetica">22.1</tspan><tspan x="-2.0011685 -0.00083645002 1.9994955 2.9996614 5.0007839" y="-29.683043" id="tspan4877" style="font-size:3.59771943px;font-variant:normal;font-weight:normal;writing-mode:lr-tb;fill:#231f20;fill-opacity:1;fill-rule:nonzero;stroke:none;font-family:Helvetica;-inkscape-font-specification:Helvetica">21.33</tspan><tspan x="-11.5957 -9.5953684 -7.5950365 -6.5948706 -4.5937481" y="-26.884438" id="tspan4879" style="font-size:3.59771943px;font-variant:normal;font-weight:normal;writing-mode:lr-tb;fill:#231f20;fill-opacity:1;fill-rule:nonzero;stroke:none;font-family:Helvetica;-inkscape-font-specification:Helvetica">21.32</tspan><tspan x="-2.0011685 -0.00083645002 1.9994955 2.9996614 5.0007839" y="-23.087067" id="tspan4881" style="font-size:3.59771943px;font-variant:normal;font-weight:normal;writing-mode:lr-tb;fill:#231f20;fill-opacity:1;fill-rule:nonzero;stroke:none;font-family:Helvetica;-inkscape-font-specification:Helvetica">21.31</tspan><tspan x="-0 2.0003321 4.0006642 5.0008302" y="-18.890017" id="tspan4883" style="font-size:3.59771943px;font-variant:normal;font-weight:normal;writing-mode:lr-tb;fill:#231f20;fill-opacity:1;fill-rule:nonzero;stroke:none;font-family:Helvetica;-inkscape-font-specification:Helvetica">21.2</tspan><tspan x="-0 2.0003321 4.0006642 5.0008302" y="-13.291945" id="tspan4885" style="font-size:3.59771943px;font-variant:normal;font-weight:normal;writing-mode:lr-tb;fill:#231f20;fill-opacity:1;fill-rule:nonzero;stroke:none;font-family:Helvetica;-inkscape-font-specification:Helvetica">21.1</tspan><tspan x="-9.7937536 -7.7934217 -5.7930899 -4.7929239" y="-2.8985972" id="tspan4887" style="font-size:3.59771943px;font-variant:normal;font-weight:normal;writing-mode:lr-tb;fill:#231f20;fill-opacity:1;fill-rule:nonzero;stroke:none;font-family:Helvetica;-inkscape-font-specification:Helvetica">12.2</tspan><tspan x="-9.5289097 -7.7935605 -5.7925816 -4.7930703" y="2.6968949" id="tspan4889" style="font-size:3.59771943px;font-variant:normal;font-weight:normal;writing-mode:lr-tb;fill:#231f20;fill-opacity:1;fill-rule:nonzero;stroke:none;font-family:Helvetica;-inkscape-font-specification:Helvetica">11.2</tspan><tspan x="-9.5289097 -7.7935605 -5.7925816 -4.7930703" y="8.6920652" id="tspan4891" style="font-size:3.59771943px;font-variant:normal;font-weight:normal;writing-mode:lr-tb;fill:#231f20;fill-opacity:1;fill-rule:nonzero;stroke:none;font-family:Helvetica;-inkscape-font-specification:Helvetica">11.2</tspan><tspan x="3.0000305 5.0010095" y="18.485895" id="tspan4893" style="font-size:3.59771943px;font-variant:normal;font-weight:normal;writing-mode:lr-tb;fill:#231f20;fill-opacity:1;fill-rule:nonzero;stroke:none;font-family:Helvetica;-inkscape-font-specification:Helvetica">13</tspan><tspan x="0.26526272 2.0006123 4.0015941 5.0011072" y="6.9955668" id="tspan4895" style="font-size:3.59771943px;font-variant:normal;font-weight:normal;writing-mode:lr-tb;fill:#231f20;fill-opacity:1;fill-rule:nonzero;stroke:none;font-family:Helvetica;-inkscape-font-specification:Helvetica">11.1</tspan><tspan x="2.867e-05 2.0003607 4.0006928 5.0008588" y="29.480515" id="tspan4897" style="font-size:3.59771943px;font-variant:normal;font-weight:normal;writing-mode:lr-tb;fill:#231f20;fill-opacity:1;fill-rule:nonzero;stroke:none;font-family:Helvetica;-inkscape-font-specification:Helvetica">14.3</tspan><tspan x="2.867e-05 2.0003607 4.0006928 5.0008588" y="25.882982" id="tspan4899" style="font-size:3.59771943px;font-variant:normal;font-weight:normal;writing-mode:lr-tb;fill:#231f20;fill-opacity:1;fill-rule:nonzero;stroke:none;font-family:Helvetica;-inkscape-font-specification:Helvetica">14.2</tspan><tspan x="3.0000284 5.0010071" y="34.078102" id="tspan4901" style="font-size:3.59771943px;font-variant:normal;font-weight:normal;writing-mode:lr-tb;fill:#231f20;fill-opacity:1;fill-rule:nonzero;stroke:none;font-family:Helvetica;-inkscape-font-specification:Helvetica">15</tspan><tspan x="-2.0011399 -0.00080778002 1.9995242 2.9996903 5.0008125" y="74.151413" id="tspan4903" style="font-size:3.59771943px;font-variant:normal;font-weight:normal;writing-mode:lr-tb;fill:#231f20;fill-opacity:1;fill-rule:nonzero;stroke:none;font-family:Helvetica;-inkscape-font-specification:Helvetica">22.32</tspan><tspan x="-2.0011399 -0.00080778002 1.9995242 2.9996903 5.0008125" y="78.748146" id="tspan4905" style="font-size:3.59771943px;font-variant:normal;font-weight:normal;writing-mode:lr-tb;fill:#231f20;fill-opacity:1;fill-rule:nonzero;stroke:none;font-family:Helvetica;-inkscape-font-specification:Helvetica">22.33</tspan><tspan x="2.867e-05 2.0003607 4.0006928 5.0008588" y="92.54216" id="tspan4907" style="font-size:3.59771943px;font-variant:normal;font-weight:normal;writing-mode:lr-tb;fill:#231f20;fill-opacity:1;fill-rule:nonzero;stroke:none;font-family:Helvetica;-inkscape-font-specification:Helvetica">23.3</tspan><tspan x="2.867e-05 2.0003607 4.0006928 5.0008588" y="88.54409" id="tspan4909" style="font-size:3.59771943px;font-variant:normal;font-weight:normal;writing-mode:lr-tb;fill:#231f20;fill-opacity:1;fill-rule:nonzero;stroke:none;font-family:Helvetica;-inkscape-font-specification:Helvetica">23.2</tspan><tspan x="2.867e-05 2.0003607 4.0006928 5.0008588" y="96.53894" id="tspan4911" style="font-size:3.59771943px;font-variant:normal;font-weight:normal;writing-mode:lr-tb;fill:#231f20;fill-opacity:1;fill-rule:nonzero;stroke:none;font-family:Helvetica;-inkscape-font-specification:Helvetica">24.1</tspan><tspan x="2.867e-05 2.0003607 4.0006928 5.0008588" y="102.33384" id="tspan4913" style="font-size:3.59771943px;font-variant:normal;font-weight:normal;writing-mode:lr-tb;fill:#231f20;fill-opacity:1;fill-rule:nonzero;stroke:none;font-family:Helvetica;-inkscape-font-specification:Helvetica">24.3</tspan><tspan x="-9.9929361 -7.9926038 -5.9922719 -4.9921055" y="99.336258" id="tspan4915" style="font-size:3.59771943px;font-variant:normal;font-weight:normal;writing-mode:lr-tb;fill:#231f20;fill-opacity:1;fill-rule:nonzero;stroke:none;font-family:Helvetica;-inkscape-font-specification:Helvetica">24.2</tspan><tspan x="2.867e-05 2.0003607 4.0006928 5.0008588" y="105.93137" id="tspan4917" style="font-size:3.59771943px;font-variant:normal;font-weight:normal;writing-mode:lr-tb;fill:#231f20;fill-opacity:1;fill-rule:nonzero;stroke:none;font-family:Helvetica;-inkscape-font-specification:Helvetica">25.1</tspan><tspan x="2.867e-05 2.0003607 4.0006928 5.0008588" y="109.5302" id="tspan4919" style="font-size:3.59771943px;font-variant:normal;font-weight:normal;writing-mode:lr-tb;fill:#231f20;fill-opacity:1;fill-rule:nonzero;stroke:none;font-family:Helvetica;-inkscape-font-specification:Helvetica">25.2</tspan><tspan x="2.867e-05 2.0003607 4.0006928 5.0008588" y="114.52617" id="tspan4921" style="font-size:3.59771943px;font-variant:normal;font-weight:normal;writing-mode:lr-tb;fill:#231f20;fill-opacity:1;fill-rule:nonzero;stroke:none;font-family:Helvetica;-inkscape-font-specification:Helvetica">25.3</tspan><tspan x="3.0000284 5.0010071" y="119.52387" id="tspan4923" style="font-size:3.59771943px;font-variant:normal;font-weight:normal;writing-mode:lr-tb;fill:#231f20;fill-opacity:1;fill-rule:nonzero;stroke:none;font-family:Helvetica;-inkscape-font-specification:Helvetica">26</tspan></text>
</g>
          <path d="M 330.797,1214.53 0,1214.53" id="path4925" style="fill:none;stroke:#231f20;stroke-width:5;stroke-linecap:butt;stroke-linejoin:miter;stroke-miterlimit:4;stroke-opacity:1;stroke-dasharray:none"/>
          <path d="m 202.871,1781.56 110.922,0" id="path4927" style="fill:none;stroke:#231f20;stroke-width:1.82598996;stroke-linecap:butt;stroke-linejoin:miter;stroke-miterlimit:4;stroke-opacity:1;stroke-dasharray:none"/>
          <path d="m 202.871,1711.52 110.922,0" id="path4929" style="fill:none;stroke:#231f20;stroke-width:1.82598996;stroke-linecap:butt;stroke-linejoin:miter;stroke-miterlimit:4;stroke-opacity:1;stroke-dasharray:none"/>
          <path d="m 202.871,1511.53 110.922,0" id="path4931" style="fill:none;stroke:#231f20;stroke-width:1.82598996;stroke-linecap:butt;stroke-linejoin:miter;stroke-miterlimit:4;stroke-opacity:1;stroke-dasharray:none"/>
          <path d="m 202.871,1289.57 110.922,0" id="path4933" style="fill:none;stroke:#231f20;stroke-width:1.82598996;stroke-linecap:butt;stroke-linejoin:miter;stroke-miterlimit:4;stroke-opacity:1;stroke-dasharray:none"/>
          <path d="m 202.871,1239.54 110.922,0" id="path4935" style="fill:none;stroke:#231f20;stroke-width:1.82598996;stroke-linecap:butt;stroke-linejoin:miter;stroke-miterlimit:4;stroke-opacity:1;stroke-dasharray:none"/>
          <path d="m 202.871,1187.84 110.922,0" id="path4937" style="fill:none;stroke:#231f20;stroke-width:1.82598996;stroke-linecap:butt;stroke-linejoin:miter;stroke-miterlimit:4;stroke-opacity:1;stroke-dasharray:none"/>
          <path d="m 202.871,1187.84 110.922,0" id="path4939" style="fill:none;stroke:#231f20;stroke-width:1.82598996;stroke-linecap:butt;stroke-linejoin:miter;stroke-miterlimit:4;stroke-opacity:1;stroke-dasharray:none"/>
          <path d="m 202.871,361.199 110.922,0" id="path4941" style="fill:none;stroke:#231f20;stroke-width:1.82598996;stroke-linecap:butt;stroke-linejoin:miter;stroke-miterlimit:4;stroke-opacity:1;stroke-dasharray:none"/>
          <path d="m 202.871,1675.27 110.922,0" id="path4943" style="fill:none;stroke:#231f20;stroke-width:1.82598996;stroke-linecap:butt;stroke-linejoin:miter;stroke-miterlimit:4;stroke-opacity:1;stroke-dasharray:none"/>
        </g>
      </g>
    </g>
  </g>
</svg>
