<?xml version="1.0" encoding="UTF-8"?>
<svg xmlns:xlink="http://www.w3.org/1999/xlink" xmlns="http://www.w3.org/2000/svg" contentScriptType="text/ecmascript" zoomAndPan="magnify" contentStyleType="text/css" preserveAspectRatio="xMidYMid meet" version="1.0">
<g id="chromosome6">
<path style="fill:#a4bdc8;fill-opacity:1;fill-rule:nonzero;stroke:none" d="m 49.762750000000004,172.04125 0.40762500000000007,1.04 c 0.0,-0.8850000000000001 -1.179125,-2.34375 -2.9262500000000005,-3.17875 1.7471250000000003,-0.83375 2.9262500000000005,-2.29 2.9262500000000005,-3.1800000000000006 l -0.158625,0.57375 -11.0205,-0.0 -0.18562500000000004,-0.57375 c 0.0,0.8912500000000001 1.189,2.3475 2.9395,3.1800000000000006 -1.7505000000000002,0.8350000000000001 -2.9395,2.29125 -2.9395,3.17875 l 0.373625,-1.04 10.5835,0.0 " id="centromere6-f"/>
<path style="fill:none;stroke:#100f0d;stroke-width:0.8;stroke-linecap:butt;stroke-linejoin:miter;stroke-miterlimit:4;stroke-opacity:1;stroke-dasharray:none" d="m 49.762750000000004,172.04125 0.40762500000000007,1.04 c 0.0,-0.8850000000000001 -1.179125,-2.34375 -2.9262500000000005,-3.17875 1.7471250000000003,-0.83375 2.9262500000000005,-2.29 2.9262500000000005,-3.1800000000000006 l -0.158625,0.57375 -11.0205,-0.0 -0.18562500000000004,-0.57375 c 0.0,0.8912500000000001 1.189,2.3475 2.9395,3.1800000000000006 -1.7505000000000002,0.8350000000000001 -2.9395,2.29125 -2.9395,3.17875 l 0.373625,-1.04 10.5835,0.0 z " id="centromere6-o"/>
<path style="fill:#211c1d;fill-opacity:1;fill-rule:nonzero;stroke:none" d="m 38.795875,166.4125 11.384275000000002,0.0 0.0,-5.317875 -11.384275000000002,-0.0 0.0,5.317875 z " id="6p12.1"/>
<path style="fill:#211c1d;fill-opacity:1;fill-rule:nonzero;stroke:none" d="m 38.795875,160.1575 11.384275000000002,0.0 0.0,-7.087400000000001 -11.384275000000002,-0.0 0.0,7.087400000000001 z " id="6p12.3"/>
<path style="fill:#e9eae9;fill-opacity:1;fill-rule:nonzero;stroke:none" d="m 38.795875,99.80375000000001 11.384275000000002,0.0 0.0,-2.0835 -11.384275000000002,-0.0 0.0,2.0835 z " id="6p25.2"/>
<path style="fill:none;stroke:#211c1d;stroke-width:0.1;stroke-linecap:butt;stroke-linejoin:miter;stroke-miterlimit:4;stroke-opacity:1;stroke-dasharray:none" d="m 38.795875,99.80375000000001 11.384275000000002,0.0 0.0,-2.0835 -11.384275000000002,-0.0 0.0,2.0835 z " id="6p25.2-o"/>
<path style="fill:#e9eae9;fill-opacity:1;fill-rule:nonzero;stroke:none" d="m 38.795875,111.06124999999997 11.384275000000002,0.0 0.0,-2.9165 -11.384275000000002,-0.0 0.0,2.9165 z " id="6p24.1"/>
<path style="fill:none;stroke:#211c1d;stroke-width:0.1;stroke-linecap:butt;stroke-linejoin:miter;stroke-miterlimit:4;stroke-opacity:1;stroke-dasharray:none" d="m 38.795875,111.06124999999997 11.384275000000002,0.0 0.0,-2.9165 -11.384275000000002,-0.0 0.0,2.9165 z " id="6p24.1-o"/>
<path style="fill:#e9eae9;fill-opacity:1;fill-rule:nonzero;stroke:none" d="m 38.795875,133.9925 11.384275000000002,0.0 0.0,-2.5004875 -11.384275000000002,-0.0 0.0,2.5004875 z " id="6p21.32"/>
<path style="fill:none;stroke:#211c1d;stroke-width:0.1;stroke-linecap:butt;stroke-linejoin:miter;stroke-miterlimit:4;stroke-opacity:1;stroke-dasharray:none" d="m 38.795875,133.9925 11.384275000000002,0.0 0.0,-2.5004875 -11.384275000000002,-0.0 0.0,2.5004875 z " id="6p21.32-o"/>
<path style="fill:#e9eae9;fill-opacity:1;fill-rule:nonzero;stroke:none" d="m 38.795875,143.58375 11.384275000000002,0.0 0.0,-2.9184625000000004 -11.384275000000002,-0.0 0.0,2.9184625000000004 z " id="6p21.2"/>
<path style="fill:none;stroke:#211c1d;stroke-width:0.1;stroke-linecap:butt;stroke-linejoin:miter;stroke-miterlimit:4;stroke-opacity:1;stroke-dasharray:none" d="m 38.795875,143.58375 11.384275000000002,0.0 0.0,-2.9184625000000004 -11.384275000000002,-0.0 0.0,2.9184625000000004 z " id="6p21.2-o"/>
<path style="fill:#211c1d;fill-opacity:1;fill-rule:nonzero;stroke:none" d="m 38.795875,182.46374999999998 11.384275000000002,0.0 0.0,-8.861325 -11.384275000000002,-0.0 0.0,8.861325 z " id="6q12"/>
<path style="fill:#211c1d;fill-opacity:1;fill-rule:nonzero;stroke:none" d="m 38.795875,213.317125 11.384275000000002,0.0 0.0,-7.6084 -11.384275000000002,-0.0 0.0,7.6084 z " id="6q16.1"/>
<path style="fill:#211c1d;fill-opacity:1;fill-rule:nonzero;stroke:none" d="m 38.795875,221.44849999999997 11.384275000000002,0.0 0.0,-6.3588875 -11.384275000000002,-0.0 0.0,6.3588875 z " id="6q16.3"/>
<path style="fill:#211c1d;fill-opacity:1;fill-rule:nonzero;stroke:none" d="m 38.795875,246.048625 11.384275000000002,0.0 0.0,-6.149900000000001 -11.384275000000002,-0.0 0.0,6.149900000000001 z " id="6q22.31"/>
<path style="fill:#7a7e82;fill-opacity:1;fill-rule:nonzero;stroke:none" d="m 38.795875,120.44374999999997 11.384275000000002,0.0 0.0,-7.297362500000001 -11.384275000000002,-0.0 0.0,7.297362500000001 z " id="6p22.3"/>
<path style="fill:none;stroke:#211c1d;stroke-width:0.1;stroke-linecap:butt;stroke-linejoin:miter;stroke-miterlimit:4;stroke-opacity:1;stroke-dasharray:none" d="m 38.795875,120.44374999999997 11.384275000000002,0.0 0.0,-7.297362500000001 -11.384275000000002,-0.0 0.0,7.297362500000001 z " id="6p22.3-o"/>
<path style="fill:#7a7e82;fill-opacity:1;fill-rule:nonzero;stroke:none" d="m 38.795875,237.60774999999998 11.384275000000002,0.0 0.0,-4.79785 -11.384275000000002,-0.0 0.0,4.79785 z " id="6q22.1"/>
<path style="fill:none;stroke:#211c1d;stroke-width:0.1;stroke-linecap:butt;stroke-linejoin:miter;stroke-miterlimit:4;stroke-opacity:1;stroke-dasharray:none" d="m 38.795875,237.60774999999998 11.384275000000002,0.0 0.0,-4.79785 -11.384275000000002,-0.0 0.0,4.79785 z " id="6q22.1-o"/>
<path style="fill:#7a7e82;fill-opacity:1;fill-rule:nonzero;stroke:none" d="m 38.795875,256.366 11.384275000000002,0.0 0.0,-6.4599625000000005 -11.384275000000002,-0.0 0.0,6.4599625000000005 z " id="6q22.33"/>
<path style="fill:none;stroke:#211c1d;stroke-width:0.1;stroke-linecap:butt;stroke-linejoin:miter;stroke-miterlimit:4;stroke-opacity:1;stroke-dasharray:none" d="m 38.795875,256.366 11.384275000000002,0.0 0.0,-6.4599625000000005 -11.384275000000002,-0.0 0.0,6.4599625000000005 z " id="6q22.33-o"/>
<path style="fill:#7a7e82;fill-opacity:1;fill-rule:nonzero;stroke:none" d="m 38.795875,275.34112500000003 11.384275000000002,0.0 0.0,-4.1723625 -11.384275000000002,-0.0 0.0,4.1723625 z " id="6q24.1"/>
<path style="fill:none;stroke:#211c1d;stroke-width:0.1;stroke-linecap:butt;stroke-linejoin:miter;stroke-miterlimit:4;stroke-opacity:1;stroke-dasharray:none" d="m 38.795875,275.34112500000003 11.384275000000002,0.0 0.0,-4.1723625 -11.384275000000002,-0.0 0.0,4.1723625 z " id="6q24.1-o"/>
<path style="fill:#7a7e82;fill-opacity:1;fill-rule:nonzero;stroke:none" d="m 38.795875,282.008625 11.384275000000002,0.0 0.0,-4.167475 -11.384275000000002,-0.0 0.0,4.167475 z " id="6q24.3"/>
<path style="fill:none;stroke:#211c1d;stroke-width:0.1;stroke-linecap:butt;stroke-linejoin:miter;stroke-miterlimit:4;stroke-opacity:1;stroke-dasharray:none" d="m 38.795875,282.008625 11.384275000000002,0.0 0.0,-4.167475 -11.384275000000002,-0.0 0.0,4.167475 z " id="6q24.3-o"/>
<path style="fill:#bbbcbd;fill-opacity:1;fill-rule:nonzero;stroke:none" d="m 38.795875,107.30875 11.384275000000002,0.0 0.0,-4.1704125 -11.384275000000002,-0.0 0.0,4.1704125 z " id="6p24.3"/>
<path style="fill:none;stroke:#211c1d;stroke-width:0.1;stroke-linecap:butt;stroke-linejoin:miter;stroke-miterlimit:4;stroke-opacity:1;stroke-dasharray:none" d="m 38.795875,107.30875 11.384275000000002,0.0 0.0,-4.1704125 -11.384275000000002,-0.0 0.0,4.1704125 z " id="6p24.3-o"/>
<path style="fill:#bbbcbd;fill-opacity:1;fill-rule:nonzero;stroke:none" d="m 38.795875,128.36499999999998 11.384275000000002,0.0 0.0,-4.7954125 -11.384275000000002,-0.0 0.0,4.7954125 z " id="6p22.1"/>
<path style="fill:none;stroke:#211c1d;stroke-width:0.1;stroke-linecap:butt;stroke-linejoin:miter;stroke-miterlimit:4;stroke-opacity:1;stroke-dasharray:none" d="m 38.795875,128.36499999999998 11.384275000000002,0.0 0.0,-4.7954125 -11.384275000000002,-0.0 0.0,4.7954125 z " id="6p22.1-o"/>
<path style="fill:#bbbcbd;fill-opacity:1;fill-rule:nonzero;stroke:none" d="m 38.795875,192.7825 11.384275000000002,0.0 0.0,-6.254400000000001 -11.384275000000002,-0.0 0.0,6.254400000000001 z " id="6q14.1"/>
<path style="fill:none;stroke:#211c1d;stroke-width:0.1;stroke-linecap:butt;stroke-linejoin:miter;stroke-miterlimit:4;stroke-opacity:1;stroke-dasharray:none" d="m 38.795875,192.7825 11.384275000000002,0.0 0.0,-6.254400000000001 -11.384275000000002,-0.0 0.0,6.254400000000001 z " id="6q14.1-o"/>
<path style="fill:#bbbcbd;fill-opacity:1;fill-rule:nonzero;stroke:none" d="m 38.795875,199.03687499999998 11.384275000000002,0.0 0.0,-4.7954125 -11.384275000000002,-0.0 0.0,4.7954125 z " id="6q14.3"/>
<path style="fill:none;stroke:#211c1d;stroke-width:0.1;stroke-linecap:butt;stroke-linejoin:miter;stroke-miterlimit:4;stroke-opacity:1;stroke-dasharray:none" d="m 38.795875,199.03687499999998 11.384275000000002,0.0 0.0,-4.7954125 -11.384275000000002,-0.0 0.0,4.7954125 z " id="6q14.3-o"/>
<path style="fill:#bbbcbd;fill-opacity:1;fill-rule:nonzero;stroke:none" d="m 38.795875,266.581375 11.384275000000002,0.0 0.0,-4.793950000000001 -11.384275000000002,-0.0 0.0,4.793950000000001 z " id="6q23.2"/>
<path style="fill:none;stroke:#211c1d;stroke-width:0.1;stroke-linecap:butt;stroke-linejoin:miter;stroke-miterlimit:4;stroke-opacity:1;stroke-dasharray:none" d="m 38.795875,266.581375 11.384275000000002,0.0 0.0,-4.793950000000001 -11.384275000000002,-0.0 0.0,4.793950000000001 z " id="6q23.2-o"/>
<path style="fill:#bbbcbd;fill-opacity:1;fill-rule:nonzero;stroke:none" d="m 38.795875,289.51637500000004 11.384275000000002,0.0 0.0,-3.3378875000000003 -11.384275000000002,-0.0 0.0,3.3378875000000003 z " id="6q25.2"/>
<path style="fill:none;stroke:#211c1d;stroke-width:0.1;stroke-linecap:butt;stroke-linejoin:miter;stroke-miterlimit:4;stroke-opacity:1;stroke-dasharray:none" d="m 38.795875,289.51637500000004 11.384275000000002,0.0 0.0,-3.3378875000000003 -11.384275000000002,-0.0 0.0,3.3378875000000003 z " id="6q25.2-o"/>
<path style="fill:#bbbcbd;fill-opacity:1;fill-rule:nonzero;stroke:none" d="m 38.795875,300.77375 11.384275000000002,0.0 0.0,-3.3374000000000006 -11.384275000000002,-0.0 0.0,3.3374000000000006 z " id="6q26"/>
<path style="fill:none;stroke:#211c1d;stroke-width:0.1;stroke-linecap:butt;stroke-linejoin:miter;stroke-miterlimit:4;stroke-opacity:1;stroke-dasharray:none" d="m 38.795875,300.77375 11.384275000000002,0.0 0.0,-3.3374000000000006 -11.384275000000002,-0.0 0.0,3.3374000000000006 z " id="6q26-o"/>
<path style="fill:none;stroke:#211c1d;stroke-width:0.8;stroke-linecap:butt;stroke-linejoin:miter;stroke-miterlimit:4;stroke-opacity:1;stroke-dasharray:none" d="m 41.745125,169.9025 c -1.7505000000000002,0.8350000000000001 -2.9395,2.26375 -2.9395,3.1550000000000002 l 0.0,133.761125 c 0.0,1.3012500000000002 2.5415000000000005,2.357375 5.681250000000001,2.357375 3.1381250000000005,0.0 5.682125,-1.056125 5.682125,-2.357375 l 0.0,-133.893625 c 0.0,-0.60625 -1.17775,-2.18625 -2.923375,-3.0225 1.745625,-0.83375 2.923375,-2.29 2.923375,-3.1775 l 0.0,-69.00625 c 0.0,-1.3012500000000002 -2.544,-2.3575 -5.682125,-2.3575 -3.1397500000000003,-0.0 -5.681250000000001,1.05625 -5.681250000000001,2.3575 l 0.0,69.00625 c 0.0,0.8887500000000002 1.189,2.3450000000000006 2.9395,3.1775 z " id="outline6"/>
<path style="fill:none;stroke:#231f20;stroke-width:0.8;stroke-linecap:butt;stroke-linejoin:miter;stroke-miterlimit:4;stroke-opacity:1;stroke-dasharray:none;display:none" d="M 41.349625,169.935 0.0,169.935 " id="centre6"/>
<text>
<tspan x="41.291000000000004" y="317.827425" id="label6" style="font-size:7.19543791px;font-variant:normal;font-weight:normal;writing-mode:lr-tb;fill:#211c1d;fill-opacity:1;fill-rule:nonzero;stroke:none;font-family:Helvetica;-inkscape-font-specification:Helvetica">6</tspan>
</text>
</g>
</svg>
