<?xml version="1.0" encoding="UTF-8"?>
<svg xmlns:xlink="http://www.w3.org/1999/xlink" xmlns="http://www.w3.org/2000/svg" contentScriptType="text/ecmascript" zoomAndPan="magnify" contentStyleType="text/css" preserveAspectRatio="xMidYMid meet" version="1.0">
<g id="chromosome7">
<path style="fill:#a4bdc8;fill-opacity:1;fill-rule:nonzero;stroke:none" d="m 50.138125,175.39375 0.030375000000000003,-2.03875 c 0.0,-0.9650000000000001 -1.17775,-2.54875 -2.921,-3.455 1.7432500000000002,-0.90875 2.921,-2.49125 2.921,-3.4575 l -0.15725,0.62375 -11.017125,-0.0 -0.189375,-0.62375 c 0.0,0.96875 1.188875,2.55125 2.94325,3.4575 -1.7543750000000002,0.9062500000000001 -2.94325,2.48625 -2.94325,3.455 l 0.0,2.03875 11.333375,0.0 " id="centromere7-f"/>
<path style="fill:none;stroke:#100f0d;stroke-width:0.8;stroke-linecap:butt;stroke-linejoin:miter;stroke-miterlimit:4;stroke-opacity:1;stroke-dasharray:none" d="m 50.138125,175.39375 0.030375000000000003,-2.03875 c 0.0,-0.9650000000000001 -1.17775,-2.54875 -2.921,-3.455 1.7432500000000002,-0.90875 2.921,-2.49125 2.921,-3.4575 l -0.15725,0.62375 -11.017125,-0.0 -0.189375,-0.62375 c 0.0,0.96875 1.188875,2.55125 2.94325,3.4575 -1.7543750000000002,0.9062500000000001 -2.94325,2.48625 -2.94325,3.455 l 0.0,2.03875 11.333375,0.0 z " id="centromere7-o"/>
<path style="fill:#211c1d;fill-opacity:1;fill-rule:nonzero;stroke:none" d="m 38.797875,113.41999999999997 11.3818375,0.0 0.0,-6.573237500000001 -11.3818375,-0.0 0.0,6.573237500000001 z " id="path32"/>
<path style="fill:#211c1d;fill-opacity:1;fill-rule:nonzero;stroke:none" d="m 38.797875,118.17749999999997 11.3818375,0.0 0.0,-3.3999 -11.3818375,-0.0 0.0,3.3999 z " id="path34"/>
<path style="fill:#211c1d;fill-opacity:1;fill-rule:nonzero;stroke:none" d="m 38.797875,204.73749999999995 11.3818375,0.0 0.0,-9.063475 -11.3818375,-0.0 0.0,9.063475 z " id="path36"/>
<path style="fill:#babbbc;fill-opacity:1;fill-rule:nonzero;stroke:none" d="m 38.797875,128.60125 11.3818375,0.0 0.0,-4.0786125 -11.3818375,-0.0 0.0,4.0786125 z " id="path38"/>
<path style="fill:none;stroke:#211c1d;stroke-width:0.1;stroke-linecap:butt;stroke-linejoin:miter;stroke-miterlimit:4;stroke-opacity:1;stroke-dasharray:none" d="m 38.797875,128.60125 11.3818375,0.0 0.0,-4.0786125 -11.3818375,-0.0 0.0,4.0786125 z " id="path40"/>
<path style="fill:#babbbc;fill-opacity:1;fill-rule:nonzero;stroke:none" d="m 38.797875,186.15625 11.3818375,0.0 0.0,-4.0791 -11.3818375,-0.0 0.0,4.0791 z " id="path42"/>
<path style="fill:none;stroke:#211c1d;stroke-width:0.1;stroke-linecap:butt;stroke-linejoin:miter;stroke-miterlimit:4;stroke-opacity:1;stroke-dasharray:none" d="m 38.797875,186.15625 11.3818375,0.0 0.0,-4.0791 -11.3818375,-0.0 0.0,4.0791 z " id="path44"/>
<path style="fill:#babbbc;fill-opacity:1;fill-rule:nonzero;stroke:none" d="m 38.797875,234.19599999999997 11.3818375,0.0 0.0,-4.0786125 -11.3818375,-0.0 0.0,4.0786125 z " id="path46"/>
<path style="fill:none;stroke:#211c1d;stroke-width:0.1;stroke-linecap:butt;stroke-linejoin:miter;stroke-miterlimit:4;stroke-opacity:1;stroke-dasharray:none" d="m 38.797875,234.19599999999997 11.3818375,0.0 0.0,-4.0786125 -11.3818375,-0.0 0.0,4.0786125 z " id="path48"/>
<path style="fill:#babbbc;fill-opacity:1;fill-rule:nonzero;stroke:none" d="m 38.797875,272.26487499999996 11.3818375,0.0 0.0,-4.9834 -11.3818375,-0.0 0.0,4.9834 z " id="path50"/>
<path style="fill:none;stroke:#211c1d;stroke-width:0.1;stroke-linecap:butt;stroke-linejoin:miter;stroke-miterlimit:4;stroke-opacity:1;stroke-dasharray:none" d="m 38.797875,272.26487499999996 11.3818375,0.0 0.0,-4.9834 -11.3818375,-0.0 0.0,4.9834 z " id="path52"/>
<path style="fill:#eae8e8;fill-opacity:1;fill-rule:nonzero;stroke:none" d="m 38.797875,102.31499999999998 11.3818375,0.0 0.0,-2.2641625 -11.3818375,-0.0 0.0,2.2641625 z " id="path54"/>
<path style="fill:none;stroke:#211c1d;stroke-width:0.1;stroke-linecap:butt;stroke-linejoin:miter;stroke-miterlimit:4;stroke-opacity:1;stroke-dasharray:none" d="m 38.797875,102.31499999999998 11.3818375,0.0 0.0,-2.2641625 -11.3818375,-0.0 0.0,2.2641625 z " id="path56"/>
<path style="fill:#eae8e8;fill-opacity:1;fill-rule:nonzero;stroke:none" d="m 38.797875,262.295125 11.3818375,0.0 0.0,-2.717775 -11.3818375,-0.0 0.0,2.717775 z " id="path58"/>
<path style="fill:none;stroke:#211c1d;stroke-width:0.1;stroke-linecap:butt;stroke-linejoin:miter;stroke-miterlimit:4;stroke-opacity:1;stroke-dasharray:none" d="m 38.797875,262.295125 11.3818375,0.0 0.0,-2.717775 -11.3818375,-0.0 0.0,2.717775 z " id="path60"/>
<path style="fill:#eae8e8;fill-opacity:1;fill-rule:nonzero;stroke:none" d="m 38.797875,295.83225 11.3818375,0.0 0.0,-3.6259750000000004 -11.3818375,-0.0 0.0,3.6259750000000004 z " id="path62"/>
<path style="fill:none;stroke:#211c1d;stroke-width:0.1;stroke-linecap:butt;stroke-linejoin:miter;stroke-miterlimit:4;stroke-opacity:1;stroke-dasharray:none" d="m 38.797875,295.83225 11.3818375,0.0 0.0,-3.6259750000000004 -11.3818375,-0.0 0.0,3.6259750000000004 z " id="path64"/>
<path style="fill:#7a7c81;fill-opacity:1;fill-rule:nonzero;stroke:none" d="m 38.797875,137.66375 11.3818375,0.0 0.0,-4.078125 -11.3818375,-0.0 0.0,4.078125 z " id="path66"/>
<path style="fill:none;stroke:#211c1d;stroke-width:0.1;stroke-linecap:butt;stroke-linejoin:miter;stroke-miterlimit:4;stroke-opacity:1;stroke-dasharray:none" d="m 38.797875,137.66375 11.3818375,0.0 0.0,-4.078125 -11.3818375,-0.0 0.0,4.078125 z " id="path68"/>
<path style="fill:#7a7c81;fill-opacity:1;fill-rule:nonzero;stroke:none" d="m 38.797875,144.91499999999996 11.3818375,0.0 0.0,-6.11865 -11.3818375,-0.0 0.0,6.11865 z " id="path70"/>
<path style="fill:none;stroke:#211c1d;stroke-width:0.1;stroke-linecap:butt;stroke-linejoin:miter;stroke-miterlimit:4;stroke-opacity:1;stroke-dasharray:none" d="m 38.797875,144.91499999999996 11.3818375,0.0 0.0,-6.11865 -11.3818375,-0.0 0.0,6.11865 z " id="path72"/>
<path style="fill:#7a7c81;fill-opacity:1;fill-rule:nonzero;stroke:none" d="m 38.797875,156.47249999999997 11.3818375,0.0 0.0,-4.3037125 -11.3818375,-0.0 0.0,4.3037125 z " id="path74"/>
<path style="fill:none;stroke:#211c1d;stroke-width:0.1;stroke-linecap:butt;stroke-linejoin:miter;stroke-miterlimit:4;stroke-opacity:1;stroke-dasharray:none" d="m 38.797875,156.47249999999997 11.3818375,0.0 0.0,-4.3037125 -11.3818375,-0.0 0.0,4.3037125 z " id="path76"/>
<path style="fill:#7a7c81;fill-opacity:1;fill-rule:nonzero;stroke:none" d="m 38.797875,162.13874999999996 11.3818375,0.0 0.0,-4.0791 -11.3818375,-0.0 0.0,4.0791 z " id="path78"/>
<path style="fill:none;stroke:#211c1d;stroke-width:0.1;stroke-linecap:butt;stroke-linejoin:miter;stroke-miterlimit:4;stroke-opacity:1;stroke-dasharray:none" d="m 38.797875,162.13874999999996 11.3818375,0.0 0.0,-4.0791 -11.3818375,-0.0 0.0,4.0791 z " id="path80"/>
<path style="fill:#7a7c81;fill-opacity:1;fill-rule:nonzero;stroke:none" d="m 38.797875,211.53774999999996 11.3818375,0.0 0.0,-4.0795875 -11.3818375,-0.0 0.0,4.0795875 z " id="path82"/>
<path style="fill:none;stroke:#211c1d;stroke-width:0.1;stroke-linecap:butt;stroke-linejoin:miter;stroke-miterlimit:4;stroke-opacity:1;stroke-dasharray:none" d="m 38.797875,211.53774999999996 11.3818375,0.0 0.0,-4.0795875 -11.3818375,-0.0 0.0,4.0795875 z " id="path84"/>
<path style="fill:#7a7c81;fill-opacity:1;fill-rule:nonzero;stroke:none" d="m 38.797875,219.46749999999997 11.3818375,0.0 0.0,-5.4370125 -11.3818375,-0.0 0.0,5.4370125 z " id="path86"/>
<path style="fill:none;stroke:#211c1d;stroke-width:0.1;stroke-linecap:butt;stroke-linejoin:miter;stroke-miterlimit:4;stroke-opacity:1;stroke-dasharray:none" d="m 38.797875,219.46749999999997 11.3818375,0.0 0.0,-5.4370125 -11.3818375,-0.0 0.0,5.4370125 z " id="path88"/>
<path style="fill:#7a7c81;fill-opacity:1;fill-rule:nonzero;stroke:none" d="m 38.797875,242.35524999999996 11.3818375,0.0 0.0,-4.53125 -11.3818375,-0.0 0.0,4.53125 z " id="path90"/>
<path style="fill:none;stroke:#211c1d;stroke-width:0.1;stroke-linecap:butt;stroke-linejoin:miter;stroke-miterlimit:4;stroke-opacity:1;stroke-dasharray:none" d="m 38.797875,242.35524999999996 11.3818375,0.0 0.0,-4.53125 -11.3818375,-0.0 0.0,4.53125 z " id="path92"/>
<path style="fill:#7a7c81;fill-opacity:1;fill-rule:nonzero;stroke:none" d="m 38.797875,251.41862499999996 11.3818375,0.0 0.0,-4.986325000000001 -11.3818375,-0.0 0.0,4.986325000000001 z " id="path94"/>
<path style="fill:none;stroke:#211c1d;stroke-width:0.1;stroke-linecap:butt;stroke-linejoin:miter;stroke-miterlimit:4;stroke-opacity:1;stroke-dasharray:none" d="m 38.797875,251.41862499999996 11.3818375,0.0 0.0,-4.986325000000001 -11.3818375,-0.0 0.0,4.986325000000001 z " id="path96"/>
<path style="fill:#7a7c81;fill-opacity:1;fill-rule:nonzero;stroke:none" d="m 38.797875,257.31125 11.3818375,0.0 0.0,-3.173825 -11.3818375,-0.0 0.0,3.173825 z " id="path98"/>
<path style="fill:none;stroke:#211c1d;stroke-width:0.1;stroke-linecap:butt;stroke-linejoin:miter;stroke-miterlimit:4;stroke-opacity:1;stroke-dasharray:none" d="m 38.797875,257.31125 11.3818375,0.0 0.0,-3.173825 -11.3818375,-0.0 0.0,3.173825 z " id="path100"/>
<path style="fill:#7a7c81;fill-opacity:1;fill-rule:nonzero;stroke:none" d="m 38.797875,285.409875 11.3818375,0.0 0.0,-5.439937500000001 -11.3818375,-0.0 0.0,5.439937500000001 z " id="path102"/>
<path style="fill:none;stroke:#211c1d;stroke-width:0.1;stroke-linecap:butt;stroke-linejoin:miter;stroke-miterlimit:4;stroke-opacity:1;stroke-dasharray:none" d="m 38.797875,285.409875 11.3818375,0.0 0.0,-5.439937500000001 -11.3818375,-0.0 0.0,5.439937500000001 z " id="path104"/>
<path style="fill:none;stroke:#211c1d;stroke-width:0.8;stroke-linecap:butt;stroke-linejoin:miter;stroke-miterlimit:4;stroke-opacity:1;stroke-dasharray:none" d="m 41.748000000000005,169.89999999999998 c -1.7543750000000002,0.9062500000000001 -2.94325,2.46 -2.94325,3.42625 l 0.0,125.90400000000001 c 0.0,1.416 2.5453750000000004,2.5634250000000005 5.6850000000000005,2.5634250000000005 3.13475,0.0 5.67875,-1.147425 5.67875,-2.5634250000000005 l 0.0,-126.0465 c 0.0,-0.66125 -1.17775,-2.3775000000000004 -2.921,-3.2837500000000004 1.7432500000000002,-0.9075 2.921,-2.4925 2.921,-3.4562500000000003 l 0.0,-70.92625 c 0.0,-1.41625 -2.544,-2.56375 -5.67875,-2.56375 -3.1396250000000006,-0.0 -5.6850000000000005,1.1475 -5.6850000000000005,2.56375 l 0.0,70.92625 c 0.0,0.9662500000000002 1.188875,2.55 2.94325,3.4562500000000003 z " id="outline7"/>
<path style="fill:none;stroke:#211c1d;stroke-width:0.8;stroke-linecap:butt;stroke-linejoin:miter;stroke-miterlimit:4;stroke-opacity:1;stroke-dasharray:none;display:none" d="M 41.349125,169.935 0.0,169.935 " id="centre7"/>
<text>
<tspan x="41.235375000000005" y="310.35519999999997" id="label7" style="font-size:7.19543791px;font-variant:normal;font-weight:normal;writing-mode:lr-tb;fill:#211c1d;fill-opacity:1;fill-rule:nonzero;stroke:none;font-family:Helvetica;-inkscape-font-specification:Helvetica">7</tspan>
</text>
</g>
</svg>
