<?xml version="1.0" encoding="UTF-8"?>
<svg xmlns:xlink="http://www.w3.org/1999/xlink" xmlns="http://www.w3.org/2000/svg" contentScriptType="text/ecmascript" zoomAndPan="magnify" contentStyleType="text/css" preserveAspectRatio="xMidYMid meet" version="1.0">

<g id="chromosome7" title="Chromosome 7">
<path style="fill:#211c1d;fill-opacity:1;fill-rule:nonzero;stroke:none" id="7p21.3" d="m 38.797875,113.41999999999997 11.3818375,0.0 0.0,-6.573237500000001 -11.3818375,-0.0 0.0,6.573237500000001 z "/>
<path style="fill:#211c1d;fill-opacity:1;fill-rule:nonzero;stroke:none" id="7p21.1" d="m 38.797875,118.17749999999997 11.3818375,0.0 0.0,-3.3999 -11.3818375,-0.0 0.0,3.3999 z "/>
<path style="fill:#211c1d;fill-opacity:1;fill-rule:nonzero;stroke:none" id="7q21.11" d="m 38.797875,204.73749999999995 11.3818375,0.0 0.0,-9.063475 -11.3818375,-0.0 0.0,9.063475 z "/>
<path style="fill:#babbbc;fill-opacity:1;fill-rule:nonzero;stroke:none" id="7p15.2" d="m 38.797875,128.60125 11.3818375,0.0 0.0,-4.0786125 -11.3818375,-0.0 0.0,4.0786125 z "/>
<path style="fill:none;stroke:#211c1d;stroke-width:0.1;stroke-linecap:butt;stroke-linejoin:miter;stroke-miterlimit:4;stroke-opacity:1;stroke-dasharray:none" id="7p15.2-o" d="m 38.797875,128.60125 11.3818375,0.0 0.0,-4.0786125 -11.3818375,-0.0 0.0,4.0786125 z "/>
<path style="fill:#babbbc;fill-opacity:1;fill-rule:nonzero;stroke:none" id="7q11.22" d="m 38.797875,186.15625 11.3818375,0.0 0.0,-4.0791 -11.3818375,-0.0 0.0,4.0791 z "/>
<path style="fill:none;stroke:#211c1d;stroke-width:0.1;stroke-linecap:butt;stroke-linejoin:miter;stroke-miterlimit:4;stroke-opacity:1;stroke-dasharray:none" id="7q11.22-o" d="m 38.797875,186.15625 11.3818375,0.0 0.0,-4.0791 -11.3818375,-0.0 0.0,4.0791 z "/>
<path style="fill:#babbbc;fill-opacity:1;fill-rule:nonzero;stroke:none" id="7q22.2" d="m 38.797875,234.19599999999997 11.3818375,0.0 0.0,-4.0786125 -11.3818375,-0.0 0.0,4.0786125 z "/>
<path style="fill:none;stroke:#211c1d;stroke-width:0.1;stroke-linecap:butt;stroke-linejoin:miter;stroke-miterlimit:4;stroke-opacity:1;stroke-dasharray:none" id="7q22.2-o" d="m 38.797875,234.19599999999997 11.3818375,0.0 0.0,-4.0786125 -11.3818375,-0.0 0.0,4.0786125 z "/>
<path style="fill:#babbbc;fill-opacity:1;fill-rule:nonzero;stroke:none" id="7q33" d="m 38.797875,272.26487499999996 11.3818375,0.0 0.0,-4.9834 -11.3818375,-0.0 0.0,4.9834 z "/>
<path style="fill:none;stroke:#211c1d;stroke-width:0.1;stroke-linecap:butt;stroke-linejoin:miter;stroke-miterlimit:4;stroke-opacity:1;stroke-dasharray:none" id="7q33-o" d="m 38.797875,272.26487499999996 11.3818375,0.0 0.0,-4.9834 -11.3818375,-0.0 0.0,4.9834 z "/>
<path style="fill:#eae8e8;fill-opacity:1;fill-rule:nonzero;stroke:none" id="7p22.2" d="m 38.797875,102.31499999999998 11.3818375,0.0 0.0,-2.2641625 -11.3818375,-0.0 0.0,2.2641625 z "/>
<path style="fill:none;stroke:#211c1d;stroke-width:0.1;stroke-linecap:butt;stroke-linejoin:miter;stroke-miterlimit:4;stroke-opacity:1;stroke-dasharray:none" id="7p22.2-o" d="m 38.797875,102.31499999999998 11.3818375,0.0 0.0,-2.2641625 -11.3818375,-0.0 0.0,2.2641625 z "/>
<path style="fill:#eae8e8;fill-opacity:1;fill-rule:nonzero;stroke:none" id="7q32.2" d="m 38.797875,262.295125 11.3818375,0.0 0.0,-2.717775 -11.3818375,-0.0 0.0,2.717775 z "/>
<path style="fill:none;stroke:#211c1d;stroke-width:0.1;stroke-linecap:butt;stroke-linejoin:miter;stroke-miterlimit:4;stroke-opacity:1;stroke-dasharray:none" id="7q32.2-o" d="m 38.797875,262.295125 11.3818375,0.0 0.0,-2.717775 -11.3818375,-0.0 0.0,2.717775 z "/>
<path style="fill:#eae8e8;fill-opacity:1;fill-rule:nonzero;stroke:none" id="7q36.2" d="m 38.797875,295.83225 11.3818375,0.0 0.0,-3.6259750000000004 -11.3818375,-0.0 0.0,3.6259750000000004 z "/>
<path style="fill:none;stroke:#211c1d;stroke-width:0.1;stroke-linecap:butt;stroke-linejoin:miter;stroke-miterlimit:4;stroke-opacity:1;stroke-dasharray:none" id="7q36.2-o" d="m 38.797875,295.83225 11.3818375,0.0 0.0,-3.6259750000000004 -11.3818375,-0.0 0.0,3.6259750000000004 z "/>
<path style="fill:#7a7c81;fill-opacity:1;fill-rule:nonzero;stroke:none" id="7p14.3" d="m 38.797875,137.66375 11.3818375,0.0 0.0,-4.078125 -11.3818375,-0.0 0.0,4.078125 z "/>
<path style="fill:none;stroke:#211c1d;stroke-width:0.1;stroke-linecap:butt;stroke-linejoin:miter;stroke-miterlimit:4;stroke-opacity:1;stroke-dasharray:none" id="7p14.3-o" d="m 38.797875,137.66375 11.3818375,0.0 0.0,-4.078125 -11.3818375,-0.0 0.0,4.078125 z "/>
<path style="fill:#7a7c81;fill-opacity:1;fill-rule:nonzero;stroke:none" id="7p14.1" d="m 38.797875,144.91499999999996 11.3818375,0.0 0.0,-6.11865 -11.3818375,-0.0 0.0,6.11865 z "/>
<path style="fill:none;stroke:#211c1d;stroke-width:0.1;stroke-linecap:butt;stroke-linejoin:miter;stroke-miterlimit:4;stroke-opacity:1;stroke-dasharray:none" id="7p14.1-o" d="m 38.797875,144.91499999999996 11.3818375,0.0 0.0,-6.11865 -11.3818375,-0.0 0.0,6.11865 z "/>
<path style="fill:#7a7c81;fill-opacity:1;fill-rule:nonzero;stroke:none" id="7p12.3" d="m 38.797875,156.47249999999997 11.3818375,0.0 0.0,-4.3037125 -11.3818375,-0.0 0.0,4.3037125 z "/>
<path style="fill:none;stroke:#211c1d;stroke-width:0.1;stroke-linecap:butt;stroke-linejoin:miter;stroke-miterlimit:4;stroke-opacity:1;stroke-dasharray:none" id="7p12.3-o" d="m 38.797875,156.47249999999997 11.3818375,0.0 0.0,-4.3037125 -11.3818375,-0.0 0.0,4.3037125 z "/>
<path style="fill:#7a7c81;fill-opacity:1;fill-rule:nonzero;stroke:none" id="7p12.1" d="m 38.797875,162.13874999999996 11.3818375,0.0 0.0,-4.0791 -11.3818375,-0.0 0.0,4.0791 z "/>
<path style="fill:none;stroke:#211c1d;stroke-width:0.1;stroke-linecap:butt;stroke-linejoin:miter;stroke-miterlimit:4;stroke-opacity:1;stroke-dasharray:none" id="7p12.1-o" d="m 38.797875,162.13874999999996 11.3818375,0.0 0.0,-4.0791 -11.3818375,-0.0 0.0,4.0791 z "/>
<path style="fill:#7a7c81;fill-opacity:1;fill-rule:nonzero;stroke:none" id="7q21.13" d="m 38.797875,211.53774999999996 11.3818375,0.0 0.0,-4.0795875 -11.3818375,-0.0 0.0,4.0795875 z "/>
<path style="fill:none;stroke:#211c1d;stroke-width:0.1;stroke-linecap:butt;stroke-linejoin:miter;stroke-miterlimit:4;stroke-opacity:1;stroke-dasharray:none" id="7q21.13-0" d="m 38.797875,211.53774999999996 11.3818375,0.0 0.0,-4.0795875 -11.3818375,-0.0 0.0,4.0795875 z "/>
<path style="fill:#7a7c81;fill-opacity:1;fill-rule:nonzero;stroke:none" id="7q21.3" d="m 38.797875,219.46749999999997 11.3818375,0.0 0.0,-5.4370125 -11.3818375,-0.0 0.0,5.4370125 z "/>
<path style="fill:none;stroke:#211c1d;stroke-width:0.1;stroke-linecap:butt;stroke-linejoin:miter;stroke-miterlimit:4;stroke-opacity:1;stroke-dasharray:none" id="7q21.3-o" d="m 38.797875,219.46749999999997 11.3818375,0.0 0.0,-5.4370125 -11.3818375,-0.0 0.0,5.4370125 z "/>
<path style="fill:#7a7c81;fill-opacity:1;fill-rule:nonzero;stroke:none" id="7q31.1" d="m 38.797875,242.35524999999996 11.3818375,0.0 0.0,-4.53125 -11.3818375,-0.0 0.0,4.53125 z "/>
<path style="fill:none;stroke:#211c1d;stroke-width:0.1;stroke-linecap:butt;stroke-linejoin:miter;stroke-miterlimit:4;stroke-opacity:1;stroke-dasharray:none" id="7q31.1-o" d="m 38.797875,242.35524999999996 11.3818375,0.0 0.0,-4.53125 -11.3818375,-0.0 0.0,4.53125 z "/>
<path style="fill:#7a7c81;fill-opacity:1;fill-rule:nonzero;stroke:none" id="7q31.31" d="m 38.797875,251.41862499999996 11.3818375,0.0 0.0,-4.986325000000001 -11.3818375,-0.0 0.0,4.986325000000001 z "/>
<path style="fill:none;stroke:#211c1d;stroke-width:0.1;stroke-linecap:butt;stroke-linejoin:miter;stroke-miterlimit:4;stroke-opacity:1;stroke-dasharray:none" id="7q31.31-o" d="m 38.797875,251.41862499999996 11.3818375,0.0 0.0,-4.986325000000001 -11.3818375,-0.0 0.0,4.986325000000001 z "/>
<path style="fill:#7a7c81;fill-opacity:1;fill-rule:nonzero;stroke:none" id="7q31.33" d="m 38.797875,257.31125 11.3818375,0.0 0.0,-3.173825 -11.3818375,-0.0 0.0,3.173825 z "/>
<path style="fill:none;stroke:#211c1d;stroke-width:0.1;stroke-linecap:butt;stroke-linejoin:miter;stroke-miterlimit:4;stroke-opacity:1;stroke-dasharray:none" id="7q31.33-o" d="m 38.797875,257.31125 11.3818375,0.0 0.0,-3.173825 -11.3818375,-0.0 0.0,3.173825 z "/>
<path style="fill:#7a7c81;fill-opacity:1;fill-rule:nonzero;stroke:none" id="7q35" d="m 38.797875,285.409875 11.3818375,0.0 0.0,-5.439937500000001 -11.3818375,-0.0 0.0,5.439937500000001 z "/>
<path style="fill:none;stroke:#211c1d;stroke-width:0.1;stroke-linecap:butt;stroke-linejoin:miter;stroke-miterlimit:4;stroke-opacity:1;stroke-dasharray:none" id="7q35-o" d="m 38.797875,285.409875 11.3818375,0.0 0.0,-5.439937500000001 -11.3818375,-0.0 0.0,5.439937500000001 z "/>
<path style="fill:#fffafa;stroke:#211c1d;stroke-width:0.1;stroke-linecap:butt;stroke-linejoin:miter;stroke-miterlimit:4;stroke-opacity:1;stroke-dasharray:none" id="7q21.13-1" d="m 38.797875,207.45816249999996 11.3818375,0.0 0,-2.720662500000003 -11.3818375,-0.0 0,2.720662500000003 z "/>
<path style="fill:#fffafa;stroke:#211c1d;stroke-width:0.1;stroke-linecap:butt;stroke-linejoin:miter;stroke-miterlimit:4;stroke-opacity:1;stroke-dasharray:none" id="7p12.1-1" d="m 38.797875,166.4425 11.3818375,0.0 0,-4.303750000000036 -11.3818375,-0.0 0,4.303750000000036 z "/>
<path style="fill:#fffafa;stroke:#211c1d;stroke-width:0.1;stroke-linecap:butt;stroke-linejoin:miter;stroke-miterlimit:4;stroke-opacity:1;stroke-dasharray:none" id="7q21.3-1" d="m 38.797875,214.03048749999996 11.3818375,0.0 0,-2.492737500000004 -11.3818375,-0.0 0,2.492737500000004 z "/>
<path style="fill:#fffafa;stroke:#211c1d;stroke-width:0.1;stroke-linecap:butt;stroke-linejoin:miter;stroke-miterlimit:4;stroke-opacity:1;stroke-dasharray:none" id="7q11.22-1" d="m 38.797875,182.07715 11.3818375,0.0 0,-6.683399999999978 -11.3818375,-0.0 0,6.683399999999978 z "/>
<path style="fill:#fffafa;stroke:#211c1d;stroke-width:0.1;stroke-linecap:butt;stroke-linejoin:miter;stroke-miterlimit:4;stroke-opacity:1;stroke-dasharray:none" id="7p14.3-1" d="m 38.797875,138.79634999999996 11.3818375,0.0 0,-1.132599999999968 -11.3818375,-0.0 0,1.132599999999968 z "/>
<path style="fill:#fffafa;stroke:#211c1d;stroke-width:0.1;stroke-linecap:butt;stroke-linejoin:miter;stroke-miterlimit:4;stroke-opacity:1;stroke-dasharray:none" id="7q36.2-1" d="m 38.797875,292.206275 11.3818375,0.0 0,-6.7964000000000055 -11.3818375,-0.0 0,6.7964000000000055 z "/>
<path style="fill:#fffafa;stroke:#211c1d;stroke-width:0.1;stroke-linecap:butt;stroke-linejoin:miter;stroke-miterlimit:4;stroke-opacity:1;stroke-dasharray:none" id="7q31.31-1" d="m 38.797875,246.43229999999997 11.3818375,0.0 0,-4.077050000000014 -11.3818375,-0.0 0,4.077050000000014 z "/>
<path style="fill:#fffafa;stroke:#211c1d;stroke-width:0.1;stroke-linecap:butt;stroke-linejoin:miter;stroke-miterlimit:4;stroke-opacity:1;stroke-dasharray:none" id="7q32.2-1" d="m 38.797875,259.57734999999997 11.3818375,0.0 0,-2.2660999999999945 -11.3818375,-0.0 0,2.2660999999999945 z "/>
<path style="fill:#fffafa;stroke:#211c1d;stroke-width:0.1;stroke-linecap:butt;stroke-linejoin:miter;stroke-miterlimit:4;stroke-opacity:1;stroke-dasharray:none" id="7q33-1" d="m 38.797875,267.28147499999994 11.3818375,0.0 0,-4.986349999999959 -11.3818375,-0.0 0,4.986349999999959 z "/>
<path style="fill:#fffafa;stroke:#211c1d;stroke-width:0.1;stroke-linecap:butt;stroke-linejoin:miter;stroke-miterlimit:4;stroke-opacity:1;stroke-dasharray:none" id="7p15.2-1" d="m 38.797875,133.585625 11.3818375,0.0 0,-4.984375 -11.3818375,-0.0 0,4.984375 z "/>
<path style="fill:#fffafa;stroke:#211c1d;stroke-width:0.1;stroke-linecap:butt;stroke-linejoin:miter;stroke-miterlimit:4;stroke-opacity:1;stroke-dasharray:none" id="7q22.2-1" d="m 38.797875,230.11738749999998 11.3818375,0.0 0,-10.649887500000006 -11.3818375,-0.0 0,10.649887500000006 z "/>
<path style="fill:#fffafa;stroke:#211c1d;stroke-width:0.1;stroke-linecap:butt;stroke-linejoin:miter;stroke-miterlimit:4;stroke-opacity:1;stroke-dasharray:none" id="7q31.1-1" d="m 38.797875,237.82399999999996 11.3818375,0.0 0,-3.627999999999986 -11.3818375,-0.0 0,3.627999999999986 z "/>
<path style="fill:#fffafa;stroke:#211c1d;stroke-width:0.1;stroke-linecap:butt;stroke-linejoin:miter;stroke-miterlimit:4;stroke-opacity:1;stroke-dasharray:none" id="bottom" d="m 38.797875,295.83225 0.0,3 c 0.0,1.416 2.5453750000000004,2.5634250000000005 5.6850000000000005,2.5634250000000005 3.13475,0.0 5.67875,-1.147425 5.67875,-2.5634250000000005 l 0.0,-3 -11.3818375,-0.0 z"/>
<path style="fill:#fffafa;stroke:#211c1d;stroke-width:0.1;stroke-linecap:butt;stroke-linejoin:miter;stroke-miterlimit:4;stroke-opacity:1;stroke-dasharray:none" id="7p21.3-1" d="m 38.797875,114.77759999999996 11.3818375,0.0 0,-1.3575999999999908 -11.3818375,-0.0 0,1.3575999999999908 z "/>
<path style="fill:#fffafa;stroke:#211c1d;stroke-width:0.1;stroke-linecap:butt;stroke-linejoin:miter;stroke-miterlimit:4;stroke-opacity:1;stroke-dasharray:none" id="7p21.1-1" d="m 38.797875,124.52263749999999 11.3818375,0.0 0,-6.345137500000021 -11.3818375,-0.0 0,6.345137500000021 z "/>
<path style="fill:#fffafa;stroke:#211c1d;stroke-width:0.1;stroke-linecap:butt;stroke-linejoin:miter;stroke-miterlimit:4;stroke-opacity:1;stroke-dasharray:none" id="7p22.2-1" d="m 38.797875,106.84676249999997 11.3818375,0.0 0,-4.531762499999985 -11.3818375,-0.0 0,4.531762499999985 z "/>
<path style="fill:#fffafa;stroke:#211c1d;stroke-width:0.1;stroke-linecap:butt;stroke-linejoin:miter;stroke-miterlimit:4;stroke-opacity:1;stroke-dasharray:none" id="7p14.1-1" d="m 38.797875,152.16878749999998 11.3818375,0.0 0,-7.253787500000016 -11.3818375,-0.0 0,7.253787500000016 z "/>
<path style="fill:#fffafa;stroke:#211c1d;stroke-width:0.1;stroke-linecap:butt;stroke-linejoin:miter;stroke-miterlimit:4;stroke-opacity:1;stroke-dasharray:none" id="7q35-1" d="m 38.797875,279.9699375 11.3818375,0.0 0,-7.705062500000054 -11.3818375,-0.0 0,7.705062500000054 z "/>
<path style="fill:#fffafa;stroke:#211c1d;stroke-width:0.1;stroke-linecap:butt;stroke-linejoin:miter;stroke-miterlimit:4;stroke-opacity:1;stroke-dasharray:none" id="7q21.11-1" d="m 38.797875,195.67402499999994 11.3818375,0.0 0,-9.517774999999943 -11.3818375,-0.0 0,9.517774999999943 z "/>
<path style="fill:#fffafa;stroke:#211c1d;stroke-width:0.1;stroke-linecap:butt;stroke-linejoin:miter;stroke-miterlimit:4;stroke-opacity:1;stroke-dasharray:none" id="7q31.33-1" d="m 38.797875,254.13742499999998 11.3818375,0.0 0,-2.718800000000016 -11.3818375,-0.0 0,2.718800000000016 z "/>
<path style="fill:#fffafa;stroke:#211c1d;stroke-width:0.1;stroke-linecap:butt;stroke-linejoin:miter;stroke-miterlimit:4;stroke-opacity:1;stroke-dasharray:none" id="7q21.13-0-1" d="m 38.797875,207.45816249999996 11.3818375,0.0 0,4.079587500000002 -11.3818375,-0.0 0,-4.079587500000002 z "/>
<path style="fill:#fffafa;stroke:#211c1d;stroke-width:0.1;stroke-linecap:butt;stroke-linejoin:miter;stroke-miterlimit:4;stroke-opacity:1;stroke-dasharray:none" id="top" d="m 38.797875,100.0508375 11.3818375,0.0 0.0,-4.5 c 0.0,-1.41625 -2.544,-2.56375 -5.67875,-2.56375 -3.1396250000000006,-0.0 -5.6850000000000005,1.1475 -5.6850000000000005,2.56375 l 0.0,4.5 z "/>
<path style="fill:#fffafa;stroke:#211c1d;stroke-width:0.1;stroke-linecap:butt;stroke-linejoin:miter;stroke-miterlimit:4;stroke-opacity:1;stroke-dasharray:none" id="7p12.3-1" d="m 38.797875,158.05964999999995 11.3818375,0.0 0,-1.5871499999999799 -11.3818375,-0.0 0,1.5871499999999799 z "/>
<path style="fill:#a4bdc8;fill-opacity:1;fill-rule:nonzero;stroke:none" id="centromere7-f" d="m 50.138125,175.39375 0.030375000000000003,-2.03875 c 0.0,-0.9650000000000001 -1.17775,-2.54875 -2.921,-3.455 1.7432500000000002,-0.90875 2.921,-2.49125 2.921,-3.4575 l -0.15725,0.62375 -11.017125,-0.0 -0.189375,-0.62375 c 0.0,0.96875 1.188875,2.55125 2.94325,3.4575 -1.7543750000000002,0.9062500000000001 -2.94325,2.48625 -2.94325,3.455 l 0.0,2.03875 11.333375,0.0 "/>
<path style="fill:none;stroke:#100f0d;stroke-width:0.8;stroke-linecap:butt;stroke-linejoin:miter;stroke-miterlimit:4;stroke-opacity:1;stroke-dasharray:none" id="centromere7-o" d="m 50.138125,175.39375 0.030375000000000003,-2.03875 c 0.0,-0.9650000000000001 -1.17775,-2.54875 -2.921,-3.455 1.7432500000000002,-0.90875 2.921,-2.49125 2.921,-3.4575 l -0.15725,0.62375 -11.017125,-0.0 -0.189375,-0.62375 c 0.0,0.96875 1.188875,2.55125 2.94325,3.4575 -1.7543750000000002,0.9062500000000001 -2.94325,2.48625 -2.94325,3.455 l 0.0,2.03875 11.333375,0.0 z "/>
<path style="fill:none;stroke:#211c1d;stroke-width:0.8;stroke-linecap:butt;stroke-linejoin:miter;stroke-miterlimit:4;stroke-opacity:1;stroke-dasharray:none" id="outline7" d="m 41.748000000000005,169.89999999999998 c -1.7543750000000002,0.9062500000000001 -2.94325,2.46 -2.94325,3.42625 l 0.0,125.90400000000001 c 0.0,1.416 2.5453750000000004,2.5634250000000005 5.6850000000000005,2.5634250000000005 3.13475,0.0 5.67875,-1.147425 5.67875,-2.5634250000000005 l 0.0,-126.0465 c 0.0,-0.66125 -1.17775,-2.3775000000000004 -2.921,-3.2837500000000004 1.7432500000000002,-0.9075 2.921,-2.4925 2.921,-3.4562500000000003 l 0.0,-70.92625 c 0.0,-1.41625 -2.544,-2.56375 -5.67875,-2.56375 -3.1396250000000006,-0.0 -5.6850000000000005,1.1475 -5.6850000000000005,2.56375 l 0.0,70.92625 c 0.0,0.9662500000000002 1.188875,2.55 2.94325,3.4562500000000003 z "/>
<path style="fill:none;stroke:#211c1d;stroke-width:0.8;stroke-linecap:butt;stroke-linejoin:miter;stroke-miterlimit:4;stroke-opacity:1;stroke-dasharray:none;display:none" id="centre7" d="M 41.349125,169.935 0.0,169.935 "/>
<text>
<tspan x="41.235375000000005" y="310.35519999999997" id="label7" style="font-size:7.19543791px;font-variant:normal;font-weight:normal;writing-mode:lr-tb;fill:#211c1d;fill-opacity:1;fill-rule:nonzero;stroke:none;font-family:Helvetica;-inkscape-font-specification:Helvetica">7</tspan>
</text>
</g>
</svg>
