<?xml version="1.0" encoding="UTF-8" standalone="no"?>
<!-- Created with Inkscape (http://www.inkscape.org/) -->

<svg
   xmlns:dc="http://purl.org/dc/elements/1.1/"
   xmlns:cc="http://creativecommons.org/ns#"
   xmlns:rdf="http://www.w3.org/1999/02/22-rdf-syntax-ns#"
   xmlns:svg="http://www.w3.org/2000/svg"
   xmlns="http://www.w3.org/2000/svg"
   version="1.1"
   width="50.474998"
   height="221.6375"
   id="svg2"
   xml:space="preserve"><metadata
     id="metadata8"><rdf:RDF><cc:Work
         rdf:about=""><dc:format>image/svg+xml</dc:format><dc:type
           rdf:resource="http://purl.org/dc/dcmitype/StillImage" /><dc:title></dc:title></cc:Work></rdf:RDF></metadata><defs
     id="defs6"><clipPath
       id="clipPath18"><path
         d="m 0,0 403.848,0 0,1773 L 0,1773 0,0 z"
         id="path20" /></clipPath></defs><g
     transform="matrix(1.25,0,0,-1.25,0,221.6375)"
     id="g10"><g
       transform="scale(0.1,0.1)"
       id="g12"><g
         id="g14"><g
           clip-path="url(#clipPath18)"
           id="g16"><g
             transform="scale(10,10)"
             id="g22"><text
               transform="matrix(1,0,0,-0.90697189,32.9883,3.13984)"
               id="text24"><tspan
                 x="0"
                 y="0"
                 id="tspan26"
                 style="font-size:7.19543791px;font-variant:normal;font-weight:normal;writing-mode:lr-tb;fill:#211c1d;fill-opacity:1;fill-rule:nonzero;stroke:none;font-family:Helvetica;-inkscape-font-specification:Helvetica">7</tspan></text>
</g><path
             d="m 401.105,1111.09 0.243,16.31 c 0,7.72 -9.422,20.39 -23.368,27.64 13.946,7.27 23.368,19.93 23.368,27.66 l -1.258,-4.99 -88.137,0 -1.515,4.99 c 0,-7.75 9.511,-20.41 23.546,-27.66 -14.035,-7.25 -23.546,-19.89 -23.546,-27.64 l 0,-16.31 90.667,0"
             id="path28"
             style="fill:#a4bdc8;fill-opacity:1;fill-rule:nonzero;stroke:none" /><path
             d="m 401.105,1111.09 0.243,16.31 c 0,7.72 -9.422,20.39 -23.368,27.64 13.946,7.27 23.368,19.93 23.368,27.66 l -1.258,-4.99 -88.137,0 -1.515,4.99 c 0,-7.75 9.511,-20.41 23.546,-27.66 -14.035,-7.25 -23.546,-19.89 -23.546,-27.64 l 0,-16.31 90.667,0 z"
             id="path30"
             style="fill:none;stroke:#100f0d;stroke-width:5;stroke-linecap:butt;stroke-linejoin:miter;stroke-miterlimit:4;stroke-opacity:1;stroke-dasharray:none" /><path
             d="m 310.383,1606.88 91.0547,0 0,52.5859 -91.0547,0 0,-52.5859 z"
             id="path32"
             style="fill:#211c1d;fill-opacity:1;fill-rule:nonzero;stroke:none" /><path
             d="m 310.383,1568.82 91.0547,0 0,27.1992 -91.0547,0 0,-27.1992 z"
             id="path34"
             style="fill:#211c1d;fill-opacity:1;fill-rule:nonzero;stroke:none" /><path
             d="m 310.383,876.34 91.0547,0 0,72.5078 -91.0547,0 0,-72.5078 z"
             id="path36"
             style="fill:#211c1d;fill-opacity:1;fill-rule:nonzero;stroke:none" /><path
             d="m 310.383,1485.43 91.0547,0 0,32.6289 -91.0547,0 0,-32.6289 z"
             id="path38"
             style="fill:#babbbc;fill-opacity:1;fill-rule:nonzero;stroke:none" /><path
             d="m 310.383,1485.43 91.0547,0 0,32.6289 -91.0547,0 0,-32.6289 z"
             id="path40"
             style="fill:none;stroke:#211c1d;stroke-width:0.61000001;stroke-linecap:butt;stroke-linejoin:miter;stroke-miterlimit:4;stroke-opacity:1;stroke-dasharray:none" /><path
             d="m 310.383,1024.99 91.0547,0 0,32.6328 -91.0547,0 0,-32.6328 z"
             id="path42"
             style="fill:#babbbc;fill-opacity:1;fill-rule:nonzero;stroke:none" /><path
             d="m 310.383,1024.99 91.0547,0 0,32.6328 -91.0547,0 0,-32.6328 z"
             id="path44"
             style="fill:none;stroke:#211c1d;stroke-width:0.61000001;stroke-linecap:butt;stroke-linejoin:miter;stroke-miterlimit:4;stroke-opacity:1;stroke-dasharray:none" /><path
             d="m 310.383,640.672 91.0547,0 0,32.6289 -91.0547,0 0,-32.6289 z"
             id="path46"
             style="fill:#babbbc;fill-opacity:1;fill-rule:nonzero;stroke:none" /><path
             d="m 310.383,640.672 91.0547,0 0,32.6289 -91.0547,0 0,-32.6289 z"
             id="path48"
             style="fill:none;stroke:#211c1d;stroke-width:0.61000001;stroke-linecap:butt;stroke-linejoin:miter;stroke-miterlimit:4;stroke-opacity:1;stroke-dasharray:none" /><path
             d="m 310.383,336.121 91.0547,0 0,39.8672 -91.0547,0 0,-39.8672 z"
             id="path50"
             style="fill:#babbbc;fill-opacity:1;fill-rule:nonzero;stroke:none" /><path
             d="m 310.383,336.121 91.0547,0 0,39.8672 -91.0547,0 0,-39.8672 z"
             id="path52"
             style="fill:none;stroke:#211c1d;stroke-width:0.61000001;stroke-linecap:butt;stroke-linejoin:miter;stroke-miterlimit:4;stroke-opacity:1;stroke-dasharray:none" /><path
             d="m 310.383,1695.72 91.0547,0 0,18.1133 -91.0547,0 0,-18.1133 z"
             id="path54"
             style="fill:#eae8e8;fill-opacity:1;fill-rule:nonzero;stroke:none" /><path
             d="m 310.383,1695.72 91.0547,0 0,18.1133 -91.0547,0 0,-18.1133 z"
             id="path56"
             style="fill:none;stroke:#211c1d;stroke-width:0.61000001;stroke-linecap:butt;stroke-linejoin:miter;stroke-miterlimit:4;stroke-opacity:1;stroke-dasharray:none" /><path
             d="m 310.383,415.879 91.0547,0 0,21.7422 -91.0547,0 0,-21.7422 z"
             id="path58"
             style="fill:#eae8e8;fill-opacity:1;fill-rule:nonzero;stroke:none" /><path
             d="m 310.383,415.879 91.0547,0 0,21.7422 -91.0547,0 0,-21.7422 z"
             id="path60"
             style="fill:none;stroke:#211c1d;stroke-width:0.61000001;stroke-linecap:butt;stroke-linejoin:miter;stroke-miterlimit:4;stroke-opacity:1;stroke-dasharray:none" /><path
             d="m 310.383,147.582 91.0547,0 0,29.0078 -91.0547,0 0,-29.0078 z"
             id="path62"
             style="fill:#eae8e8;fill-opacity:1;fill-rule:nonzero;stroke:none" /><path
             d="m 310.383,147.582 91.0547,0 0,29.0078 -91.0547,0 0,-29.0078 z"
             id="path64"
             style="fill:none;stroke:#211c1d;stroke-width:0.61000001;stroke-linecap:butt;stroke-linejoin:miter;stroke-miterlimit:4;stroke-opacity:1;stroke-dasharray:none" /><path
             d="m 310.383,1412.93 91.0547,0 0,32.625 -91.0547,0 0,-32.625 z"
             id="path66"
             style="fill:#7a7c81;fill-opacity:1;fill-rule:nonzero;stroke:none" /><path
             d="m 310.383,1412.93 91.0547,0 0,32.625 -91.0547,0 0,-32.625 z"
             id="path68"
             style="fill:none;stroke:#211c1d;stroke-width:0.61000001;stroke-linecap:butt;stroke-linejoin:miter;stroke-miterlimit:4;stroke-opacity:1;stroke-dasharray:none" /><path
             d="m 310.383,1354.92 91.0547,0 0,48.9492 -91.0547,0 0,-48.9492 z"
             id="path70"
             style="fill:#7a7c81;fill-opacity:1;fill-rule:nonzero;stroke:none" /><path
             d="m 310.383,1354.92 91.0547,0 0,48.9492 -91.0547,0 0,-48.9492 z"
             id="path72"
             style="fill:none;stroke:#211c1d;stroke-width:0.61000001;stroke-linecap:butt;stroke-linejoin:miter;stroke-miterlimit:4;stroke-opacity:1;stroke-dasharray:none" /><path
             d="m 310.383,1262.46 91.0547,0 0,34.4297 -91.0547,0 0,-34.4297 z"
             id="path74"
             style="fill:#7a7c81;fill-opacity:1;fill-rule:nonzero;stroke:none" /><path
             d="m 310.383,1262.46 91.0547,0 0,34.4297 -91.0547,0 0,-34.4297 z"
             id="path76"
             style="fill:none;stroke:#211c1d;stroke-width:0.61000001;stroke-linecap:butt;stroke-linejoin:miter;stroke-miterlimit:4;stroke-opacity:1;stroke-dasharray:none" /><path
             d="m 310.383,1217.13 91.0547,0 0,32.6328 -91.0547,0 0,-32.6328 z"
             id="path78"
             style="fill:#7a7c81;fill-opacity:1;fill-rule:nonzero;stroke:none" /><path
             d="m 310.383,1217.13 91.0547,0 0,32.6328 -91.0547,0 0,-32.6328 z"
             id="path80"
             style="fill:none;stroke:#211c1d;stroke-width:0.61000001;stroke-linecap:butt;stroke-linejoin:miter;stroke-miterlimit:4;stroke-opacity:1;stroke-dasharray:none" /><path
             d="m 310.383,821.938 91.0547,0 0,32.6367 -91.0547,0 0,-32.6367 z"
             id="path82"
             style="fill:#7a7c81;fill-opacity:1;fill-rule:nonzero;stroke:none" /><path
             d="m 310.383,821.938 91.0547,0 0,32.6367 -91.0547,0 0,-32.6367 z"
             id="path84"
             style="fill:none;stroke:#211c1d;stroke-width:0.61000001;stroke-linecap:butt;stroke-linejoin:miter;stroke-miterlimit:4;stroke-opacity:1;stroke-dasharray:none" /><path
             d="m 310.383,758.5 91.0547,0 0,43.4961 -91.0547,0 0,-43.4961 z"
             id="path86"
             style="fill:#7a7c81;fill-opacity:1;fill-rule:nonzero;stroke:none" /><path
             d="m 310.383,758.5 91.0547,0 0,43.4961 -91.0547,0 0,-43.4961 z"
             id="path88"
             style="fill:none;stroke:#211c1d;stroke-width:0.61000001;stroke-linecap:butt;stroke-linejoin:miter;stroke-miterlimit:4;stroke-opacity:1;stroke-dasharray:none" /><path
             d="m 310.383,575.398 91.0547,0 0,36.25 -91.0547,0 0,-36.25 z"
             id="path90"
             style="fill:#7a7c81;fill-opacity:1;fill-rule:nonzero;stroke:none" /><path
             d="m 310.383,575.398 91.0547,0 0,36.25 -91.0547,0 0,-36.25 z"
             id="path92"
             style="fill:none;stroke:#211c1d;stroke-width:0.61000001;stroke-linecap:butt;stroke-linejoin:miter;stroke-miterlimit:4;stroke-opacity:1;stroke-dasharray:none" /><path
             d="m 310.383,502.891 91.0547,0 0,39.8906 -91.0547,0 0,-39.8906 z"
             id="path94"
             style="fill:#7a7c81;fill-opacity:1;fill-rule:nonzero;stroke:none" /><path
             d="m 310.383,502.891 91.0547,0 0,39.8906 -91.0547,0 0,-39.8906 z"
             id="path96"
             style="fill:none;stroke:#211c1d;stroke-width:0.61000001;stroke-linecap:butt;stroke-linejoin:miter;stroke-miterlimit:4;stroke-opacity:1;stroke-dasharray:none" /><path
             d="m 310.383,455.75 91.0547,0 0,25.3906 -91.0547,0 0,-25.3906 z"
             id="path98"
             style="fill:#7a7c81;fill-opacity:1;fill-rule:nonzero;stroke:none" /><path
             d="m 310.383,455.75 91.0547,0 0,25.3906 -91.0547,0 0,-25.3906 z"
             id="path100"
             style="fill:none;stroke:#211c1d;stroke-width:0.61000001;stroke-linecap:butt;stroke-linejoin:miter;stroke-miterlimit:4;stroke-opacity:1;stroke-dasharray:none" /><path
             d="m 310.383,230.961 91.0547,0 0,43.5195 -91.0547,0 0,-43.5195 z"
             id="path102"
             style="fill:#7a7c81;fill-opacity:1;fill-rule:nonzero;stroke:none" /><path
             d="m 310.383,230.961 91.0547,0 0,43.5195 -91.0547,0 0,-43.5195 z"
             id="path104"
             style="fill:none;stroke:#211c1d;stroke-width:0.61000001;stroke-linecap:butt;stroke-linejoin:miter;stroke-miterlimit:4;stroke-opacity:1;stroke-dasharray:none" /><path
             d="m 333.984,1155.04 c -14.035,-7.25 -23.546,-19.68 -23.546,-27.41 l 0,-1007.232 c 0,-11.328 20.363,-20.5074 45.48,-20.5074 25.078,0 45.43,9.1794 45.43,20.5074 l 0,1008.372 c 0,5.29 -9.422,19.02 -23.368,26.27 13.946,7.26 23.368,19.94 23.368,27.65 l 0,567.41 c 0,11.33 -20.352,20.51 -45.43,20.51 -25.117,0 -45.48,-9.18 -45.48,-20.51 l 0,-567.41 c 0,-7.73 9.511,-20.4 23.546,-27.65 z"
             id="path106"
             style="fill:none;stroke:#211c1d;stroke-width:5;stroke-linecap:butt;stroke-linejoin:miter;stroke-miterlimit:4;stroke-opacity:1;stroke-dasharray:none" /><path
             d="M 330.793,1154.76 0,1154.76"
             id="path108"
             style="fill:none;stroke:#211c1d;stroke-width:5;stroke-linecap:butt;stroke-linejoin:miter;stroke-miterlimit:4;stroke-opacity:1;stroke-dasharray:none" /><g
             transform="scale(10,10)"
             id="g110"><text
               transform="matrix(1,0,0,-0.90698012,22.5371,115.732)"
               id="text112"><tspan
                 x="0 1.7353495 3.7363315 4.7364974"
                 y="0"
                 id="tspan114"
                 style="font-size:3.59771943px;font-variant:normal;font-weight:normal;writing-mode:lr-tb;fill:#231f20;fill-opacity:1;fill-rule:nonzero;stroke:none;font-family:Helvetica;-inkscape-font-specification:Helvetica">11.1</tspan><tspan
                 x="0 2.0003321 4.0006642 5.0008302"
                 y="-12.492115"
                 id="tspan116"
                 style="font-size:3.59771943px;font-variant:normal;font-weight:normal;writing-mode:lr-tb;fill:#231f20;fill-opacity:1;fill-rule:nonzero;stroke:none;font-family:Helvetica;-inkscape-font-specification:Helvetica">12.3</tspan><tspan
                 x="0 2.0003321 4.0006642 5.0008302"
                 y="63.959618"
                 id="tspan118"
                 style="font-size:3.59771943px;font-variant:normal;font-weight:normal;writing-mode:lr-tb;fill:#231f20;fill-opacity:1;fill-rule:nonzero;stroke:none;font-family:Helvetica;-inkscape-font-specification:Helvetica">31.1</tspan><tspan
                 x="0 2.0003321 4.0006642 5.0008302"
                 y="67.357742"
                 id="tspan120"
                 style="font-size:3.59771943px;font-variant:normal;font-weight:normal;writing-mode:lr-tb;fill:#231f20;fill-opacity:1;fill-rule:nonzero;stroke:none;font-family:Helvetica;-inkscape-font-specification:Helvetica">31.2</tspan><tspan
                 x="-1.998831 0.00150098 2.001833 3.0019989 5.0029778"
                 y="70.755432"
                 id="tspan122"
                 style="font-size:3.59771943px;font-variant:normal;font-weight:normal;writing-mode:lr-tb;fill:#231f20;fill-opacity:1;fill-rule:nonzero;stroke:none;font-family:Helvetica;-inkscape-font-specification:Helvetica">31.31</tspan><tspan
                 x="0 2.0003321 4.0006642 5.0008302"
                 y="85.345825"
                 id="tspan124"
                 style="font-size:3.59771943px;font-variant:normal;font-weight:normal;writing-mode:lr-tb;fill:#231f20;fill-opacity:1;fill-rule:nonzero;stroke:none;font-family:Helvetica;-inkscape-font-specification:Helvetica">32.3</tspan><tspan
                 x="0 2.0003321 4.0006642 5.0008302"
                 y="-63.260517"
                 id="tspan126"
                 style="font-size:3.59771943px;font-variant:normal;font-weight:normal;writing-mode:lr-tb;fill:#231f20;fill-opacity:1;fill-rule:nonzero;stroke:none;font-family:Helvetica;-inkscape-font-specification:Helvetica">22.3</tspan><tspan
                 x="-9.7933569 -7.793025 -5.7920461 -4.7918801"
                 y="-9.8940754"
                 id="tspan128"
                 style="font-size:3.59771943px;font-variant:normal;font-weight:normal;writing-mode:lr-tb;fill:#231f20;fill-opacity:1;fill-rule:nonzero;stroke:none;font-family:Helvetica;-inkscape-font-specification:Helvetica">12.2</tspan></text>
</g><path
             d="m 202.871,1256.27 110.938,0"
             id="path130"
             style="fill:none;stroke:#211c1d;stroke-width:1.82598996;stroke-linecap:butt;stroke-linejoin:miter;stroke-miterlimit:4;stroke-opacity:1;stroke-dasharray:none" /><g
             transform="scale(10,10)"
             id="g132"><text
               transform="matrix(1,0,0,-0.90698012,22.5371,111.925)"
               id="text134"><tspan
                 x="0 1.7353495 3.7363315 4.7364974"
                 y="0"
                 id="tspan136"
                 style="font-size:3.59771943px;font-variant:normal;font-weight:normal;writing-mode:lr-tb;fill:#231f20;fill-opacity:1;fill-rule:nonzero;stroke:none;font-family:Helvetica;-inkscape-font-specification:Helvetica">11.1</tspan><tspan
                 x="-1.998831 0.00150098 2.001833 3.0019989 5.0029778"
                 y="72.751762"
                 id="tspan138"
                 style="font-size:3.59771943px;font-variant:normal;font-weight:normal;writing-mode:lr-tb;fill:#231f20;fill-opacity:1;fill-rule:nonzero;stroke:none;font-family:Helvetica;-inkscape-font-specification:Helvetica">31.33</tspan><tspan
                 x="0 2.0003321 4.0006642 5.0008302"
                 y="-60.26218"
                 id="tspan140"
                 style="font-size:3.59771943px;font-variant:normal;font-weight:normal;writing-mode:lr-tb;fill:#231f20;fill-opacity:1;fill-rule:nonzero;stroke:none;font-family:Helvetica;-inkscape-font-specification:Helvetica">22.1</tspan><tspan
                 x="0 2.0003321 4.0006642 5.0008302"
                 y="-63.460033"
                 id="tspan142"
                 style="font-size:3.59771943px;font-variant:normal;font-weight:normal;writing-mode:lr-tb;fill:#231f20;fill-opacity:1;fill-rule:nonzero;stroke:none;font-family:Helvetica;-inkscape-font-specification:Helvetica">22.2</tspan><tspan
                 x="0 2.0003321 4.0006642 5.0008302"
                 y="-55.863571"
                 id="tspan144"
                 style="font-size:3.59771943px;font-variant:normal;font-weight:normal;writing-mode:lr-tb;fill:#231f20;fill-opacity:1;fill-rule:nonzero;stroke:none;font-family:Helvetica;-inkscape-font-specification:Helvetica">21.3</tspan><tspan
                 x="-9.7933569 -7.793025 -5.7920461 -4.7918801"
                 y="-52.26733"
                 id="tspan146"
                 style="font-size:3.59771943px;font-variant:normal;font-weight:normal;writing-mode:lr-tb;fill:#231f20;fill-opacity:1;fill-rule:nonzero;stroke:none;font-family:Helvetica;-inkscape-font-specification:Helvetica">21.2</tspan></text>
</g><path
             d="m 202.871,1602.52 110.938,0"
             id="path148"
             style="fill:none;stroke:#211c1d;stroke-width:1.82598996;stroke-linecap:butt;stroke-linejoin:miter;stroke-miterlimit:4;stroke-opacity:1;stroke-dasharray:none" /><g
             transform="scale(10,10)"
             id="g150"><text
               transform="matrix(1,0,0,-0.90698012,22.5371,156.974)"
               id="text152"><tspan
                 x="0 2.0003321 4.0006642 5.0008302"
                 y="0"
                 id="tspan154"
                 style="font-size:3.59771943px;font-variant:normal;font-weight:normal;writing-mode:lr-tb;fill:#231f20;fill-opacity:1;fill-rule:nonzero;stroke:none;font-family:Helvetica;-inkscape-font-specification:Helvetica">21.1</tspan><tspan
                 x="0 2.0003321 4.0006642 5.0008302"
                 y="4.3994679"
                 id="tspan156"
                 style="font-size:3.59771943px;font-variant:normal;font-weight:normal;writing-mode:lr-tb;fill:#231f20;fill-opacity:1;fill-rule:nonzero;stroke:none;font-family:Helvetica;-inkscape-font-specification:Helvetica">15.3</tspan><tspan
                 x="0 2.0003321 4.0006642 5.0008302"
                 y="8.7946358"
                 id="tspan158"
                 style="font-size:3.59771943px;font-variant:normal;font-weight:normal;writing-mode:lr-tb;fill:#231f20;fill-opacity:1;fill-rule:nonzero;stroke:none;font-family:Helvetica;-inkscape-font-specification:Helvetica">15.2</tspan><tspan
                 x="0 2.0003321 4.0006642 5.0008302"
                 y="12.792706"
                 id="tspan160"
                 style="font-size:3.59771943px;font-variant:normal;font-weight:normal;writing-mode:lr-tb;fill:#231f20;fill-opacity:1;fill-rule:nonzero;stroke:none;font-family:Helvetica;-inkscape-font-specification:Helvetica">15.1</tspan><tspan
                 x="0 2.0003321 4.0006642 5.0008302"
                 y="16.590076"
                 id="tspan162"
                 style="font-size:3.59771943px;font-variant:normal;font-weight:normal;writing-mode:lr-tb;fill:#231f20;fill-opacity:1;fill-rule:nonzero;stroke:none;font-family:Helvetica;-inkscape-font-specification:Helvetica">14.3</tspan><tspan
                 x="-9.7933569 -7.793025 -5.7920461 -4.7918801"
                 y="18.788736"
                 id="tspan164"
                 style="font-size:3.59771943px;font-variant:normal;font-weight:normal;writing-mode:lr-tb;fill:#231f20;fill-opacity:1;fill-rule:nonzero;stroke:none;font-family:Helvetica;-inkscape-font-specification:Helvetica">14.2</tspan></text>
</g><path
             d="m 202.871,1408.54 110.938,0"
             id="path166"
             style="fill:none;stroke:#211c1d;stroke-width:1.82598996;stroke-linecap:butt;stroke-linejoin:miter;stroke-miterlimit:4;stroke-opacity:1;stroke-dasharray:none" /><g
             transform="scale(10,10)"
             id="g168"><text
               transform="matrix(1,0,0,-0.90698012,22.5371,136.851)"
               id="text170"><tspan
                 x="0 2.0003321 4.0006642 5.0008302"
                 y="0"
                 id="tspan172"
                 style="font-size:3.59771943px;font-variant:normal;font-weight:normal;writing-mode:lr-tb;fill:#231f20;fill-opacity:1;fill-rule:nonzero;stroke:none;font-family:Helvetica;-inkscape-font-specification:Helvetica">14.1</tspan><tspan
                 x="2.9988308 4.9998097"
                 y="5.99646"
                 id="tspan174"
                 style="font-size:3.59771943px;font-variant:normal;font-weight:normal;writing-mode:lr-tb;fill:#231f20;fill-opacity:1;fill-rule:nonzero;stroke:none;font-family:Helvetica;-inkscape-font-specification:Helvetica">13</tspan><tspan
                 x="0 2.0003321 4.0006642 5.0008302"
                 y="15.891506"
                 id="tspan176"
                 style="font-size:3.59771943px;font-variant:normal;font-weight:normal;writing-mode:lr-tb;fill:#231f20;fill-opacity:1;fill-rule:nonzero;stroke:none;font-family:Helvetica;-inkscape-font-specification:Helvetica">12.1</tspan><tspan
                 x="0 1.7353495 3.7363315 4.7364974"
                 y="19.987341"
                 id="tspan178"
                 style="font-size:3.59771943px;font-variant:normal;font-weight:normal;writing-mode:lr-tb;fill:#231f20;fill-opacity:1;fill-rule:nonzero;stroke:none;font-family:Helvetica;-inkscape-font-specification:Helvetica">11.2</tspan><tspan
                 x="-1.998831 -0.2634815 1.7374974 2.7376635 4.7386456"
                 y="32.678356"
                 id="tspan180"
                 style="font-size:3.59771943px;font-variant:normal;font-weight:normal;writing-mode:lr-tb;fill:#231f20;fill-opacity:1;fill-rule:nonzero;stroke:none;font-family:Helvetica;-inkscape-font-specification:Helvetica">11.21</tspan><tspan
                 x="-1.998831 -0.2634815 1.7374974 2.7376635 4.7386456"
                 y="37.476212"
                 id="tspan182"
                 style="font-size:3.59771943px;font-variant:normal;font-weight:normal;writing-mode:lr-tb;fill:#231f20;fill-opacity:1;fill-rule:nonzero;stroke:none;font-family:Helvetica;-inkscape-font-specification:Helvetica">11.22</tspan><tspan
                 x="-1.998831 -0.2634815 1.7374974 2.7376635 4.7386456"
                 y="44.47403"
                 id="tspan184"
                 style="font-size:3.59771943px;font-variant:normal;font-weight:normal;writing-mode:lr-tb;fill:#231f20;fill-opacity:1;fill-rule:nonzero;stroke:none;font-family:Helvetica;-inkscape-font-specification:Helvetica">11.23</tspan><tspan
                 x="-1.998831 0.00150098 2.001833 3.0019989 4.7383294"
                 y="51.467106"
                 id="tspan186"
                 style="font-size:3.59771943px;font-variant:normal;font-weight:normal;writing-mode:lr-tb;fill:#231f20;fill-opacity:1;fill-rule:nonzero;stroke:none;font-family:Helvetica;-inkscape-font-specification:Helvetica">21.11</tspan><tspan
                 x="-1.998831 0.00150098 2.001833 3.0019989 5.0029778"
                 y="56.465229"
                 id="tspan188"
                 style="font-size:3.59771943px;font-variant:normal;font-weight:normal;writing-mode:lr-tb;fill:#231f20;fill-opacity:1;fill-rule:nonzero;stroke:none;font-family:Helvetica;-inkscape-font-specification:Helvetica">21.12</tspan><tspan
                 x="-1.998831 0.00150098 2.001833 3.0019989 5.0029778"
                 y="59.662224"
                 id="tspan190"
                 style="font-size:3.59771943px;font-variant:normal;font-weight:normal;writing-mode:lr-tb;fill:#231f20;fill-opacity:1;fill-rule:nonzero;stroke:none;font-family:Helvetica;-inkscape-font-specification:Helvetica">21.13</tspan><tspan
                 x="0 2.0003321 4.0006642 5.0008302"
                 y="66.056641"
                 id="tspan192"
                 style="font-size:3.59771943px;font-variant:normal;font-weight:normal;writing-mode:lr-tb;fill:#231f20;fill-opacity:1;fill-rule:nonzero;stroke:none;font-family:Helvetica;-inkscape-font-specification:Helvetica">21.3</tspan><tspan
                 x="-9.7933569 -7.793025 -5.7920461 -4.7918801"
                 y="62.160217"
                 id="tspan194"
                 style="font-size:3.59771943px;font-variant:normal;font-weight:normal;writing-mode:lr-tb;fill:#231f20;fill-opacity:1;fill-rule:nonzero;stroke:none;font-family:Helvetica;-inkscape-font-specification:Helvetica">21.2</tspan></text>
</g><path
             d="m 202.871,813.949 110.938,0"
             id="path196"
             style="fill:none;stroke:#211c1d;stroke-width:1.82598996;stroke-linecap:butt;stroke-linejoin:miter;stroke-miterlimit:4;stroke-opacity:1;stroke-dasharray:none" /><g
             transform="scale(10,10)"
             id="g198"><text
               transform="matrix(1,0,0,-0.90698012,22.5371,70.4121)"
               id="text200"><tspan
                 x="0 2.0003321 4.0006642 5.0008302"
                 y="0"
                 id="tspan202"
                 style="font-size:3.59771943px;font-variant:normal;font-weight:normal;writing-mode:lr-tb;fill:#231f20;fill-opacity:1;fill-rule:nonzero;stroke:none;font-family:Helvetica;-inkscape-font-specification:Helvetica">22.1</tspan><tspan
                 x="0 2.0003321 4.0006642 5.0008302"
                 y="6.1954389"
                 id="tspan204"
                 style="font-size:3.59771943px;font-variant:normal;font-weight:normal;writing-mode:lr-tb;fill:#231f20;fill-opacity:1;fill-rule:nonzero;stroke:none;font-family:Helvetica;-inkscape-font-specification:Helvetica">22.2</tspan><tspan
                 x="0 2.0003321 4.0006642 5.0008302"
                 y="9.7929707"
                 id="tspan206"
                 style="font-size:3.59771943px;font-variant:normal;font-weight:normal;writing-mode:lr-tb;fill:#231f20;fill-opacity:1;fill-rule:nonzero;stroke:none;font-family:Helvetica;-inkscape-font-specification:Helvetica">22.3</tspan><tspan
                 x="-11.791438 -9.7904596 -7.7901273 -6.7899613 -4.7889824"
                 y="24.286013"
                 id="tspan208"
                 style="font-size:3.59771943px;font-variant:normal;font-weight:normal;writing-mode:lr-tb;fill:#231f20;fill-opacity:1;fill-rule:nonzero;stroke:none;font-family:Helvetica;-inkscape-font-specification:Helvetica">31.32</tspan></text>
</g><path
             d="m 202.871,493.07 110.938,0"
             id="path210"
             style="fill:none;stroke:#211c1d;stroke-width:1.82598996;stroke-linecap:butt;stroke-linejoin:miter;stroke-miterlimit:4;stroke-opacity:1;stroke-dasharray:none" /><g
             transform="scale(10,10)"
             id="g212"><text
               transform="matrix(1,0,0,-0.90698012,12.7438,43.8551)"
               id="text214"><tspan
                 x="0 2.0003321 4.0013108 5.0014768"
                 y="0"
                 id="tspan216"
                 style="font-size:3.59771943px;font-variant:normal;font-weight:normal;writing-mode:lr-tb;fill:#231f20;fill-opacity:1;fill-rule:nonzero;stroke:none;font-family:Helvetica;-inkscape-font-specification:Helvetica">32.1</tspan></text>
</g><path
             d="m 202.871,447.762 110.938,0"
             id="path218"
             style="fill:none;stroke:#211c1d;stroke-width:1.82598996;stroke-linecap:butt;stroke-linejoin:miter;stroke-miterlimit:4;stroke-opacity:1;stroke-dasharray:none" /><g
             transform="scale(10,10)"
             id="g220"><text
               transform="matrix(1,0,0,-0.90698012,22.5371,41.5879)"
               id="text222"><tspan
                 x="0 2.0003321 4.0006642 5.0008302"
                 y="0"
                 id="tspan224"
                 style="font-size:3.59771943px;font-variant:normal;font-weight:normal;writing-mode:lr-tb;fill:#231f20;fill-opacity:1;fill-rule:nonzero;stroke:none;font-family:Helvetica;-inkscape-font-specification:Helvetica">32.2</tspan><tspan
                 x="2.9988308 4.9998097"
                 y="7.795011"
                 id="tspan226"
                 style="font-size:3.59771943px;font-variant:normal;font-weight:normal;writing-mode:lr-tb;fill:#231f20;fill-opacity:1;fill-rule:nonzero;stroke:none;font-family:Helvetica;-inkscape-font-specification:Helvetica">33</tspan><tspan
                 x="2.9988308 4.9998097"
                 y="13.389213"
                 id="tspan228"
                 style="font-size:3.59771943px;font-variant:normal;font-weight:normal;writing-mode:lr-tb;fill:#231f20;fill-opacity:1;fill-rule:nonzero;stroke:none;font-family:Helvetica;-inkscape-font-specification:Helvetica">34</tspan><tspan
                 x="2.9988308 4.9998097"
                 y="18.788748"
                 id="tspan230"
                 style="font-size:3.59771943px;font-variant:normal;font-weight:normal;writing-mode:lr-tb;fill:#231f20;fill-opacity:1;fill-rule:nonzero;stroke:none;font-family:Helvetica;-inkscape-font-specification:Helvetica">35</tspan><tspan
                 x="0 2.0003321 4.0006642 5.0008302"
                 y="24.384239"
                 id="tspan232"
                 style="font-size:3.59771943px;font-variant:normal;font-weight:normal;writing-mode:lr-tb;fill:#231f20;fill-opacity:1;fill-rule:nonzero;stroke:none;font-family:Helvetica;-inkscape-font-specification:Helvetica">36.1</tspan><tspan
                 x="0 2.0003321 4.0006642 5.0008302"
                 y="28.981827"
                 id="tspan234"
                 style="font-size:3.59771943px;font-variant:normal;font-weight:normal;writing-mode:lr-tb;fill:#231f20;fill-opacity:1;fill-rule:nonzero;stroke:none;font-family:Helvetica;-inkscape-font-specification:Helvetica">36.2</tspan><tspan
                 x="0 2.0003321 4.0006642 5.0008302"
                 y="33.579414"
                 id="tspan236"
                 style="font-size:3.59771943px;font-variant:normal;font-weight:normal;writing-mode:lr-tb;fill:#231f20;fill-opacity:1;fill-rule:nonzero;stroke:none;font-family:Helvetica;-inkscape-font-specification:Helvetica">36.3</tspan></text>
</g></g></g></g></g></svg>