<?xml version="1.0" encoding="UTF-8"?>
<svg xmlns:xlink="http://www.w3.org/1999/xlink" xmlns="http://www.w3.org/2000/svg" contentScriptType="text/ecmascript" zoomAndPan="magnify" contentStyleType="text/css" preserveAspectRatio="xMidYMid meet" version="1.0">
<g id="chromosome8">
<path style="fill:#a4bdc8;fill-opacity:1;fill-rule:nonzero;stroke:none" d="m 50.13575,173.8075 0.03025,-0.45375 c 0.0,-0.9650000000000001 -1.1782500000000002,-2.54875 -2.920875,-3.455 1.742625,-0.9075 2.920875,-2.49125 2.920875,-3.4562500000000003 l -0.15475,0.62375 -11.0205,-0.0 -0.18600000000000003,-0.62375 c 0.0,0.9650000000000001 1.187,2.55 2.939375,3.4562500000000003 -1.7523750000000002,0.90375 -2.939375,2.4875 -2.939375,3.455 l 0.0,0.45375 11.331,0.0 " id="centromere8-f"/>
<path style="fill:none;stroke:#100f0d;stroke-width:0.8;stroke-linecap:butt;stroke-linejoin:miter;stroke-miterlimit:4;stroke-opacity:1;stroke-dasharray:none" d="m 50.13575,173.8075 0.03025,-0.45375 c 0.0,-0.9650000000000001 -1.1782500000000002,-2.54875 -2.920875,-3.455 1.742625,-0.9075 2.920875,-2.49125 2.920875,-3.4562500000000003 l -0.15475,0.62375 -11.0205,-0.0 -0.18600000000000003,-0.62375 c 0.0,0.9650000000000001 1.187,2.55 2.939375,3.4562500000000003 -1.7523750000000002,0.90375 -2.939375,2.4875 -2.939375,3.455 l 0.0,0.45375 11.331,0.0 z " id="centromere8-o"/>
<path style="fill:#211c1d;fill-opacity:1;fill-rule:nonzero;stroke:none" d="m 38.796375,137.89124999999999 11.379400000000002,0.0 0.0,-6.799312500000001 -11.379400000000002,-0.0 0.0,6.799312500000001 z " id="path3243"/>
<path style="fill:#211c1d;fill-opacity:1;fill-rule:nonzero;stroke:none" d="m 38.796375,214.934 11.379400000000002,0.0 0.0,-5.438475 -11.379400000000002,-0.0 0.0,5.438475 z " id="path3245"/>
<path style="fill:#211c1d;fill-opacity:1;fill-rule:nonzero;stroke:none" d="m 38.796375,230.56975 11.379400000000002,0.0 0.0,-7.023925000000001 -11.379400000000002,-0.0 0.0,7.023925000000001 z " id="path3247"/>
<path style="fill:#211c1d;fill-opacity:1;fill-rule:nonzero;stroke:none" d="m 38.796375,258.894875 11.379400000000002,0.0 0.0,-7.248537500000001 -11.379400000000002,-0.0 0.0,7.248537500000001 z " id="path3249"/>
<path style="fill:#e9eae9;fill-opacity:1;fill-rule:nonzero;stroke:none" d="m 38.796375,163.04250000000002 11.379400000000002,0.0 0.0,-2.492675 -11.379400000000002,-0.0 0.0,2.492675 z " id="path3251"/>
<path style="fill:none;stroke:#211c1d;stroke-width:0.1;stroke-linecap:butt;stroke-linejoin:miter;stroke-miterlimit:4;stroke-opacity:1;stroke-dasharray:none" d="m 38.796375,163.04250000000002 11.379400000000002,0.0 0.0,-2.492675 -11.379400000000002,-0.0 0.0,2.492675 z " id="path3253"/>
<path style="fill:#e9eae9;fill-opacity:1;fill-rule:nonzero;stroke:none" d="m 38.796375,239.405125 11.379400000000002,0.0 0.0,-2.715825 -11.379400000000002,-0.0 0.0,2.715825 z " id="path3255"/>
<path style="fill:none;stroke:#211c1d;stroke-width:0.1;stroke-linecap:butt;stroke-linejoin:miter;stroke-miterlimit:4;stroke-opacity:1;stroke-dasharray:none" d="m 38.796375,239.405125 11.379400000000002,0.0 0.0,-2.715825 -11.379400000000002,-0.0 0.0,2.715825 z " id="path3257"/>
<path style="fill:#7a7e82;fill-opacity:1;fill-rule:nonzero;stroke:none" d="m 38.796375,123.38750000000002 11.379400000000002,0.0 0.0,-4.7597625 -11.379400000000002,-0.0 0.0,4.7597625 z " id="path3259"/>
<path style="fill:none;stroke:#211c1d;stroke-width:0.1;stroke-linecap:butt;stroke-linejoin:miter;stroke-miterlimit:4;stroke-opacity:1;stroke-dasharray:none" d="m 38.796375,123.38750000000002 11.379400000000002,0.0 0.0,-4.7597625 -11.379400000000002,-0.0 0.0,4.7597625 z " id="path3261"/>
<path style="fill:#7a7e82;fill-opacity:1;fill-rule:nonzero;stroke:none" d="m 38.796375,157.60500000000002 11.379400000000002,0.0 0.0,-5.666012500000001 -11.379400000000002,-0.0 0.0,5.666012500000001 z " id="path3263"/>
<path style="fill:none;stroke:#211c1d;stroke-width:0.1;stroke-linecap:butt;stroke-linejoin:miter;stroke-miterlimit:4;stroke-opacity:1;stroke-dasharray:none" d="m 38.796375,157.60500000000002 11.379400000000002,0.0 0.0,-5.666012500000001 -11.379400000000002,-0.0 0.0,5.666012500000001 z " id="path3265"/>
<path style="fill:#7a7e82;fill-opacity:1;fill-rule:nonzero;stroke:none" d="m 38.796375,181.85125 11.379400000000002,0.0 0.0,-4.7583 -11.379400000000002,-0.0 0.0,4.7583 z " id="path3267"/>
<path style="fill:none;stroke:#211c1d;stroke-width:0.1;stroke-linecap:butt;stroke-linejoin:miter;stroke-miterlimit:4;stroke-opacity:1;stroke-dasharray:none" d="m 38.796375,181.85125 11.379400000000002,0.0 0.0,-4.7583 -11.379400000000002,-0.0 0.0,4.7583 z " id="path3269"/>
<path style="fill:#7a7e82;fill-opacity:1;fill-rule:nonzero;stroke:none" d="m 38.796375,221.279125 11.379400000000002,0.0 0.0,-4.7597625 -11.379400000000002,-0.0 0.0,4.7597625 z " id="path3271"/>
<path style="fill:none;stroke:#211c1d;stroke-width:0.1;stroke-linecap:butt;stroke-linejoin:miter;stroke-miterlimit:4;stroke-opacity:1;stroke-dasharray:none" d="m 38.796375,221.279125 11.379400000000002,0.0 0.0,-4.7597625 -11.379400000000002,-0.0 0.0,4.7597625 z " id="path3273"/>
<path style="fill:#7a7e82;fill-opacity:1;fill-rule:nonzero;stroke:none" d="m 38.796375,249.377375 11.379400000000002,0.0 0.0,-4.9848625 -11.379400000000002,-0.0 0.0,4.9848625 z " id="path3275"/>
<path style="fill:none;stroke:#211c1d;stroke-width:0.1;stroke-linecap:butt;stroke-linejoin:miter;stroke-miterlimit:4;stroke-opacity:1;stroke-dasharray:none" d="m 38.796375,249.377375 11.379400000000002,0.0 0.0,-4.9848625 -11.379400000000002,-0.0 0.0,4.9848625 z " id="path3277"/>
<path style="fill:#7a7e82;fill-opacity:1;fill-rule:nonzero;stroke:none" d="m 38.796375,286.08725000000004 11.379400000000002,0.0 0.0,-4.3046875 -11.379400000000002,-0.0 0.0,4.3046875 z " id="path3279"/>
<path style="fill:none;stroke:#211c1d;stroke-width:0.1;stroke-linecap:butt;stroke-linejoin:miter;stroke-miterlimit:4;stroke-opacity:1;stroke-dasharray:none" d="m 38.796375,286.08725000000004 11.379400000000002,0.0 0.0,-4.3046875 -11.379400000000002,-0.0 0.0,4.3046875 z " id="path3281"/>
<path style="fill:#bbbcbd;fill-opacity:1;fill-rule:nonzero;stroke:none" d="m 38.796375,146.04625 11.379400000000002,0.0 0.0,-4.078125 -11.379400000000002,-0.0 0.0,4.078125 z " id="path3283"/>
<path style="fill:none;stroke:#211c1d;stroke-width:0.1;stroke-linecap:butt;stroke-linejoin:miter;stroke-miterlimit:4;stroke-opacity:1;stroke-dasharray:none" d="m 38.796375,146.04625 11.379400000000002,0.0 0.0,-4.078125 -11.379400000000002,-0.0 0.0,4.078125 z " id="path3285"/>
<path style="fill:#bbbcbd;fill-opacity:1;fill-rule:nonzero;stroke:none" d="m 38.796375,191.59562499999998 11.379400000000002,0.0 0.0,-4.3056625 -11.379400000000002,-0.0 0.0,4.3056625 z " id="path3287"/>
<path style="fill:none;stroke:#211c1d;stroke-width:0.1;stroke-linecap:butt;stroke-linejoin:miter;stroke-miterlimit:4;stroke-opacity:1;stroke-dasharray:none" d="m 38.796375,191.59562499999998 11.379400000000002,0.0 0.0,-4.3056625 -11.379400000000002,-0.0 0.0,4.3056625 z " id="path3289"/>
<path style="fill:#bbbcbd;fill-opacity:1;fill-rule:nonzero;stroke:none" d="m 38.796375,198.84562499999998 11.379400000000002,0.0 0.0,-4.3056625 -11.379400000000002,-0.0 0.0,4.3056625 z " id="path3291"/>
<path style="fill:none;stroke:#211c1d;stroke-width:0.1;stroke-linecap:butt;stroke-linejoin:miter;stroke-miterlimit:4;stroke-opacity:1;stroke-dasharray:none" d="m 38.796375,198.84562499999998 11.379400000000002,0.0 0.0,-4.3056625 -11.379400000000002,-0.0 0.0,4.3056625 z " id="path3293"/>
<path style="fill:#bbbcbd;fill-opacity:1;fill-rule:nonzero;stroke:none" d="m 38.796375,211.707875 11.379400000000002,0.0 0.0,-10.141600000000002 -11.379400000000002,-0.0 0.0,10.141600000000002 z " id="path3295"/>
<path style="fill:none;stroke:#211c1d;stroke-width:0.1;stroke-linecap:butt;stroke-linejoin:miter;stroke-miterlimit:4;stroke-opacity:1;stroke-dasharray:none" d="m 38.796375,211.707875 11.379400000000002,0.0 0.0,-10.141600000000002 -11.379400000000002,-0.0 0.0,10.141600000000002 z " id="path3297"/>
<path style="fill:#bbbcbd;fill-opacity:1;fill-rule:nonzero;stroke:none" d="m 38.796375,277.022375 11.379400000000002,0.0 0.0,-4.3037125 -11.379400000000002,-0.0 0.0,4.3037125 z " id="path3299"/>
<path style="fill:none;stroke:#211c1d;stroke-width:0.1;stroke-linecap:butt;stroke-linejoin:miter;stroke-miterlimit:4;stroke-opacity:1;stroke-dasharray:none" d="m 38.796375,277.022375 11.379400000000002,0.0 0.0,-4.3037125 -11.379400000000002,-0.0 0.0,4.3037125 z " id="path3301"/>
<path style="fill:#bbbcbd;fill-opacity:1;fill-rule:nonzero;stroke:none" d="m 38.796375,266.14637500000003 11.379400000000002,0.0 0.0,-4.305175 -11.379400000000002,-0.0 0.0,4.305175 z " id="path3303"/>
<path style="fill:none;stroke:#211c1d;stroke-width:0.1;stroke-linecap:butt;stroke-linejoin:miter;stroke-miterlimit:4;stroke-opacity:1;stroke-dasharray:none" d="m 38.796375,266.14637500000003 11.379400000000002,0.0 0.0,-4.305175 -11.379400000000002,-0.0 0.0,4.305175 z " id="path3305"/>
<path style="fill:none;stroke:#211c1d;stroke-width:0.8;stroke-linecap:butt;stroke-linejoin:miter;stroke-miterlimit:4;stroke-opacity:1;stroke-dasharray:none" d="m 41.744125,169.89875 c -1.7523750000000002,0.90375 -2.939375,2.45875 -2.939375,3.42625 l 0.0,118.654875 c 0.0,1.4175000000000002 2.542875,2.564 5.681625,2.564 3.136625,0.0 5.679625000000001,-1.1465 5.679625000000001,-2.564 l 0.0,-118.796125 c 0.0,-0.6625000000000001 -1.1782500000000002,-2.37875 -2.920875,-3.285 1.742625,-0.9075 2.920875,-2.49125 2.920875,-3.4562500000000003 l 0.0,-47.815000000000005 c 0.0,-1.41375 -2.543,-2.56125 -5.679625000000001,-2.56125 -3.13875,-0.0 -5.681625,1.1475 -5.681625,2.56125 l 0.0,47.815000000000005 c 0.0,0.9650000000000001 1.187,2.55 2.939375,3.4562500000000003 z " id="outline8"/>
<path style="fill:none;stroke:#231f20;stroke-width:0.8;stroke-linecap:butt;stroke-linejoin:miter;stroke-miterlimit:4;stroke-opacity:1;stroke-dasharray:none;display:none" d="M 41.34625,169.935 0.0,169.935 " id="centre8"/>
<text>
<tspan x="41.2915" y="303.19763750000004" id="label8" style="font-size:7.19543791px;font-variant:normal;font-weight:normal;writing-mode:lr-tb;fill:#211c1d;fill-opacity:1;fill-rule:nonzero;stroke:none;font-family:Helvetica;-inkscape-font-specification:Helvetica">8</tspan>
</text>
</g>
</svg>
