<?xml version="1.0" encoding="UTF-8"?>
<svg xmlns:xlink="http://www.w3.org/1999/xlink" xmlns="http://www.w3.org/2000/svg" contentScriptType="text/ecmascript" zoomAndPan="magnify" contentStyleType="text/css" preserveAspectRatio="xMidYMid meet" version="1.0">

<g id="chromosome8" title="Chromosome 8">
<path style="fill:#211c1d;fill-opacity:1;fill-rule:nonzero;stroke:none" id="8p22" d="m 38.796375,137.89124999999999 11.379400000000002,0.0 0.0,-6.799312500000001 -11.379400000000002,-0.0 0.0,6.799312500000001 z "/>
<path style="fill:#211c1d;fill-opacity:1;fill-rule:nonzero;stroke:none" id="8q21.11" d="m 38.796375,214.934 11.379400000000002,0.0 0.0,-5.438475 -11.379400000000002,-0.0 0.0,5.438475 z "/>
<path style="fill:#211c1d;fill-opacity:1;fill-rule:nonzero;stroke:none" id="8q21.3" d="m 38.796375,230.56975 11.379400000000002,0.0 0.0,-7.023925000000001 -11.379400000000002,-0.0 0.0,7.023925000000001 z "/>
<path style="fill:#211c1d;fill-opacity:1;fill-rule:nonzero;stroke:none" id="8q23.3" d="m 38.796375,258.894875 11.379400000000002,0.0 0.0,-7.248537500000001 -11.379400000000002,-0.0 0.0,7.248537500000001 z "/>
<path style="fill:#e9eae9;fill-opacity:1;fill-rule:nonzero;stroke:none" id="8p11.22" d="m 38.796375,163.04250000000002 11.379400000000002,0.0 0.0,-2.492675 -11.379400000000002,-0.0 0.0,2.492675 z "/>
<path style="fill:none;stroke:#211c1d;stroke-width:0.1;stroke-linecap:butt;stroke-linejoin:miter;stroke-miterlimit:4;stroke-opacity:1;stroke-dasharray:none" id="8p11.22-o" d="m 38.796375,163.04250000000002 11.379400000000002,0.0 0.0,-2.492675 -11.379400000000002,-0.0 0.0,2.492675 z "/>
<path style="fill:#e9eae9;fill-opacity:1;fill-rule:nonzero;stroke:none" id="8q22.2" d="m 38.796375,239.405125 11.379400000000002,0.0 0.0,-2.715825 -11.379400000000002,-0.0 0.0,2.715825 z "/>
<path style="fill:none;stroke:#211c1d;stroke-width:0.1;stroke-linecap:butt;stroke-linejoin:miter;stroke-miterlimit:4;stroke-opacity:1;stroke-dasharray:none" id="8q22.2-o" d="m 38.796375,239.405125 11.379400000000002,0.0 0.0,-2.715825 -11.379400000000002,-0.0 0.0,2.715825 z "/>
<path style="fill:#7a7e82;fill-opacity:1;fill-rule:nonzero;stroke:none" id="8p23.2" d="m 38.796375,123.38750000000002 11.379400000000002,0.0 0.0,-4.7597625 -11.379400000000002,-0.0 0.0,4.7597625 z "/>
<path style="fill:none;stroke:#211c1d;stroke-width:0.1;stroke-linecap:butt;stroke-linejoin:miter;stroke-miterlimit:4;stroke-opacity:1;stroke-dasharray:none" id="8p23.2-o" d="m 38.796375,123.38750000000002 11.379400000000002,0.0 0.0,-4.7597625 -11.379400000000002,-0.0 0.0,4.7597625 z "/>
<path style="fill:#7a7e82;fill-opacity:1;fill-rule:nonzero;stroke:none" id="8p12" d="m 38.796375,157.60500000000002 11.379400000000002,0.0 0.0,-5.666012500000001 -11.379400000000002,-0.0 0.0,5.666012500000001 z "/>
<path style="fill:none;stroke:#211c1d;stroke-width:0.1;stroke-linecap:butt;stroke-linejoin:miter;stroke-miterlimit:4;stroke-opacity:1;stroke-dasharray:none" id="8p12-o" d="m 38.796375,157.60500000000002 11.379400000000002,0.0 0.0,-5.666012500000001 -11.379400000000002,-0.0 0.0,5.666012500000001 z "/>
<path style="fill:#7a7e82;fill-opacity:1;fill-rule:nonzero;stroke:none" id="8q11.22" d="m 38.796375,181.85125 11.379400000000002,0.0 0.0,-4.7583 -11.379400000000002,-0.0 0.0,4.7583 z "/>
<path style="fill:none;stroke:#211c1d;stroke-width:0.1;stroke-linecap:butt;stroke-linejoin:miter;stroke-miterlimit:4;stroke-opacity:1;stroke-dasharray:none" id="8q11.22-o" d="m 38.796375,181.85125 11.379400000000002,0.0 0.0,-4.7583 -11.379400000000002,-0.0 0.0,4.7583 z "/>
<path style="fill:#7a7e82;fill-opacity:1;fill-rule:nonzero;stroke:none" id="8q21.13" d="m 38.796375,221.279125 11.379400000000002,0.0 0.0,-4.7597625 -11.379400000000002,-0.0 0.0,4.7597625 z "/>
<path style="fill:none;stroke:#211c1d;stroke-width:0.1;stroke-linecap:butt;stroke-linejoin:miter;stroke-miterlimit:4;stroke-opacity:1;stroke-dasharray:none" id="8q21.13-o" d="m 38.796375,221.279125 11.379400000000002,0.0 0.0,-4.7597625 -11.379400000000002,-0.0 0.0,4.7597625 z "/>
<path style="fill:#7a7e82;fill-opacity:1;fill-rule:nonzero;stroke:none" id="8q23.1" d="m 38.796375,249.377375 11.379400000000002,0.0 0.0,-4.9848625 -11.379400000000002,-0.0 0.0,4.9848625 z "/>
<path style="fill:none;stroke:#211c1d;stroke-width:0.1;stroke-linecap:butt;stroke-linejoin:miter;stroke-miterlimit:4;stroke-opacity:1;stroke-dasharray:none" id="8q23.1-o" d="m 38.796375,249.377375 11.379400000000002,0.0 0.0,-4.9848625 -11.379400000000002,-0.0 0.0,4.9848625 z "/>
<path style="fill:#7a7e82;fill-opacity:1;fill-rule:nonzero;stroke:none" id="8q24.23" d="m 38.796375,286.08725000000004 11.379400000000002,0.0 0.0,-4.3046875 -11.379400000000002,-0.0 0.0,4.3046875 z "/>
<path style="fill:none;stroke:#211c1d;stroke-width:0.1;stroke-linecap:butt;stroke-linejoin:miter;stroke-miterlimit:4;stroke-opacity:1;stroke-dasharray:none" id="8q24.23-o" d="m 38.796375,286.08725000000004 11.379400000000002,0.0 0.0,-4.3046875 -11.379400000000002,-0.0 0.0,4.3046875 z "/>
<path style="fill:#bbbcbd;fill-opacity:1;fill-rule:nonzero;stroke:none" id="8p21.2" d="m 38.796375,146.04625 11.379400000000002,0.0 0.0,-4.078125 -11.379400000000002,-0.0 0.0,4.078125 z "/>
<path style="fill:none;stroke:#211c1d;stroke-width:0.1;stroke-linecap:butt;stroke-linejoin:miter;stroke-miterlimit:4;stroke-opacity:1;stroke-dasharray:none" id="8p21.2-o" d="m 38.796375,146.04625 11.379400000000002,0.0 0.0,-4.078125 -11.379400000000002,-0.0 0.0,4.078125 z "/>
<path style="fill:#bbbcbd;fill-opacity:1;fill-rule:nonzero;stroke:none" id="8q12.1" d="m 38.796375,191.59562499999998 11.379400000000002,0.0 0.0,-4.3056625 -11.379400000000002,-0.0 0.0,4.3056625 z "/>
<path style="fill:none;stroke:#211c1d;stroke-width:0.1;stroke-linecap:butt;stroke-linejoin:miter;stroke-miterlimit:4;stroke-opacity:1;stroke-dasharray:none" id="8q12.1-o" d="m 38.796375,191.59562499999998 11.379400000000002,0.0 0.0,-4.3056625 -11.379400000000002,-0.0 0.0,4.3056625 z "/>
<path style="fill:#bbbcbd;fill-opacity:1;fill-rule:nonzero;stroke:none" id="8q12.3" d="m 38.796375,198.84562499999998 11.379400000000002,0.0 0.0,-4.3056625 -11.379400000000002,-0.0 0.0,4.3056625 z "/>
<path style="fill:none;stroke:#211c1d;stroke-width:0.1;stroke-linecap:butt;stroke-linejoin:miter;stroke-miterlimit:4;stroke-opacity:1;stroke-dasharray:none" id="8q12.3-o" d="m 38.796375,198.84562499999998 11.379400000000002,0.0 0.0,-4.3056625 -11.379400000000002,-0.0 0.0,4.3056625 z "/>
<path style="fill:#bbbcbd;fill-opacity:1;fill-rule:nonzero;stroke:none" id="8q13.2" d="m 38.796375,211.707875 11.379400000000002,0.0 0.0,-10.141600000000002 -11.379400000000002,-0.0 0.0,10.141600000000002 z "/>
<path style="fill:none;stroke:#211c1d;stroke-width:0.1;stroke-linecap:butt;stroke-linejoin:miter;stroke-miterlimit:4;stroke-opacity:1;stroke-dasharray:none" id="8q13.2-o" d="m 38.796375,211.707875 11.379400000000002,0.0 0.0,-10.141600000000002 -11.379400000000002,-0.0 0.0,10.141600000000002 z "/>
<path style="fill:#bbbcbd;fill-opacity:1;fill-rule:nonzero;stroke:none" id="8q24.21" d="m 38.796375,277.022375 11.379400000000002,0.0 0.0,-4.3037125 -11.379400000000002,-0.0 0.0,4.3037125 z "/>
<path style="fill:none;stroke:#211c1d;stroke-width:0.1;stroke-linecap:butt;stroke-linejoin:miter;stroke-miterlimit:4;stroke-opacity:1;stroke-dasharray:none" id="8q24.21-o" d="m 38.796375,277.022375 11.379400000000002,0.0 0.0,-4.3037125 -11.379400000000002,-0.0 0.0,4.3037125 z "/>
<path style="fill:#bbbcbd;fill-opacity:1;fill-rule:nonzero;stroke:none" id="8q24.12" d="m 38.796375,266.14637500000003 11.379400000000002,0.0 0.0,-4.305175 -11.379400000000002,-0.0 0.0,4.305175 z "/>
<path style="fill:none;stroke:#211c1d;stroke-width:0.1;stroke-linecap:butt;stroke-linejoin:miter;stroke-miterlimit:4;stroke-opacity:1;stroke-dasharray:none" id="8q24.12-o" d="m 38.796375,266.14637500000003 11.379400000000002,0.0 0.0,-4.305175 -11.379400000000002,-0.0 0.0,4.305175 z "/>
<path style="fill:#fffafa;stroke:#211c1d;stroke-width:0.1;stroke-linecap:butt;stroke-linejoin:miter;stroke-miterlimit:4;stroke-opacity:1;stroke-dasharray:none" id="8q12.1-1" d="m 38.796375,187.28996249999997 11.379400000000002,0.0 0,-5.43871249999998 -11.379400000000002,-0.0 0,5.43871249999998 z "/>
<path style="fill:#fffafa;stroke:#211c1d;stroke-width:0.1;stroke-linecap:butt;stroke-linejoin:miter;stroke-miterlimit:4;stroke-opacity:1;stroke-dasharray:none" id="8q21.13-1" d="m 38.796375,216.5193625 11.379400000000002,0.0 0,-1.5853625000000022 -11.379400000000002,-0.0 0,1.5853625000000022 z "/>
<path style="fill:#fffafa;stroke:#211c1d;stroke-width:0.1;stroke-linecap:butt;stroke-linejoin:miter;stroke-miterlimit:4;stroke-opacity:1;stroke-dasharray:none" id="8q24.23-1" d="m 38.796375,281.78256250000004 11.379400000000002,0.0 0,-4.760187500000029 -11.379400000000002,-0.0 0,4.760187500000029 z "/>
<path style="fill:#fffafa;stroke:#211c1d;stroke-width:0.1;stroke-linecap:butt;stroke-linejoin:miter;stroke-miterlimit:4;stroke-opacity:1;stroke-dasharray:none" id="8p12-1" d="m 38.796375,160.54982500000003 11.379400000000002,0.0 0,-2.9448250000000087 -11.379400000000002,-0.0 0,2.9448250000000087 z "/>
<path style="fill:#fffafa;stroke:#211c1d;stroke-width:0.1;stroke-linecap:butt;stroke-linejoin:miter;stroke-miterlimit:4;stroke-opacity:1;stroke-dasharray:none" id="8q11.22-1" d="m 38.796375,177.09295 11.379400000000002,0.0 0,-3.2854499999999973 -11.379400000000002,-0.0 0,3.2854499999999973 z "/>
<path style="fill:#fffafa;stroke:#211c1d;stroke-width:0.1;stroke-linecap:butt;stroke-linejoin:miter;stroke-miterlimit:4;stroke-opacity:1;stroke-dasharray:none" id="8q23.3-1" d="m 38.796375,251.64633750000002 11.379400000000002,0.0 0,-2.268962500000015 -11.379400000000002,-0.0 0,2.268962500000015 z "/>
<path style="fill:#fffafa;stroke:#211c1d;stroke-width:0.1;stroke-linecap:butt;stroke-linejoin:miter;stroke-miterlimit:4;stroke-opacity:1;stroke-dasharray:none" id="8p22-1" d="m 38.796375,141.968125 11.379400000000002,0.0 0,-4.076875000000001 -11.379400000000002,-0.0 0,4.076875000000001 z "/>
<path style="fill:#fffafa;stroke:#211c1d;stroke-width:0.1;stroke-linecap:butt;stroke-linejoin:miter;stroke-miterlimit:4;stroke-opacity:1;stroke-dasharray:none" id="8p21.2-1" d="m 38.796375,151.93898750000002 11.379400000000002,0.0 0,-5.892737500000038 -11.379400000000002,-0.0 0,5.892737500000038 z "/>
<path style="fill:#fffafa;stroke:#211c1d;stroke-width:0.1;stroke-linecap:butt;stroke-linejoin:miter;stroke-miterlimit:4;stroke-opacity:1;stroke-dasharray:none" id="8q24.12-1" d="m 38.796375,261.8412 11.379400000000002,0.0 0,-2.9463250000000016 -11.379400000000002,-0.0 0,2.9463250000000016 z "/>
<path style="fill:#fffafa;stroke:#211c1d;stroke-width:0.1;stroke-linecap:butt;stroke-linejoin:miter;stroke-miterlimit:4;stroke-opacity:1;stroke-dasharray:none" id="8q21.3-1" d="m 38.796375,223.545825 11.379400000000002,0.0 0,-2.2667000000000144 -11.379400000000002,-0.0 0,2.2667000000000144 z "/>
<path style="fill:#fffafa;stroke:#211c1d;stroke-width:0.1;stroke-linecap:butt;stroke-linejoin:miter;stroke-miterlimit:4;stroke-opacity:1;stroke-dasharray:none" id="8q24.21-1" d="m 38.796375,272.7186625 11.379400000000002,0.0 0,-6.572287499999959 -11.379400000000002,-0.0 0,6.572287499999959 z "/>
<path style="fill:#fffafa;stroke:#211c1d;stroke-width:0.1;stroke-linecap:butt;stroke-linejoin:miter;stroke-miterlimit:4;stroke-opacity:1;stroke-dasharray:none" id="8q13.2-1" d="m 38.796375,201.566275 11.379400000000002,0.0 0,-2.7206500000000062 -11.379400000000002,-0.0 0,2.7206500000000062 z "/>
<path style="fill:#fffafa;stroke:#211c1d;stroke-width:0.1;stroke-linecap:butt;stroke-linejoin:miter;stroke-miterlimit:4;stroke-opacity:1;stroke-dasharray:none" id="8q23.1-1" d="m 38.796375,244.3925125 11.379400000000002,0.0 0,-4.987387500000011 -11.379400000000002,-0.0 0,4.987387500000011 z "/>
<path style="fill:#fffafa;stroke:#211c1d;stroke-width:0.1;stroke-linecap:butt;stroke-linejoin:miter;stroke-miterlimit:4;stroke-opacity:1;stroke-dasharray:none" id="8q22.2-1" d="m 38.796375,236.6893 11.379400000000002,0.0 0,-6.119550000000004 -11.379400000000002,-0.0 0,6.119550000000004 z "/>
<path style="fill:#fffafa;stroke:#211c1d;stroke-width:0.1;stroke-linecap:butt;stroke-linejoin:miter;stroke-miterlimit:4;stroke-opacity:1;stroke-dasharray:none" id="bottom" d="m 38.796375,286.08725000000004 0.0,5.5 c 0.0,1.4175000000000002 2.542875,2.564 5.681625,2.564 3.136625,0.0 5.679625000000001,-1.1465 5.679625000000001,-2.564 l 0.0,-5.5 -11.379400000000002,-0.0 z"/>
<path style="fill:#fffafa;stroke:#211c1d;stroke-width:0.1;stroke-linecap:butt;stroke-linejoin:miter;stroke-miterlimit:4;stroke-opacity:1;stroke-dasharray:none" id="8q12.3-1" d="m 38.796375,194.53996249999997 11.379400000000002,0.0 0,-2.944337499999989 -11.379400000000002,-0.0 0,2.944337499999989 z "/>
<path style="fill:#fffafa;stroke:#211c1d;stroke-width:0.1;stroke-linecap:butt;stroke-linejoin:miter;stroke-miterlimit:4;stroke-opacity:1;stroke-dasharray:none" id="8p23.2-1" d="m 38.796375,131.09193749999997 11.379400000000002,0.0 0,-7.704437499999955 -11.379400000000002,-0.0 0,7.704437499999955 z "/>
<path style="fill:#fffafa;stroke:#211c1d;stroke-width:0.1;stroke-linecap:butt;stroke-linejoin:miter;stroke-miterlimit:4;stroke-opacity:1;stroke-dasharray:none" id="8p11.22-1" d="m 38.796375,166.44249999999997 11.379400000000002,0.0 0,-3.399999999999949 -11.379400000000002,-0.0 0,3.399999999999949 z "/>
<path style="fill:#fffafa;stroke:#211c1d;stroke-width:0.1;stroke-linecap:butt;stroke-linejoin:miter;stroke-miterlimit:4;stroke-opacity:1;stroke-dasharray:none" id="8q21.11-1" d="m 38.796375,209.495525 11.379400000000002,0.0 0,2.212350000000015 -11.379400000000002,-0.0 0,-2.212350000000015 z "/>
<path style="fill:#fffafa;stroke:#211c1d;stroke-width:0.1;stroke-linecap:butt;stroke-linejoin:miter;stroke-miterlimit:4;stroke-opacity:1;stroke-dasharray:none" id="top" d="m 38.796375,118.6277375 11.379400000000002,0.0 c 0.0,-1.41375 -2.543,-2.56125 -5.679625000000001,-2.56125 -3.13875,-0.0 -5.681625,1.1475 -5.681625,2.56125 z"/>
<path style="fill:#a4bdc8;fill-opacity:1;fill-rule:nonzero;stroke:none" id="centromere8-f" d="m 50.13575,173.8075 0.03025,-0.45375 c 0.0,-0.9650000000000001 -1.1782500000000002,-2.54875 -2.920875,-3.455 1.742625,-0.9075 2.920875,-2.49125 2.920875,-3.4562500000000003 l -0.15475,0.62375 -11.0205,-0.0 -0.18600000000000003,-0.62375 c 0.0,0.9650000000000001 1.187,2.55 2.939375,3.4562500000000003 -1.7523750000000002,0.90375 -2.939375,2.4875 -2.939375,3.455 l 0.0,0.45375 11.331,0.0 "/>
<path style="fill:none;stroke:#100f0d;stroke-width:0.8;stroke-linecap:butt;stroke-linejoin:miter;stroke-miterlimit:4;stroke-opacity:1;stroke-dasharray:none" id="centromere8-o" d="m 50.13575,173.8075 0.03025,-0.45375 c 0.0,-0.9650000000000001 -1.1782500000000002,-2.54875 -2.920875,-3.455 1.742625,-0.9075 2.920875,-2.49125 2.920875,-3.4562500000000003 l -0.15475,0.62375 -11.0205,-0.0 -0.18600000000000003,-0.62375 c 0.0,0.9650000000000001 1.187,2.55 2.939375,3.4562500000000003 -1.7523750000000002,0.90375 -2.939375,2.4875 -2.939375,3.455 l 0.0,0.45375 11.331,0.0 z "/>
<path style="fill:none;stroke:#211c1d;stroke-width:0.8;stroke-linecap:butt;stroke-linejoin:miter;stroke-miterlimit:4;stroke-opacity:1;stroke-dasharray:none" id="outline8" d="m 41.744125,169.89875 c -1.7523750000000002,0.90375 -2.939375,2.45875 -2.939375,3.42625 l 0.0,118.654875 c 0.0,1.4175000000000002 2.542875,2.564 5.681625,2.564 3.136625,0.0 5.679625000000001,-1.1465 5.679625000000001,-2.564 l 0.0,-118.796125 c 0.0,-0.6625000000000001 -1.1782500000000002,-2.37875 -2.920875,-3.285 1.742625,-0.9075 2.920875,-2.49125 2.920875,-3.4562500000000003 l 0.0,-47.815000000000005 c 0.0,-1.41375 -2.543,-2.56125 -5.679625000000001,-2.56125 -3.13875,-0.0 -5.681625,1.1475 -5.681625,2.56125 l 0.0,47.815000000000005 c 0.0,0.9650000000000001 1.187,2.55 2.939375,3.4562500000000003 z "/>
<path style="fill:none;stroke:#231f20;stroke-width:0.8;stroke-linecap:butt;stroke-linejoin:miter;stroke-miterlimit:4;stroke-opacity:1;stroke-dasharray:none;display:none" id="centre8" d="M 41.34625,169.935 0.0,169.935 "/>
<text>
<tspan x="41.2915" y="303.19763750000004" id="label8" style="font-size:7.19543791px;font-variant:normal;font-weight:normal;writing-mode:lr-tb;fill:#211c1d;fill-opacity:1;fill-rule:nonzero;stroke:none;font-family:Helvetica;-inkscape-font-specification:Helvetica">8</tspan>
</text>
</g>
</svg>
