<?xml version="1.0" encoding="UTF-8" standalone="no"?>
<!-- Created with Inkscape (http://www.inkscape.org/) -->

<svg
   xmlns:dc="http://purl.org/dc/elements/1.1/"
   xmlns:cc="http://creativecommons.org/ns#"
   xmlns:rdf="http://www.w3.org/1999/02/22-rdf-syntax-ns#"
   xmlns:svg="http://www.w3.org/2000/svg"
   xmlns="http://www.w3.org/2000/svg"
   version="1.1"
   width="50.474998"
   height="192.2375"
   id="svg3213"
   xml:space="preserve"><metadata
     id="metadata3219"><rdf:RDF><cc:Work
         rdf:about=""><dc:format>image/svg+xml</dc:format><dc:type
           rdf:resource="http://purl.org/dc/dcmitype/StillImage" /><dc:title></dc:title></cc:Work></rdf:RDF></metadata><defs
     id="defs3217"><clipPath
       id="clipPath3229"><path
         d="M 0,1537.9 0,0 l 403.828,0 0,1537.9 -403.828,0 z"
         id="path3231" /></clipPath></defs><g
     transform="matrix(1.25,0,0,-1.25,0,192.2375)"
     id="g3221"><g
       transform="scale(0.1,0.1)"
       id="g3223"><g
         id="g3225"><g
           clip-path="url(#clipPath3229)"
           id="g3227"><g
             transform="scale(10,10)"
             id="g3233"><text
               transform="matrix(1,0,0,-0.90697189,33.0332,3.13789)"
               id="text3235"><tspan
                 x="0"
                 y="0"
                 id="tspan3237"
                 style="font-size:7.19543791px;font-variant:normal;font-weight:normal;writing-mode:lr-tb;fill:#211c1d;fill-opacity:1;fill-rule:nonzero;stroke:none;font-family:Helvetica;-inkscape-font-specification:Helvetica">8</tspan></text>
</g><path
             d="m 401.086,1066.5 0.242,3.63 c 0,7.72 -9.426,20.39 -23.367,27.64 13.941,7.26 23.367,19.93 23.367,27.65 l -1.238,-4.99 -88.164,0 -1.488,4.99 c 0,-7.72 9.496,-20.4 23.515,-27.65 -14.019,-7.23 -23.515,-19.9 -23.515,-27.64 l 0,-3.63 90.648,0"
             id="path3239"
             style="fill:#a4bdc8;fill-opacity:1;fill-rule:nonzero;stroke:none" /><path
             d="m 401.086,1066.5 0.242,3.63 c 0,7.72 -9.426,20.39 -23.367,27.64 13.941,7.26 23.367,19.93 23.367,27.65 l -1.238,-4.99 -88.164,0 -1.488,4.99 c 0,-7.72 9.496,-20.4 23.515,-27.65 -14.019,-7.23 -23.515,-19.9 -23.515,-27.64 l 0,-3.63 90.648,0 z"
             id="path3241"
             style="fill:none;stroke:#100f0d;stroke-width:5;stroke-linecap:butt;stroke-linejoin:miter;stroke-miterlimit:4;stroke-opacity:1;stroke-dasharray:none" /><path
             d="m 310.371,1353.83 91.0352,0 0,54.3945 -91.0352,0 0,-54.3945 z"
             id="path3243"
             style="fill:#211c1d;fill-opacity:1;fill-rule:nonzero;stroke:none" /><path
             d="m 310.371,737.488 91.0352,0 0,43.5078 -91.0352,0 0,-43.5078 z"
             id="path3245"
             style="fill:#211c1d;fill-opacity:1;fill-rule:nonzero;stroke:none" /><path
             d="m 310.371,612.402 91.0352,0 0,56.1914 -91.0352,0 0,-56.1914 z"
             id="path3247"
             style="fill:#211c1d;fill-opacity:1;fill-rule:nonzero;stroke:none" /><path
             d="m 310.371,385.801 91.0352,0 0,57.9883 -91.0352,0 0,-57.9883 z"
             id="path3249"
             style="fill:#211c1d;fill-opacity:1;fill-rule:nonzero;stroke:none" /><path
             d="m 310.371,1152.62 91.0352,0 0,19.9414 -91.0352,0 0,-19.9414 z"
             id="path3251"
             style="fill:#e9eae9;fill-opacity:1;fill-rule:nonzero;stroke:none" /><path
             d="m 310.371,1152.62 91.0352,0 0,19.9414 -91.0352,0 0,-19.9414 z"
             id="path3253"
             style="fill:none;stroke:#211c1d;stroke-width:0.62;stroke-linecap:butt;stroke-linejoin:miter;stroke-miterlimit:4;stroke-opacity:1;stroke-dasharray:none" /><path
             d="m 310.371,541.719 91.0352,0 0,21.7266 -91.0352,0 0,-21.7266 z"
             id="path3255"
             style="fill:#e9eae9;fill-opacity:1;fill-rule:nonzero;stroke:none" /><path
             d="m 310.371,541.719 91.0352,0 0,21.7266 -91.0352,0 0,-21.7266 z"
             id="path3257"
             style="fill:none;stroke:#211c1d;stroke-width:0.62;stroke-linecap:butt;stroke-linejoin:miter;stroke-miterlimit:4;stroke-opacity:1;stroke-dasharray:none" /><path
             d="m 310.371,1469.86 91.0352,0 0,38.0781 -91.0352,0 0,-38.0781 z"
             id="path3259"
             style="fill:#7a7e82;fill-opacity:1;fill-rule:nonzero;stroke:none" /><path
             d="m 310.371,1469.86 91.0352,0 0,38.0781 -91.0352,0 0,-38.0781 z"
             id="path3261"
             style="fill:none;stroke:#211c1d;stroke-width:0.62;stroke-linecap:butt;stroke-linejoin:miter;stroke-miterlimit:4;stroke-opacity:1;stroke-dasharray:none" /><path
             d="m 310.371,1196.12 91.0352,0 0,45.3281 -91.0352,0 0,-45.3281 z"
             id="path3263"
             style="fill:#7a7e82;fill-opacity:1;fill-rule:nonzero;stroke:none" /><path
             d="m 310.371,1196.12 91.0352,0 0,45.3281 -91.0352,0 0,-45.3281 z"
             id="path3265"
             style="fill:none;stroke:#211c1d;stroke-width:0.62;stroke-linecap:butt;stroke-linejoin:miter;stroke-miterlimit:4;stroke-opacity:1;stroke-dasharray:none" /><path
             d="m 310.371,1002.15 91.0352,0 0,38.0664 -91.0352,0 0,-38.0664 z"
             id="path3267"
             style="fill:#7a7e82;fill-opacity:1;fill-rule:nonzero;stroke:none" /><path
             d="m 310.371,1002.15 91.0352,0 0,38.0664 -91.0352,0 0,-38.0664 z"
             id="path3269"
             style="fill:none;stroke:#211c1d;stroke-width:0.62;stroke-linecap:butt;stroke-linejoin:miter;stroke-miterlimit:4;stroke-opacity:1;stroke-dasharray:none" /><path
             d="m 310.371,686.727 91.0352,0 0,38.0781 -91.0352,0 0,-38.0781 z"
             id="path3271"
             style="fill:#7a7e82;fill-opacity:1;fill-rule:nonzero;stroke:none" /><path
             d="m 310.371,686.727 91.0352,0 0,38.0781 -91.0352,0 0,-38.0781 z"
             id="path3273"
             style="fill:none;stroke:#211c1d;stroke-width:0.62;stroke-linecap:butt;stroke-linejoin:miter;stroke-miterlimit:4;stroke-opacity:1;stroke-dasharray:none" /><path
             d="m 310.371,461.941 91.0352,0 0,39.8789 -91.0352,0 0,-39.8789 z"
             id="path3275"
             style="fill:#7a7e82;fill-opacity:1;fill-rule:nonzero;stroke:none" /><path
             d="m 310.371,461.941 91.0352,0 0,39.8789 -91.0352,0 0,-39.8789 z"
             id="path3277"
             style="fill:none;stroke:#211c1d;stroke-width:0.62;stroke-linecap:butt;stroke-linejoin:miter;stroke-miterlimit:4;stroke-opacity:1;stroke-dasharray:none" /><path
             d="m 310.371,168.262 91.0352,0 0,34.4375 -91.0352,0 0,-34.4375 z"
             id="path3279"
             style="fill:#7a7e82;fill-opacity:1;fill-rule:nonzero;stroke:none" /><path
             d="m 310.371,168.262 91.0352,0 0,34.4375 -91.0352,0 0,-34.4375 z"
             id="path3281"
             style="fill:none;stroke:#211c1d;stroke-width:0.62;stroke-linecap:butt;stroke-linejoin:miter;stroke-miterlimit:4;stroke-opacity:1;stroke-dasharray:none" /><path
             d="m 310.371,1288.59 91.0352,0 0,32.625 -91.0352,0 0,-32.625 z"
             id="path3283"
             style="fill:#bbbcbd;fill-opacity:1;fill-rule:nonzero;stroke:none" /><path
             d="m 310.371,1288.59 91.0352,0 0,32.625 -91.0352,0 0,-32.625 z"
             id="path3285"
             style="fill:none;stroke:#211c1d;stroke-width:0.62;stroke-linecap:butt;stroke-linejoin:miter;stroke-miterlimit:4;stroke-opacity:1;stroke-dasharray:none" /><path
             d="m 310.371,924.195 91.0352,0 0,34.4453 -91.0352,0 0,-34.4453 z"
             id="path3287"
             style="fill:#bbbcbd;fill-opacity:1;fill-rule:nonzero;stroke:none" /><path
             d="m 310.371,924.195 91.0352,0 0,34.4453 -91.0352,0 0,-34.4453 z"
             id="path3289"
             style="fill:none;stroke:#211c1d;stroke-width:0.62;stroke-linecap:butt;stroke-linejoin:miter;stroke-miterlimit:4;stroke-opacity:1;stroke-dasharray:none" /><path
             d="m 310.371,866.195 91.0352,0 0,34.4453 -91.0352,0 0,-34.4453 z"
             id="path3291"
             style="fill:#bbbcbd;fill-opacity:1;fill-rule:nonzero;stroke:none" /><path
             d="m 310.371,866.195 91.0352,0 0,34.4453 -91.0352,0 0,-34.4453 z"
             id="path3293"
             style="fill:none;stroke:#211c1d;stroke-width:0.62;stroke-linecap:butt;stroke-linejoin:miter;stroke-miterlimit:4;stroke-opacity:1;stroke-dasharray:none" /><path
             d="m 310.371,763.297 91.0352,0 0,81.1328 -91.0352,0 0,-81.1328 z"
             id="path3295"
             style="fill:#bbbcbd;fill-opacity:1;fill-rule:nonzero;stroke:none" /><path
             d="m 310.371,763.297 91.0352,0 0,81.1328 -91.0352,0 0,-81.1328 z"
             id="path3297"
             style="fill:none;stroke:#211c1d;stroke-width:0.62;stroke-linecap:butt;stroke-linejoin:miter;stroke-miterlimit:4;stroke-opacity:1;stroke-dasharray:none" /><path
             d="m 310.371,240.781 91.0352,0 0,34.4297 -91.0352,0 0,-34.4297 z"
             id="path3299"
             style="fill:#bbbcbd;fill-opacity:1;fill-rule:nonzero;stroke:none" /><path
             d="m 310.371,240.781 91.0352,0 0,34.4297 -91.0352,0 0,-34.4297 z"
             id="path3301"
             style="fill:none;stroke:#211c1d;stroke-width:0.62;stroke-linecap:butt;stroke-linejoin:miter;stroke-miterlimit:4;stroke-opacity:1;stroke-dasharray:none" /><path
             d="m 310.371,327.789 91.0352,0 0,34.4414 -91.0352,0 0,-34.4414 z"
             id="path3303"
             style="fill:#bbbcbd;fill-opacity:1;fill-rule:nonzero;stroke:none" /><path
             d="m 310.371,327.789 91.0352,0 0,34.4414 -91.0352,0 0,-34.4414 z"
             id="path3305"
             style="fill:none;stroke:#211c1d;stroke-width:0.62;stroke-linecap:butt;stroke-linejoin:miter;stroke-miterlimit:4;stroke-opacity:1;stroke-dasharray:none" /><path
             d="m 333.953,1097.77 c -14.019,-7.23 -23.515,-19.67 -23.515,-27.41 l 0,-949.239 c 0,-11.34 20.343,-20.512 45.453,-20.512 25.093,0 45.437,9.172 45.437,20.512 l 0,950.369 c 0,5.3 -9.426,19.03 -23.367,26.28 13.941,7.26 23.367,19.93 23.367,27.65 l 0,382.52 c 0,11.31 -20.344,20.49 -45.437,20.49 -25.11,0 -45.453,-9.18 -45.453,-20.49 l 0,-382.52 c 0,-7.72 9.496,-20.4 23.515,-27.65 z"
             id="path3307"
             style="fill:none;stroke:#211c1d;stroke-width:5;stroke-linecap:butt;stroke-linejoin:miter;stroke-miterlimit:4;stroke-opacity:1;stroke-dasharray:none" /><path
             d="M 330.77,1097.48 0,1097.48"
             id="path3309"
             style="fill:none;stroke:#231f20;stroke-width:5;stroke-linecap:butt;stroke-linejoin:miter;stroke-miterlimit:4;stroke-opacity:1;stroke-dasharray:none" /><g
             transform="scale(10,10)"
             id="g3311"><text
               transform="matrix(1,0,0,-0.90698012,22.8418,110.473)"
               id="text3313"><tspan
                 x="0 1.7353495 3.7363315 4.7364974"
                 y="0"
                 id="tspan3315"
                 style="font-size:3.59771943px;font-variant:normal;font-weight:normal;writing-mode:lr-tb;fill:#231f20;fill-opacity:1;fill-rule:nonzero;stroke:none;font-family:Helvetica;-inkscape-font-specification:Helvetica">11.1</tspan><tspan
                 x="0 1.7353495 3.7363315 4.7364974"
                 y="4.1961889"
                 id="tspan3317"
                 style="font-size:3.59771943px;font-variant:normal;font-weight:normal;writing-mode:lr-tb;fill:#231f20;fill-opacity:1;fill-rule:nonzero;stroke:none;font-family:Helvetica;-inkscape-font-specification:Helvetica">11.1</tspan><tspan
                 x="-0.26484373 1.7354883 3.7358203 4.7359862"
                 y="-44.670925"
                 id="tspan3319"
                 style="font-size:3.59771943px;font-variant:normal;font-weight:normal;writing-mode:lr-tb;fill:#231f20;fill-opacity:1;fill-rule:nonzero;stroke:none;font-family:Helvetica;-inkscape-font-specification:Helvetica">23.3</tspan><tspan
                 x="-1.9999975 -0.26464799 1.736331 2.7364969 4.7374792"
                 y="10.592691"
                 id="tspan3321"
                 style="font-size:3.59771943px;font-variant:normal;font-weight:normal;writing-mode:lr-tb;fill:#231f20;fill-opacity:1;fill-rule:nonzero;stroke:none;font-family:Helvetica;-inkscape-font-specification:Helvetica">11.22</tspan><tspan
                 x="-1.9999975 -0.26464799 1.736331 2.7364969 4.7374792"
                 y="14.991299"
                 id="tspan3323"
                 style="font-size:3.59771943px;font-variant:normal;font-weight:normal;writing-mode:lr-tb;fill:#231f20;fill-opacity:1;fill-rule:nonzero;stroke:none;font-family:Helvetica;-inkscape-font-specification:Helvetica">11.23</tspan><tspan
                 x="-0.26484373 1.7354883 3.7358203 4.7359862"
                 y="19.387327"
                 id="tspan3325"
                 style="font-size:3.59771943px;font-variant:normal;font-weight:normal;writing-mode:lr-tb;fill:#231f20;fill-opacity:1;fill-rule:nonzero;stroke:none;font-family:Helvetica;-inkscape-font-specification:Helvetica">12.1</tspan><tspan
                 x="-1.9999975 0.00033447001 2.0006664 3.0008326 4.7371631"
                 y="39.574982"
                 id="tspan3327"
                 style="font-size:3.59771943px;font-variant:normal;font-weight:normal;writing-mode:lr-tb;fill:#231f20;fill-opacity:1;fill-rule:nonzero;stroke:none;font-family:Helvetica;-inkscape-font-specification:Helvetica">21.11</tspan><tspan
                 x="-0.26484373 1.7354883 3.7358203 4.7359862"
                 y="62.56115"
                 id="tspan3329"
                 style="font-size:3.59771943px;font-variant:normal;font-weight:normal;writing-mode:lr-tb;fill:#231f20;fill-opacity:1;fill-rule:nonzero;stroke:none;font-family:Helvetica;-inkscape-font-specification:Helvetica">22.2</tspan><tspan
                 x="-0.26484373 1.7354883 3.7358203 4.7359862"
                 y="65.957985"
                 id="tspan3331"
                 style="font-size:3.59771943px;font-variant:normal;font-weight:normal;writing-mode:lr-tb;fill:#231f20;fill-opacity:1;fill-rule:nonzero;stroke:none;font-family:Helvetica;-inkscape-font-specification:Helvetica">22.3</tspan><tspan
                 x="-10.058598 -8.0582657 -6.0579333 -5.0577674"
                 y="73.25383"
                 id="tspan3333"
                 style="font-size:3.59771943px;font-variant:normal;font-weight:normal;writing-mode:lr-tb;fill:#231f20;fill-opacity:1;fill-rule:nonzero;stroke:none;font-family:Helvetica;-inkscape-font-specification:Helvetica">23.2</tspan></text>
</g><path
             d="m 202.844,450.328 110.945,0"
             id="path3335"
             style="fill:none;stroke:#231f20;stroke-width:1.82598996;stroke-linecap:butt;stroke-linejoin:miter;stroke-miterlimit:4;stroke-opacity:1;stroke-dasharray:none" /><g
             transform="scale(10,10)"
             id="g3337"><text
               transform="matrix(1,0,0,-0.90698012,22.577,147.906)"
               id="text3339"><tspan
                 x="0 2.0003321 4.0006642 5.0008302"
                 y="0"
                 id="tspan3341"
                 style="font-size:3.59771943px;font-variant:normal;font-weight:normal;writing-mode:lr-tb;fill:#231f20;fill-opacity:1;fill-rule:nonzero;stroke:none;font-family:Helvetica;-inkscape-font-specification:Helvetica">23.2</tspan><tspan
                 x="0 2.0003321 4.0006642 5.0008302"
                 y="5.595922"
                 id="tspan3343"
                 style="font-size:3.59771943px;font-variant:normal;font-weight:normal;writing-mode:lr-tb;fill:#231f20;fill-opacity:1;fill-rule:nonzero;stroke:none;font-family:Helvetica;-inkscape-font-specification:Helvetica">23.1</tspan><tspan
                 x="2.9999995 5.0009785"
                 y="12.390878"
                 id="tspan3345"
                 style="font-size:3.59771943px;font-variant:normal;font-weight:normal;writing-mode:lr-tb;fill:#231f20;fill-opacity:1;fill-rule:nonzero;stroke:none;font-family:Helvetica;-inkscape-font-specification:Helvetica">22</tspan><tspan
                 x="0 2.0003321 4.0006642 5.0008302"
                 y="16.789486"
                 id="tspan3347"
                 style="font-size:3.59771943px;font-variant:normal;font-weight:normal;writing-mode:lr-tb;fill:#231f20;fill-opacity:1;fill-rule:nonzero;stroke:none;font-family:Helvetica;-inkscape-font-specification:Helvetica">21.3</tspan><tspan
                 x="0 2.0003321 4.0006642 5.0008302"
                 y="20.585997"
                 id="tspan3349"
                 style="font-size:3.59771943px;font-variant:normal;font-weight:normal;writing-mode:lr-tb;fill:#231f20;fill-opacity:1;fill-rule:nonzero;stroke:none;font-family:Helvetica;-inkscape-font-specification:Helvetica">21.2</tspan><tspan
                 x="0 2.0003321 4.0006642 5.0008302"
                 y="24.983315"
                 id="tspan3351"
                 style="font-size:3.59771943px;font-variant:normal;font-weight:normal;writing-mode:lr-tb;fill:#231f20;fill-opacity:1;fill-rule:nonzero;stroke:none;font-family:Helvetica;-inkscape-font-specification:Helvetica">21.1</tspan><tspan
                 x="-11.528918 -9.7935696 -7.7925901 -6.7924242 -4.7914453"
                 y="33.776661"
                 id="tspan3353"
                 style="font-size:3.59771943px;font-variant:normal;font-weight:normal;writing-mode:lr-tb;fill:#231f20;fill-opacity:1;fill-rule:nonzero;stroke:none;font-family:Helvetica;-inkscape-font-specification:Helvetica">11.23</tspan></text>
</g><path
             d="m 202.844,1182.68 110.945,0"
             id="path3355"
             style="fill:none;stroke:#231f20;stroke-width:1.82598996;stroke-linecap:butt;stroke-linejoin:miter;stroke-miterlimit:4;stroke-opacity:1;stroke-dasharray:none" /><g
             transform="scale(10,10)"
             id="g3357"><text
               transform="matrix(1,0,0,-0.90698012,25.577,120.896)"
               id="text3359"><tspan
                 x="0 2.0009789"
                 y="0"
                 id="tspan3361"
                 style="font-size:3.59771943px;font-variant:normal;font-weight:normal;writing-mode:lr-tb;fill:#231f20;fill-opacity:1;fill-rule:nonzero;stroke:none;font-family:Helvetica;-inkscape-font-specification:Helvetica">12</tspan><tspan
                 x="-4.7351532 -2.9998038 -0.99882489 0.00134111 2.0023232"
                 y="6.3957081"
                 id="tspan3363"
                 style="font-size:3.59771943px;font-variant:normal;font-weight:normal;writing-mode:lr-tb;fill:#231f20;fill-opacity:1;fill-rule:nonzero;stroke:none;font-family:Helvetica;-inkscape-font-specification:Helvetica">11.22</tspan><tspan
                 x="-14.528907 -12.793558 -10.792579 -9.7924128 -7.7914338"
                 y="9.1964636"
                 id="tspan3365"
                 style="font-size:3.59771943px;font-variant:normal;font-weight:normal;writing-mode:lr-tb;fill:#231f20;fill-opacity:1;fill-rule:nonzero;stroke:none;font-family:Helvetica;-inkscape-font-specification:Helvetica">11.21</tspan></text>
</g><path
             d="m 202.844,1135.55 110.945,0"
             id="path3367"
             style="fill:none;stroke:#231f20;stroke-width:1.82598996;stroke-linecap:butt;stroke-linejoin:miter;stroke-miterlimit:4;stroke-opacity:1;stroke-dasharray:none" /><g
             transform="scale(10,10)"
             id="g3369"><text
               transform="matrix(1,0,0,-0.90698012,11.048,104.399)"
               id="text3371"><tspan
                 x="0 1.7353495 3.7363286 4.7364945 6.7374735"
                 y="0"
                 id="tspan3373"
                 style="font-size:3.59771943px;font-variant:normal;font-weight:normal;writing-mode:lr-tb;fill:#231f20;fill-opacity:1;fill-rule:nonzero;stroke:none;font-family:Helvetica;-inkscape-font-specification:Helvetica">11.21</tspan></text>
</g><path
             d="m 202.844,1053.97 110.945,0"
             id="path3375"
             style="fill:none;stroke:#231f20;stroke-width:1.82598996;stroke-linecap:butt;stroke-linejoin:miter;stroke-miterlimit:4;stroke-opacity:1;stroke-dasharray:none" /><g
             transform="scale(10,10)"
             id="g3377"><text
               transform="matrix(1,0,0,-0.90698012,22.577,87.0879)"
               id="text3379"><tspan
                 x="0 2.0003321 4.0006642 5.0008302"
                 y="0"
                 id="tspan3381"
                 style="font-size:3.59771943px;font-variant:normal;font-weight:normal;writing-mode:lr-tb;fill:#231f20;fill-opacity:1;fill-rule:nonzero;stroke:none;font-family:Helvetica;-inkscape-font-specification:Helvetica">12.3</tspan><tspan
                 x="0 2.0003321 4.0006642 5.0008302"
                 y="-3.196564"
                 id="tspan3383"
                 style="font-size:3.59771943px;font-variant:normal;font-weight:normal;writing-mode:lr-tb;fill:#231f20;fill-opacity:1;fill-rule:nonzero;stroke:none;font-family:Helvetica;-inkscape-font-specification:Helvetica">12.2</tspan><tspan
                 x="0 2.0003321 4.0006642 5.0008302"
                 y="5.7961912"
                 id="tspan3385"
                 style="font-size:3.59771943px;font-variant:normal;font-weight:normal;writing-mode:lr-tb;fill:#231f20;fill-opacity:1;fill-rule:nonzero;stroke:none;font-family:Helvetica;-inkscape-font-specification:Helvetica">13.2</tspan><tspan
                 x="0 2.0003321 4.0006642 5.0008302"
                 y="9.194314"
                 id="tspan3387"
                 style="font-size:3.59771943px;font-variant:normal;font-weight:normal;writing-mode:lr-tb;fill:#231f20;fill-opacity:1;fill-rule:nonzero;stroke:none;font-family:Helvetica;-inkscape-font-specification:Helvetica">13.3</tspan><tspan
                 x="-9.7937536 -7.7934217 -5.7930899 -4.7929239"
                 y="2.700412"
                 id="tspan3389"
                 style="font-size:3.59771943px;font-variant:normal;font-weight:normal;writing-mode:lr-tb;fill:#231f20;fill-opacity:1;fill-rule:nonzero;stroke:none;font-family:Helvetica;-inkscape-font-specification:Helvetica">13.1</tspan></text>
</g><path
             d="m 202.844,856.379 110.945,0"
             id="path3391"
             style="fill:none;stroke:#231f20;stroke-width:1.82598996;stroke-linecap:butt;stroke-linejoin:miter;stroke-miterlimit:4;stroke-opacity:1;stroke-dasharray:none" /><g
             transform="scale(10,10)"
             id="g3393"><text
               transform="matrix(1,0,0,-0.90698012,10.782,71.9504)"
               id="text3395"><tspan
                 x="0 2.0003321 4.0006642 5.0008302 7.0018091"
                 y="0"
                 id="tspan3397"
                 style="font-size:3.59771943px;font-variant:normal;font-weight:normal;writing-mode:lr-tb;fill:#231f20;fill-opacity:1;fill-rule:nonzero;stroke:none;font-family:Helvetica;-inkscape-font-specification:Helvetica">21.12</tspan></text>
</g><path
             d="m 202.844,729.473 110.945,0"
             id="path3399"
             style="fill:none;stroke:#231f20;stroke-width:1.82598996;stroke-linecap:butt;stroke-linejoin:miter;stroke-miterlimit:4;stroke-opacity:1;stroke-dasharray:none" /><g
             transform="scale(10,10)"
             id="g3401"><text
               transform="matrix(1,0,0,-0.90698012,20.5762,69.3223)"
               id="text3403"><tspan
                 x="0 2.0003321 4.0006642 5.0008302 7.0018091"
                 y="0"
                 id="tspan3405"
                 style="font-size:3.59771943px;font-variant:normal;font-weight:normal;writing-mode:lr-tb;fill:#231f20;fill-opacity:1;fill-rule:nonzero;stroke:none;font-family:Helvetica;-inkscape-font-specification:Helvetica">21.13</tspan><tspan
                 x="-7.7929711 -5.7926393 -3.7923071 -2.7921412"
                 y="3.10095"
                 id="tspan3407"
                 style="font-size:3.59771943px;font-variant:normal;font-weight:normal;writing-mode:lr-tb;fill:#231f20;fill-opacity:1;fill-rule:nonzero;stroke:none;font-family:Helvetica;-inkscape-font-specification:Helvetica">21.2</tspan></text>
</g><path
             d="m 202.844,675.098 110.945,0"
             id="path3409"
             style="fill:none;stroke:#231f20;stroke-width:1.82598996;stroke-linecap:butt;stroke-linejoin:miter;stroke-miterlimit:4;stroke-opacity:1;stroke-dasharray:none" /><g
             transform="scale(10,10)"
             id="g3411"><text
               transform="matrix(1,0,0,-0.90698012,22.577,63.1582)"
               id="text3413"><tspan
                 x="0 2.0003321 4.0006642 5.0008302"
                 y="0"
                 id="tspan3415"
                 style="font-size:3.59771943px;font-variant:normal;font-weight:normal;writing-mode:lr-tb;fill:#231f20;fill-opacity:1;fill-rule:nonzero;stroke:none;font-family:Helvetica;-inkscape-font-specification:Helvetica">21.3</tspan><tspan
                 x="0 2.0003321 4.0006642 5.0008302"
                 y="6.1954389"
                 id="tspan3417"
                 style="font-size:3.59771943px;font-variant:normal;font-weight:normal;writing-mode:lr-tb;fill:#231f20;fill-opacity:1;fill-rule:nonzero;stroke:none;font-family:Helvetica;-inkscape-font-specification:Helvetica">22.1</tspan><tspan
                 x="0 2.0003321 4.0006642 5.0008302"
                 y="17.987207"
                 id="tspan3419"
                 style="font-size:3.59771943px;font-variant:normal;font-weight:normal;writing-mode:lr-tb;fill:#231f20;fill-opacity:1;fill-rule:nonzero;stroke:none;font-family:Helvetica;-inkscape-font-specification:Helvetica">23.1</tspan><tspan
                 x="0 2.0003321 4.0006642 5.0008302"
                 y="24.984154"
                 id="tspan3421"
                 style="font-size:3.59771943px;font-variant:normal;font-weight:normal;writing-mode:lr-tb;fill:#231f20;fill-opacity:1;fill-rule:nonzero;stroke:none;font-family:Helvetica;-inkscape-font-specification:Helvetica">23.3</tspan><tspan
                 x="-1.7351538 0.2651782 2.2655103 3.2656763 5.002007"
                 y="29.979698"
                 id="tspan3423"
                 style="font-size:3.59771943px;font-variant:normal;font-weight:normal;writing-mode:lr-tb;fill:#231f20;fill-opacity:1;fill-rule:nonzero;stroke:none;font-family:Helvetica;-inkscape-font-specification:Helvetica">24.11</tspan><tspan
                 x="-2.0007792 -0.00044723999 1.9998847 3.0000508 5.00103"
                 y="33.180573"
                 id="tspan3425"
                 style="font-size:3.59771943px;font-variant:normal;font-weight:normal;writing-mode:lr-tb;fill:#231f20;fill-opacity:1;fill-rule:nonzero;stroke:none;font-family:Helvetica;-inkscape-font-specification:Helvetica">24.12</tspan><tspan
                 x="-2.0007792 -0.00044723999 1.9998847 3.0000508 5.00103"
                 y="37.176495"
                 id="tspan3427"
                 style="font-size:3.59771943px;font-variant:normal;font-weight:normal;writing-mode:lr-tb;fill:#231f20;fill-opacity:1;fill-rule:nonzero;stroke:none;font-family:Helvetica;-inkscape-font-specification:Helvetica">24.13</tspan><tspan
                 x="-2.0007792 -0.00044723999 1.9998847 3.0000508 5.00103"
                 y="42.372738"
                 id="tspan3429"
                 style="font-size:3.59771943px;font-variant:normal;font-weight:normal;writing-mode:lr-tb;fill:#231f20;fill-opacity:1;fill-rule:nonzero;stroke:none;font-family:Helvetica;-inkscape-font-specification:Helvetica">24.21</tspan><tspan
                 x="-2.0007792 -0.00044723999 1.9998847 3.0000508 5.00103"
                 y="46.770916"
                 id="tspan3431"
                 style="font-size:3.59771943px;font-variant:normal;font-weight:normal;writing-mode:lr-tb;fill:#231f20;fill-opacity:1;fill-rule:nonzero;stroke:none;font-family:Helvetica;-inkscape-font-specification:Helvetica">24.22</tspan><tspan
                 x="-2.0007792 -0.00044723999 1.9998847 3.0000508 5.00103"
                 y="50.368446"
                 id="tspan3433"
                 style="font-size:3.59771943px;font-variant:normal;font-weight:normal;writing-mode:lr-tb;fill:#231f20;fill-opacity:1;fill-rule:nonzero;stroke:none;font-family:Helvetica;-inkscape-font-specification:Helvetica">24.23</tspan><tspan
                 x="3.31e-06 2.0003352 4.0006671 5.0008335"
                 y="55.96394"
                 id="tspan3435"
                 style="font-size:3.59771943px;font-variant:normal;font-weight:normal;writing-mode:lr-tb;fill:#231f20;fill-opacity:1;fill-rule:nonzero;stroke:none;font-family:Helvetica;-inkscape-font-specification:Helvetica">24.3</tspan></text>
</g></g></g></g></g></svg>