<?xml version="1.0" encoding="UTF-8"?>
<svg xmlns:xlink="http://www.w3.org/1999/xlink" xmlns="http://www.w3.org/2000/svg" contentScriptType="text/ecmascript" zoomAndPan="magnify" contentStyleType="text/css" preserveAspectRatio="xMidYMid meet" version="1.0">
<g id="chromosome9" title="Chromosome 9">
<path style="fill:#211c1d;fill-opacity:1;fill-rule:nonzero;stroke:none" id="9p21.3" d="m 38.796375,140.3825 11.3808625,0.0 0.0,-4.7578125 -11.3808625,-0.0 0.0,4.7578125 z "/>
<path style="fill:#c4cdf2;fill-opacity:1;fill-rule:nonzero;stroke:none" id="9q12" d="m 38.796375,187.74249999999998 11.3808625,0.0 0.0,-13.144 -11.3808625,-0.0 0.0,13.144 z "/>
<path style="fill:none;stroke:#211c1d;stroke-width:0.8;stroke-linecap:butt;stroke-linejoin:miter;stroke-miterlimit:4;stroke-opacity:1;stroke-dasharray:none" id="9q12-o" d="m 38.796375,187.74249999999998 11.3808625,0.0 0.0,-13.144 -11.3808625,-0.0 0.0,13.144 z "/>
<path style="fill:#211c1d;fill-opacity:1;fill-rule:nonzero;stroke:none" id="9p21.1" d="m 38.796375,147.40625 11.3808625,0.0 0.0,-5.211912500000001 -11.3808625,-0.0 0.0,5.211912500000001 z "/>
<path style="fill:#bbbcbd;fill-opacity:1;fill-rule:nonzero;stroke:none" id="9p12" d="m 38.796375,162.81624999999997 11.3808625,0.0 0.0,-3.4003875 -11.3808625,-0.0 0.0,3.4003875 z "/>
<path style="fill:none;stroke:#211c1d;stroke-width:0.1;stroke-linecap:butt;stroke-linejoin:miter;stroke-miterlimit:4;stroke-opacity:1;stroke-dasharray:none" id="9p12-o" d="m 38.796375,162.81624999999997 11.3808625,0.0 0.0,-3.4003875 -11.3808625,-0.0 0.0,3.4003875 z "/>
<path style="fill:#bbbcbd;fill-opacity:1;fill-rule:nonzero;stroke:none" id="9q21.13" d="m 38.796375,200.88462499999997 11.3808625,0.0 0.0,-4.0786125 -11.3808625,-0.0 0.0,4.0786125 z "/>
<path style="fill:none;stroke:#211c1d;stroke-width:0.1;stroke-linecap:butt;stroke-linejoin:miter;stroke-miterlimit:4;stroke-opacity:1;stroke-dasharray:none" id="9q21.13-o" d="m 38.796375,200.88462499999997 11.3808625,0.0 0.0,-4.0786125 -11.3808625,-0.0 0.0,4.0786125 z "/>
<path style="fill:#bbbcbd;fill-opacity:1;fill-rule:nonzero;stroke:none" id="9q21.31" d="m 38.796375,209.041875 11.3808625,0.0 0.0,-4.5336875 -11.3808625,-0.0 0.0,4.5336875 z "/>
<path style="fill:none;stroke:#211c1d;stroke-width:0.1;stroke-linecap:butt;stroke-linejoin:miter;stroke-miterlimit:4;stroke-opacity:1;stroke-dasharray:none" id="9q21.31-o" d="m 38.796375,209.041875 11.3808625,0.0 0.0,-4.5336875 -11.3808625,-0.0 0.0,4.5336875 z "/>
<path style="fill:#bbbcbd;fill-opacity:1;fill-rule:nonzero;stroke:none" id="9q21.33" d="m 38.796375,218.10674999999998 11.3808625,0.0 0.0,-4.5336875 -11.3808625,-0.0 0.0,4.5336875 z "/>
<path style="fill:none;stroke:#211c1d;stroke-width:0.1;stroke-linecap:butt;stroke-linejoin:miter;stroke-miterlimit:4;stroke-opacity:1;stroke-dasharray:none" id="9q21.33-o" d="m 38.796375,218.10674999999998 11.3808625,0.0 0.0,-4.5336875 -11.3808625,-0.0 0.0,4.5336875 z "/>
<path style="fill:#211c1d;fill-opacity:1;fill-rule:nonzero;stroke:none" id="9q31.1" d="m 38.796375,241.446125 11.3808625,0.0 0.0,-5.666012500000001 -11.3808625,-0.0 0.0,5.666012500000001 z "/>
<path style="fill:#7a7e82;fill-opacity:1;fill-rule:nonzero;stroke:none" id="9p23" d="m 38.796375,126.78624999999998 11.3808625,0.0 0.0,-5.212400000000001 -11.3808625,-0.0 0.0,5.212400000000001 z "/>
<path style="fill:none;stroke:#211c1d;stroke-width:0.1;stroke-linecap:butt;stroke-linejoin:miter;stroke-miterlimit:4;stroke-opacity:1;stroke-dasharray:none" id="9p23-o" d="m 38.796375,126.78624999999998 11.3808625,0.0 0.0,-5.212400000000001 -11.3808625,-0.0 0.0,5.212400000000001 z "/>
<path style="fill:#7a7e82;fill-opacity:1;fill-rule:nonzero;stroke:none" id="9q33.1" d="m 38.796375,258.894875 11.3808625,0.0 0.0,-5.212400000000001 -11.3808625,-0.0 0.0,5.212400000000001 z "/>
<path style="fill:none;stroke:#211c1d;stroke-width:0.1;stroke-linecap:butt;stroke-linejoin:miter;stroke-miterlimit:4;stroke-opacity:1;stroke-dasharray:none" id="9q33.1-o" d="m 38.796375,258.894875 11.3808625,0.0 0.0,-5.212400000000001 -11.3808625,-0.0 0.0,5.212400000000001 z "/>
<path style="fill:#e9eae9;fill-opacity:1;fill-rule:nonzero;stroke:none" id="9p24.2" d="m 38.796375,117.72374999999998 11.3808625,0.0 0.0,-2.94775 -11.3808625,-0.0 0.0,2.94775 z "/>
<path style="fill:none;stroke:#211c1d;stroke-width:0.1;stroke-linecap:butt;stroke-linejoin:miter;stroke-miterlimit:4;stroke-opacity:1;stroke-dasharray:none" id="9p24.2-o" d="m 38.796375,117.72374999999998 11.3808625,0.0 0.0,-2.94775 -11.3808625,-0.0 0.0,2.94775 z "/>
<path style="fill:#e9eae9;fill-opacity:1;fill-rule:nonzero;stroke:none" id="9p22.2" d="m 38.796375,133.35750000000002 11.3808625,0.0 0.0,-2.9462875 -11.3808625,-0.0 0.0,2.9462875 z "/>
<path style="fill:none;stroke:#211c1d;stroke-width:0.1;stroke-linecap:butt;stroke-linejoin:miter;stroke-miterlimit:4;stroke-opacity:1;stroke-dasharray:none" id="9p22.2-o" d="m 38.796375,133.35750000000002 11.3808625,0.0 0.0,-2.9462875 -11.3808625,-0.0 0.0,2.9462875 z "/>
<path style="fill:#e9eae9;fill-opacity:1;fill-rule:nonzero;stroke:none" id="9p13.2" d="m 38.796375,156.47249999999997 11.3808625,0.0 0.0,-2.7207 -11.3808625,-0.0 0.0,2.7207 z "/>
<path style="fill:none;stroke:#211c1d;stroke-width:0.1;stroke-linecap:butt;stroke-linejoin:miter;stroke-miterlimit:4;stroke-opacity:1;stroke-dasharray:none" id="9p13.2-o" d="m 38.796375,156.47249999999997 11.3808625,0.0 0.0,-2.7207 -11.3808625,-0.0 0.0,2.7207 z "/>
<path style="fill:#e9eae9;fill-opacity:1;fill-rule:nonzero;stroke:none" id="9q21.11" d="m 38.796375,194.99349999999998 11.3808625,0.0 0.0,-4.0795875 -11.3808625,-0.0 0.0,4.0795875 z "/>
<path style="fill:none;stroke:#211c1d;stroke-width:0.1;stroke-linecap:butt;stroke-linejoin:miter;stroke-miterlimit:4;stroke-opacity:1;stroke-dasharray:none" id="9q21.11-o" d="m 38.796375,194.99349999999998 11.3808625,0.0 0.0,-4.0795875 -11.3808625,-0.0 0.0,4.0795875 z "/>
<path style="fill:#e9eae9;fill-opacity:1;fill-rule:nonzero;stroke:none" id="9q22.2" d="m 38.796375,225.35525 11.3808625,0.0 0.0,-2.265625 -11.3808625,-0.0 0.0,2.265625 z "/>
<path style="fill:none;stroke:#211c1d;stroke-width:0.1;stroke-linecap:butt;stroke-linejoin:miter;stroke-miterlimit:4;stroke-opacity:1;stroke-dasharray:none" id="9q22.2-o" d="m 38.796375,225.35525 11.3808625,0.0 0.0,-2.265625 -11.3808625,-0.0 0.0,2.265625 z "/>
<path style="fill:#e9eae9;fill-opacity:1;fill-rule:nonzero;stroke:none" id="9q22.32" d="m 38.796375,231.70299999999997 11.3808625,0.0 0.0,-2.9467750000000006 -11.3808625,-0.0 0.0,2.9467750000000006 z "/>
<path style="fill:none;stroke:#211c1d;stroke-width:0.1;stroke-linecap:butt;stroke-linejoin:miter;stroke-miterlimit:4;stroke-opacity:1;stroke-dasharray:none" id="9q22.32-o" d="m 38.796375,231.70299999999997 11.3808625,0.0 0.0,-2.9467750000000006 -11.3808625,-0.0 0.0,2.9467750000000006 z "/>
<path style="fill:#e9eae9;fill-opacity:1;fill-rule:nonzero;stroke:none" id="9q31.3" d="m 38.796375,248.01887499999998 11.3808625,0.0 0.0,-4.0791 -11.3808625,-0.0 0.0,4.0791 z "/>
<path style="fill:none;stroke:#211c1d;stroke-width:0.1;stroke-linecap:butt;stroke-linejoin:miter;stroke-miterlimit:4;stroke-opacity:1;stroke-dasharray:none" id="9q31.3-o" d="m 38.796375,248.01887499999998 11.3808625,0.0 0.0,-4.0791 -11.3808625,-0.0 0.0,4.0791 z "/>
<path style="fill:#e9eae9;fill-opacity:1;fill-rule:nonzero;stroke:none" id="9q33.3" d="m 38.796375,264.7865 11.3808625,0.0 0.0,-2.9462875 -11.3808625,-0.0 0.0,2.9462875 z "/>
<path style="fill:none;stroke:#211c1d;stroke-width:0.1;stroke-linecap:butt;stroke-linejoin:miter;stroke-miterlimit:4;stroke-opacity:1;stroke-dasharray:none" id="9q33.3-o" d="m 38.796375,264.7865 11.3808625,0.0 0.0,-2.9462875 -11.3808625,-0.0 0.0,2.9462875 z "/>
<path style="fill:#e9eae9;fill-opacity:1;fill-rule:nonzero;stroke:none" id="9q34.12" d="m 38.796375,272.491 11.3808625,0.0 0.0,-2.03955 -11.3808625,-0.0 0.0,2.03955 z "/>
<path style="fill:none;stroke:#211c1d;stroke-width:0.1;stroke-linecap:butt;stroke-linejoin:miter;stroke-miterlimit:4;stroke-opacity:1;stroke-dasharray:none" id="9q34.12-o" d="m 38.796375,272.491 11.3808625,0.0 0.0,-2.03955 -11.3808625,-0.0 0.0,2.03955 z "/>
<path style="fill:#e9eae9;fill-opacity:1;fill-rule:nonzero;stroke:none" id="9q34.2" d="m 38.796375,277.93 11.3808625,0.0 0.0,-2.267575 -11.3808625,-0.0 0.0,2.267575 z "/>
<path style="fill:none;stroke:#211c1d;stroke-width:0.1;stroke-linecap:butt;stroke-linejoin:miter;stroke-miterlimit:4;stroke-opacity:1;stroke-dasharray:none" id="9q34.2-o" d="m 38.796375,277.93 11.3808625,0.0 0.0,-2.267575 -11.3808625,-0.0 0.0,2.267575 z "/>
<path style="fill:#fffafa;stroke:#211c1d;stroke-width:0.1;stroke-linecap:butt;stroke-linejoin:miter;stroke-miterlimit:4;stroke-opacity:1;stroke-dasharray:none" id="9q21.32" d="m 38.796375,213.57306249999996 11.3808625,0.0 0,-4.531187499999959 -11.3808625,-0.0 0,4.531187499999959 z "/>
<path style="fill:#fffafa;stroke:#211c1d;stroke-width:0.1;stroke-linecap:butt;stroke-linejoin:miter;stroke-miterlimit:4;stroke-opacity:1;stroke-dasharray:none" id="9p11.2" d="m 38.796375,166.44124999999997 11.3808625,0.0 0,-3.625 -11.3808625,-0.0 0,3.625 z "/>
<path style="fill:#fffafa;stroke:#211c1d;stroke-width:0.1;stroke-linecap:butt;stroke-linejoin:miter;stroke-miterlimit:4;stroke-opacity:1;stroke-dasharray:none" id="9q34.13" d="m 38.796375,275.662425 11.3808625,0.0 0,-3.1714249999999993 -11.3808625,-0.0 0,3.1714249999999993 z "/>
<path style="fill:#fffafa;stroke:#211c1d;stroke-width:0.1;stroke-linecap:butt;stroke-linejoin:miter;stroke-miterlimit:4;stroke-opacity:1;stroke-dasharray:none" id="9q34.11" d="m 38.796375,270.45144999999997 11.3808625,0.0 0,-5.664949999999976 -11.3808625,-0.0 0,5.664949999999976 z "/>
<path style="fill:#fffafa;stroke:#211c1d;stroke-width:0.1;stroke-linecap:butt;stroke-linejoin:miter;stroke-miterlimit:4;stroke-opacity:1;stroke-dasharray:none" id="9q22.31" d="m 38.796375,228.75622499999997 11.3808625,0.0 0,-3.40097499999996 -11.3808625,-0.0 0,3.40097499999996 z "/>
<path style="fill:#fffafa;stroke:#211c1d;stroke-width:0.1;stroke-linecap:butt;stroke-linejoin:miter;stroke-miterlimit:4;stroke-opacity:1;stroke-dasharray:none" id="9q21.2" d="m 38.796375,204.5081875 11.3808625,0.0 0,-3.62356250000002 -11.3808625,-0.0 0,3.62356250000002 z "/>
<path style="fill:#fffafa;stroke:#211c1d;stroke-width:0.1;stroke-linecap:butt;stroke-linejoin:miter;stroke-miterlimit:4;stroke-opacity:1;stroke-dasharray:none" id="9q31.2" d="m 38.796375,243.93977499999997 11.3808625,0.0 0,-2.493649999999974 -11.3808625,-0.0 0,2.493649999999974 z "/>
<path style="fill:#fffafa;stroke:#211c1d;stroke-width:0.1;stroke-linecap:butt;stroke-linejoin:miter;stroke-miterlimit:4;stroke-opacity:1;stroke-dasharray:none" id="9q22.1" d="m 38.796375,223.089625 11.3808625,0.0 0,-4.9828750000000355 -11.3808625,-0.0 0,4.9828750000000355 z "/>
<path style="fill:#fffafa;stroke:#211c1d;stroke-width:0.1;stroke-linecap:butt;stroke-linejoin:miter;stroke-miterlimit:4;stroke-opacity:1;stroke-dasharray:none" id="9p22.3" d="m 38.796375,130.4112125 11.3808625,0.0 0,-3.6249625000000236 -11.3808625,-0.0 0,3.6249625000000236 z "/>
<path style="fill:#fffafa;stroke:#211c1d;stroke-width:0.1;stroke-linecap:butt;stroke-linejoin:miter;stroke-miterlimit:4;stroke-opacity:1;stroke-dasharray:none" id="9q32" d="m 38.796375,253.682475 11.3808625,0.0 0,-5.663600000000031 -11.3808625,-0.0 0,5.663600000000031 z "/>
<path style="fill:#fffafa;stroke:#211c1d;stroke-width:0.1;stroke-linecap:butt;stroke-linejoin:miter;stroke-miterlimit:4;stroke-opacity:1;stroke-dasharray:none" id="9q22.33" d="m 38.796375,235.7801125 11.3808625,0.0 0,-4.077112500000027 -11.3808625,-0.0 0,4.077112500000027 z "/>
<path style="fill:#fffafa;stroke:#211c1d;stroke-width:0.1;stroke-linecap:butt;stroke-linejoin:miter;stroke-miterlimit:4;stroke-opacity:1;stroke-dasharray:none" id="9q21.12" d="m 38.796375,196.80601249999998 11.3808625,0.0 0,-1.8125124999999969 -11.3808625,-0.0 0,1.8125124999999969 z "/>
<path style="fill:#fffafa;stroke:#211c1d;stroke-width:0.1;stroke-linecap:butt;stroke-linejoin:miter;stroke-miterlimit:4;stroke-opacity:1;stroke-dasharray:none" id="9q13" d="m 38.796375,190.91391249999998 11.3808625,0.0 0,-3.1714125000000024 -11.3808625,-0.0 0,3.1714125000000024 z "/>
<path style="fill:#fffafa;stroke:#211c1d;stroke-width:0.1;stroke-linecap:butt;stroke-linejoin:miter;stroke-miterlimit:4;stroke-opacity:1;stroke-dasharray:none" id="9p21.2" d="m 38.796375,142.1943375 11.3808625,0.0 0,-1.8118374999999958 -11.3808625,-0.0 0,1.8118374999999958 z "/>
<path style="fill:#fffafa;stroke:#211c1d;stroke-width:0.1;stroke-linecap:butt;stroke-linejoin:miter;stroke-miterlimit:4;stroke-opacity:1;stroke-dasharray:none" id="9q34.3" d="m 38.796375,277.93 0.0,6 c 0.0,1.415 2.5453750000000004,2.564 5.681125,2.564 3.1372500000000003,0.0 5.682125,-1.149 5.682125,-2.564 l 0.0,-6 -11.3808625,-0.0  z "/>
<path style="fill:#fffafa;stroke:#211c1d;stroke-width:0.1;stroke-linecap:butt;stroke-linejoin:miter;stroke-miterlimit:4;stroke-opacity:1;stroke-dasharray:none" id="9q33.2" d="m 38.796375,261.8402125 11.3808625,0.0 0,-2.9453374999999937 -11.3808625,-0.0 0,2.9453374999999937 z "/>
<path style="fill:#fffafa;stroke:#211c1d;stroke-width:0.1;stroke-linecap:butt;stroke-linejoin:miter;stroke-miterlimit:4;stroke-opacity:1;stroke-dasharray:none" id="9p13.3" d="m 38.796375,153.75179999999997 11.3808625,0.0 0,-6.3455499999999745 -11.3808625,-0.0 0,6.3455499999999745 z "/>
<path style="fill:#fffafa;stroke:#211c1d;stroke-width:0.1;stroke-linecap:butt;stroke-linejoin:miter;stroke-miterlimit:4;stroke-opacity:1;stroke-dasharray:none" id="9p13.1" d="m 38.796375,159.41586249999997 11.3808625,0.0 0,-2.9433625000000063 -11.3808625,-0.0 0,2.9433625000000063 z "/>
<path style="fill:#fffafa;stroke:#211c1d;stroke-width:0.1;stroke-linecap:butt;stroke-linejoin:miter;stroke-miterlimit:4;stroke-opacity:1;stroke-dasharray:none" id="9p24.1" d="m 38.796375,121.57384999999998 11.3808625,0.0 0,-3.8500999999999976 -11.3808625,-0.0 0,3.8500999999999976 z "/>
<path style="fill:#fffafa;stroke:#211c1d;stroke-width:0.1;stroke-linecap:butt;stroke-linejoin:miter;stroke-miterlimit:4;stroke-opacity:1;stroke-dasharray:none" id="9p22.1" d="m 38.796375,135.6246875 11.3808625,0.0 0,-2.2671874999999773 -11.3808625,-0.0 0,2.2671874999999773 z "/>
<path style="fill:#fffafa;stroke:#211c1d;stroke-width:0.1;stroke-linecap:butt;stroke-linejoin:miter;stroke-miterlimit:4;stroke-opacity:1;stroke-dasharray:none" id="9p24.3" d="m 38.796375,114.776 11.3808625,0.0 0.0,-1 c 0.0,-1.41625 -2.544875,-2.565 -5.682125,-2.565 -3.13575,-0.0 -5.681125,1.1487500000000002 -5.681125,2.565 l 0.0,1 z"/>
<path style="fill:#a4bdc8;fill-opacity:1;fill-rule:nonzero;stroke:none" id="centromere9-f" d="m 50.13675,174.71224999999998 0.032625,-1.3585 c 0.0,-0.9650000000000001 -1.181625,-2.54875 -2.92425,-3.455 1.742625,-0.90875 2.92425,-2.4937500000000004 2.92425,-3.4575 l -0.15812500000000002,0.6225 -11.019500000000003,-0.0 -0.18562500000000004,-0.6225 c 0.0,0.9675 1.185625,2.55 2.9395,3.4575 -1.7538750000000003,0.90375 -2.9395,2.48625 -2.9395,3.455 l 0.0,1.3585 11.330625000000001,0.0 "/>
<path style="fill:none;stroke:#100f0d;stroke-width:0.8;stroke-linecap:butt;stroke-linejoin:miter;stroke-miterlimit:4;stroke-opacity:1;stroke-dasharray:none" id="centromere9-o" d="m 50.13675,174.71224999999998 0.032625,-1.3585 c 0.0,-0.9650000000000001 -1.181625,-2.54875 -2.92425,-3.455 1.742625,-0.90875 2.92425,-2.4937500000000004 2.92425,-3.4575 l -0.15812500000000002,0.6225 -11.019500000000003,-0.0 -0.18562500000000004,-0.6225 c 0.0,0.9675 1.185625,2.55 2.9395,3.4575 -1.7538750000000003,0.90375 -2.9395,2.48625 -2.9395,3.455 l 0.0,1.3585 11.330625000000001,0.0 z "/>
<path style="fill:none;stroke:#211c1d;stroke-width:0.8;stroke-linecap:butt;stroke-linejoin:miter;stroke-miterlimit:4;stroke-opacity:1;stroke-dasharray:none" id="outline9" d="m 41.745625,169.89875 c -1.7538750000000003,0.90375 -2.9395,2.45625 -2.9395,3.4250000000000003 l 0.0,110.497375 c 0.0,1.415 2.5453750000000004,2.564 5.681125,2.564 3.1372500000000003,0.0 5.682125,-1.149 5.682125,-2.564 l 0.0,-110.638625 c 0.0,-0.66125 -1.181625,-2.3775000000000004 -2.92425,-3.2837500000000004 1.742625,-0.90875 2.92425,-2.495 2.92425,-3.455 l 0.0,-52.346250000000005 c 0.0,-1.41625 -2.544875,-2.565 -5.682125,-2.565 -3.13575,-0.0 -5.681125,1.1487500000000002 -5.681125,2.565 l 0.0,52.346250000000005 c 0.0,0.96375 1.185625,2.54875 2.9395,3.455 z "/>
<path style="fill:none;stroke:#231f20;stroke-width:0.8;stroke-linecap:butt;stroke-linejoin:miter;stroke-miterlimit:4;stroke-opacity:1;stroke-dasharray:none;display:none" id="centre9" d="M 41.34625,169.935 0.0,169.935 "/>
<text>
<tspan x="41.2915" y="295.0388875" id="label9" style="font-size:7.19543791px;font-variant:normal;font-weight:normal;writing-mode:lr-tb;fill:#211c1d;fill-opacity:1;fill-rule:nonzero;stroke:none;font-family:Helvetica;-inkscape-font-specification:Helvetica">9</tspan>
</text>
</g>
</svg>
