<?xml version="1.0" encoding="UTF-8"?>
<svg xmlns:xlink="http://www.w3.org/1999/xlink" xmlns="http://www.w3.org/2000/svg" contentScriptType="text/ecmascript" zoomAndPan="magnify" contentStyleType="text/css" preserveAspectRatio="xMidYMid meet" version="1.0">
<g>
<path style="fill:#a4bdc8;fill-opacity:1;fill-rule:nonzero;stroke:none" d="m 50.13675,64.13849999999998 0.032625,-1.3585 c 0.0,-0.9650000000000001 -1.181625,-2.54875 -2.92425,-3.455 1.742625,-0.90875 2.92425,-2.4937500000000004 2.92425,-3.4575 l -0.15812500000000002,0.6225 -11.019500000000003,-0.0 -0.18562500000000004,-0.6225 c 0.0,0.9675 1.185625,2.55 2.9395,3.4575 -1.7538750000000003,0.90375 -2.9395,2.48625 -2.9395,3.455 l 0.0,1.3585 11.330625000000001,0.0 " id="path3463"/>
<path style="fill:none;stroke:#100f0d;stroke-width:0.8;stroke-linecap:butt;stroke-linejoin:miter;stroke-miterlimit:4;stroke-opacity:1;stroke-dasharray:none" d="m 50.13675,64.13849999999998 0.032625,-1.3585 c 0.0,-0.9650000000000001 -1.181625,-2.54875 -2.92425,-3.455 1.742625,-0.90875 2.92425,-2.4937500000000004 2.92425,-3.4575 l -0.15812500000000002,0.6225 -11.019500000000003,-0.0 -0.18562500000000004,-0.6225 c 0.0,0.9675 1.185625,2.55 2.9395,3.4575 -1.7538750000000003,0.90375 -2.9395,2.48625 -2.9395,3.455 l 0.0,1.3585 11.330625000000001,0.0 z " id="path3465"/>
<path style="fill:#211c1d;fill-opacity:1;fill-rule:nonzero;stroke:none" d="m 38.796375,29.808749999999975 11.3808625,0.0 0.0,-4.7578125 -11.3808625,-0.0 0.0,4.7578125 z " id="path3467"/>
<path style="fill:#c4cdf2;fill-opacity:1;fill-rule:nonzero;stroke:none" d="m 38.796375,77.16874999999997 11.3808625,0.0 0.0,-13.144 -11.3808625,-0.0 0.0,13.144 z " id="path3583"/>
<path style="fill:none;stroke:#211c1d;stroke-width:0.8;stroke-linecap:butt;stroke-linejoin:miter;stroke-miterlimit:4;stroke-opacity:1;stroke-dasharray:none" d="m 38.796375,77.16874999999997 11.3808625,0.0 0.0,-13.144 -11.3808625,-0.0 0.0,13.144 z " id="path3585"/>
<path style="fill:#211c1d;fill-opacity:1;fill-rule:nonzero;stroke:none" d="m 38.796375,36.83249999999998 11.3808625,0.0 0.0,-5.211912500000001 -11.3808625,-0.0 0.0,5.211912500000001 z " id="path3587"/>
<path style="fill:#bbbcbd;fill-opacity:1;fill-rule:nonzero;stroke:none" d="m 38.796375,52.24249999999998 11.3808625,0.0 0.0,-3.4003875 -11.3808625,-0.0 0.0,3.4003875 z " id="path3589"/>
<path style="fill:none;stroke:#211c1d;stroke-width:0.1;stroke-linecap:butt;stroke-linejoin:miter;stroke-miterlimit:4;stroke-opacity:1;stroke-dasharray:none" d="m 38.796375,52.24249999999998 11.3808625,0.0 0.0,-3.4003875 -11.3808625,-0.0 0.0,3.4003875 z " id="path3591"/>
<path style="fill:#bbbcbd;fill-opacity:1;fill-rule:nonzero;stroke:none" d="m 38.796375,90.31087499999998 11.3808625,0.0 0.0,-4.0786125 -11.3808625,-0.0 0.0,4.0786125 z " id="path3593"/>
<path style="fill:none;stroke:#211c1d;stroke-width:0.1;stroke-linecap:butt;stroke-linejoin:miter;stroke-miterlimit:4;stroke-opacity:1;stroke-dasharray:none" d="m 38.796375,90.31087499999998 11.3808625,0.0 0.0,-4.0786125 -11.3808625,-0.0 0.0,4.0786125 z " id="path3595"/>
<path style="fill:#bbbcbd;fill-opacity:1;fill-rule:nonzero;stroke:none" d="m 38.796375,98.46812499999999 11.3808625,0.0 0.0,-4.5336875 -11.3808625,-0.0 0.0,4.5336875 z " id="path3597"/>
<path style="fill:none;stroke:#211c1d;stroke-width:0.1;stroke-linecap:butt;stroke-linejoin:miter;stroke-miterlimit:4;stroke-opacity:1;stroke-dasharray:none" d="m 38.796375,98.46812499999999 11.3808625,0.0 0.0,-4.5336875 -11.3808625,-0.0 0.0,4.5336875 z " id="path3599"/>
<path style="fill:#bbbcbd;fill-opacity:1;fill-rule:nonzero;stroke:none" d="m 38.796375,107.53299999999999 11.3808625,0.0 0.0,-4.5336875 -11.3808625,-0.0 0.0,4.5336875 z " id="path3601"/>
<path style="fill:none;stroke:#211c1d;stroke-width:0.1;stroke-linecap:butt;stroke-linejoin:miter;stroke-miterlimit:4;stroke-opacity:1;stroke-dasharray:none" d="m 38.796375,107.53299999999999 11.3808625,0.0 0.0,-4.5336875 -11.3808625,-0.0 0.0,4.5336875 z " id="path3603"/>
<path style="fill:#211c1d;fill-opacity:1;fill-rule:nonzero;stroke:none" d="m 38.796375,130.87237499999998 11.3808625,0.0 0.0,-5.666012500000001 -11.3808625,-0.0 0.0,5.666012500000001 z " id="path3605"/>
<path style="fill:#7a7e82;fill-opacity:1;fill-rule:nonzero;stroke:none" d="m 38.796375,16.212499999999977 11.3808625,0.0 0.0,-5.212400000000001 -11.3808625,-0.0 0.0,5.212400000000001 z " id="path3607"/>
<path style="fill:none;stroke:#211c1d;stroke-width:0.1;stroke-linecap:butt;stroke-linejoin:miter;stroke-miterlimit:4;stroke-opacity:1;stroke-dasharray:none" d="m 38.796375,16.212499999999977 11.3808625,0.0 0.0,-5.212400000000001 -11.3808625,-0.0 0.0,5.212400000000001 z " id="path3609"/>
<path style="fill:#7a7e82;fill-opacity:1;fill-rule:nonzero;stroke:none" d="m 38.796375,148.321125 11.3808625,0.0 0.0,-5.212400000000001 -11.3808625,-0.0 0.0,5.212400000000001 z " id="path3611"/>
<path style="fill:none;stroke:#211c1d;stroke-width:0.1;stroke-linecap:butt;stroke-linejoin:miter;stroke-miterlimit:4;stroke-opacity:1;stroke-dasharray:none" d="m 38.796375,148.321125 11.3808625,0.0 0.0,-5.212400000000001 -11.3808625,-0.0 0.0,5.212400000000001 z " id="path3613"/>
<path style="fill:#e9eae9;fill-opacity:1;fill-rule:nonzero;stroke:none" d="m 38.796375,7.149999999999977 11.3808625,0.0 0.0,-2.94775 -11.3808625,-0.0 0.0,2.94775 z " id="path3615"/>
<path style="fill:none;stroke:#211c1d;stroke-width:0.1;stroke-linecap:butt;stroke-linejoin:miter;stroke-miterlimit:4;stroke-opacity:1;stroke-dasharray:none" d="m 38.796375,7.149999999999977 11.3808625,0.0 0.0,-2.94775 -11.3808625,-0.0 0.0,2.94775 z " id="path3617"/>
<path style="fill:#e9eae9;fill-opacity:1;fill-rule:nonzero;stroke:none" d="m 38.796375,22.783749999999998 11.3808625,0.0 0.0,-2.9462875 -11.3808625,-0.0 0.0,2.9462875 z " id="path3619"/>
<path style="fill:none;stroke:#211c1d;stroke-width:0.1;stroke-linecap:butt;stroke-linejoin:miter;stroke-miterlimit:4;stroke-opacity:1;stroke-dasharray:none" d="m 38.796375,22.783749999999998 11.3808625,0.0 0.0,-2.9462875 -11.3808625,-0.0 0.0,2.9462875 z " id="path3621"/>
<path style="fill:#e9eae9;fill-opacity:1;fill-rule:nonzero;stroke:none" d="m 38.796375,45.89874999999998 11.3808625,0.0 0.0,-2.7207 -11.3808625,-0.0 0.0,2.7207 z " id="path3623"/>
<path style="fill:none;stroke:#211c1d;stroke-width:0.1;stroke-linecap:butt;stroke-linejoin:miter;stroke-miterlimit:4;stroke-opacity:1;stroke-dasharray:none" d="m 38.796375,45.89874999999998 11.3808625,0.0 0.0,-2.7207 -11.3808625,-0.0 0.0,2.7207 z " id="path3625"/>
<path style="fill:#e9eae9;fill-opacity:1;fill-rule:nonzero;stroke:none" d="m 38.796375,84.41975 11.3808625,0.0 0.0,-4.0795875 -11.3808625,-0.0 0.0,4.0795875 z " id="path3627"/>
<path style="fill:none;stroke:#211c1d;stroke-width:0.1;stroke-linecap:butt;stroke-linejoin:miter;stroke-miterlimit:4;stroke-opacity:1;stroke-dasharray:none" d="m 38.796375,84.41975 11.3808625,0.0 0.0,-4.0795875 -11.3808625,-0.0 0.0,4.0795875 z " id="path3629"/>
<path style="fill:#e9eae9;fill-opacity:1;fill-rule:nonzero;stroke:none" d="m 38.796375,114.7815 11.3808625,0.0 0.0,-2.265625 -11.3808625,-0.0 0.0,2.265625 z " id="path3631"/>
<path style="fill:none;stroke:#211c1d;stroke-width:0.1;stroke-linecap:butt;stroke-linejoin:miter;stroke-miterlimit:4;stroke-opacity:1;stroke-dasharray:none" d="m 38.796375,114.7815 11.3808625,0.0 0.0,-2.265625 -11.3808625,-0.0 0.0,2.265625 z " id="path3633"/>
<path style="fill:#e9eae9;fill-opacity:1;fill-rule:nonzero;stroke:none" d="m 38.796375,121.12924999999998 11.3808625,0.0 0.0,-2.9467750000000006 -11.3808625,-0.0 0.0,2.9467750000000006 z " id="path3635"/>
<path style="fill:none;stroke:#211c1d;stroke-width:0.1;stroke-linecap:butt;stroke-linejoin:miter;stroke-miterlimit:4;stroke-opacity:1;stroke-dasharray:none" d="m 38.796375,121.12924999999998 11.3808625,0.0 0.0,-2.9467750000000006 -11.3808625,-0.0 0.0,2.9467750000000006 z " id="path3637"/>
<path style="fill:#e9eae9;fill-opacity:1;fill-rule:nonzero;stroke:none" d="m 38.796375,137.445125 11.3808625,0.0 0.0,-4.0791 -11.3808625,-0.0 0.0,4.0791 z " id="path3639"/>
<path style="fill:none;stroke:#211c1d;stroke-width:0.1;stroke-linecap:butt;stroke-linejoin:miter;stroke-miterlimit:4;stroke-opacity:1;stroke-dasharray:none" d="m 38.796375,137.445125 11.3808625,0.0 0.0,-4.0791 -11.3808625,-0.0 0.0,4.0791 z " id="path3641"/>
<path style="fill:#e9eae9;fill-opacity:1;fill-rule:nonzero;stroke:none" d="m 38.796375,154.21274999999997 11.3808625,0.0 0.0,-2.9462875 -11.3808625,-0.0 0.0,2.9462875 z " id="path3643"/>
<path style="fill:none;stroke:#211c1d;stroke-width:0.1;stroke-linecap:butt;stroke-linejoin:miter;stroke-miterlimit:4;stroke-opacity:1;stroke-dasharray:none" d="m 38.796375,154.21274999999997 11.3808625,0.0 0.0,-2.9462875 -11.3808625,-0.0 0.0,2.9462875 z " id="path3645"/>
<path style="fill:#e9eae9;fill-opacity:1;fill-rule:nonzero;stroke:none" d="m 38.796375,161.91725 11.3808625,0.0 0.0,-2.03955 -11.3808625,-0.0 0.0,2.03955 z " id="path3647"/>
<path style="fill:none;stroke:#211c1d;stroke-width:0.1;stroke-linecap:butt;stroke-linejoin:miter;stroke-miterlimit:4;stroke-opacity:1;stroke-dasharray:none" d="m 38.796375,161.91725 11.3808625,0.0 0.0,-2.03955 -11.3808625,-0.0 0.0,2.03955 z " id="path3649"/>
<path style="fill:#e9eae9;fill-opacity:1;fill-rule:nonzero;stroke:none" d="m 38.796375,167.35625 11.3808625,0.0 0.0,-2.267575 -11.3808625,-0.0 0.0,2.267575 z " id="path3651"/>
<path style="fill:none;stroke:#211c1d;stroke-width:0.1;stroke-linecap:butt;stroke-linejoin:miter;stroke-miterlimit:4;stroke-opacity:1;stroke-dasharray:none" d="m 38.796375,167.35625 11.3808625,0.0 0.0,-2.267575 -11.3808625,-0.0 0.0,2.267575 z " id="path3653"/>
<path style="fill:none;stroke:#211c1d;stroke-width:0.8;stroke-linecap:butt;stroke-linejoin:miter;stroke-miterlimit:4;stroke-opacity:1;stroke-dasharray:none" d="m 41.745625,59.32499999999999 c -1.7538750000000003,0.90375 -2.9395,2.45625 -2.9395,3.4250000000000003 l 0.0,110.497375 c 0.0,1.415 2.5453750000000004,2.564 5.681125,2.564 3.1372500000000003,0.0 5.682125,-1.149 5.682125,-2.564 l 0.0,-110.638625 c 0.0,-0.66125 -1.181625,-2.3775000000000004 -2.92425,-3.2837500000000004 1.742625,-0.90875 2.92425,-2.495 2.92425,-3.455 l 0.0,-52.346250000000005 c 0.0,-1.41625 -2.544875,-2.565 -5.682125,-2.565 -3.13575,-0.0 -5.681125,1.1487500000000002 -5.681125,2.565 l 0.0,52.346250000000005 c 0.0,0.96375 1.185625,2.54875 2.9395,3.455 z " id="path3655"/>
<path style="fill:none;stroke:#231f20;stroke-width:0.8;stroke-linecap:butt;stroke-linejoin:miter;stroke-miterlimit:4;stroke-opacity:1;stroke-dasharray:none;display:none" d="M 41.34625,59.361249999999984 0.0,59.361249999999984 " id="path3657"/>
<text>
<tspan x="41.2915" y="184.4651375" id="tspan3461" style="font-size:7.19543791px;font-variant:normal;font-weight:normal;writing-mode:lr-tb;fill:#211c1d;fill-opacity:1;fill-rule:nonzero;stroke:none;font-family:Helvetica;-inkscape-font-specification:Helvetica">9</tspan>
</text>
</g>
</svg>
