<?xml version="1.0" encoding="UTF-8"?>
<svg xmlns:xlink="http://www.w3.org/1999/xlink" xmlns="http://www.w3.org/2000/svg" contentScriptType="text/ecmascript" zoomAndPan="magnify" contentStyleType="text/css" preserveAspectRatio="xMidYMid meet" version="1.0">
<g>
<path style="fill:#a4bdc8;fill-opacity:1;fill-rule:nonzero;stroke:none" d="m 50.16937500000001,86.83250000000001 0.0,-1.3575000000000002 c 0.0,-0.9650000000000001 -1.1801250000000003,-2.54875 -2.920875,-3.4575 1.74075,-0.9050000000000001 2.920875,-2.4925 2.920875,-3.45375 l -0.43787500000000007,1.02 -10.487375,-0.0 -0.43800000000000006,-1.02 c 0.0,0.9662500000000002 1.189,2.55 2.9395,3.45375 -1.7505000000000002,0.9062500000000001 -2.9395,2.49125 -2.9395,3.4575 l 0.0,1.3575000000000002 11.36325,0.0 " id="path22"/>
<path style="fill:none;stroke:#100f0d;stroke-width:0.8;stroke-linecap:butt;stroke-linejoin:miter;stroke-miterlimit:4;stroke-opacity:1;stroke-dasharray:none" d="m 50.16937500000001,86.83250000000001 0.0,-1.3575000000000002 c 0.0,-0.9650000000000001 -1.1801250000000003,-2.54875 -2.920875,-3.4575 1.74075,-0.9050000000000001 2.920875,-2.4925 2.920875,-3.45375 l -0.43787500000000007,1.02 -10.487375,-0.0 -0.43800000000000006,-1.02 c 0.0,0.9662500000000002 1.189,2.55 2.9395,3.45375 -1.7505000000000002,0.9062500000000001 -2.9395,2.49125 -2.9395,3.4575 l 0.0,1.3575000000000002 11.36325,0.0 z " id="path24"/>
<path style="fill:#211c1d;fill-opacity:1;fill-rule:nonzero;stroke:none" d="m 38.796375,44.798749999999984 11.3833,0.0 0.0,-5.4370125 -11.3833,-0.0 0.0,5.4370125 z " id="path32"/>
<path style="fill:#211c1d;fill-opacity:1;fill-rule:nonzero;stroke:none" d="m 38.796375,52.95750000000001 11.3833,0.0 0.0,-6.344725000000001 -11.3833,-0.0 0.0,6.344725000000001 z " id="path34"/>
<path style="fill:#211c1d;fill-opacity:1;fill-rule:nonzero;stroke:none" d="m 38.796375,117.76462499999998 11.3833,0.0 0.0,-7.2504875 -11.3833,-0.0 0.0,7.2504875 z " id="path36"/>
<path style="fill:#211c1d;fill-opacity:1;fill-rule:nonzero;stroke:none" d="m 38.796375,126.82762499999998 11.3833,0.0 0.0,-7.250975 -11.3833,-0.0 0.0,7.250975 z " id="path38"/>
<path style="fill:#bbbcbd;fill-opacity:1;fill-rule:nonzero;stroke:none" d="m 38.796375,12.943749999999966 11.3833,0.0 0.0,-4.3994125 -11.3833,-0.0 0.0,4.3994125 z " id="path40"/>
<path style="fill:none;stroke:#211c1d;stroke-width:0.1;stroke-linecap:butt;stroke-linejoin:miter;stroke-miterlimit:4;stroke-opacity:1;stroke-dasharray:none" d="m 38.796375,12.943749999999966 11.3833,0.0 0.0,-4.3994125 -11.3833,-0.0 0.0,4.3994125 z " id="path42"/>
<path style="fill:#bbbcbd;fill-opacity:1;fill-rule:nonzero;stroke:none" d="m 38.796375,26.087500000000006 11.3833,0.0 0.0,-4.4013625 -11.3833,-0.0 0.0,4.4013625 z " id="path44"/>
<path style="fill:none;stroke:#211c1d;stroke-width:0.1;stroke-linecap:butt;stroke-linejoin:miter;stroke-miterlimit:4;stroke-opacity:1;stroke-dasharray:none" d="m 38.796375,26.087500000000006 11.3833,0.0 0.0,-4.4013625 -11.3833,-0.0 0.0,4.4013625 z " id="path46"/>
<path style="fill:#bbbcbd;fill-opacity:1;fill-rule:nonzero;stroke:none" d="m 38.796375,36.05624999999998 11.3833,0.0 0.0,-2.3608375000000006 -11.3833,-0.0 0.0,2.3608375000000006 z " id="path48"/>
<path style="fill:none;stroke:#211c1d;stroke-width:0.1;stroke-linecap:butt;stroke-linejoin:miter;stroke-miterlimit:4;stroke-opacity:1;stroke-dasharray:none" d="m 38.796375,36.05624999999998 11.3833,0.0 0.0,-2.3608375000000006 -11.3833,-0.0 0.0,2.3608375000000006 z " id="path50"/>
<path style="fill:#bbbcbd;fill-opacity:1;fill-rule:nonzero;stroke:none" d="m 38.796375,94.97499999999997 11.3833,0.0 0.0,-4.8559625 -11.3833,-0.0 0.0,4.8559625 z " id="path52"/>
<path style="fill:none;stroke:#211c1d;stroke-width:0.1;stroke-linecap:butt;stroke-linejoin:miter;stroke-miterlimit:4;stroke-opacity:1;stroke-dasharray:none" d="m 38.796375,94.97499999999997 11.3833,0.0 0.0,-4.8559625 -11.3833,-0.0 0.0,4.8559625 z " id="path54"/>
<path style="fill:#bbbcbd;fill-opacity:1;fill-rule:nonzero;stroke:none" d="m 38.796375,106.75687499999998 11.3833,0.0 0.0,-4.1723625 -11.3833,-0.0 0.0,4.1723625 z " id="path56"/>
<path style="fill:none;stroke:#211c1d;stroke-width:0.1;stroke-linecap:butt;stroke-linejoin:miter;stroke-miterlimit:4;stroke-opacity:1;stroke-dasharray:none" d="m 38.796375,106.75687499999998 11.3833,0.0 0.0,-4.1723625 -11.3833,-0.0 0.0,4.1723625 z " id="path58"/>
<path style="fill:#bbbcbd;fill-opacity:1;fill-rule:nonzero;stroke:none" d="m 38.796375,145.277375 11.3833,0.0 0.0,-3.71875 -11.3833,-0.0 0.0,3.71875 z " id="path60"/>
<path style="fill:none;stroke:#211c1d;stroke-width:0.1;stroke-linecap:butt;stroke-linejoin:miter;stroke-miterlimit:4;stroke-opacity:1;stroke-dasharray:none" d="m 38.796375,145.277375 11.3833,0.0 0.0,-3.71875 -11.3833,-0.0 0.0,3.71875 z " id="path62"/>
<path style="fill:#211c1d;fill-opacity:1;fill-rule:nonzero;stroke:none" d="m 38.796375,175.09625 11.3833,0.0 0.0,-11.1035125 -11.3833,-0.0 0.0,11.1035125 z " id="path64"/>
<path style="fill:#211c1d;fill-opacity:1;fill-rule:nonzero;stroke:none" d="m 38.796375,201.835 11.3833,0.0 0.0,-6.569825 -11.3833,-0.0 0.0,6.569825 z " id="path66"/>
<path style="fill:#7a7e82;fill-opacity:1;fill-rule:nonzero;stroke:none" d="m 38.796375,65.19375 11.3833,0.0 0.0,-4.98535 -11.3833,-0.0 0.0,4.98535 z " id="path68"/>
<path style="fill:none;stroke:#211c1d;stroke-width:0.1;stroke-linecap:butt;stroke-linejoin:miter;stroke-miterlimit:4;stroke-opacity:1;stroke-dasharray:none" d="m 38.796375,65.19375 11.3833,0.0 0.0,-4.98535 -11.3833,-0.0 0.0,4.98535 z " id="path70"/>
<path style="fill:#7a7e82;fill-opacity:1;fill-rule:nonzero;stroke:none" d="m 38.796375,134.8525 11.3833,0.0 0.0,-5.9838875 -11.3833,-0.0 0.0,5.9838875 z " id="path72"/>
<path style="fill:none;stroke:#211c1d;stroke-width:0.1;stroke-linecap:butt;stroke-linejoin:miter;stroke-miterlimit:4;stroke-opacity:1;stroke-dasharray:none" d="m 38.796375,134.8525 11.3833,0.0 0.0,-5.9838875 -11.3833,-0.0 0.0,5.9838875 z " id="path74"/>
<path style="fill:#7a7e82;fill-opacity:1;fill-rule:nonzero;stroke:none" d="m 38.796375,157.061 11.3833,0.0 0.0,-6.66455 -11.3833,-0.0 0.0,6.66455 z " id="path76"/>
<path style="fill:none;stroke:#211c1d;stroke-width:0.1;stroke-linecap:butt;stroke-linejoin:miter;stroke-miterlimit:4;stroke-opacity:1;stroke-dasharray:none" d="m 38.796375,157.061 11.3833,0.0 0.0,-6.66455 -11.3833,-0.0 0.0,6.66455 z " id="path78"/>
<path style="fill:#7a7e82;fill-opacity:1;fill-rule:nonzero;stroke:none" d="m 38.796375,193.318875 11.3833,0.0 0.0,-4.854000000000001 -11.3833,-0.0 0.0,4.854000000000001 z " id="path80"/>
<path style="fill:none;stroke:#211c1d;stroke-width:0.1;stroke-linecap:butt;stroke-linejoin:miter;stroke-miterlimit:4;stroke-opacity:1;stroke-dasharray:none" d="m 38.796375,193.318875 11.3833,0.0 0.0,-4.854000000000001 -11.3833,-0.0 0.0,4.854000000000001 z " id="path82"/>
<path style="fill:#e9eae9;fill-opacity:1;fill-rule:nonzero;stroke:none" d="m 38.796375,77.86500000000001 11.3833,0.0 0.0,-4.40235 -11.3833,-0.0 0.0,4.40235 z " id="path84"/>
<path style="fill:none;stroke:#211c1d;stroke-width:0.1;stroke-linecap:butt;stroke-linejoin:miter;stroke-miterlimit:4;stroke-opacity:1;stroke-dasharray:none" d="m 38.796375,77.86500000000001 11.3833,0.0 0.0,-4.40235 -11.3833,-0.0 0.0,4.40235 z " id="path86"/>
<path style="fill:#e9eae9;fill-opacity:1;fill-rule:nonzero;stroke:none" d="m 38.796375,183.121125 11.3833,0.0 0.0,-3.2661125 -11.3833,-0.0 0.0,3.2661125 z " id="path88"/>
<path style="fill:none;stroke:#211c1d;stroke-width:0.1;stroke-linecap:butt;stroke-linejoin:miter;stroke-miterlimit:4;stroke-opacity:1;stroke-dasharray:none" d="m 38.796375,183.121125 11.3833,0.0 0.0,-3.2661125 -11.3833,-0.0 0.0,3.2661125 z " id="path90"/>
<path style="fill:none;stroke:#211c1d;stroke-width:0.8;stroke-linecap:butt;stroke-linejoin:miter;stroke-miterlimit:4;stroke-opacity:1;stroke-dasharray:none" d="m 41.745625,82.01749999999998 c -1.7505000000000002,0.9062500000000001 -2.9395,2.49125 -2.9395,3.4575 l 0.0,125.194875 c 0.0,1.4165000000000003 2.5453750000000004,2.5665 5.681125,2.5665 3.1372500000000003,0.0 5.682125,-1.15 5.682125,-2.5665 l 0.0,-125.194875 c 0.0,-0.9650000000000001 -1.1801250000000003,-2.54875 -2.920875,-3.4575 1.74075,-0.9050000000000001 2.920875,-2.4925 2.920875,-3.45375 l 0.0,-75.68375 c 0.0,-1.41875 -2.544875,-2.5662500000000006 -5.682125,-2.5662500000000006 -3.13575,-0.0 -5.681125,1.1475 -5.681125,2.5662500000000006 l 0.0,75.68375 c 0.0,0.9662500000000002 1.189,2.55 2.9395,3.45375 z " id="path92"/>
<path style="fill:none;stroke:#231f20;stroke-width:0.8;stroke-linecap:butt;stroke-linejoin:miter;stroke-miterlimit:4;stroke-opacity:1;stroke-dasharray:none;display:none" d="M 41.350125000000006,82.055 0.0,82.055 " id="path94"/>
<text>
<tspan x="40.795874999999995" y="221.8901375" id="tspan30" style="font-size:7.19543791px;font-variant:normal;font-weight:normal;writing-mode:lr-tb;fill:#211c1d;fill-opacity:1;fill-rule:nonzero;stroke:none;font-family:Helvetica;-inkscape-font-specification:Helvetica">X</tspan>
</text>
</g>
</svg>
