<?xml version="1.0" encoding="UTF-8" standalone="no"?>
<!-- Created with Inkscape (http://www.inkscape.org/) -->
<svg xmlns:dc="http://purl.org/dc/elements/1.1/" xmlns:cc="http://creativecommons.org/ns#" xmlns:rdf="http://www.w3.org/1999/02/22-rdf-syntax-ns#" xmlns:svg="http://www.w3.org/2000/svg" xmlns="http://www.w3.org/2000/svg" version="1.1" width="50.487499" height="225.8125" id="svg2" xml:space="preserve">
  <metadata id="metadata8">
    <rdf:RDF>
      <cc:Work rdf:about="">
        <dc:format>image/svg+xml</dc:format>
        <dc:type rdf:resource="http://purl.org/dc/dcmitype/StillImage"/>
        <dc:title/>
      </cc:Work>
    </rdf:RDF>
  </metadata>
  <defs id="defs6">
    <clipPath id="clipPath18">
      <path d="m 0,0 403.855,0 0,1806 L 0,1806 0,0 z" id="path20"/>
    </clipPath>
  </defs>
  <g transform="matrix(1.25,0,0,-1.25,0,225.8125)" id="g10">
    <g transform="scale(0.1,0.1)" id="g12">
      <g id="g14">
        <g clip-path="url(#clipPath18)" id="g16">
          <path d="m 401.355,1111.84 0,10.86 c 0,7.72 -9.441,20.39 -23.367,27.66 13.926,7.24 23.367,19.94 23.367,27.63 l -3.503,-8.16 -83.899,0 -3.504,8.16 c 0,-7.73 9.512,-20.4 23.516,-27.63 -14.004,-7.25 -23.516,-19.93 -23.516,-27.66 l 0,-10.86 90.906,0" id="path22" style="fill:#a4bdc8;fill-opacity:1;fill-rule:nonzero;stroke:none"/>
          <path d="m 401.355,1111.84 0,10.86 c 0,7.72 -9.441,20.39 -23.367,27.66 13.926,7.24 23.367,19.94 23.367,27.63 l -3.503,-8.16 -83.899,0 -3.504,8.16 c 0,-7.73 9.512,-20.4 23.516,-27.63 -14.004,-7.25 -23.516,-19.93 -23.516,-27.66 l 0,-10.86 90.906,0 z" id="path24" style="fill:none;stroke:#100f0d;stroke-width:5;stroke-linecap:butt;stroke-linejoin:miter;stroke-miterlimit:4;stroke-opacity:1;stroke-dasharray:none"/>
          <g transform="scale(10,10)" id="g26"><text transform="matrix(1,0,0,-0.90697189,32.6367,3.13789)" id="text28"><tspan x="0" y="0" id="tspan30" style="font-size:7.19543791px;font-variant:normal;font-weight:normal;writing-mode:lr-tb;fill:#211c1d;fill-opacity:1;fill-rule:nonzero;stroke:none;font-family:Helvetica;-inkscape-font-specification:Helvetica">X</tspan></text>
</g>
          <path d="m 310.371,1448.11 91.0664,0 0,43.4961 -91.0664,0 0,-43.4961 z" id="path32" style="fill:#211c1d;fill-opacity:1;fill-rule:nonzero;stroke:none"/>
          <path d="m 310.371,1382.84 91.0664,0 0,50.7578 -91.0664,0 0,-50.7578 z" id="path34" style="fill:#211c1d;fill-opacity:1;fill-rule:nonzero;stroke:none"/>
          <path d="m 310.371,864.383 91.0664,0 0,58.0039 -91.0664,0 0,-58.0039 z" id="path36" style="fill:#211c1d;fill-opacity:1;fill-rule:nonzero;stroke:none"/>
          <path d="m 310.371,791.879 91.0664,0 0,58.0078 -91.0664,0 0,-58.0078 z" id="path38" style="fill:#211c1d;fill-opacity:1;fill-rule:nonzero;stroke:none"/>
          <path d="m 310.371,1702.95 91.0664,0 0,35.1953 -91.0664,0 0,-35.1953 z" id="path40" style="fill:#bbbcbd;fill-opacity:1;fill-rule:nonzero;stroke:none"/>
          <path d="m 310.371,1702.95 91.0664,0 0,35.1953 -91.0664,0 0,-35.1953 z" id="path42" style="fill:none;stroke:#211c1d;stroke-width:0.62;stroke-linecap:butt;stroke-linejoin:miter;stroke-miterlimit:4;stroke-opacity:1;stroke-dasharray:none"/>
          <path d="m 310.371,1597.8 91.0664,0 0,35.2109 -91.0664,0 0,-35.2109 z" id="path44" style="fill:#bbbcbd;fill-opacity:1;fill-rule:nonzero;stroke:none"/>
          <path d="m 310.371,1597.8 91.0664,0 0,35.2109 -91.0664,0 0,-35.2109 z" id="path46" style="fill:none;stroke:#211c1d;stroke-width:0.62;stroke-linecap:butt;stroke-linejoin:miter;stroke-miterlimit:4;stroke-opacity:1;stroke-dasharray:none"/>
          <path d="m 310.371,1518.05 91.0664,0 0,18.8867 -91.0664,0 0,-18.8867 z" id="path48" style="fill:#bbbcbd;fill-opacity:1;fill-rule:nonzero;stroke:none"/>
          <path d="m 310.371,1518.05 91.0664,0 0,18.8867 -91.0664,0 0,-18.8867 z" id="path50" style="fill:none;stroke:#211c1d;stroke-width:0.62;stroke-linecap:butt;stroke-linejoin:miter;stroke-miterlimit:4;stroke-opacity:1;stroke-dasharray:none"/>
          <path d="m 310.371,1046.7 91.0664,0 0,38.8477 -91.0664,0 0,-38.8477 z" id="path52" style="fill:#bbbcbd;fill-opacity:1;fill-rule:nonzero;stroke:none"/>
          <path d="m 310.371,1046.7 91.0664,0 0,38.8477 -91.0664,0 0,-38.8477 z" id="path54" style="fill:none;stroke:#211c1d;stroke-width:0.62;stroke-linecap:butt;stroke-linejoin:miter;stroke-miterlimit:4;stroke-opacity:1;stroke-dasharray:none"/>
          <path d="m 310.371,952.445 91.0664,0 0,33.3789 -91.0664,0 0,-33.3789 z" id="path56" style="fill:#bbbcbd;fill-opacity:1;fill-rule:nonzero;stroke:none"/>
          <path d="m 310.371,952.445 91.0664,0 0,33.3789 -91.0664,0 0,-33.3789 z" id="path58" style="fill:none;stroke:#211c1d;stroke-width:0.62;stroke-linecap:butt;stroke-linejoin:miter;stroke-miterlimit:4;stroke-opacity:1;stroke-dasharray:none"/>
          <path d="m 310.371,644.281 91.0664,0 0,29.75 -91.0664,0 0,-29.75 z" id="path60" style="fill:#bbbcbd;fill-opacity:1;fill-rule:nonzero;stroke:none"/>
          <path d="m 310.371,644.281 91.0664,0 0,29.75 -91.0664,0 0,-29.75 z" id="path62" style="fill:none;stroke:#211c1d;stroke-width:0.62;stroke-linecap:butt;stroke-linejoin:miter;stroke-miterlimit:4;stroke-opacity:1;stroke-dasharray:none"/>
          <path d="m 310.371,405.73 91.0664,0 0,88.8281 -91.0664,0 0,-88.8281 z" id="path64" style="fill:#211c1d;fill-opacity:1;fill-rule:nonzero;stroke:none"/>
          <path d="m 310.371,191.82 91.0664,0 0,52.5586 -91.0664,0 0,-52.5586 z" id="path66" style="fill:#211c1d;fill-opacity:1;fill-rule:nonzero;stroke:none"/>
          <path d="m 310.371,1284.95 91.0664,0 0,39.8828 -91.0664,0 0,-39.8828 z" id="path68" style="fill:#7a7e82;fill-opacity:1;fill-rule:nonzero;stroke:none"/>
          <path d="m 310.371,1284.95 91.0664,0 0,39.8828 -91.0664,0 0,-39.8828 z" id="path70" style="fill:none;stroke:#211c1d;stroke-width:0.62;stroke-linecap:butt;stroke-linejoin:miter;stroke-miterlimit:4;stroke-opacity:1;stroke-dasharray:none"/>
          <path d="m 310.371,727.68 91.0664,0 0,47.8711 -91.0664,0 0,-47.8711 z" id="path72" style="fill:#7a7e82;fill-opacity:1;fill-rule:nonzero;stroke:none"/>
          <path d="m 310.371,727.68 91.0664,0 0,47.8711 -91.0664,0 0,-47.8711 z" id="path74" style="fill:none;stroke:#211c1d;stroke-width:0.62;stroke-linecap:butt;stroke-linejoin:miter;stroke-miterlimit:4;stroke-opacity:1;stroke-dasharray:none"/>
          <path d="m 310.371,550.012 91.0664,0 0,53.3164 -91.0664,0 0,-53.3164 z" id="path76" style="fill:#7a7e82;fill-opacity:1;fill-rule:nonzero;stroke:none"/>
          <path d="m 310.371,550.012 91.0664,0 0,53.3164 -91.0664,0 0,-53.3164 z" id="path78" style="fill:none;stroke:#211c1d;stroke-width:0.62;stroke-linecap:butt;stroke-linejoin:miter;stroke-miterlimit:4;stroke-opacity:1;stroke-dasharray:none"/>
          <path d="m 310.371,259.949 91.0664,0 0,38.832 -91.0664,0 0,-38.832 z" id="path80" style="fill:#7a7e82;fill-opacity:1;fill-rule:nonzero;stroke:none"/>
          <path d="m 310.371,259.949 91.0664,0 0,38.832 -91.0664,0 0,-38.832 z" id="path82" style="fill:none;stroke:#211c1d;stroke-width:0.62;stroke-linecap:butt;stroke-linejoin:miter;stroke-miterlimit:4;stroke-opacity:1;stroke-dasharray:none"/>
          <path d="m 310.371,1183.58 91.0664,0 0,35.2188 -91.0664,0 0,-35.2188 z" id="path84" style="fill:#e9eae9;fill-opacity:1;fill-rule:nonzero;stroke:none"/>
          <path d="m 310.371,1183.58 91.0664,0 0,35.2188 -91.0664,0 0,-35.2188 z" id="path86" style="fill:none;stroke:#211c1d;stroke-width:0.62;stroke-linecap:butt;stroke-linejoin:miter;stroke-miterlimit:4;stroke-opacity:1;stroke-dasharray:none"/>
          <path d="m 310.371,341.531 91.0664,0 0,26.1289 -91.0664,0 0,-26.1289 z" id="path88" style="fill:#e9eae9;fill-opacity:1;fill-rule:nonzero;stroke:none"/>
          <path d="m 310.371,341.531 91.0664,0 0,26.1289 -91.0664,0 0,-26.1289 z" id="path90" style="fill:none;stroke:#211c1d;stroke-width:0.62;stroke-linecap:butt;stroke-linejoin:miter;stroke-miterlimit:4;stroke-opacity:1;stroke-dasharray:none"/>
          <path d="m 333.965,1150.36 c -14.004,-7.25 -23.516,-19.93 -23.516,-27.66 l 0,-1001.559 c 0,-11.332 20.363,-20.532 45.449,-20.532 25.098,0 45.457,9.2 45.457,20.532 l 0,1001.559 c 0,7.72 -9.441,20.39 -23.367,27.66 13.926,7.24 23.367,19.94 23.367,27.63 l 0,605.47 c 0,11.35 -20.359,20.53 -45.457,20.53 -25.086,0 -45.449,-9.18 -45.449,-20.53 l 0,-605.47 c 0,-7.73 9.512,-20.4 23.516,-27.63 z" id="path92" style="fill:none;stroke:#211c1d;stroke-width:5;stroke-linecap:butt;stroke-linejoin:miter;stroke-miterlimit:4;stroke-opacity:1;stroke-dasharray:none"/>
          <path d="M 330.801,1150.06 0,1150.06" id="path94" style="fill:none;stroke:#231f20;stroke-width:5;stroke-linecap:butt;stroke-linejoin:miter;stroke-miterlimit:4;stroke-opacity:1;stroke-dasharray:none"/>
          <g transform="scale(10,10)" id="g96"><text transform="matrix(1,0,0,-0.90698012,20.5789,175.824)" id="text98"><tspan x="0 2.0003321 4.0006642 5.0008302 7.0018091" y="0" id="tspan100" style="font-size:3.59771943px;font-variant:normal;font-weight:normal;writing-mode:lr-tb;fill:#231f20;fill-opacity:1;fill-rule:nonzero;stroke:none;font-family:Helvetica;-inkscape-font-specification:Helvetica">22.33</tspan><tspan x="2.065624 3.8009737 5.8019557 6.8021216" y="51.165619" id="tspan102" style="font-size:3.59771943px;font-variant:normal;font-weight:normal;writing-mode:lr-tb;fill:#231f20;fill-opacity:1;fill-rule:nonzero;stroke:none;font-family:Helvetica;-inkscape-font-specification:Helvetica">11.3</tspan><tspan x="-9.5281248 -7.7927756 -5.7917967 -4.7916307 -2.7906516" y="64.958427" id="tspan104" style="font-size:3.59771943px;font-variant:normal;font-weight:normal;writing-mode:lr-tb;fill:#231f20;fill-opacity:1;fill-rule:nonzero;stroke:none;font-family:Helvetica;-inkscape-font-specification:Helvetica">11.21</tspan><tspan x="0.26562876 2.0009782 4.0019574 5.0021234 7.0031052" y="57.162983" id="tspan106" style="font-size:3.59771943px;font-variant:normal;font-weight:normal;writing-mode:lr-tb;fill:#231f20;fill-opacity:1;fill-rule:nonzero;stroke:none;font-family:Helvetica;-inkscape-font-specification:Helvetica">11.23</tspan><tspan x="0.26562876 2.0009782 4.0019574 5.0021234 7.0031052" y="62.458282" id="tspan108" style="font-size:3.59771943px;font-variant:normal;font-weight:normal;writing-mode:lr-tb;fill:#231f20;fill-opacity:1;fill-rule:nonzero;stroke:none;font-family:Helvetica;-inkscape-font-specification:Helvetica">11.22</tspan><tspan x="2.2656286 4.000978 6.0019603 7.0021262" y="66.657478" id="tspan110" style="font-size:3.59771943px;font-variant:normal;font-weight:normal;writing-mode:lr-tb;fill:#231f20;fill-opacity:1;fill-rule:nonzero;stroke:none;font-family:Helvetica;-inkscape-font-specification:Helvetica">11.1</tspan><tspan x="2.2656286 4.000978 6.0019603 7.0021262" y="70.453995" id="tspan112" style="font-size:3.59771943px;font-variant:normal;font-weight:normal;writing-mode:lr-tb;fill:#231f20;fill-opacity:1;fill-rule:nonzero;stroke:none;font-family:Helvetica;-inkscape-font-specification:Helvetica">11.1</tspan><tspan x="5.0011792 7.0021582" y="77.950111" id="tspan114" style="font-size:3.59771943px;font-variant:normal;font-weight:normal;writing-mode:lr-tb;fill:#231f20;fill-opacity:1;fill-rule:nonzero;stroke:none;font-family:Helvetica;-inkscape-font-specification:Helvetica">12</tspan></text>
</g>
          <path d="m 202.871,1179.07 110.93,0" id="path116" style="fill:none;stroke:#231f20;stroke-width:1.82598996;stroke-linecap:butt;stroke-linejoin:miter;stroke-miterlimit:4;stroke-opacity:1;stroke-dasharray:none"/>
          <g transform="scale(10,10)" id="g118"><text transform="matrix(1,0,0,-0.90698012,22.5801,100.593)" id="text120"><tspan x="0 2.0003321 4.0006642 5.0008302" y="0" id="tspan122" style="font-size:3.59771943px;font-variant:normal;font-weight:normal;writing-mode:lr-tb;fill:#231f20;fill-opacity:1;fill-rule:nonzero;stroke:none;font-family:Helvetica;-inkscape-font-specification:Helvetica">13.1</tspan><tspan x="0 2.0003321 4.0006642 5.0008302" y="5.2974591" id="tspan124" style="font-size:3.59771943px;font-variant:normal;font-weight:normal;writing-mode:lr-tb;fill:#231f20;fill-opacity:1;fill-rule:nonzero;stroke:none;font-family:Helvetica;-inkscape-font-specification:Helvetica">13.2</tspan><tspan x="0 2.0003321 4.0006642 5.0008302" y="9.0961199" id="tspan126" style="font-size:3.59771943px;font-variant:normal;font-weight:normal;writing-mode:lr-tb;fill:#231f20;fill-opacity:1;fill-rule:nonzero;stroke:none;font-family:Helvetica;-inkscape-font-specification:Helvetica">13.3</tspan><tspan x="0 2.0003321 4.0006642 5.0008302" y="13.891826" id="tspan128" style="font-size:3.59771943px;font-variant:normal;font-weight:normal;writing-mode:lr-tb;fill:#231f20;fill-opacity:1;fill-rule:nonzero;stroke:none;font-family:Helvetica;-inkscape-font-specification:Helvetica">21.1</tspan><tspan x="0 2.0003321 4.0006642 5.0008302" y="17.289949" id="tspan130" style="font-size:3.59771943px;font-variant:normal;font-weight:normal;writing-mode:lr-tb;fill:#231f20;fill-opacity:1;fill-rule:nonzero;stroke:none;font-family:Helvetica;-inkscape-font-specification:Helvetica">21.2</tspan><tspan x="-2.0011685 -0.00083645002 1.9994955 2.9996614 5.0006404" y="21.98875" id="tspan132" style="font-size:3.59771943px;font-variant:normal;font-weight:normal;writing-mode:lr-tb;fill:#231f20;fill-opacity:1;fill-rule:nonzero;stroke:none;font-family:Helvetica;-inkscape-font-specification:Helvetica">21.31</tspan><tspan x="-2.0011685 -0.00083645002 1.9994955 2.9996614 5.0006404" y="29.482719" id="tspan134" style="font-size:3.59771943px;font-variant:normal;font-weight:normal;writing-mode:lr-tb;fill:#231f20;fill-opacity:1;fill-rule:nonzero;stroke:none;font-family:Helvetica;-inkscape-font-specification:Helvetica">21.33</tspan><tspan x="0 2.0003321 4.0006642 5.0008302" y="34.975704" id="tspan136" style="font-size:3.59771943px;font-variant:normal;font-weight:normal;writing-mode:lr-tb;fill:#231f20;fill-opacity:1;fill-rule:nonzero;stroke:none;font-family:Helvetica;-inkscape-font-specification:Helvetica">22.1</tspan><tspan x="0 2.0003321 4.0006642 5.0008302" y="39.373882" id="tspan138" style="font-size:3.59771943px;font-variant:normal;font-weight:normal;writing-mode:lr-tb;fill:#231f20;fill-opacity:1;fill-rule:nonzero;stroke:none;font-family:Helvetica;-inkscape-font-specification:Helvetica">22.2</tspan><tspan x="0 2.0003321 4.0006642 5.0008302" y="43.473167" id="tspan140" style="font-size:3.59771943px;font-variant:normal;font-weight:normal;writing-mode:lr-tb;fill:#231f20;fill-opacity:1;fill-rule:nonzero;stroke:none;font-family:Helvetica;-inkscape-font-specification:Helvetica">22.3</tspan><tspan x="-2.0011685 -0.00083645002 1.9994955 2.9996614 5.0006404" y="-77.551537" id="tspan142" style="font-size:3.59771943px;font-variant:normal;font-weight:normal;writing-mode:lr-tb;fill:#231f20;fill-opacity:1;fill-rule:nonzero;stroke:none;font-family:Helvetica;-inkscape-font-specification:Helvetica">22.32</tspan><tspan x="-2.0011685 -0.00083645002 1.9994955 2.9996614 5.0006404" y="-71.754486" id="tspan144" style="font-size:3.59771943px;font-variant:normal;font-weight:normal;writing-mode:lr-tb;fill:#231f20;fill-opacity:1;fill-rule:nonzero;stroke:none;font-family:Helvetica;-inkscape-font-specification:Helvetica">22.31</tspan><tspan x="0 2.0003321 4.0006642 5.0008302" y="-65.957436" id="tspan146" style="font-size:3.59771943px;font-variant:normal;font-weight:normal;writing-mode:lr-tb;fill:#231f20;fill-opacity:1;fill-rule:nonzero;stroke:none;font-family:Helvetica;-inkscape-font-specification:Helvetica">22.2</tspan><tspan x="-2.0011685 -0.00083645002 1.9994955 2.9996614 5.0006404" y="-60.360649" id="tspan148" style="font-size:3.59771943px;font-variant:normal;font-weight:normal;writing-mode:lr-tb;fill:#231f20;fill-opacity:1;fill-rule:nonzero;stroke:none;font-family:Helvetica;-inkscape-font-specification:Helvetica">22.13</tspan><tspan x="-1.735543 0.26478899 2.265121 3.2652869 5.0016174" y="-53.166016" id="tspan150" style="font-size:3.59771943px;font-variant:normal;font-weight:normal;writing-mode:lr-tb;fill:#231f20;fill-opacity:1;fill-rule:nonzero;stroke:none;font-family:Helvetica;-inkscape-font-specification:Helvetica">22.11</tspan><tspan x="-2.0011685 -0.00083645002 1.9994955 2.9996614 5.0006404" y="-56.76656" id="tspan152" style="font-size:3.59771943px;font-variant:normal;font-weight:normal;writing-mode:lr-tb;fill:#231f20;fill-opacity:1;fill-rule:nonzero;stroke:none;font-family:Helvetica;-inkscape-font-specification:Helvetica">22.12</tspan><tspan x="0 2.0003321 4.0006642 5.0008302" y="-49.567616" id="tspan154" style="font-size:3.59771943px;font-variant:normal;font-weight:normal;writing-mode:lr-tb;fill:#231f20;fill-opacity:1;fill-rule:nonzero;stroke:none;font-family:Helvetica;-inkscape-font-specification:Helvetica">21.3</tspan><tspan x="0 2.0003321 4.0006642 5.0008302" y="-43.174057" id="tspan156" style="font-size:3.59771943px;font-variant:normal;font-weight:normal;writing-mode:lr-tb;fill:#231f20;fill-opacity:1;fill-rule:nonzero;stroke:none;font-family:Helvetica;-inkscape-font-specification:Helvetica">21.1</tspan><tspan x="0 2.0003321 4.0006642 5.0008302" y="-46.57003" id="tspan158" style="font-size:3.59771943px;font-variant:normal;font-weight:normal;writing-mode:lr-tb;fill:#231f20;fill-opacity:1;fill-rule:nonzero;stroke:none;font-family:Helvetica;-inkscape-font-specification:Helvetica">21.2</tspan><tspan x="0.26445344 1.9998029 4.0007849 5.0009508" y="-36.976467" id="tspan160" style="font-size:3.59771943px;font-variant:normal;font-weight:normal;writing-mode:lr-tb;fill:#231f20;fill-opacity:1;fill-rule:nonzero;stroke:none;font-family:Helvetica;-inkscape-font-specification:Helvetica">11.4</tspan><tspan x="0.26445344 1.9998029 4.0007849 5.0009508" y="-8.9947062" id="tspan162" style="font-size:3.59771943px;font-variant:normal;font-weight:normal;writing-mode:lr-tb;fill:#231f20;fill-opacity:1;fill-rule:nonzero;stroke:none;font-family:Helvetica;-inkscape-font-specification:Helvetica">11.2</tspan><tspan x="-2.0011752 -0.00084306003 1.9994889 2.999655 5.0006337" y="26.084784" id="tspan164" style="font-size:3.59771943px;font-variant:normal;font-weight:normal;writing-mode:lr-tb;fill:#231f20;fill-opacity:1;fill-rule:nonzero;stroke:none;font-family:Helvetica;-inkscape-font-specification:Helvetica">21.32</tspan><tspan x="2.9999931 5.0009718" y="48.667416" id="tspan166" style="font-size:3.59771943px;font-variant:normal;font-weight:normal;writing-mode:lr-tb;fill:#231f20;fill-opacity:1;fill-rule:nonzero;stroke:none;font-family:Helvetica;-inkscape-font-specification:Helvetica">23</tspan><tspan x="2.9999931 5.0009718" y="54.665596" id="tspan168" style="font-size:3.59771943px;font-variant:normal;font-weight:normal;writing-mode:lr-tb;fill:#231f20;fill-opacity:1;fill-rule:nonzero;stroke:none;font-family:Helvetica;-inkscape-font-specification:Helvetica">24</tspan><tspan x="2.9999931 5.0009718" y="62.05835" id="tspan170" style="font-size:3.59771943px;font-variant:normal;font-weight:normal;writing-mode:lr-tb;fill:#231f20;fill-opacity:1;fill-rule:nonzero;stroke:none;font-family:Helvetica;-inkscape-font-specification:Helvetica">25</tspan><tspan x="-6.62e-06 2.0003254 4.0006576 5.0008235" y="69.256866" id="tspan172" style="font-size:3.59771943px;font-variant:normal;font-weight:normal;writing-mode:lr-tb;fill:#231f20;fill-opacity:1;fill-rule:nonzero;stroke:none;font-family:Helvetica;-inkscape-font-specification:Helvetica">26.1</tspan><tspan x="-6.62e-06 2.0003254 4.0006576 5.0008235" y="73.055099" id="tspan174" style="font-size:3.59771943px;font-variant:normal;font-weight:normal;writing-mode:lr-tb;fill:#231f20;fill-opacity:1;fill-rule:nonzero;stroke:none;font-family:Helvetica;-inkscape-font-specification:Helvetica">26.2</tspan><tspan x="-6.62e-06 2.0003254 4.0006576 5.0008235" y="76.849884" id="tspan176" style="font-size:3.59771943px;font-variant:normal;font-weight:normal;writing-mode:lr-tb;fill:#231f20;fill-opacity:1;fill-rule:nonzero;stroke:none;font-family:Helvetica;-inkscape-font-specification:Helvetica">26.3</tspan><tspan x="-6.62e-06 2.0003254 4.0006576 5.0008235" y="81.247208" id="tspan178" style="font-size:3.59771943px;font-variant:normal;font-weight:normal;writing-mode:lr-tb;fill:#231f20;fill-opacity:1;fill-rule:nonzero;stroke:none;font-family:Helvetica;-inkscape-font-specification:Helvetica">27.1</tspan><tspan x="-6.62e-06 2.0003254 4.0006576 5.0008235" y="88.246307" id="tspan180" style="font-size:3.59771943px;font-variant:normal;font-weight:normal;writing-mode:lr-tb;fill:#231f20;fill-opacity:1;fill-rule:nonzero;stroke:none;font-family:Helvetica;-inkscape-font-specification:Helvetica">27.3</tspan><tspan x="-6.62e-06 2.0003254 4.0006576 5.0008235" y="84.645325" id="tspan182" style="font-size:3.59771943px;font-variant:normal;font-weight:normal;writing-mode:lr-tb;fill:#231f20;fill-opacity:1;fill-rule:nonzero;stroke:none;font-family:Helvetica;-inkscape-font-specification:Helvetica">27.2</tspan><tspan x="2.9999931 5.0009718" y="96.039185" id="tspan184" style="font-size:3.59771943px;font-variant:normal;font-weight:normal;writing-mode:lr-tb;fill:#231f20;fill-opacity:1;fill-rule:nonzero;stroke:none;font-family:Helvetica;-inkscape-font-specification:Helvetica">28</tspan></text>
</g>
        </g>
      </g>
    </g>
  </g>
</svg>
