<?xml version="1.0" encoding="UTF-8"?>
<svg xmlns:xlink="http://www.w3.org/1999/xlink" xmlns="http://www.w3.org/2000/svg" contentScriptType="text/ecmascript" zoomAndPan="magnify" contentStyleType="text/css" preserveAspectRatio="xMidYMid meet" version="1.0">

<g id="chromosomeX" title="Chromosome X">
<path style="fill:#211c1d;fill-opacity:1;fill-rule:nonzero;stroke:none" id="xp21.3" d="m 38.796375,44.798749999999984 11.3833,0.0 0.0,-5.4370125 -11.3833,-0.0 0.0,5.4370125 z "/>
<path style="fill:#211c1d;fill-opacity:1;fill-rule:nonzero;stroke:none" id="xp21.1" d="m 38.796375,52.95750000000001 11.3833,0.0 0.0,-6.344725000000001 -11.3833,-0.0 0.0,6.344725000000001 z "/>
<path style="fill:#211c1d;fill-opacity:1;fill-rule:nonzero;stroke:none" id="xq21.1" d="m 38.796375,117.76462499999998 11.3833,0.0 0.0,-7.2504875 -11.3833,-0.0 0.0,7.2504875 z "/>
<path style="fill:#211c1d;fill-opacity:1;fill-rule:nonzero;stroke:none" id="xq21.31" d="m 38.796375,126.82762499999998 11.3833,0.0 0.0,-7.250975 -11.3833,-0.0 0.0,7.250975 z "/>
<path style="fill:#bbbcbd;fill-opacity:1;fill-rule:nonzero;stroke:none" id="xp22.32" d="m 38.796375,12.943749999999966 11.3833,0.0 0.0,-4.3994125 -11.3833,-0.0 0.0,4.3994125 z "/>
<path style="fill:none;stroke:#211c1d;stroke-width:0.1;stroke-linecap:butt;stroke-linejoin:miter;stroke-miterlimit:4;stroke-opacity:1;stroke-dasharray:none" id="xp22.32-o" d="m 38.796375,12.943749999999966 11.3833,0.0 0.0,-4.3994125 -11.3833,-0.0 0.0,4.3994125 z "/>
<path style="fill:#bbbcbd;fill-opacity:1;fill-rule:nonzero;stroke:none" id="xp22.2" d="m 38.796375,26.087500000000006 11.3833,0.0 0.0,-4.4013625 -11.3833,-0.0 0.0,4.4013625 z "/>
<path style="fill:none;stroke:#211c1d;stroke-width:0.1;stroke-linecap:butt;stroke-linejoin:miter;stroke-miterlimit:4;stroke-opacity:1;stroke-dasharray:none" id="xp22.2-o" d="m 38.796375,26.087500000000006 11.3833,0.0 0.0,-4.4013625 -11.3833,-0.0 0.0,4.4013625 z "/>
<path style="fill:#bbbcbd;fill-opacity:1;fill-rule:nonzero;stroke:none" id="xp22.12" d="m 38.796375,36.05624999999998 11.3833,0.0 0.0,-2.3608375000000006 -11.3833,-0.0 0.0,2.3608375000000006 z "/>
<path style="fill:none;stroke:#211c1d;stroke-width:0.1;stroke-linecap:butt;stroke-linejoin:miter;stroke-miterlimit:4;stroke-opacity:1;stroke-dasharray:none" id="xp22.12-o" d="m 38.796375,36.05624999999998 11.3833,0.0 0.0,-2.3608375000000006 -11.3833,-0.0 0.0,2.3608375000000006 z "/>
<path style="fill:#bbbcbd;fill-opacity:1;fill-rule:nonzero;stroke:none" id="xq12" d="m 38.796375,94.97499999999997 11.3833,0.0 0.0,-4.8559625 -11.3833,-0.0 0.0,4.8559625 z "/>
<path style="fill:none;stroke:#211c1d;stroke-width:0.1;stroke-linecap:butt;stroke-linejoin:miter;stroke-miterlimit:4;stroke-opacity:1;stroke-dasharray:none" id="xq12-o" d="m 38.796375,94.97499999999997 11.3833,0.0 0.0,-4.8559625 -11.3833,-0.0 0.0,4.8559625 z "/>
<path style="fill:#bbbcbd;fill-opacity:1;fill-rule:nonzero;stroke:none" id="xq13.2" d="m 38.796375,106.75687499999998 11.3833,0.0 0.0,-4.1723625 -11.3833,-0.0 0.0,4.1723625 z "/>
<path style="fill:none;stroke:#211c1d;stroke-width:0.1;stroke-linecap:butt;stroke-linejoin:miter;stroke-miterlimit:4;stroke-opacity:1;stroke-dasharray:none" id="xq13.2-o" d="m 38.796375,106.75687499999998 11.3833,0.0 0.0,-4.1723625 -11.3833,-0.0 0.0,4.1723625 z "/>
<path style="fill:#bbbcbd;fill-opacity:1;fill-rule:nonzero;stroke:none" id="xq22.2" d="m 38.796375,145.277375 11.3833,0.0 0.0,-3.71875 -11.3833,-0.0 0.0,3.71875 z "/>
<path style="fill:none;stroke:#211c1d;stroke-width:0.1;stroke-linecap:butt;stroke-linejoin:miter;stroke-miterlimit:4;stroke-opacity:1;stroke-dasharray:none" id="xq22.2-o" d="m 38.796375,145.277375 11.3833,0.0 0.0,-3.71875 -11.3833,-0.0 0.0,3.71875 z "/>
<path style="fill:#211c1d;fill-opacity:1;fill-rule:nonzero;stroke:none" id="xq25" d="m 38.796375,175.09625 11.3833,0.0 0.0,-11.1035125 -11.3833,-0.0 0.0,11.1035125 z "/>
<path style="fill:#211c1d;fill-opacity:1;fill-rule:nonzero;stroke:none" id="xq27.3" d="m 38.796375,201.835 11.3833,0.0 0.0,-6.569825 -11.3833,-0.0 0.0,6.569825 z "/>
<path style="fill:#7a7e82;fill-opacity:1;fill-rule:nonzero;stroke:none" id="xp11.3" d="m 38.796375,65.19375 11.3833,0.0 0.0,-4.98535 -11.3833,-0.0 0.0,4.98535 z "/>
<path style="fill:none;stroke:#211c1d;stroke-width:0.1;stroke-linecap:butt;stroke-linejoin:miter;stroke-miterlimit:4;stroke-opacity:1;stroke-dasharray:none" id="xp11.3-o" d="m 38.796375,65.19375 11.3833,0.0 0.0,-4.98535 -11.3833,-0.0 0.0,4.98535 z "/>
<path style="fill:#7a7e82;fill-opacity:1;fill-rule:nonzero;stroke:none" id="xq21.33" d="m 38.796375,134.8525 11.3833,0.0 0.0,-5.9838875 -11.3833,-0.0 0.0,5.9838875 z "/>
<path style="fill:none;stroke:#211c1d;stroke-width:0.1;stroke-linecap:butt;stroke-linejoin:miter;stroke-miterlimit:4;stroke-opacity:1;stroke-dasharray:none" id="xq21.33-o" d="m 38.796375,134.8525 11.3833,0.0 0.0,-5.9838875 -11.3833,-0.0 0.0,5.9838875 z "/>
<path style="fill:#7a7e82;fill-opacity:1;fill-rule:nonzero;stroke:none" id="xq23" d="m 38.796375,157.061 11.3833,0.0 0.0,-6.66455 -11.3833,-0.0 0.0,6.66455 z "/>
<path style="fill:none;stroke:#211c1d;stroke-width:0.1;stroke-linecap:butt;stroke-linejoin:miter;stroke-miterlimit:4;stroke-opacity:1;stroke-dasharray:none" id="xq23-o" d="m 38.796375,157.061 11.3833,0.0 0.0,-6.66455 -11.3833,-0.0 0.0,6.66455 z "/>
<path style="fill:#7a7e82;fill-opacity:1;fill-rule:nonzero;stroke:none" id="xq27.1" d="m 38.796375,193.318875 11.3833,0.0 0.0,-4.854000000000001 -11.3833,-0.0 0.0,4.854000000000001 z "/>
<path style="fill:none;stroke:#211c1d;stroke-width:0.1;stroke-linecap:butt;stroke-linejoin:miter;stroke-miterlimit:4;stroke-opacity:1;stroke-dasharray:none" id="xq27.1-o" d="m 38.796375,193.318875 11.3833,0.0 0.0,-4.854000000000001 -11.3833,-0.0 0.0,4.854000000000001 z "/>
<path style="fill:#e9eae9;fill-opacity:1;fill-rule:nonzero;stroke:none" id="xp11.22" d="m 38.796375,77.86500000000001 11.3833,0.0 0.0,-4.40235 -11.3833,-0.0 0.0,4.40235 z "/>
<path style="fill:none;stroke:#211c1d;stroke-width:0.1;stroke-linecap:butt;stroke-linejoin:miter;stroke-miterlimit:4;stroke-opacity:1;stroke-dasharray:none" id="xp11.22-o" d="m 38.796375,77.86500000000001 11.3833,0.0 0.0,-4.40235 -11.3833,-0.0 0.0,4.40235 z "/>
<path style="fill:#e9eae9;fill-opacity:1;fill-rule:nonzero;stroke:none" id="xq26.2" d="m 38.796375,183.121125 11.3833,0.0 0.0,-3.2661125 -11.3833,-0.0 0.0,3.2661125 z "/>
<path style="fill:none;stroke:#211c1d;stroke-width:0.1;stroke-linecap:butt;stroke-linejoin:miter;stroke-miterlimit:4;stroke-opacity:1;stroke-dasharray:none" id="xq26.2-o" d="m 38.796375,183.121125 11.3833,0.0 0.0,-3.2661125 -11.3833,-0.0 0.0,3.2661125 z "/>
<path style="fill:#fffafa;stroke:#211c1d;stroke-width:0.1;stroke-linecap:butt;stroke-linejoin:miter;stroke-miterlimit:4;stroke-opacity:1;stroke-dasharray:none" id="xq24" d="m 38.796375,163.9927375 11.3833,0.0 0,-6.931737499999997 -11.3833,-0.0 0,6.931737499999997 z "/>
<path style="fill:#fffafa;stroke:#211c1d;stroke-width:0.1;stroke-linecap:butt;stroke-linejoin:miter;stroke-miterlimit:4;stroke-opacity:1;stroke-dasharray:none" id="xq11.2" d="m 38.796375,90.11903749999996 11.3833,0.0 0,-3.2865374999999517 -11.3833,-0.0 0,3.2865374999999517 z "/>
<path style="fill:#fffafa;stroke:#211c1d;stroke-width:0.1;stroke-linecap:butt;stroke-linejoin:miter;stroke-miterlimit:4;stroke-opacity:1;stroke-dasharray:none" id="xq13.1" d="m 38.796375,102.58451249999997 11.3833,0.0 0,-7.609512500000008 -11.3833,-0.0 0,7.609512500000008 z "/>
<path style="fill:#fffafa;stroke:#211c1d;stroke-width:0.1;stroke-linecap:butt;stroke-linejoin:miter;stroke-miterlimit:4;stroke-opacity:1;stroke-dasharray:none" id="xq13.3" d="m 38.796375,110.51413749999998 11.3833,0.0 0,-3.757262499999996 -11.3833,-0.0 0,3.757262499999996 z "/>
<path style="fill:#fffafa;stroke:#211c1d;stroke-width:0.1;stroke-linecap:butt;stroke-linejoin:miter;stroke-miterlimit:4;stroke-opacity:1;stroke-dasharray:none" id="xp22.13" d="m 38.796375,33.695412499999975 11.3833,0.0 0,-7.607912499999969 -11.3833,-0.0 0,7.607912499999969 z "/>
<path style="fill:#fffafa;stroke:#211c1d;stroke-width:0.1;stroke-linecap:butt;stroke-linejoin:miter;stroke-miterlimit:4;stroke-opacity:1;stroke-dasharray:none" id="xp21.2" d="m 38.796375,46.612775000000006 11.3833,0.0 0,-1.8140250000000222 -11.3833,-0.0 0,1.8140250000000222 z "/>
<path style="fill:#fffafa;stroke:#211c1d;stroke-width:0.1;stroke-linecap:butt;stroke-linejoin:miter;stroke-miterlimit:4;stroke-opacity:1;stroke-dasharray:none" id="xq27.2" d="m 38.796375,195.265175 11.3833,0.0 0,-1.946300000000008 -11.3833,-0.0 0,1.946300000000008 z "/>
<path style="fill:#fffafa;stroke:#211c1d;stroke-width:0.1;stroke-linecap:butt;stroke-linejoin:miter;stroke-miterlimit:4;stroke-opacity:1;stroke-dasharray:none" id="xp22.11" d="m 38.796375,39.36173749999998 11.3833,0.0 0,-3.3054875000000052 -11.3833,-0.0 0,3.3054875000000052 z "/>
<path style="fill:#fffafa;stroke:#211c1d;stroke-width:0.1;stroke-linecap:butt;stroke-linejoin:miter;stroke-miterlimit:4;stroke-opacity:1;stroke-dasharray:none" id="xq21.2" d="m 38.796375,119.57664999999999 11.3833,0.0 0,-1.8120250000000055 -11.3833,-0.0 0,1.8120250000000055 z "/>
<path style="fill:#fffafa;stroke:#211c1d;stroke-width:0.1;stroke-linecap:butt;stroke-linejoin:miter;stroke-miterlimit:4;stroke-opacity:1;stroke-dasharray:none" id="xq26.3" d="m 38.796375,188.46487499999998 11.3833,0.0 0,-5.343749999999972 -11.3833,-0.0 0,5.343749999999972 z "/>
<path style="fill:#fffafa;stroke:#211c1d;stroke-width:0.1;stroke-linecap:butt;stroke-linejoin:miter;stroke-miterlimit:4;stroke-opacity:1;stroke-dasharray:none" id="xq22.3" d="m 38.796375,150.39645000000002 11.3833,0.0 0,-5.119075000000009 -11.3833,-0.0 0,5.119075000000009 z "/>
<path style="fill:#fffafa;stroke:#211c1d;stroke-width:0.1;stroke-linecap:butt;stroke-linejoin:miter;stroke-miterlimit:4;stroke-opacity:1;stroke-dasharray:none" id="xp11.23" d="m 38.796375,73.46265000000001 11.3833,0.0 0,-8.268900000000016 -11.3833,-0.0 0,8.268900000000016 z "/>
<path style="fill:#fffafa;stroke:#211c1d;stroke-width:0.1;stroke-linecap:butt;stroke-linejoin:miter;stroke-miterlimit:4;stroke-opacity:1;stroke-dasharray:none" id="xq22.1" d="m 38.796375,141.558625 11.3833,0.0 0,-6.706125000000014 -11.3833,-0.0 0,6.706125000000014 z "/>
<path style="fill:#fffafa;stroke:#211c1d;stroke-width:0.1;stroke-linecap:butt;stroke-linejoin:miter;stroke-miterlimit:4;stroke-opacity:1;stroke-dasharray:none" id="xq21.32" d="m 38.796375,128.86861249999998 11.3833,0.0 0,-2.0409875 -11.3833,-0.0 0,2.0409875 z "/>
<path style="fill:#fffafa;stroke:#211c1d;stroke-width:0.1;stroke-linecap:butt;stroke-linejoin:miter;stroke-miterlimit:4;stroke-opacity:1;stroke-dasharray:none" id="xq28" d="m 38.796375,201.835 0.0,8.5 c 0.0,1.4165000000000003 2.5453750000000004,2.5665 5.681125,2.5665 3.1372500000000003,0.0 5.682125,-1.15 5.682125,-2.5665 l 0.0,-8.5 -11.3833,-0.0 z"/>
<path style="fill:#fffafa;stroke:#211c1d;stroke-width:0.1;stroke-linecap:butt;stroke-linejoin:miter;stroke-miterlimit:4;stroke-opacity:1;stroke-dasharray:none" id="xp11.4" d="m 38.796375,60.2084 11.3833,0.0 0,-7.250899999999987 -11.3833,-0.0 0,7.250899999999987 z "/>
<path style="fill:#fffafa;stroke:#211c1d;stroke-width:0.1;stroke-linecap:butt;stroke-linejoin:miter;stroke-miterlimit:4;stroke-opacity:1;stroke-dasharray:none" id="xp22.31" d="m 38.796375,21.686137500000005 11.3833,0.0 0,-8.742387500000039 -11.3833,-0.0 0,8.742387500000039 z "/>
<path style="fill:#fffafa;stroke:#211c1d;stroke-width:0.1;stroke-linecap:butt;stroke-linejoin:miter;stroke-miterlimit:4;stroke-opacity:1;stroke-dasharray:none" id="xq26.1" d="m 38.796375,179.85501250000002 11.3833,0.0 0,-4.758762500000017 -11.3833,-0.0 0,4.758762500000017 z "/>
<path style="fill:#fffafa;stroke:#211c1d;stroke-width:0.1;stroke-linecap:butt;stroke-linejoin:miter;stroke-miterlimit:4;stroke-opacity:1;stroke-dasharray:none" id="xp22.33" d="m 38.796375,8.5443375 11.3833,-0.0  0.0,-5.5 c 0.0,-1.41875 -2.544875,-2.5662500000000006 -5.682125,-2.5662500000000006 -3.13575,-0.0 -5.681125,1.1475 -5.681125,2.5662500000000006  l 0.0,5.5 z"/>
<path style="fill:#fffafa;stroke:#211c1d;stroke-width:0.1;stroke-linecap:butt;stroke-linejoin:miter;stroke-miterlimit:4;stroke-opacity:1;stroke-dasharray:none" id="xp11.21" d="m 38.796375,79.58375 11.3833,0.0 0,-1.71875 -11.3833,-0.0 0,1.71875 z "/>
<path style="fill:#a4bdc8;fill-opacity:1;fill-rule:nonzero;stroke:none" id="centromerex-f" d="m 50.16937500000001,86.83250000000001 0.0,-1.3575000000000002 c 0.0,-0.9650000000000001 -1.1801250000000003,-2.54875 -2.920875,-3.4575 1.74075,-0.9050000000000001 2.920875,-2.4925 2.920875,-3.45375 l -0.43787500000000007,1.02 -10.487375,-0.0 -0.43800000000000006,-1.02 c 0.0,0.9662500000000002 1.189,2.55 2.9395,3.45375 -1.7505000000000002,0.9062500000000001 -2.9395,2.49125 -2.9395,3.4575 l 0.0,1.3575000000000002 11.36325,0.0 "/>
<path style="fill:none;stroke:#100f0d;stroke-width:0.8;stroke-linecap:butt;stroke-linejoin:miter;stroke-miterlimit:4;stroke-opacity:1;stroke-dasharray:none" id="centromerex-o" d="m 50.16937500000001,86.83250000000001 0.0,-1.3575000000000002 c 0.0,-0.9650000000000001 -1.1801250000000003,-2.54875 -2.920875,-3.4575 1.74075,-0.9050000000000001 2.920875,-2.4925 2.920875,-3.45375 l -0.43787500000000007,1.02 -10.487375,-0.0 -0.43800000000000006,-1.02 c 0.0,0.9662500000000002 1.189,2.55 2.9395,3.45375 -1.7505000000000002,0.9062500000000001 -2.9395,2.49125 -2.9395,3.4575 l 0.0,1.3575000000000002 11.36325,0.0 z "/>
<path style="fill:none;stroke:#211c1d;stroke-width:0.8;stroke-linecap:butt;stroke-linejoin:miter;stroke-miterlimit:4;stroke-opacity:1;stroke-dasharray:none" id="outlinex" d="m 41.745625,82.01749999999998 c -1.7505000000000002,0.9062500000000001 -2.9395,2.49125 -2.9395,3.4575 l 0.0,125.194875 c 0.0,1.4165000000000003 2.5453750000000004,2.5665 5.681125,2.5665 3.1372500000000003,0.0 5.682125,-1.15 5.682125,-2.5665 l 0.0,-125.194875 c 0.0,-0.9650000000000001 -1.1801250000000003,-2.54875 -2.920875,-3.4575 1.74075,-0.9050000000000001 2.920875,-2.4925 2.920875,-3.45375 l 0.0,-75.68375 c 0.0,-1.41875 -2.544875,-2.5662500000000006 -5.682125,-2.5662500000000006 -3.13575,-0.0 -5.681125,1.1475 -5.681125,2.5662500000000006 l 0.0,75.68375 c 0.0,0.9662500000000002 1.189,2.55 2.9395,3.45375 z "/>
<path style="fill:none;stroke:#231f20;stroke-width:0.8;stroke-linecap:butt;stroke-linejoin:miter;stroke-miterlimit:4;stroke-opacity:1;stroke-dasharray:none;display:none" id="centrex" d="M 41.350125000000006,82.055 0.0,82.055 "/>
<text>
<tspan x="40.795874999999995" y="221.8901375" id="labelx" style="font-size:7.19543791px;font-variant:normal;font-weight:normal;writing-mode:lr-tb;fill:#211c1d;fill-opacity:1;fill-rule:nonzero;stroke:none;font-family:Helvetica;-inkscape-font-specification:Helvetica">X</tspan>
</text>
</g>
</svg>
