<?xml version="1.0" encoding="UTF-8"?>
<svg xmlns:xlink="http://www.w3.org/1999/xlink" xmlns="http://www.w3.org/2000/svg" contentScriptType="text/ecmascript" zoomAndPan="magnify" contentStyleType="text/css" preserveAspectRatio="xMidYMid meet" version="1.0">

<g id="chromosomeY" title="Chromosome Y">
<path style="fill:#bbbcbd;fill-opacity:1;fill-rule:nonzero;stroke:none" id="yp11.31" d="m 33.536125,75.40462500000001 9.857425,0.0 0.0,-3.3349625000000005 -9.857425,-0.0 0.0,3.3349625000000005 z "/>
<path style="fill:none;stroke:#211c1d;stroke-width:0.1;stroke-linecap:butt;stroke-linejoin:miter;stroke-miterlimit:4;stroke-opacity:1;stroke-dasharray:none" id="yp11.31-o" d="m 33.536125,75.40462500000001 9.857425,0.0 0.0,-3.3349625000000005 -9.857425,-0.0 0.0,3.3349625000000005 z "/>
<path style="fill:#c4cdf2;fill-opacity:1;fill-rule:nonzero;stroke:none" id="yq12" d="m 33.544875,97.28200000000001 0.0,9.028375 c 0.0,1.2231125 2.203125,2.2192 4.9195,2.2192 2.71725,0.0 4.921875,-0.9960875000000001 4.921875,-2.2192 l 0.0,-9.028375 0.00725,-3.1372500000000003 -9.857375,-0.0 0.00875,3.1372500000000003 "/>
<path style="fill:none;stroke:#211c1d;stroke-width:0.8;stroke-linecap:butt;stroke-linejoin:miter;stroke-miterlimit:4;stroke-opacity:1;stroke-dasharray:none" id="yq12-o" d="m 33.544875,97.28200000000001 0.0,9.028375 c 0.0,1.2231125 2.203125,2.2192 4.9195,2.2192 2.71725,0.0 4.921875,-0.9960875000000001 4.921875,-2.2192 l 0.0,-9.028375 0.00725,-3.1372500000000003 -9.857375,-0.0 0.00875,3.1372500000000003 z "/>
<path style="fill:#bbbcbd;fill-opacity:1;fill-rule:nonzero;stroke:none" id="yq11.22" d="m 33.536125,90.71225000000001 9.857425,0.0 0.0,-2.5537125 -9.857425,-0.0 0.0,2.5537125 z "/>
<path style="fill:none;stroke:#211c1d;stroke-width:0.1;stroke-linecap:butt;stroke-linejoin:miter;stroke-miterlimit:4;stroke-opacity:1;stroke-dasharray:none" id="yq11.22-o" d="m 33.536125,90.71225000000001 9.857425,0.0 0.0,-2.5537125 -9.857425,-0.0 0.0,2.5537125 z "/>
<path style="fill:#fffafa;stroke:#211c1d;stroke-width:0.1;stroke-linecap:butt;stroke-linejoin:miter;stroke-miterlimit:4;stroke-opacity:1;stroke-dasharray:none" id="yq11.21" d="m 33.536125,88.15853750000001 9.857425,0.0 0,-4.6582875 -9.857425,-0.0 0,4.6582875 z "/>
<path style="fill:#fffafa;stroke:#211c1d;stroke-width:0.1;stroke-linecap:butt;stroke-linejoin:miter;stroke-miterlimit:4;stroke-opacity:1;stroke-dasharray:none" id="yp11.2" d="m 33.536125,80.3655 9.857425,0.0 0.0,-4.960875 -9.857425,-0.0 0.0,4.960875 z"/>
<path style="fill:#fffafa;stroke:#211c1d;stroke-width:0.1;stroke-linecap:butt;stroke-linejoin:miter;stroke-miterlimit:4;stroke-opacity:1;stroke-dasharray:none" id="yq11.23" d="m 33.536125,94.14475 9.857425,0.0 0,-3.4325 -9.857425,-0.0 0,3.4325 z "/>
<path style="fill:#fffafa;stroke:#211c1d;stroke-width:0.1;stroke-linecap:butt;stroke-linejoin:miter;stroke-miterlimit:4;stroke-opacity:1;stroke-dasharray:none" id="yp11.32" d="m 33.536125,72.0696625 9.857425,0.0 c 0.0,-1.225625 -2.204625,-2.2192500000000006 -4.921875,-2.2192500000000006 -2.716375,-0.0 -4.9195,0.9936250000000001 -4.9195,2.2192500000000006 z"/>
<path style="fill:#a4bdc8;fill-opacity:1;fill-rule:nonzero;stroke:none" id="centromerey-f" d="m 42.67575,83.50025000000001 c -0.43937500000000007,-0.522375 -1.096125,-1.09375 -1.82125,-1.472125 0.8568750000000002,-0.44675 1.485875,-1.047375 1.9311250000000002,-1.665 l -8.684125,0.002375 c 0.45025000000000004,0.6055 1.142625,1.223125 1.99075,1.662625 -0.7616250000000001,0.390625 -1.3973750000000003,0.92775 -1.8432500000000003,1.4770000000000003 l 8.42675,-0.004875 "/>
<path style="fill:none;stroke:#100f0d;stroke-width:0.8;stroke-linecap:butt;stroke-linejoin:miter;stroke-miterlimit:4;stroke-opacity:1;stroke-dasharray:none" id="centromerey-o" d="m 42.67575,83.50025000000001 c -0.43937500000000007,-0.522375 -1.096125,-1.09375 -1.82125,-1.472125 0.8568750000000002,-0.44675 1.485875,-1.047375 1.9311250000000002,-1.665 l -8.684125,0.002375 c 0.45025000000000004,0.6055 1.142625,1.223125 1.99075,1.662625 -0.7616250000000001,0.390625 -1.3973750000000003,0.92775 -1.8432500000000003,1.4770000000000003 l 8.42675,-0.004875 z "/>
<path style="fill:none;stroke:#211c1d;stroke-width:0.8;stroke-linecap:butt;stroke-linejoin:miter;stroke-miterlimit:4;stroke-opacity:1;stroke-dasharray:none" id="outliney" d="m 36.09225000000001,82.02812500000002 c -1.5195000000000003,0.783625 -2.547375,2.15325 -2.547375,2.99075 l 0.0,21.2915 c 0.0,1.2231125 2.203125,2.2192 4.9195,2.2192 2.71725,0.0 4.921875,-0.9960875000000001 4.921875,-2.2192 l 0.0,-21.2915 c 0.0,-0.8350000000000001 -1.0215,-2.207125 -2.5317500000000006,-2.99075 1.51025,-0.786125 2.5317500000000006,-2.15825 2.5317500000000006,-2.9931250000000005 l 0.0,-6.965375 c 0.0,-1.225625 -2.204625,-2.2192500000000006 -4.921875,-2.2192500000000006 -2.716375,-0.0 -4.9195,0.9936250000000001 -4.9195,2.2192500000000006 l 0.0,6.965375 c 0.0,0.8373750000000001 1.027875,2.207 2.547375,2.9931250000000005 z "/>
<path style="fill:none;stroke:#231f20;stroke-width:0.8;stroke-linecap:butt;stroke-linejoin:miter;stroke-miterlimit:4;stroke-opacity:1;stroke-dasharray:none;display:none" id="centrey" d="M 35.803250000000006,82.055 0.0,82.055 "/>
<text>
<tspan x="35.337875" y="116.02470000000001" id="labely" style="font-size:6.22403955px;font-variant:normal;font-weight:normal;writing-mode:lr-tb;fill:#211c1d;fill-opacity:1;fill-rule:nonzero;stroke:none;font-family:Helvetica;-inkscape-font-specification:Helvetica">Y</tspan>
</text>
</g>
</svg>
