<?xml version="1.0" encoding="UTF-8"?>
<svg xmlns:xlink="http://www.w3.org/1999/xlink" xmlns="http://www.w3.org/2000/svg" contentScriptType="text/ecmascript" zoomAndPan="magnify" contentStyleType="text/css" preserveAspectRatio="xMidYMid meet" version="1.0">

<g id="chromosome6" title="Chromosome 6">
<path style="fill:#797677;fill-opacity:1;fill-rule:nonzero;stroke:none" id="6p12.1" d="m 38.795875,166.4125 11.384275000000002,0.0 0.0,-5.317875 -11.384275000000002,-0.0 0.0,5.317875 z "/>
<path style="fill:#797677;fill-opacity:1;fill-rule:nonzero;stroke:none" id="6p12.3" d="m 38.795875,160.1575 11.384275000000002,0.0 0.0,-7.087400000000001 -11.384275000000002,-0.0 0.0,7.087400000000001 z "/>
<path style="fill:#f1f2f1;fill-opacity:1;fill-rule:nonzero;stroke:none" id="6p25.2" d="m 38.795875,99.80375000000001 11.384275000000002,0.0 0.0,-2.0835 -11.384275000000002,-0.0 0.0,2.0835 z "/>
<path style="fill:none;stroke:#797677;stroke-width:0.1;stroke-linecap:butt;stroke-linejoin:miter;stroke-miterlimit:4;stroke-opacity:1;stroke-dasharray:none" id="6p25.2-o" d="m 38.795875,99.80375000000001 11.384275000000002,0.0 0.0,-2.0835 -11.384275000000002,-0.0 0.0,2.0835 z "/>
<path style="fill:#f1f2f1;fill-opacity:1;fill-rule:nonzero;stroke:none" id="6p24.1" d="m 38.795875,111.06124999999997 11.384275000000002,0.0 0.0,-2.9165 -11.384275000000002,-0.0 0.0,2.9165 z "/>
<path style="fill:none;stroke:#797677;stroke-width:0.1;stroke-linecap:butt;stroke-linejoin:miter;stroke-miterlimit:4;stroke-opacity:1;stroke-dasharray:none" id="6p24.1-o" d="m 38.795875,111.06124999999997 11.384275000000002,0.0 0.0,-2.9165 -11.384275000000002,-0.0 0.0,2.9165 z "/>
<path style="fill:#f1f2f1;fill-opacity:1;fill-rule:nonzero;stroke:none" id="6p21.32" d="m 38.795875,133.9925 11.384275000000002,0.0 0.0,-2.5004875 -11.384275000000002,-0.0 0.0,2.5004875 z "/>
<path style="fill:none;stroke:#797677;stroke-width:0.1;stroke-linecap:butt;stroke-linejoin:miter;stroke-miterlimit:4;stroke-opacity:1;stroke-dasharray:none" id="6p21.32-o" d="m 38.795875,133.9925 11.384275000000002,0.0 0.0,-2.5004875 -11.384275000000002,-0.0 0.0,2.5004875 z "/>
<path style="fill:#f1f2f1;fill-opacity:1;fill-rule:nonzero;stroke:none" id="6p21.2" d="m 38.795875,143.58375 11.384275000000002,0.0 0.0,-2.9184625000000004 -11.384275000000002,-0.0 0.0,2.9184625000000004 z "/>
<path style="fill:none;stroke:#797677;stroke-width:0.1;stroke-linecap:butt;stroke-linejoin:miter;stroke-miterlimit:4;stroke-opacity:1;stroke-dasharray:none" id="6p21.2-o" d="m 38.795875,143.58375 11.384275000000002,0.0 0.0,-2.9184625000000004 -11.384275000000002,-0.0 0.0,2.9184625000000004 z "/>
<path style="fill:#797677;fill-opacity:1;fill-rule:nonzero;stroke:none" id="6q12" d="m 38.795875,182.46374999999998 11.384275000000002,0.0 0.0,-8.861325 -11.384275000000002,-0.0 0.0,8.861325 z "/>
<path style="fill:#797677;fill-opacity:1;fill-rule:nonzero;stroke:none" id="6q16.1" d="m 38.795875,213.317125 11.384275000000002,0.0 0.0,-7.6084 -11.384275000000002,-0.0 0.0,7.6084 z "/>
<path style="fill:#797677;fill-opacity:1;fill-rule:nonzero;stroke:none" id="6q16.3" d="m 38.795875,221.44849999999997 11.384275000000002,0.0 0.0,-6.3588875 -11.384275000000002,-0.0 0.0,6.3588875 z "/>
<path style="fill:#797677;fill-opacity:1;fill-rule:nonzero;stroke:none" id="6q22.31" d="m 38.795875,246.048625 11.384275000000002,0.0 0.0,-6.149900000000001 -11.384275000000002,-0.0 0.0,6.149900000000001 z "/>
<path style="fill:#afb1b4;fill-opacity:1;fill-rule:nonzero;stroke:none" id="6p22.3" d="m 38.795875,120.44374999999997 11.384275000000002,0.0 0.0,-7.297362500000001 -11.384275000000002,-0.0 0.0,7.297362500000001 z "/>
<path style="fill:none;stroke:#797677;stroke-width:0.1;stroke-linecap:butt;stroke-linejoin:miter;stroke-miterlimit:4;stroke-opacity:1;stroke-dasharray:none" id="6p22.3-o" d="m 38.795875,120.44374999999997 11.384275000000002,0.0 0.0,-7.297362500000001 -11.384275000000002,-0.0 0.0,7.297362500000001 z "/>
<path style="fill:#afb1b4;fill-opacity:1;fill-rule:nonzero;stroke:none" id="6q22.1" d="m 38.795875,237.60774999999998 11.384275000000002,0.0 0.0,-4.79785 -11.384275000000002,-0.0 0.0,4.79785 z "/>
<path style="fill:none;stroke:#797677;stroke-width:0.1;stroke-linecap:butt;stroke-linejoin:miter;stroke-miterlimit:4;stroke-opacity:1;stroke-dasharray:none" id="6q22.1-o" d="m 38.795875,237.60774999999998 11.384275000000002,0.0 0.0,-4.79785 -11.384275000000002,-0.0 0.0,4.79785 z "/>
<path style="fill:#afb1b4;fill-opacity:1;fill-rule:nonzero;stroke:none" id="6q22.33" d="m 38.795875,256.366 11.384275000000002,0.0 0.0,-6.4599625000000005 -11.384275000000002,-0.0 0.0,6.4599625000000005 z "/>
<path style="fill:none;stroke:#797677;stroke-width:0.1;stroke-linecap:butt;stroke-linejoin:miter;stroke-miterlimit:4;stroke-opacity:1;stroke-dasharray:none" id="6q22.33-o" d="m 38.795875,256.366 11.384275000000002,0.0 0.0,-6.4599625000000005 -11.384275000000002,-0.0 0.0,6.4599625000000005 z "/>
<path style="fill:#afb1b4;fill-opacity:1;fill-rule:nonzero;stroke:none" id="6q24.1" d="m 38.795875,275.34112500000003 11.384275000000002,0.0 0.0,-4.1723625 -11.384275000000002,-0.0 0.0,4.1723625 z "/>
<path style="fill:none;stroke:#797677;stroke-width:0.1;stroke-linecap:butt;stroke-linejoin:miter;stroke-miterlimit:4;stroke-opacity:1;stroke-dasharray:none" id="6q24.1-o" d="m 38.795875,275.34112500000003 11.384275000000002,0.0 0.0,-4.1723625 -11.384275000000002,-0.0 0.0,4.1723625 z "/>
<path style="fill:#afb1b4;fill-opacity:1;fill-rule:nonzero;stroke:none" id="6q24.3" d="m 38.795875,282.008625 11.384275000000002,0.0 0.0,-4.167475 -11.384275000000002,-0.0 0.0,4.167475 z "/>
<path style="fill:none;stroke:#797677;stroke-width:0.1;stroke-linecap:butt;stroke-linejoin:miter;stroke-miterlimit:4;stroke-opacity:1;stroke-dasharray:none" id="6q24.3-o" d="m 38.795875,282.008625 11.384275000000002,0.0 0.0,-4.167475 -11.384275000000002,-0.0 0.0,4.167475 z "/>
<path style="fill:#d6d6d7;fill-opacity:1;fill-rule:nonzero;stroke:none" id="6p24.3" d="m 38.795875,107.30875 11.384275000000002,0.0 0.0,-4.1704125 -11.384275000000002,-0.0 0.0,4.1704125 z "/>
<path style="fill:none;stroke:#797677;stroke-width:0.1;stroke-linecap:butt;stroke-linejoin:miter;stroke-miterlimit:4;stroke-opacity:1;stroke-dasharray:none" id="6p24.3-o" d="m 38.795875,107.30875 11.384275000000002,0.0 0.0,-4.1704125 -11.384275000000002,-0.0 0.0,4.1704125 z "/>
<path style="fill:#d6d6d7;fill-opacity:1;fill-rule:nonzero;stroke:none" id="6p22.1" d="m 38.795875,128.36499999999998 11.384275000000002,0.0 0.0,-4.7954125 -11.384275000000002,-0.0 0.0,4.7954125 z "/>
<path style="fill:none;stroke:#797677;stroke-width:0.1;stroke-linecap:butt;stroke-linejoin:miter;stroke-miterlimit:4;stroke-opacity:1;stroke-dasharray:none" id="6p22.1-o" d="m 38.795875,128.36499999999998 11.384275000000002,0.0 0.0,-4.7954125 -11.384275000000002,-0.0 0.0,4.7954125 z "/>
<path style="fill:#d6d6d7;fill-opacity:1;fill-rule:nonzero;stroke:none" id="6q14.1" d="m 38.795875,192.7825 11.384275000000002,0.0 0.0,-6.254400000000001 -11.384275000000002,-0.0 0.0,6.254400000000001 z "/>
<path style="fill:none;stroke:#797677;stroke-width:0.1;stroke-linecap:butt;stroke-linejoin:miter;stroke-miterlimit:4;stroke-opacity:1;stroke-dasharray:none" id="6q14.1-o" d="m 38.795875,192.7825 11.384275000000002,0.0 0.0,-6.254400000000001 -11.384275000000002,-0.0 0.0,6.254400000000001 z "/>
<path style="fill:#d6d6d7;fill-opacity:1;fill-rule:nonzero;stroke:none" id="6q14.3" d="m 38.795875,199.03687499999998 11.384275000000002,0.0 0.0,-4.7954125 -11.384275000000002,-0.0 0.0,4.7954125 z "/>
<path style="fill:none;stroke:#797677;stroke-width:0.1;stroke-linecap:butt;stroke-linejoin:miter;stroke-miterlimit:4;stroke-opacity:1;stroke-dasharray:none" id="6q14.3-o" d="m 38.795875,199.03687499999998 11.384275000000002,0.0 0.0,-4.7954125 -11.384275000000002,-0.0 0.0,4.7954125 z "/>
<path style="fill:#d6d6d7;fill-opacity:1;fill-rule:nonzero;stroke:none" id="6q23.2" d="m 38.795875,266.581375 11.384275000000002,0.0 0.0,-4.793950000000001 -11.384275000000002,-0.0 0.0,4.793950000000001 z "/>
<path style="fill:none;stroke:#797677;stroke-width:0.1;stroke-linecap:butt;stroke-linejoin:miter;stroke-miterlimit:4;stroke-opacity:1;stroke-dasharray:none" id="6q23.2-o" d="m 38.795875,266.581375 11.384275000000002,0.0 0.0,-4.793950000000001 -11.384275000000002,-0.0 0.0,4.793950000000001 z "/>
<path style="fill:#d6d6d7;fill-opacity:1;fill-rule:nonzero;stroke:none" id="6q25.2" d="m 38.795875,289.51637500000004 11.384275000000002,0.0 0.0,-3.3378875000000003 -11.384275000000002,-0.0 0.0,3.3378875000000003 z "/>
<path style="fill:none;stroke:#797677;stroke-width:0.1;stroke-linecap:butt;stroke-linejoin:miter;stroke-miterlimit:4;stroke-opacity:1;stroke-dasharray:none" id="6q25.2-o" d="m 38.795875,289.51637500000004 11.384275000000002,0.0 0.0,-3.3378875000000003 -11.384275000000002,-0.0 0.0,3.3378875000000003 z "/>
<path style="fill:#d6d6d7;fill-opacity:1;fill-rule:nonzero;stroke:none" id="6q26" d="m 38.795875,300.77375 11.384275000000002,0.0 0.0,-3.3374000000000006 -11.384275000000002,-0.0 0.0,3.3374000000000006 z "/>
<path style="fill:none;stroke:#797677;stroke-width:0.1;stroke-linecap:butt;stroke-linejoin:miter;stroke-miterlimit:4;stroke-opacity:1;stroke-dasharray:none" id="6q26-o" d="m 38.795875,300.77375 11.384275000000002,0.0 0.0,-3.3374000000000006 -11.384275000000002,-0.0 0.0,3.3374000000000006 z "/>

<path style="fill:#fffafa;stroke:#797677;stroke-width:0.1;stroke-linecap:butt;stroke-linejoin:miter;stroke-miterlimit:4;stroke-opacity:1;stroke-dasharray:none" id="6q11.2" d="m 38.795875,173.60242499999998 11.384275000000002,0.0 0,-1.5611749999999915 -11.384275000000002,-0.0 0,1.5611749999999915 z "/>
<path style="fill:#fffafa;stroke:#797677;stroke-width:0.1;stroke-linecap:butt;stroke-linejoin:miter;stroke-miterlimit:4;stroke-opacity:1;stroke-dasharray:none" id="6q23.1" d="m 38.795875,261.787425 11.384275000000002,0.0 0,-5.421424999999999 -11.384275000000002,-0.0 0,5.421424999999999 z "/>
<path style="fill:#fffafa;stroke:#797677;stroke-width:0.1;stroke-linecap:butt;stroke-linejoin:miter;stroke-miterlimit:4;stroke-opacity:1;stroke-dasharray:none" id="6q22.32" d="m 38.795875,249.9060375 11.384275000000002,0.0 0,-3.8574125000000095 -11.384275000000002,-0.0 0,3.8574125000000095 z "/>
<path style="fill:#fffafa;stroke:#797677;stroke-width:0.1;stroke-linecap:butt;stroke-linejoin:miter;stroke-miterlimit:4;stroke-opacity:1;stroke-dasharray:none" id="6p21.31" d="m 38.795875,140.6652875 11.384275000000002,0.0 0,-6.672787499999998 -11.384275000000002,-0.0 0,6.672787499999998 z "/>
<path style="fill:#fffafa;stroke:#797677;stroke-width:0.1;stroke-linecap:butt;stroke-linejoin:miter;stroke-miterlimit:4;stroke-opacity:1;stroke-dasharray:none" id="6p12.2" d="m 38.795875,161.094625 11.384275000000002,0.0 0,-0.9371250000000089 -11.384275000000002,-0.0 0,0.9371250000000089 z "/>
<path style="fill:#fffafa;stroke:#797677;stroke-width:0.1;stroke-linecap:butt;stroke-linejoin:miter;stroke-miterlimit:4;stroke-opacity:1;stroke-dasharray:none" id="6p25.1" d="m 38.795875,103.1383375 11.384275000000002,0.0 0,-3.334587499999998 -11.384275000000002,-0.0 0,3.334587499999998 z "/>
<path style="fill:#fffafa;stroke:#797677;stroke-width:0.1;stroke-linecap:butt;stroke-linejoin:miter;stroke-miterlimit:4;stroke-opacity:1;stroke-dasharray:none" id="6q23.3" d="m 38.795875,271.1687625 11.384275000000002,0.0 0,-4.587387500000034 -11.384275000000002,-0.0 0,4.587387500000034 z "/>
<path style="fill:#fffafa;stroke:#797677;stroke-width:0.1;stroke-linecap:butt;stroke-linejoin:miter;stroke-miterlimit:4;stroke-opacity:1;stroke-dasharray:none" id="6q15" d="m 38.795875,205.70872500000002 11.384275000000002,0.0 0,-6.671850000000035 -11.384275000000002,-0.0 0,6.671850000000035 z "/>
<path style="fill:#fffafa;stroke:#797677;stroke-width:0.1;stroke-linecap:butt;stroke-linejoin:miter;stroke-miterlimit:4;stroke-opacity:1;stroke-dasharray:none" id="6p22.2" d="m 38.795875,123.56958749999998 11.384275000000002,0.0 0,-3.125837500000017 -11.384275000000002,-0.0 0,3.125837500000017 z "/>
<path style="fill:#fffafa;stroke:#797677;stroke-width:0.1;stroke-linecap:butt;stroke-linejoin:miter;stroke-miterlimit:4;stroke-opacity:1;stroke-dasharray:none" id="6q16.2" d="m 38.795875,215.08961249999996 11.384275000000002,0.0 0,-1.7724874999999543 -11.384275000000002,-0.0 0,1.7724874999999543 z "/>
<path style="fill:#fffafa;stroke:#797677;stroke-width:0.1;stroke-linecap:butt;stroke-linejoin:miter;stroke-miterlimit:4;stroke-opacity:1;stroke-dasharray:none" id="6q24.2" d="m 38.795875,277.84114999999997 11.384275000000002,0.0 0,-2.500024999999937 -11.384275000000002,-0.0 0,2.500024999999937 z "/>
<path style="fill:#fffafa;stroke:#797677;stroke-width:0.1;stroke-linecap:butt;stroke-linejoin:miter;stroke-miterlimit:4;stroke-opacity:1;stroke-dasharray:none" id="6q21" d="m 38.795875,232.80989999999997 11.384275000000002,0.0 0,-11.361400000000003 -11.384275000000002,-0.0 0,11.361400000000003 z "/>
<path style="fill:#fffafa;stroke:#797677;stroke-width:0.1;stroke-linecap:butt;stroke-linejoin:miter;stroke-miterlimit:4;stroke-opacity:1;stroke-dasharray:none" id="6q13" d="m 38.795875,186.5281 11.384275000000002,0.0 0,-4.064350000000019 -11.384275000000002,-0.0 0,4.064350000000019 z "/>
<path style="fill:#fffafa;stroke:#797677;stroke-width:0.1;stroke-linecap:butt;stroke-linejoin:miter;stroke-miterlimit:4;stroke-opacity:1;stroke-dasharray:none" id="6q25.3" d="m 38.795875,297.43635 11.384275000000002,0.0 0,-7.919974999999965 -11.384275000000002,-0.0 0,7.919974999999965 z "/>
<path style="fill:#fffafa;stroke:#797677;stroke-width:0.1;stroke-linecap:butt;stroke-linejoin:miter;stroke-miterlimit:4;stroke-opacity:1;stroke-dasharray:none" id="6q22.2" d="m 38.795875,239.89872499999998 11.384275000000002,0.0 0,-2.290975000000003 -11.384275000000002,-0.0 0,2.290975000000003 z "/>
<path style="fill:#fffafa;stroke:#797677;stroke-width:0.1;stroke-linecap:butt;stroke-linejoin:miter;stroke-miterlimit:4;stroke-opacity:1;stroke-dasharray:none" id="6p23" d="m 38.795875,113.14638749999996 11.384275000000002,0.0 0,-2.0851374999999877 -11.384275000000002,-0.0 0,2.0851374999999877 z "/>
<path style="fill:#fffafa;stroke:#797677;stroke-width:0.1;stroke-linecap:butt;stroke-linejoin:miter;stroke-miterlimit:4;stroke-opacity:1;stroke-dasharray:none" id="6q25.1" d="m 38.795875,286.1784875 11.384275000000002,0.0 0,-4.169862500000022 -11.384275000000002,-0.0 0,4.169862500000022 z "/>
<path style="fill:#fffafa;stroke:#797677;stroke-width:0.1;stroke-linecap:butt;stroke-linejoin:miter;stroke-miterlimit:4;stroke-opacity:1;stroke-dasharray:none" id="6q27" d="m 38.795875,300.77375 0.0,5.8 c 0.0,1.3012500000000002 2.5415000000000005,2.357375 5.681250000000001,2.357375 3.1381250000000005,0.0 5.682125,-1.056125 5.682125,-2.357375 l 0.0,-5.8 -11.384275000000002,-0.0 z"/>
<path style="fill:#fffafa;stroke:#797677;stroke-width:0.1;stroke-linecap:butt;stroke-linejoin:miter;stroke-miterlimit:4;stroke-opacity:1;stroke-dasharray:none" id="6p24.2" d="m 38.795875,108.14474999999997 11.384275000000002,0.0 0,-0.8359999999999701 -11.384275000000002,-0.0 0,0.8359999999999701 z "/>
<path style="fill:#fffafa;stroke:#797677;stroke-width:0.1;stroke-linecap:butt;stroke-linejoin:miter;stroke-miterlimit:4;stroke-opacity:1;stroke-dasharray:none" id="6p21.33" d="m 38.795875,131.49201250000002 11.384275000000002,0.0 0,-3.127012500000035 -11.384275000000002,-0.0 0,3.127012500000035 z "/>
<path style="fill:#fffafa;stroke:#797677;stroke-width:0.1;stroke-linecap:butt;stroke-linejoin:miter;stroke-miterlimit:4;stroke-opacity:1;stroke-dasharray:none" id="6p21.1" d="m 38.795875,153.0701 11.384275000000002,0.0 0,-9.486349999999987 -11.384275000000002,-0.0 0,9.486349999999987 z "/>
<path style="fill:#fffafa;stroke:#797677;stroke-width:0.1;stroke-linecap:butt;stroke-linejoin:miter;stroke-miterlimit:4;stroke-opacity:1;stroke-dasharray:none" id="6p11.2" d="m 38.795875,167.2962 11.384275000000002,0.0 0,-0.8837 -11.384275000000002,-0.0 0,0.8837 z "/>
<path style="fill:#fffafa;stroke:#797677;stroke-width:0.1;stroke-linecap:butt;stroke-linejoin:miter;stroke-miterlimit:4;stroke-opacity:1;stroke-dasharray:none" id="6q14.2" d="m 38.795875,194.24146249999998 11.384275000000002,0.0 0,-1.4589624999999842 -11.384275000000002,-0.0 0,1.4589624999999842 z "/>
<path style="fill:#fffafa;stroke:#797677;stroke-width:0.1;stroke-linecap:butt;stroke-linejoin:miter;stroke-miterlimit:4;stroke-opacity:1;stroke-dasharray:none" id="6p25.3" d="m 38.795875,97.72025 11.384275000000002,0.0 c 0.0,-1.3012500000000002 -2.544,-2.3575 -5.682125,-2.3575 -3.1397500000000003,-0.0 -5.681250000000001,1.05625 -5.681250000000001,2.3575 z"/>
<path style="fill:#c8d7de;fill-opacity:1;fill-rule:nonzero;stroke:none" id="centromere6-f" d="m 49.762750000000004,172.04125 0.40762500000000007,1.04 c 0.0,-0.8850000000000001 -1.179125,-2.34375 -2.9262500000000005,-3.17875 1.7471250000000003,-0.83375 2.9262500000000005,-2.29 2.9262500000000005,-3.1800000000000006 l -0.158625,0.57375 -11.0205,-0.0 -0.18562500000000004,-0.57375 c 0.0,0.8912500000000001 1.189,2.3475 2.9395,3.1800000000000006 -1.7505000000000002,0.8350000000000001 -2.9395,2.29125 -2.9395,3.17875 l 0.373625,-1.04 10.5835,0.0 "/>
<path style="fill:none;stroke:#797677;stroke-width:0.8;stroke-linecap:butt;stroke-linejoin:miter;stroke-miterlimit:4;stroke-opacity:1;stroke-dasharray:none" id="centromere6-o" d="m 49.762750000000004,172.04125 0.40762500000000007,1.04 c 0.0,-0.8850000000000001 -1.179125,-2.34375 -2.9262500000000005,-3.17875 1.7471250000000003,-0.83375 2.9262500000000005,-2.29 2.9262500000000005,-3.1800000000000006 l -0.158625,0.57375 -11.0205,-0.0 -0.18562500000000004,-0.57375 c 0.0,0.8912500000000001 1.189,2.3475 2.9395,3.1800000000000006 -1.7505000000000002,0.8350000000000001 -2.9395,2.29125 -2.9395,3.17875 l 0.373625,-1.04 10.5835,0.0 z "/>
<path style="fill:none;stroke:#797677;stroke-width:0.8;stroke-linecap:butt;stroke-linejoin:miter;stroke-miterlimit:4;stroke-opacity:1;stroke-dasharray:none" id="outline6" d="m 41.745125,169.9025 c -1.7505000000000002,0.8350000000000001 -2.9395,2.26375 -2.9395,3.1550000000000002 l 0.0,133.761125 c 0.0,1.3012500000000002 2.5415000000000005,2.357375 5.681250000000001,2.357375 3.1381250000000005,0.0 5.682125,-1.056125 5.682125,-2.357375 l 0.0,-133.893625 c 0.0,-0.60625 -1.17775,-2.18625 -2.923375,-3.0225 1.745625,-0.83375 2.923375,-2.29 2.923375,-3.1775 l 0.0,-69.00625 c 0.0,-1.3012500000000002 -2.544,-2.3575 -5.682125,-2.3575 -3.1397500000000003,-0.0 -5.681250000000001,1.05625 -5.681250000000001,2.3575 l 0.0,69.00625 c 0.0,0.8887500000000002 1.189,2.3450000000000006 2.9395,3.1775 z "/>
<path style="fill:none;stroke:#231f20;stroke-width:0.8;stroke-linecap:butt;stroke-linejoin:miter;stroke-miterlimit:4;stroke-opacity:1;stroke-dasharray:none;display:none" id="centre6" d="M 41.349625,169.935 0.0,169.935 "/>
<text>
<tspan x="41.291000000000004" y="317.827425" id="label6" style="font-size:7.19543791px;font-variant:normal;font-weight:normal;writing-mode:lr-tb;fill:#797677;fill-opacity:1;fill-rule:nonzero;stroke:none;font-family:Helvetica;-inkscape-font-specification:Helvetica">6</tspan>
</text>
</g>
</svg>
