<?xml version="1.0" encoding="utf-8"?>
<!-- Generator: Adobe Illustrator 21.1.0, SVG Export Plug-In . SVG Version: 6.00 Build 0)  -->
<svg version="1.1" id="Layer_1" xmlns="http://www.w3.org/2000/svg" xmlns:xlink="http://www.w3.org/1999/xlink" x="0px" y="0px"
	 viewBox="0 0 60 60" style="enable-background:new 0 0 60 60;" xml:space="preserve">
<g>
	<path d="M56.9,26.5c-1.2-1.8-3.1-3.6-5.5-5.5c-2.4-1.9-5.4-3.6-9-5c-3.6-1.5-7.8-2.2-12.5-2.2S21,14.5,17.4,16
		c-3.5,1.5-6.6,3.2-9,5c-2.4,1.9-4.3,3.7-5.5,5.5c-1.8,2.5-2,3.5-2,4.2c0,0.7,0.2,1.6,2,4.2c1.2,1.8,3.1,3.7,5.5,5.5
		c2.4,1.9,5.4,3.5,9,5c3.6,1.5,7.8,2.2,12.5,2.2s8.9-0.7,12.5-2.2c3.5-1.4,6.6-3.1,9-5c2.4-1.9,4.3-3.7,5.5-5.5c1.8-2.6,2-3.5,2-4.2
		C58.9,30,58.7,29,56.9,26.5z M54.3,33.1c-1.1,1.5-2.7,3.2-4.9,4.9c-2.2,1.7-4.9,3.2-8.2,4.6c-3.2,1.3-7,2-11.3,2s-8.1-0.7-11.3-2
		c-3.3-1.3-6-2.9-8.2-4.6c-2.2-1.7-3.8-3.3-4.9-4.9c-1-1.5-1.3-2.1-1.4-2.4c0.1-0.2,0.4-0.9,1.4-2.4c1.1-1.5,2.7-3.1,4.9-4.8
		c2.2-1.7,5-3.2,8.2-4.6c3.2-1.3,7-2,11.3-2s8.1,0.7,11.3,2c3.3,1.4,6.1,2.9,8.2,4.6c2.2,1.7,3.8,3.3,4.9,4.8c1,1.4,1.3,2.1,1.4,2.4
		C55.7,30.9,55.3,31.6,54.3,33.1z"/>
	<path d="M39.8,22l-0.5-0.6l-0.6-0.6l0,0c-2.4-2.2-5.5-3.4-8.7-3.4c-7.2,0-13.1,5.9-13.1,13.1c0,3.3,1.2,6.3,3.4,8.7l0,0l0.6,0.6
		l0.6,0.5l0,0c2.4,2.1,5.4,3.3,8.6,3.3c7.2,0,13.1-5.9,13.1-13.1C43,27.5,41.9,24.5,39.8,22L39.8,22z M36.2,27.9
		c-0.2,0.7-0.6,1.2-1.2,1.6c0,0,0,0,0,0c-0.3,0.2-0.6,0.3-1,0.4c0,0,0,0,0,0c-0.2,0-0.3,0-0.5,0c0,0,0,0,0,0c0,0,0,0-0.1,0
		c-0.2,0-0.3,0-0.5-0.1c0,0,0,0,0,0c-0.3-0.1-0.6-0.3-0.9-0.5c-0.1,0-0.1-0.1-0.2-0.1c-0.1-0.1-0.1-0.1-0.2-0.2
		c-0.1-0.1-0.1-0.1-0.2-0.2c0-0.1-0.1-0.1-0.1-0.2c0-0.1-0.1-0.1-0.1-0.2c-0.3-0.6-0.4-1.3-0.2-2c0-0.2,0.1-0.3,0.2-0.4c0,0,0,0,0,0
		c0.4-0.8,1.2-1.4,2.1-1.5c0,0,0.1,0,0.1,0c0.1,0,0.1,0,0.2,0c0,0,0.1,0,0.1,0c0.1,0,0.1,0,0.2,0c0.1,0,0.2,0,0.2,0
		c0.1,0,0.1,0,0.2,0c0.2,0,0.3,0.1,0.5,0.2l0,0c0.5,0.3,0.9,0.6,1.1,1.1l0,0C36.3,26.5,36.4,27.2,36.2,27.9z M18.4,30.7
		c0-6.4,5.2-11.5,11.5-11.5c2.8,0,5.5,1,7.6,2.9l-2,2c-0.3-0.2-0.6-0.3-0.9-0.4c-0.3-0.1-0.7-0.1-1-0.1h0c-1.5,0-2.8,0.9-3.4,2.3
		c-0.1,0-0.2,0-0.3,0c-2.9,0-5.3,2.4-5.3,5.3c0,1.1,0.3,2.1,0.9,2.9l-4.2,4.2C19.4,36.2,18.4,33.5,18.4,30.7z M29.9,42.2
		c-2.8,0-5.4-1-7.5-2.8l4.2-4.2c0.9,0.8,2.1,1.2,3.4,1.2c2.9,0,5.3-2.4,5.3-5.3c0-0.3,0-0.5-0.1-0.8c0.9-0.4,1.6-1.2,1.9-2.2
		c0.3-0.9,0.2-1.9-0.3-2.8c0-0.1-0.1-0.1-0.1-0.2l2-2c1.8,2.1,2.8,4.7,2.8,7.5C41.4,37,36.3,42.2,29.9,42.2z"/>
</g>
</svg>
