<?xml version="1.0" encoding="utf-8"?>
<!-- Generator: Adobe Illustrator 21.1.0, SVG Export Plug-In . SVG Version: 6.00 Build 0)  -->
<svg version="1.1" id="Layer_1" xmlns="http://www.w3.org/2000/svg" xmlns:xlink="http://www.w3.org/1999/xlink" x="0px" y="0px"
	 viewBox="0 0 60 60" style="enable-background:new 0 0 60 60;" xml:space="preserve">
<g>
	<path d="M17.3,28.6h-3.6l-1-3.3H7.4l-1,3.3H2.8l5.4-14.7h3.9L17.3,28.6z M11.9,22.8l-1.6-4.9c-0.1-0.4-0.2-0.8-0.2-1.3H10
		c0,0.4-0.1,0.9-0.3,1.3l-1.6,5H11.9z"/>
	<path d="M56.2,16.6H52v12h-3.3v-12h-4.2v-2.7h11.7V16.6z"/>
	<path d="M17.3,47.2h-3.6l-1-3.3H7.4l-1,3.3H2.8l5.4-14.7h3.9L17.3,47.2z M11.9,41.4l-1.6-4.9c-0.1-0.4-0.2-0.8-0.2-1.3H10
		c0,0.4-0.1,0.9-0.3,1.3l-1.6,5H11.9z"/>
	<path d="M38.8,7.9H23.1c-0.8,0-1.5,0.7-1.5,1.5v41.9c0,0.8,0.7,1.5,1.5,1.5h15.7c0.8,0,1.5-0.7,1.5-1.5V9.4
		C40.2,8.5,39.6,7.9,38.8,7.9z M26.7,15.8c1.5-1.5,3.3-2.2,5.7-2.2c1.4,0,2.6,0.2,3.6,0.5v3.2c-1-0.6-2.1-0.9-3.4-0.9
		c-1.4,0-2.5,0.4-3.3,1.3c-0.8,0.9-1.3,2-1.3,3.5c0,1.4,0.4,2.6,1.2,3.4s1.9,1.3,3.2,1.3c1.3,0,2.5-0.3,3.5-0.9v3
		c-1.1,0.5-2.5,0.8-4.2,0.8c-2.3,0-4-0.7-5.3-2c-1.3-1.3-1.9-3.1-1.9-5.3C24.5,19.2,25.3,17.3,26.7,15.8z M37.1,46.2
		c-1.4,0.8-3.2,1.2-5.4,1.2c-2.4,0-4.2-0.7-5.6-2c-1.4-1.3-2-3.1-2-5.4c0-2.3,0.7-4.2,2.2-5.6c1.5-1.5,3.5-2.2,5.9-2.2
		c1.6,0,2.9,0.2,4.1,0.6V36c-1.1-0.7-2.5-1-4.2-1c-1.4,0-2.5,0.4-3.4,1.3c-0.9,0.9-1.3,2.1-1.3,3.6c0,1.5,0.4,2.7,1.2,3.5
		c0.8,0.8,1.8,1.2,3.1,1.2c0.8,0,1.4-0.1,1.9-0.3v-2.9h-2.9v-2.6h6.3V46.2z"/>
	<path d="M56.2,35.2H52v12h-3.3v-12h-4.2v-2.7h11.7V35.2z"/>
</g>
</svg>
