<?xml version="1.0" encoding="utf-8"?>
<!-- Generator: Adobe Illustrator 21.1.0, SVG Export Plug-In . SVG Version: 6.00 Build 0)  -->
<svg version="1.1" id="Layer_1" xmlns="http://www.w3.org/2000/svg" xmlns:xlink="http://www.w3.org/1999/xlink" x="0px" y="0px"
	 viewBox="0 0 60 60" style="enable-background:new 0 0 60 60;" xml:space="preserve">
<g>
	<path d="M52.2,16c-0.6-1.5-1.4-2.7-2.3-3.6l-8.1-8.1c-0.9-0.9-2.1-1.6-3.6-2.3c-1.5-0.6-2.9-0.9-4.1-0.9H10.2
		C9,1.1,7.9,1.5,7.1,2.4c-0.9,0.9-1.3,2-1.3,3.2v6.1v36.7v6.1c0,1.3,0.4,2.3,1.3,3.2c0.9,0.9,1.9,1.3,3.2,1.3H13h21.1h14.5
		c1.3,0,2.3-0.4,3.2-1.3c0.9-0.9,1.3-2,1.3-3.2V20.1C53.1,18.8,52.8,17.5,52.2,16z M38.6,6.3c0.2,0.1,0.3,0.2,0.4,0.3
		c0.1,0.1,0.2,0.2,0.3,0.3l8.1,8.1c0.1,0.1,0.2,0.2,0.3,0.3c0.1,0.1,0.2,0.2,0.3,0.4h-9.3V6.3z M49.5,54.5c0,0.3-0.1,0.5-0.3,0.7
		c-0.2,0.2-0.4,0.3-0.7,0.3H13h-2.7c-0.2,0-0.4-0.1-0.6-0.3c-0.2-0.2-0.3-0.4-0.3-0.7V5.6c0-0.3,0.1-0.5,0.3-0.7
		c0.2-0.2,0.4-0.3,0.6-0.3h23.8c0.2,0,0.3,0,0.5,0c0.2,0,0.3,0,0.5,0v14.4h14.4c0,0.2,0,0.3,0,0.5c0,0.2,0,0.3,0,0.5V54.5z"/>
	<rect x="16.5" y="29.1" width="25.8" height="3.1"/>
	<rect x="16.5" y="36.4" width="25.8" height="3.1"/>
	<rect x="16.5" y="43.7" width="25.8" height="3.1"/>
</g>
</svg>
