<?xml version="1.0" encoding="utf-8"?>
<!-- Generator: Adobe Illustrator 21.1.0, SVG Export Plug-In . SVG Version: 6.00 Build 0)  -->
<svg version="1.1" id="Layer_1" xmlns="http://www.w3.org/2000/svg" xmlns:xlink="http://www.w3.org/1999/xlink" x="0px" y="0px"
	 viewBox="0 0 60 60" style="enable-background:new 0 0 60 60;" xml:space="preserve">
<style type="text/css">
	.st0{fill:#231F20;}
</style>
<path class="st0" d="M47.2,22.2c-2.4,0-4.5,1-6,2.8c-0.2-0.3-0.5-0.5-0.8-0.8c1.7-1.5,2.8-3.7,2.8-6c0-4.4-3.6-8-8-8
	c-4.4,0-8,3.6-8,8c0,0.8,0.1,1.5,0.3,2.2l-3.8,1.7c-0.1-0.4-0.3-0.8-0.5-1.2c-0.2-0.3-0.3-0.5-0.6-0.7c0,0,0,0,0,0
	c0.2-0.2,0.3-0.4,0.5-0.7c0.4-0.4,0.6-0.8,0.7-1.3l0-0.2c0.1-0.4,0.2-0.8,0.2-1.3v-4.8V7.5V7.5V7.4c0-3.4-3.6-5.8-8.9-5.8
	c-4.8,0-8.3,2-8.8,5.1C6.2,6.9,6.2,7.2,6.2,7.5v4.5v4.8c0,0.4,0.1,0.8,0.2,1.2c0,0.2,0.1,0.5,0.2,0.7c0.2,0.6,0.5,1.1,0.9,1.6
	c-0.2,0.2-0.4,0.5-0.5,0.8c-0.5,0.9-0.8,1.8-0.8,2.7V32v3.8v16.9c0,3.4,3.6,5.8,8.9,5.8c5.2,0,8.9-2.4,8.9-5.8l0.1-14.6l3.6,1.8
	c-0.2,0.8-0.3,1.5-0.3,2.3c0,4.4,3.6,8,8,8c4.4,0,8-3.6,8-8c0-2.4-1-4.5-2.8-6c0.3-0.2,0.5-0.5,0.8-0.8c1.5,1.7,3.7,2.8,6,2.8
	c4.4,0,8-3.6,8-8C55.2,25.8,51.6,22.2,47.2,22.2z M12.7,20.1C11,19.7,9.9,18.8,9.4,18h0l-0.1-0.3c-0.1-0.3-0.2-0.6-0.2-0.8v-4.8V7.9
	h0.1V7.6V7.5c0-1.7,2.5-2.9,5.9-2.9c3.4,0,5.9,1.3,5.9,2.9v0.1v0.1v4.4v4.8c0,0.2,0,0.4-0.1,0.7h-0.1l-0.1,0.1
	c-0.5,1.2-1.8,2-3.5,2.4L16,20.3l1.3,0.2c1.9,0.3,2.8,1.4,3.2,2l0.1,0.1h0.1c0.2,0.4,0.3,0.9,0.3,1.2v3.7H9.1v-3.7
	c0-0.4,0.1-0.9,0.4-1.3c0.5-1,1.7-1.7,3.2-1.9l1.3-0.2L12.7,20.1z M21,35.9l0,8.4H9.1v-8.4v-2.7H21v2.5L21,35.9z M15,55.7
	c-3.4,0-5.9-1.3-5.9-2.9v-5.1H21l0,5C21,54.5,18.4,55.7,15,55.7z M24,26.4l5.7-2.5c0.1,0.1,0.2,0.2,0.3,0.3c-1.2,1-2.1,2.4-2.5,4H24
	V26.4z M29.7,36.4l-5.7-3v-1.3h3.5c0.4,1.6,1.3,2.9,2.5,4C29.8,36.3,29.8,36.4,29.7,36.4z M35.2,47.4c-2.8,0-5-2.3-5-5
	c0-2.8,2.3-5,5-5c2.8,0,5,2.3,5,5C40.2,45.2,37.9,47.4,35.2,47.4z M35.2,35.4c-2.8,0-5-2.3-5-5c0-2.8,2.3-5,5-5c2.8,0,5,2.3,5,5
	C40.2,33.1,37.9,35.4,35.2,35.4z M35.2,23.3c-2.8,0-5-2.3-5-5s2.3-5,5-5c2.8,0,5,2.3,5,5S37.9,23.3,35.2,23.3z M47.2,35.4
	c-2.8,0-5-2.3-5-5c0-2.8,2.3-5,5-5c2.8,0,5,2.3,5,5C52.2,33.1,50,35.4,47.2,35.4z"/>
</svg>
