<?xml version="1.0" encoding="utf-8"?>
<!-- Generator: Adobe Illustrator 21.1.0, SVG Export Plug-In . SVG Version: 6.00 Build 0)  -->
<svg version="1.1" id="Layer_1" xmlns="http://www.w3.org/2000/svg" xmlns:xlink="http://www.w3.org/1999/xlink" x="0px" y="0px"
	 viewBox="0 0 60 60" style="enable-background:new 0 0 60 60;" xml:space="preserve">
<g>
	<polygon points="16.5,32 20.7,32 18.6,25.8 	"/>
	<path d="M37.7,25.3c-0.2-0.2-0.6-0.4-1-0.5c-0.4-0.1-0.9-0.2-1.6-0.2h-2.6v5.2h2.6c0.6,0,1.2-0.1,1.6-0.2c0.4-0.1,0.7-0.3,1-0.5
		c0.2-0.2,0.4-0.5,0.5-0.8c0.1-0.3,0.1-0.7,0.1-1.1c0-0.4,0-0.8-0.1-1.1C38.1,25.8,37.9,25.5,37.7,25.3z"/>
	<path d="M50.8,16.2H9.4c-4.3,0-7.8,3.5-7.8,7.8v12.9c0,4.3,3.5,7.8,7.8,7.8h41.4c4.3,0,7.8-3.5,7.8-7.8V24.1
		C58.6,19.8,55.1,16.2,50.8,16.2z M23,39.1l-1.4-4h-6.1l-1.4,4h-3.7l6.5-17.4h3.5l6.5,17.4H23z M41.6,29.3c-0.2,0.7-0.6,1.3-1.1,1.8
		c-0.5,0.5-1.2,0.9-2,1.3c-0.9,0.3-1.9,0.5-3.2,0.5h-2.7v6.2h-3.6V21.7h6.2c1.3,0,2.4,0.2,3.3,0.5c0.9,0.3,1.6,0.7,2.1,1.2
		c0.5,0.5,0.9,1.1,1.1,1.7c0.2,0.7,0.3,1.3,0.3,2.1C41.9,27.9,41.8,28.6,41.6,29.3z M48.1,39.1h-3.6V21.7h3.6V39.1z"/>
</g>
</svg>
