<?xml version="1.0" encoding="utf-8"?>
<!-- Generator: Adobe Illustrator 21.1.0, SVG Export Plug-In . SVG Version: 6.00 Build 0)  -->
<svg version="1.1" id="Layer_1" xmlns="http://www.w3.org/2000/svg" xmlns:xlink="http://www.w3.org/1999/xlink" x="0px" y="0px"
	 viewBox="0 0 60 60" style="enable-background:new 0 0 60 60;" xml:space="preserve">
<g>
	<polygon points="12.5,41.3 27.7,41.3 27.7,49.4 22.7,44.4 22.7,51.2 30.1,58.6 37.5,51.2 37.5,44.4 32.5,49.4 32.5,41.3 47.7,41.3 
		47.7,26.2 12.5,26.2 	"/>
	<polygon points="13.3,20.7 23.7,20.7 23.7,10.3 18.9,5.5 18.9,12.5 8,1.6 4.6,5 15.5,15.9 8.4,15.9 	"/>
	<polygon points="55.5,5.1 52.1,1.7 41.3,12.5 41.3,5.5 36.5,10.3 36.5,20.8 46.9,20.8 51.7,15.9 44.7,15.9 	"/>
</g>
</svg>
