<?xml version="1.0" encoding="UTF-8"?>
<svg xmlns:xlink="http://www.w3.org/1999/xlink" xmlns="http://www.w3.org/2000/svg" contentScriptType="text/ecmascript" zoomAndPan="magnify" contentStyleType="text/css" preserveAspectRatio="xMidYMid meet" version="1.0">

<g id="chromosome20" title="Chromosome 20">
<path style="fill:#f1f2f1;fill-opacity:1;fill-rule:nonzero;stroke:none" id="20p11.22" d="m 38.796375,74.484125 11.3833,0.0 0.0,-2.9443375 -11.3833,-0.0 0.0,2.9443375 z "/>
<path style="fill:none;stroke:#797677;stroke-width:0.1;stroke-linecap:butt;stroke-linejoin:miter;stroke-miterlimit:4;stroke-opacity:1;stroke-dasharray:none" id="20p11.22-o" d="m 38.796375,74.484125 11.3833,0.0 0.0,-2.9443375 -11.3833,-0.0 0.0,2.9443375 z "/>
<path style="fill:#f1f2f1;fill-opacity:1;fill-rule:nonzero;stroke:none" id="20q11.22" d="m 38.796375,92.16 11.3833,0.0 0.0,-2.9467750000000006 -11.3833,-0.0 0.0,2.9467750000000006 z "/>
<path style="fill:none;stroke:#797677;stroke-width:0.1;stroke-linecap:butt;stroke-linejoin:miter;stroke-miterlimit:4;stroke-opacity:1;stroke-dasharray:none" id="20q11.22-o" d="m 38.796375,92.16 11.3833,0.0 0.0,-2.9467750000000006 -11.3833,-0.0 0.0,2.9467750000000006 z "/>
<path style="fill:#f1f2f1;fill-opacity:1;fill-rule:nonzero;stroke:none" id="20q13.12" d="m 38.796375,108.02175 11.3833,0.0 0.0,-4.0795875 -11.3833,-0.0 0.0,4.0795875 z "/>
<path style="fill:none;stroke:#797677;stroke-width:0.1;stroke-linecap:butt;stroke-linejoin:miter;stroke-miterlimit:4;stroke-opacity:1;stroke-dasharray:none" id="20q13.12-o" d="m 38.796375,108.02175 11.3833,0.0 0.0,-4.0795875 -11.3833,-0.0 0.0,4.0795875 z "/>
<path style="fill:#afb1b4;fill-opacity:1;fill-rule:nonzero;stroke:none" id="20p12.1" d="m 38.796375,66.10037500000001 11.3833,0.0 0.0,-6.345212500000001 -11.3833,-0.0 0.0,6.345212500000001 z "/>
<path style="fill:none;stroke:#797677;stroke-width:0.1;stroke-linecap:butt;stroke-linejoin:miter;stroke-miterlimit:4;stroke-opacity:1;stroke-dasharray:none" id="20p12.1-o" d="m 38.796375,66.10037500000001 11.3833,0.0 0.0,-6.345212500000001 -11.3833,-0.0 0.0,6.345212500000001 z "/>
<path style="fill:#afb1b4;fill-opacity:1;fill-rule:nonzero;stroke:none" id="20p12.3" d="m 38.796375,57.470000000000006 11.3833,0.0 0.0,-4.738775 -11.3833,-0.0 0.0,4.738775 z "/>
<path style="fill:none;stroke:#797677;stroke-width:0.1;stroke-linecap:butt;stroke-linejoin:miter;stroke-miterlimit:4;stroke-opacity:1;stroke-dasharray:none" id="20p12.3-o" d="m 38.796375,57.470000000000006 11.3833,0.0 0.0,-4.738775 -11.3833,-0.0 0.0,4.738775 z "/>
<path style="fill:#afb1b4;fill-opacity:1;fill-rule:nonzero;stroke:none" id="20q12" d="m 38.796375,100.97825 11.3833,0.0 0.0,-4.965825 -11.3833,-0.0 0.0,4.965825 z "/>
<path style="fill:none;stroke:#797677;stroke-width:0.1;stroke-linecap:butt;stroke-linejoin:miter;stroke-miterlimit:4;stroke-opacity:1;stroke-dasharray:none" id="20q12-o" d="m 38.796375,100.97825 11.3833,0.0 0.0,-4.965825 -11.3833,-0.0 0.0,4.965825 z "/>
<path style="fill:#afb1b4;fill-opacity:1;fill-rule:nonzero;stroke:none" id="20q13.2" d="m 38.796375,120.46562500000002 11.3833,0.0 0.0,-5.419925 -11.3833,-0.0 0.0,5.419925 z "/>
<path style="fill:none;stroke:#797677;stroke-width:0.1;stroke-linecap:butt;stroke-linejoin:miter;stroke-miterlimit:4;stroke-opacity:1;stroke-dasharray:none" id="20q13.2-o" d="m 38.796375,120.46562500000002 11.3833,0.0 0.0,-5.419925 -11.3833,-0.0 0.0,5.419925 z "/>
<path style="fill:#d6d6d7;fill-opacity:1;fill-rule:nonzero;stroke:none" id="20q13.32" d="m 38.796375,125.01887500000001 11.3833,0.0 0.0,-2.719725 -11.3833,-0.0 0.0,2.719725 z "/>
<path style="fill:none;stroke:#797677;stroke-width:0.1;stroke-linecap:butt;stroke-linejoin:miter;stroke-miterlimit:4;stroke-opacity:1;stroke-dasharray:none" id="20q13.32-o" d="m 38.796375,125.01887500000001 11.3833,0.0 0.0,-2.719725 -11.3833,-0.0 0.0,2.719725 z "/>
<path style="fill:#fffafa;stroke:#797677;stroke-width:0.1;stroke-linecap:butt;stroke-linejoin:miter;stroke-miterlimit:4;stroke-opacity:1;stroke-dasharray:none" id="20q11.23" d="m 38.796375,96.01242500000001 11.3833,0.0 0,-3.852425000000011 -11.3833,-0.0 0,3.852425000000011 z "/>
<path style="fill:#fffafa;stroke:#797677;stroke-width:0.1;stroke-linecap:butt;stroke-linejoin:miter;stroke-miterlimit:4;stroke-opacity:1;stroke-dasharray:none" id="20p12.2" d="m 38.796375,59.75516250000001 11.3833,0.0 0,-2.2851625000000055 -11.3833,-0.0 0,2.2851625000000055 z "/>
<path style="fill:#fffafa;stroke:#797677;stroke-width:0.1;stroke-linecap:butt;stroke-linejoin:miter;stroke-miterlimit:4;stroke-opacity:1;stroke-dasharray:none" id="20q13.33" d="m 38.796375,125.01887500000001 0.0,3 c 0.0,1.4135 2.5453750000000004,2.5635000000000003 5.68025,2.5635000000000003 3.1381250000000005,0.0 5.683,-1.15 5.683,-2.5635000000000003  l 0.0,-3 -11.3833,-0.0 z"/>
<path style="fill:#fffafa;stroke:#797677;stroke-width:0.1;stroke-linecap:butt;stroke-linejoin:miter;stroke-miterlimit:4;stroke-opacity:1;stroke-dasharray:none" id="20q13.13" d="m 38.796375,115.04570000000001 11.3833,0.0 0,-7.0239500000000135 -11.3833,-0.0 0,7.0239500000000135 z "/>
<path style="fill:#fffafa;stroke:#797677;stroke-width:0.1;stroke-linecap:butt;stroke-linejoin:miter;stroke-miterlimit:4;stroke-opacity:1;stroke-dasharray:none" id="20q13.11" d="m 38.796375,103.9421625 11.3833,0.0 0,-2.963912499999992 -11.3833,-0.0 0,2.963912499999992 z "/>
<path style="fill:#fffafa;stroke:#797677;stroke-width:0.1;stroke-linecap:butt;stroke-linejoin:miter;stroke-miterlimit:4;stroke-opacity:1;stroke-dasharray:none" id="20p11.23" d="m 38.796375,71.5397875 11.3833,0.0 0,-5.439412499999989 -11.3833,-0.0 0,5.439412499999989 z "/>
<path style="fill:#fffafa;stroke:#797677;stroke-width:0.1;stroke-linecap:butt;stroke-linejoin:miter;stroke-miterlimit:4;stroke-opacity:1;stroke-dasharray:none" id="20p11.21" d="m 38.796375,77.997375 11.3833,0.0 0,-3.5132499999999993 -11.3833,-0.0 0,3.5132499999999993 z "/>
<path style="fill:#fffafa;stroke:#797677;stroke-width:0.1;stroke-linecap:butt;stroke-linejoin:miter;stroke-miterlimit:4;stroke-opacity:1;stroke-dasharray:none" id="20q11.21" d="m 38.796375,89.213225 11.3833,0.0 0,-3.681725 -11.3833,-0.0 0,3.681725 z "/>
<path style="fill:#fffafa;stroke:#797677;stroke-width:0.1;stroke-linecap:butt;stroke-linejoin:miter;stroke-miterlimit:4;stroke-opacity:1;stroke-dasharray:none" id="20q13.31" d="m 38.796375,122.29915000000001 11.3833,0.0 0,-1.8335249999999945 -11.3833,-0.0 0,1.8335249999999945 z "/>
<path style="fill:#fffafa;stroke:#797677;stroke-width:0.1;stroke-linecap:butt;stroke-linejoin:miter;stroke-miterlimit:4;stroke-opacity:1;stroke-dasharray:none" id="20p13" d="m 38.796375,52.731225 11.3833,0.0 0.0,-5 c 0.0,-1.416 -2.544875,-2.5635000000000003 -5.683,-2.5635000000000003 -3.134875,-0.0 -5.68025,1.1475 -5.68025,2.5635000000000003 l 0.0,5 z"/>
<path style="fill:#c8d7de;fill-opacity:1;fill-rule:nonzero;stroke:none" id="centromere20-f" d="m 50.16937500000001,85.5315 0.0,-0.056125 c 0.0,-0.9643750000000001 -1.1801250000000003,-2.548875 -2.92425,-3.457 1.744125,-0.90825 2.92425,-2.49275 2.92425,-3.454625 l 0.0,-0.566375 -11.36325,-0.0 0.0,0.566375 c 0.0,0.9667500000000001 1.189,2.548875 2.9395,3.454625 -1.7505000000000002,0.9057500000000002 -2.9395,2.49025 -2.9395,3.457 l 0.0,0.056125 11.36325,0.0 "/>
<path style="fill:none;stroke:#797677;stroke-width:0.8;stroke-linecap:butt;stroke-linejoin:miter;stroke-miterlimit:4;stroke-opacity:1;stroke-dasharray:none" id="centromere20-o" d="m 50.16937500000001,85.5315 0.0,-0.056125 c 0.0,-0.9643750000000001 -1.1801250000000003,-2.548875 -2.92425,-3.457 1.744125,-0.90825 2.92425,-2.49275 2.92425,-3.454625 l 0.0,-0.566375 -11.36325,-0.0 0.0,0.566375 c 0.0,0.9667500000000001 1.189,2.548875 2.9395,3.454625 -1.7505000000000002,0.9057500000000002 -2.9395,2.49025 -2.9395,3.457 l 0.0,0.056125 11.36325,0.0 z "/>
<path style="fill:none;stroke:#797677;stroke-width:0.8;stroke-linecap:butt;stroke-linejoin:miter;stroke-miterlimit:4;stroke-opacity:1;stroke-dasharray:none" id="outline20" d="m 41.745625,82.018375 c -1.7505000000000002,0.9057500000000002 -2.9395,2.49025 -2.9395,3.457 l 0.0,42.714875 c 0.0,1.4135 2.5453750000000004,2.5635000000000003 5.68025,2.5635000000000003 3.1381250000000005,0.0 5.683,-1.15 5.683,-2.5635000000000003 l 0.0,-42.714875 c 0.0,-0.9643750000000001 -1.1801250000000003,-2.548875 -2.92425,-3.457 1.744125,-0.90825 2.92425,-2.49275 2.92425,-3.454625 l 0.0,-30.817875000000004 c 0.0,-1.416 -2.544875,-2.5635000000000003 -5.683,-2.5635000000000003 -3.134875,-0.0 -5.68025,1.1475 -5.68025,2.5635000000000003 l 0.0,30.817875000000004 c 0.0,0.9667500000000001 1.189,2.548875 2.9395,3.454625 z "/>
<path style="fill:none;stroke:#231f20;stroke-width:0.8;stroke-linecap:butt;stroke-linejoin:miter;stroke-miterlimit:4;stroke-opacity:1;stroke-dasharray:none;display:none" id="centre20" d="M 41.350125000000006,82.055 0.0,82.055 "/>
<text>
<tspan x="38.79 43.792435499999996" y="139.4060375" id="label20" style="font-size:7.19543791px;font-variant:normal;font-weight:normal;writing-mode:lr-tb;fill:#797677;fill-opacity:1;fill-rule:nonzero;stroke:none;font-family:Helvetica;-inkscape-font-specification:Helvetica">20</tspan>
</text>
</g>
</svg>
