<?xml version="1.0" encoding="utf-8"?>
<!-- Generator: Adobe Illustrator 16.0.4, SVG Export Plug-In . SVG Version: 6.00 Build 0)  -->
<!DOCTYPE svg PUBLIC "-//W3C//DTD SVG 1.1//EN" "http://www.w3.org/Graphics/SVG/1.1/DTD/svg11.dtd">
<svg version="1.1" id="Capa_1" xmlns="http://www.w3.org/2000/svg" xmlns:xlink="http://www.w3.org/1999/xlink" x="0px" y="0px"
	 width="32px" height="32px" viewBox="0 0 32 32" enable-background="new 0 0 32 32" xml:space="preserve">
<path d="M15.999,0C7.164,0.002,0.002,7.164,0,15.999c0.002,8.838,7.164,16,15.999,16.001c8.838-0.002,16-7.163,16.001-16.001
	C31.999,7.164,24.837,0.002,15.999,0z M11.531,2.746C10.453,3.99,9.296,5.722,8.416,8.001H4.527
	C6.224,5.573,8.669,3.713,11.531,2.746z M3.371,10H7.76c-0.394,1.473-0.649,3.142-0.72,5H2.052C2.181,13.219,2.64,11.534,3.371,10z
	 M2.052,17.001H7.04C7.111,18.859,7.366,20.527,7.76,22H3.373C2.642,20.466,2.182,18.783,2.052,17.001z M4.53,24h3.887
	c0.879,2.275,2.034,4.007,3.112,5.25C8.669,28.284,6.226,26.426,4.53,24z M15,29.789c-0.94-0.704-2.991-2.499-4.433-5.789H15V29.789
	z M15,21.999H9.83C9.402,20.562,9.116,18.895,9.035,17H15V21.999z M15,15H9.04c0.081-1.904,0.374-3.563,0.805-5H15V15z M15,8.001
	h-4.438c0.528-1.203,1.137-2.208,1.743-3.033c0.82-1.114,1.638-1.901,2.241-2.404C14.72,2.42,14.868,2.306,15,2.208V8.001z
	 M29.945,15H24.96c-0.071-1.859-0.326-3.527-0.722-5h4.389C29.357,11.534,29.818,13.219,29.945,15z M27.473,8.001h-3.889
	c-0.881-2.28-2.037-4.012-3.116-5.255C23.332,3.713,25.777,5.573,27.473,8.001z M17,8.002v-5.79
	c0.941,0.705,2.991,2.501,4.434,5.791L17,8.002L17,8.002z M17,10h5.169c0.429,1.437,0.714,3.105,0.795,5H17V10z M17,17h5.959
	c-0.081,1.902-0.374,3.562-0.805,4.999H17V17z M17.453,29.436c-0.174,0.144-0.322,0.256-0.453,0.355v-5.79h4.438
	c-0.527,1.202-1.138,2.206-1.744,3.031C18.875,28.145,18.057,28.934,17.453,29.436z M20.471,29.25
	c1.077-1.243,2.232-2.975,3.112-5.25h3.888C25.773,26.426,23.331,28.284,20.471,29.25z M28.626,21.999H24.24
	c0.393-1.472,0.648-3.14,0.72-4.999h4.985C29.816,18.781,29.357,20.465,28.626,21.999z"/>
</svg>
