<?xml version="1.0" encoding="utf-8"?>
<!-- Generator: Adobe Illustrator 16.0.4, SVG Export Plug-In . SVG Version: 6.00 Build 0)  -->
<!DOCTYPE svg PUBLIC "-//W3C//DTD SVG 1.1//EN" "http://www.w3.org/Graphics/SVG/1.1/DTD/svg11.dtd">
<svg version="1.1" id="Capa_1" xmlns="http://www.w3.org/2000/svg" xmlns:xlink="http://www.w3.org/1999/xlink" x="0px" y="0px"
	 width="32px" height="32px" viewBox="0 0 32 32" enable-background="new 0 0 32 32" xml:space="preserve">
<path d="M29.967,17.305c-0.167-3.86-1.705-7.672-4.652-10.619C22.189,3.562,18.096,2,14,2v2c3.568,0.012,7.133,1.422,9.855,4.144
	c2.043,2.044,3.334,4.563,3.861,7.202c-0.712-0.439-1.486-0.782-2.312-1.011c-0.562-1.765-1.528-3.431-2.92-4.821
	C20.152,7.182,17.055,6.011,14,6v2c2.543,0.011,5.13,0.987,7.07,2.929c0.908,0.908,1.602,1.958,2.086,3.079
	C23.104,14.007,23.053,14,23,14c-0.678,0-1.335,0.081-1.971,0.223c-0.357-0.677-0.809-1.315-1.373-1.88
	C18.105,10.792,16.031,10.011,14,10v2c1.52,0.011,3.082,0.597,4.242,1.757c0.345,0.345,0.631,0.729,0.871,1.134
	c-0.495,0.238-0.965,0.518-1.405,0.839C17.232,14.709,16.202,14,15,14c-1.656,0-3,1.343-3,3c0,1.305,0.838,2.402,2,2.816v6.367
	c-0.098,0.035-0.193,0.072-0.286,0.116L5.7,18.286C5.887,17.896,6,17.463,6,17c0-1.657-1.343-3-3-3s-3,1.343-3,3
	c0,1.305,0.837,2.402,2,2.816v6.367C0.837,26.598,0,27.695,0,29c0,1.657,1.343,3,3,3s3-1.343,3-3c0-1.305-0.837-2.402-2-2.816
	v-6.367c0.098-0.034,0.193-0.071,0.285-0.115l8.015,8.015C12.113,28.105,12,28.538,12,29c0,1.657,1.344,3,3,3
	c1.202,0,2.232-0.709,2.708-1.73C19.193,31.352,21.02,31.999,23,32c4.971-0.002,8.998-4.029,9-9
	C31.999,20.838,31.236,18.855,29.967,17.305z M23,29.883c-3.801-0.009-6.876-3.084-6.884-6.883c0.008-3.801,3.083-6.876,6.884-6.884
	c3.799,0.008,6.874,3.083,6.883,6.884C29.874,26.799,26.799,29.874,23,29.883z"/>
<path d="M22,27h-3v-3L22,27z M28,21l-5,5l-3-3.001l5-5L28,21z"/>
</svg>
