<?xml version="1.0" encoding="utf-8"?>
<!-- Generator: Adobe Illustrator 16.0.4, SVG Export Plug-In . SVG Version: 6.00 Build 0)  -->
<!DOCTYPE svg PUBLIC "-//W3C//DTD SVG 1.1//EN" "http://www.w3.org/Graphics/SVG/1.1/DTD/svg11.dtd">
<svg version="1.1" id="Capa_1" xmlns="http://www.w3.org/2000/svg" xmlns:xlink="http://www.w3.org/1999/xlink" x="0px" y="0px"
	 width="32px" height="32px" viewBox="0 0 32 32" enable-background="new 0 0 32 32" xml:space="preserve">
<g>
	<path d="M23,14c-4.633,0-8.443,3.499-8.942,8H2v8h15.348c1.545,1.249,3.51,2,5.652,2s4.105-0.751,5.65-2H30v-1.35
		c1.249-1.545,2-3.508,2-5.649C32,18.027,27.971,14,23,14z M8,28H4v-2h4V28z M23,30c-3.865-0.008-6.995-3.135-7-6.999
		c0.006-3.866,3.135-6.995,7-7.001c3.863,0.006,6.991,3.135,6.999,7.001C29.991,26.865,26.863,29.992,23,30z"/>
	<polygon points="19,22 27,22 23,18 	"/>
	<rect x="19" y="24" width="8" height="2"/>
</g>
</svg>
