<?xml version="1.0" encoding="utf-8"?>
<!-- Generator: Adobe Illustrator 16.0.4, SVG Export Plug-In . SVG Version: 6.00 Build 0)  -->
<!DOCTYPE svg PUBLIC "-//W3C//DTD SVG 1.1//EN" "http://www.w3.org/Graphics/SVG/1.1/DTD/svg11.dtd">
<svg version="1.1" id="Capa_1" xmlns="http://www.w3.org/2000/svg" xmlns:xlink="http://www.w3.org/1999/xlink" x="0px" y="0px"
	 width="32px" height="32px" viewBox="0 0 32 32" enable-background="new 0 0 32 32" xml:space="preserve">
<g>
	<path d="M8,20c0-2,0-10,0-10s0.005-0.45,0.239-1C6.16,9,4,9,4,9s-2,0-2,2v7c0,2,2,2,2,2v10h6v-8C10,22,8,22,8,20z"/>
	<path d="M8,8c0.52,0,1.001-0.144,1.427-0.376c0.059-0.036,0.125-0.068,0.188-0.103C10.446,6.988,11,6.061,11,5c0-1.657-1.343-3-3-3
		S5,3.343,5,5S6.343,8,8,8z"/>
	<path d="M28,9h-4.238C23.995,9.55,24,10,24,10s0,8,0,10s-2,2-2,2v8h6V20c0,0,2,0,2-2s0-7,0-7S30,9,28,9z"/>
	<path d="M22.38,7.519c0.065,0.035,0.134,0.068,0.194,0.105C23,7.856,23.48,8,24,8c1.657,0,3-1.343,3-3s-1.343-3-3-3s-3,1.343-3,3
		C21,6.059,21.552,6.985,22.38,7.519z"/>
	<circle cx="16" cy="5" r="3"/>
	<path d="M22,11c0,0,0-2-2-2c-0.5,0-8,0-8,0s-2,0-2,2v7c0,2,2,2,2,2v10h8V20c0,0,2,0,2-2S22,11,22,11z"/>
</g>
</svg>
