<?xml version="1.0" encoding="utf-8"?>
<!-- Generator: Adobe Illustrator 16.0.4, SVG Export Plug-In . SVG Version: 6.00 Build 0)  -->
<!DOCTYPE svg PUBLIC "-//W3C//DTD SVG 1.1//EN" "http://www.w3.org/Graphics/SVG/1.1/DTD/svg11.dtd">
<svg version="1.1" id="Capa_1" xmlns="http://www.w3.org/2000/svg" xmlns:xlink="http://www.w3.org/1999/xlink" x="0px" y="0px"
	 width="32px" height="32px" viewBox="0 0 32 32" enable-background="new 0 0 32 32" xml:space="preserve">
<g>
	<path d="M24,14.059V8h-6V6h4l-6-6l-6,6h4v2H8v16h6v2h-4l6,6l1.723-1.723C19.205,31.355,21.025,31.999,23,32
		c4.971-0.002,8.998-4.029,9-9C31.998,18.366,28.499,14.557,24,14.059z M14.059,22H10V10h12v4.059
		C17.828,14.52,14.52,17.829,14.059,22z M23,29.883c-3.801-0.009-6.876-3.084-6.885-6.883c0.009-3.801,3.084-6.876,6.885-6.885
		c3.799,0.009,6.874,3.084,6.883,6.885C29.874,26.799,26.799,29.874,23,29.883z"/>
	<polygon points="26,19 22,23 20,21 18,23 22,27 28,21 	"/>
</g>
</svg>
