<?xml version="1.0" encoding="utf-8"?>
<!-- Generator: Adobe Illustrator 16.0.4, SVG Export Plug-In . SVG Version: 6.00 Build 0)  -->
<!DOCTYPE svg PUBLIC "-//W3C//DTD SVG 1.1//EN" "http://www.w3.org/Graphics/SVG/1.1/DTD/svg11.dtd">
<svg version="1.1" id="Capa_1" xmlns="http://www.w3.org/2000/svg" xmlns:xlink="http://www.w3.org/1999/xlink" x="0px" y="0px"
	 width="32px" height="32px" viewBox="0 0 32 32" enable-background="new 0 0 32 32" xml:space="preserve">
<path d="M26,20.102V11.9c2.282-0.463,4-2.48,4-4.899c0-2.762-2.238-5-5-5c-2.419,0-4.436,1.718-4.898,4H11.9
	C11.436,3.718,9.419,2,7,2C4.239,2,2,4.239,2,7c0,2.419,1.718,4.436,4,4.899V20.1c-2.282,0.465-4,2.481-4,4.9c0,2.762,2.238,5,5,5
	c2.419,0,4.436-1.718,4.899-4H20.1c0.465,2.282,2.48,4,4.899,4c2.763,0,5-2.238,5-5C30,22.581,28.282,20.564,26,20.102z
	 M22.247,20.831l-4.832-4.832l4.831-4.831c0.523,0.347,1.115,0.601,1.754,0.731V20.1C23.361,20.23,22.771,20.484,22.247,20.831z
	 M20.83,9.752l-4.831,4.831l-4.83-4.83C11.516,9.229,11.77,8.638,11.899,8H20.1C20.23,8.637,20.482,9.228,20.83,9.752L20.83,9.752z
	 M9.753,11.169l4.83,4.83L9.752,20.83C9.228,20.482,8.637,20.23,8,20.102V11.9C8.638,11.77,9.229,11.516,9.753,11.169z
	 M11.168,22.246l4.831-4.831l4.832,4.832c-0.347,0.524-0.601,1.114-0.729,1.753H11.9C11.77,23.361,11.516,22.771,11.168,22.246z"/>
</svg>
