<?xml version="1.0" encoding="utf-8"?>
<!-- Generator: Adobe Illustrator 16.0.4, SVG Export Plug-In . SVG Version: 6.00 Build 0)  -->
<!DOCTYPE svg PUBLIC "-//W3C//DTD SVG 1.1//EN" "http://www.w3.org/Graphics/SVG/1.1/DTD/svg11.dtd">
<svg version="1.1" id="Capa_1" xmlns="http://www.w3.org/2000/svg" xmlns:xlink="http://www.w3.org/1999/xlink" x="0px" y="0px"
	 width="32px" height="32px" viewBox="0 0 32 32" enable-background="new 0 0 32 32" xml:space="preserve">
<path d="M26.645,5.553c-1.33-2.746-4.291-5.587-9.644-5.552c-5.355-0.035-8.315,2.806-9.645,5.552
	C5.993,8.293,6.005,10.916,5.999,11c0.045,5.542,4.243,9.623,4.292,9.707c0.824,0.816,1.266,1.896,1.488,2.785
	c0.111,0.443,0.167,0.834,0.194,1.107C12,24.872,11.996,24.999,12,24.999V30h2l2,2h2l2-2h2v-5.039c0-0.04,0.002-0.143,0.025-0.361
	c0.074-0.83,0.442-2.677,1.681-3.894c0.051-0.084,4.249-4.165,4.292-9.707C27.994,10.916,28.006,8.293,26.645,5.553z M24.146,16.852
	c-0.471,0.764-0.941,1.383-1.293,1.808c-0.352,0.424-0.562,0.632-0.562,0.634c-1.559,1.593-2.047,3.548-2.206,4.708h-6.171
	c-0.16-1.16-0.649-3.115-2.208-4.708c0,0-0.21-0.21-0.562-0.634C10.078,17.389,7.982,14.339,8,11c0-0.002-0.002-0.531,0.142-1.397
	C8.356,8.3,8.91,6.354,10.209,4.804C11.517,3.26,13.499,2.016,17.001,2c4.644,0.035,6.685,2.195,7.854,4.447
	c0.565,1.13,0.857,2.29,1,3.156C26.001,10.469,25.993,11,25.999,11C26.003,13.228,25.091,15.321,24.146,16.852z"/>
</svg>
