<?xml version="1.0" encoding="utf-8"?>
<!-- Generator: Adobe Illustrator 16.0.4, SVG Export Plug-In . SVG Version: 6.00 Build 0)  -->
<!DOCTYPE svg PUBLIC "-//W3C//DTD SVG 1.1//EN" "http://www.w3.org/Graphics/SVG/1.1/DTD/svg11.dtd">
<svg version="1.1" id="Capa_1" xmlns="http://www.w3.org/2000/svg" xmlns:xlink="http://www.w3.org/1999/xlink" x="0px" y="0px"
	 width="32px" height="32px" viewBox="0 0 32 32" enable-background="new 0 0 32 32" xml:space="preserve">
<g>
	<rect x="10" y="4" width="20" height="2"/>
	<rect x="10" y="14" width="20" height="2"/>
	<rect x="10" y="24" width="20" height="2"/>
	<polygon points="5,4 5.001,3 3.001,3 3.001,4 4,4 4,9 3,9 3,10 6,10 6,9 5,9 	"/>
	<rect x="4" y="16" width="1" height="1"/>
	<rect x="3" y="17" width="1" height="1"/>
	<polygon points="2,20 6,20 6,19 3,19 3,18 2,18 	"/>
	<rect x="5" y="14" width="1" height="2"/>
	<rect x="3" y="13" width="2" height="1"/>
	<rect x="2" y="14" width="1" height="1"/>
	<rect x="5" y="26" width="1" height="2"/>
	<rect x="5" y="23" width="1" height="2"/>
	<rect x="2" y="22" width="3" height="1"/>
	<rect x="2" y="28" width="3" height="1"/>
	<rect x="3" y="25" width="2" height="1"/>
</g>
</svg>
