<?xml version="1.0" encoding="utf-8"?>
<!-- Generator: Adobe Illustrator 16.0.4, SVG Export Plug-In . SVG Version: 6.00 Build 0)  -->
<!DOCTYPE svg PUBLIC "-//W3C//DTD SVG 1.1//EN" "http://www.w3.org/Graphics/SVG/1.1/DTD/svg11.dtd">
<svg version="1.1" id="Capa_1" xmlns="http://www.w3.org/2000/svg" xmlns:xlink="http://www.w3.org/1999/xlink" x="0px" y="0px"
	 width="32px" height="32px" viewBox="0 0 32 32" enable-background="new 0 0 32 32" xml:space="preserve">
<path d="M8,0v16.35C7.373,16.127,6.702,16,6,16c-3.316,0-6,2.691-6,6c0,3.314,2.684,6,6,6c3.311,0,6-2.686,6-6V6l12,2v12.35
	C23.373,20.127,22.703,20,22,20c-3.316,0-6,2.691-6,6c0,3.314,2.684,6,6,6c3.309,0,6-2.686,6-6V4L8,0z"/>
</svg>
