<?xml version="1.0" encoding="utf-8"?>
<!-- Generator: Adobe Illustrator 16.0.4, SVG Export Plug-In . SVG Version: 6.00 Build 0)  -->
<!DOCTYPE svg PUBLIC "-//W3C//DTD SVG 1.1//EN" "http://www.w3.org/Graphics/SVG/1.1/DTD/svg11.dtd">
<svg version="1.1" id="Capa_1" xmlns="http://www.w3.org/2000/svg" xmlns:xlink="http://www.w3.org/1999/xlink" x="0px" y="0px"
	 width="32px" height="32px" viewBox="0 0 32 32" enable-background="new 0 0 32 32" xml:space="preserve">
<g>
	<path d="M22.414,0H4v32h24V5.584L22.414,0z M21.998,2.413L25.586,6h-3.588V2.413z M26,30H6V1.998h14v6.001h6V30z"/>
	<path d="M16,14c0,0.74,0.215,1.424,0.564,2.019l-2.546,2.547C13.424,18.215,12.74,18,12,18c-2.209,0-4,1.792-4,4s1.791,4,4,4
		s4-1.792,4-4c0-0.74-0.215-1.425-0.566-2.02l2.546-2.547C18.575,17.785,19.26,18,20,18c2.208,0,4-1.792,4-4s-1.792-4-4-4
		S16,11.792,16,14z"/>
</g>
</svg>
