<?xml version="1.0" encoding="utf-8"?>
<!-- Generator: Adobe Illustrator 16.0.4, SVG Export Plug-In . SVG Version: 6.00 Build 0)  -->
<!DOCTYPE svg PUBLIC "-//W3C//DTD SVG 1.1//EN" "http://www.w3.org/Graphics/SVG/1.1/DTD/svg11.dtd">
<svg version="1.1" id="Capa_1" xmlns="http://www.w3.org/2000/svg" xmlns:xlink="http://www.w3.org/1999/xlink" x="0px" y="0px"
	 width="32px" height="32px" viewBox="0 0 32 32" enable-background="new 0 0 32 32" xml:space="preserve">
<path d="M26,14.523v-2.624c2.281-0.463,4-2.48,4-4.899c0-2.762-2.238-5-5-5s-5,2.238-5,5c0,2.419,1.719,4.436,4,4.899v2.159
	C23.671,14.022,23.338,14,23,14c-2.126,0-4.075,0.74-5.615,1.972l-6.216-6.217C11.691,8.964,12,8.019,12,7c0-2.762-2.239-5-5-5
	S2,4.238,2,7c0,2.419,1.718,4.436,4,4.899V20.1c-2.282,0.463-4,2.48-4,4.9c0,2.764,2.239,5,5,5s5-2.236,5-5
	c0-2.42-1.718-4.438-4-4.898V11.9c0.638-0.13,1.229-0.383,1.754-0.73l6.217,6.217C14.74,18.925,14,20.874,14,23
	c0,4.971,4.027,8.998,9,9c4.971-0.002,8.998-4.029,9-9C31.998,19.081,29.493,15.759,26,14.523z M23,29.883
	c-3.801-0.009-6.876-3.084-6.885-6.883c0.009-3.801,3.084-6.876,6.885-6.884c3.799,0.008,6.874,3.083,6.883,6.884
	C29.874,26.799,26.799,29.874,23,29.883z"/>
<path d="M26.145,22.001c0.008-0.131,0.014-0.267,0.014-0.409c-0.006-0.678-0.088-1.49-0.557-2.258
	c-0.457-0.779-1.438-1.359-2.602-1.333c-1.165-0.026-2.148,0.554-2.605,1.333c-0.47,0.768-0.552,1.58-0.556,2.258
	c0,0.143,0.007,0.278,0.015,0.409H19V27h8v-4.999H26.145z M21.837,21.592c-0.004-0.478,0.093-0.958,0.254-1.197
	c0.173-0.227,0.271-0.365,0.909-0.394c0.637,0.026,0.73,0.165,0.904,0.394c0.162,0.239,0.259,0.723,0.253,1.197
	c0,0.145-0.009,0.28-0.019,0.409h-2.283C21.846,21.87,21.837,21.732,21.837,21.592z"/>
</svg>
