<?xml version="1.0" encoding="utf-8"?>
<!-- Generator: Adobe Illustrator 16.0.4, SVG Export Plug-In . SVG Version: 6.00 Build 0)  -->
<!DOCTYPE svg PUBLIC "-//W3C//DTD SVG 1.1//EN" "http://www.w3.org/Graphics/SVG/1.1/DTD/svg11.dtd">
<svg version="1.1" id="Capa_1" xmlns="http://www.w3.org/2000/svg" xmlns:xlink="http://www.w3.org/1999/xlink" x="0px" y="0px"
	 width="32px" height="32px" viewBox="0 0 32 32" enable-background="new 0 0 32 32" xml:space="preserve">
<g>
	<path d="M26,14.523v-2.624c2.281-0.463,4-2.48,4-4.899c0-2.762-2.238-5-5-5s-5,2.238-5,5c0,2.419,1.719,4.436,4,4.899v2.159
		C23.671,14.022,23.338,14,23,14c-2.126,0-4.075,0.74-5.615,1.972l-6.216-6.217C11.691,8.964,12,8.019,12,7c0-2.762-2.239-5-5-5
		S2,4.238,2,7c0,2.419,1.718,4.436,4,4.899V20.1c-2.282,0.463-4,2.48-4,4.9c0,2.764,2.239,5,5,5s5-2.236,5-5
		c0-2.42-1.718-4.438-4-4.898V11.9c0.638-0.13,1.229-0.383,1.754-0.73l6.217,6.217C14.74,18.925,14,20.874,14,23
		c0,4.971,4.027,8.998,9,9c4.971-0.002,8.998-4.029,9-9C31.998,19.081,29.493,15.759,26,14.523z M23,29.883
		c-3.801-0.009-6.876-3.084-6.885-6.883c0.009-3.801,3.084-6.876,6.885-6.884c3.799,0.008,6.874,3.083,6.883,6.884
		C29.874,26.799,26.799,29.874,23,29.883z"/>
	<rect x="18" y="22" width="10" height="2"/>
</g>
</svg>
