<?xml version="1.0" encoding="utf-8"?>
<!-- Generator: Adobe Illustrator 16.0.4, SVG Export Plug-In . SVG Version: 6.00 Build 0)  -->
<!DOCTYPE svg PUBLIC "-//W3C//DTD SVG 1.1//EN" "http://www.w3.org/Graphics/SVG/1.1/DTD/svg11.dtd">
<svg version="1.1" id="Capa_1" xmlns="http://www.w3.org/2000/svg" xmlns:xlink="http://www.w3.org/1999/xlink" x="0px" y="0px"
	 width="32px" height="32px" viewBox="0 0 32 32" enable-background="new 0 0 32 32" xml:space="preserve">
<path d="M26,20.102V11.9c2.281-0.463,4-2.48,4-4.899c0-2.762-2.238-5-5-5s-5,2.238-5,5c0,2.419,1.719,4.436,4,4.899v8.202
	c-0.639,0.129-1.229,0.383-1.754,0.73L11.168,9.755C11.691,8.964,12,8.019,12,7c0-2.762-2.239-5-5-5S2,4.238,2,7
	c0,2.419,1.718,4.436,4,4.899V20.1c-2.282,0.463-4,2.48-4,4.9c0,2.764,2.239,5,5,5s5-2.236,5-5c0-2.42-1.718-4.438-4-4.898V11.9
	c0.638-0.13,1.229-0.383,1.754-0.73l11.078,11.077C20.309,23.036,20,23.98,20,25c0,2.764,2.24,5,5,5s5-2.236,5-5
	C30,22.58,28.281,20.564,26,20.102z"/>
</svg>
