<?xml version="1.0" encoding="utf-8"?>
<!-- Generator: Adobe Illustrator 16.0.4, SVG Export Plug-In . SVG Version: 6.00 Build 0)  -->
<!DOCTYPE svg PUBLIC "-//W3C//DTD SVG 1.1//EN" "http://www.w3.org/Graphics/SVG/1.1/DTD/svg11.dtd">
<svg version="1.1" id="Capa_1" xmlns="http://www.w3.org/2000/svg" xmlns:xlink="http://www.w3.org/1999/xlink" x="0px" y="0px"
	 width="32px" height="32px" viewBox="0 0 32 32" enable-background="new 0 0 32 32" xml:space="preserve">
<g>
	<path d="M28,10V6H0v22c0,0,0,4,4,4h25c0,0,3-0.062,3-4V10H28z M4,30c-2,0-2-2-2-2V8h24v20c0,0.921,0.284,1.559,0.676,2H4z"/>
	<rect x="4" y="12" width="20" height="2"/>
	<rect x="15" y="24" width="7" height="2"/>
	<rect x="15" y="20" width="9" height="2"/>
	<rect x="15" y="16" width="9" height="2"/>
	<rect x="4" y="16" width="9" height="10"/>
</g>
</svg>
