<?xml version="1.0" encoding="utf-8"?>
<!-- Generator: Adobe Illustrator 16.0.4, SVG Export Plug-In . SVG Version: 6.00 Build 0)  -->
<!DOCTYPE svg PUBLIC "-//W3C//DTD SVG 1.1//EN" "http://www.w3.org/Graphics/SVG/1.1/DTD/svg11.dtd">
<svg version="1.1" id="Capa_1" xmlns="http://www.w3.org/2000/svg" xmlns:xlink="http://www.w3.org/1999/xlink" x="0px" y="0px"
	 width="32px" height="32px" viewBox="0 0 32 32" enable-background="new 0 0 32 32" xml:space="preserve">
<path d="M17.999,13.995c-0.011-0.495-0.099-2.59-0.877-4.693c-0.452-1.199-1.149-2.492-2.325-3.543
	C13.633,4.705,11.945,3.989,10,4.005c-1.947-0.016-3.633,0.7-4.799,1.754c-1.758,1.592-2.461,3.66-2.835,5.274
	C2.001,12.662,2.001,13.905,2,14l3.999,0.005L6,13.995c0,0-0.001-0.05,0.009-0.227c0.025-0.621,0.218-2.335,0.86-3.642
	C7.588,8.8,8.24,8.054,10,8.005c1.053,0.014,1.616,0.3,2.139,0.744c0.773,0.66,1.336,1.966,1.593,3.165
	c0.134,0.59,0.202,1.139,0.236,1.525c0.021,0.248,0.026,0.441,0.028,0.556H12v16h20v-16H17.999z"/>
</svg>
