<?xml version="1.0" encoding="utf-8"?>
<!-- Generator: Adobe Illustrator 16.0.4, SVG Export Plug-In . SVG Version: 6.00 Build 0)  -->
<!DOCTYPE svg PUBLIC "-//W3C//DTD SVG 1.1//EN" "http://www.w3.org/Graphics/SVG/1.1/DTD/svg11.dtd">
<svg version="1.1" id="Capa_1" xmlns="http://www.w3.org/2000/svg" xmlns:xlink="http://www.w3.org/1999/xlink" x="0px" y="0px"
	 width="32px" height="32px" viewBox="0 0 32 32" enable-background="new 0 0 32 32" xml:space="preserve">
<path d="M20.999,16c-0.005-0.216-0.021-1.304-0.765-2.619c-0.726-1.317-2.289-2.73-4.751-3.323
	c-1.537-0.407-1.975-0.994-2.249-1.428c-0.127-0.222-0.189-0.428-0.216-0.559C13.008,8.022,13.003,7.985,13,7.963
	c0.074-1.256,0.392-1.337,0.893-1.675c0.261-0.132,0.576-0.216,0.811-0.253c0.115-0.019,0.212-0.029,0.265-0.033
	C14.984,6.001,14.996,6,15.004,6c1.288,0.068,1.366,0.387,1.705,0.895c0.134,0.259,0.216,0.576,0.255,0.808
	c0.019,0.118,0.029,0.212,0.033,0.268C17,7.998,17,8.016,17,8.022L17.646,8H21c-0.012-0.167,0.014-1.413-0.712-2.895
	C19.629,3.611,17.707,1.931,15,2.001c-0.167,0.01-1.413-0.015-2.895,0.709C10.612,3.371,8.932,5.292,9,8
	c0.004,0.216,0.021,1.304,0.763,2.617c0.214,0.388,0.51,0.782,0.871,1.163c-0.407,0.426-0.727,0.882-0.924,1.326
	c-0.723,1.482-0.7,2.728-0.71,2.895c0.004,0.214,0.021,1.304,0.764,2.617c0.727,1.315,2.29,2.729,4.75,3.321
	c1.539,0.408,1.977,0.994,2.25,1.428c0.127,0.223,0.188,0.431,0.217,0.56c0.01,0.046,0.016,0.082,0.018,0.105
	c-0.071,1.262-0.391,1.341-0.892,1.681c-0.261,0.133-0.577,0.214-0.809,0.251c-0.118,0.021-0.212,0.03-0.268,0.033
	c-0.021,0.001-0.038,0.002-0.046,0.003c-1.276-0.072-1.355-0.389-1.694-0.895c-0.132-0.26-0.216-0.576-0.253-0.811
	c-0.021-0.115-0.029-0.212-0.033-0.266C13,24.004,13,23.988,13,23.98v-0.004L12.333,24H8.999c0.011,0.165-0.012,1.411,0.71,2.895
	c0.648,1.463,2.505,3.106,5.127,3.106c0.054,0,0.108-0.001,0.164-0.002c0.167-0.011,1.413,0.015,2.893-0.711
	c1.494-0.659,3.176-2.582,3.105-5.288c-0.004-0.218-0.021-1.307-0.762-2.619c-0.215-0.388-0.51-0.781-0.871-1.162
	c0.406-0.427,0.727-0.883,0.922-1.326C21.014,17.411,20.988,16.167,20.999,16z M16.661,17.201c-0.305,0.412-0.432,0.693-1.435,0.779
	c-1.321-0.402-1.734-0.942-1.989-1.348c-0.13-0.223-0.189-0.428-0.218-0.56c-0.01-0.045-0.015-0.081-0.018-0.104
	c0.013-0.181,0.101-0.775,0.339-1.171c0.303-0.411,0.43-0.692,1.429-0.78c1.324,0.402,1.738,0.942,1.995,1.348
	c0.127,0.225,0.189,0.43,0.217,0.562c0.01,0.046,0.017,0.083,0.019,0.105C16.984,16.219,16.898,16.807,16.661,17.201z"/>
</svg>
