<?xml version="1.0" encoding="utf-8"?>
<!-- Generator: Adobe Illustrator 16.0.4, SVG Export Plug-In . SVG Version: 6.00 Build 0)  -->
<!DOCTYPE svg PUBLIC "-//W3C//DTD SVG 1.1//EN" "http://www.w3.org/Graphics/SVG/1.1/DTD/svg11.dtd">
<svg version="1.1" id="Capa_1" xmlns="http://www.w3.org/2000/svg" xmlns:xlink="http://www.w3.org/1999/xlink" x="0px" y="0px"
	 width="32px" height="32px" viewBox="0 0 32 32" enable-background="new 0 0 32 32" xml:space="preserve">
<g>
	<path d="M0,0v32h32V0H0z M24,10v20H8v-4l-4,4l-2-2l6-6V2h16v4l4-4l2,2L24,10z"/>
	<rect x="14.999" y="20" width="2" height="2"/>
	<rect x="11" y="24" width="2" height="2"/>
	<rect x="15" y="24" width="2" height="2"/>
	<rect x="19" y="24" width="2" height="2"/>
	<rect x="19" y="20" width="2" height="2"/>
	<rect x="19" y="16" width="2" height="2"/>
	<polygon points="11,12 18,12 21,9 21,6 11,6 	"/>
	<rect x="11" y="16" width="2" height="2"/>
</g>
</svg>
