<?xml version="1.0" encoding="utf-8"?>
<!-- Generator: Adobe Illustrator 16.0.4, SVG Export Plug-In . SVG Version: 6.00 Build 0)  -->
<!DOCTYPE svg PUBLIC "-//W3C//DTD SVG 1.1//EN" "http://www.w3.org/Graphics/SVG/1.1/DTD/svg11.dtd">
<svg version="1.1" id="Capa_1" xmlns="http://www.w3.org/2000/svg" xmlns:xlink="http://www.w3.org/1999/xlink" x="0px" y="0px"
	 width="32px" height="32px" viewBox="0 0 32 32" enable-background="new 0 0 32 32" xml:space="preserve">
<g>
	<path d="M26,3c-2.748,0-5.499-2.509-9.018-2.163C16.936,0.555,16.745,0,16,0c-1,0-1,1-1,1v24c0,0,0,1,1,1s1-1,1-1V14.836
		C20.51,14.499,23.256,17,26,17c3,0,6-2,6-2V1C32,1,29,3,26,3z"/>
	<path d="M19,22.049v1.034c6.289,0.344,11,1.742,11,3.417c0,1.934-6.27,3.5-14,3.5c-7.731,0-14-1.566-14-3.5
		c0-1.675,4.711-3.074,11-3.417v-1.034c-7.4,0.441-13,2.479-13,4.93C0,29.752,7.164,32,16,32c8.837,0,16-2.248,16-5.021
		C32,24.527,26.4,22.49,19,22.049z"/>
</g>
</svg>
