<?xml version="1.0" encoding="utf-8"?>
<!-- Generator: Adobe Illustrator 16.0.4, SVG Export Plug-In . SVG Version: 6.00 Build 0)  -->
<!DOCTYPE svg PUBLIC "-//W3C//DTD SVG 1.1//EN" "http://www.w3.org/Graphics/SVG/1.1/DTD/svg11.dtd">
<svg version="1.1" id="Capa_1" xmlns="http://www.w3.org/2000/svg" xmlns:xlink="http://www.w3.org/1999/xlink" x="0px" y="0px"
	 width="32px" height="32px" viewBox="0 0 32 32" enable-background="new 0 0 32 32" xml:space="preserve">
<g>
	<path d="M30,17.35V16h-1.35c-0.784-0.635-1.68-1.134-2.65-1.477V2H6v14H2v10h2.466l-2.133,4H17.35c1.545,1.248,3.51,1.999,5.65,2
		c4.971-0.002,8.998-4.029,9-9C31.999,20.857,31.248,18.895,30,17.35z M8,4h16v10.059C23.671,14.022,23.338,14,23,14
		c-2.143,0-4.107,0.751-5.652,2H8V4z M5.667,28l2.132-4h6.26c0.163,1.469,0.676,2.831,1.459,4H5.667z M23,29.883
		c-3.801-0.009-6.876-3.084-6.885-6.883c0.009-3.801,3.084-6.876,6.885-6.884c3.799,0.008,6.874,3.083,6.883,6.884
		C29.874,26.799,26.799,29.874,23,29.883z"/>
	<rect x="22" y="22" width="2" height="6"/>
	<rect x="22" y="18" width="2" height="2"/>
</g>
</svg>
