<?xml version="1.0" encoding="utf-8"?>
<!-- Generator: Adobe Illustrator 16.0.4, SVG Export Plug-In . SVG Version: 6.00 Build 0)  -->
<!DOCTYPE svg PUBLIC "-//W3C//DTD SVG 1.1//EN" "http://www.w3.org/Graphics/SVG/1.1/DTD/svg11.dtd">
<svg version="1.1" id="Capa_1" xmlns="http://www.w3.org/2000/svg" xmlns:xlink="http://www.w3.org/1999/xlink" x="0px" y="0px"
	 width="32px" height="32px" viewBox="0 0 32 32" enable-background="new 0 0 32 32" xml:space="preserve">
<path d="M26.997,20.09v-8.18C29.834,11.435,32,8.973,32,6c0-3.313-2.688-6-6-6c-3.316,0-6,2.687-6,6c0,0.609,0.092,1.196,0.262,1.75
	l-9.424,4.711C9.747,10.972,7.989,10,6,10c-3.314,0-6,2.687-6,6c0,3.312,2.686,6,6,6c1.99,0,3.748-0.973,4.839-2.464l9.423,4.712
	C20.092,24.803,20,25.391,20,26c0,3.312,2.684,6,6,6c3.312,0,6-2.688,6-6C32,23.027,29.834,20.564,26.997,20.09z M24.999,20.091
	c-1.573,0.265-2.935,1.14-3.838,2.372l-9.422-4.712C11.908,17.197,12,16.609,12,16c0-0.61-0.092-1.199-0.262-1.753l9.422-4.71
	c0.902,1.235,2.266,2.109,3.839,2.374V20.091z"/>
</svg>
