<?xml version="1.0" encoding="utf-8"?>
<!-- Generator: Adobe Illustrator 16.0.4, SVG Export Plug-In . SVG Version: 6.00 Build 0)  -->
<!DOCTYPE svg PUBLIC "-//W3C//DTD SVG 1.1//EN" "http://www.w3.org/Graphics/SVG/1.1/DTD/svg11.dtd">
<svg version="1.1" id="Capa_1" xmlns="http://www.w3.org/2000/svg" xmlns:xlink="http://www.w3.org/1999/xlink" x="0px" y="0px"
	 width="32px" height="32px" viewBox="0 0 32 32" enable-background="new 0 0 32 32" xml:space="preserve">
<g>
	<circle cx="16" cy="28" r="4"/>
	<path d="M15.999,1.999C8.267,2,2,8.267,1.999,15.999c0,3.094,1.015,5.964,2.721,8.28L2,27h8v-8l-2.404,2.404
		C6.589,19.846,6.001,17.998,6,15.999c0.01-5.521,4.479-9.989,10-10c5.521,0.01,9.988,4.479,9.999,10
		c0.002,3.483-1.774,6.535-4.479,8.333l2.215,3.333c3.77-2.502,6.265-6.799,6.265-11.666C29.997,8.267,23.73,2,15.999,1.999z"/>
</g>
</svg>
