<?xml version="1.0" encoding="utf-8"?>
<!-- Generator: Adobe Illustrator 16.0.4, SVG Export Plug-In . SVG Version: 6.00 Build 0)  -->
<!DOCTYPE svg PUBLIC "-//W3C//DTD SVG 1.1//EN" "http://www.w3.org/Graphics/SVG/1.1/DTD/svg11.dtd">
<svg version="1.1" id="Capa_1" xmlns="http://www.w3.org/2000/svg" xmlns:xlink="http://www.w3.org/1999/xlink" x="0px" y="0px"
	 width="32px" height="32px" viewBox="0 0 32 32" enable-background="new 0 0 32 32" xml:space="preserve">
<path d="M28,18.07V2c0,0,0-1-1-1c-0.717,0-0.917,0.51-0.975,0.801C22.816,1.341,21.738,3,19,3c-3,0-5-1.013-5-1.013v7.821
	c0,0,2,1.191,5,1.191c2.73,0,3.812-1.65,7-1.193v8.262c-1.723,0.225-3,1-3,1.931c0,0.164,0.051,0.319,0.125,0.474l-11.424,4.568
	C10.458,24.396,8.812,24,7,24c-3.867,0-7,1.791-7,4s3.133,4,7,4s7-1.791,7-4c0-0.536-0.188-1.047-0.522-1.514l11.752-4.701
	C25.766,21.918,26.361,22,27,22c2.21,0,4-0.896,4-2C31,19.068,29.723,18.294,28,18.07z"/>
</svg>
