<?xml version="1.0" encoding="utf-8"?>
<!-- Generator: Adobe Illustrator 17.0.0, SVG Export Plug-In . SVG Version: 6.00 Build 0)  -->
<!DOCTYPE svg PUBLIC "-//W3C//DTD SVG 1.1//EN" "http://www.w3.org/Graphics/SVG/1.1/DTD/svg11.dtd">
<svg version="1.1" id="Capa_1" xmlns="http://www.w3.org/2000/svg" xmlns:xlink="http://www.w3.org/1999/xlink" x="0px" y="0px"
	 width="32px" height="32px" viewBox="0 0 32 32" enable-background="new 0 0 32 32" xml:space="preserve">
<path d="M16,0.5C7.454,0.5,0.5,7.454,0.5,16S7.454,31.5,16,31.5S31.5,24.546,31.5,16S24.546,0.5,16,0.5z M29.562,16
	c0,6.021-3.946,11.13-9.385,12.896l-1.271-1.271h-5.812l-1.272,1.271C6.383,27.13,2.438,22.021,2.438,16
	c0-0.787,0.081-1.553,0.211-2.303l2.695-0.604l1.938-3.875L6.365,6.469c2.46-2.487,5.87-4.032,9.635-4.032s7.176,1.545,9.635,4.032
	l-0.916,2.749l1.938,3.875l2.695,0.604C29.481,14.447,29.562,15.213,29.562,16z M13.094,12.125l-1.938-4.844L16,4.384l4.844,2.898
	l-1.938,4.844H13.094z M25.688,16.969l0.969,4.844l-4.844,2.906l-3.875-3.875L20.844,16L25.688,16.969z M11.156,16l2.906,4.844
	l-3.875,3.875l-4.844-2.906l0.969-4.844L11.156,16z"/>
</svg>
