<?xml version="1.0" encoding="utf-8"?>
<!-- Generator: Adobe Illustrator 17.0.0, SVG Export Plug-In . SVG Version: 6.00 Build 0)  -->
<!DOCTYPE svg PUBLIC "-//W3C//DTD SVG 1.1//EN" "http://www.w3.org/Graphics/SVG/1.1/DTD/svg11.dtd">
<svg version="1.1" id="Capa_1" xmlns="http://www.w3.org/2000/svg" xmlns:xlink="http://www.w3.org/1999/xlink" x="0px" y="0px"
	 width="32px" height="32px" viewBox="0 0 32 32" enable-background="new 0 0 32 32" xml:space="preserve">
<path fill="#010101" d="M25.999,20L26,6H7.414l5.295,5.296L16,8.005v7.996h8l-3.292,3.293l6.998,6.999
	c0.286,0.286,0.372,0.717,0.218,1.09C27.768,27.757,27.403,28,27,28H5c-0.268,0-0.519-0.103-0.708-0.292
	C4.103,27.521,4,27.268,4,27.002V12h1.999L6,26h18.583l-5.29-5.291L16,24.002v-7.997H8l3.294-3.294L4.292,5.708
	C4.007,5.421,3.92,4.991,4.077,4.616C4.231,4.244,4.596,4,5.001,4H27c0.265,0,0.519,0.103,0.706,0.292
	C27.896,4.482,28,4.733,28,5.001V20H25.999z"/>
</svg>
