<?xml version="1.0" encoding="utf-8"?>
<!-- Generator: Adobe Illustrator 16.0.4, SVG Export Plug-In . SVG Version: 6.00 Build 0)  -->
<!DOCTYPE svg PUBLIC "-//W3C//DTD SVG 1.1//EN" "http://www.w3.org/Graphics/SVG/1.1/DTD/svg11.dtd">
<svg version="1.1" id="Capa_1" xmlns="http://www.w3.org/2000/svg" xmlns:xlink="http://www.w3.org/1999/xlink" x="0px" y="0px"
	 width="32px" height="32px" viewBox="0 0 32 32" enable-background="new 0 0 32 32" xml:space="preserve">
<path d="M28,12.039c0.016-1.759-1.113-3.247-2.687-3.798C25.746,7.602,26,6.831,26,6c0-2.209-1.791-4-4-4
	c-0.83,0-1.601,0.253-2.239,0.686C19.215,1.126,17.746,0,16,0s-3.215,1.126-3.761,2.686C11.6,2.253,10.83,2,10,2
	C7.791,2,6,3.791,6,6c0,0.83,0.253,1.6,0.686,2.239C5.126,8.785,4,10.254,4,12c0,2.209,1.791,4,4,4c0,2.209,1.791,4,4,4
	c0.732,0,1.41-0.211,2-0.555V32h4V19.444c1.519,0.882,3.487,0.7,4.801-0.589c0.8-0.784,1.196-1.821,1.195-2.858
	C26.19,16,27.979,14.236,28,12.039z"/>
</svg>
