<?xml version="1.0" encoding="utf-8"?>
<!-- Generator: Adobe Illustrator 16.0.4, SVG Export Plug-In . SVG Version: 6.00 Build 0)  -->
<!DOCTYPE svg PUBLIC "-//W3C//DTD SVG 1.1//EN" "http://www.w3.org/Graphics/SVG/1.1/DTD/svg11.dtd">
<svg version="1.1" id="Capa_1" xmlns="http://www.w3.org/2000/svg" xmlns:xlink="http://www.w3.org/1999/xlink" x="0px" y="0px"
	 width="32px" height="32px" viewBox="0 0 32 32" enable-background="new 0 0 32 32" xml:space="preserve">
<path d="M14,14h4V8h4l-6-6l-6,6h4V14z M23,14c-3.121,0-5.869,1.588-7.483,4H2v8h12.523c1.237,3.493,4.559,5.999,8.477,5.999
	c4.971,0,8.999-4.028,8.999-8.999C31.999,18.027,27.971,14,23,14z M8,24H4v-2h4V24z M23,29.999c-3.865-0.008-6.994-3.135-7-6.999
	c0.006-3.865,3.135-6.994,7-7c3.863,0.006,6.991,3.135,6.999,7C29.991,26.864,26.863,29.991,23,29.999z"/>
<path d="M18,23l2-2l2,2l4-4l2,2l-6,6L18,23z"/>
</svg>
