<?xml version="1.0" encoding="utf-8"?>
<!-- Generator: Adobe Illustrator 16.0.4, SVG Export Plug-In . SVG Version: 6.00 Build 0)  -->
<!DOCTYPE svg PUBLIC "-//W3C//DTD SVG 1.1//EN" "http://www.w3.org/Graphics/SVG/1.1/DTD/svg11.dtd">
<svg version="1.1" id="Capa_1" xmlns="http://www.w3.org/2000/svg" xmlns:xlink="http://www.w3.org/1999/xlink" x="0px" y="0px"
	 width="32px" height="32px" viewBox="0 0 32 32" enable-background="new 0 0 32 32" xml:space="preserve">
<g>
	<circle cx="16" cy="4" r="4"/>
	<path d="M24,14.059C24,12.821,24,12,24,12s0-2-2-2c-1,0-12,0-12,0s-2,0-2,2v14c0,2,2,2,2,2v4h12v-0.059
		C22.329,31.979,22.661,32,23,32c4.971-0.002,8.998-4.029,9-9C31.998,18.366,28.499,14.556,24,14.059z M23,29.883
		c-3.801-0.009-6.876-3.084-6.885-6.883c0.009-3.801,3.084-6.876,6.885-6.885c3.799,0.009,6.874,3.084,6.883,6.885
		C29.874,26.799,26.799,29.874,23,29.883z"/>
	<polygon points="24.002,22 24.002,18 22,18 22,22 18,22 18,24 22,24 22,28 24.002,28 24.002,24 28,24 28,22 	"/>
</g>
</svg>
