<?xml version="1.0" encoding="utf-8"?>
<!-- Generator: Adobe Illustrator 16.0.4, SVG Export Plug-In . SVG Version: 6.00 Build 0)  -->
<!DOCTYPE svg PUBLIC "-//W3C//DTD SVG 1.1//EN" "http://www.w3.org/Graphics/SVG/1.1/DTD/svg11.dtd">
<svg version="1.1" id="Capa_1" xmlns="http://www.w3.org/2000/svg" xmlns:xlink="http://www.w3.org/1999/xlink" x="0px" y="0px"
	 width="32px" height="32px" viewBox="0 0 32 32" enable-background="new 0 0 32 32" xml:space="preserve">
<g>
	<path d="M23,14c-0.025,0-0.049,0.003-0.074,0.004C23.607,12.826,24,11.459,24,10c0-4.418-3.582-8-8-8s-8,3.582-8,8
		c0,4.26,3.332,7.732,7.531,7.977C15.112,18.6,14.778,19.281,14.523,20H4c-4,0-4,4-4,4v8h32v-8c0,0,0-0.793,0-1
		C31.998,18.027,27.971,14,23,14z M23,29.883c-3.801-0.009-6.876-3.084-6.885-6.883c0.009-3.801,3.084-6.876,6.885-6.884
		c3.799,0.008,6.874,3.083,6.883,6.884C29.874,26.799,26.799,29.874,23,29.883z"/>
	<rect x="22" y="22" width="2" height="6"/>
	<rect x="22" y="18" width="2" height="2"/>
</g>
</svg>
