<?xml version="1.0" encoding="utf-8"?>
<!-- Generator: Adobe Illustrator 16.0.4, SVG Export Plug-In . SVG Version: 6.00 Build 0)  -->
<!DOCTYPE svg PUBLIC "-//W3C//DTD SVG 1.1//EN" "http://www.w3.org/Graphics/SVG/1.1/DTD/svg11.dtd">
<svg version="1.1" id="Capa_1" xmlns="http://www.w3.org/2000/svg" xmlns:xlink="http://www.w3.org/1999/xlink" x="0px" y="0px"
	 width="32px" height="32px" viewBox="0 0 32 32" enable-background="new 0 0 32 32" xml:space="preserve">
<g>
	<circle cx="16" cy="3" r="3"/>
	<path d="M23,14c-0.339,0-0.671,0.022-1,0.059C22,11.97,22,10,22,10s0-2-2-2c-0.57,0-8,0-8,0s-2,0-2,2v8c0,2.285,2,2,2,2v12h8
		v-0.523C20.939,31.809,21.945,32,23,32c4.971-0.002,8.998-4.029,9-9C31.998,18.027,27.971,14,23,14z M23,29.883
		c-3.801-0.009-6.876-3.084-6.885-6.883c0.009-3.801,3.084-6.876,6.885-6.885c3.799,0.009,6.874,3.084,6.883,6.885
		C29.874,26.799,26.799,29.874,23,29.883z"/>
	<rect x="18" y="22" width="10" height="2"/>
</g>
</svg>
