<?xml version="1.0" encoding="utf-8"?>
<!-- Generator: Adobe Illustrator 16.0.4, SVG Export Plug-In . SVG Version: 6.00 Build 0)  -->
<!DOCTYPE svg PUBLIC "-//W3C//DTD SVG 1.1//EN" "http://www.w3.org/Graphics/SVG/1.1/DTD/svg11.dtd">
<svg version="1.1" id="Capa_1" xmlns="http://www.w3.org/2000/svg" xmlns:xlink="http://www.w3.org/1999/xlink" x="0px" y="0px"
	 width="32px" height="32px" viewBox="0 0 32 32" enable-background="new 0 0 32 32" xml:space="preserve">
<g>
	<path d="M19.085,15.085c0.622-1.229,0.979-2.614,0.981-4.086c-0.002-5.008-4.059-9.066-9.067-9.066
		c-5.008,0-9.066,4.058-9.066,9.066c0,5.01,4.058,9.065,9.066,9.067c1.472-0.002,2.857-0.359,4.086-0.981L26,30l4-4L19.085,15.085z
		 M10.999,17.932c-3.83-0.006-6.925-3.101-6.933-6.933c0.008-3.83,3.104-6.925,6.933-6.933c3.832,0.008,6.927,3.104,6.933,6.933
		C17.926,14.831,14.831,17.926,10.999,17.932z"/>
	<rect x="6" y="10" width="10" height="2"/>
</g>
</svg>
