<?xml version="1.0" encoding="UTF-8"?>
<svg xmlns:xlink="http://www.w3.org/1999/xlink" xmlns="http://www.w3.org/2000/svg" contentScriptType="text/ecmascript" zoomAndPan="magnify" contentStyleType="text/css" preserveAspectRatio="xMidYMid meet" version="1.0">

<g id="chromosome11" title="Chromosome 11">
<path style="fill:#afb1b4;fill-opacity:1;fill-rule:nonzero;stroke:none" id="11q12.1" d="m 38.794875,178.67950000000002 11.3847625,0.0 0.0,-4.986325000000001 -11.3847625,-0.0 0.0,4.986325000000001 z "/>
<path style="fill:none;stroke:#797677;stroke-width:0.1;stroke-linecap:butt;stroke-linejoin:miter;stroke-miterlimit:4;stroke-opacity:1;stroke-dasharray:none" id="11q12.1-o" d="m 38.794875,178.67950000000002 11.3847625,0.0 0.0,-4.986325000000001 -11.3847625,-0.0 0.0,4.986325000000001 z "/>
<path style="fill:#afb1b4;fill-opacity:1;fill-rule:nonzero;stroke:none" id="11p11.12" d="m 38.794875,166.4425 11.3847625,0.0 0.0,-4.984375 -11.3847625,-0.0 0.0,4.984375 z "/>
<path style="fill:none;stroke:#797677;stroke-width:0.1;stroke-linecap:butt;stroke-linejoin:miter;stroke-miterlimit:4;stroke-opacity:1;stroke-dasharray:none" id="11p11.12-o" d="m 38.794875,166.4425 11.3847625,0.0 0.0,-4.984375 -11.3847625,-0.0 0.0,4.984375 z "/>
<path style="fill:#afb1b4;fill-opacity:1;fill-rule:nonzero;stroke:none" id="11p14.1" d="m 38.794875,141.29000000000002 11.3847625,0.0 0.0,-5.2109375 -11.3847625,-0.0 0.0,5.2109375 z "/>
<path style="fill:none;stroke:#797677;stroke-width:0.1;stroke-linecap:butt;stroke-linejoin:miter;stroke-miterlimit:4;stroke-opacity:1;stroke-dasharray:none" id="11p14.1-o" d="m 38.794875,141.29000000000002 11.3847625,0.0 0.0,-5.2109375 -11.3847625,-0.0 0.0,5.2109375 z "/>
<path style="fill:#797677;fill-opacity:1;fill-rule:nonzero;stroke:none" id="11p14.3" d="m 38.794875,135.17125 11.3847625,0.0 0.0,-6.117187500000001 -11.3847625,-0.0 0.0,6.117187500000001 z "/>
<path style="fill:#797677;fill-opacity:1;fill-rule:nonzero;stroke:none" id="11p12" d="m 38.794875,154.88625000000002 11.3847625,0.0 0.0,-5.66455 -11.3847625,-0.0 0.0,5.66455 z "/>
<path style="fill:#f1f2f1;fill-opacity:1;fill-rule:nonzero;stroke:none" id="11q12.3" d="m 38.794875,185.025125 11.3847625,0.0 0.0,-3.1733375 -11.3847625,-0.0 0.0,3.1733375 z "/>
<path style="fill:none;stroke:#797677;stroke-width:0.1;stroke-linecap:butt;stroke-linejoin:miter;stroke-miterlimit:4;stroke-opacity:1;stroke-dasharray:none" id="11q12.3-o" d="m 38.794875,185.025125 11.3847625,0.0 0.0,-3.1733375 -11.3847625,-0.0 0.0,3.1733375 z "/>
<path style="fill:#f1f2f1;fill-opacity:1;fill-rule:nonzero;stroke:none" id="11q13.2" d="m 38.794875,196.580875 11.3847625,0.0 0.0,-3.6254875 -11.3847625,-0.0 0.0,3.6254875 z "/>
<path style="fill:none;stroke:#797677;stroke-width:0.1;stroke-linecap:butt;stroke-linejoin:miter;stroke-miterlimit:4;stroke-opacity:1;stroke-dasharray:none" id="11q13.2-o" d="m 38.794875,196.580875 11.3847625,0.0 0.0,-3.6254875 -11.3847625,-0.0 0.0,3.6254875 z "/>
<path style="fill:#797677;fill-opacity:1;fill-rule:nonzero;stroke:none" id="11q14.1" d="m 38.794875,218.33425 11.3847625,0.0 0.0,-5.891112500000001 -11.3847625,-0.0 0.0,5.891112500000001 z "/>
<path style="fill:#797677;fill-opacity:1;fill-rule:nonzero;stroke:none" id="11q14.3" d="m 38.794875,226.04125000000002 11.3847625,0.0 0.0,-5.439937500000001 -11.3847625,-0.0 0.0,5.439937500000001 z "/>
<path style="fill:#797677;fill-opacity:1;fill-rule:nonzero;stroke:none" id="11q22.1" d="m 38.794875,236.46362500000004 11.3847625,0.0 0.0,-5.438475 -11.3847625,-0.0 0.0,5.438475 z "/>
<path style="fill:#797677;fill-opacity:1;fill-rule:nonzero;stroke:none" id="11q22.3" d="m 38.794875,245.075 11.3847625,0.0 0.0,-5.892575 -11.3847625,-0.0 0.0,5.892575 z "/>
<path style="fill:#d6d6d7;fill-opacity:1;fill-rule:nonzero;stroke:none" id="11p15.4" d="m 38.794875,111.605 11.3847625,0.0 0.0,-5.212400000000001 -11.3847625,-0.0 0.0,5.212400000000001 z "/>
<path style="fill:none;stroke:#797677;stroke-width:0.1;stroke-linecap:butt;stroke-linejoin:miter;stroke-miterlimit:4;stroke-opacity:1;stroke-dasharray:none" id="11p15.4-o" d="m 38.794875,111.605 11.3847625,0.0 0.0,-5.212400000000001 -11.3847625,-0.0 0.0,5.212400000000001 z "/>
<path style="fill:#d6d6d7;fill-opacity:1;fill-rule:nonzero;stroke:none" id="11p15.2" d="m 38.794875,122.25499999999998 11.3847625,0.0 0.0,-4.5307625 -11.3847625,-0.0 0.0,4.5307625 z "/>
<path style="fill:none;stroke:#797677;stroke-width:0.1;stroke-linecap:butt;stroke-linejoin:miter;stroke-miterlimit:4;stroke-opacity:1;stroke-dasharray:none" id="11p15.2-o" d="m 38.794875,122.25499999999998 11.3847625,0.0 0.0,-4.5307625 -11.3847625,-0.0 0.0,4.5307625 z "/>
<path style="fill:#d6d6d7;fill-opacity:1;fill-rule:nonzero;stroke:none" id="11q13.4" d="m 38.794875,207.91087500000003 11.3847625,0.0 0.0,-4.0786125 -11.3847625,-0.0 0.0,4.0786125 z "/>
<path style="fill:none;stroke:#797677;stroke-width:0.1;stroke-linecap:butt;stroke-linejoin:miter;stroke-miterlimit:4;stroke-opacity:1;stroke-dasharray:none" id="11q13.4-o" d="m 38.794875,207.91087500000003 11.3847625,0.0 0.0,-4.0786125 -11.3847625,-0.0 0.0,4.0786125 z "/>
<path style="fill:#d6d6d7;fill-opacity:1;fill-rule:nonzero;stroke:none" id="11q23.2" d="m 38.794875,253.68487500000003 11.3847625,0.0 0.0,-4.07715 -11.3847625,-0.0 0.0,4.07715 z "/>
<path style="fill:none;stroke:#797677;stroke-width:0.1;stroke-linecap:butt;stroke-linejoin:miter;stroke-miterlimit:4;stroke-opacity:1;stroke-dasharray:none" id="11q23.2-o" d="m 38.794875,253.68487500000003 11.3847625,0.0 0.0,-4.07715 -11.3847625,-0.0 0.0,4.07715 z "/>
<path style="fill:#d6d6d7;fill-opacity:1;fill-rule:nonzero;stroke:none" id="11q24.1" d="m 38.794875,268.18487500000003 11.3847625,0.0 0.0,-3.6225625 -11.3847625,-0.0 0.0,3.6225625 z "/>
<path style="fill:none;stroke:#797677;stroke-width:0.1;stroke-linecap:butt;stroke-linejoin:miter;stroke-miterlimit:4;stroke-opacity:1;stroke-dasharray:none" id="11q24.1-o" d="m 38.794875,268.18487500000003 11.3847625,0.0 0.0,-3.6225625 -11.3847625,-0.0 0.0,3.6225625 z "/>
<path style="fill:#d6d6d7;fill-opacity:1;fill-rule:nonzero;stroke:none" id="11q24.3" d="m 38.794875,276.798625 11.3847625,0.0 0.0,-4.080075 -11.3847625,-0.0 0.0,4.080075 z "/>
<path style="fill:none;stroke:#797677;stroke-width:0.1;stroke-linecap:butt;stroke-linejoin:miter;stroke-miterlimit:4;stroke-opacity:1;stroke-dasharray:none" id="11q24.3-o" d="m 38.794875,276.798625 11.3847625,0.0 0.0,-4.080075 -11.3847625,-0.0 0.0,4.080075 z "/>
<path style="fill:#fffafa;stroke:#797677;stroke-width:0.1;stroke-linecap:butt;stroke-linejoin:miter;stroke-miterlimit:4;stroke-opacity:1;stroke-dasharray:none" id="11p14.2" d="m 38.794875,136.07906250000002 11.3847625,0.0 0,-0.9078125000000341 -11.3847625,-0.0 0,0.9078125000000341 z "/>
<path style="fill:#fffafa;stroke:#797677;stroke-width:0.1;stroke-linecap:butt;stroke-linejoin:miter;stroke-miterlimit:4;stroke-opacity:1;stroke-dasharray:none" id="11q12.2" d="m 38.794875,181.8517875 11.3847625,0.0 0,-3.1722874999999817 -11.3847625,-0.0 0,3.1722874999999817 z "/>
<path style="fill:#fffafa;stroke:#797677;stroke-width:0.1;stroke-linecap:butt;stroke-linejoin:miter;stroke-miterlimit:4;stroke-opacity:1;stroke-dasharray:none" id="11q24.2" d="m 38.794875,272.71855 11.3847625,0.0 0,-4.53367499999996 -11.3847625,-0.0 0,4.53367499999996 z "/>
<path style="fill:#fffafa;stroke:#797677;stroke-width:0.1;stroke-linecap:butt;stroke-linejoin:miter;stroke-miterlimit:4;stroke-opacity:1;stroke-dasharray:none" id="11q23.1" d="m 38.794875,249.60772500000004 11.3847625,0.0 0,-4.532725000000056 -11.3847625,-0.0 0,4.532725000000056 z "/>
<path style="fill:#fffafa;stroke:#797677;stroke-width:0.1;stroke-linecap:butt;stroke-linejoin:miter;stroke-miterlimit:4;stroke-opacity:1;stroke-dasharray:none" id="11p15.1" d="m 38.794875,129.0540625 11.3847625,0.0 0,-6.799062500000005 -11.3847625,-0.0 0,6.799062500000005 z "/>
<path style="fill:#fffafa;stroke:#797677;stroke-width:0.1;stroke-linecap:butt;stroke-linejoin:miter;stroke-miterlimit:4;stroke-opacity:1;stroke-dasharray:none" id="11q23.3" d="m 38.794875,264.5623125 11.3847625,0.0 0,-10.877437499999985 -11.3847625,-0.0 0,10.877437499999985 z "/>
<path style="fill:#fffafa;stroke:#797677;stroke-width:0.1;stroke-linecap:butt;stroke-linejoin:miter;stroke-miterlimit:4;stroke-opacity:1;stroke-dasharray:none" id="11q13.5" d="m 38.794875,212.4431375 11.3847625,0.0 0,-4.532262499999973 -11.3847625,-0.0 0,4.532262499999973 z "/>
<path style="fill:#fffafa;stroke:#797677;stroke-width:0.1;stroke-linecap:butt;stroke-linejoin:miter;stroke-miterlimit:4;stroke-opacity:1;stroke-dasharray:none" id="11q21" d="m 38.794875,231.02515000000002 11.3847625,0.0 0,-4.9839000000000055 -11.3847625,-0.0 0,4.9839000000000055 z "/>
<path style="fill:#fffafa;stroke:#797677;stroke-width:0.1;stroke-linecap:butt;stroke-linejoin:miter;stroke-miterlimit:4;stroke-opacity:1;stroke-dasharray:none" id="11q14.2" d="m 38.794875,220.6013125 11.3847625,0.0 0,-2.2670625000000086 -11.3847625,-0.0 0,2.2670625000000086 z "/>
<path style="fill:#fffafa;stroke:#797677;stroke-width:0.1;stroke-linecap:butt;stroke-linejoin:miter;stroke-miterlimit:4;stroke-opacity:1;stroke-dasharray:none" id="11p11.2" d="m 38.794875,161.458125 11.3847625,0.0 0,-6.571874999999977 -11.3847625,-0.0 0,6.571874999999977 z "/>
<path style="fill:#fffafa;stroke:#797677;stroke-width:0.1;stroke-linecap:butt;stroke-linejoin:miter;stroke-miterlimit:4;stroke-opacity:1;stroke-dasharray:none" id="11q13.3" d="m 38.794875,203.83226250000004 11.3847625,0.0 0,-7.25138750000005 -11.3847625,-0.0 0,7.25138750000005 z "/>
<path style="fill:#fffafa;stroke:#797677;stroke-width:0.1;stroke-linecap:butt;stroke-linejoin:miter;stroke-miterlimit:4;stroke-opacity:1;stroke-dasharray:none" id="11q25" d="m 38.794875,276.798625 0.0,4.080075 c 0.0,1.4165000000000003 2.5453750000000004,2.5665 5.681125,2.5665 3.1397500000000003,0.0 5.682125,-1.15 5.682125,-2.5665 l 0.0,-4.080075 -11.3847625,-0.0 z"/>
<path style="fill:#fffafa;stroke:#797677;stroke-width:0.1;stroke-linecap:butt;stroke-linejoin:miter;stroke-miterlimit:4;stroke-opacity:1;stroke-dasharray:none" id="11q13.1" d="m 38.794875,192.9553875 11.3847625,0.0 0,-7.930262499999998 -11.3847625,-0.0 0,7.930262499999998 z "/>
<path style="fill:#fffafa;stroke:#797677;stroke-width:0.1;stroke-linecap:butt;stroke-linejoin:miter;stroke-miterlimit:4;stroke-opacity:1;stroke-dasharray:none" id="11p15.3" d="m 38.794875,117.72423749999999 11.3847625,0.0 0,-6.119237499999983 -11.3847625,-0.0 0,6.119237499999983 z "/>
<path style="fill:#fffafa;stroke:#797677;stroke-width:0.1;stroke-linecap:butt;stroke-linejoin:miter;stroke-miterlimit:4;stroke-opacity:1;stroke-dasharray:none" id="11q22.2" d="m 38.794875,239.182425 11.3847625,0.0 0,-2.718799999999959 -11.3847625,-0.0 0,2.718799999999959 z "/>
<path style="fill:#fffafa;stroke:#797677;stroke-width:0.1;stroke-linecap:butt;stroke-linejoin:miter;stroke-miterlimit:4;stroke-opacity:1;stroke-dasharray:none" id="11p15.5" d="m 38.794875,106.3926 11.3847625,0.0 0.0,-3 c 0.0,-1.415 -2.542375,-2.5625000000000004 -5.682125,-2.5625000000000004 -3.13575,-0.0 -5.681125,1.1475 -5.681125,2.5625000000000004  l 0.0,3 z"/>
<path style="fill:#fffafa;stroke:#797677;stroke-width:0.1;stroke-linecap:butt;stroke-linejoin:miter;stroke-miterlimit:4;stroke-opacity:1;stroke-dasharray:none" id="11p13" d="m 38.794875,149.22170000000003 11.3847625,0.0 0,-7.931700000000006 -11.3847625,-0.0 0,7.931700000000006 z "/>
<path style="fill:#c8d7de;fill-opacity:1;fill-rule:nonzero;stroke:none" id="centromere11-f" d="m 50.16937500000001,173.69462500000003 0.0,-0.33887500000000004 c 0.0,-0.965875 -1.178625,-2.55025 -2.921875,-3.457 1.7432500000000002,-0.9062500000000001 2.921875,-2.49125 2.921875,-3.4562500000000003 l -11.36325,-0.0 c 0.0,0.96875 1.1875,2.55125 2.9395,3.4562500000000003 -1.7520000000000002,0.9067500000000001 -2.9395,2.48775 -2.9395,3.457 l 0.0,0.33887500000000004 11.36325,0.0 "/>
<path style="fill:none;stroke:#797677;stroke-width:0.8;stroke-linecap:butt;stroke-linejoin:miter;stroke-miterlimit:4;stroke-opacity:1;stroke-dasharray:none" id="centromere11-o" d="m 50.16937500000001,173.69462500000003 0.0,-0.33887500000000004 c 0.0,-0.965875 -1.178625,-2.55025 -2.921875,-3.457 1.7432500000000002,-0.9062500000000001 2.921875,-2.49125 2.921875,-3.4562500000000003 l -11.36325,-0.0 c 0.0,0.96875 1.1875,2.55125 2.9395,3.4562500000000003 -1.7520000000000002,0.9067500000000001 -2.9395,2.48775 -2.9395,3.457 l 0.0,0.33887500000000004 11.36325,0.0 z "/>
<path style="fill:none;stroke:#797677;stroke-width:0.8;stroke-linecap:butt;stroke-linejoin:miter;stroke-miterlimit:4;stroke-opacity:1;stroke-dasharray:none" id="outline11" d="m 41.745625,169.89875 c -1.7520000000000002,0.9067500000000001 -2.9395,2.48825 -2.9395,3.4555000000000002 l 0.0,107.06687500000001 c 0.0,1.4165000000000003 2.5453750000000004,2.5665 5.681125,2.5665 3.1397500000000003,0.0 5.682125,-1.15 5.682125,-2.5665 l 0.0,-107.06687500000001 c 0.0,-0.964875 -1.178625,-2.54875 -2.921875,-3.4555000000000002 1.7432500000000002,-0.9062500000000001 2.921875,-2.49125 2.921875,-3.455 l 0.0,-62.99625 c 0.0,-1.415 -2.542375,-2.5625000000000004 -5.682125,-2.5625000000000004 -3.13575,-0.0 -5.681125,1.1475 -5.681125,2.5625000000000004 l 0.0,62.99625 c 0.0,0.9662500000000002 1.1875,2.55 2.9395,3.455 z "/>
<path style="fill:none;stroke:#231f20;stroke-width:0.8;stroke-linecap:butt;stroke-linejoin:miter;stroke-miterlimit:4;stroke-opacity:1;stroke-dasharray:none;display:none" id="centre11" d="M 41.350125000000006,169.935 0.0,169.935 "/>
<text>
<tspan x="39.1235 43.460900249999995" y="291.639925" id="label11" style="font-size:7.19543791px;font-variant:normal;font-weight:normal;writing-mode:lr-tb;fill:#797677;fill-opacity:1;fill-rule:nonzero;stroke:none;font-family:Helvetica;-inkscape-font-specification:Helvetica">11</tspan>
</text>
</g>
</svg>
