<?xml version="1.0" encoding="UTF-8"?>
<svg xmlns:xlink="http://www.w3.org/1999/xlink" xmlns="http://www.w3.org/2000/svg" contentScriptType="text/ecmascript" zoomAndPan="magnify" contentStyleType="text/css" preserveAspectRatio="xMidYMid meet" version="1.0">

<g id="chromosome18" title="Chromosome 18">
<path style="fill:#797677;fill-opacity:1;fill-rule:nonzero;stroke:none" id="18q12.1" d="m 38.79975,101.051625 11.3798875,0.0 0.0,-7.985837500000001 -11.3798875,-0.0 0.0,7.985837500000001 z "/>
<path style="fill:#afb1b4;fill-opacity:1;fill-rule:nonzero;stroke:none" id="18q12.3" d="m 38.79975,111.27874999999999 11.3798875,0.0 0.0,-6.428225000000001 -11.3798875,-0.0 0.0,6.428225000000001 z "/>
<path style="fill:none;stroke:#797677;stroke-width:0.1;stroke-linecap:butt;stroke-linejoin:miter;stroke-miterlimit:4;stroke-opacity:1;stroke-dasharray:none" id="18q12.3-o" d="m 38.79975,111.27874999999999 11.3798875,0.0 0.0,-6.428225000000001 -11.3798875,-0.0 0.0,6.428225000000001 z "/>
<path style="fill:#afb1b4;fill-opacity:1;fill-rule:nonzero;stroke:none" id="18q21.2" d="m 38.79975,123.7225 11.3798875,0.0 0.0,-4.824225 -11.3798875,-0.0 0.0,4.824225 z "/>
<path style="fill:none;stroke:#797677;stroke-width:0.1;stroke-linecap:butt;stroke-linejoin:miter;stroke-miterlimit:4;stroke-opacity:1;stroke-dasharray:none" id="18q21.2-o" d="m 38.79975,123.7225 11.3798875,0.0 0.0,-4.824225 -11.3798875,-0.0 0.0,4.824225 z "/>
<path style="fill:#d6d6d7;fill-opacity:1;fill-rule:nonzero;stroke:none" id="18p11.31" d="m 38.79975,65.19474999999997 11.3798875,0.0 0.0,-5.212400000000001 -11.3798875,-0.0 0.0,5.212400000000001 z "/>
<path style="fill:none;stroke:#797677;stroke-width:0.1;stroke-linecap:butt;stroke-linejoin:miter;stroke-miterlimit:4;stroke-opacity:1;stroke-dasharray:none" id="18p11.31-o" d="m 38.79975,65.19474999999997 11.3798875,0.0 0.0,-5.212400000000001 -11.3798875,-0.0 0.0,5.212400000000001 z "/>
<path style="fill:#d6d6d7;fill-opacity:1;fill-rule:nonzero;stroke:none" id="18q21.32" d="m 38.79975,128.90812499999998 11.3798875,0.0 0.0,-2.7587875 -11.3798875,-0.0 0.0,2.7587875 z "/>
<path style="fill:none;stroke:#797677;stroke-width:0.1;stroke-linecap:butt;stroke-linejoin:miter;stroke-miterlimit:4;stroke-opacity:1;stroke-dasharray:none" id="18q21.32-o" d="m 38.79975,128.90812499999998 11.3798875,0.0 0.0,-2.7587875 -11.3798875,-0.0 0.0,2.7587875 z "/>
<path style="fill:#797677;fill-opacity:1;fill-rule:nonzero;stroke:none" id="18q22.1" d="m 38.79975,137.11362499999998 11.3798875,0.0 0.0,-6.4331000000000005 -11.3798875,-0.0 0.0,6.4331000000000005 z "/>
<path style="fill:#f1f2f1;fill-opacity:1;fill-rule:nonzero;stroke:none" id="18p11.22" d="m 38.79975,70.27287499999997 11.3798875,0.0 0.0,-3.03955 -11.3798875,-0.0 0.0,3.03955 z "/>
<path style="fill:none;stroke:#797677;stroke-width:0.1;stroke-linecap:butt;stroke-linejoin:miter;stroke-miterlimit:4;stroke-opacity:1;stroke-dasharray:none" id="18p11.22-o" d="m 38.79975,70.27287499999997 11.3798875,0.0 0.0,-3.03955 -11.3798875,-0.0 0.0,3.03955 z "/>
<path style="fill:#f1f2f1;fill-opacity:1;fill-rule:nonzero;stroke:none" id="18q22.3" d="m 38.79975,143.8275 11.3798875,0.0 0.0,-4.082025 -11.3798875,-0.0 0.0,4.082025 z "/>
<path style="fill:none;stroke:#797677;stroke-width:0.1;stroke-linecap:butt;stroke-linejoin:miter;stroke-miterlimit:4;stroke-opacity:1;stroke-dasharray:none" id="18q22.3-o" d="m 38.79975,143.8275 11.3798875,0.0 0.0,-4.082025 -11.3798875,-0.0 0.0,4.082025 z "/>
<path style="fill:#fffafa;stroke:#797677;stroke-width:0.1;stroke-linecap:butt;stroke-linejoin:miter;stroke-miterlimit:4;stroke-opacity:1;stroke-dasharray:none" id="18p11.21" d="m 38.79975,77.204 11.3798875,0.0 0,-6.931125000000023 -11.3798875,-0.0 0,6.931125000000023 z "/>
<path style="fill:#fffafa;stroke:#797677;stroke-width:0.1;stroke-linecap:butt;stroke-linejoin:miter;stroke-miterlimit:4;stroke-opacity:1;stroke-dasharray:none" id="18q11.2" d="m 38.79975,93.0657875 11.3798875,0.0 0,-5.666537500000004 -11.3798875,-0.0 0,5.666537500000004 z "/>
<path style="fill:#fffafa;stroke:#797677;stroke-width:0.1;stroke-linecap:butt;stroke-linejoin:miter;stroke-miterlimit:4;stroke-opacity:1;stroke-dasharray:none" id="18q21.1" d="m 38.79975,118.898275 11.3798875,0.0 0,-7.61952500000001 -11.3798875,-0.0 0,7.61952500000001 z "/>
<path style="fill:#fffafa;stroke:#797677;stroke-width:0.1;stroke-linecap:butt;stroke-linejoin:miter;stroke-miterlimit:4;stroke-opacity:1;stroke-dasharray:none" id="18q22.2" d="m 38.79975,139.745475 11.3798875,0.0 0,-2.6318500000000142 -11.3798875,-0.0 0,2.6318500000000142 z "/>
<path style="fill:#fffafa;stroke:#797677;stroke-width:0.1;stroke-linecap:butt;stroke-linejoin:miter;stroke-miterlimit:4;stroke-opacity:1;stroke-dasharray:none" id="18p11.23" d="m 38.79975,67.23332499999997 11.3798875,0.0 0,-2.0385749999999945 -11.3798875,-0.0 0,2.0385749999999945 z "/>
<path style="fill:#fffafa;stroke:#797677;stroke-width:0.1;stroke-linecap:butt;stroke-linejoin:miter;stroke-miterlimit:4;stroke-opacity:1;stroke-dasharray:none" id="18q23" d="m 38.79975,143.8275 0.0,2 c 0.0,1.4135 2.543875,2.5635000000000003 5.683625,2.5635000000000003 3.136625,0.0 5.678125,-1.15 5.678125,-2.5635000000000003 l 0.0,-2 -11.3798875,-0.0 z"/>
<path style="fill:#fffafa;stroke:#797677;stroke-width:0.1;stroke-linecap:butt;stroke-linejoin:miter;stroke-miterlimit:4;stroke-opacity:1;stroke-dasharray:none" id="18q21.31" d="m 38.79975,126.14933749999999 11.3798875,0.0 0,-2.4268374999999907 -11.3798875,-0.0 0,2.4268374999999907 z "/>
<path style="fill:#fffafa;stroke:#797677;stroke-width:0.1;stroke-linecap:butt;stroke-linejoin:miter;stroke-miterlimit:4;stroke-opacity:1;stroke-dasharray:none" id="18q12.2" d="m 38.79975,104.85052499999999 11.3798875,0.0 0,-3.798899999999989 -11.3798875,-0.0 0,3.798899999999989 z "/>
<path style="fill:#fffafa;stroke:#797677;stroke-width:0.1;stroke-linecap:butt;stroke-linejoin:miter;stroke-miterlimit:4;stroke-opacity:1;stroke-dasharray:none" id="18q21.33" d="m 38.79975,130.680525 11.3798875,0.0 0,-1.7724000000000046 -11.3798875,-0.0 0,1.7724000000000046 z "/>
<path style="fill:#fffafa;stroke:#797677;stroke-width:0.1;stroke-linecap:butt;stroke-linejoin:miter;stroke-miterlimit:4;stroke-opacity:1;stroke-dasharray:none" id="18p11.32" d="m 38.79975,59.98235 11.3798875,0.0 0.0,-1  c 0.0,-1.416 -2.5415000000000005,-2.561125 -5.678125,-2.561125 -3.1397500000000003,-0.0 -5.683625,1.145125 -5.683625,2.561125 l 0.0,1 z"/>
<path style="fill:#c8d7de;fill-opacity:1;fill-rule:nonzero;stroke:none" id="centromere18-f" d="m 50.16937500000001,87.39925 0.0,-1.92375 c 0.0,-0.9643750000000001 -1.17675,-2.548875 -2.920875,-3.4571250000000004 1.744125,-0.9057500000000002 2.920875,-2.490125 2.920875,-3.4545000000000003 l 0.0,-1.3598750000000002 -11.36325,-0.0 0.0,1.3598750000000002 c 0.0,0.9667500000000001 1.1875,2.55125 2.942875,3.4545000000000003 -1.7553750000000001,0.905875 -2.942875,2.49025 -2.942875,3.4571250000000004 l 0.0,1.92375 11.36325,0.0 "/>
<path style="fill:none;stroke:#797677;stroke-width:0.8;stroke-linecap:butt;stroke-linejoin:miter;stroke-miterlimit:4;stroke-opacity:1;stroke-dasharray:none" id="centromere18-o" d="m 50.16937500000001,87.39925 0.0,-1.92375 c 0.0,-0.9643750000000001 -1.17675,-2.548875 -2.920875,-3.4571250000000004 1.744125,-0.9057500000000002 2.920875,-2.490125 2.920875,-3.4545000000000003 l 0.0,-1.3598750000000002 -11.36325,-0.0 0.0,1.3598750000000002 c 0.0,0.9667500000000001 1.1875,2.55125 2.942875,3.4545000000000003 -1.7553750000000001,0.905875 -2.942875,2.49025 -2.942875,3.4571250000000004 l 0.0,1.92375 11.36325,0.0 z "/>
<path style="fill:none;stroke:#797677;stroke-width:0.8;stroke-linecap:butt;stroke-linejoin:miter;stroke-miterlimit:4;stroke-opacity:1;stroke-dasharray:none" id="outline18" d="m 41.749,82.01837499999999 c -1.7553750000000001,0.905875 -2.941375,2.49025 -2.941375,3.4571250000000004 l 0.0,60.390625 c 0.0,1.4135 2.543875,2.5635000000000003 5.683625,2.5635000000000003 3.136625,0.0 5.678125,-1.15 5.678125,-2.5635000000000003 l 0.0,-60.390625 c 0.0,-0.9643750000000001 -1.17675,-2.548875 -2.919875,-3.4571250000000004 1.743125,-0.9057500000000002 2.919875,-2.490125 2.919875,-3.4545000000000003 l 0.0,-19.48975 c 0.0,-1.416 -2.5415000000000005,-2.561125 -5.678125,-2.561125 -3.1397500000000003,-0.0 -5.683625,1.145125 -5.683625,2.561125 l 0.0,19.48975 c 0.0,0.9667500000000001 1.186,2.55125 2.941375,3.4545000000000003 z "/>
<path style="fill:none;stroke:#231f20;stroke-width:0.8;stroke-linecap:butt;stroke-linejoin:miter;stroke-miterlimit:4;stroke-opacity:1;stroke-dasharray:none;display:none" id="centre18" d="M 41.349125,82.05499999999998 0.0,82.05499999999998 "/>
<text>
<tspan x="38.793 43.7954355" y="157.0819125" id="label18" style="font-size:7.19543791px;font-variant:normal;font-weight:normal;writing-mode:lr-tb;fill:#797677;fill-opacity:1;fill-rule:nonzero;stroke:none;font-family:Helvetica;-inkscape-font-specification:Helvetica">18</tspan>
</text>
</g>
</svg>
