<?xml version="1.0" encoding="UTF-8"?>
<svg xmlns:xlink="http://www.w3.org/1999/xlink" xmlns="http://www.w3.org/2000/svg" contentScriptType="text/ecmascript" zoomAndPan="magnify" contentStyleType="text/css" preserveAspectRatio="xMidYMid meet" version="1.0">

<g id="chromosome4" title="Chromosome 4">
<path style="fill:#797677;fill-opacity:1;fill-rule:nonzero;stroke:none" id="4p15.1" d="m 38.796375,152.9425 11.3833,0.0 0.0,-8.5669 -11.3833,-0.0 0.0,8.5669 z "/>
<path style="fill:#797677;fill-opacity:1;fill-rule:nonzero;stroke:none" id="4q13.1" d="m 38.796375,186.49124999999998 11.3833,0.0 0.0,-6.8994125 -11.3833,-0.0 0.0,6.8994125 z "/>
<path style="fill:#797677;fill-opacity:1;fill-rule:nonzero;stroke:none" id="4q28.3" d="m 38.796375,270.956 11.3833,0.0 0.0,-10.232425000000001 -11.3833,-0.0 0.0,10.232425000000001 z "/>
<path style="fill:#d6d6d7;fill-opacity:1;fill-rule:nonzero;stroke:none" id="4p15.33" d="m 38.796375,131.05374999999995 11.3833,0.0 0.0,-5.47265 -11.3833,-0.0 0.0,5.47265 z "/>
<path style="fill:none;stroke:#797677;stroke-width:0.1;stroke-linecap:butt;stroke-linejoin:miter;stroke-miterlimit:4;stroke-opacity:1;stroke-dasharray:none" id="4p15.33-o" d="m 38.796375,131.05374999999995 11.3833,0.0 0.0,-5.47265 -11.3833,-0.0 0.0,5.47265 z "/>
<path style="fill:#d6d6d7;fill-opacity:1;fill-rule:nonzero;stroke:none" id="4p13" d="m 38.796375,163.8875 11.3833,0.0 0.0,-4.7587875 -11.3833,-0.0 0.0,4.7587875 z "/>
<path style="fill:none;stroke:#797677;stroke-width:0.1;stroke-linecap:butt;stroke-linejoin:miter;stroke-miterlimit:4;stroke-opacity:1;stroke-dasharray:none" id="4p13-o" d="m 38.796375,163.8875 11.3833,0.0 0.0,-4.7587875 -11.3833,-0.0 0.0,4.7587875 z "/>
<path style="fill:#d6d6d7;fill-opacity:1;fill-rule:nonzero;stroke:none" id="4q21.21" d="m 38.796375,201.00375 11.3833,0.0 0.0,-3.330075 -11.3833,-0.0 0.0,3.330075 z "/>
<path style="fill:none;stroke:#797677;stroke-width:0.1;stroke-linecap:butt;stroke-linejoin:miter;stroke-miterlimit:4;stroke-opacity:1;stroke-dasharray:none" id="4q21.21-o" d="m 38.796375,201.00375 11.3833,0.0 0.0,-3.330075 -11.3833,-0.0 0.0,3.330075 z "/>
<path style="fill:#d6d6d7;fill-opacity:1;fill-rule:nonzero;stroke:none" id="4q28.1" d="m 38.796375,257.39649999999995 11.3833,0.0 0.0,-5.476562500000001 -11.3833,-0.0 0.0,5.476562500000001 z "/>
<path style="fill:none;stroke:#797677;stroke-width:0.1;stroke-linecap:butt;stroke-linejoin:miter;stroke-miterlimit:4;stroke-opacity:1;stroke-dasharray:none" id="4q28.1-o" d="m 38.796375,257.39649999999995 11.3833,0.0 0.0,-5.476562500000001 -11.3833,-0.0 0.0,5.476562500000001 z "/>
<path style="fill:#d6d6d7;fill-opacity:1;fill-rule:nonzero;stroke:none" id="4q24" d="m 38.796375,233.83887499999997 11.3833,0.0 0.0,-5.7089875 -11.3833,-0.0 0.0,5.7089875 z "/>
<path style="fill:none;stroke:#797677;stroke-width:0.1;stroke-linecap:butt;stroke-linejoin:miter;stroke-miterlimit:4;stroke-opacity:1;stroke-dasharray:none" id="4q24-o" d="m 38.796375,233.83887499999997 11.3833,0.0 0.0,-5.7089875 -11.3833,-0.0 0.0,5.7089875 z "/>
<path style="fill:#797677;fill-opacity:1;fill-rule:nonzero;stroke:none" id="4q32.1" d="m 38.796375,295.93987500000003 11.3833,0.0 0.0,-6.1875 -11.3833,-0.0 0.0,6.1875 z "/>
<path style="fill:#797677;fill-opacity:1;fill-rule:nonzero;stroke:none" id="4q32.3" d="m 38.796375,304.742625 11.3833,0.0 0.0,-6.1840875 -11.3833,-0.0 0.0,6.1840875 z "/>
<path style="fill:#afb1b4;fill-opacity:1;fill-rule:nonzero;stroke:none" id="4p15.31" d="m 38.796375,140.80749999999998 11.3833,0.0 0.0,-5.471675 -11.3833,-0.0 0.0,5.471675 z "/>
<path style="fill:none;stroke:#797677;stroke-width:0.1;stroke-linecap:butt;stroke-linejoin:miter;stroke-miterlimit:4;stroke-opacity:1;stroke-dasharray:none" id="4p15.31-o" d="m 38.796375,140.80749999999998 11.3833,0.0 0.0,-5.471675 -11.3833,-0.0 0.0,5.471675 z "/>
<path style="fill:#afb1b4;fill-opacity:1;fill-rule:nonzero;stroke:none" id="4q13.3" d="m 38.796375,194.34375 11.3833,0.0 0.0,-5.23535 -11.3833,-0.0 0.0,5.23535 z "/>
<path style="fill:none;stroke:#797677;stroke-width:0.1;stroke-linecap:butt;stroke-linejoin:miter;stroke-miterlimit:4;stroke-opacity:1;stroke-dasharray:none" id="4q13.3-o" d="m 38.796375,194.34375 11.3833,0.0 0.0,-5.23535 -11.3833,-0.0 0.0,5.23535 z "/>
<path style="fill:#afb1b4;fill-opacity:1;fill-rule:nonzero;stroke:none" id="4q22.1" d="m 38.796375,217.66062499999998 11.3833,0.0 0.0,-7.13965 -11.3833,-0.0 0.0,7.13965 z "/>
<path style="fill:none;stroke:#797677;stroke-width:0.1;stroke-linecap:butt;stroke-linejoin:miter;stroke-miterlimit:4;stroke-opacity:1;stroke-dasharray:none" id="4q22.1-o" d="m 38.796375,217.66062499999998 11.3833,0.0 0.0,-7.13965 -11.3833,-0.0 0.0,7.13965 z "/>
<path style="fill:#afb1b4;fill-opacity:1;fill-rule:nonzero;stroke:none" id="4q26" d="m 38.796375,247.40225 11.3833,0.0 0.0,-7.13965 -11.3833,-0.0 0.0,7.13965 z "/>
<path style="fill:none;stroke:#797677;stroke-width:0.1;stroke-linecap:butt;stroke-linejoin:miter;stroke-miterlimit:4;stroke-opacity:1;stroke-dasharray:none" id="4q26-o" d="m 38.796375,247.40225 11.3833,0.0 0.0,-7.13965 -11.3833,-0.0 0.0,7.13965 z "/>
<path style="fill:#afb1b4;fill-opacity:1;fill-rule:nonzero;stroke:none" id="4q22.3" d="m 38.796375,225.27149999999997 11.3833,0.0 0.0,-5.2338875 -11.3833,-0.0 0.0,5.2338875 z "/>
<path style="fill:none;stroke:#797677;stroke-width:0.1;stroke-linecap:butt;stroke-linejoin:miter;stroke-miterlimit:4;stroke-opacity:1;stroke-dasharray:none" id="4q22.3-o" d="m 38.796375,225.27149999999997 11.3833,0.0 0.0,-5.2338875 -11.3833,-0.0 0.0,5.2338875 z "/>
<path style="fill:#afb1b4;fill-opacity:1;fill-rule:nonzero;stroke:none" id="4q34.1" d="m 38.796375,311.6435 11.3833,0.0 0.0,-4.994625 -11.3833,-0.0 0.0,4.994625 z "/>
<path style="fill:none;stroke:#797677;stroke-width:0.1;stroke-linecap:butt;stroke-linejoin:miter;stroke-miterlimit:4;stroke-opacity:1;stroke-dasharray:none" id="4q34.1-o" d="m 38.796375,311.6435 11.3833,0.0 0.0,-4.994625 -11.3833,-0.0 0.0,4.994625 z "/>
<path style="fill:#797677;fill-opacity:1;fill-rule:nonzero;stroke:none" id="4q34.3" d="m 38.796375,317.59124999999995 11.3833,0.0 0.0,-4.7587875 -11.3833,-0.0 0.0,4.7587875 z "/>
<path style="fill:#f1f2f1;fill-opacity:1;fill-rule:nonzero;stroke:none" id="4p16.2" d="m 38.796375,118.06499999999997 11.3833,0.0 0.0,-3.1909125000000005 -11.3833,-0.0 0.0,3.1909125000000005 z "/>
<path style="fill:none;stroke:#797677;stroke-width:0.1;stroke-linecap:butt;stroke-linejoin:miter;stroke-miterlimit:4;stroke-opacity:1;stroke-dasharray:none" id="4p16.2-o" d="m 38.796375,118.06499999999997 11.3833,0.0 0.0,-3.1909125000000005 -11.3833,-0.0 0.0,3.1909125000000005 z "/>
<path style="fill:#f1f2f1;fill-opacity:1;fill-rule:nonzero;stroke:none" id="4q21.23" d="m 38.796375,205.04999999999998 11.3833,0.0 0.0,-2.6167000000000002 -11.3833,-0.0 0.0,2.6167000000000002 z "/>
<path style="fill:none;stroke:#797677;stroke-width:0.1;stroke-linecap:butt;stroke-linejoin:miter;stroke-miterlimit:4;stroke-opacity:1;stroke-dasharray:none" id="4q21.23-o" d="m 38.796375,205.04999999999998 11.3833,0.0 0.0,-2.6167000000000002 -11.3833,-0.0 0.0,2.6167000000000002 z "/>
<path style="fill:#f1f2f1;fill-opacity:1;fill-rule:nonzero;stroke:none" id="4q31.21" d="m 38.796375,280.47362499999997 11.3833,0.0 0.0,-3.33105 -11.3833,-0.0 0.0,3.33105 z "/>
<path style="fill:none;stroke:#797677;stroke-width:0.1;stroke-linecap:butt;stroke-linejoin:miter;stroke-miterlimit:4;stroke-opacity:1;stroke-dasharray:none" id="4q31.21-o" d="m 38.796375,280.47362499999997 11.3833,0.0 0.0,-3.33105 -11.3833,-0.0 0.0,3.33105 z "/>
<path style="fill:#f1f2f1;fill-opacity:1;fill-rule:nonzero;stroke:none" id="4q31.23" d="m 38.796375,285.94475 11.3833,0.0 0.0,-3.3295875 -11.3833,-0.0 0.0,3.3295875 z "/>
<path style="fill:none;stroke:#797677;stroke-width:0.1;stroke-linecap:butt;stroke-linejoin:miter;stroke-miterlimit:4;stroke-opacity:1;stroke-dasharray:none" id="4q31.23-o" d="m 38.796375,285.94475 11.3833,0.0 0.0,-3.3295875 -11.3833,-0.0 0.0,3.3295875 z "/>
<path style="fill:#f1f2f1;fill-opacity:1;fill-rule:nonzero;stroke:none" id="4q35.2" d="m 38.806125,323.67775 0.0,1.2885 c 0.0,1.487375 2.5453750000000004,2.6938750000000002 5.681125,2.6938750000000002 3.13875,0.0 5.682125,-1.2065 5.682125,-2.6938750000000002 l 0.0,-1.2885 -11.36325,-0.0 z"/>
<path style="fill:none;stroke:#797677;stroke-width:0.1;stroke-linecap:butt;stroke-linejoin:miter;stroke-miterlimit:4;stroke-opacity:1;stroke-dasharray:none" id="4q35.2-o" d="m 38.806125,323.67775 0.0,1.2885 c 0.0,1.487375 2.5453750000000004,2.6938750000000002 5.681125,2.6938750000000002 3.13875,0.0 5.682125,-1.2065 5.682125,-2.6938750000000002 l 0.0,-1.2885 -11.36325,-0.0 z "/>
<path style="fill:#fffafa;stroke:#797677;stroke-width:0.1;stroke-linecap:butt;stroke-linejoin:miter;stroke-miterlimit:4;stroke-opacity:1;stroke-dasharray:none" id="4q31.22" d="m 38.796375,282.6151625 11.3833,0.0 0,-2.1415375000000267 -11.3833,-0.0 0,2.1415375000000267 z "/>
<path style="fill:#fffafa;stroke:#797677;stroke-width:0.1;stroke-linecap:butt;stroke-linejoin:miter;stroke-miterlimit:4;stroke-opacity:1;stroke-dasharray:none" id="4q22.2" d="m 38.796375,220.03761249999997 11.3833,0.0 0,-2.3769874999999843 -11.3833,-0.0 0,2.3769874999999843 z "/>
<path style="fill:#fffafa;stroke:#797677;stroke-width:0.1;stroke-linecap:butt;stroke-linejoin:miter;stroke-miterlimit:4;stroke-opacity:1;stroke-dasharray:none" id="4q13.2" d="m 38.796375,189.1084 11.3833,0.0 0,-2.6171500000000094 -11.3833,-0.0 0,2.6171500000000094 z "/>
<path style="fill:#fffafa;stroke:#797677;stroke-width:0.1;stroke-linecap:butt;stroke-linejoin:miter;stroke-miterlimit:4;stroke-opacity:1;stroke-dasharray:none" id="4q35.1" d="m 38.796375,323.67775 11.3833,0.0 0,-6.086500000000058 -11.3833,-0.0 0,6.086500000000058 z "/>
<path style="fill:#fffafa;stroke:#797677;stroke-width:0.1;stroke-linecap:butt;stroke-linejoin:miter;stroke-miterlimit:4;stroke-opacity:1;stroke-dasharray:none" id="4p12" d="m 38.796375,166.26625 11.3833,0.0 0,-2.378750000000025 -11.3833,-0.0 0,2.378750000000025 z "/>
<path style="fill:#fffafa;stroke:#797677;stroke-width:0.1;stroke-linecap:butt;stroke-linejoin:miter;stroke-miterlimit:4;stroke-opacity:1;stroke-dasharray:none" id="4p16.1" d="m 38.796375,125.58109999999995 11.3833,0.0 0,-7.51609999999998 -11.3833,-0.0 0,7.51609999999998 z "/>
<path style="fill:#fffafa;stroke:#797677;stroke-width:0.1;stroke-linecap:butt;stroke-linejoin:miter;stroke-miterlimit:4;stroke-opacity:1;stroke-dasharray:none" id="4p15.2" d="m 38.796375,144.3756 11.3833,0.0 0,-3.5681000000000154 -11.3833,-0.0 0,3.5681000000000154 z "/>
<path style="fill:#fffafa;stroke:#797677;stroke-width:0.1;stroke-linecap:butt;stroke-linejoin:miter;stroke-miterlimit:4;stroke-opacity:1;stroke-dasharray:none" id="4q28.2" d="m 38.796375,260.72357500000004 11.3833,0.0 0,-3.327075000000093 -11.3833,-0.0 0,3.327075000000093 z "/>
<path style="fill:#fffafa;stroke:#797677;stroke-width:0.1;stroke-linecap:butt;stroke-linejoin:miter;stroke-miterlimit:4;stroke-opacity:1;stroke-dasharray:none" id="4q23" d="m 38.796375,228.12988749999997 11.3833,0.0 0,-2.858387499999992 -11.3833,-0.0 0,2.858387499999992 z "/>
<path style="fill:#fffafa;stroke:#797677;stroke-width:0.1;stroke-linecap:butt;stroke-linejoin:miter;stroke-miterlimit:4;stroke-opacity:1;stroke-dasharray:none" id="4p15.32" d="m 38.796375,135.33582499999997 11.3833,0.0 0,-4.28207500000002 -11.3833,-0.0 0,4.28207500000002 z "/>
<path style="fill:#fffafa;stroke:#797677;stroke-width:0.1;stroke-linecap:butt;stroke-linejoin:miter;stroke-miterlimit:4;stroke-opacity:1;stroke-dasharray:none" id="4q21.1" d="m 38.796375,197.673675 11.3833,0.0 0,-3.329925000000003 -11.3833,-0.0 0,3.329925000000003 z "/>
<path style="fill:#fffafa;stroke:#797677;stroke-width:0.1;stroke-linecap:butt;stroke-linejoin:miter;stroke-miterlimit:4;stroke-opacity:1;stroke-dasharray:none" id="4q25" d="m 38.796375,240.26260000000002 11.3833,0.0 0,-6.423725000000047 -11.3833,-0.0 0,6.423725000000047 z "/>
<path style="fill:#fffafa;stroke:#797677;stroke-width:0.1;stroke-linecap:butt;stroke-linejoin:miter;stroke-miterlimit:4;stroke-opacity:1;stroke-dasharray:none" id="4q31.3" d="m 38.796375,289.75237500000003 11.3833,0.0 0,-3.807625 -11.3833,-0.0 0,3.807625 z "/>
<path style="fill:#fffafa;stroke:#797677;stroke-width:0.1;stroke-linecap:butt;stroke-linejoin:miter;stroke-miterlimit:4;stroke-opacity:1;stroke-dasharray:none" id="4q27" d="m 38.796375,251.91993749999995 11.3833,0.0 0,-4.517687499999937 -11.3833,-0.0 0,4.517687499999937 z "/>
<path style="fill:#fffafa;stroke:#797677;stroke-width:0.1;stroke-linecap:butt;stroke-linejoin:miter;stroke-miterlimit:4;stroke-opacity:1;stroke-dasharray:none" id="4q12" d="m 38.796375,179.59183749999997 11.3833,0.0 0,-5.711837499999973 -11.3833,-0.0 0,5.711837499999973 z "/>
<path style="fill:#fffafa;stroke:#797677;stroke-width:0.1;stroke-linecap:butt;stroke-linejoin:miter;stroke-miterlimit:4;stroke-opacity:1;stroke-dasharray:none" id="4p14" d="m 38.796375,159.12871249999998 11.3833,0.0 0,-6.186212499999982 -11.3833,-0.0 0,6.186212499999982 z "/>
<path style="fill:#fffafa;stroke:#797677;stroke-width:0.1;stroke-linecap:butt;stroke-linejoin:miter;stroke-miterlimit:4;stroke-opacity:1;stroke-dasharray:none" id="4q31.1" d="m 38.796375,277.14257499999997 11.3833,0.0 0,-6.186575 -11.3833,-0.0 0,6.186575 z "/>
<path style="fill:#fffafa;stroke:#797677;stroke-width:0.1;stroke-linecap:butt;stroke-linejoin:miter;stroke-miterlimit:4;stroke-opacity:1;stroke-dasharray:none" id="4q21.22" d="m 38.796375,202.43329999999997 11.3833,0.0 0,-1.4295499999999777 -11.3833,-0.0 0,1.4295499999999777 z "/>
<path style="fill:#fffafa;stroke:#797677;stroke-width:0.1;stroke-linecap:butt;stroke-linejoin:miter;stroke-miterlimit:4;stroke-opacity:1;stroke-dasharray:none" id="4q21.3" d="m 38.796375,210.520975 11.3833,0.0 0,-5.47097500000001 -11.3833,-0.0 0,5.47097500000001 z "/>
<path style="fill:#fffafa;stroke:#797677;stroke-width:0.1;stroke-linecap:butt;stroke-linejoin:miter;stroke-miterlimit:4;stroke-opacity:1;stroke-dasharray:none" id="4q34.2" d="m 38.796375,312.83246249999996 11.3833,0.0 0,-1.1889624999999455 -11.3833,-0.0 0,1.1889624999999455 z "/>
<path style="fill:#fffafa;stroke:#797677;stroke-width:0.1;stroke-linecap:butt;stroke-linejoin:miter;stroke-miterlimit:4;stroke-opacity:1;stroke-dasharray:none" id="4q33" d="m 38.796375,306.64887500000003 11.3833,0.0 0,-1.9062500000000568 -11.3833,-0.0 0,1.9062500000000568 z "/>
<path style="fill:#fffafa;stroke:#797677;stroke-width:0.1;stroke-linecap:butt;stroke-linejoin:miter;stroke-miterlimit:4;stroke-opacity:1;stroke-dasharray:none" id="4q32.2" d="m 38.796375,298.5585375 11.3833,0.0 0,-2.6186625 -11.3833,-0.0 0,2.6186625 z "/>
<path style="fill:#fffafa;stroke:#797677;stroke-width:0.1;stroke-linecap:butt;stroke-linejoin:miter;stroke-miterlimit:4;stroke-opacity:1;stroke-dasharray:none" id="4p16.3" d="m 38.796375,114.8740875 11.3833,0.0 0.0,-1.85 c 0.0,-1.4850000000000003 -2.544,-2.68875 -5.681250000000001,-2.68875 -3.13575,-0.0 -5.681125,1.20375 -5.681125,2.68875 l 0.0,1.85 z"/>
<path style="fill:#c8d7de;fill-opacity:1;fill-rule:nonzero;stroke:none" id="centromere4-f" d="m 50.16937500000001,173.88 0.0,-0.35625000000000007 c 0.0,-1.01125 -1.178625,-2.67625 -2.92325,-3.6312500000000005 1.744625,-0.94875 2.92325,-2.6125 2.92325,-3.62625 l 0.0,0.2375 -11.36325,-0.0 0.0,-0.2375 c 0.0,1.015 1.1875,2.6775 2.941,3.62625 -1.7535,0.95375 -2.941,2.615 -2.941,3.6312500000000005 l 0.0,0.35625000000000007 11.36325,0.0 "/>
<path style="fill:none;stroke:#797677;stroke-width:0.8;stroke-linecap:butt;stroke-linejoin:miter;stroke-miterlimit:4;stroke-opacity:1;stroke-dasharray:none" id="centromere4-o" d="m 50.16937500000001,173.88 0.0,-0.35625000000000007 c 0.0,-1.01125 -1.178625,-2.67625 -2.92325,-3.6312500000000005 1.744625,-0.94875 2.92325,-2.6125 2.92325,-3.62625 l 0.0,0.2375 -11.36325,-0.0 0.0,-0.2375 c 0.0,1.015 1.1875,2.6775 2.941,3.62625 -1.7535,0.95375 -2.941,2.615 -2.941,3.6312500000000005 l 0.0,0.35625000000000007 11.36325,0.0 z "/>
<path style="fill:none;stroke:#797677;stroke-width:0.8;stroke-linecap:butt;stroke-linejoin:miter;stroke-miterlimit:4;stroke-opacity:1;stroke-dasharray:none" id="outline4" d="m 41.745625,169.89499999999995 c -1.7530000000000001,0.9512500000000002 -2.9395,2.6125 -2.9395,3.63 l 0.0,151.44125 c 0.0,1.487375 2.5453750000000004,2.6938750000000002 5.681125,2.6938750000000002 3.1372500000000003,0.0 5.681250000000001,-1.2065 5.681250000000001,-2.6938750000000002 l 0.0,-151.44125 c 0.0,-1.01375 -1.17775,-2.6775 -2.921,-3.63 1.7432500000000002,-0.9512500000000002 2.921,-2.615 2.921,-3.6287500000000006 l 0.0,-53.298750000000005 c 0.0,-1.4850000000000003 -2.544,-2.68875 -5.681250000000001,-2.68875 -3.13575,-0.0 -5.681125,1.20375 -5.681125,2.68875 l 0.0,53.298750000000005 c 0.0,1.0162500000000003 1.1865,2.6775 2.9395,3.6287500000000006 z "/>
<path style="fill:none;stroke:#231f20;stroke-width:0.8;stroke-linecap:butt;stroke-linejoin:miter;stroke-miterlimit:4;stroke-opacity:1;stroke-dasharray:none;display:none" id="centre4" d="M 41.349125,169.93499999999997 0.0,169.93499999999997 "/>
<text>
<tspan x="41.293" y="336.3051375" id="label4" style="font-size:7.19543791px;font-variant:normal;font-weight:normal;writing-mode:lr-tb;fill:#797677;fill-opacity:1;fill-rule:nonzero;stroke:none;font-family:Helvetica;-inkscape-font-specification:Helvetica">4</tspan>
</text>
</g>
</svg>
