<?xml version="1.0" encoding="utf-8"?>
<!-- Generator: Adobe Illustrator 16.0.4, SVG Export Plug-In . SVG Version: 6.00 Build 0)  -->
<!DOCTYPE svg PUBLIC "-//W3C//DTD SVG 1.1//EN" "http://www.w3.org/Graphics/SVG/1.1/DTD/svg11.dtd">
<svg version="1.1" id="Capa_1" xmlns="http://www.w3.org/2000/svg" xmlns:xlink="http://www.w3.org/1999/xlink" x="0px" y="0px"
	 width="32px" height="32px" viewBox="0 0 32 32" enable-background="new 0 0 32 32" xml:space="preserve">
<path d="M24,10V8c0,0,0-6-6-6H7.938v28h10.091C24,30,24,24,24,24v-2c0-6-6-6-6-6S24,16,24,10z M16,24h-2v-4h2c0,0,2,0,2,2
	S16,24,16,24z M16,12h-2V8h2c0,0,2,0,2,2S16,12,16,12z"/>
</svg>
