<?xml version="1.0" encoding="utf-8"?>
<!-- Generator: Adobe Illustrator 16.0.4, SVG Export Plug-In . SVG Version: 6.00 Build 0)  -->
<!DOCTYPE svg PUBLIC "-//W3C//DTD SVG 1.1//EN" "http://www.w3.org/Graphics/SVG/1.1/DTD/svg11.dtd">
<svg version="1.1" id="Capa_1" xmlns="http://www.w3.org/2000/svg" xmlns:xlink="http://www.w3.org/1999/xlink" x="0px" y="0px"
	 width="32px" height="32px" viewBox="0 0 32 32" enable-background="new 0 0 32 32" xml:space="preserve">
<g>
	<path d="M0,4v24h15.518c1.614,2.411,4.361,3.999,7.482,4c3.12-0.001,5.867-1.589,7.48-4H32V4H0z M14,23
		c0,1.055,0.19,2.061,0.522,2.999H2V7.081l13.563,10.851C14.578,19.375,14,21.119,14,23z M3.851,6h24.297l-12.15,9.719L3.851,6z
		 M23,29.883c-3.801-0.009-6.876-3.084-6.885-6.883c0.009-3.801,3.084-6.876,6.885-6.884c3.799,0.008,6.874,3.083,6.883,6.884
		C29.874,26.799,26.799,29.874,23,29.883z M29.999,17.348C28.35,15.307,25.829,14,23,14c-0.657,0-1.296,0.075-1.913,0.208
		l8.912-7.127V17.348z"/>
	<polygon points="24,23 24,27 28,23 24,19 	"/>
	<polygon points="20,27 24,23 20,19 	"/>
</g>
</svg>
