<?xml version="1.0" encoding="utf-8"?>
<!-- Generator: Adobe Illustrator 16.0.4, SVG Export Plug-In . SVG Version: 6.00 Build 0)  -->
<!DOCTYPE svg PUBLIC "-//W3C//DTD SVG 1.1//EN" "http://www.w3.org/Graphics/SVG/1.1/DTD/svg11.dtd">
<svg version="1.1" id="Capa_1" xmlns="http://www.w3.org/2000/svg" xmlns:xlink="http://www.w3.org/1999/xlink" x="0px" y="0px"
	 width="32px" height="32px" viewBox="0 0 32 32" enable-background="new 0 0 32 32" xml:space="preserve">
<g>
	<path d="M20,16c-0.75,0-8,0-8,0s-2,0-2,2c0,0.777,0,12,0,12h12V18C22,18,22,16,20,16z"/>
	<circle cx="16" cy="11" r="3"/>
	<circle cx="8" cy="5" r="3"/>
	<path d="M12.023,14C11.39,13.162,11,12.131,11,11c0-0.343,0.035-0.677,0.101-1C8.968,10,4,10,4,10s-2,0-2,2c0,0.778,0,12,0,12h6v-6
		c0-4,4-4,4-4H12.023z"/>
	<path d="M28,10c-0.587,0-5.143,0-7.102,0C20.965,10.323,21,10.657,21,11c0,1.131-0.391,2.162-1.021,3H20c4,0,4,4,4,4v6h6V12
		C30,12,30,10,28,10z"/>
	<circle cx="24" cy="5" r="3"/>
</g>
</svg>
