<?xml version="1.0" encoding="utf-8"?>
<!-- Generator: Adobe Illustrator 16.0.4, SVG Export Plug-In . SVG Version: 6.00 Build 0)  -->
<!DOCTYPE svg PUBLIC "-//W3C//DTD SVG 1.1//EN" "http://www.w3.org/Graphics/SVG/1.1/DTD/svg11.dtd">
<svg version="1.1" id="Capa_1" xmlns="http://www.w3.org/2000/svg" xmlns:xlink="http://www.w3.org/1999/xlink" x="0px" y="0px"
	 width="32px" height="32px" viewBox="0 0 32 32" enable-background="new 0 0 32 32" xml:space="preserve">
<g>
	<path d="M22.38,7.519c0.065,0.035,0.134,0.068,0.194,0.105C23,7.856,23.48,8,24,8c1.657,0,3-1.343,3-3s-1.343-3-3-3s-3,1.343-3,3
		C21,6.059,21.552,6.985,22.38,7.519z"/>
	<path d="M8,20c0-2,0-10,0-10s0.005-0.45,0.239-1C6.16,9,4,9,4,9s-2,0-2,2v7c0,2,2,2,2,2v10h6v-8C10,22,8,22,8,20z"/>
	<circle cx="16" cy="5" r="3"/>
	<path d="M8,8c0.52,0,1.001-0.144,1.427-0.376c0.059-0.036,0.125-0.068,0.188-0.103C10.446,6.988,11,6.061,11,5c0-1.657-1.343-3-3-3
		S5,3.343,5,5S6.343,8,8,8z"/>
	<path d="M30,17.35c0-2.261,0-6.35,0-6.35s0-2-2-2h-4.238C23.995,9.55,24,10,24,10s0,1.888,0,4.059C23.671,14.022,23.338,14,23,14
		s-0.671,0.022-1,0.059C22,12.427,22,11,22,11s0-2-2-2c-0.5,0-8,0-8,0s-2,0-2,2v7c0,2,2,2,2,2v10h5.35
		c1.545,1.248,3.51,1.999,5.65,1.999c4.971,0,8.999-4.028,8.999-8.999C31.999,20.857,31.248,18.895,30,17.35z M23,29.999
		c-3.865-0.008-6.994-3.135-7-6.999c0.006-3.865,3.135-6.994,7-7c3.863,0.006,6.991,3.135,6.999,7
		C29.991,26.864,26.863,29.991,23,29.999z"/>
	<path d="M26.158,21.591c-0.006-0.678-0.088-1.491-0.557-2.259c-0.457-0.779-1.438-1.359-2.602-1.333
		c-1.165-0.026-2.148,0.554-2.605,1.333c-0.47,0.768-0.552,1.581-0.556,2.259c0,0.144,0.007,0.278,0.015,0.409H19v5h8v-5h-0.855
		C26.152,21.869,26.158,21.732,26.158,21.591z M24.139,22h-2.283c-0.01-0.131-0.019-0.268-0.019-0.409
		c-0.004-0.478,0.093-0.958,0.254-1.198c0.173-0.227,0.271-0.365,0.909-0.394c0.637,0.026,0.73,0.165,0.904,0.394
		c0.162,0.24,0.259,0.724,0.253,1.198C24.157,21.736,24.148,21.871,24.139,22z"/>
</g>
</svg>
