<?xml version="1.0" encoding="utf-8"?>
<!-- Generator: Adobe Illustrator 16.0.4, SVG Export Plug-In . SVG Version: 6.00 Build 0)  -->
<!DOCTYPE svg PUBLIC "-//W3C//DTD SVG 1.1//EN" "http://www.w3.org/Graphics/SVG/1.1/DTD/svg11.dtd">
<svg version="1.1" id="Capa_1" xmlns="http://www.w3.org/2000/svg" xmlns:xlink="http://www.w3.org/1999/xlink" x="0px" y="0px"
	 width="32px" height="32px" viewBox="0 0 32 32" enable-background="new 0 0 32 32" xml:space="preserve">
<g>
	<circle cx="16" cy="11" r="3"/>
	<circle cx="24" cy="5" r="3"/>
	<path d="M12.023,14C11.39,13.162,11,12.131,11,11c0-0.343,0.035-0.677,0.101-1C8.968,10,4,10,4,10s-2,0-2,2c0,0.778,0,12,0,12h6v-6
		c0-4,4-4,4-4H12.023z"/>
	<circle cx="8" cy="5" r="3"/>
	<path d="M30,17.35V12c0,0,0-2-2-2h-7.102C20.965,10.323,21,10.657,21,11c0,1.131-0.391,2.162-1.021,3H20
		c0.477,0,0.878,0.073,1.246,0.173c-1.457,0.288-2.787,0.928-3.898,1.827C15.008,16,12,16,12,16s-2,0-2,2c0,0.777,0,12,0,12h7.35
		c1.545,1.248,3.51,1.999,5.65,2c4.971-0.002,8.998-4.029,9-9C31.999,20.857,31.248,18.895,30,17.35z M23,29.883
		c-3.801-0.009-6.876-3.084-6.885-6.883c0.009-3.801,3.084-6.876,6.885-6.885c3.799,0.009,6.874,3.084,6.883,6.885
		C29.874,26.799,26.799,29.874,23,29.883z"/>
	<polygon points="24.002,18 22,18 22,22 18,22 18,24 22,24 22,28 24.002,28 24.002,24 28,24 28,22 24.002,22 	"/>
</g>
</svg>
