<?xml version="1.0" encoding="utf-8"?>
<!-- Generator: Adobe Illustrator 16.0.4, SVG Export Plug-In . SVG Version: 6.00 Build 0)  -->
<!DOCTYPE svg PUBLIC "-//W3C//DTD SVG 1.1//EN" "http://www.w3.org/Graphics/SVG/1.1/DTD/svg11.dtd">
<svg version="1.1" id="Capa_1" xmlns="http://www.w3.org/2000/svg" xmlns:xlink="http://www.w3.org/1999/xlink" x="0px" y="0px"
	 width="32px" height="32px" viewBox="0 0 32 32" enable-background="new 0 0 32 32" xml:space="preserve">
<g>
	<path d="M28,8h-4l-4-4h-8.001L8,8H4c0,0-4,0-4,4v12c0,4,4,4,4,4s5.662,0,11.518,0c1.614,2.411,4.361,3.999,7.482,4
		c3.875-0.002,7.167-2.454,8.436-5.889C31.995,25.076,32,24,32,24s0-8,0-12S28,8,28,8z M14.033,23.66C11.686,22.848,10,20.626,10,18
		c0-3.312,2.684-6,6-6c1.914,0,3.607,0.908,4.706,2.306C16.848,15.321,14,18.822,14,23C14,23.223,14.018,23.441,14.033,23.66z
		 M23,29.883c-3.801-0.009-6.876-3.084-6.885-6.883c0.009-3.801,3.084-6.876,6.885-6.885c3.799,0.009,6.874,3.084,6.883,6.885
		C29.874,26.799,26.799,29.874,23,29.883z"/>
	<polygon points="22,23 20,21 18,23 22,27 28,21 26,19 	"/>
</g>
</svg>
