<?xml version="1.0" encoding="utf-8"?>
<!-- Generator: Adobe Illustrator 16.0.4, SVG Export Plug-In . SVG Version: 6.00 Build 0)  -->
<!DOCTYPE svg PUBLIC "-//W3C//DTD SVG 1.1//EN" "http://www.w3.org/Graphics/SVG/1.1/DTD/svg11.dtd">
<svg version="1.1" id="Capa_1" xmlns="http://www.w3.org/2000/svg" xmlns:xlink="http://www.w3.org/1999/xlink" x="0px" y="0px"
	 width="32px" height="32px" viewBox="0 0 32 32" enable-background="new 0 0 32 32" xml:space="preserve">
<g>
	<path d="M16,0L0,8v4l2-1v21h28V11l2,1V8L16,0z M28,30H4V10l12-6l12,6V30z"/>
	<path d="M21,15.817v6.367c-0.098,0.035-0.193,0.072-0.286,0.116L12.7,14.286C12.887,13.895,13,13.462,13,13c0-1.657-1.343-3-3-3
		s-3,1.343-3,3c0,1.305,0.837,2.403,2,2.816v6.368C7.837,22.598,7,23.695,7,25c0,1.657,1.343,3,3,3s3-1.343,3-3
		c0-1.305-0.837-2.402-2-2.816v-6.367c0.098-0.035,0.193-0.072,0.287-0.117l8.013,8.014C19.113,24.104,19,24.537,19,25
		c0,1.657,1.343,3,3,3s3-1.343,3-3c0-1.305-0.837-2.402-2-2.816v-6.367c1.163-0.413,2-1.512,2-2.816c0-1.657-1.343-3-3-3
		s-3,1.343-3,3C19,14.306,19.837,15.404,21,15.817z"/>
</g>
</svg>
