<?xml version="1.0" encoding="utf-8"?>
<!-- Generator: Adobe Illustrator 16.0.4, SVG Export Plug-In . SVG Version: 6.00 Build 0)  -->
<!DOCTYPE svg PUBLIC "-//W3C//DTD SVG 1.1//EN" "http://www.w3.org/Graphics/SVG/1.1/DTD/svg11.dtd">
<svg version="1.1" id="Capa_1" xmlns="http://www.w3.org/2000/svg" xmlns:xlink="http://www.w3.org/1999/xlink" x="0px" y="0px"
	 width="32px" height="32px" viewBox="0 0 32 32" enable-background="new 0 0 32 32" xml:space="preserve">
<g>
	<path d="M28,15.518V8.45L16,0.814L4,8.452V32h24v-1.518c2.411-1.614,4-4.361,4-7.481C32,19.88,30.411,17.132,28,15.518z M6,29.999
		V9.548l10-6.364l10,6.364v4.974C25.061,14.19,24.055,14,23,14c-4.973,0-9,4.027-9,9.001c0,2.828,1.307,5.349,3.348,6.998H6z M23,30
		c-3.865-0.008-6.995-3.135-7-6.999c0.006-3.866,3.135-6.995,7-7.001c3.863,0.006,6.991,3.135,6.999,7.001
		C29.991,26.865,26.863,29.992,23,30z"/>
	<circle cx="16" cy="8" r="2"/>
	<rect x="18" y="22" width="10" height="2"/>
</g>
</svg>
