<?xml version="1.0" encoding="utf-8"?>
<!-- Generator: Adobe Illustrator 16.0.4, SVG Export Plug-In . SVG Version: 6.00 Build 0)  -->
<!DOCTYPE svg PUBLIC "-//W3C//DTD SVG 1.1//EN" "http://www.w3.org/Graphics/SVG/1.1/DTD/svg11.dtd">
<svg version="1.1" id="Capa_1" xmlns="http://www.w3.org/2000/svg" xmlns:xlink="http://www.w3.org/1999/xlink" x="0px" y="0px"
	 width="32px" height="32px" viewBox="0 0 32 32" enable-background="new 0 0 32 32" xml:space="preserve">
<path d="M32,2l-2-2l-4.174,4.174c-1.58-2.24-4.373-4.202-8.825-4.174c-5.355-0.035-8.315,2.806-9.645,5.552
	C5.993,8.293,6.005,10.916,5.999,11c0.036,4.424,2.714,7.911,3.82,9.182L2,28l2,2l7.46-7.46c0.132,0.326,0.244,0.649,0.319,0.951
	c0.111,0.442,0.167,0.834,0.194,1.108C12,24.872,11.996,24.999,12,24.999V30h2l2,2h2l2-2h2v-5.039c0-0.04,0.002-0.143,0.025-0.361
	c0.074-0.83,0.442-2.677,1.681-3.894c0.051-0.084,4.249-4.165,4.292-9.707c-0.003-0.071,0.001-1.951-0.814-4.183L32,2z
	 M11.235,18.766c-0.031-0.037-0.057-0.065-0.091-0.106C10.078,17.389,7.982,14.339,8,11c0-0.002-0.002-0.531,0.142-1.397
	C8.356,8.3,8.91,6.354,10.209,4.804C11.517,3.26,13.499,2.016,17.001,2c4.071,0.031,6.142,1.695,7.378,3.622L11.235,18.766z
	 M24.146,16.852c-0.471,0.764-0.941,1.383-1.293,1.808c-0.352,0.424-0.562,0.632-0.562,0.634c-1.559,1.594-2.047,3.548-2.206,4.708
	h-6.171c-0.104-0.758-0.356-1.854-0.947-2.967L25.589,8.411c0.116,0.429,0.208,0.838,0.265,1.192C26.001,10.469,25.993,11,25.999,11
	C26.003,13.228,25.091,15.321,24.146,16.852z"/>
</svg>
