<?xml version="1.0" encoding="utf-8"?>
<!-- Generator: Adobe Illustrator 16.0.4, SVG Export Plug-In . SVG Version: 6.00 Build 0)  -->
<!DOCTYPE svg PUBLIC "-//W3C//DTD SVG 1.1//EN" "http://www.w3.org/Graphics/SVG/1.1/DTD/svg11.dtd">
<svg version="1.1" id="Capa_1" xmlns="http://www.w3.org/2000/svg" xmlns:xlink="http://www.w3.org/1999/xlink" x="0px" y="0px"
	 width="32px" height="32px" viewBox="0 0 32 32" enable-background="new 0 0 32 32" xml:space="preserve">
<g>
	<path d="M32,12V8H6v4H0v8h6v4h8.058c0.498,4.5,4.308,8,8.942,8c4.971,0,9-4.027,9-8.999c0-3.919-2.507-7.241-6-8.478V12H32z
		 M29.999,23.001C29.991,26.865,26.863,29.992,23,30c-3.865-0.008-6.995-3.135-7-6.999c0.006-3.866,3.135-6.995,7-7.001
		C26.863,16.006,29.991,19.135,29.999,23.001z"/>
	<rect x="18" y="22" width="10" height="2"/>
</g>
</svg>
