<?xml version="1.0" encoding="utf-8"?>
<!-- Generator: Adobe Illustrator 16.0.4, SVG Export Plug-In . SVG Version: 6.00 Build 0)  -->
<!DOCTYPE svg PUBLIC "-//W3C//DTD SVG 1.1//EN" "http://www.w3.org/Graphics/SVG/1.1/DTD/svg11.dtd">
<svg version="1.1" id="Capa_1" xmlns="http://www.w3.org/2000/svg" xmlns:xlink="http://www.w3.org/1999/xlink" x="0px" y="0px"
	 width="32px" height="32px" viewBox="0 0 32 32" enable-background="new 0 0 32 32" xml:space="preserve">
<g>
	<path d="M30.482,18c-1.069-1.598-2.641-2.825-4.482-3.477V4H6v16h8.522C14.19,20.939,14,21.945,14,23c0,0.338,0.022,0.671,0.059,1
		H4v-6H0v10h15.518c1.614,2.411,4.361,3.999,7.482,4c3.12-0.001,5.867-1.589,7.48-4H32V18H30.482z M22,6l-6,5.44L10,6H22z
		 M15.517,18H8V7.081L16,14l8-7v7.059C23.671,14.022,23.338,14,23,14C19.878,14,17.131,15.588,15.517,18z M23,29.883
		c-3.801-0.009-6.876-3.084-6.884-6.883c0.008-3.801,3.083-6.876,6.884-6.884c3.799,0.008,6.874,3.083,6.883,6.884
		C29.874,26.799,26.799,29.874,23,29.883z"/>
	<polygon points="19,22 27,22 23,18 	"/>
	<rect x="19" y="24" width="8" height="2"/>
</g>
</svg>
