<?xml version="1.0" encoding="utf-8"?>
<!-- Generator: Adobe Illustrator 16.0.4, SVG Export Plug-In . SVG Version: 6.00 Build 0)  -->
<!DOCTYPE svg PUBLIC "-//W3C//DTD SVG 1.1//EN" "http://www.w3.org/Graphics/SVG/1.1/DTD/svg11.dtd">
<svg version="1.1" id="Capa_1" xmlns="http://www.w3.org/2000/svg" xmlns:xlink="http://www.w3.org/1999/xlink" x="0px" y="0px"
	 width="32px" height="32px" viewBox="0 0 32 32" enable-background="new 0 0 32 32" xml:space="preserve">
<g>
	<path d="M28,15.518V4H4v24h11.518c1.614,2.411,4.361,3.999,7.482,4c4.971-0.002,8.998-4.029,9-9
		C31.999,19.879,30.411,17.132,28,15.518z M15.517,18c-0.412,0.616-0.743,1.289-0.994,2H8v2h6.058C14.022,22.329,14,22.661,14,23
		c0,1.055,0.19,2.061,0.523,3H6V6h20v8.523C25.061,14.19,24.055,14,23,14c-2.143,0-4.107,0.751-5.652,2H8v2H15.517z M23,29.883
		c-3.801-0.009-6.876-3.084-6.885-6.883c0.009-3.801,3.084-6.876,6.885-6.884c3.799,0.008,6.874,3.083,6.883,6.884
		C29.874,26.799,26.799,29.874,23,29.883z"/>
	<polygon points="24,12 8,12 8,14 23,14 24,14 	"/>
	<polygon points="25,19 23,21 21,19 19,21 21,23 19,25 21,27 23,25 25,27 27,25 25,23 27,21 	"/>
</g>
</svg>
