<?xml version="1.0" encoding="utf-8"?>
<!-- Generator: Adobe Illustrator 16.0.4, SVG Export Plug-In . SVG Version: 6.00 Build 0)  -->
<!DOCTYPE svg PUBLIC "-//W3C//DTD SVG 1.1//EN" "http://www.w3.org/Graphics/SVG/1.1/DTD/svg11.dtd">
<svg version="1.1" id="Capa_1" xmlns="http://www.w3.org/2000/svg" xmlns:xlink="http://www.w3.org/1999/xlink" x="0px" y="0px"
	 width="32px" height="32px" viewBox="0 0 32 32" enable-background="new 0 0 32 32" xml:space="preserve">
<path d="M28,20.35v-8.698c2.329-0.824,4-3.04,4-5.651c0-3.313-2.688-6-6-6c-3.316,0-6,2.687-6,6c0,0.25,0.021,0.495,0.05,0.737
	l-9.891,4.945C9.08,10.643,7.616,10,6,10c-3.316,0-6,2.688-6,6c0,3.312,2.684,6,6,6c1.617,0,3.083-0.645,4.162-1.686l9.889,4.944
	C20.021,25.503,20,25.749,20,26c0,3.312,2.684,6,6,6c3.312,0,6-2.688,6-6C32,23.391,30.329,21.174,28,20.35z"/>
</svg>
