<?xml version="1.0" encoding="utf-8"?>
<!-- Generator: Adobe Illustrator 16.0.4, SVG Export Plug-In . SVG Version: 6.00 Build 0)  -->
<!DOCTYPE svg PUBLIC "-//W3C//DTD SVG 1.1//EN" "http://www.w3.org/Graphics/SVG/1.1/DTD/svg11.dtd">
<svg version="1.1" id="Capa_1" xmlns="http://www.w3.org/2000/svg" xmlns:xlink="http://www.w3.org/1999/xlink" x="0px" y="0px"
	 width="32px" height="32px" viewBox="0 0 32 32" enable-background="new 0 0 32 32" xml:space="preserve">
<g>
	<path d="M22.414,0H4v32h24V5.584L22.414,0z M21.998,2.413L25.586,6h-3.588V2.413z M26,30H6V1.998h14v6.001h6V30z"/>
	<path d="M17.999,13c0,0.125,0.021,0.244,0.037,0.364l-4.959,2.479c-0.54-0.52-1.27-0.843-2.078-0.843c-1.658,0-3,1.343-3,3
		s1.342,3,3,3c0.809,0,1.54-0.324,2.08-0.844l4.958,2.479C18.021,22.757,18,22.875,18,23c0,1.656,1.342,2.998,2.998,3
		c1.658-0.002,3-1.344,3-3c0-1.305-0.835-2.402-1.998-2.816v-4.367c1.163-0.413,2-1.512,2-2.817c0-1.656-1.346-3-3.002-3
		C19.341,10,17.999,11.344,17.999,13z M20.999,10.999c1.104,0.002,1.998,0.896,2,2c-0.002,1.104-0.896,1.998-2,2
		c-1.106-0.002-1.998-0.896-2-2C19.001,11.895,19.893,11.001,20.999,10.999z M20.999,20.999C22.104,21.001,22.998,21.895,23,23
		c-0.002,1.104-0.896,1.996-2.001,2c-1.104-0.004-1.998-0.896-2.001-2C19.001,21.895,19.895,21.001,20.999,20.999z"/>
</g>
</svg>
