<?xml version="1.0" encoding="utf-8"?>
<!-- Generator: Adobe Illustrator 16.0.4, SVG Export Plug-In . SVG Version: 6.00 Build 0)  -->
<!DOCTYPE svg PUBLIC "-//W3C//DTD SVG 1.1//EN" "http://www.w3.org/Graphics/SVG/1.1/DTD/svg11.dtd">
<svg version="1.1" id="Capa_1" xmlns="http://www.w3.org/2000/svg" xmlns:xlink="http://www.w3.org/1999/xlink" x="0px" y="0px"
	 width="32px" height="32px" viewBox="0 0 32 32" enable-background="new 0 0 32 32" xml:space="preserve">
<path d="M27.999,20.35v-8.698C30.327,10.827,31.998,8.612,32,6c-0.002-3.314-2.688-5.998-5.999-6C22.686,0,20.002,2.688,20,6
	c0,0.25,0.021,0.495,0.05,0.737l-9.891,4.945C9.08,10.644,7.617,10.001,6.001,10C2.685,10,0.002,12.688,0,16
	c0.002,3.314,2.685,6,6.001,6c1.617,0,3.082-0.645,4.161-1.686l9.889,4.944C20.021,25.503,20,25.749,20,26
	c0.002,3.314,2.686,6,6.001,6c3.312,0,5.997-2.686,5.999-6C31.998,23.389,30.327,21.174,27.999,20.35z M6.001,20
	c-2.212-0.004-3.996-1.79-3.999-4c0.003-2.208,1.787-3.996,3.999-4c2.206,0.004,3.993,1.792,3.997,4
	C9.994,18.208,8.207,19.996,6.001,20z M26.001,2c2.206,0.004,3.993,1.792,3.997,4c-0.004,2.208-1.791,3.996-3.997,4
	c-2.212-0.004-3.996-1.79-3.999-4C22.005,3.792,23.789,2.004,26.001,2z M26.001,30c-2.212-0.004-3.996-1.79-3.999-4
	c0.003-2.208,1.787-3.996,3.999-4c2.206,0.004,3.993,1.792,3.997,4C29.994,28.208,28.207,29.996,26.001,30z"/>
</svg>
