<?xml version="1.0" encoding="utf-8"?>
<!-- Generator: Adobe Illustrator 16.0.4, SVG Export Plug-In . SVG Version: 6.00 Build 0)  -->
<!DOCTYPE svg PUBLIC "-//W3C//DTD SVG 1.1//EN" "http://www.w3.org/Graphics/SVG/1.1/DTD/svg11.dtd">
<svg version="1.1" id="Capa_1" xmlns="http://www.w3.org/2000/svg" xmlns:xlink="http://www.w3.org/1999/xlink" x="0px" y="0px"
	 width="32px" height="32px" viewBox="0 0 32 32" enable-background="new 0 0 32 32" xml:space="preserve">
<path d="M23.999,14c-0.009-0.133,0.015-2.297-0.877-4.703c-0.452-1.2-1.149-2.492-2.325-3.542C19.632,4.7,17.945,3.984,16.001,4
	c-1.947-0.017-3.634,0.7-4.799,1.755c-1.759,1.589-2.461,3.659-2.837,5.274C8.001,12.656,8,13.902,8,14H6v16h20V14H23.999z
	 M11.999,14c0-0.002,0-0.06,0.01-0.238c0.025-0.62,0.218-2.335,0.86-3.64c0.718-1.327,1.37-2.072,3.132-2.124
	c1.054,0.016,1.615,0.3,2.138,0.747c0.773,0.658,1.336,1.965,1.594,3.163c0.134,0.59,0.203,1.14,0.235,1.527
	c0.033,0.383,0.026,0.562,0.031,0.565H11.999z"/>
</svg>
