<?xml version="1.0" encoding="utf-8"?>
<!-- Generator: Adobe Illustrator 16.0.4, SVG Export Plug-In . SVG Version: 6.00 Build 0)  -->
<!DOCTYPE svg PUBLIC "-//W3C//DTD SVG 1.1//EN" "http://www.w3.org/Graphics/SVG/1.1/DTD/svg11.dtd">
<svg version="1.1" id="Capa_1" xmlns="http://www.w3.org/2000/svg" xmlns:xlink="http://www.w3.org/1999/xlink" x="0px" y="0px"
	 width="32px" height="32px" viewBox="0 0 32 32" enable-background="new 0 0 32 32" xml:space="preserve">
<g>
	<path d="M24,0H8v26h16V0z M13,22h-2v-2h2V22z M13,18h-2v-2h2V18z M13,14h-2v-2h2V14z M17,22h-2v-2h2V22z M14.999,18v-2h2v2H14.999z
		 M17,14h-2v-2h2V14z M21,22h-2v-2h2V22z M21,18h-2v-2h2V18z M21,14h-2v-2h2V14z M21,10H11V3h10V10z"/>
	<polygon points="26,22 26,28 6,28 6,22 4,22 4,32 28,32 28,22 	"/>
</g>
</svg>
