<?xml version="1.0" encoding="utf-8"?>
<!-- Generator: Adobe Illustrator 16.0.4, SVG Export Plug-In . SVG Version: 6.00 Build 0)  -->
<!DOCTYPE svg PUBLIC "-//W3C//DTD SVG 1.1//EN" "http://www.w3.org/Graphics/SVG/1.1/DTD/svg11.dtd">
<svg version="1.1" id="Capa_1" xmlns="http://www.w3.org/2000/svg" xmlns:xlink="http://www.w3.org/1999/xlink" x="0px" y="0px"
	 width="32px" height="32px" viewBox="0 0 32 32" enable-background="new 0 0 32 32" xml:space="preserve">
<g>
	<path d="M2,30h16V2H2V30z M11,26H9v-2h2V26z M9,22v-2h1.999v2H9z M11,18H9v-2h2V18z M15,26h-2v-2h2V26z M15,22h-2v-2h2V22z M15,18
		h-2v-2h2V18z M5,6h10v6H5V6z M5,16h2v2H5V16z M5,20h2v2H5V20z M5,24h2v2H5V24z"/>
	<path d="M27.205,0l-1.479,1.535C28.298,4.219,29.891,7.917,29.891,12c0,4.084-1.593,7.781-4.164,10.467L27.205,24
		C30.168,20.93,32,16.686,32,12C32,7.314,30.168,3.071,27.205,0z"/>
	<path d="M24.34,3.034l-1.445,1.5c1.832,1.918,2.965,4.554,2.965,7.466s-1.135,5.548-2.967,7.466l1.446,1.5
		c2.203-2.302,3.567-5.468,3.567-8.966S26.543,5.335,24.34,3.034z"/>
	<path d="M21.445,6.035L20,7.536c1.092,1.147,1.768,2.725,1.768,4.464S21.092,15.316,20,16.465l1.445,1.5
		c1.464-1.534,2.367-3.639,2.367-5.966S22.909,7.567,21.445,6.035z"/>
</g>
</svg>
