<?xml version="1.0" encoding="utf-8"?>
<!-- Generator: Adobe Illustrator 16.0.4, SVG Export Plug-In . SVG Version: 6.00 Build 0)  -->
<!DOCTYPE svg PUBLIC "-//W3C//DTD SVG 1.1//EN" "http://www.w3.org/Graphics/SVG/1.1/DTD/svg11.dtd">
<svg version="1.1" id="Capa_1" xmlns="http://www.w3.org/2000/svg" xmlns:xlink="http://www.w3.org/1999/xlink" x="0px" y="0px"
	 width="32px" height="32px" viewBox="0 0 32 32" enable-background="new 0 0 32 32" xml:space="preserve">
<path d="M16,0C10.477,0,6,4.477,6,10c0,7,10,22,10,22s10-15,10-22C26,4.477,21.521,0,16,0z M16.93,17.941
	C16.624,17.967,16.325,18,16,18s-0.625-0.033-0.93-0.059C11.09,17.48,8,14.104,8,10c0-4.419,3.581-8,8-8c4.415,0,8,3.581,8,8
	C24,14.104,20.906,17.48,16.93,17.941z"/>
</svg>
