<?xml version="1.0" encoding="utf-8"?>
<!-- Generator: Adobe Illustrator 16.0.4, SVG Export Plug-In . SVG Version: 6.00 Build 0)  -->
<!DOCTYPE svg PUBLIC "-//W3C//DTD SVG 1.1//EN" "http://www.w3.org/Graphics/SVG/1.1/DTD/svg11.dtd">
<svg version="1.1" id="Capa_1" xmlns="http://www.w3.org/2000/svg" xmlns:xlink="http://www.w3.org/1999/xlink" x="0px" y="0px"
	 width="32px" height="32px" viewBox="0 0 32 32" enable-background="new 0 0 32 32" xml:space="preserve">
<g>
	<path d="M27.998,16c-0.012,6.628-5.373,11.986-11.999,11.998C9.373,27.986,4.012,22.627,4,15.999C4.012,9.373,9.373,4.012,15.999,4
		c2.024,0.003,3.928,0.515,5.601,1.402l-2.6,2.6h8.002V0l-2.476,2.476c-2.47-1.561-5.39-2.475-8.527-2.476
		C7.164,0.002,0.002,7.164,0,15.999C0.002,24.837,7.164,31.998,15.999,32C24.835,31.998,31.998,24.838,32,16H27.998z"/>
	<path d="M10.001,16c0,3.314,2.685,5.999,5.999,6c3.314-0.002,5.999-2.688,5.999-6H22c-0.001-3.314-2.686-6-6-6.001
		C12.686,10,10.001,12.686,10.001,16z M19.999,15.999L19.999,15.999c-0.004,2.21-1.79,3.995-3.999,3.999
		c-2.208-0.004-3.995-1.789-3.999-3.999C12.005,13.792,13.792,12.004,16,12C18.209,12.004,19.995,13.79,19.999,15.999z"/>
</g>
</svg>
