<?xml version="1.0" encoding="utf-8"?>
<!-- Generator: Adobe Illustrator 16.0.4, SVG Export Plug-In . SVG Version: 6.00 Build 0)  -->
<!DOCTYPE svg PUBLIC "-//W3C//DTD SVG 1.1//EN" "http://www.w3.org/Graphics/SVG/1.1/DTD/svg11.dtd">
<svg version="1.1" id="Capa_1" xmlns="http://www.w3.org/2000/svg" xmlns:xlink="http://www.w3.org/1999/xlink" x="0px" y="0px"
	 width="32px" height="32px" viewBox="0 0 32 32" enable-background="new 0 0 32 32" xml:space="preserve">
<path d="M27.927,15.63c-1.007-2.49-1.944-4.951-1.928-6.63c-0.002-1.833,0.468-3.747,0.946-5.185
	c0.48-1.436,0.951-2.365,0.947-2.369L28.615,0H4.381L4.105,0.552C4.083,0.622,2.015,4.68,2,8.999c0.017,2.323,1.08,4.861,2.07,7.372
	C5.079,18.859,6.017,21.32,6,23c0.002,1.834-0.468,3.747-0.95,5.184c-0.477,1.437-0.949,2.365-0.945,2.371l-0.723,1.444V32h24.235
	l0.275-0.555c0.024-0.067,2.09-4.125,2.106-8.444C29.982,20.678,28.92,18.139,27.927,15.63z M27.049,28.184
	c-0.257,0.774-0.513,1.401-0.693,1.815H6.521C7.138,28.427,7.989,25.768,8,23c-0.019-2.323-1.079-4.861-2.072-7.371
	C4.921,13.139,3.981,10.678,4,8.999C3.998,7.166,4.468,5.252,4.947,3.814C5.206,3.041,5.462,2.414,5.642,2h19.836
	c-0.617,1.573-1.469,4.232-1.48,6.999c0.016,2.324,1.08,4.861,2.072,7.372c1.007,2.488,1.945,4.949,1.928,6.629
	C28,24.834,27.529,26.747,27.049,28.184z"/>
</svg>
