<?xml version="1.0" encoding="utf-8"?>
<!-- Generator: Adobe Illustrator 16.0.4, SVG Export Plug-In . SVG Version: 6.00 Build 0)  -->
<!DOCTYPE svg PUBLIC "-//W3C//DTD SVG 1.1//EN" "http://www.w3.org/Graphics/SVG/1.1/DTD/svg11.dtd">
<svg version="1.1" id="Capa_1" xmlns="http://www.w3.org/2000/svg" xmlns:xlink="http://www.w3.org/1999/xlink" x="0px" y="0px"
	 width="32px" height="32px" viewBox="0 0 32 32" enable-background="new 0 0 32 32" xml:space="preserve">
<g>
	<path d="M28,22.102V9.899c2.282-0.463,4-2.48,4-4.899c0-2.761-2.238-5-5-5c-2.419,0-4.436,1.718-4.898,4H9.899
		C9.436,1.718,7.419,0,5,0C2.239,0,0,2.239,0,5c0,2.419,1.718,4.436,4,4.899V22.1c-2.282,0.465-4,2.481-4,4.9c0,2.762,2.239,5,5,5
		c2.419,0,4.436-1.718,4.899-4H22.1c0.465,2.282,2.48,4,4.899,4c2.763,0,5-2.238,5-5C32,24.581,30.282,22.564,28,22.102z M22.102,26
		H9.899C9.501,24.041,7.959,22.498,6,22.102V9.899C7.959,9.501,9.501,7.959,9.899,6H22.1c0.397,1.959,1.94,3.501,3.899,3.899v12.203
		H26C24.041,22.498,22.498,24.041,22.102,26z"/>
	<polygon points="8,10.001 8,22 14,16.001 	"/>
	<polygon points="24,22 24,10 18,16 	"/>
	<polygon points="22.002,7.999 9.998,7.999 16,14 	"/>
	<polygon points="10,24 22,24 16.002,18 	"/>
</g>
</svg>
