<?xml version="1.0" encoding="utf-8"?>
<!-- Generator: Adobe Illustrator 16.0.4, SVG Export Plug-In . SVG Version: 6.00 Build 0)  -->
<!DOCTYPE svg PUBLIC "-//W3C//DTD SVG 1.1//EN" "http://www.w3.org/Graphics/SVG/1.1/DTD/svg11.dtd">
<svg version="1.1" id="Capa_1" xmlns="http://www.w3.org/2000/svg" xmlns:xlink="http://www.w3.org/1999/xlink" x="0px" y="0px"
	 width="32px" height="32px" viewBox="0 0 32 32" enable-background="new 0 0 32 32" xml:space="preserve">
<g>
	<path d="M30,17.35V12h-2v-2h2V2H2v8h2v2H2v8h2v2H2v8h15.35c1.545,1.248,3.51,1.999,5.65,2c4.971-0.002,8.998-4.029,9-9
		C31.999,20.857,31.248,18.895,30,17.35z M4,6h4v2H4V6z M26,10v2H6v-2H26z M4,16h4v2H4V16z M8,28H4v-2h4V28z M14.059,22H6v-2h8.522
		C14.297,20.639,14.135,21.307,14.059,22z M23,29.883c-3.801-0.009-6.876-3.084-6.885-6.883c0.009-3.801,3.084-6.876,6.885-6.885
		c3.799,0.009,6.874,3.084,6.883,6.885C29.874,26.799,26.799,29.874,23,29.883z"/>
	<rect x="20" y="20" width="6" height="6"/>
</g>
</svg>
