<?xml version="1.0" encoding="utf-8"?>
<!-- Generator: Adobe Illustrator 17.0.0, SVG Export Plug-In . SVG Version: 6.00 Build 0)  -->
<!DOCTYPE svg PUBLIC "-//W3C//DTD SVG 1.1//EN" "http://www.w3.org/Graphics/SVG/1.1/DTD/svg11.dtd">
<svg version="1.1" id="Capa_1" xmlns="http://www.w3.org/2000/svg" xmlns:xlink="http://www.w3.org/1999/xlink" x="0px" y="0px"
	 width="32px" height="32px" viewBox="0 0 32 32" enable-background="new 0 0 32 32" xml:space="preserve">
<path d="M28,10h-2V8h2V0H0v8h2v2H0v8h2v2H0v8h15.349c1.545,1.248,3.51,1.999,5.651,2c4.971-0.002,8.998-4.029,9-9
	c-0.001-2.142-0.752-4.106-2-5.651V10z M2,4h4v2H2V4z M24,8v2H4V8H24z M2,14h4v2H2V14z M6,26H2v-2h4V26z M12.059,20H4v-2h8.522
	C12.297,18.638,12.135,19.306,12.059,20z M21,27.883c-3.801-0.009-6.876-3.084-6.885-6.883c0.009-3.801,3.084-6.876,6.885-6.885
	c3.799,0.009,6.874,3.084,6.883,6.885C27.874,24.799,24.799,27.874,21,27.883z M20,16h2v2h-2V16z M20,20h2v6h-2V20z"/>
</svg>
