<?xml version="1.0" encoding="utf-8"?>
<!-- Generator: Adobe Illustrator 16.0.4, SVG Export Plug-In . SVG Version: 6.00 Build 0)  -->
<!DOCTYPE svg PUBLIC "-//W3C//DTD SVG 1.1//EN" "http://www.w3.org/Graphics/SVG/1.1/DTD/svg11.dtd">
<svg version="1.1" id="Capa_1" xmlns="http://www.w3.org/2000/svg" xmlns:xlink="http://www.w3.org/1999/xlink" x="0px" y="0px"
	 width="32px" height="32px" viewBox="0 0 32 32" enable-background="new 0 0 32 32" xml:space="preserve">
<g>
	<circle cx="9" cy="25" r="3"/>
	<circle cx="23" cy="25" r="3"/>
	<path d="M29.895,4.554c-0.244-0.494-0.846-0.696-1.34-0.449l-3.998,2c-0.344,0.169-0.556,0.515-0.556,0.896v1H4.387L3.948,6.684
		C3.773,6.159,3.207,5.877,2.682,6.052c-0.523,0.175-0.805,0.741-0.63,1.265H2.05l4.001,12C6.187,19.727,6.568,20,7,20h18.002
		c0.266,0,0.518-0.104,0.706-0.292s0.293-0.44,0.293-0.706V7.619l3.447-1.726C29.939,5.648,30.143,5.046,29.895,4.554z M24,18H7.719
		l-2.666-8H24V18z"/>
</g>
</svg>
