<?xml version="1.0" encoding="utf-8"?>
<!-- Generator: Adobe Illustrator 16.0.4, SVG Export Plug-In . SVG Version: 6.00 Build 0)  -->
<!DOCTYPE svg PUBLIC "-//W3C//DTD SVG 1.1//EN" "http://www.w3.org/Graphics/SVG/1.1/DTD/svg11.dtd">
<svg version="1.1" id="Capa_1" xmlns="http://www.w3.org/2000/svg" xmlns:xlink="http://www.w3.org/1999/xlink" x="0px" y="0px"
	 width="32px" height="32px" viewBox="0 0 32 32" enable-background="new 0 0 32 32" xml:space="preserve">
<path d="M32,16l-6-6v4h-2V8h-6V6h4l-6-6l-6,6h4v2H8v6H6v-4l-6,6l6,6v-4h2v6h6v2h-4l6,6l1.721-1.723
	C19.205,31.355,21.025,31.999,23,32c4.971-0.002,8.998-4.029,9-9c-0.001-1.975-0.645-3.795-1.723-5.277L32,16z M10,22V10h12v4.059
	c-4.172,0.461-7.48,3.77-7.941,7.941H10z M23,29.883c-3.801-0.009-6.876-3.084-6.885-6.883c0.009-3.801,3.084-6.876,6.885-6.885
	c3.799,0.009,6.874,3.084,6.883,6.885C29.874,26.799,26.799,29.874,23,29.883z"/>
<path d="M22,27h-3v-3L22,27z M28,21l-5,5l-3-3.001l5-5L28,21z"/>
</svg>
