<?xml version="1.0" encoding="utf-8"?>
<!-- Generator: Adobe Illustrator 16.0.4, SVG Export Plug-In . SVG Version: 6.00 Build 0)  -->
<!DOCTYPE svg PUBLIC "-//W3C//DTD SVG 1.1//EN" "http://www.w3.org/Graphics/SVG/1.1/DTD/svg11.dtd">
<svg version="1.1" id="Capa_1" xmlns="http://www.w3.org/2000/svg" xmlns:xlink="http://www.w3.org/1999/xlink" x="0px" y="0px"
	 width="32px" height="32px" viewBox="0 0 32 32" enable-background="new 0 0 32 32" xml:space="preserve">
<g>
	<path d="M16,28v4h12c0,0,0-2,0-4s-2-2-2-2h-4h-4C16,26,16,28,16,28z"/>
	<path d="M4,16H0v12c0,0,2,0,4,0s2-2,2-2v-4v-4C6,16,4,16,4,16z"/>
	<path d="M16,4V0H4c0,0,0,2,0,4s2,2,2,2h4h4C16,6,16,4,16,4z"/>
	<path d="M28,4c-2,0-2,2-2,2v4v0.001V14c0,2,2,2,2,2h4V4C32,4,30,4,28,4z"/>
	<path d="M22,6c-2.209,0-4,1.791-4,4c0,1.861,1.277,3.412,3,3.858v4.283c-0.363,0.094-0.704,0.238-1.021,0.424l-6.544-6.544
		C13.785,11.425,14,10.74,14,10c0-2.209-1.791-4-4-4s-4,1.791-4,4c0,1.861,1.278,3.412,3,3.858v4.283C7.278,18.588,6,20.139,6,22
		c0,2.209,1.791,4,4,4s4-1.791,4-4c0-1.861-1.278-3.412-3-3.857v-4.284c0.364-0.094,0.705-0.238,1.021-0.425l6.545,6.546
		C18.215,20.574,18,21.259,18,22c0,2.209,1.791,4,4,4s4-1.791,4-4c0-1.861-1.277-3.412-3-3.857v-4.284c1.723-0.446,3-1.997,3-3.858
		C26,7.791,24.209,6,22,6z"/>
</g>
</svg>
