<?xml version="1.0" encoding="utf-8"?>
<!-- Generator: Adobe Illustrator 16.0.4, SVG Export Plug-In . SVG Version: 6.00 Build 0)  -->
<!DOCTYPE svg PUBLIC "-//W3C//DTD SVG 1.1//EN" "http://www.w3.org/Graphics/SVG/1.1/DTD/svg11.dtd">
<svg version="1.1" id="Capa_1" xmlns="http://www.w3.org/2000/svg" xmlns:xlink="http://www.w3.org/1999/xlink" x="0px" y="0px"
	 width="32px" height="32px" viewBox="0 0 32 32" enable-background="new 0 0 32 32" xml:space="preserve">
<g>
	<polygon points="2,10 2,22 10,22 16,28 16,4 10,10 	"/>
	<path d="M25.312,4.687l-1.445,1.447c2.515,2.531,4.07,6.017,4.07,9.867c0,3.851-1.557,7.336-4.07,9.867l1.445,1.446
		C28.209,24.418,30,20.418,30,16S28.209,7.582,25.312,4.687z"/>
	<path d="M22.516,7.547l-1.414,1.415C22.893,10.77,24,13.255,24,16s-1.107,5.23-2.898,7.038l1.414,1.414
		C24.668,22.283,26,19.298,26,16S24.668,9.717,22.516,7.547z"/>
	<path d="M19.688,10.376l-1.414,1.415C19.34,12.873,20,14.359,20,16c0,1.641-0.66,3.126-1.729,4.21l1.414,1.414
		C21.116,20.18,22,18.193,22,16C22,13.807,21.116,11.82,19.688,10.376z"/>
</g>
</svg>
