<?xml version="1.0" encoding="utf-8"?>
<!-- Generator: Adobe Illustrator 16.0.4, SVG Export Plug-In . SVG Version: 6.00 Build 0)  -->
<!DOCTYPE svg PUBLIC "-//W3C//DTD SVG 1.1//EN" "http://www.w3.org/Graphics/SVG/1.1/DTD/svg11.dtd">
<svg version="1.1" id="Capa_1" xmlns="http://www.w3.org/2000/svg" xmlns:xlink="http://www.w3.org/1999/xlink" x="0px" y="0px"
	 width="32px" height="32px" viewBox="0 0 32 32" enable-background="new 0 0 32 32" xml:space="preserve">
<path d="M28,7.786h-0.002c-0.031-0.976-0.691-1.542-1.352-1.943c-0.4-0.233-0.895-0.438-1.433-0.628L24,4h-2l-2-2h-3.833L12,4h-2
	L8.59,4.705C8.381,4.751,8.172,4.796,7.976,4.846c-1.054,0.27-1.933,0.585-2.625,0.997C4.692,6.244,4.031,6.811,4,7.786
	c0.001,0.028,0.007,0.053,0.009,0.081H4.003L5.705,28.41l0.037,0.113c0.142,0.517,1.697,3.522,10.257,3.475h0.218
	c8.43,0.001,9.909-2.965,10.045-3.495l0.029-0.104l1.704-20.532H27.99C27.992,7.839,27.999,7.814,28,7.786z M24.324,27.938
	c-0.25,0.367-1.743,2.045-8.325,2.062c-4.088,0.002-6.251-0.685-7.322-1.271c-0.538-0.295-0.81-0.561-0.941-0.72
	c-0.027-0.032-0.048-0.061-0.064-0.083L6.2,10.145c0.958,0.402,2.187,0.718,3.598,0.952L14,16l4.502-4.501
	c2.104-0.121,3.998-0.389,5.521-0.775c0.666-0.169,1.254-0.362,1.777-0.582L24.324,27.938z"/>
</svg>
