<?xml version="1.0" encoding="utf-8"?>
<!-- Generator: Adobe Illustrator 16.0.4, SVG Export Plug-In . SVG Version: 6.00 Build 0)  -->
<!DOCTYPE svg PUBLIC "-//W3C//DTD SVG 1.1//EN" "http://www.w3.org/Graphics/SVG/1.1/DTD/svg11.dtd">
<svg version="1.1" id="Capa_1" xmlns="http://www.w3.org/2000/svg" xmlns:xlink="http://www.w3.org/1999/xlink" x="0px" y="0px"
	 width="32px" height="32px" viewBox="0 0 32 32" enable-background="new 0 0 32 32" xml:space="preserve">
<path d="M14.001,14.001h4V8h4l-6-6l-6,6h4V14.001z M23.001,14.001c-3.121,0-5.869,1.588-7.483,4H2v8h12.523
	C15.761,29.494,19.083,32,23.001,32C27.973,32,32,27.973,32,23.001S27.973,14.001,23.001,14.001z M8,24.001H4v-2h4V24.001z
	 M23.001,30c-3.864-0.008-6.994-3.135-7-6.999c0.006-3.865,3.136-6.994,7-7c3.864,0.006,6.991,3.135,6.999,7
	C29.992,26.865,26.865,29.992,23.001,30z"/>
<path d="M24,20v6h2v-6H24z M20,26h2v-6h-2V26z"/>
</svg>
