<?xml version="1.0" encoding="utf-8"?>
<!-- Generator: Adobe Illustrator 16.0.4, SVG Export Plug-In . SVG Version: 6.00 Build 0)  -->
<!DOCTYPE svg PUBLIC "-//W3C//DTD SVG 1.1//EN" "http://www.w3.org/Graphics/SVG/1.1/DTD/svg11.dtd">
<svg version="1.1" id="Capa_1" xmlns="http://www.w3.org/2000/svg" xmlns:xlink="http://www.w3.org/1999/xlink" x="0px" y="0px"
	 width="32px" height="32px" viewBox="0 0 32 32" enable-background="new 0 0 32 32" xml:space="preserve">
<path d="M23,14c-0.025,0-0.049,0.003-0.074,0.004C23.607,12.826,24,11.459,24,10c0-4.418-3.582-8-8-8s-8,3.582-8,8
	c0,4.26,3.332,7.732,7.531,7.977C15.112,18.6,14.778,19.281,14.523,20H4c-4,0-4,4-4,4v8h32v-8c0,0,0-0.793,0-1
	C31.998,18.027,27.971,14,23,14z M23,29.883c-3.801-0.009-6.876-3.084-6.884-6.883c0.008-3.801,3.083-6.876,6.884-6.884
	c3.799,0.008,6.874,3.083,6.883,6.884C29.874,26.799,26.799,29.874,23,29.883z M26.158,21.591c-0.006-0.678-0.088-1.491-0.557-2.259
	c-0.457-0.779-1.438-1.359-2.602-1.333c-1.165-0.026-2.148,0.554-2.605,1.333c-0.47,0.768-0.552,1.581-0.556,2.259
	c0,0.144,0.007,0.278,0.015,0.409H19v5h8v-5h-0.855C26.152,21.869,26.158,21.732,26.158,21.591z M24.139,22h-2.283
	c-0.01-0.131-0.019-0.268-0.019-0.409c-0.004-0.478,0.093-0.958,0.254-1.198c0.173-0.227,0.271-0.365,0.909-0.394
	c0.637,0.026,0.73,0.165,0.904,0.394c0.162,0.24,0.259,0.724,0.253,1.198C24.157,21.736,24.148,21.871,24.139,22z"/>
</svg>
