<?xml version="1.0" encoding="utf-8"?>
<!-- Generator: Adobe Illustrator 16.0.4, SVG Export Plug-In . SVG Version: 6.00 Build 0)  -->
<!DOCTYPE svg PUBLIC "-//W3C//DTD SVG 1.1//EN" "http://www.w3.org/Graphics/SVG/1.1/DTD/svg11.dtd">
<svg version="1.1" id="Capa_1" xmlns="http://www.w3.org/2000/svg" xmlns:xlink="http://www.w3.org/1999/xlink" x="0px" y="0px"
	 width="32px" height="32px" viewBox="0 0 32 32" enable-background="new 0 0 32 32" xml:space="preserve">
<path d="M12.001,18c2.209,0,4-1.791,4-4s-1.791-4-4-4s-4,1.791-4,4S9.792,18,12.001,18z M24.001,14.059V5.584L18.415,0H0.001v32h24
	v-0.061C28.5,31.441,32,27.633,32,23S28.5,14.557,24.001,14.059z M17.999,2.413L21.587,6h-3.588V2.413z M2.001,30V1.998h14v6.001h6
	v6.06c-3.478,0.385-6.348,2.75-7.477,5.941c-3.562,0-8.523,0-8.523,0s-2,0-2,2c0,1,0,6,0,6h11.518c0.506,0.756,1.125,1.43,1.833,2
	H2.001z M23.001,29.999c-3.864-0.008-6.994-3.135-7-6.999c0.006-3.865,3.136-6.994,7-7c3.864,0.006,6.991,3.135,6.999,7
	C29.992,26.864,26.865,29.991,23.001,29.999z"/>
<path d="M22,27h-3v-3L22,27z M28,21l-5,5l-3-3.001l5-5L28,21z"/>
</svg>
