<?xml version="1.0" encoding="utf-8"?>
<!-- Generator: Adobe Illustrator 16.0.4, SVG Export Plug-In . SVG Version: 6.00 Build 0)  -->
<!DOCTYPE svg PUBLIC "-//W3C//DTD SVG 1.1//EN" "http://www.w3.org/Graphics/SVG/1.1/DTD/svg11.dtd">
<svg version="1.1" id="Capa_1" xmlns="http://www.w3.org/2000/svg" xmlns:xlink="http://www.w3.org/1999/xlink" x="0px" y="0px"
	 width="32px" height="32px" viewBox="0 0 32 32" enable-background="new 0 0 32 32" xml:space="preserve">
<g>
	<path d="M32,16.001l-6-6v4h-2.001V8h-16v6.001H6v-4l-6,6.001l6,5.999v-4h1.999V24h6.06c0.498,4.499,4.308,7.998,8.941,8
		c4.971-0.002,8.998-4.029,9-9c-0.001-1.975-0.645-3.794-1.721-5.277L32,16.001z M9.999,22V10h12v4.059
		c-4.172,0.462-7.479,3.77-7.94,7.941H9.999z M23,29.883c-3.801-0.009-6.876-3.084-6.885-6.883c0.009-3.801,3.084-6.876,6.885-6.884
		c3.799,0.008,6.874,3.083,6.883,6.884C29.874,26.799,26.799,29.874,23,29.883z"/>
	<polygon points="22,23 20,21 18,23 22,27 28,21 26,19 	"/>
</g>
</svg>
