<?xml version="1.0" encoding="utf-8"?>
<!-- Generator: Adobe Illustrator 17.0.0, SVG Export Plug-In . SVG Version: 6.00 Build 0)  -->
<!DOCTYPE svg PUBLIC "-//W3C//DTD SVG 1.1//EN" "http://www.w3.org/Graphics/SVG/1.1/DTD/svg11.dtd">
<svg version="1.1" id="Capa_1" xmlns="http://www.w3.org/2000/svg" xmlns:xlink="http://www.w3.org/1999/xlink" x="0px" y="0px"
	 width="32px" height="32px" viewBox="0 0 32 32" enable-background="new 0 0 32 32" xml:space="preserve">
<path d="M21,10c1.656,0,3,1.344,3,3s-1.344,3-3,3c-0.463,0-0.895-0.113-1.286-0.3l-2.309,2.311l2.296,2.296
	C20.096,20.116,20.532,20,21,20c1.656,0,3,1.344,3,3s-1.344,3-3,3c-1.658,0-3-1.344-3-3c0-0.457,0.11-0.886,0.293-1.273
	l-2.302-2.302l-2.29,2.291C13.887,22.106,14,22.538,14,23c0,1.656-1.343,3-3,3s-3-1.344-3-3s1.343-3,3-3
	c0.462,0,0.896,0.113,1.286,0.301l2.29-2.29l-2.303-2.304C11.885,15.89,11.457,16,11,16c-1.657,0-3-1.344-3-3s1.343-3,3-3
	s3,1.344,3,3c0,0.467-0.116,0.904-0.307,1.299l2.297,2.297l2.31-2.31C18.113,13.895,18,13.462,18,13C18,11.344,19.342,10,21,10z
	 M28,5.584V32H4V0h18.414L28,5.584z M21.998,6.001h3.588l-3.588-3.587V6.001z M26,8h-6V1.999H6V30h20V8z"/>
</svg>
