<?xml version="1.0" encoding="utf-8"?>
<!-- Generator: Adobe Illustrator 18.1.1, SVG Export Plug-In . SVG Version: 6.00 Build 0)  -->
<!DOCTYPE svg PUBLIC "-//W3C//DTD SVG 1.1//EN" "http://www.w3.org/Graphics/SVG/1.1/DTD/svg11.dtd">
<svg version="1.1" id="Layer_1" xmlns="http://www.w3.org/2000/svg" xmlns:xlink="http://www.w3.org/1999/xlink" x="0px" y="0px"
	 viewBox="0 0 142.9 122.6" enable-background="new 0 0 142.9 122.6" xml:space="preserve">
<g>
	<g>
		<g>
			<path fill="#FFFFFF" d="M50.5,26.1c-5.1,0-8.4,1.9-8.4,4.3v0.2v6.1v6.5c0,0.4,0.1,0.8,0.3,1.3c0.6,1.5,2.3,3,5,3.5
				c-2.3,0.4-3.9,1.5-4.6,2.8c-0.4,0.7-0.6,1.3-0.6,2v6.5v4.8v6.6v21.5c0,2.4,3.4,4.3,8.4,4.3s8.4-1.9,8.4-4.3V70.6v-6.6v-4.8v-6.5
				c0-0.6-0.2-1.3-0.6-2c-0.8-1.3-2.3-2.4-4.6-2.8c2.7-0.5,4.4-2,5-3.5c0.2-0.4,0.3-0.9,0.3-1.3v-6.5v-6.1v-0.2
				C59,28,55.6,26.1,50.5,26.1z"/>
			<path d="M50.5,97.4c-5.6,0-9.5-2.2-9.5-5.3V52.6c0-0.8,0.3-1.7,0.8-2.5c0.6-0.9,1.4-1.7,2.4-2.2c-1.4-0.8-2.4-1.8-2.9-3.1
				c-0.2-0.6-0.3-1.1-0.3-1.6V30.4c0-3.1,3.9-5.3,9.5-5.3s9.5,2.2,9.5,5.3v12.7c0,0.5-0.1,1.1-0.3,1.6c-0.5,1.3-1.5,2.4-2.9,3.1
				c1,0.6,1.9,1.3,2.4,2.2c0.5,0.8,0.8,1.7,0.8,2.5v39.5C60,95.3,56.1,97.4,50.5,97.4z M50.5,48.4l-3,0.5c-1.8,0.3-3.2,1.2-4,2.3
				c-0.3,0.5-0.5,1-0.5,1.4v39.5c0,1.6,2.8,3.3,7.4,3.3s7.4-1.7,7.4-3.3V52.6c0-0.4-0.2-1-0.5-1.4c-0.7-1.2-2.2-2-4-2.3L50.5,48.4z
				 M50.5,27.1c-4.6,0-7.4,1.7-7.4,3.3v12.7c0,0.3,0.1,0.6,0.2,0.9c0.4,1.1,1.8,2.4,4.2,2.9l3,0.5l3-0.5c2.5-0.4,3.8-1.8,4.2-2.9
				c0.1-0.3,0.2-0.6,0.2-0.9V30.4C57.9,28.8,55.2,27.1,50.5,27.1z"/>
		</g>
		<g>
			<g>
				<path fill="#F6F6F6" d="M42.1,52.6v6.5H59v-6.5c0-0.6-0.2-1.3-0.6-2H42.7C42.3,51.3,42.1,52,42.1,52.6z"/>
			</g>
			<g>
				<path fill="#F6F6F6" d="M59,43.1v-6.5H42.1v6.5c0,0.4,0.1,0.8,0.3,1.3h16.4C58.9,44,59,43.5,59,43.1z"/>
			</g>
			<g>
				<path fill="#F6F6F6" d="M59,30.4c0-2.4-3.4-4.3-8.4-4.3s-8.4,1.9-8.4,4.3v0.2H59V30.4z"/>
			</g>
			<g>
				<rect x="42.1" y="63.9" fill="#F6F6F6" width="16.9" height="8.3"/>
			</g>
			<rect x="42.1" y="30.6" fill="#C6C6C6" width="16.9" height="6.1"/>
			<path fill="#B2B2B2" d="M53.7,47.9c2.7-0.5,4.4-2,5-3.5H42.3c0.6,1.5,2.3,3,5,3.5c-2.3,0.4-3.9,1.5-4.6,2.8h15.6
				C57.5,49.4,56,48.3,53.7,47.9z"/>
			<rect x="42.1" y="59.1" fill="#9D9D9C" width="16.9" height="4.8"/>
			<path fill="#DADADA" d="M42.1,92.1c0,2.4,3.4,4.3,8.4,4.3s8.4-1.9,8.4-4.3V72.3H42.1V92.1z"/>
		</g>
	</g>
	<rect x="42" y="60.8" width="70.7" height="1.2"/>
	<polygon points="59.5,54.8 41.6,54.8 41.6,53.6 59.2,53.6 73.3,44.7 74,45.7 	"/>
	<g>
		<g>
			<g>
				<circle fill="#C6C6C6" cx="73.9" cy="61.4" r="8.2"/>
				<path d="M73.9,70.1c-4.8,0-8.7-3.9-8.7-8.7c0-4.8,3.9-8.7,8.7-8.7s8.7,3.9,8.7,8.7C82.5,66.2,78.6,70.1,73.9,70.1z M73.9,53.6
					c-4.3,0-7.7,3.5-7.7,7.7c0,4.3,3.5,7.7,7.7,7.7s7.7-3.5,7.7-7.7C81.6,57.1,78.1,53.6,73.9,53.6z"/>
			</g>
			<g>
				<circle fill="#9D9D9C" cx="90.3" cy="61.4" r="8.2"/>
				<path d="M90.3,70.1c-4.8,0-8.7-3.9-8.7-8.7c0-4.8,3.9-8.7,8.7-8.7s8.7,3.9,8.7,8.7C99,66.2,95.1,70.1,90.3,70.1z M90.3,53.6
					c-4.3,0-7.7,3.5-7.7,7.7c0,4.3,3.5,7.7,7.7,7.7c4.3,0,7.7-3.5,7.7-7.7C98,57.1,94.5,53.6,90.3,53.6z"/>
			</g>
		</g>
		<g>
			<g>
				<circle fill="#C6C6C6" cx="73.9" cy="45" r="8.2"/>
				<path d="M73.9,53.6c-4.8,0-8.7-3.9-8.7-8.7s3.9-8.7,8.7-8.7s8.7,3.9,8.7,8.7S78.6,53.6,73.9,53.6z M73.9,37.2
					c-4.3,0-7.7,3.5-7.7,7.7c0,4.3,3.5,7.7,7.7,7.7s7.7-3.5,7.7-7.7C81.6,40.7,78.1,37.2,73.9,37.2z"/>
			</g>
			<g>
				<circle fill="#DADADA" cx="90.3" cy="45" r="8.2"/>
				<path d="M90.3,53.6c-4.8,0-8.7-3.9-8.7-8.7s3.9-8.7,8.7-8.7S99,40.2,99,45S95.1,53.6,90.3,53.6z M90.3,37.2
					c-4.3,0-7.7,3.5-7.7,7.7c0,4.3,3.5,7.7,7.7,7.7c4.3,0,7.7-3.5,7.7-7.7C98,40.7,94.5,37.2,90.3,37.2z"/>
			</g>
		</g>
	</g>
</g>
<polygon points="73.4,78.7 59.1,68.3 41.6,68.3 41.6,67.1 59.5,67.1 74.1,77.7 "/>
<g>
	<circle fill="#EDEDED" cx="73.9" cy="77.8" r="8.2"/>
	<path d="M73.9,86.5c-4.8,0-8.7-3.9-8.7-8.7s3.9-8.7,8.7-8.7s8.7,3.9,8.7,8.7S78.6,86.5,73.9,86.5z M73.9,70.1
		c-4.3,0-7.7,3.5-7.7,7.7s3.5,7.7,7.7,7.7s7.7-3.5,7.7-7.7S78.1,70.1,73.9,70.1z"/>
</g>
<g>
	<circle fill="#DADADA" cx="106.7" cy="61.4" r="8.2"/>
	<path fill="#1C1C1B" d="M106.7,70.1c-4.8,0-8.7-3.9-8.7-8.7c0-4.8,3.9-8.7,8.7-8.7s8.7,3.9,8.7,8.7
		C115.4,66.2,111.5,70.1,106.7,70.1z M106.7,53.6c-4.3,0-7.7,3.5-7.7,7.7c0,4.3,3.5,7.7,7.7,7.7c4.3,0,7.7-3.5,7.7-7.7
		C114.4,57.1,110.9,53.6,106.7,53.6z"/>
</g>
</svg>
