<?xml version="1.0" encoding="utf-8"?>
<!-- Generator: Adobe Illustrator 16.0.4, SVG Export Plug-In . SVG Version: 6.00 Build 0)  -->
<!DOCTYPE svg PUBLIC "-//W3C//DTD SVG 1.1//EN" "http://www.w3.org/Graphics/SVG/1.1/DTD/svg11.dtd">
<svg version="1.1" id="Capa_1" xmlns="http://www.w3.org/2000/svg" xmlns:xlink="http://www.w3.org/1999/xlink" x="0px" y="0px"
	 width="32px" height="32px" viewBox="0 0 32 32" enable-background="new 0 0 32 32" xml:space="preserve">
<path d="M29,8H16H3c-1.657,0-3,1.343-3,3v7.5c0,4.143,3.582,6.157,8,4.5c1.458-0.547,2.824-1.059,4-1.5c2.209-0.829,5.791-0.829,8,0
	c1.177,0.441,2.543,0.953,4,1.5c4.418,1.657,8-0.357,8-4.5V11C32,9.343,30.657,8,29,8z M10,16H8v2H6v-2H4v-2h2v-2h2v2h2V16z M25,12
	c0.553,0,1,0.447,1,1s-0.447,1-1,1s-1-0.447-1-1S24.447,12,25,12z M23,16c-0.553,0-1-0.447-1-1s0.447-1,1-1s1,0.447,1,1
	S23.553,16,23,16z M25,18c-0.553,0-1-0.447-1-1c0-0.553,0.447-1,1-1s1,0.447,1,1C26,17.553,25.553,18,25,18z M27,16
	c-0.553,0-1-0.447-1-1s0.447-1,1-1s1,0.447,1,1S27.553,16,27,16z"/>
</svg>
