<?xml version="1.0" encoding="utf-8"?>
<!-- Generator: Adobe Illustrator 16.0.4, SVG Export Plug-In . SVG Version: 6.00 Build 0)  -->
<!DOCTYPE svg PUBLIC "-//W3C//DTD SVG 1.1//EN" "http://www.w3.org/Graphics/SVG/1.1/DTD/svg11.dtd">
<svg version="1.1" id="Capa_1" xmlns="http://www.w3.org/2000/svg" xmlns:xlink="http://www.w3.org/1999/xlink" x="0px" y="0px"
	 width="32px" height="32px" viewBox="0 0 32 32" enable-background="new 0 0 32 32" xml:space="preserve">
<g>
	<path d="M16,6C6,6,0,15.938,0,15.938S6,26,16,26s16-10,16-10S26,6,16,6z M16,24c-8.75,0-13.5-8-13.5-8S7.25,8,16,8s13.5,8,13.5,8
		S24.75,24,16,24z"/>
	<path d="M21,12h-1l-2-2h-4l-2,2h-1c0,0-2,0-2,2c0,1.068,0,3.705,0,5c0,2,2,2,2,2s8.641,0,10,0c2,0,2-2,2-2s0-3,0-5S21,12,21,12z
		 M16,19c-1.658,0-3-1.343-3-3s1.342-3,3-3c1.654,0,3,1.343,3,3S17.654,19,16,19z"/>
</g>
</svg>
