<?xml version="1.0" encoding="utf-8"?>
<!-- Generator: Adobe Illustrator 16.0.4, SVG Export Plug-In . SVG Version: 6.00 Build 0)  -->
<!DOCTYPE svg PUBLIC "-//W3C//DTD SVG 1.1//EN" "http://www.w3.org/Graphics/SVG/1.1/DTD/svg11.dtd">
<svg version="1.1" id="Capa_1" xmlns="http://www.w3.org/2000/svg" xmlns:xlink="http://www.w3.org/1999/xlink" x="0px" y="0px"
	 width="32px" height="32px" viewBox="0 0 32 32" enable-background="new 0 0 32 32" xml:space="preserve">
<path d="M8,0v32h16V0H8z M13,30h-2v-2.001h2V30z M13,26h-2v-2h2V26z M13,22h-2v-2h2V22z M17,30h-2v-2h2V30z M17,26h-2v-2h2V26z
	 M17,22h-2v-2h2V22z M21,30h-2v-2h2V30z M21,26h-2v-2h2V26z M21,22h-2v-2h2V22z M21,18H11V4h10V18z"/>
</svg>
