<?xml version="1.0" encoding="utf-8"?>
<!-- Generator: Adobe Illustrator 16.0.4, SVG Export Plug-In . SVG Version: 6.00 Build 0)  -->
<!DOCTYPE svg PUBLIC "-//W3C//DTD SVG 1.1//EN" "http://www.w3.org/Graphics/SVG/1.1/DTD/svg11.dtd">
<svg version="1.1" id="Capa_1" xmlns="http://www.w3.org/2000/svg" xmlns:xlink="http://www.w3.org/1999/xlink" x="0px" y="0px"
	 width="32px" height="32px" viewBox="0 0 32 32" enable-background="new 0 0 32 32" xml:space="preserve">
<polygon points="16,32 22,26 10,26 "/>
<polygon points="6,22 6,10 0,16 "/>
<polygon points="26,10 26,22 32,16 "/>
<polygon points="10,6 22,6 16,0 "/>
<path d="M16,9.999C12.686,10,10,12.686,10,16c0,3.314,2.685,5.999,5.999,6c3.313-0.002,5.999-2.688,5.999-6H22
	C21.998,12.686,19.312,10,16,9.999z M16,19.998c-2.208-0.004-3.996-1.789-4-3.998c0.004-2.208,1.792-3.996,4-4
	c2.209,0.004,3.995,1.79,3.999,3.999H20C19.994,18.209,18.209,19.994,16,19.998z"/>
</svg>
