<?xml version="1.0" encoding="utf-8"?>
<!-- Generator: Adobe Illustrator 16.0.4, SVG Export Plug-In . SVG Version: 6.00 Build 0)  -->
<!DOCTYPE svg PUBLIC "-//W3C//DTD SVG 1.1//EN" "http://www.w3.org/Graphics/SVG/1.1/DTD/svg11.dtd">
<svg version="1.1" id="Capa_1" xmlns="http://www.w3.org/2000/svg" xmlns:xlink="http://www.w3.org/1999/xlink" x="0px" y="0px"
	 width="32px" height="32px" viewBox="0 0 32 32" enable-background="new 0 0 32 32" xml:space="preserve">
<path d="M22,22v2.001L19.816,24c-0.303-0.85-0.969-1.518-1.818-1.816L17.999,20H20v-8h-8v2H9.817
	C9.516,13.151,8.849,12.485,8,12.184V10h2V2H2v8h4v2.184C4.837,12.597,4,13.695,4,15c0,1.304,0.837,2.402,2,2.816V26h8.185
	c0.413,1.163,1.512,2,2.816,2c1.306,0,2.403-0.838,2.815-2.001H22V30h8v-8H22z M15.999,22.184c-0.848,0.303-1.513,0.969-1.815,1.815
	L8,23.998v-6.182c0.849-0.303,1.516-0.969,1.817-1.818H12V20h3.999V22.184z"/>
</svg>
