<?xml version="1.0" encoding="utf-8"?>
<!-- Generator: Adobe Illustrator 16.0.4, SVG Export Plug-In . SVG Version: 6.00 Build 0)  -->
<!DOCTYPE svg PUBLIC "-//W3C//DTD SVG 1.1//EN" "http://www.w3.org/Graphics/SVG/1.1/DTD/svg11.dtd">
<svg version="1.1" id="Capa_1" xmlns="http://www.w3.org/2000/svg" xmlns:xlink="http://www.w3.org/1999/xlink" x="0px" y="0px"
	 width="32px" height="32px" viewBox="0 0 32 32" enable-background="new 0 0 32 32" xml:space="preserve">
<path d="M19.035,15.036C19.646,13.821,19.999,12.453,20,11c-0.002-4.973-4.029-9-9-9.002C6.027,2,2,6.027,1.999,11
	C2,15.971,6.027,19.998,11,20c1.453-0.001,2.82-0.354,4.035-0.965L26,30l4-4L19.035,15.036z M11,18c-3.868-0.009-6.994-3.133-7-7
	c0.006-3.868,3.132-6.994,7-7c3.867,0.006,6.991,3.132,6.999,7.001C17.991,14.868,14.867,17.992,11,18z"/>
</svg>
