<?xml version="1.0" encoding="utf-8"?>
<!-- Generator: Adobe Illustrator 16.0.4, SVG Export Plug-In . SVG Version: 6.00 Build 0)  -->
<!DOCTYPE svg PUBLIC "-//W3C//DTD SVG 1.1//EN" "http://www.w3.org/Graphics/SVG/1.1/DTD/svg11.dtd">
<svg version="1.1" id="Capa_1" xmlns="http://www.w3.org/2000/svg" xmlns:xlink="http://www.w3.org/1999/xlink" x="0px" y="0px"
	 width="32px" height="32px" viewBox="0 0 32 32" enable-background="new 0 0 32 32" xml:space="preserve">
<path d="M28,7.786h-0.002c-0.031-0.976-0.691-1.542-1.352-1.943C24.609,4.659,20.68,4.021,16,4c-3.109,0-5.919,0.315-8.025,0.846
	C6.921,5.116,6.042,5.431,5.35,5.843C4.692,6.244,4.031,6.811,4,7.786c0.001,0.028,0.007,0.053,0.009,0.081H4.003L5.705,28.41
	l0.037,0.113c0.142,0.517,1.697,3.522,10.257,3.475h0.218c8.43,0.001,9.909-2.965,10.045-3.495l0.029-0.104l1.704-20.532H27.99
	C27.992,7.839,27.999,7.814,28,7.786z M24.324,27.938c-0.25,0.367-1.743,2.045-8.325,2.062c-4.088,0.002-6.251-0.685-7.322-1.271
	c-0.538-0.295-0.81-0.561-0.941-0.72c-0.027-0.032-0.048-0.061-0.064-0.083L6.2,10.145c2.182,0.916,5.703,1.408,9.801,1.428
	c3.106-0.002,5.917-0.315,8.022-0.849c0.666-0.169,1.254-0.362,1.777-0.582L24.324,27.938z M25.896,7.82
	c-0.383,0.354-1.692,0.885-3.451,1.207C20.68,9.365,18.434,9.571,16,9.571c-2.969,0-5.658-0.309-7.533-0.784
	c-0.937-0.235-1.67-0.521-2.09-0.774c-0.145-0.087-0.25-0.168-0.314-0.229c0.012-0.01,0.025-0.021,0.039-0.033
	c0.383-0.354,1.692-0.883,3.45-1.206c1.767-0.34,4.013-0.546,6.448-0.546c2.966,0,5.654,0.309,7.533,0.785
	c0.935,0.237,1.667,0.521,2.087,0.774c0.146,0.086,0.251,0.168,0.313,0.228C25.923,7.796,25.911,7.807,25.896,7.82z"/>
</svg>
