<?xml version="1.0" encoding="utf-8"?>
<!-- Generator: Adobe Illustrator 16.0.4, SVG Export Plug-In . SVG Version: 6.00 Build 0)  -->
<!DOCTYPE svg PUBLIC "-//W3C//DTD SVG 1.1//EN" "http://www.w3.org/Graphics/SVG/1.1/DTD/svg11.dtd">
<svg version="1.1" id="Capa_1" xmlns="http://www.w3.org/2000/svg" xmlns:xlink="http://www.w3.org/1999/xlink" x="0px" y="0px"
	 width="32px" height="32px" viewBox="0 0 32 32" enable-background="new 0 0 32 32" xml:space="preserve">
<g>
	<polygon points="14,14.001 18,14.001 18,8.001 22,8.001 16,2.001 10,8.001 14,8.001 	"/>
	<path d="M26.337,21.999c-0.063-0.212-0.146-0.413-0.245-0.606l1.188-1.187l-1.416-1.415l-1.165,1.166
		c-0.22-0.123-0.452-0.221-0.697-0.294V18h-2v1.662c-0.229,0.068-0.446,0.158-0.651,0.27l-1.142-1.14l-1.415,1.415l1.141,1.141
		C19.82,21.555,19.73,21.771,19.662,22H18v2h1.662c0.072,0.246,0.172,0.479,0.295,0.698l-1.165,1.163l1.413,1.416l1.188-1.188
		c0.192,0.102,0.395,0.182,0.605,0.245V28H24v-1.665c0.229-0.067,0.445-0.158,0.65-0.271l1.213,1.213l1.414-1.416l-1.213-1.211
		c0.111-0.205,0.201-0.422,0.271-0.65H28v-2.001H26.337z M22.999,24.499c-0.829-0.002-1.498-0.671-1.501-1.5
		c0.003-0.829,0.672-1.498,1.501-1.501c0.829,0.003,1.498,0.672,1.5,1.501C24.497,23.828,23.828,24.497,22.999,24.499z"/>
	<path d="M23,14.001c-3.121,0-5.869,1.588-7.483,4H2v8h12.523C15.76,29.494,19.082,32,23,32c4.971,0,8.999-4.027,8.999-8.999
		S27.971,14.001,23,14.001z M8,24.001H4v-2h4V24.001z M23,30c-3.865-0.008-6.994-3.135-7-6.999c0.006-3.865,3.135-6.994,7-7
		c3.863,0.006,6.991,3.135,6.999,7C29.991,26.865,26.863,29.992,23,30z"/>
</g>
</svg>
