<?xml version="1.0" encoding="utf-8"?>
<!-- Generator: Adobe Illustrator 16.0.4, SVG Export Plug-In . SVG Version: 6.00 Build 0)  -->
<!DOCTYPE svg PUBLIC "-//W3C//DTD SVG 1.1//EN" "http://www.w3.org/Graphics/SVG/1.1/DTD/svg11.dtd">
<svg version="1.1" id="Capa_1" xmlns="http://www.w3.org/2000/svg" xmlns:xlink="http://www.w3.org/1999/xlink" x="0px" y="0px"
	 width="32px" height="32px" viewBox="0 0 32 32" enable-background="new 0 0 32 32" xml:space="preserve">
<g>
	<polygon points="14.001,14 18.001,14 18.001,8 22.001,8 16.001,2 10.001,8 14.001,8 	"/>
	<path d="M23.001,14c-3.121,0-5.869,1.588-7.483,4H2v8h12.523c1.237,3.493,4.559,5.999,8.477,5.999c4.973,0,9-4.028,9-8.999
		C32,18.027,27.973,14,23.001,14z M8,24H4v-2h4V24z M23.001,29.999c-3.864-0.008-6.994-3.135-7-6.999c0.006-3.865,3.136-6.994,7-7
		c3.864,0.006,6.991,3.135,6.999,7C29.992,26.864,26.865,29.991,23.001,29.999z"/>
	<path d="M26.158,21.591c-0.006-0.678-0.088-1.491-0.557-2.259c-0.457-0.779-1.438-1.359-2.602-1.333
		c-1.165-0.026-2.148,0.554-2.605,1.333c-0.47,0.768-0.552,1.581-0.556,2.259c0,0.144,0.007,0.278,0.015,0.409H19v5h8v-5h-0.855
		C26.152,21.869,26.158,21.732,26.158,21.591z M24.139,22h-2.283c-0.01-0.131-0.019-0.268-0.019-0.409
		c-0.004-0.478,0.093-0.958,0.254-1.198c0.173-0.227,0.271-0.365,0.909-0.394c0.637,0.026,0.73,0.165,0.904,0.394
		c0.162,0.24,0.259,0.724,0.253,1.198C24.157,21.736,24.148,21.871,24.139,22z"/>
</g>
</svg>
