<?xml version="1.0" encoding="utf-8"?>
<!-- Generator: Adobe Illustrator 16.0.4, SVG Export Plug-In . SVG Version: 6.00 Build 0)  -->
<!DOCTYPE svg PUBLIC "-//W3C//DTD SVG 1.1//EN" "http://www.w3.org/Graphics/SVG/1.1/DTD/svg11.dtd">
<svg version="1.1" id="Capa_1" xmlns="http://www.w3.org/2000/svg" xmlns:xlink="http://www.w3.org/1999/xlink" x="0px" y="0px"
	 width="32px" height="32px" viewBox="0 0 32 32" enable-background="new 0 0 32 32" xml:space="preserve">
<g>
	<polygon points="14,14.001 18,14.001 18,8 22,8 16,2 10,8 14,8 	"/>
	<path d="M23,14.001c-3.121,0-5.869,1.588-7.482,4H2v8h12.523C15.76,29.494,19.082,32,23,32c4.971,0,9-4.027,9-8.999
		S27.971,14.001,23,14.001z M8,24.001H4v-2h4V24.001z M23,30c-3.865-0.008-6.994-3.135-7-6.999c0.006-3.865,3.134-6.994,7-7
		c3.865,0.006,6.992,3.135,7,7C29.992,26.865,26.865,29.992,23,30z"/>
	<polygon points="22,27 26,23 22,19 	"/>
</g>
</svg>
