<?xml version="1.0" encoding="utf-8"?>
<!-- Generator: Adobe Illustrator 16.0.4, SVG Export Plug-In . SVG Version: 6.00 Build 0)  -->
<!DOCTYPE svg PUBLIC "-//W3C//DTD SVG 1.1//EN" "http://www.w3.org/Graphics/SVG/1.1/DTD/svg11.dtd">
<svg version="1.1" id="Capa_1" xmlns="http://www.w3.org/2000/svg" xmlns:xlink="http://www.w3.org/1999/xlink" x="0px" y="0px"
	 width="32px" height="32px" viewBox="0 0 32 32" enable-background="new 0 0 32 32" xml:space="preserve">
<path d="M32,23c-0.002-4.973-4.029-9-9-9c-0.025,0-0.049,0.003-0.074,0.004C23.607,12.826,24,11.459,24,10c0-4.418-3.582-8-8-8
	s-8,3.582-8,8c0,4.26,3.332,7.732,7.531,7.977C15.112,18.6,14.778,19.281,14.523,20H4c-4,0-4,4-4,4v8h32v-8C32,24,32,23.207,32,23z
	 M29.883,23c-0.009,3.799-3.084,6.874-6.883,6.883c-3.801-0.009-6.876-3.084-6.885-6.883c0.009-3.801,3.084-6.876,6.885-6.884
	C26.799,16.124,29.874,19.199,29.883,23z"/>
<path d="M22,27h-3v-3L22,27z M28,21l-5,5l-3-3.001l5-5L28,21z"/>
</svg>
