<?xml version="1.0" encoding="utf-8"?>
<!-- Generator: Adobe Illustrator 16.0.4, SVG Export Plug-In . SVG Version: 6.00 Build 0)  -->
<!DOCTYPE svg PUBLIC "-//W3C//DTD SVG 1.1//EN" "http://www.w3.org/Graphics/SVG/1.1/DTD/svg11.dtd">
<svg version="1.1" id="Capa_1" xmlns="http://www.w3.org/2000/svg" xmlns:xlink="http://www.w3.org/1999/xlink" x="0px" y="0px"
	 width="32px" height="32px" viewBox="0 0 32 32" enable-background="new 0 0 32 32" xml:space="preserve">
<g>
	<path d="M14,10v2c1.52,0.011,3.082,0.597,4.242,1.757c1.16,1.16,1.746,2.722,1.758,4.243h2c-0.012-2.033-0.792-4.106-2.344-5.657
		C18.105,10.792,16.032,10.011,14,10z"/>
	<path d="M14,6v2c2.543,0.011,5.129,0.987,7.07,2.929c1.941,1.94,2.918,4.526,2.93,7.071h2c-0.012-3.056-1.184-6.154-3.516-8.486
		S17.055,6.011,14,6z"/>
	<path d="M25.312,6.686C22.189,3.562,18.096,2,14,2v2c3.568,0.012,7.132,1.422,9.855,4.144C26.578,10.867,27.988,14.432,28,18h2
		C30,13.904,28.438,9.81,25.312,6.686z"/>
	<path d="M18,17c0-1.657-1.344-3-3-3s-3,1.343-3,3c0,1.305,0.838,2.402,2,2.816v6.367c-0.098,0.035-0.193,0.072-0.286,0.116
		L5.7,18.286C5.887,17.896,6,17.463,6,17c0-1.657-1.343-3-3-3s-3,1.343-3,3c0,1.305,0.837,2.402,2,2.816v6.367
		C0.837,26.598,0,27.695,0,29c0,1.657,1.343,3,3,3s3-1.343,3-3c0-1.305-0.837-2.402-2-2.816v-6.367
		c0.098-0.034,0.193-0.071,0.285-0.115l8.015,8.015C12.113,28.105,12,28.538,12,29c0,1.657,1.343,3,3,3c1.656,0,3-1.343,3-3
		c0-1.305-0.838-2.402-2-2.816v-6.367C17.162,19.402,18,18.305,18,17z"/>
</g>
</svg>
