<?xml version="1.0" encoding="utf-8"?>
<!-- Generator: Adobe Illustrator 16.0.4, SVG Export Plug-In . SVG Version: 6.00 Build 0)  -->
<!DOCTYPE svg PUBLIC "-//W3C//DTD SVG 1.1//EN" "http://www.w3.org/Graphics/SVG/1.1/DTD/svg11.dtd">
<svg version="1.1" id="Capa_1" xmlns="http://www.w3.org/2000/svg" xmlns:xlink="http://www.w3.org/1999/xlink" x="0px" y="0px"
	 width="32px" height="32px" viewBox="0 0 32 32" enable-background="new 0 0 32 32" xml:space="preserve">
<path d="M26,20c-1.296,0-2.492,0.414-3.473,1.111l-5.113-5.112l5.111-5.112C23.507,11.585,24.703,12,26,12c3.312,0,6-2.687,6-6
	s-2.688-6-6-6c-3.316,0-6,2.687-6,6c0,1.295,0.414,2.491,1.111,3.472l-5.112,5.113l-5.112-5.112C11.585,8.492,12,7.295,12,6
	c0-3.313-2.686-6-6-6S0,2.687,0,6s2.686,6,6,6c1.296,0,2.492-0.415,3.473-1.113l5.112,5.112l-5.113,5.112
	C8.491,20.414,7.295,20,6,20c-3.314,0-6,2.688-6,6s2.686,6,6,6s6-2.688,6-6c0-1.296-0.415-2.492-1.113-3.473l5.112-5.113
	l5.112,5.113C20.414,23.509,20,24.705,20,26c0,3.312,2.684,6,6,6c3.312,0,6-2.688,6-6S29.312,20,26,20z"/>
</svg>
